<svg width="16" height="16" viewBox="0 0 16 16" fill="none" xmlns="http://www.w3.org/2000/svg">
<g clip-path="url(#clip0_249_1831)">
<path fill-rule="evenodd" clip-rule="evenodd" d="M10.6834 7.49581C10.8138 7.62727 10.887 7.80554 10.887 7.99143C10.887 8.17731 10.8138 8.35558 10.6834 8.48704L6.74936 12.4527C6.68521 12.5196 6.60847 12.5731 6.52363 12.6098C6.43878 12.6465 6.34753 12.6659 6.25519 12.6667C6.16285 12.6675 6.07127 12.6498 5.98581 12.6145C5.90034 12.5793 5.82269 12.5272 5.7574 12.4614C5.6921 12.3956 5.64046 12.3173 5.6055 12.2311C5.57053 12.145 5.55293 12.0527 5.55374 11.9596C5.55454 11.8665 5.57372 11.7745 5.61017 11.689C5.64662 11.6035 5.6996 11.5261 5.76602 11.4615L9.20842 7.99143L5.76602 4.52139C5.63934 4.38918 5.56924 4.2121 5.57083 4.0283C5.57241 3.84449 5.64555 3.66867 5.77449 3.5387C5.90343 3.40872 6.07785 3.335 6.26019 3.3334C6.44253 3.3318 6.6182 3.40246 6.74936 3.53016L10.6834 7.49581Z" fill="#EFEFE5"/>
</g>
<defs>
<clipPath id="clip0_249_1831">
<rect width="16" height="16" fill="white"/>
</clipPath>
</defs>
</svg>
