<svg width="65" height="66" viewBox="0 0 65 66" fill="none" xmlns="http://www.w3.org/2000/svg">
<g clip-path="url(#clip0_244_16052)">
<path opacity="0.7" d="M31.5668 36.2245H30.743C30.3783 36.2245 30.0702 35.9614 29.9846 35.6069C29.6483 34.2138 29.0213 33.1229 27.6738 31.7775L23.5342 27.756C23.2426 27.4728 22.7788 27.4728 22.4872 27.756L21.5576 28.659C21.2528 28.9552 21.2541 29.445 21.5605 29.7395L32.4999 40.2533C32.791 40.5331 33.2513 40.5327 33.542 40.2524L44.4414 29.7395C44.7469 29.4449 44.7478 28.9558 44.4433 28.66L43.5151 27.7582C43.2226 27.4741 42.757 27.4752 42.4658 27.7606L38.1979 31.9437C36.9664 33.2126 36.3534 34.26 36.0182 35.6102C35.9306 35.963 35.6232 36.2245 35.2597 36.2245H34.4332H31.5668Z" fill="#EFEFE5"/>
</g>
<path fill-rule="evenodd" clip-rule="evenodd" d="M27.4406 56.0656C27.6115 55.8948 27.8885 55.8948 28.0594 56.0656L33 61.0063L37.9406 56.0656C38.1115 55.8948 38.3885 55.8948 38.5594 56.0656C38.7302 56.2365 38.7302 56.5135 38.5594 56.6844L33.3094 61.9344C33.1385 62.1052 32.8615 62.1052 32.6906 61.9344L27.4406 56.6844C27.2698 56.5135 27.2698 56.2365 27.4406 56.0656Z" fill="#743286" fill-opacity="0.5"/>
<path fill-rule="evenodd" clip-rule="evenodd" d="M38.5594 9.93436C38.3885 10.1052 38.1115 10.1052 37.9406 9.93436L33 4.99372L28.0594 9.93436C27.8885 10.1052 27.6115 10.1052 27.4406 9.93436C27.2698 9.7635 27.2698 9.4865 27.4406 9.31564L32.6906 4.06564C32.8615 3.89479 33.1385 3.89479 33.3094 4.06564L38.5594 9.31564C38.7302 9.4865 38.7302 9.7635 38.5594 9.93436Z" fill="#301184" fill-opacity="0.5"/>
<path fill-rule="evenodd" clip-rule="evenodd" d="M55.0656 38.5594C54.8948 38.3885 54.8948 38.1115 55.0656 37.9406L60.0063 33L55.0656 28.0594C54.8948 27.8885 54.8948 27.6115 55.0656 27.4406C55.2365 27.2698 55.5135 27.2698 55.6844 27.4406L60.9344 32.6906C61.1052 32.8615 61.1052 33.1385 60.9344 33.3094L55.6844 38.5594C55.5135 38.7302 55.2365 38.7302 55.0656 38.5594Z" fill="#301184" fill-opacity="0.5"/>
<path fill-rule="evenodd" clip-rule="evenodd" d="M9.93436 27.4406C10.1052 27.6115 10.1052 27.8885 9.93436 28.0594L4.99372 33L9.93436 37.9406C10.1052 38.1115 10.1052 38.3885 9.93436 38.5594C9.7635 38.7302 9.4865 38.7302 9.31564 38.5594L4.06564 33.3094C3.89479 33.1385 3.89479 32.8615 4.06564 32.6906L9.31564 27.4406C9.4865 27.2698 9.7635 27.2698 9.93436 27.4406Z" fill="#743286" fill-opacity="0.5"/>
<defs>
<clipPath id="clip0_244_16052">
<rect width="48.0007" height="48" fill="white" transform="translate(9 10)"/>
</clipPath>
</defs>
</svg>
