<svg width="14" height="9" viewBox="0 0 14 9" fill="none" xmlns="http://www.w3.org/2000/svg">
<path fill-rule="evenodd" clip-rule="evenodd" d="M7.75635 7.83278C7.55916 8.02345 7.29175 8.13057 7.01292 8.13057C6.7341 8.13057 6.46668 8.02345 6.26949 7.83278L0.321018 2.07921C0.220587 1.98538 0.140479 1.87316 0.08537 1.74907C0.0302606 1.62498 0.00125297 1.49152 3.97018e-05 1.35648C-0.00117356 1.22143 0.0254321 1.0875 0.0783037 0.962508C0.131175 0.837514 0.209254 0.723955 0.307985 0.62846C0.406715 0.532964 0.52412 0.457443 0.653348 0.406304C0.782577 0.355165 0.921041 0.329431 1.06066 0.330605C1.20028 0.331778 1.33826 0.359836 1.46655 0.413139C1.59484 0.466443 1.71087 0.543925 1.80787 0.641066L7.01292 5.67557L12.218 0.641066C12.4163 0.455798 12.6819 0.353283 12.9576 0.355601C13.2333 0.357918 13.4971 0.464882 13.692 0.653455C13.887 0.842029 13.9976 1.09712 14 1.3638C14.0024 1.63047 13.8964 1.88738 13.7048 2.07921L7.75635 7.83278Z" fill="#66B4FF"/>
</svg>
