<svg width="20" height="40" viewBox="0 0 20 40" fill="none" xmlns="http://www.w3.org/2000/svg">
<path d="M2.71869 13.5163L9.37756 13.5832C11.2354 13.5543 12.3974 13.2358 13.5785 12.5234C14.2138 12.1402 15.0737 12.1861 15.6444 12.7578C16.298 13.4124 16.383 14.4628 15.7039 15.1431C15.0248 15.8233 0.0102084 30.8624 0.0102084 30.8624C-0.00340314 30.876 -0.00340224 30.8981 0.0102077 30.9118L1.08646 31.9898C1.10007 32.0034 1.12213 32.0034 1.13575 31.9898L16.8294 16.2704C18.2107 14.8869 20.4276 16.7808 19.4373 18.4041C18.696 19.6192 18.3559 20.8236 18.3568 22.8318L18.4499 29.277C18.4501 29.2959 18.4654 29.3111 18.4842 29.3114L19.9304 29.3323C19.9502 29.3326 19.9662 29.3165 19.9658 29.2967L20 12.0342C19.9996 12.0155 19.9845 12.0003 19.9658 12L2.69877 12C2.67908 11.9996 2.66301 12.0157 2.66329 12.0354L2.68419 13.4819C2.68446 13.5009 2.69977 13.5161 2.71869 13.5163Z" fill="white"/>
</svg>
