<svg width="10" height="6" viewBox="0 0 10 6" fill="none" xmlns="http://www.w3.org/2000/svg">
<path d="M0.333252 0.834389C0.370821 0.751178 0.3968 0.659442 0.447558 0.585972C0.574255 0.403719 0.756106 0.333496 0.975526 0.333496C3.58419 0.335526 6.19246 0.334714 8.80112 0.334714C8.88625 0.334714 8.97098 0.334308 9.05611 0.334714C9.3207 0.335526 9.51334 0.46217 9.61646 0.703686C9.71677 0.938302 9.66242 1.15628 9.49016 1.34299C9.47137 1.36329 9.45219 1.38277 9.43261 1.40226C8.11009 2.74541 6.78757 4.08938 5.46305 5.43091C5.38911 5.5056 5.30318 5.57948 5.20886 5.61966C5.00303 5.70693 4.80399 5.67202 4.63014 5.52387C4.59297 5.49221 4.5578 5.4577 4.52342 5.4232C3.21969 4.09912 1.91676 2.77504 0.612623 1.45259C0.489124 1.32716 0.37282 1.19971 0.333252 1.01948C0.333252 0.957786 0.333252 0.896087 0.333252 0.834389Z" fill="#757575"/>
</svg>
