<svg width="20" height="9" viewBox="0 0 20 9" fill="none" xmlns="http://www.w3.org/2000/svg">
<path d="M19.8841 4.14412L15.4398 0.0931301C15.3163 -0.00716257 15.1813 -0.0264591 15.0347 0.0352813C14.8882 0.0971028 14.8147 0.208908 14.8147 0.371023V2.96363H0.370361C0.262285 2.96363 0.173506 2.99829 0.104144 3.06774C0.0348227 3.13714 0 3.22592 0 3.33391V5.55608C0 5.66404 0.0346606 5.75282 0.104103 5.82214C0.173627 5.89154 0.262407 5.9262 0.370321 5.9262H14.8148V8.51877C14.8148 8.6733 14.8884 8.78511 15.0348 8.85435C15.1816 8.91633 15.3166 8.8929 15.44 8.78511L19.8844 4.68758C19.9615 4.61048 20 4.51805 20 4.40993C20 4.30988 19.9613 4.22126 19.8841 4.14412Z" fill="#D01F36"/>
</svg>
