<svg width="32" height="33" viewBox="0 0 32 33" fill="none" xmlns="http://www.w3.org/2000/svg">
<path d="M15.9997 0C7.17798 0 0 7.17817 0 16.0011C0 24.8237 7.17788 32.0023 15.9997 32.0023C24.8226 32.0023 32 24.8237 32 16.0011C32 7.17817 24.8226 0 15.9997 0ZM25.7655 21.2972C25.537 21.5252 25.2376 21.6404 24.9383 21.6404C24.6385 21.6404 24.3392 21.5252 24.1106 21.2972L15.9997 13.1869L7.88973 21.2972C7.43251 21.7543 6.69057 21.7543 6.23335 21.2972C5.77584 20.84 5.77584 20.0989 6.23335 19.6416L15.172 10.7041C15.6297 10.2469 16.3694 10.2469 16.8263 10.7041L25.7649 19.6416C26.2227 20.0989 26.2227 20.84 25.7655 21.2972Z" fill="white"/>
</svg>
