<svg width="10" height="6" viewBox="0 0 10 6" fill="none" xmlns="http://www.w3.org/2000/svg">
<path fill-rule="evenodd" clip-rule="evenodd" d="M5.50415 5.55529C5.37269 5.68241 5.19442 5.75382 5.00853 5.75382C4.82265 5.75382 4.64437 5.68241 4.51291 5.55529L0.547264 1.71958C0.48031 1.65703 0.426905 1.58221 0.390165 1.49949C0.353426 1.41676 0.334087 1.32779 0.333278 1.23776C0.33247 1.14773 0.350207 1.05844 0.385454 0.975112C0.420702 0.891783 0.472755 0.816077 0.538575 0.752413C0.604395 0.68875 0.682665 0.638402 0.768817 0.604309C0.85497 0.570217 0.947279 0.553061 1.04036 0.553843C1.13344 0.554626 1.22543 0.573331 1.31095 0.608866C1.39648 0.644402 1.47383 0.696057 1.5385 0.760818L5.00853 4.11716L8.47856 0.760818C8.61078 0.637306 8.78786 0.568962 8.97166 0.570507C9.15546 0.572052 9.33129 0.643362 9.46126 0.769077C9.59124 0.894793 9.66496 1.06486 9.66656 1.24264C9.66816 1.42042 9.5975 1.5917 9.4698 1.71958L5.50415 5.55529Z" fill="#1E1E1E"/>
</svg>
