<svg width="24" height="24" viewBox="0 0 24 24" fill="none" xmlns="http://www.w3.org/2000/svg">
<g clip-path="url(#clip0_5931_2705)">
<circle cx="12" cy="12" r="11.5" fill="#212126" stroke="#353539"/>
<g clip-path="url(#clip1_5931_2705)">
<path d="M13.333 13.368L12.4618 15.7584C12.4402 15.8232 12.4402 15.8952 12.4618 15.9672L13.9594 20.0784L15.6946 19.0776L13.6138 13.368C13.5634 13.2384 13.3834 13.2384 13.333 13.368Z" fill="white"/>
<path d="M15.0826 9.3504C15.0322 9.2208 14.8522 9.2208 14.8018 9.3504L13.9306 11.7408C13.909 11.8056 13.909 11.8776 13.9306 11.9496L16.3858 18.6816L18.121 17.6808L15.0826 9.3576V9.3504Z" fill="white"/>
<path d="M12.001 4.116C12.0442 4.116 12.0874 4.1304 12.1234 4.152L18.733 7.968C18.8122 8.0112 18.8554 8.0976 18.8554 8.184V15.816C18.8554 15.9024 18.805 15.9888 18.733 16.032L12.1234 19.848C12.0874 19.8696 12.0442 19.884 12.001 19.884C11.9578 19.884 11.9146 19.8696 11.8786 19.848L5.26904 16.032C5.18984 15.9888 5.14664 15.9024 5.14664 15.816V8.1768C5.14664 8.0904 5.19704 8.004 5.26904 7.9608L11.8786 4.1448C11.9146 4.1232 11.9578 4.1088 12.001 4.1088V4.116ZM12.001 3C11.7634 3 11.533 3.0576 11.317 3.18L4.70744 6.996C4.28264 7.2408 4.02344 7.6872 4.02344 8.1768V15.8088C4.02344 16.2984 4.28264 16.7448 4.70744 16.9896L11.317 20.8056C11.5258 20.928 11.7634 20.9856 12.001 20.9856C12.2386 20.9856 12.469 20.928 12.685 20.8056L19.2946 16.9896C19.7194 16.7448 19.9786 16.2984 19.9786 15.8088V8.1768C19.9786 7.6872 19.7194 7.2408 19.2946 6.996L12.6778 3.18C12.469 3.0576 12.2314 3 11.9938 3H12.001Z" fill="white"/>
<path d="M11.4394 7.6368H9.76184C9.63944 7.6368 9.52424 7.716 9.48104 7.8312L5.88824 17.6808L7.62344 18.6816L11.5834 7.8312C11.6194 7.7304 11.5474 7.6296 11.4466 7.6296L11.4394 7.6368Z" fill="white"/>
<path d="M14.377 7.6368H12.6994C12.577 7.6368 12.4618 7.716 12.4186 7.8312L8.31464 19.0776L10.0498 20.0784L14.5138 7.8312C14.5498 7.7304 14.4778 7.6296 14.377 7.6296V7.6368Z" fill="white"/>
</g>
</g>
<defs>
<clipPath id="clip0_5931_2705">
<rect width="24" height="24" fill="white"/>
</clipPath>
<clipPath id="clip1_5931_2705">
<rect width="18" height="18" fill="white" transform="translate(3 3)"/>
</clipPath>
</defs>
</svg>
