<svg width="24" height="24" viewBox="0 0 24 24" fill="none" xmlns="http://www.w3.org/2000/svg">
<path d="M12 24C18.6274 24 24 18.6274 24 12C24 5.37258 18.6274 0 12 0C5.37258 0 0 5.37258 0 12C0 18.6274 5.37258 24 12 24Z" fill="#EDBC04"/>
<path fill-rule="evenodd" clip-rule="evenodd" d="M12.1576 8.31769L14.5663 10.7269C14.653 10.8136 14.7935 10.8136 14.8801 10.7269L16.1497 9.45699C16.2363 9.37038 16.2363 9.22993 16.1497 9.14331L12.1575 5.15021C12.0709 5.06354 11.9304 5.06354 11.8438 5.15021L7.85305 9.14186C7.76643 9.22848 7.76643 9.36893 7.85305 9.45554L9.12268 10.7254C9.2093 10.8121 9.3498 10.8121 9.43641 10.7254L11.8438 8.31769C11.9305 8.23102 12.071 8.23102 12.1576 8.31769ZM6.42059 10.5735L5.1509 11.8434C5.06428 11.9301 5.06428 12.0705 5.1509 12.1571L6.42048 13.427C6.50709 13.5137 6.6476 13.5137 6.73421 13.427L8.0039 12.1571C8.09051 12.0704 8.09051 11.93 8.0039 11.8434L6.73427 10.5735C6.6477 10.4869 6.50726 10.4869 6.42059 10.5735ZM16.149 14.8576L12.1561 18.8514C12.0695 18.938 11.929 18.938 11.8424 18.8513L7.84952 14.8578C7.7628 14.7711 7.76291 14.6305 7.84974 14.5439L9.12125 13.2757C9.20792 13.1892 9.34821 13.1893 9.43477 13.2759L11.8424 15.6838C11.929 15.7705 12.0695 15.7705 12.1561 15.6838L14.5649 13.2747C14.6515 13.1881 14.7919 13.188 14.8785 13.2746L16.1489 14.5438C16.2356 14.6304 16.2356 14.7709 16.149 14.8576ZM17.2654 10.5743L15.9957 11.8443C15.9091 11.9309 15.9091 12.0713 15.9957 12.1579L17.2654 13.4278C17.352 13.5145 17.4925 13.5145 17.5791 13.4278L18.8488 12.1579C18.9354 12.0713 18.9354 11.9308 18.8488 11.8442L17.5792 10.5743C17.4925 10.4877 17.352 10.4877 17.2654 10.5743ZM12.1575 10.5501L13.4513 11.8441C13.5379 11.9307 13.5379 12.0711 13.4513 12.1578L12.1575 13.4519C12.0709 13.5386 11.9304 13.5386 11.8438 13.4519L10.5501 12.1578C10.4635 12.0712 10.4635 11.9307 10.5501 11.8441L11.8438 10.5501C11.9304 10.4634 12.0709 10.4634 12.1575 10.5501Z" fill="white"/>
</svg>
