<svg width="12" height="12" viewBox="0 0 12 12" fill="none" xmlns="http://www.w3.org/2000/svg">
<path d="M10.6667 0C11.0203 0 11.3594 0.140476 11.6095 0.390524C11.8595 0.640573 12 0.979711 12 1.33333V10.6667C12 11.0203 11.8595 11.3594 11.6095 11.6095C11.3594 11.8595 11.0203 12 10.6667 12H1.33333C0.979711 12 0.640573 11.8595 0.390524 11.6095C0.140476 11.3594 0 11.0203 0 10.6667V1.33333C0 0.979711 0.140476 0.640573 0.390524 0.390524C0.640573 0.140476 0.979711 0 1.33333 0H10.6667ZM10.6667 4H1.33333V10.6667H10.6667V4ZM3.66667 8C3.84348 8 4.01305 8.07024 4.13807 8.19526C4.2631 8.32029 4.33333 8.48986 4.33333 8.66667C4.33333 8.84348 4.2631 9.01305 4.13807 9.13807C4.01305 9.2631 3.84348 9.33333 3.66667 9.33333H3C2.82319 9.33333 2.65362 9.2631 2.5286 9.13807C2.40357 9.01305 2.33333 8.84348 2.33333 8.66667C2.33333 8.48986 2.40357 8.32029 2.5286 8.19526C2.65362 8.07024 2.82319 8 3 8H3.66667ZM6.33333 8C6.50325 8.00019 6.66669 8.06525 6.79025 8.1819C6.9138 8.29854 6.98816 8.45797 6.99812 8.6276C7.00807 8.79722 6.95288 8.96425 6.84382 9.09455C6.73476 9.22486 6.58006 9.3086 6.41133 9.32867L6.33333 9.33333H5.66667C5.49675 9.33315 5.33331 9.26808 5.20975 9.15143C5.0862 9.03479 5.01184 8.87537 5.00189 8.70574C4.99193 8.53611 5.04712 8.36908 5.15618 8.23878C5.26524 8.10848 5.41994 8.02474 5.58867 8.00467L5.66667 8H6.33333ZM3.66667 5.33333C3.83659 5.33352 4.00002 5.39859 4.12358 5.51523C4.24714 5.63188 4.32149 5.7913 4.33145 5.96093C4.34141 6.13056 4.28622 6.29759 4.17716 6.42789C4.0681 6.55819 3.9134 6.64193 3.74467 6.662L3.66667 6.66667H3C2.83008 6.66648 2.66665 6.60141 2.54309 6.48477C2.41953 6.36812 2.34518 6.2087 2.33522 6.03907C2.32526 5.86944 2.38045 5.70241 2.48951 5.57211C2.59857 5.44181 2.75327 5.35807 2.922 5.338L3 5.33333H3.66667ZM6.33333 5.33333C6.51014 5.33333 6.67971 5.40357 6.80474 5.5286C6.92976 5.65362 7 5.82319 7 6C7 6.17681 6.92976 6.34638 6.80474 6.4714C6.67971 6.59643 6.51014 6.66667 6.33333 6.66667H5.66667C5.48986 6.66667 5.32029 6.59643 5.19526 6.4714C5.07024 6.34638 5 6.17681 5 6C5 5.82319 5.07024 5.65362 5.19526 5.5286C5.32029 5.40357 5.48986 5.33333 5.66667 5.33333H6.33333ZM9 5.33333C9.16992 5.33352 9.33335 5.39859 9.45691 5.51523C9.58047 5.63188 9.65482 5.7913 9.66478 5.96093C9.67474 6.13056 9.61955 6.29759 9.51049 6.42789C9.40143 6.55819 9.24673 6.64193 9.078 6.662L9 6.66667H8.33333C8.16341 6.66648 7.99998 6.60141 7.87642 6.48477C7.75286 6.36812 7.67851 6.2087 7.66855 6.03907C7.65859 5.86944 7.71378 5.70241 7.82284 5.57211C7.9319 5.44181 8.0866 5.35807 8.25533 5.338L8.33333 5.33333H9ZM10.6667 1.33333H1.33333V2.66667H10.6667V1.33333Z" fill="#1E1E1E"/>
</svg>
