<svg width="16" height="16" viewBox="0 0 16 16" fill="none" xmlns="http://www.w3.org/2000/svg">
<path d="M6.5 7.5C7.2425 7.5 7.777 8.2485 8.343 9.0405C8.999 9.959 9.743 11 11 11C13.835 11 14.89 5.605 15 5L14.016 4.821C13.775 6.141 12.697 10 11 10C10.2575 10 9.723 9.2515 9.157 8.4595C8.501 7.541 7.757 6.5 6.5 6.5C4.407 6.5 2.7775 10.202 2 12.381V1H1V14C1.0004 14.2651 1.10588 14.5192 1.29333 14.7067C1.48078 14.8941 1.73491 14.9996 2 15H15V14H2.522C3.277 11.4285 4.982 7.5 6.5 7.5Z" fill="white" fill-opacity="0.8"/>
</svg>
