<svg width="6" height="10" viewBox="0 0 6 10" fill="none" xmlns="http://www.w3.org/2000/svg">
<path fill-rule="evenodd" clip-rule="evenodd" d="M5.68343 4.49593C5.8138 4.62739 5.88704 4.80566 5.88704 4.99155C5.88704 5.17743 5.8138 5.35571 5.68343 5.48717L1.74936 9.45282C1.68521 9.51977 1.60847 9.57318 1.52363 9.60992C1.43878 9.64666 1.34753 9.66599 1.25519 9.6668C1.16285 9.66761 1.07127 9.64987 0.985808 9.61463C0.900342 9.57938 0.822695 9.52733 0.757399 9.4615C0.692102 9.39569 0.640464 9.31742 0.605497 9.23126C0.57053 9.14511 0.552935 9.0528 0.553737 8.95972C0.55454 8.86664 0.573724 8.77465 0.610171 8.68913C0.646618 8.6036 0.699597 8.52625 0.766018 8.46158L4.20842 4.99155L0.766018 1.52152C0.63934 1.3893 0.569244 1.21223 0.570828 1.02842C0.572413 0.844617 0.645551 0.668793 0.77449 0.538819C0.903429 0.408845 1.07785 0.33512 1.26019 0.333523C1.44253 0.331925 1.6182 0.402584 1.74936 0.53028L5.68343 4.49593Z" fill="white"/>
</svg>
