<svg width="12" height="12" viewBox="0 0 12 12" fill="none" xmlns="http://www.w3.org/2000/svg">
<path d="M6 0C2.69162 0 0 2.69156 0 6C0 9.30844 2.69162 12.0001 6 12.0001C9.30838 12.0001 12 9.30844 12 6C12 2.69156 9.30844 0 6 0ZM9.44531 4.98655L5.67581 8.75604C5.51553 8.91632 5.30247 9.00454 5.07583 9.00454C4.84919 9.00454 4.63613 8.91632 4.47585 8.75604L2.55469 6.83489C2.39442 6.67461 2.30614 6.46155 2.30614 6.23491C2.30614 6.0082 2.39442 5.79514 2.55469 5.63486C2.71491 5.47459 2.92797 5.38631 3.15468 5.38631C3.38132 5.38631 3.59444 5.47459 3.75466 5.63493L5.07577 6.95598L8.24522 3.78652C8.4055 3.62625 8.61856 3.53803 8.8452 3.53803C9.07184 3.53803 9.2849 3.62625 9.44518 3.78652C9.77613 4.11748 9.77613 4.65572 9.44531 4.98655Z" fill="#5EFF8B"/>
</svg>
