<svg width="14" height="14" viewBox="0 0 14 14" fill="none" xmlns="http://www.w3.org/2000/svg">
<g clip-path="url(#clip0_3274_25411)">
<path d="M0 7.37878C0 7.105 0 6.83157 0 6.55779C0.0109635 6.46356 0.0229548 6.36933 0.033233 6.27476C0.187064 4.88326 0.689328 3.63122 1.59758 2.56592C3.20579 0.679969 5.26109 -0.178028 7.73301 0.0309891C9.09728 0.14612 10.3279 0.652557 11.3842 1.52666C13.311 3.12101 14.1761 5.18205 13.9705 7.67346C13.876 8.81928 13.4888 9.87842 12.8461 10.833C11.7309 12.4894 10.1964 13.5246 8.22534 13.8915C7.96667 13.9398 7.70355 13.9649 7.44282 14.0005C7.16908 14.0005 6.89568 14.0005 6.62193 14.0005C6.52772 13.9895 6.4335 13.9775 6.33928 13.9673C5.19189 13.8412 4.12877 13.4742 3.17358 12.8238C1.51296 11.6927 0.476911 10.144 0.108949 8.16139C0.0606417 7.90235 0.0356313 7.63954 0 7.37878ZM8.17258 6.94738C8.22568 6.91038 8.27194 6.88742 8.30688 6.85247C9.00752 6.15415 9.70678 5.45446 10.4057 4.75442C10.4602 4.6996 10.5136 4.64272 10.5606 4.58138C10.8196 4.24524 10.762 3.74429 10.4358 3.47325C10.0833 3.18063 9.62764 3.21215 9.27989 3.55926C8.56658 4.2706 7.85532 4.984 7.1427 5.69671C7.10809 5.73132 7.07144 5.76387 7.03169 5.80122C6.99538 5.76833 6.96488 5.74194 6.93611 5.71384C6.21217 5.00661 5.48859 4.29938 4.76397 3.5925C4.70538 3.53527 4.64508 3.47908 4.5793 3.43042C4.24149 3.18063 3.74916 3.24196 3.48193 3.56474C3.189 3.91836 3.22086 4.371 3.56861 4.72016C4.27952 5.4339 4.99283 6.14558 5.70511 6.8583C5.73972 6.8929 5.77192 6.92957 5.82331 6.98473C5.77809 7.0214 5.73629 7.04915 5.70135 7.0841C5.0014 7.78311 4.30179 8.48246 3.60321 9.18284C3.54874 9.23766 3.49563 9.29454 3.44835 9.35587C3.19242 9.68859 3.24484 10.1823 3.56244 10.4551C3.90985 10.7535 4.36928 10.7292 4.71977 10.3879C5.45467 9.67248 6.18751 8.95463 6.92137 8.23815C6.95632 8.20423 6.99332 8.17236 7.05568 8.11548C7.08959 8.16311 7.11358 8.20902 7.14852 8.24397C7.85669 8.95429 8.56658 9.66255 9.27441 10.3729C9.48717 10.5863 9.73487 10.7015 10.0381 10.6473C10.3492 10.5918 10.5688 10.4129 10.6743 10.1124C10.7901 9.78247 10.7055 9.49259 10.4687 9.2452C10.2954 9.06428 10.1148 8.88987 9.9377 8.71272C9.36109 8.13604 8.78413 7.55902 8.17258 6.94738Z" fill="#D01F36"/>
</g>
<defs>
<clipPath id="clip0_3274_25411">
<rect width="14" height="14" fill="white"/>
</clipPath>
</defs>
</svg>
