<svg width="102" height="32" viewBox="0 0 102 32" fill="none" xmlns="http://www.w3.org/2000/svg">
<g clip-path="url(#clip0_8153_4351)">
<g clip-path="url(#clip1_8153_4351)">
<path d="M39.0778 7.50556H37.6087C37.3468 7.50556 37.1335 7.29223 37.1335 7.03041V5.56132C37.1335 5.2995 36.9202 5.08617 36.6632 5.08617H35.1941C34.9323 5.08617 34.7238 4.87284 34.7238 4.61102V3.14193C34.7238 2.88011 34.5105 2.66678 34.2487 2.66678H32.7796C32.5178 2.66678 32.3044 2.45344 32.3044 2.19163V0.732232C32.3044 0.470413 32.0911 0.25708 31.8293 0.25708H8.542C8.28018 0.25708 8.06684 0.470413 8.06684 0.732232V2.20132C8.06684 2.46314 7.85351 2.67647 7.59169 2.67647H6.1226C5.86078 2.67647 5.64745 2.88981 5.64745 3.15163V4.62072C5.64745 4.88253 5.43412 5.09587 5.1723 5.09587H3.70321C3.44139 5.09587 3.22806 5.3092 3.22806 5.57102V16.708C3.22806 16.9698 3.01472 17.1831 2.7529 17.1831H1.29351C1.03169 17.1831 0.818359 17.3965 0.818359 17.6583V24.034C0.818359 24.2959 1.03169 24.5092 1.29351 24.5092H2.7626C3.02442 24.5092 3.23775 24.7225 3.23775 24.9844V26.4534C3.23775 26.7153 3.45109 26.9286 3.7129 26.9286H5.182C5.44381 26.9286 5.65715 27.1419 5.65715 27.4037V28.8728C5.65715 29.1347 5.87048 29.348 6.1323 29.348H7.60139C7.86321 29.348 8.07654 29.5613 8.07654 29.8231V31.2922C8.07654 31.5541 8.28987 31.7674 8.55169 31.7674H34.2584C34.5202 31.7674 34.7335 31.5541 34.7335 31.2922V29.8231C34.7335 29.5613 34.9468 29.348 35.2038 29.348H36.6729C36.9347 29.348 37.1432 29.1347 37.1432 28.8728V22.5698C37.1432 22.308 37.3565 22.0947 37.6184 22.0947H39.0874C39.3493 22.0947 39.5626 21.8813 39.5626 21.6195V17.6583C39.5626 17.3965 39.3493 17.1831 39.0874 17.1831H37.6184C37.3565 17.1831 37.1432 16.9698 37.1432 16.708V12.8922C37.1432 12.6304 37.3565 12.4171 37.6184 12.4171H39.0874C39.3493 12.4171 39.5626 12.2037 39.5626 11.9419V7.98072C39.5626 7.7189 39.3493 7.50556 39.0874 7.50556H39.0778ZM8.13957 17.7165C8.13957 17.4547 8.3529 17.2413 8.61472 17.2413H10.0111C10.2729 17.2413 10.4862 17.4547 10.4862 17.7165V19.1128C10.4862 19.3747 10.2729 19.588 10.0111 19.588H8.61472C8.3529 19.588 8.13957 19.3747 8.13957 19.1128V17.7165ZM34.6462 28.7807C34.6462 29.0425 34.4329 29.2559 34.1711 29.2559H8.61472C8.3529 29.2559 8.13957 29.0425 8.13957 28.7807V24.8922C8.13957 24.6304 7.92624 24.4171 7.66442 24.4171H3.78078C3.51897 24.4171 3.30563 24.2037 3.30563 23.9419V20.1262C3.30563 19.8644 3.51897 19.651 3.78078 19.651H7.59654C7.85836 19.651 8.07169 19.8644 8.07169 20.1262V21.5953C8.07169 21.8571 8.28503 22.0704 8.54684 22.0704H10.0159C10.2778 22.0704 10.4911 22.2837 10.4911 22.5456V24.0147C10.4911 24.2765 10.7044 24.4898 10.9662 24.4898H19.7565C20.0184 24.4898 20.2317 24.2765 20.2317 24.0147V22.5456C20.2317 22.2837 20.445 22.0704 20.7068 22.0704H22.1759C22.4378 22.0704 22.6511 21.8571 22.6511 21.5953V20.1262C22.6511 19.8644 22.8644 19.651 23.1262 19.651H24.5226C24.7844 19.651 24.9978 19.8644 24.9978 20.1262V21.5953C24.9978 21.8571 25.2111 22.0704 25.4729 22.0704H26.942C27.2038 22.0704 27.4171 22.2837 27.4171 22.5456V24.0147C27.4171 24.2765 27.6305 24.4898 27.8923 24.4898H34.1953C34.4571 24.4898 34.6705 24.7031 34.6705 24.965V28.7807H34.6462ZM34.6462 16.6983C34.6462 16.9601 34.4329 17.1734 34.1711 17.1734H11.0293C10.7674 17.1734 10.5541 16.9601 10.5541 16.6983V12.8825C10.5541 12.6207 10.7674 12.4074 11.0293 12.4074H12.4984C12.7602 12.4074 12.9735 12.194 12.9735 11.9322V10.4631C12.9735 10.2013 13.1868 9.98799 13.4487 9.98799H17.2644C17.5262 9.98799 17.7396 10.2013 17.7396 10.4631V11.9322C17.7396 12.194 17.9529 12.4074 18.2147 12.4074H19.6838C19.9456 12.4074 20.159 12.6207 20.159 12.8825V14.3516C20.159 14.6134 20.3723 14.8268 20.6341 14.8268H34.1856C34.4474 14.8268 34.6608 15.0401 34.6608 15.3019V16.6983H34.6462Z" fill="white"/>
<path d="M45.1724 10.9625H53.4536C53.6379 10.9625 53.7882 10.8122 53.7882 10.628V9.54678C53.7882 9.36253 53.9385 9.21223 54.1227 9.21223H55.2039C55.3882 9.21223 55.5385 9.06193 55.5385 8.87769V2.34678C55.5385 2.16253 55.3882 2.01223 55.2039 2.01223H54.1227C53.9385 2.01223 53.7882 1.86193 53.7882 1.67769V0.591626C53.7882 0.407383 53.6379 0.25708 53.4536 0.25708H45.1724C44.9882 0.25708 44.8379 0.407383 44.8379 0.591626V10.628C44.8379 10.8122 44.9882 10.9625 45.1724 10.9625ZM46.7676 2.52617C46.7676 2.34193 46.9179 2.19163 47.1021 2.19163H53.2743C53.4585 2.19163 53.6088 2.34193 53.6088 2.52617V8.69829C53.6088 8.88253 53.4585 9.03284 53.2743 9.03284H47.1021C46.9179 9.03284 46.7676 8.88253 46.7676 8.69829V2.52617Z" fill="white"/>
<path d="M100.843 0.25708H99.5967C99.4076 0.25708 99.2573 0.412232 99.2573 0.596474V8.68859C99.2573 8.87769 99.1021 9.02799 98.9179 9.02799H98.0209C97.8318 9.02799 97.6815 8.87284 97.6815 8.68859V2.35163C97.6815 2.16253 97.5264 2.01223 97.3421 2.01223H96.2706C96.0815 2.01223 95.9312 1.85708 95.9312 1.67284V0.596474C95.9312 0.407383 95.7761 0.25708 95.5918 0.25708H90.8306C90.6415 0.25708 90.4912 0.412232 90.4912 0.596474V10.6231C90.4912 10.8122 90.6464 10.9625 90.8306 10.9625H92.0767C92.2658 10.9625 92.4161 10.8074 92.4161 10.6231V2.53102C92.4161 2.34193 92.5712 2.19163 92.7555 2.19163H95.4076C95.5967 2.19163 95.747 2.34678 95.747 2.53102V8.86799C95.747 9.05708 95.9021 9.20738 96.0864 9.20738H97.1579C97.347 9.20738 97.4973 9.36253 97.4973 9.54678V10.6183C97.4973 10.8074 97.6524 10.9577 97.8367 10.9577H100.843C101.032 10.9577 101.182 10.8025 101.182 10.6183V0.596474C101.182 0.407383 101.027 0.25708 100.843 0.25708Z" fill="white"/>
<path d="M56.5855 9.20738H57.6667C57.851 9.20738 58.0013 9.35769 58.0013 9.54193V10.6231C58.0013 10.8074 58.1516 10.9577 58.3358 10.9577H66.617C66.8013 10.9577 66.9516 10.8074 66.9516 10.6231V9.36738C66.9516 9.18314 66.8013 9.03284 66.617 9.03284H58.5152C58.331 9.03284 58.1807 8.88253 58.1807 8.69829V6.93344C58.1807 6.7492 58.331 6.5989 58.5152 6.5989H66.617C66.8013 6.5989 66.9516 6.4486 66.9516 6.26435V5.0086C66.9516 4.82435 66.8013 4.67405 66.617 4.67405H58.5152C58.331 4.67405 58.1807 4.52375 58.1807 4.3395V2.54072C58.1807 2.35647 58.331 2.20617 58.5152 2.20617H66.617C66.8013 2.20617 66.9516 2.05587 66.9516 1.87163V0.591626C66.9516 0.407383 66.8013 0.25708 66.617 0.25708H58.3358C58.1516 0.25708 58.0013 0.407383 58.0013 0.591626V1.67284C58.0013 1.85708 57.851 2.00738 57.6667 2.00738H56.5855C56.4013 2.00738 56.251 2.15769 56.251 2.34193V8.86314C56.251 9.04738 56.4013 9.19769 56.5855 9.19769V9.20738Z" fill="white"/>
<path d="M67.9942 9.20738H69.0705C69.2596 9.20738 69.4099 9.35769 69.4099 9.54678V10.6231C69.4099 10.8122 69.5602 10.9625 69.7493 10.9625H76.2657C76.4548 10.9625 76.6051 10.8122 76.6051 10.6231V9.54678C76.6051 9.35769 76.7554 9.20738 76.9445 9.20738H78.0208C78.2099 9.20738 78.3602 9.05708 78.3602 8.86799V7.61708C78.3602 7.42799 78.2099 7.27769 78.0208 7.27769H76.9445C76.7554 7.27769 76.6051 7.12738 76.6051 6.93829V5.86193C76.6051 5.67284 76.4548 5.52253 76.2657 5.52253H73.2596C73.0705 5.52253 72.9202 5.67284 72.9202 5.86193V7.11284C72.9202 7.30193 73.0705 7.45223 73.2596 7.45223H76.0911C76.2802 7.45223 76.4305 7.60253 76.4305 7.79163V8.69344C76.4305 8.88253 76.2802 9.03284 76.0911 9.03284H69.9239C69.7348 9.03284 69.5845 8.88253 69.5845 8.69344V2.52617C69.5845 2.33708 69.7348 2.18678 69.9239 2.18678H78.0208C78.2099 2.18678 78.3602 2.03647 78.3602 1.84738V0.596474C78.3602 0.407383 78.2099 0.25708 78.0208 0.25708H69.7493C69.5602 0.25708 69.4099 0.407383 69.4099 0.596474V1.67284C69.4099 1.86193 69.2596 2.01223 69.0705 2.01223H67.9942C67.8051 2.01223 67.6548 2.16253 67.6548 2.35163V8.86799C67.6548 9.05708 67.8051 9.20738 67.9942 9.20738Z" fill="white"/>
<path d="M79.3975 9.20738H80.4884C80.6727 9.20738 80.823 9.35769 80.823 9.54193V10.6328C80.823 10.8171 80.9733 10.9674 81.1575 10.9674H89.4436C89.6278 10.9674 89.7781 10.8171 89.7781 10.6328V9.36738C89.7781 9.18314 89.6278 9.03284 89.4436 9.03284H81.3321C81.1478 9.03284 80.9975 8.88253 80.9975 8.69829V6.90435C80.9975 6.72011 81.1478 6.56981 81.3321 6.56981H89.4436C89.6278 6.56981 89.7781 6.4195 89.7781 6.23526V4.96981C89.7781 4.78557 89.6278 4.63526 89.4436 4.63526H81.3321C81.1478 4.63526 80.9975 4.48496 80.9975 4.30072V2.50678C80.9975 2.32253 81.1478 2.17223 81.3321 2.17223H89.4436C89.6278 2.17223 89.7781 2.02193 89.7781 1.83769V0.591626C89.7781 0.407383 89.6278 0.25708 89.4436 0.25708H81.1575C80.9733 0.25708 80.823 0.407383 80.823 0.591626V1.68253C80.823 1.86678 80.6727 2.01708 80.4884 2.01708H79.3975C79.2133 2.01708 79.063 2.16738 79.063 2.35163V8.88253C79.063 9.06678 79.2133 9.21708 79.3975 9.21708V9.20738Z" fill="white"/>
<path d="M81.4731 16.6984H79.5919C79.2961 16.6984 79.0585 16.4608 79.0585 16.165V14.2838C79.0585 13.9881 78.821 13.7505 78.5252 13.7505H67.4998C67.204 13.7505 66.9664 13.9881 66.9664 14.2838V16.165C66.9664 16.4608 66.7289 16.6984 66.4331 16.6984H64.5519C64.2561 16.6984 64.0186 16.9359 64.0186 17.2317V31.205C64.0186 31.5008 64.2561 31.7384 64.5519 31.7384H66.7289C67.0246 31.7384 67.2622 31.5008 67.2622 31.205V29.3238C67.2622 29.0281 67.4998 28.7905 67.7955 28.7905H72.6246C72.9204 28.7905 73.1579 28.5529 73.1579 28.2572V26.3759C73.1579 26.0802 73.3955 25.8426 73.6913 25.8426H78.2246C78.5204 25.8426 78.7579 26.0802 78.7579 26.3759V31.205C78.7579 31.5008 78.9955 31.7384 79.2913 31.7384H81.4682C81.764 31.7384 82.0016 31.5008 82.0016 31.205V17.2317C82.0016 16.9359 81.764 16.6984 81.4682 16.6984H81.4731ZM78.7628 22.0608C78.7628 22.3566 78.5252 22.5941 78.2295 22.5941H73.4004C73.1046 22.5941 72.867 22.8317 72.867 23.1275V25.0087C72.867 25.3044 72.6295 25.542 72.3337 25.542H67.8004C67.5046 25.542 67.267 25.3044 67.267 25.0087V17.5226C67.267 17.2269 67.5046 16.9893 67.8004 16.9893H78.2343C78.5301 16.9893 78.7676 17.2269 78.7676 17.5226V22.0559L78.7628 22.0608Z" fill="white"/>
<path d="M100.639 16.6983H98.7724C98.4718 16.6983 98.2294 16.4559 98.2294 16.1553V14.2886C98.2294 13.988 97.987 13.7456 97.6864 13.7456H83.7276C83.427 13.7456 83.1846 13.988 83.1846 14.2886V31.2002C83.1846 31.5008 83.427 31.7432 83.7276 31.7432H97.6864C97.987 31.7432 98.2294 31.5008 98.2294 31.2002V29.3335C98.2294 29.0329 98.4718 28.7905 98.7724 28.7905H100.639C100.94 28.7905 101.182 28.548 101.182 28.2474V17.2365C101.182 16.9359 100.94 16.6935 100.639 16.6935V16.6983ZM97.9385 27.9517C97.9385 28.2523 97.6961 28.4947 97.3955 28.4947H86.9761C86.6755 28.4947 86.4331 28.2523 86.4331 27.9517V17.5323C86.4331 17.2317 86.6755 16.9892 86.9761 16.9892H97.3955C97.6961 16.9892 97.9385 17.2317 97.9385 17.5323V27.9517Z" fill="white"/>
<path d="M62.2439 16.6983H60.4645C60.1397 16.6983 59.8779 16.4365 59.8779 16.1117V14.3323C59.8779 14.0074 59.616 13.7456 59.2912 13.7456H45.4197C45.0948 13.7456 44.833 14.0074 44.833 14.3323V31.1565C44.833 31.4814 45.0948 31.7432 45.4197 31.7432H47.4948C47.8197 31.7432 48.0815 31.4814 48.0815 31.1565V29.3771C48.0815 29.0523 48.3433 28.7905 48.6682 28.7905H59.296C59.6209 28.7905 59.8827 28.5286 59.8827 28.2038V26.4244C59.8827 26.0995 60.1445 25.8377 60.4694 25.8377H62.2488C62.5736 25.8377 62.8354 25.5759 62.8354 25.2511V17.2802C62.8354 16.9553 62.5736 16.6935 62.2488 16.6935L62.2439 16.6983ZM59.5869 24.9602C59.5869 25.285 59.3251 25.5468 59.0003 25.5468H48.6682C48.3433 25.5468 48.0815 25.285 48.0815 24.9602V17.5759C48.0815 17.2511 48.3433 16.9892 48.6682 16.9892H59.0003C59.3251 16.9892 59.5869 17.2511 59.5869 17.5759V24.9602Z" fill="white"/>
</g>
</g>
<defs>
<clipPath id="clip0_8153_4351">
<rect width="102" height="32" fill="white"/>
</clipPath>
<clipPath id="clip1_8153_4351">
<rect width="102" height="32" fill="white"/>
</clipPath>
</defs>
</svg>
