<svg
              xmlns="http://www.w3.org/2000/svg"
              width="24"
              height="25"
              viewBox="0 0 24 25"
              fill="none"
            >
              <path
                fillRule="evenodd"
                clipRule="evenodd"
                d="M5.58579 21.9142C5.21071 21.5391 5 21.0304 5 20.5V8.5H3V6.5H7V4.5C7 3.96957 7.21071 3.46086 7.58579 3.08579C7.96086 2.71071 8.46957 2.5 9 2.5H15C15.5304 2.5 16.0391 2.71071 16.4142 3.08579C16.7893 3.46086 17 3.96957 17 4.5V6.5H21V8.5H19V20.5C19 21.0304 18.7893 21.5391 18.4142 21.9142C18.0391 22.2893 17.5304 22.5 17 22.5H7C6.46957 22.5 5.96086 22.2893 5.58579 21.9142ZM15 4.5H9V6.5H15V4.5ZM17 8.5H8H7V20.5H17V8.5ZM11 10.5H9V18.5H11V10.5ZM15 10.5H13V18.5H15V10.5Z"
                fill="#EFEFE5"
                fill-opacity="0.6"
              />
            </svg>