<svg width="89" height="88" viewBox="0 0 89 88" fill="none" xmlns="http://www.w3.org/2000/svg">
<g clip-path="url(#clip0_3276_4663)">
<mask id="mask0_3276_4663" style="mask-type:alpha" maskUnits="userSpaceOnUse" x="6" y="7" width="77" height="78">
<path d="M42.2233 8.61217C42.9528 7.1291 45.0642 7.12065 45.8055 8.59784L82.3369 81.3936C83.0043 82.7236 82.0374 84.2907 80.5493 84.2907H8.21255C6.73149 84.2907 5.76422 82.737 6.4179 81.408L42.2233 8.61217Z" fill="#09090E"/>
</mask>
<g mask="url(#mask0_3276_4663)">
<rect x="5" y="4" width="80" height="80" fill="white"/>
<path d="M44.389 63.3093C43.4221 63.3093 42.4768 63.596 41.6728 64.1332C40.8688 64.6705 40.2422 65.434 39.8722 66.3274C39.5021 67.2207 39.4053 68.2037 39.5939 69.1521C39.7826 70.1005 40.2482 70.9716 40.932 71.6554C41.6157 72.3391 42.4868 72.8048 43.4352 72.9934C44.3836 73.182 45.3666 73.0852 46.26 72.7152C47.1533 72.3452 47.9169 71.7185 48.4541 70.9145C48.9913 70.1105 49.2781 69.1653 49.2781 68.1983C49.2781 66.9017 48.763 65.6581 47.8461 64.7413C46.9292 63.8244 45.6857 63.3093 44.389 63.3093ZM41.1297 30.7158C41.1297 28.9157 42.5889 27.4564 44.389 27.4564C46.1891 27.4564 47.6484 28.9157 47.6484 30.7158V53.5312C47.6484 55.3313 46.1891 56.7906 44.389 56.7906C42.5889 56.7906 41.1297 55.3313 41.1297 53.5312V30.7158Z" fill="#0066FF"/>
</g>
<path d="M47.5931 7.7008C46.1105 4.74641 41.8876 4.7633 40.4287 7.72944L4.62324 80.5252C3.31588 83.1832 5.25042 86.2907 8.21255 86.2907H80.5493C83.5254 86.2907 85.4593 83.1565 84.1244 80.4966L47.5931 7.7008Z" stroke="white" stroke-opacity="0.4" stroke-width="4"/>
</g>
<defs>
<clipPath id="clip0_3276_4663">
<rect width="88" height="88" fill="white" transform="translate(0.5)"/>
</clipPath>
</defs>
</svg>
