<svg width="16" height="16" viewBox="0 0 16 16" fill="none" xmlns="http://www.w3.org/2000/svg">
<path d="M8 16C12.4183 16 16 12.4183 16 8C16 3.58172 12.4183 0 8 0C3.58172 0 0 3.58172 0 8C0 12.4183 3.58172 16 8 16Z" fill="#6398FF"/>
<path fill-rule="evenodd" clip-rule="evenodd" d="M5.66057 7.44345L7.90735 3.82011C7.94391 3.76118 8.02957 3.76093 8.06644 3.81964L10.3415 7.44423C10.3687 7.48764 10.3561 7.54486 10.3131 7.57273L8.08329 9.01908C8.0526 9.03898 8.01313 9.03923 7.98219 9.0197L5.69019 7.57211C5.64666 7.54464 5.63344 7.4872 5.66057 7.44345ZM10.0343 9.04867L8.06492 10.2735C8.03476 10.2923 7.99661 10.2924 7.96632 10.2738L6.00148 9.06648C5.91433 9.01292 5.81661 9.11782 5.8762 9.20098L8.02336 12.197C8.06167 12.2505 8.1417 12.2489 8.17786 12.1939L10.1621 9.17982C10.2174 9.09585 10.1197 8.99557 10.0343 9.04867Z" fill="white"/>
</svg>
