<svg width="16" height="16" viewBox="0 0 16 16" fill="none" xmlns="http://www.w3.org/2000/svg">
<g clip-path="url(#clip0_1754_4099)">
<path d="M3.32486 7.605C3.32487 7.51553 3.34252 7.42694 3.37681 7.34433C3.41109 7.26171 3.46132 7.18669 3.52462 7.12358C3.58792 7.06046 3.66304 7.0105 3.74566 6.97656C3.82829 6.94261 3.91679 6.92535 4.0061 6.92576L5.13553 6.92946C5.31561 6.92946 5.48832 7.00113 5.61566 7.12871C5.74299 7.25629 5.81453 7.42933 5.81453 7.60975V11.8888C5.94174 11.8511 6.10454 11.8108 6.28368 11.7685C6.40779 11.7393 6.5184 11.6689 6.59757 11.5687C6.67674 11.4686 6.71984 11.3446 6.71987 11.2169V5.90935C6.71987 5.72891 6.79139 5.55586 6.91873 5.42827C7.04607 5.30066 7.21878 5.22896 7.39887 5.22892H8.53173C8.71182 5.22896 8.88453 5.30066 9.01185 5.42827C9.13919 5.55586 9.21073 5.72891 9.21073 5.90935V10.8356C9.21073 10.8356 9.49414 10.7207 9.77004 10.6039C9.87256 10.5605 9.96005 10.4877 10.0216 10.3948C10.0831 10.3019 10.116 10.1928 10.1161 10.0813V4.20855C10.1161 4.02815 10.1876 3.85514 10.3149 3.72756C10.4422 3.59998 10.6149 3.5283 10.7949 3.52826H11.9266C12.1066 3.52844 12.2791 3.60018 12.4063 3.72775C12.5335 3.85531 12.605 4.02825 12.605 4.20855V9.04456C13.5861 8.33218 14.5804 7.47531 15.3695 6.44503C15.4839 6.29548 15.5597 6.11987 15.59 5.93385C15.6202 5.74783 15.6041 5.5572 15.543 5.37896C15.1777 4.32612 14.597 3.36125 13.8383 2.54613C13.0795 1.731 12.1592 1.08355 11.1363 0.64522C10.1134 0.206887 9.01044 -0.0126823 7.89801 0.000565718C6.78557 0.0138137 5.68813 0.259587 4.67594 0.722156C3.66374 1.18473 2.75907 1.85391 2.01982 2.68688C1.28057 3.51984 0.723014 4.49826 0.382834 5.55951C0.0426539 6.62075 -0.0726588 7.74147 0.0442742 8.84993C0.161207 9.95838 0.507811 11.0302 1.06191 11.9967C1.15844 12.1635 1.30047 12.2991 1.4713 12.3878C1.64213 12.4765 1.83466 12.5145 2.0263 12.4973C2.24038 12.4784 2.50692 12.4517 2.82381 12.4145C2.96172 12.3988 3.08906 12.3328 3.18154 12.2291C3.27404 12.1254 3.32524 11.9912 3.32538 11.8521V7.605" fill="white"/>
<path d="M3.30078 14.4673C4.49364 15.3367 5.90332 15.8586 7.37385 15.9751C8.84436 16.0918 10.3184 15.7984 11.6329 15.1278C12.9474 14.4571 14.051 13.4352 14.8218 12.1751C15.5925 10.9149 16.0004 9.46573 16.0001 7.98781C16.0001 7.80291 15.9916 7.62092 15.9793 7.43945C13.0578 11.805 7.66348 13.8459 3.30078 14.4673Z" fill="white" fill-opacity="0.8"/>
</g>
<defs>
<clipPath id="clip0_1754_4099">
<rect width="16" height="16" fill="white"/>
</clipPath>
</defs>
</svg>
