<svg
                  xmlns="http://www.w3.org/2000/svg"
                  width="12"
                  height="12"
                  viewBox="0 0 12 12"
                  fill="none"
                >
                  <path
                    fill-rule="evenodd"
                    clip-rule="evenodd"
                    d="M8.69477 0H9.63225C9.68361 0.0145499 9.73547 0.0278486 9.78731 0.0411454L9.78732 0.0411479C9.90138 0.0704016 10.0154 0.0996463 10.1241 0.142184C10.5882 0.324054 10.9022 0.646233 10.9828 1.15184C11.0485 1.56433 10.9075 1.92995 10.676 2.26338C10.3016 2.80274 9.77693 3.15304 9.19132 3.42366C9.16821 3.43431 9.14522 3.44548 9.1222 3.45667L9.12218 3.45668C9.10942 3.46288 9.09664 3.46909 9.08383 3.47522C9.08523 3.47897 9.08656 3.4828 9.08789 3.48663C9.08922 3.49046 9.09054 3.49428 9.09195 3.49803H9.21882C9.40136 3.49803 9.5839 3.4979 9.76643 3.49776C10.2045 3.49744 10.6426 3.49711 11.0806 3.49866C11.4938 3.49991 11.8225 3.72522 11.9497 4.08802C11.9614 4.12159 11.9721 4.15556 11.9827 4.1895C11.9882 4.20706 11.9937 4.2246 11.9994 4.24208V5.76547C11.9978 5.7674 11.9959 5.76922 11.994 5.77104C11.9901 5.77482 11.9863 5.77854 11.985 5.78297C11.8381 6.28077 11.5516 6.49764 11.0381 6.49764C10.0349 6.49785 9.03164 6.49778 8.02839 6.49771H8.02323L6.51577 6.49764H6.37108V4.02396H5.62079V6.49764H5.47236H2.96492C2.76849 6.49764 2.57208 6.4978 2.37568 6.49795H2.37536C1.88451 6.49833 1.39373 6.49871 0.902789 6.49671C0.465613 6.49483 0.131872 6.23765 0.0243744 5.8286C0.0206537 5.81413 0.0147454 5.80034 0.00882002 5.78652C0.00578749 5.77944 0.0027505 5.77236 0 5.76516V4.24176C0.155933 3.64366 0.587797 3.47741 1.07153 3.49335C1.47386 3.50651 1.8768 3.50335 2.2797 3.50019C2.45074 3.49884 2.62177 3.4975 2.79274 3.49741C2.81981 3.49741 2.84688 3.49578 2.87395 3.49416C2.88626 3.49342 2.89856 3.49268 2.91086 3.4921C2.82636 3.43684 2.74084 3.39345 2.65655 3.35069L2.65655 3.35069C2.62644 3.33542 2.5965 3.32023 2.56681 3.3046C2.03401 3.02398 1.56527 2.66899 1.24715 2.14494C1.05778 1.83308 0.953725 1.49621 1.0206 1.12872C1.11528 0.608422 1.45152 0.296555 1.92995 0.120934C2.027 0.0853703 2.12787 0.0603817 2.22873 0.035395L2.22874 0.0353935C2.27499 0.0239352 2.32124 0.0124772 2.36713 0H3.3046C3.31108 0.00225457 3.31754 0.00479155 3.324 0.00733078C3.33902 0.0132382 3.35408 0.0191579 3.3696 0.0215619C3.67209 0.0690607 3.96052 0.160933 4.23364 0.299367C4.95081 0.662483 5.44392 1.24247 5.81672 1.93807C5.85705 2.0136 5.89482 2.09047 5.9333 2.16877C5.95357 2.21001 5.97403 2.25165 5.99516 2.29369C6.03433 2.22236 6.07202 2.15135 6.10938 2.08097C6.18856 1.93182 6.26623 1.78551 6.35327 1.64496C6.78014 0.956225 7.34168 0.421552 8.12135 0.150934C8.24832 0.106762 8.37995 0.0757051 8.51166 0.0446281L8.51167 0.0446267C8.57284 0.030194 8.63402 0.015757 8.69477 0ZM5.53829 3.28491C5.35424 2.63868 5.10799 2.07401 4.69582 1.59371C4.18333 0.996537 3.53147 0.705919 2.74399 0.729668C2.50493 0.736856 2.26994 0.773105 2.0537 0.887164C1.78964 1.02654 1.68996 1.24965 1.78527 1.5334C1.82683 1.65714 1.88433 1.78558 1.96839 1.88245C2.12119 2.05776 2.28432 2.23088 2.46962 2.36931C3.01492 2.77743 3.64741 2.98898 4.30833 3.11304C4.58203 3.16426 4.85885 3.19873 5.14459 3.23431L5.14463 3.23431C5.27384 3.2504 5.40489 3.26672 5.53829 3.28491ZM6.46202 3.2746C6.56777 3.26242 6.67126 3.25156 6.77308 3.24088C6.99262 3.21783 7.20443 3.19561 7.41449 3.16273C8.10573 3.0543 8.76821 2.8568 9.36694 2.4815C9.66412 2.29525 9.93099 2.07432 10.1125 1.76745C10.3888 1.30028 10.2447 0.926538 9.71631 0.800604C8.91508 0.609359 8.18822 0.78248 7.5673 1.32903C6.98669 1.83933 6.68483 2.51556 6.46202 3.2746ZM1.734 11.9997L1.70311 11.9886L1.70309 11.9886C1.6738 11.9781 1.64454 11.9676 1.61494 11.9581C1.25838 11.8441 1.00683 11.5294 1.00527 11.156C1.00096 10.18 1.00141 9.20392 1.00186 8.22791V8.22786V8.22784C1.002 7.92754 1.00214 7.62726 1.00214 7.32699C1.00214 7.31217 1.00465 7.2972 1.00744 7.2806L1.00744 7.2806C1.00882 7.27236 1.01027 7.26372 1.01152 7.25449H5.62452V12C4.32768 11.9997 3.03084 11.9997 1.734 11.9997ZM6.37451 7.25418V11.9997C7.67135 11.9997 8.96819 11.9997 10.2653 11.9994C10.267 11.9979 10.2686 11.9963 10.2702 11.9946C10.2742 11.9905 10.2782 11.9863 10.2828 11.985C10.7841 11.8366 10.9975 11.5509 10.9975 11.0269V7.39699V7.25418H6.37451Z"
                    fill="#B073FF"
                  />
                </svg>