<svg width="12" height="12" viewBox="0 0 12 12" fill="none" xmlns="http://www.w3.org/2000/svg">
<path d="M9.15783 2.84204H2.84204V9.15783H9.15783V2.84204Z" fill="white"/>
<path d="M9.15796 12.0001L12.0001 9.15796H9.15796V12.0001Z" fill="#EA4335"/>
<path d="M12.0001 2.84204H9.15796V9.15783H12.0001V2.84204Z" fill="#FBBC04"/>
<path d="M9.15783 9.15796H2.84204V12.0001H9.15783V9.15796Z" fill="#34A853"/>
<path d="M0 9.15796V11.0527C0 11.5761 0.423947 12.0001 0.947369 12.0001H2.84211V9.15796H0Z" fill="#188038"/>
<path d="M12.0001 2.84211V0.947369C12.0001 0.423947 11.5761 0 11.0527 0H9.15796V2.84211H12.0001Z" fill="#1967D2"/>
<path d="M9.1579 0H0.947369C0.423947 0 0 0.423947 0 0.947369V9.1579H2.84211V2.84211H9.1579V0Z" fill="#4285F4"/>
<path d="M4.13761 7.74146C3.90156 7.58198 3.73814 7.34909 3.64893 7.04119L4.19682 6.8154C4.24656 7.00488 4.3334 7.15172 4.45735 7.25593C4.5805 7.36014 4.73051 7.41146 4.90577 7.41146C5.08498 7.41146 5.23892 7.35698 5.36761 7.24803C5.49629 7.13909 5.56103 7.00014 5.56103 6.83198C5.56103 6.65988 5.49314 6.51935 5.35735 6.4104C5.22156 6.30146 5.05103 6.24698 4.84735 6.24698H4.53077V5.70461H4.81498C4.99024 5.70461 5.13787 5.65725 5.25787 5.56251C5.37787 5.46777 5.43787 5.3383 5.43787 5.1733C5.43787 5.02646 5.38419 4.90961 5.27682 4.82198C5.16945 4.73435 5.03366 4.69014 4.86866 4.69014C4.70761 4.69014 4.57972 4.73277 4.48498 4.81882C4.3903 4.90511 4.31913 5.01405 4.27814 5.1354L3.73577 4.90961C3.80761 4.70593 3.93945 4.52593 4.13287 4.3704C4.32629 4.21488 4.5734 4.13672 4.8734 4.13672C5.09524 4.13672 5.29498 4.17935 5.47182 4.2654C5.64866 4.35146 5.78761 4.47067 5.88787 4.62225C5.98814 4.77461 6.03787 4.94514 6.03787 5.13461C6.03787 5.32803 5.99129 5.49146 5.89814 5.62567C5.80498 5.75988 5.6905 5.86251 5.55471 5.93435V5.96672C5.73005 6.03901 5.88236 6.15774 5.99524 6.31014C6.10972 6.46409 6.16735 6.64803 6.16735 6.86277C6.16735 7.07751 6.11287 7.26935 6.00392 7.43751C5.89498 7.60567 5.74419 7.7383 5.55314 7.83461C5.36129 7.93093 5.14577 7.97988 4.90656 7.97988C4.62945 7.98067 4.37366 7.90093 4.13761 7.74146ZM7.50314 5.02251L6.90156 5.45751L6.60077 5.00119L7.67998 4.22277H8.09366V7.89461H7.50314V5.02251Z" fill="#4285F4"/>
</svg>
