<svg width="24" height="23" viewBox="0 0 24 23" fill="none" xmlns="http://www.w3.org/2000/svg">
<g clip-path="url(#clip0_169:1198)">
<path d="M13.9604 7.98433C14.0036 7.81195 13.9455 7.63005 13.8107 7.51426L10.9091 5.02882C10.6153 4.7772 10.2295 4.67721 9.85045 4.75451L7.0104 5.33382C6.72296 5.39247 6.48822 5.59079 6.38247 5.86439C6.27669 6.13797 6.317 6.4426 6.49019 6.6793L8.33597 9.20164C8.35033 9.22127 8.366 9.23954 8.38284 9.25638C8.49474 9.36823 8.6573 9.41736 8.81501 9.38264L13.6065 8.32804C13.7801 8.28982 13.9171 8.1567 13.9604 7.98433Z" fill="#E45A6E"/>
<path d="M13.9607 14.6429C13.9174 14.4705 13.7804 14.3374 13.6068 14.2992L8.81533 13.2446C8.63389 13.2047 8.446 13.2757 8.33627 13.4256L6.49047 15.9479C6.31725 16.1846 6.27699 16.4892 6.38277 16.7629C6.42676 16.8766 6.49308 16.9774 6.57621 17.0605C6.6929 17.1772 6.84283 17.2592 7.01068 17.2934L9.85077 17.8727C10.2298 17.9501 10.6157 17.8501 10.9094 17.5984L13.811 15.113C13.946 14.9974 14.0039 14.8153 13.9607 14.6429Z" fill="#D82E44"/>
<path d="M7.29458 13.3717C7.29458 13.6356 7.42031 13.8847 7.63509 14.038C10.7846 16.2851 15.1539 16.1862 17.5383 15.4275C20.1861 14.585 22.0636 12.7744 22.8813 11.8623C23.1615 11.5498 23.1615 11.0773 22.8813 10.7648C22.0636 9.85272 20.1861 8.04206 17.5383 7.19959C15.1539 6.44089 10.7846 6.34201 7.63509 8.58913C7.42033 8.74238 7.29458 8.99152 7.29458 9.25535V13.3717Z" fill="#F1F1FB"/>
<path d="M23.0911 11.3138L7.29424 11.3138L7.29424 13.372C7.29424 13.6359 7.41999 13.885 7.63475 14.0383C10.7842 16.2854 15.1535 16.1865 17.538 15.4278C20.1857 14.5854 22.0632 12.7747 22.8809 11.8626C23.021 11.7063 23.0911 11.5101 23.0911 11.3138Z" fill="#D7D6FB"/>
<path d="M14.6727 12.9702C14.2482 12.5457 13.9854 11.9599 13.9854 11.3137C13.9854 10.6876 14.2292 10.099 14.6719 9.65637C15.1145 9.2137 15.7031 8.96991 16.3292 8.96993C17.6215 8.9699 18.6729 10.0213 18.6729 11.3136C18.6729 11.9397 18.4291 12.5282 17.9864 12.9709C17.5437 13.4136 16.9552 13.6574 16.3291 13.6574C15.683 13.6574 15.097 13.3944 14.6727 12.9702ZM16.3291 9.43867L16.3294 9.43889L16.3291 9.43867Z" fill="#466288"/>
<path d="M7.63478 8.58927C7.42002 8.74252 7.29427 8.99166 7.29427 9.2555L7.29427 13.3719C7.29427 13.6357 7.42002 13.8849 7.63478 14.0381C8.3201 14.5271 9.06318 14.9048 9.83098 15.189L9.83095 7.43838C9.06317 7.72254 8.32008 8.10033 7.63478 8.58927Z" fill="#466288"/>
<path d="M3.15737 9.66174C3.24218 9.74655 3.35941 9.79903 3.48883 9.799L5.65315 9.799C5.91202 9.79903 6.1219 9.58915 6.1219 9.33026C6.12192 9.07139 5.91206 8.86153 5.65315 8.86151L3.48885 8.86153C3.22998 8.86151 3.02011 9.07139 3.02011 9.33028C3.02008 9.45975 3.07254 9.57691 3.15737 9.66174Z" fill="#FDB43A"/>
<path d="M6.1215 11.314C6.1215 11.0551 5.91162 10.8453 5.65275 10.8452L1.49169 10.8452C1.23283 10.8452 1.02295 11.0551 1.02295 11.314C1.02295 11.4434 1.07543 11.5606 1.16026 11.6454C1.24509 11.7303 1.3623 11.7827 1.49172 11.7827L5.65277 11.7827C5.91164 11.7827 6.12152 11.5728 6.1215 11.314Z" fill="#FDB43A"/>
<path d="M6.12156 13.2972C6.12156 13.0383 5.91168 12.8284 5.65282 12.8284L3.48854 12.8284C3.22968 12.8284 3.0198 13.0383 3.0198 13.2972C3.0198 13.4266 3.07226 13.5438 3.15707 13.6286C3.24187 13.7134 3.3591 13.7659 3.48852 13.7659L5.65284 13.7659C5.9117 13.7659 6.12158 13.556 6.12156 13.2972Z" fill="#F57A21"/>
<path d="M1.02341 11.3135C1.02341 11.4429 1.07589 11.5601 1.16072 11.6449C1.24555 11.7297 1.36276 11.7822 1.49218 11.7822L5.65324 11.7822C5.9121 11.7822 6.12198 11.5723 6.12198 11.3134L1.02341 11.3135Z" fill="#F57A21"/>
<path d="M7.29441 11.3136L7.29441 13.3718C7.29441 13.6357 7.42017 13.8848 7.63493 14.038C8.32024 14.527 9.06331 14.9048 9.83111 15.189L9.83111 11.3137L7.29441 11.3136Z" fill="#354A67"/>
<path d="M13.9854 11.3135C13.9854 11.9597 14.2482 12.5456 14.6727 12.97C15.0971 13.3943 15.6831 13.6572 16.3292 13.6572C16.9552 13.6572 17.5438 13.4134 17.9865 12.9707C18.4291 12.5281 18.6729 11.9395 18.6729 11.3135L13.9854 11.3135Z" fill="#354A67"/>
<path d="M17.3228 10.3199C17.0681 10.0653 16.7166 9.90758 16.3289 9.9076C15.9533 9.9076 15.6001 10.0538 15.3345 10.3194C15.0689 10.5851 14.9227 10.9382 14.9227 11.3138C14.9227 12.0892 15.5535 12.7201 16.3289 12.7201C16.7045 12.7201 17.0577 12.5738 17.3233 12.3082C17.5889 12.0426 17.7351 11.6894 17.7352 11.3138C17.7351 10.9261 17.5774 10.5746 17.3228 10.3199Z" fill="#4BBEFD"/>
<path d="M17.7355 11.3137L14.9231 11.3137C14.9231 12.0891 15.5539 12.72 16.3293 12.7199C16.7049 12.7199 17.0581 12.5737 17.3237 12.3081C17.5893 12.0424 17.7356 11.6893 17.7355 11.3137Z" fill="#0590FB"/>
</g>
<defs>
<clipPath id="clip0_169:1198">
<rect width="16" height="16" fill="white" transform="translate(12.1426) rotate(45)"/>
</clipPath>
</defs>
</svg>
