<svg width="14" height="14" viewBox="0 0 14 14" fill="none" xmlns="http://www.w3.org/2000/svg">
<path d="M7.00065 0.333374C10.6827 0.333374 13.6673 3.31804 13.6673 7.00004C13.6673 10.682 10.6827 13.6667 7.00065 13.6667C3.31865 13.6667 0.333984 10.682 0.333984 7.00004C0.333984 3.31804 3.31865 0.333374 7.00065 0.333374ZM7.00065 1.66671C5.58616 1.66671 4.22961 2.22861 3.22941 3.2288C2.22922 4.229 1.66732 5.58555 1.66732 7.00004C1.66732 8.41453 2.22922 9.77108 3.22941 10.7713C4.22961 11.7715 5.58616 12.3334 7.00065 12.3334C8.41514 12.3334 9.77169 11.7715 10.7719 10.7713C11.7721 9.77108 12.334 8.41453 12.334 7.00004C12.334 5.58555 11.7721 4.229 10.7719 3.2288C9.77169 2.22861 8.41514 1.66671 7.00065 1.66671ZM7.00065 9.66671C7.17746 9.66671 7.34703 9.73695 7.47206 9.86197C7.59708 9.98699 7.66732 10.1566 7.66732 10.3334C7.66732 10.5102 7.59708 10.6798 7.47206 10.8048C7.34703 10.9298 7.17746 11 7.00065 11C6.82384 11 6.65427 10.9298 6.52925 10.8048C6.40422 10.6798 6.33398 10.5102 6.33398 10.3334C6.33398 10.1566 6.40422 9.98699 6.52925 9.86197C6.65427 9.73695 6.82384 9.66671 7.00065 9.66671ZM7.00065 3.33337C7.56217 3.33339 8.10616 3.52894 8.53917 3.88644C8.97219 4.24394 9.26719 4.74107 9.37352 5.29243C9.47985 5.84379 9.39086 6.41497 9.12184 6.90785C8.85282 7.40073 8.42056 7.78455 7.89932 7.99337C7.8225 8.02253 7.75307 8.06828 7.69598 8.12737C7.66665 8.16071 7.66198 8.20337 7.66265 8.24737L7.66732 8.33337C7.66713 8.50329 7.60207 8.66673 7.48542 8.79029C7.36877 8.91384 7.20935 8.9882 7.03972 8.99816C6.87009 9.00811 6.70306 8.95292 6.57276 8.84386C6.44246 8.7348 6.35872 8.5801 6.33865 8.41137L6.33398 8.33337V8.16671C6.33398 7.39804 6.95398 6.93671 7.40332 6.75604C7.58619 6.68301 7.74572 6.56155 7.86477 6.4047C7.98383 6.24784 8.0579 6.06152 8.07905 5.86575C8.1002 5.66997 8.06761 5.47213 7.9848 5.29347C7.90199 5.11481 7.77207 4.96208 7.60901 4.85169C7.44595 4.7413 7.25589 4.67741 7.05925 4.66689C6.86262 4.65636 6.66683 4.6996 6.49291 4.79195C6.319 4.88431 6.17352 5.0223 6.07211 5.19109C5.9707 5.35989 5.91719 5.55312 5.91732 5.75004C5.91732 5.92685 5.84708 6.09642 5.72206 6.22145C5.59703 6.34647 5.42746 6.41671 5.25065 6.41671C5.07384 6.41671 4.90427 6.34647 4.77925 6.22145C4.65422 6.09642 4.58398 5.92685 4.58398 5.75004C4.58398 5.1091 4.8386 4.49441 5.29181 4.0412C5.74502 3.58799 6.35971 3.33337 7.00065 3.33337Z" fill="#EFEFE5"/>
</svg>
