<svg width="16" height="16" viewBox="0 0 16 16" fill="none" xmlns="http://www.w3.org/2000/svg">
<circle cx="8" cy="8" r="8" fill="#777777"/>
<g clip-path="url(#clip0_58_4681)">
<path d="M8.43985 8.00008L10.3089 6.131C10.4305 6.00943 10.4305 5.81286 10.3089 5.69128C10.1873 5.5697 9.99073 5.5697 9.86915 5.69128L8.00007 7.56036L6.13105 5.69128C6.00941 5.5697 5.8129 5.5697 5.69132 5.69128C5.56969 5.81286 5.56969 6.00943 5.69132 6.131L7.56035 8.00008L5.69132 9.86916C5.56969 9.99074 5.56969 10.1873 5.69132 10.3089C5.75191 10.3695 5.83158 10.4 5.91118 10.4C5.99079 10.4 6.0704 10.3695 6.13105 10.3089L8.00007 8.43981L9.86915 10.3089C9.9298 10.3695 10.0094 10.4 10.089 10.4C10.1686 10.4 10.2482 10.3695 10.3089 10.3089C10.4305 10.1873 10.4305 9.99074 10.3089 9.86916L8.43985 8.00008Z" fill="black"/>
</g>
<defs>
<clipPath id="clip0_58_4681">
<rect width="4.8" height="4.8" fill="white" transform="translate(5.6001 5.6001)"/>
</clipPath>
</defs>
</svg>
