<svg width="21" height="19" viewBox="0 0 21 19" fill="none" xmlns="http://www.w3.org/2000/svg">
<path d="M20.3419 14.4215L13.0814 1.43419C11.9149 -0.476792 9.07135 -0.479331 7.90327 1.43419L0.643215 14.4215C-0.549265 16.3742 0.894469 18.847 3.2317 18.847H17.7528C20.088 18.847 21.5343 16.3762 20.3419 14.4215ZM10.4924 16.5032C9.82848 16.5032 9.28808 15.9774 9.28808 15.3313C9.28808 14.6853 9.82848 14.1595 10.4924 14.1595C11.1562 14.1595 11.6966 14.6853 11.6966 15.3313C11.6966 15.9774 11.1562 16.5032 10.4924 16.5032ZM11.6966 11.8157C11.6966 12.4617 11.1562 12.9876 10.4924 12.9876C9.82848 12.9876 9.28808 12.4617 9.28808 11.8157V5.95634C9.28808 5.31032 9.82848 4.78446 10.4924 4.78446C11.1562 4.78446 11.6966 5.31032 11.6966 5.95634V11.8157Z" fill="#D01F36"/>
</svg>
