<svg width="14" height="14" viewBox="0 0 14 14" fill="none" xmlns="http://www.w3.org/2000/svg">
<g clip-path="url(#clip0)">
<path d="M3.5612 3.7807L2.3483 3.87441C2.0108 3.90049 1.71021 4.07738 1.52356 4.3597L0.124748 6.47532C-0.0168094 6.68942 -0.0393132 6.95736 0.0645102 7.19207C0.168361 7.42679 0.381777 7.59036 0.635389 7.62965L1.74595 7.80164C2.00574 6.42298 2.62764 5.04771 3.5612 3.7807Z" fill="white"/>
<path d="M6.19922 12.254L6.37124 13.3646C6.41053 13.6182 6.5741 13.8316 6.80879 13.9354C6.90643 13.9786 7.00979 14 7.11263 14C7.25708 14 7.40053 13.9579 7.52557 13.8752L9.64124 12.4764C9.92356 12.2897 10.1004 11.9891 10.1265 11.6517L10.2202 10.4388C8.95314 11.3724 7.5779 11.9943 6.19922 12.254Z" fill="white"/>
<path d="M5.78053 11.4843C5.81908 11.4843 5.85785 11.4811 5.89655 11.4747C6.47415 11.3781 7.03086 11.2154 7.56193 11.0024L2.99747 6.43799C2.78452 6.96903 2.62183 7.52574 2.52525 8.10337C2.48719 8.33106 2.56356 8.56302 2.72677 8.72626L5.27366 11.2731C5.40917 11.4086 5.59208 11.4843 5.78053 11.4843Z" fill="white"/>
<path d="M12.8822 6.20706C13.9991 4.04764 14.0405 1.76565 13.9821 0.695428C13.9621 0.328724 13.6698 0.0363669 13.303 0.0163788C13.1288 0.00686323 12.9223 0 12.6895 0C11.4928 0 9.5992 0.18126 7.79141 1.11633C6.35472 1.85944 4.47083 3.49571 3.35938 5.64606C3.3725 5.65631 3.38532 5.66719 3.39741 5.67928L8.31925 10.6011C8.33133 10.6132 8.34219 10.626 8.35244 10.6391C10.5028 9.52764 12.1391 7.64375 12.8822 6.20706ZM8.13862 2.95966C8.93817 2.16011 10.2392 2.16003 11.0388 2.95966C11.4262 3.34699 11.6395 3.862 11.6395 4.40977C11.6395 4.95755 11.4262 5.47256 11.0388 5.85988C10.6391 6.25962 10.1138 6.45953 9.58872 6.45958C9.06348 6.45961 8.53846 6.25973 8.13862 5.85988C7.75127 5.47256 7.53793 4.95755 7.53793 4.40977C7.53793 3.862 7.75127 3.34699 8.13862 2.95966Z" fill="white"/>
<path d="M8.71977 5.27982C9.19951 5.75956 9.98018 5.75959 10.4599 5.27982C10.6923 5.04739 10.8203 4.73841 10.8203 4.40974C10.8203 4.08107 10.6923 3.77208 10.4599 3.53969C10.2201 3.2998 9.90495 3.17987 9.58984 3.17987C9.27476 3.17987 8.95965 3.2998 8.71979 3.53969C8.4874 3.77208 8.35938 4.08107 8.35938 4.40974C8.35938 4.73841 8.48737 5.04742 8.71977 5.27982Z" fill="white"/>
<path d="M0.417982 11.5373C0.522955 11.5373 0.627928 11.4973 0.70799 11.4172L2.0471 10.078C2.20728 9.91787 2.20728 9.65818 2.0471 9.498C1.88694 9.33782 1.62723 9.33782 1.46705 9.498L0.127947 10.8371C-0.0322324 10.9973 -0.0322324 11.257 0.127947 11.4172C0.208037 11.4972 0.31301 11.5373 0.417982 11.5373Z" fill="white"/>
<path d="M3.27473 10.7252C3.11458 10.565 2.85487 10.565 2.69469 10.7252L0.120135 13.2997C-0.0400449 13.4599 -0.0400449 13.7196 0.120135 13.8798C0.200225 13.9599 0.305197 13.9999 0.41017 13.9999C0.515143 13.9999 0.620115 13.9599 0.700178 13.8797L3.2747 11.3052C3.43491 11.145 3.43491 10.8854 3.27473 10.7252Z" fill="white"/>
<path d="M3.92015 11.9524L2.58107 13.2915C2.42089 13.4517 2.42089 13.7114 2.58107 13.8716C2.66116 13.9517 2.76613 13.9917 2.87108 13.9917C2.97602 13.9917 3.08102 13.9517 3.16109 13.8716L4.50019 12.5325C4.66037 12.3723 4.66037 12.1126 4.50019 11.9524C4.34004 11.7922 4.08033 11.7922 3.92015 11.9524Z" fill="white"/>
</g>
<defs>
<clipPath id="clip0">
<rect width="14" height="14" fill="white"/>
</clipPath>
</defs>
</svg>
