<svg width="16" height="17" viewBox="0 0 16 17" fill="none" xmlns="http://www.w3.org/2000/svg">
    <g clip-path="url(#clip0_6600_9432)">
        <g clip-path="url(#clip1_6600_9432)">
            <path d="M8.14333 16.0131C7.85419 15.8056 7.57246 15.598 7.29073 15.383C5.95623 14.4043 4.62173 13.4183 3.28723 12.4396C3.21309 12.3877 3.18343 12.3359 3.17602 12.2469C3.13154 11.7798 3.08705 11.3053 3.03516 10.8382C2.99067 10.3712 2.94619 9.89668 2.90171 9.4296C2.85722 8.96253 2.80532 8.48804 2.76084 8.02096C2.71636 7.55389 2.67187 7.0794 2.62739 6.61232C2.58291 6.14525 2.53101 5.67076 2.48653 5.20368C2.44946 4.79592 2.40497 4.38815 2.3679 3.98039C2.35308 3.76539 2.32342 3.5578 2.30859 3.34279C2.30859 3.30572 2.32342 3.25383 2.35308 3.239C3.62085 2.41606 4.95535 1.70432 6.40106 1.22242C6.94969 1.03707 7.51315 0.88138 8.09885 0.814655C8.23971 0.799827 8.38799 0.836897 8.53627 0.866552C9.61128 1.06673 10.627 1.45966 11.613 1.91933C12.4211 2.29743 13.1848 2.74227 13.9336 3.22417C13.9855 3.25383 14.0003 3.2909 13.9929 3.35021C13.941 3.83211 13.8965 4.31401 13.8446 4.79592C13.7927 5.3223 13.7334 5.84869 13.6815 6.38249C13.637 6.84215 13.5925 7.30923 13.5481 7.77631C13.5036 8.24338 13.4517 8.71046 13.4072 9.17753C13.3701 9.57788 13.3331 9.98565 13.2886 10.386C13.2441 10.8531 13.1922 11.3201 13.1477 11.7872C13.1329 11.9429 13.1181 12.106 13.1032 12.2691C13.0958 12.3433 13.0736 12.4026 13.0068 12.4471C11.4054 13.6185 9.81145 14.7973 8.21747 15.9687C8.20264 15.9761 8.17298 15.9909 8.14333 16.0131ZM8.15074 15.0197C8.63265 14.6638 9.10713 14.3154 9.58162 13.9743C10.4935 13.3071 11.4054 12.6324 12.3174 11.9652C12.347 11.9429 12.3767 11.9058 12.3841 11.8688C12.4434 11.2757 12.5027 10.6751 12.562 10.0746C12.6287 9.38512 12.6955 8.69563 12.7622 7.99872C12.8289 7.30182 12.903 6.61974 12.9698 5.92283C13.0365 5.22592 13.1106 4.5216 13.1774 3.8247C13.1848 3.78021 13.1699 3.75056 13.1329 3.72832C12.4805 3.32055 11.8058 2.94244 11.1015 2.61623C10.2637 2.23071 9.40369 1.9045 8.49178 1.72656C8.35833 1.69691 8.21005 1.65984 8.08402 1.68208C7.66884 1.76363 7.24625 1.8526 6.83848 1.97864C5.59295 2.36416 4.43638 2.94986 3.3243 3.61711C3.16119 3.7209 3.10929 3.80246 3.13154 4.01004C3.13895 4.08418 3.13895 4.08418 3.13895 4.12125C3.20568 4.75143 3.26499 5.38162 3.3243 6.0118C3.38361 6.56784 3.43551 7.1313 3.49482 7.68734C3.56154 8.36942 3.62827 9.0515 3.70241 9.73357C3.76913 10.4305 3.84327 11.1274 3.91 11.8243C3.91741 11.8836 3.93965 11.9207 3.98413 11.9503C5.00725 12.6991 6.03037 13.4553 7.05349 14.2116C7.41677 14.4785 7.78005 14.7454 8.15074 15.0197Z" fill="#EFEFE5"/>
            <path d="M6.27496 9.05146C6.33427 9.26646 6.38617 9.46664 6.44548 9.66681C6.45289 9.69647 6.48996 9.71871 6.51962 9.73354C6.79393 9.86699 7.07566 10.0004 7.35739 10.1339C7.40928 10.1561 7.43153 10.1932 7.43894 10.2525C7.58722 11.4091 7.7355 12.5656 7.88377 13.7296C7.88377 13.7593 7.89119 13.7889 7.89119 13.8408C7.75774 13.7296 7.63912 13.6407 7.52049 13.5443C7.06083 13.1736 6.59376 12.8029 6.13409 12.4322C6.0822 12.3951 6.06737 12.3506 6.07478 12.2913C6.11185 11.8539 6.16375 11.4091 6.18599 10.9717C6.19341 10.7937 6.16375 10.6084 6.12668 10.4304C6.0822 10.2303 5.95616 10.0894 5.77823 9.98561C5.75599 9.97078 5.73374 9.93371 5.73374 9.91147C5.69667 9.19232 5.72633 8.48059 5.98582 7.7911C6.25272 7.08678 6.70496 6.56039 7.43894 6.30832C7.51308 6.27866 7.59463 6.26383 7.67618 6.24159C7.57239 6.00435 7.4686 5.77452 7.3648 5.52244C7.43894 5.52244 7.49825 5.52244 7.57239 5.52244C7.45377 4.52898 7.33515 3.55035 7.20911 2.55688C7.49084 2.65327 7.76515 2.74965 8.03947 2.84603C8.12843 2.87568 8.20257 2.87568 8.28412 2.84603C8.52878 2.75706 8.77344 2.67551 9.0181 2.58654C9.04776 2.57913 9.07741 2.57171 9.11448 2.55688C8.99586 3.55035 8.87724 4.52898 8.7512 5.52244C8.81792 5.52244 8.87724 5.52244 8.95879 5.52244C8.84758 5.7671 8.74379 6.00435 8.63999 6.24159C8.99586 6.30832 9.29983 6.46401 9.57414 6.68643C9.98191 7.02005 10.234 7.45747 10.3971 7.94679C10.5824 8.53249 10.6195 9.14043 10.5973 9.74836C10.5898 9.88181 10.5602 9.97078 10.4416 10.0597C10.2043 10.2377 10.1376 10.5046 10.1302 10.7937C10.1228 10.9494 10.1524 11.0977 10.1598 11.2534C10.1895 11.6167 10.2117 11.9725 10.2414 12.3358C10.2414 12.3581 10.2266 12.3877 10.2117 12.4025C9.62604 12.877 9.04034 13.3515 8.44723 13.8186C8.43982 13.8186 8.43982 13.8186 8.42499 13.826C8.42499 13.8038 8.42499 13.7815 8.42499 13.7593C8.57327 12.6027 8.72154 11.4536 8.86241 10.297C8.86982 10.2154 8.89948 10.171 8.98103 10.1339C9.25534 10.0079 9.52224 9.88181 9.78914 9.74836C9.82621 9.73354 9.86328 9.68164 9.87811 9.64457C9.93742 9.45922 9.98191 9.27388 10.0412 9.06629C9.52224 9.11818 9.01069 9.17008 8.49171 9.22198C8.50654 9.38508 8.52137 9.53336 8.5362 9.68905C8.55844 9.90406 8.58068 10.1191 8.60292 10.3341C8.60292 10.3563 8.60292 10.386 8.59551 10.4082C8.45464 10.6232 8.31378 10.8382 8.1655 11.0606C8.07653 10.9272 8.0024 10.8086 7.92084 10.6899C7.71325 10.3711 7.72067 10.3711 7.76515 9.99302C7.79481 9.74095 7.80963 9.48888 7.83929 9.22198C7.30549 9.15525 6.80134 9.10336 6.27496 9.05146Z" fill="#EFEFE5"/>
        </g>
    </g>
    <defs>
        <clipPath id="clip0_6600_9432">
            <rect width="16" height="16" fill="white" transform="translate(0 0.413818)"/>
        </clipPath>
        <clipPath id="clip1_6600_9432">
            <rect width="11.6917" height="15.1985" fill="white" transform="translate(2.30835 0.814575)"/>
        </clipPath>
    </defs>
</svg>
