<svg
                    xmlns="http://www.w3.org/2000/svg"
                    width="24"
                    height="24"
                    viewBox="0 0 24 24"
                    fill="none"
                  >
                    <g clip-path="url(#clip0_1372_2620)">
                      <circle cx="12" cy="12" r="12" fill="#23AF91" />
                      <path
                        fill-rule="evenodd"
                        clip-rule="evenodd"
                        d="M10.1563 12.0015L14.4215 16.2673L17.1137 13.5751C17.5952 13.142 18.3313 13.161 18.7892 13.6189C19.2472 14.0768 19.2667 14.8135 18.833 15.2945L15.2803 18.8477C14.8028 19.3172 14.0379 19.3172 13.5604 18.8477L8.43528 13.7209V16.7678C8.43528 17.4406 7.89039 17.9855 7.21764 17.9855C6.54489 17.9855 6 17.4406 6 16.7678V7.23062C6 6.55844 6.54489 6.01298 7.21764 6.01298C7.89039 6.01298 8.43528 6.55844 8.43528 7.23062V10.2776L13.5598 5.15188C14.0368 4.68245 14.8028 4.68245 15.2798 5.15188L18.8348 8.70458C19.2679 9.1861 19.2489 9.92221 18.791 10.3801C18.3331 10.838 17.5964 10.8576 17.1154 10.4239L14.4233 7.73173L10.1563 12.0015ZM14.4233 10.7822C13.9302 10.7822 13.4855 11.0788 13.2966 11.5344C13.1077 11.99 13.212 12.5142 13.5604 12.8632C13.9089 13.2123 14.4336 13.3165 14.8892 13.1282C15.3448 12.9392 15.642 12.4952 15.642 12.0015C15.642 11.6784 15.5142 11.3685 15.2855 11.1393C15.0574 10.9106 14.747 10.7822 14.4238 10.7822H14.4233Z"
                        fill="white"
                      />
                    </g>
                    <defs>
                      <clipPath id="clip0_1372_2620">
                        <rect width="24" height="24" fill="white" />
                      </clipPath>
                    </defs>
                  </svg>