<svg width="24" height="24" viewBox="0 0 24 24" fill="none" xmlns="http://www.w3.org/2000/svg">
<path opacity="0.8" d="M19.9812 14.1075C19.5989 14.3456 19.1486 14.3751 18.8064 14.185C18.3716 13.9431 18.1326 13.3768 18.1326 12.5892V10.2327C18.1326 9.09473 17.676 8.285 16.9124 8.06636C15.6183 7.69495 14.6451 9.25489 14.2793 9.84072L11.9971 13.4864V9.03046C11.9714 8.00525 11.6335 7.39202 10.9918 7.2071C10.5672 7.08488 9.93195 7.13387 9.31487 8.06425L4.20175 16.1532C3.51722 14.8729 3.16038 13.4473 3.16222 12.0002C3.16222 7.12755 7.12567 3.16369 11.9971 3.16369C16.8685 3.16369 20.8314 7.12755 20.8314 12.0002C20.8314 12.0086 20.8336 12.016 20.8341 12.0239C20.8341 12.0323 20.8325 12.0397 20.833 12.0481C20.879 12.9917 20.5689 13.7419 19.9812 14.1075ZM22.7944 12.0007V11.976L22.7939 11.9517C22.7666 6.01752 17.9342 1.2002 11.9966 1.2002C6.04337 1.2002 1.19922 6.04492 1.19922 12.0002C1.19922 17.9549 6.04337 22.8002 11.9971 22.8002C14.729 22.8002 17.3364 21.7771 19.3379 19.92C19.7358 19.5512 19.7593 18.9301 19.3903 18.5329C19.2149 18.3423 18.969 18.2293 18.708 18.2194C18.447 18.2095 18.193 18.3035 18.0032 18.4802C16.3809 19.9938 14.2314 20.8371 11.9971 20.8367C9.38866 20.8367 7.04172 19.6993 5.42308 17.8954L10.0341 10.6009V13.9637C10.0341 15.5789 10.6699 16.101 11.203 16.2538C11.7367 16.4066 12.5521 16.3023 13.4083 14.9325L15.9445 10.8817C16.0258 10.7511 16.1006 10.6383 16.1691 10.5409V12.5892C16.1691 14.0991 16.783 15.3066 17.853 15.9014C18.8176 16.4377 20.0304 16.3892 21.0186 15.7749C22.2164 15.0295 22.8618 13.656 22.7944 12.0007Z" fill="white"/>
</svg>
