<svg width="5" height="8" viewBox="0 0 5 8" fill="none" xmlns="http://www.w3.org/2000/svg">
<path d="M3.49222 3.52228L3.49222 3.24767C3.49222 3.1261 3.40454 3.02341 3.28636 2.99488C2.822 2.88277 2.45837 2.67376 2.0099 2.2246L0.669386 0.844718C0.574986 0.747546 0.574986 0.592918 0.669386 0.495746L0.970412 0.185879C1.06912 0.0842688 1.2324 0.0847065 1.33057 0.186845L4.83517 3.8333C4.92845 3.93035 4.92831 4.08378 4.83487 4.18066L1.33058 7.81381C1.23235 7.91564 1.06932 7.91594 0.970734 7.81445L0.670142 7.50503C0.575441 7.40755 0.575785 7.25232 0.670918 7.15526L2.06532 5.73262C2.48825 5.32214 2.83741 5.11781 3.28747 5.00606C3.40507 4.97686 3.49222 4.87441 3.49222 4.75323L3.49222 4.47772L3.49222 3.52228Z" fill="#1E1E1E"/>
</svg>
