<svg width="20" height="20" viewBox="0 0 20 20" fill="none" xmlns="http://www.w3.org/2000/svg">
<path d="M19.3608 18.2168L14.6007 13.2662C15.8246 11.8113 16.4952 9.98069 16.4952 8.07499C16.4952 3.62251 12.8727 0 8.42021 0C3.96773 0 0.345215 3.62251 0.345215 8.07499C0.345215 12.5275 3.96773 16.15 8.42021 16.15C10.0917 16.15 11.6846 15.6458 13.0465 14.6888L17.8427 19.677C18.0431 19.8852 18.3128 20 18.6017 20C18.8752 20 19.1347 19.8957 19.3316 19.7061C19.7501 19.3034 19.7635 18.6357 19.3608 18.2168ZM8.42021 2.10652C11.7113 2.10652 14.3887 4.78391 14.3887 8.07499C14.3887 11.3661 11.7113 14.0435 8.42021 14.0435C5.12912 14.0435 2.45173 11.3661 2.45173 8.07499C2.45173 4.78391 5.12912 2.10652 8.42021 2.10652Z" fill="white"/>
<path d="M5.55566 10.4838C5.58799 10.3149 5.69672 10.197 5.81357 10.0811C6.38969 9.50764 6.96421 8.93259 7.53714 8.35589C7.55474 8.34158 7.57361 8.32891 7.59353 8.31805C7.56715 8.29051 7.55395 8.27601 7.54018 8.26224C6.93932 7.66061 6.33841 7.05878 5.73746 6.45676C5.64273 6.36418 5.58647 6.23923 5.57995 6.10694C5.57342 5.97464 5.6171 5.84477 5.70225 5.74331C5.7874 5.64184 5.90773 5.57629 6.03915 5.55977C6.17057 5.54325 6.30338 5.57697 6.411 5.6542C6.43848 5.6745 6.46418 5.6971 6.48783 5.72176C7.08309 6.31431 7.6781 6.90724 8.27287 7.50056C8.2907 7.51839 8.30607 7.53883 8.32651 7.5629C8.34767 7.54275 8.36318 7.52854 8.37797 7.51375C8.97004 6.92033 9.5621 6.32706 10.1542 5.73394C10.446 5.44196 10.925 5.55519 11.0385 5.94429C11.0958 6.14 11.0546 6.31774 10.908 6.46445C10.3151 7.05941 9.72181 7.65379 9.1282 8.2476C9.11283 8.2621 9.095 8.27558 9.07253 8.29457C9.09674 8.31907 9.11501 8.33806 9.13356 8.35647C9.73471 8.9553 10.3363 9.55432 10.9385 10.1535C11.0521 10.2665 11.114 10.4 11.1111 10.5608C11.1088 10.6926 11.0553 10.8183 10.9621 10.9115C10.8688 11.0046 10.7431 11.058 10.6113 11.0602C10.4258 11.0645 10.2723 11.0032 10.1398 10.8694C9.55403 10.2777 8.96632 9.68818 8.37667 9.10076C8.36238 9.08424 8.34939 9.06665 8.33782 9.04813L8.31433 9.04393C8.30444 9.06351 8.29249 9.08198 8.27867 9.09902C7.68109 9.69891 7.0827 10.2985 6.48348 10.8978C6.29995 11.0816 5.98666 11.1153 5.76863 10.9751C5.65714 10.9032 5.59916 10.7959 5.56741 10.6709C5.56436 10.6591 5.55958 10.6476 5.55566 10.636V10.4838Z" fill="#F7F7F7"/>
</svg>
