<svg width="24" height="24" viewBox="0 0 24 24" fill="none" xmlns="http://www.w3.org/2000/svg">
<g id="Tier Icon V1" clip-path="url(#clip0_3044_686)">
<path id="Vector" d="M24 11.9987C24 11.1533 23.5695 10.3954 22.8504 9.97272C23.5695 9.55 24 8.79218 24 7.94673C24 7.10128 23.5645 6.33315 22.8352 5.91043L13.137 0.301579C12.4381 -0.100526 11.567 -0.100526 10.8681 0.301579L1.1648 5.91043C0.435536 6.33315 0 7.09097 0 7.94673C0 8.80249 0.430473 9.55 1.14961 9.97272C0.430473 10.3954 0 11.1533 0 11.9987C0 12.8442 0.430473 13.602 1.14961 14.0247C0.430473 14.4474 0 15.2052 0 16.0507C0 16.8961 0.435536 17.6643 1.1648 18.087L10.8631 23.6958C11.2125 23.8969 11.6075 24 11.9975 24C12.3874 24 12.7824 23.8969 13.1319 23.6958L22.8352 18.087C23.5645 17.6643 24 16.9065 24 16.0507C24 15.1949 23.5695 14.4474 22.8504 14.0247C23.5695 13.602 24 12.8442 24 11.9987ZM22.0148 11.4368C22.3034 11.6018 22.3338 11.8853 22.3338 11.9987C22.3338 12.1121 22.3034 12.3905 22.0148 12.5606L12.3165 18.1695C12.1241 18.2829 11.881 18.2829 11.6885 18.1695L1.99029 12.5606C1.70163 12.3905 1.67124 12.1121 1.67124 11.9987C1.67124 11.8853 1.70163 11.6069 1.99029 11.4368L2.84111 10.9471L10.8681 15.5867C11.2176 15.7878 11.6126 15.8909 12.0025 15.8909C12.3925 15.8909 12.7875 15.7878 13.137 15.5867L21.169 10.9471L22.0198 11.4368H22.0148ZM1.98523 7.38481L11.6885 1.77596C11.881 1.66255 12.1241 1.66255 12.3165 1.77596L22.0198 7.38481C22.3085 7.54978 22.3389 7.83332 22.3389 7.94673C22.3389 8.06014 22.3085 8.33852 22.0198 8.50865L12.3165 14.1175C12.1241 14.2258 11.8861 14.2309 11.6885 14.1175L1.98523 8.50865C1.69656 8.34368 1.66617 8.06014 1.66617 7.94673C1.66617 7.83332 1.69656 7.55493 1.98523 7.38481ZM22.0148 16.6126L12.3115 22.2215C12.119 22.3297 11.881 22.3349 11.6835 22.2215L1.98017 16.6126C1.6915 16.4476 1.66111 16.1641 1.66111 16.0507C1.66111 15.9373 1.6915 15.6589 1.98017 15.4888L2.83098 14.999L10.8631 19.6387C11.2125 19.8398 11.6024 19.9429 11.9975 19.9429C12.3925 19.9429 12.7824 19.8398 13.1319 19.6387L21.164 14.999L22.0148 15.4888C22.3034 15.6589 22.3338 15.9373 22.3338 16.0507C22.3338 16.1641 22.3034 16.4425 22.0148 16.6126Z" fill="#1E1E1E"/>
</g>
<defs>
<clipPath id="clip0_3044_686">
<rect width="24" height="24" fill="white"/>
</clipPath>
</defs>
</svg>
