<svg width="24" height="24" viewBox="0 0 24 24" fill="none" xmlns="http://www.w3.org/2000/svg">
<g clip-path="url(#clip0_5931_2718)">
<circle cx="12" cy="12" r="11.5" fill="#212126" stroke="#353539"/>
<path d="M13.9885 9.70712H10.017C9.84829 9.70712 9.71077 9.84463 9.71077 10.0133V13.9848C9.71077 14.1535 9.84829 14.2911 10.017 14.2911H13.9885C14.1572 14.2911 14.2947 14.1535 14.2947 13.9848V10.0133C14.2929 9.84463 14.1572 9.70712 13.9885 9.70712Z" fill="white"/>
<path d="M9.40274 5.125H5.43121C5.26252 5.125 5.125 5.26252 5.125 5.43121V9.40274C5.125 9.57143 5.26252 9.70895 5.43121 9.70895H9.40274C9.57142 9.70895 9.70894 9.57143 9.70894 9.40274V5.42937C9.70894 5.26068 9.57142 5.125 9.40274 5.125Z" fill="white"/>
<path d="M18.5688 5.125H14.5973C14.4286 5.125 14.2911 5.26252 14.2911 5.43121V9.40274C14.2911 9.57143 14.4286 9.70895 14.5973 9.70895H18.5688C18.7375 9.70895 18.875 9.57143 18.875 9.40274V5.42937C18.875 5.26068 18.7375 5.125 18.5688 5.125Z" fill="white"/>
<path d="M9.40274 14.2911H5.43121C5.26252 14.2911 5.125 14.4286 5.125 14.5973V18.5688C5.125 18.7375 5.26252 18.875 5.43121 18.875H9.40274C9.57142 18.875 9.70894 18.7375 9.70894 18.5688V14.5973C9.70894 14.4267 9.57142 14.2911 9.40274 14.2911Z" fill="white"/>
<path d="M18.5688 14.2911H14.5973C14.4286 14.2911 14.2911 14.4286 14.2911 14.5973V18.5688C14.2911 18.7375 14.4286 18.875 14.5973 18.875H18.5688C18.7375 18.875 18.875 18.7375 18.875 18.5688V14.5973C18.875 14.4267 18.7375 14.2911 18.5688 14.2911Z" fill="white"/>
</g>
<defs>
<clipPath id="clip0_5931_2718">
<rect width="24" height="24" fill="white"/>
</clipPath>
</defs>
</svg>
