<svg width="14" height="14" viewBox="0 0 14 14" fill="none" xmlns="http://www.w3.org/2000/svg">
<g clip-path="url(#clip0_2332_2)">
<mask id="mask0_2332_2" style="mask-type:luminance" maskUnits="userSpaceOnUse" x="0" y="0" width="14" height="14">
<path d="M14 0H0V14H14V0Z" fill="white"/>
</mask>
<g mask="url(#mask0_2332_2)">
<path d="M6.99346 13.3871C5.69641 13.3871 4.39937 13.3748 3.10269 13.3903C1.67894 13.4077 0.603069 12.4546 0.199988 11.3159C0.0621698 10.9267 0.0010408 10.5244 0.0010408 10.1102C0.0010408 7.83272 -0.00192303 5.55482 0.00215223 3.27732C0.00511607 1.65709 0.996518 0.362728 2.46547 0.0542827C2.637 0.0182512 2.81483 0.00360107 2.98969 0.00320512C4.39307 -0.000754385 5.79644 -0.000754385 7.20019 0.00162132C7.69107 0.00241322 8.01339 0.4827 7.84964 0.957444C7.75035 1.2457 7.5062 1.42189 7.18759 1.42546C6.81711 1.42942 6.44663 1.42665 6.07578 1.42665C5.07068 1.42665 4.06557 1.42585 3.06046 1.42704C2.06905 1.42783 1.33847 2.19914 1.33662 3.26069C1.33254 5.54809 1.33291 7.83589 1.33662 10.1233C1.33847 11.1848 2.06905 11.9581 3.05935 11.9581C5.68085 11.9589 8.30273 11.9589 10.9242 11.9581C11.9149 11.9577 12.641 11.1864 12.6462 10.1221C12.651 9.08234 12.6462 8.04257 12.6481 7.00281C12.6488 6.57518 12.8726 6.28733 13.2375 6.23387C13.5824 6.18319 13.9203 6.45521 13.9696 6.82344C13.9748 6.86264 13.9796 6.90224 13.9796 6.94183C13.9766 8.10038 13.9996 9.25972 13.9629 10.4171C13.917 11.8583 12.7763 13.1559 11.4377 13.3459C11.241 13.3736 11.0409 13.3847 10.8424 13.3855C9.5594 13.3887 8.27643 13.3871 6.99346 13.3871Z" fill="#1E1E1E"/>
<path d="M12.6642 2.19935C12.6104 2.24387 12.5785 2.26761 12.5496 2.29431C10.9446 3.76875 9.33955 5.24245 7.73603 6.71837C7.52015 6.91719 7.27979 7.00176 6.99714 6.89456C6.73972 6.79664 6.59543 6.60079 6.56872 6.32853C6.54535 6.08928 6.6481 5.90048 6.82318 5.74024C7.5591 5.06774 8.29205 4.39191 9.02612 3.71756C9.84884 2.96161 10.6719 2.20566 11.4954 1.45008C11.5251 1.42263 11.5603 1.40149 11.5929 1.37738C11.5874 1.36625 11.5818 1.35549 11.5763 1.34437C11.528 1.34214 11.4798 1.33769 11.4316 1.33769C11.0514 1.33695 10.6712 1.34177 10.291 1.33583C9.93675 1.33027 9.65855 1.0836 9.61849 0.752737C9.5788 0.424465 9.77799 0.11882 10.0974 0.0297978C10.1764 0.00791299 10.2621 0.00272 10.3448 0.00272C11.3185 0.000865353 12.2921 0.000123497 13.2658 0.00234907C13.7191 0.00346185 13.9966 0.276465 13.998 0.728626C14.0018 1.67004 13.9988 2.61146 13.9995 3.55287C13.9999 3.83033 13.8949 4.05103 13.6464 4.1853C13.4201 4.30771 13.1905 4.29732 12.9732 4.15971C12.7595 4.02469 12.6642 3.82254 12.6642 3.57253C12.6642 3.17378 12.6638 2.77504 12.6638 2.37592C12.6642 2.32547 12.6642 2.27614 12.6642 2.19935Z" fill="#1E1E1E"/>
</g>
</g>
<defs>
<clipPath id="clip0_2332_2">
<rect width="14" height="14" fill="white"/>
</clipPath>
</defs>
</svg>
