<svg
                    xmlns="http://www.w3.org/2000/svg"
                    width="24"
                    height="24"
                    viewBox="0 0 24 24"
                    fill="none"
                  >
                    <g clip-path="url(#clip0_1372_2613)">
                      <path
                        d="M12 24C18.6274 24 24 18.6274 24 12C24 5.37258 18.6274 0 12 0C5.37258 0 0 5.37258 0 12C0 18.6274 5.37258 24 12 24Z"
                        fill="#53DEE9"
                      />
                      <path
                        fill-rule="evenodd"
                        clip-rule="evenodd"
                        d="M11.9654 19.9688C9.62994 19.9671 7.74894 19.4066 6.43444 18.4001C5.10419 17.3813 4.39844 15.9358 4.39844 14.3001C4.39844 12.7241 5.10269 11.5876 5.89944 10.8193C6.52369 10.2173 7.21269 9.83183 7.69244 9.60983C7.56043 9.20666 7.43872 8.8002 7.32744 8.39083C7.16544 7.78833 7.00644 7.08158 7.00644 6.56358C7.00644 5.95058 7.14019 5.33483 7.50069 4.85633C7.88144 4.35108 8.45469 4.08033 9.14419 4.08033C9.68319 4.08033 10.1407 4.28033 10.4992 4.62508C10.8414 4.95458 11.0692 5.39258 11.2267 5.84883C11.5032 6.65083 11.6109 7.65833 11.6409 8.66383H12.3017C12.3317 7.65833 12.4394 6.65083 12.7159 5.84883C12.8734 5.39258 13.1012 4.95458 13.4434 4.62508C13.8019 4.28008 14.2594 4.08008 14.7984 4.08008C15.4879 4.08008 16.0612 4.35108 16.4419 4.85633C16.8024 5.33483 16.9362 5.95058 16.9362 6.56383C16.9362 7.08158 16.7772 7.78833 16.6152 8.39083C16.5039 8.8002 16.3822 9.20667 16.2502 9.60983C16.7299 9.83183 17.4189 10.2173 18.0432 10.8193C18.8399 11.5876 19.5442 12.7241 19.5442 14.3001C19.5442 15.9358 18.8384 17.3813 17.5082 18.4001C16.1939 19.4066 14.3127 19.9671 11.9772 19.9688H11.9654Z"
                        fill="#633001"
                      />
                      <path
                        d="M9.14159 4.66406C8.13159 4.66406 7.66659 5.42531 7.66659 6.47806C7.66659 7.31481 8.20659 8.99056 8.42859 9.64306C8.47834 9.78981 8.40009 9.95056 8.25709 10.0076C7.44759 10.3301 5.05859 11.5106 5.05859 14.2146C5.05859 17.0628 7.48634 19.2103 11.9633 19.2138H11.9741C16.4511 19.2103 18.8788 17.0628 18.8788 14.2146C18.8788 11.5106 16.4898 10.3298 15.6803 10.0076C15.6107 9.98006 15.5542 9.92703 15.5224 9.8593C15.4905 9.79157 15.4857 9.71423 15.5088 9.64306C15.7306 8.99056 16.2708 7.31481 16.2708 6.47806C16.2708 5.42531 15.8058 4.66406 14.7958 4.66406C13.3418 4.66406 12.9793 6.74456 12.9533 8.97756C12.9531 9.04883 12.9248 9.11713 12.8745 9.16767C12.8242 9.2182 12.7561 9.24691 12.6848 9.24756H11.2523C11.1048 9.24756 10.9856 9.12656 10.9838 8.97756C10.9581 6.74456 10.5956 4.66406 9.14159 4.66406Z"
                        fill="#D1884F"
                      />
                      <path
                        d="M11.9741 18.3003C8.68459 18.3003 5.06409 16.5215 5.05859 14.2188V14.2295C5.05859 17.0802 7.49034 19.2288 11.9741 19.2288C16.4578 19.2288 18.8893 17.0802 18.8893 14.2295V14.2188C18.8838 16.5213 15.2636 18.3003 11.9741 18.3003Z"
                        fill="#FEDC90"
                      />
                      <path
                        d="M10.1482 13.5106C10.1482 14.2881 9.78444 14.6931 9.33569 14.6931C8.88719 14.6931 8.52344 14.2881 8.52344 13.5106C8.52344 12.7331 8.88719 12.3281 9.33594 12.3281C9.78444 12.3281 10.1482 12.7331 10.1482 13.5106ZM15.4282 13.5106C15.4282 14.2881 15.0644 14.6931 14.6157 14.6931C14.1672 14.6931 13.8037 14.2881 13.8037 13.5106C13.8037 12.7331 14.1672 12.3281 14.6159 12.3281C15.0644 12.3281 15.4282 12.7331 15.4282 13.5106Z"
                        fill="#633001"
                      />
                    </g>
                    <defs>
                      <clipPath id="clip0_1372_2613">
                        <rect width="24" height="24" fill="white" />
                      </clipPath>
                    </defs>
                  </svg>