<svg width="4" height="8" viewBox="0 0 4 8" fill="none" xmlns="http://www.w3.org/2000/svg">
<path fill-rule="evenodd" clip-rule="evenodd" d="M0.15271 4.5437C0.05493 4.44511 0 4.3114 0 4.17199C0 4.03257 0.05493 3.89887 0.15271 3.80027L3.10326 0.826036C3.15138 0.775821 3.20893 0.735767 3.27256 0.708212C3.3362 0.680658 3.40464 0.666154 3.47389 0.665547C3.54315 0.664941 3.61183 0.678243 3.67593 0.704679C3.74003 0.731115 3.79826 0.770154 3.84723 0.81952C3.89621 0.868885 3.93494 0.927587 3.96116 0.992201C3.98739 1.05682 4.00058 1.12605 3.99998 1.19586C3.99938 1.26567 3.98499 1.33466 3.95766 1.3988C3.93032 1.46295 3.89059 1.52096 3.84077 1.56946L1.25897 4.17199L3.84077 6.77451C3.93578 6.87367 3.98835 7.00648 3.98716 7.14433C3.98597 7.28219 3.93112 7.41405 3.83442 7.51153C3.73771 7.60901 3.60689 7.66431 3.47014 7.66551C3.33338 7.66671 3.20163 7.61371 3.10326 7.51794L0.15271 4.5437Z" fill="#757575"/>
</svg>
