<svg width="8" height="8" viewBox="0 0 8 8" fill="none" xmlns="http://www.w3.org/2000/svg">
<g clip-path="url(#clip0_2711_22320)">
<path d="M0.799805 4.79685C0.825095 4.74169 0.842583 4.68089 0.876752 4.63219C0.96204 4.51139 1.08446 4.46484 1.23216 4.46484C2.98824 4.46619 4.74404 4.46565 6.50011 4.46565C6.55742 4.46565 6.61446 4.46538 6.67176 4.46565C6.84987 4.46619 6.97955 4.55013 7.04897 4.71021C7.1165 4.86572 7.07991 5.0102 6.96395 5.13396C6.9513 5.14742 6.93839 5.16033 6.92521 5.17325C6.03493 6.06352 5.14465 6.95434 4.25303 7.84354C4.20325 7.89304 4.14541 7.94201 4.08191 7.96865C3.94335 8.02649 3.80937 8.00335 3.69233 7.90515C3.66731 7.88417 3.64364 7.8613 3.6205 7.83843C2.74286 6.9608 1.86577 6.08316 0.987869 5.20661C0.904733 5.12347 0.82644 5.03899 0.799805 4.91953C0.799805 4.87864 0.799805 4.83774 0.799805 4.79685Z" fill="white"/>
<path d="M7.08301 3.20315C7.05772 3.25831 7.04023 3.31911 7.00606 3.36781C6.92077 3.48861 6.79836 3.53516 6.65065 3.53516C4.89458 3.53381 3.13877 3.53435 1.3827 3.53435C1.32539 3.53435 1.26836 3.53462 1.21105 3.53435C1.03294 3.53381 0.903258 3.44987 0.833844 3.28979C0.766314 3.13428 0.802904 2.9898 0.918863 2.86604C0.931509 2.85258 0.944423 2.83967 0.957606 2.82675C1.84788 1.93648 2.73816 1.04566 3.62978 0.156459C3.67956 0.106954 3.7374 0.0579877 3.8009 0.0313518C3.93946 -0.0264933 4.07344 -0.0033555 4.19048 0.094847C4.2155 0.115833 4.23918 0.138702 4.26232 0.161571C5.13995 1.0392 6.01704 1.91684 6.89494 2.79339C6.97808 2.87653 7.05637 2.96101 7.08301 3.08047C7.08301 3.12136 7.08301 3.16226 7.08301 3.20315Z" fill="white"/>
</g>
<defs>
<clipPath id="clip0_2711_22320">
<rect width="8" height="8" fill="white"/>
</clipPath>
</defs>
</svg>
