<svg width="14" height="14" viewBox="0 0 14 14" fill="none" xmlns="http://www.w3.org/2000/svg">
<path fill-rule="evenodd" clip-rule="evenodd" d="M7 0.333328C10.682 0.333328 13.6667 3.31799 13.6667 6.99999C13.6667 10.682 10.682 13.6667 7 13.6667C3.318 13.6667 0.333332 10.682 0.333332 6.99999C0.333332 3.31799 3.318 0.333328 7 0.333328ZM7 1.66666C5.58551 1.66666 4.22896 2.22856 3.22876 3.22876C2.22857 4.22895 1.66667 5.58551 1.66667 6.99999C1.66667 8.41448 2.22857 9.77104 3.22876 10.7712C4.22896 11.7714 5.58551 12.3333 7 12.3333C8.41449 12.3333 9.77104 11.7714 10.7712 10.7712C11.7714 9.77104 12.3333 8.41448 12.3333 6.99999C12.3333 5.58551 11.7714 4.22895 10.7712 3.22876C9.77104 2.22856 8.41449 1.66666 7 1.66666ZM6.05733 4.17133C6.29336 3.93546 6.60925 3.79666 6.94262 3.78234C7.27599 3.76802 7.60262 3.87923 7.858 4.09399L7.94266 4.17133L9.82866 6.05733C10.0645 6.29335 10.2033 6.60924 10.2177 6.94262C10.232 7.27599 10.1208 7.60261 9.906 7.85799L9.82866 7.94266L7.94266 9.82866C7.70664 10.0645 7.39075 10.2033 7.05738 10.2176C6.724 10.232 6.39738 10.1208 6.142 9.90599L6.05733 9.82866L4.17133 7.94266C3.93546 7.70663 3.79666 7.39075 3.78235 7.05737C3.76803 6.724 3.87923 6.39737 4.094 6.14199L4.17133 6.05733L6.05733 4.17133ZM7 5.11466L5.11467 6.99999L7 8.88533L8.88533 6.99999L7 5.11466Z" fill="#383838"/>
</svg>
