<svg width="12" height="12" viewBox="0 0 12 12" fill="none" xmlns="http://www.w3.org/2000/svg">
<g clip-path="url(#clip0_4310_29356)">
<path d="M0.000313224 6.86948C0.0566935 6.74795 0.0469835 6.61452 0.0648373 6.48672C0.424105 3.9421 2.40149 1.82815 4.90571 1.31258C5.37805 1.21548 5.85384 1.16975 6.33557 1.17414C6.69077 1.17758 7.04628 1.17163 7.40179 1.17696C7.48667 1.17821 7.5039 1.15315 7.50202 1.07328C7.49638 0.843061 7.50139 0.612529 7.49951 0.381996C7.49826 0.221626 7.56278 0.101035 7.70937 0.0340049C7.85252 -0.0311456 7.98407 0.000176801 8.09902 0.103541C8.87425 0.800776 9.64979 1.49707 10.4228 2.1965C10.5938 2.35123 10.5935 2.57644 10.4225 2.73086C9.64917 3.42997 8.87362 4.12658 8.0984 4.82351C7.98344 4.92687 7.85095 4.95694 7.70843 4.8921C7.56216 4.82539 7.49826 4.70385 7.49951 4.54348C7.50171 4.30543 7.4992 4.06707 7.50077 3.82871C7.50108 3.78047 7.50014 3.74946 7.43499 3.75103C6.82264 3.76481 6.20872 3.72127 5.59762 3.79488C4.36352 3.94335 3.27287 4.42101 2.32976 5.23007C1.60997 5.84743 1.06903 6.59666 0.698175 7.46993C0.587608 7.73085 0.353003 7.81135 0.144083 7.67008C0.0720414 7.62122 0.0438513 7.54511 0 7.47776C0.000313224 7.27573 0.000313224 7.07245 0.000313224 6.86948Z" fill="black"/>
<path d="M4.03096 12.0021C3.19967 11.2882 2.39876 10.5399 1.58093 9.81106C1.40459 9.65382 1.40584 9.42736 1.58156 9.26856C2.3524 8.57226 3.12544 7.87816 3.89722 7.18343C4.01217 7.07975 4.14341 7.04655 4.28656 7.10951C4.43346 7.17435 4.5008 7.29462 4.49986 7.45531C4.49861 7.69367 4.5008 7.93172 4.49861 8.17008C4.49798 8.22458 4.50268 8.25434 4.57159 8.25277C5.18018 8.23899 5.79034 8.2841 6.39737 8.20861C8.0111 8.00877 9.3401 7.28178 10.3872 6.04079C10.7693 5.58787 11.0707 5.08358 11.2987 4.53638C11.356 4.39856 11.4381 4.29144 11.5959 4.27014C11.8237 4.23913 11.9994 4.402 11.9987 4.64569C11.9969 5.35013 11.8926 6.04079 11.6398 6.69762C10.7922 8.90146 9.20698 10.2486 6.89383 10.7304C6.52673 10.8068 6.1518 10.8312 5.77593 10.8297C5.38159 10.8281 4.98692 10.8315 4.59257 10.8275C4.51396 10.8265 4.4961 10.8497 4.49798 10.9246C4.50299 11.1238 4.49015 11.3236 4.50237 11.5219C4.51615 11.7421 4.45131 11.9084 4.24208 12.0021C4.1716 12.0021 4.10144 12.0021 4.03096 12.0021Z" fill="black"/>
</g>
<defs>
<clipPath id="clip0_4310_29356">
<rect width="12" height="12" fill="white"/>
</clipPath>
</defs>
</svg>
