<svg width="16" height="16" viewBox="0 0 16 16" fill="none" xmlns="http://www.w3.org/2000/svg">
<path d="M3.64489 11.646L7.64339 7.64753L8.35039 8.35453L4.35189 12.353L3.64489 11.646Z" fill="white" fill-opacity="0.8"/>
<path d="M8.50089 15C8.43756 15.0002 8.37478 14.9883 8.31589 14.965C8.23397 14.9324 8.16215 14.8786 8.10771 14.8093C8.05327 14.7399 8.01814 14.6574 8.00589 14.57L7.50589 11.07L8.50589 10.93L8.88089 13.565L10.5009 12.26V8.50003C10.5005 8.43423 10.5131 8.369 10.538 8.30808C10.5629 8.24716 10.5995 8.19175 10.6459 8.14503L12.6809 6.11003C13.1002 5.69356 13.4328 5.19806 13.6593 4.65222C13.8859 4.10638 14.002 3.52103 14.0009 2.93003V2.00003H13.0709C12.4799 1.99891 11.8945 2.11499 11.3487 2.34157C10.8029 2.56814 10.3074 2.90071 9.89089 3.32003L7.85589 5.35503C7.80917 5.40137 7.75376 5.43803 7.69284 5.46292C7.63192 5.4878 7.56669 5.50041 7.50089 5.50003H3.74089L2.43589 7.13003L5.07089 7.50503L4.93089 8.50503L1.43089 8.00503C1.34356 7.99278 1.26102 7.95765 1.19165 7.90321C1.12228 7.84877 1.06854 7.77695 1.03589 7.69503C1.00283 7.61254 0.99235 7.52274 1.00553 7.43485C1.01871 7.34697 1.05508 7.26419 1.11089 7.19503L3.11089 4.69503C3.15695 4.63519 3.21597 4.58655 3.28351 4.55278C3.35106 4.51901 3.42537 4.50097 3.50089 4.50003H7.29589L9.18089 2.61003C9.69047 2.09758 10.2967 1.6914 10.9645 1.41503C11.6322 1.13865 12.3482 0.997596 13.0709 1.00003H14.0009C14.2661 1.00003 14.5205 1.10539 14.708 1.29292C14.8955 1.48046 15.0009 1.73481 15.0009 2.00003V2.93003C15.0033 3.65271 14.8623 4.36869 14.5859 5.03645C14.3095 5.7042 13.9033 6.31045 13.3909 6.82003L11.5009 8.70503V12.5C11.5005 12.5751 11.4833 12.6492 11.4504 12.7167C11.4175 12.7842 11.3698 12.8435 11.3109 12.89L8.81089 14.89C8.72292 14.9606 8.61367 14.9994 8.50089 15Z" fill="white" fill-opacity="0.8"/>
</svg>
