<svg width="16" height="16" viewBox="0 0 16 16" fill="none" xmlns="http://www.w3.org/2000/svg">
<path d="M8.00003 13C7.86743 13 7.74028 12.9473 7.64653 12.8535L6.14653 11.3535C6.09994 11.3072 6.06296 11.2521 6.03773 11.1914C6.0125 11.1308 5.99951 11.0657 5.99951 11C5.99951 10.9343 6.0125 10.8692 6.03773 10.8086C6.06296 10.7479 6.09994 10.6928 6.14653 10.6465L7.64653 9.14649C7.69282 9.09984 7.74789 9.06281 7.80856 9.03755C7.86923 9.01228 7.93431 8.99927 8.00003 8.99927C8.06575 8.99927 8.13082 9.01228 8.1915 9.03755C8.25217 9.06281 8.30724 9.09984 8.35353 9.14649L9.85353 10.6465C9.90012 10.6928 9.9371 10.7479 9.96233 10.8086C9.98756 10.8692 10.0005 10.9343 10.0005 11C10.0005 11.0657 9.98756 11.1308 9.96233 11.1914C9.9371 11.2521 9.90012 11.3072 9.85353 11.3535L8.35353 12.8535C8.25978 12.9473 8.13263 13 8.00003 13ZM7.20703 11L8.00003 11.793L8.79303 11L8.00003 10.207L7.20703 11ZM11 9.99999C10.8674 9.99997 10.7403 9.94727 10.6465 9.85349L9.14653 8.35349C9.09994 8.30717 9.06296 8.25209 9.03773 8.19142C9.0125 8.13075 8.99951 8.0657 8.99951 7.99999C8.99951 7.93429 9.0125 7.86923 9.03773 7.80857C9.06296 7.7479 9.09994 7.69282 9.14653 7.64649L10.6465 6.14649C10.6928 6.09984 10.7479 6.06281 10.8086 6.03755C10.8692 6.01228 10.9343 5.99927 11 5.99927C11.0658 5.99927 11.1308 6.01228 11.1915 6.03755C11.2522 6.06281 11.3072 6.09984 11.3535 6.14649L12.8535 7.64649C12.9001 7.69282 12.9371 7.7479 12.9623 7.80857C12.9876 7.86923 13.0005 7.93429 13.0005 7.99999C13.0005 8.0657 12.9876 8.13075 12.9623 8.19142C12.9371 8.25209 12.9001 8.30717 12.8535 8.35349L11.3535 9.85349C11.2598 9.94727 11.1326 9.99997 11 9.99999ZM10.207 7.99999L11 8.79299L11.793 7.99999L11 7.20699L10.207 7.99999ZM8.00003 6.99999C7.86743 6.99997 7.74028 6.94727 7.64653 6.85349L6.14653 5.35349C6.09994 5.30717 6.06296 5.25209 6.03773 5.19142C6.0125 5.13075 5.99951 5.0657 5.99951 4.99999C5.99951 4.93429 6.0125 4.86923 6.03773 4.80857C6.06296 4.7479 6.09994 4.69282 6.14653 4.64649L7.64653 3.14649C7.69282 3.09984 7.74789 3.06281 7.80856 3.03755C7.86923 3.01228 7.93431 2.99927 8.00003 2.99927C8.06575 2.99927 8.13082 3.01228 8.1915 3.03755C8.25217 3.06281 8.30724 3.09984 8.35353 3.14649L9.85353 4.64649C9.90012 4.69282 9.9371 4.7479 9.96233 4.80857C9.98756 4.86923 10.0005 4.93429 10.0005 4.99999C10.0005 5.0657 9.98756 5.13075 9.96233 5.19142C9.9371 5.25209 9.90012 5.30717 9.85353 5.35349L8.35353 6.85349C8.25978 6.94727 8.13263 6.99997 8.00003 6.99999ZM7.20703 4.99999L8.00003 5.79299L8.79303 4.99999L8.00003 4.20699L7.20703 4.99999ZM5.00003 9.99999C4.86743 9.99997 4.74028 9.94727 4.64653 9.85349L3.14653 8.35349C3.09994 8.30717 3.06296 8.25209 3.03773 8.19142C3.0125 8.13075 2.99951 8.0657 2.99951 7.99999C2.99951 7.93429 3.0125 7.86923 3.03773 7.80857C3.06296 7.7479 3.09994 7.69282 3.14653 7.64649L4.64653 6.14649C4.69282 6.09984 4.74789 6.06281 4.80856 6.03755C4.86923 6.01228 4.93431 5.99927 5.00003 5.99927C5.06575 5.99927 5.13082 6.01228 5.1915 6.03755C5.25217 6.06281 5.30724 6.09984 5.35353 6.14649L6.85353 7.64649C6.90012 7.69282 6.9371 7.7479 6.96233 7.80857C6.98756 7.86923 7.00055 7.93429 7.00055 7.99999C7.00055 8.0657 6.98756 8.13075 6.96233 8.19142C6.9371 8.25209 6.90012 8.30717 6.85353 8.35349L5.35353 9.85349C5.25978 9.94727 5.13263 9.99997 5.00003 9.99999ZM4.20703 7.99999L5.00003 8.79299L5.79303 7.99999L5.00003 7.20699L4.20703 7.99999Z" fill="white" fill-opacity="0.8"/>
<path d="M8 0.5C7.91146 0.499955 7.8245 0.523421 7.748 0.568L1.748 4.068C1.67251 4.11205 1.60989 4.17512 1.56637 4.25092C1.52286 4.32672 1.49997 4.4126 1.5 4.5V11.5C1.49997 11.5874 1.52286 11.6733 1.56637 11.7491C1.60989 11.8249 1.67251 11.8879 1.748 11.932L7.748 15.432C7.82448 15.4766 7.91145 15.5001 8 15.5001C8.08855 15.5001 8.17552 15.4766 8.252 15.432L13.752 12.2235L13.248 11.36L8 14.421L2.5 11.213V4.7875L8 1.579L13.5 4.787V8.5H14.5V4.5C14.5 4.4126 14.4771 4.32672 14.4336 4.25092C14.3901 4.17512 14.3275 4.11205 14.252 4.068L8.252 0.568C8.1755 0.523421 8.08854 0.499955 8 0.5Z" fill="white" fill-opacity="0.8"/>
</svg>
