 <svg
                    xmlns="http://www.w3.org/2000/svg"
                    width="24"
                    height="24"
                    viewBox="0 0 24 24"
                    fill="none"
                  >
                    <g clip-path="url(#clip0_1372_3459)">
                      <circle cx="12" cy="12" r="12" fill="#FE047B" />
                      <path
                        fill-rule="evenodd"
                        clip-rule="evenodd"
                        d="M6.25514 6.06146C6.35804 6.08621 6.39041 6.14404 6.41979 6.19654C6.42673 6.20895 6.4335 6.22105 6.441 6.23235C6.65453 6.5534 6.86724 6.87498 7.07995 7.19655C7.43089 7.72712 7.78184 8.25767 8.13646 8.78586C8.43384 9.22878 8.77789 9.30708 9.2508 9.06238C9.52422 8.92086 9.56593 8.7463 9.37016 8.50771C8.3661 7.28377 7.3608 6.06065 6.35261 4.83997C5.82089 4.19581 5.28688 3.55372 4.75213 2.91075L4.75145 2.90993L4.51172 2.62167L4.58906 2.5625C6.34003 4.46197 8.08966 6.36214 9.83894 8.263C10.133 8.58275 10.1301 8.97755 9.83605 9.30872C9.59319 9.58197 9.27269 9.71044 8.9212 9.77855C8.88604 9.7854 8.85039 9.79135 8.81511 9.79724C8.78959 9.8015 8.76408 9.80575 8.73865 9.81036C8.22072 9.90172 8.09516 9.99552 8.05922 10.5143C8.01338 11.1726 7.81348 11.7737 7.51858 12.3561C7.3955 12.5992 7.30422 12.857 7.33891 13.1392C7.38228 13.4916 7.57144 13.7579 7.8461 13.9708C8.03527 14.1176 8.22774 14.2603 8.42475 14.3966C8.97242 14.7742 8.93153 15.5434 8.50033 15.917C7.9696 16.3771 7.33726 16.5924 6.67188 16.7572C6.48602 16.8033 6.3997 16.7808 6.33774 16.583C6.27815 16.3921 6.16506 16.2245 6.05219 16.0573C6.01174 15.9974 5.97132 15.9375 5.93339 15.8766C5.59967 15.3403 5.43529 14.7657 5.50881 14.1311C5.5435 13.8309 5.6641 13.5699 5.83468 13.3284C5.95652 13.1559 6.0858 12.9879 6.22375 12.828C6.84287 12.1102 7.28976 11.319 7.36824 10.3544C7.39756 9.99553 7.54501 9.67292 7.8015 9.40741C7.94399 9.25977 7.95638 9.10683 7.85478 8.92697C7.45129 8.21177 7.05081 7.49459 6.65041 6.77755L6.30966 6.1675C6.30178 6.15283 6.29414 6.13779 6.28454 6.11889C6.27654 6.10311 6.26716 6.08465 6.25514 6.06146ZM6.24523 14.1661C6.44843 14.0903 6.67931 14.2795 6.6789 14.5601C6.67642 14.6645 6.61736 14.7767 6.48106 14.8448C6.3902 14.8901 6.30759 14.8737 6.23408 14.813C6.15725 14.7498 6.16634 14.6735 6.21219 14.5952C6.25844 14.5157 6.29066 14.4467 6.18988 14.3696C6.07176 14.2787 6.13784 14.2065 6.24523 14.1661Z"
                        fill="white"
                      />
                      <path
                        fill-rule="evenodd"
                        clip-rule="evenodd"
                        d="M18.6011 14.0747C18.5598 13.2496 18.0601 12.8328 17.438 12.5049C17.0365 12.2935 16.6169 12.123 16.1974 11.9524C15.9321 11.8446 15.6668 11.7368 15.406 11.6186C14.9244 11.4004 14.4568 11.1582 14.0665 10.794C13.5969 10.3555 13.4453 9.81106 13.5023 9.15035C13.8377 9.42035 14.1917 9.58185 14.5836 9.66954C14.9058 9.74182 15.2317 9.79132 15.5575 9.84081C15.842 9.88404 16.1265 9.92725 16.4084 9.98562C17.0481 10.1182 17.645 10.3388 18.1497 10.7687C19.1409 11.6125 19.1942 13.0428 18.6738 13.9698C18.6677 13.9811 18.6603 13.9914 18.6425 14.0163C18.6325 14.0303 18.6193 14.0488 18.6011 14.0747ZM11.604 6.07914C11.0585 5.63342 10.4427 5.36343 9.725 5.35033C9.64612 5.35033 9.56703 5.34999 9.48815 5.34958L9.48856 5.36325L9.48897 5.37691C9.49774 5.37842 9.5065 5.37994 9.51526 5.38146C9.57233 5.39133 9.62924 5.40117 9.68637 5.41069C10.4001 5.54528 10.9903 5.89765 11.4913 6.40827C11.8799 6.8047 12.2223 7.24027 12.5457 7.68686C13.2351 8.63959 14.1404 9.19752 15.3378 9.2693C15.7262 9.29238 16.1136 9.32598 16.5012 9.35958L16.6739 9.37452C17.2071 9.42061 17.6573 9.61678 17.9534 10.0825C17.9624 10.0966 17.9743 10.1086 17.9862 10.1205C17.9919 10.1263 17.9976 10.132 18.003 10.138C17.9084 9.4047 17.5462 8.81374 17.051 8.25458L17.0297 8.33682C16.9482 8.65379 16.875 8.93844 16.6578 9.16081C16.5487 9.27256 16.4211 9.30478 16.2877 9.21424C16.1556 9.12451 16.1312 8.9989 16.2059 8.85697C16.3877 8.51234 16.3612 8.14977 16.3125 7.78189C16.2918 7.62446 16.2134 7.52658 16.0771 7.45113C15.8313 7.31491 15.5852 7.18195 15.3204 7.08285C14.451 6.75739 13.5564 6.6852 12.6436 6.83447C12.4677 6.86302 12.3504 6.83284 12.2364 6.69173C12.0522 6.46333 11.8324 6.26594 11.604 6.07914ZM16.8645 17.6769C16.8883 17.6052 16.9158 17.5344 16.9433 17.4635C17.0049 17.305 17.0667 17.1456 17.0896 16.9726C17.1441 16.5582 17.0441 16.1773 16.8632 15.8131C16.6814 15.4468 16.453 15.108 16.2246 14.7692C16.1677 14.6847 16.1108 14.6002 16.0545 14.5153L15.9918 14.4208C15.7076 13.9935 15.4231 13.5657 15.3231 13.0487C15.2669 12.7583 15.2698 12.4692 15.3429 12.1816C15.3631 12.1021 15.3854 12.0377 15.4924 12.1037C15.7417 12.2576 15.9989 12.3983 16.2562 12.539C16.6766 12.7689 17.0972 12.999 17.4836 13.2869C19.0242 14.435 18.5876 16.8865 16.9706 17.6675L16.96 17.6732C16.9346 17.6871 16.9079 17.7016 16.8645 17.6769ZM13.7108 18.6414C14.2089 19.123 15.0118 19.1263 15.5719 18.612L15.5008 18.6319C15.4244 18.6533 15.3736 18.6675 15.3236 18.6834C14.4641 18.9411 13.9607 18.6471 13.7913 17.7837C13.7508 17.5773 13.7182 17.3697 13.6868 17.1617C13.5683 16.3799 13.223 15.7628 12.4349 15.4602C12.1562 15.3529 11.8675 15.3015 11.5705 15.2905C10.5346 15.2518 9.66232 15.6682 8.85321 16.2526L8.80844 16.2847C8.69275 16.3673 8.57188 16.4535 8.46332 16.6087C9.38684 16.6046 10.0448 17.0496 10.6057 17.6797C10.6862 17.7702 10.7853 17.8489 10.8878 17.9154C11.3218 18.1972 11.8687 18.1409 12.1624 17.791C12.3523 17.5651 12.3965 17.1642 12.2578 16.9284C12.1281 16.7074 11.8237 16.5683 11.5688 16.6132C11.2566 16.6678 11.1224 16.8701 11.1897 17.1829C11.2702 16.822 11.3933 16.7057 11.6626 16.7351C11.9864 16.7702 12.1681 17.001 12.119 17.3142C12.0698 17.6275 11.7464 17.8347 11.4259 17.7584C11.0323 17.6646 10.7717 17.3501 10.8039 17.0071C10.8386 16.6348 11.1513 16.3615 11.5672 16.3444C12.0942 16.3228 12.4696 16.5842 12.7575 16.9888C12.9172 17.2133 13.0289 17.4632 13.1406 17.713C13.1844 17.8108 13.2281 17.9085 13.2746 18.0047C13.3882 18.2392 13.5212 18.4583 13.7108 18.6414ZM9.36354 6.00501C9.36898 5.87706 9.37185 5.80956 9.40645 5.7841C9.44507 5.75567 9.52323 5.77963 9.68863 5.83031L9.73491 5.84446C10.1896 5.98272 10.4858 6.27963 10.6196 6.7303C10.6716 6.90567 10.7237 7.08186 10.758 7.26091C10.8389 7.67895 10.9839 8.06884 11.2321 8.41959C11.2369 8.42633 11.2421 8.43334 11.2473 8.44032C11.2873 8.49413 11.3325 8.55491 11.2792 8.61984C11.2288 8.68143 11.1433 8.67572 11.0673 8.66266C10.6291 8.58721 10.3036 8.33068 10.0356 8.00359C9.58374 7.45137 9.39375 6.80127 9.35658 6.14423C9.35987 6.09147 9.36183 6.04524 9.36354 6.00501ZM14.2526 14.1018C15.1014 13.5451 15.2633 12.399 14.5649 11.6767L14.5931 11.7858L14.6169 11.8782C14.9102 12.9843 14.3947 13.8004 13.2577 14.0271C13.0712 14.0643 12.8844 14.1001 12.6976 14.1359C12.4063 14.1918 12.115 14.2477 11.8249 14.3085C11.4697 14.3828 11.0323 14.594 10.8365 14.7841C11.407 14.5856 11.978 14.5478 12.5437 14.5103C12.7533 14.4964 12.9622 14.4826 13.1701 14.4607C13.5542 14.4203 13.9235 14.3175 14.2526 14.1018ZM10.3423 11.1096C9.966 11.1092 9.83714 10.9758 9.84912 10.5994C9.85944 10.2813 10.149 9.94278 10.4435 9.90607C10.8503 9.85509 11.2447 10.0904 11.3344 10.4383C11.3802 10.6157 11.3269 10.7576 11.1786 10.8678C10.93 11.0521 10.6413 11.0966 10.3423 11.1096ZM10.6132 10.517C10.809 10.5166 11.0002 10.3845 10.9961 10.2527C10.9924 10.1243 10.8139 10.006 10.6215 10.004C10.4203 10.0015 10.2374 10.1279 10.2398 10.267C10.2415 10.3926 10.4282 10.5174 10.6132 10.517ZM16.5829 6.18951C16.5781 6.10263 16.5734 6.01517 16.5658 5.92673C16.4824 6.08195 16.4659 6.25064 16.4493 6.41952L16.4436 6.47732C16.4027 6.88924 16.401 6.88884 16.0008 6.74691C15.9751 6.73784 15.9495 6.72824 15.9239 6.71863C15.8596 6.69453 15.7952 6.67036 15.729 6.65433C15.7059 6.64866 15.6829 6.64033 15.6596 6.63189C15.5906 6.6069 15.5193 6.58104 15.435 6.62129C15.5316 6.67759 15.6333 6.7272 15.7346 6.77663C16.0333 6.92236 16.329 7.0666 16.4845 7.37662C16.6367 7.67987 16.6231 8.01176 16.609 8.35806C16.6048 8.46073 16.6005 8.56466 16.6005 8.66948C16.6734 8.59901 16.6884 8.53852 16.7028 8.48011L16.7067 8.46474C16.7631 8.24144 16.7721 8.01348 16.7812 7.78523L16.7831 7.73837C16.7836 7.72522 16.7836 7.7115 16.7835 7.69767C16.7831 7.62833 16.7828 7.55506 16.8599 7.52344C16.9232 7.49747 16.9722 7.53878 17.0186 7.57785C17.0312 7.58849 17.0436 7.59896 17.0561 7.60786C17.1676 7.68806 17.2771 7.77105 17.3932 7.85901C17.4371 7.89227 17.4819 7.92625 17.5282 7.96106C17.5333 7.86497 17.489 7.82284 17.4488 7.78454C17.4402 7.77634 17.4318 7.76832 17.4241 7.75999C17.2667 7.58951 17.1085 7.41985 16.9437 7.25671C16.7459 7.06135 16.6426 6.83011 16.6104 6.55522C16.5962 6.4337 16.5895 6.31217 16.5829 6.18951Z"
                        fill="white"
                      />
                    </g>
                    <defs>
                      <clipPath id="clip0_1372_3459">
                        <rect width="24" height="24" fill="white" />
                      </clipPath>
                    </defs>
                  </svg>