<svg width="12" height="11" viewBox="0 0 12 11" fill="none" xmlns="http://www.w3.org/2000/svg">
<path d="M5.99496 10.6785C4.33664 10.6785 2.67788 10.6798 1.01956 10.6776C0.539761 10.6772 0.147966 10.3801 0.0322596 9.92663C-0.0445805 9.62553 0.0206442 9.34676 0.177005 9.07693C1.09328 7.49902 2.00374 5.91799 2.916 4.33831C3.64419 3.07715 4.3706 1.81509 5.10102 0.555273C5.41285 0.0178396 6.02221 -0.161752 6.5181 0.159904C6.68339 0.267123 6.82635 0.438226 6.92687 0.610669C8.38415 3.11914 9.83249 5.63253 11.2831 8.14502C11.4698 8.46891 11.6597 8.79101 11.8433 9.11669C12.2646 9.86409 11.7941 10.6772 10.9373 10.6785C9.2897 10.6803 7.64211 10.6785 5.99496 10.6785ZM5.33333 5.1344C5.33333 5.52531 5.33199 5.91576 5.33422 6.30666C5.33467 6.4179 5.33735 6.53048 5.35433 6.63993C5.3923 6.88609 5.5844 7.07104 5.83145 7.11259C6.35012 7.19926 6.66508 6.93747 6.66642 6.41209C6.66865 5.56373 6.66731 4.71536 6.66597 3.86699C6.66597 3.79462 6.65927 3.7218 6.64765 3.65077C6.60968 3.42069 6.47789 3.25316 6.2572 3.1933C5.7488 3.05526 5.33288 3.28265 5.33333 3.82857C5.33422 4.2637 5.33378 4.69928 5.33333 5.1344ZM5.99272 9.32353C6.36308 9.32576 6.65569 9.04074 6.66061 8.67351C6.66508 8.31254 6.36888 8.00742 6.00791 8.00116C5.65141 7.99536 5.34584 8.29602 5.33958 8.65833C5.33288 9.02198 5.62684 9.32129 5.99272 9.32353Z" fill="white"/>
</svg>
