<svg width="139" height="42" viewBox="0 0 139 42" fill="none" xmlns="http://www.w3.org/2000/svg">
<path d="M9.5 41H1.5V27.6667V23.2222M9.5 1L1.5 9.88889" stroke="url(#paint0_linear_3104_1663)" stroke-width="2" stroke-linecap="round" stroke-linejoin="round"/>
<path d="M9.5 1H129.5" stroke="url(#paint1_linear_3104_1663)" stroke-width="2"/>
<path d="M24.696 19.582C25.284 19.7407 25.732 20.044 26.04 20.492C26.348 20.9307 26.502 21.4487 26.502 22.046C26.502 22.746 26.3293 23.32 25.984 23.768C25.6386 24.2067 25.2326 24.524 24.766 24.72C24.2993 24.9067 23.87 25 23.478 25H18.452V15.06H22.848C23.8466 15.06 24.6073 15.2793 25.13 15.718C25.662 16.1567 25.928 16.7913 25.928 17.622C25.928 18.0233 25.816 18.406 25.592 18.77C25.368 19.134 25.0693 19.4047 24.696 19.582ZM19.712 16.264V19.12H22.778C23.9913 19.12 24.598 18.644 24.598 17.692C24.598 16.74 23.9913 16.264 22.778 16.264H19.712ZM23.072 23.796C23.8093 23.796 24.3413 23.628 24.668 23.292C25.004 22.9467 25.172 22.508 25.172 21.976C25.172 21.5467 25.032 21.164 24.752 20.828C24.472 20.492 23.9446 20.324 23.17 20.324H19.712V23.796H23.072ZM33.4863 23.278C33.4863 23.6233 33.6683 23.796 34.0323 23.796V25C33.5936 25 33.2296 24.958 32.9403 24.874C32.6603 24.79 32.4596 24.5893 32.3383 24.272C32.1236 24.608 31.797 24.8507 31.3583 25C30.9196 25.14 30.4483 25.21 29.9443 25.21C29.1883 25.21 28.5536 25.0373 28.0403 24.692C27.527 24.3467 27.2703 23.782 27.2703 22.998V22.844C27.2703 22.2187 27.513 21.7147 27.9983 21.332C28.4836 20.94 29.1323 20.744 29.9443 20.744H32.2263C32.217 20.3987 32.175 20.1233 32.1003 19.918C32.0256 19.7033 31.881 19.54 31.6663 19.428C31.461 19.316 31.1576 19.26 30.7563 19.26H29.9163C29.571 19.26 29.2816 19.344 29.0483 19.512C28.8243 19.6707 28.7123 19.8667 28.7123 20.1H27.4523C27.4523 19.7547 27.5503 19.428 27.7463 19.12C27.9516 18.8027 28.2316 18.546 28.5863 18.35C28.9503 18.154 29.3516 18.056 29.7903 18.056H31.1623C31.853 18.056 32.413 18.2753 32.8423 18.714C33.2716 19.1527 33.4863 19.8573 33.4863 20.828V23.278ZM30.3503 24.006C30.7703 24.006 31.1856 23.922 31.5963 23.754C32.0163 23.586 32.2263 23.306 32.2263 22.914V21.808H30.3503C29.6503 21.808 29.1696 21.9247 28.9083 22.158C28.6563 22.382 28.5303 22.6433 28.5303 22.942C28.5303 23.334 28.6656 23.6093 28.9363 23.768C29.2163 23.9267 29.6876 24.006 30.3503 24.006ZM35.019 21.108C35.019 20.4453 35.1497 19.8853 35.411 19.428C35.6723 18.9613 36.0223 18.616 36.461 18.392C36.8997 18.168 37.3803 18.056 37.903 18.056H38.715C39.3963 18.056 39.9797 18.2613 40.465 18.672C40.9503 19.0733 41.235 19.666 41.319 20.45H40.003C39.919 20.058 39.7417 19.764 39.471 19.568C39.2097 19.3627 38.8223 19.26 38.309 19.26C37.581 19.26 37.0583 19.4373 36.741 19.792C36.433 20.1467 36.279 20.66 36.279 21.332V21.948C36.279 22.62 36.433 23.1333 36.741 23.488C37.0583 23.8427 37.581 24.02 38.309 24.02C38.869 24.02 39.2843 23.9033 39.555 23.67C39.8257 23.4367 39.989 23.1007 40.045 22.662H41.347C41.291 23.502 41.0157 24.1413 40.521 24.58C40.0263 25.0093 39.4243 25.224 38.715 25.224H37.903C37.3803 25.224 36.8997 25.112 36.461 24.888C36.0223 24.664 35.6723 24.3233 35.411 23.866C35.1497 23.3993 35.019 22.8347 35.019 22.172V21.108ZM47.7654 25L45.1614 21.668H44.1534V25H42.8934V14.836H44.1534V20.408H44.8954L47.0654 18.07H48.8014L46.0714 20.87L49.3894 25H47.7654ZM55.5594 19.484V22.004C55.5594 22.6013 55.6714 23.0493 55.8954 23.348C56.1194 23.6467 56.4974 23.796 57.0294 23.796H57.4494V25H56.6234C55.9327 25 55.3727 24.7807 54.9434 24.342C54.5141 23.9033 54.2994 23.1987 54.2994 22.228V19.484H53.3054V18.28H54.2994V14.836H55.5594V18.28H57.4494V19.484H55.5594ZM62.3416 18.056C62.883 18.056 63.3776 18.168 63.8256 18.392C64.2736 18.616 64.6283 18.9567 64.8896 19.414C65.1603 19.8713 65.2956 20.436 65.2956 21.108V22.172C65.2956 22.844 65.1603 23.4087 64.8896 23.866C64.6283 24.3233 64.2736 24.664 63.8256 24.888C63.3776 25.112 62.883 25.224 62.3416 25.224H61.5296C60.9883 25.224 60.4936 25.112 60.0456 24.888C59.5976 24.664 59.2383 24.3233 58.9676 23.866C58.7063 23.4087 58.5756 22.844 58.5756 22.172V21.108C58.5756 20.436 58.7063 19.8713 58.9676 19.414C59.2383 18.9567 59.5976 18.616 60.0456 18.392C60.4936 18.168 60.9883 18.056 61.5296 18.056H62.3416ZM64.0356 21.332C64.0356 20.66 63.8723 20.1467 63.5456 19.792C63.2283 19.4373 62.6916 19.26 61.9356 19.26C61.1796 19.26 60.6383 19.4373 60.3116 19.792C59.9943 20.1467 59.8356 20.66 59.8356 21.332V21.948C59.8356 22.62 59.9943 23.1333 60.3116 23.488C60.6383 23.8427 61.1796 24.02 61.9356 24.02C62.6916 24.02 63.2283 23.8427 63.5456 23.488C63.8723 23.1333 64.0356 22.62 64.0356 21.948V21.332ZM80.5076 15.06H81.8376L79.9616 25H77.3296L75.9016 16.264H75.4956L74.0676 25H71.4356L69.5596 15.06H70.8896L72.4716 23.796H73.0036L74.4316 15.06H76.9656L78.3936 23.796H78.9256L80.5076 15.06ZM85.7446 18.056C86.2953 18.056 86.8039 18.168 87.2706 18.392C87.7466 18.616 88.1246 18.9613 88.4046 19.428C88.6939 19.8853 88.8386 20.4453 88.8386 21.108V21.878H83.3366V21.948C83.3366 22.62 83.4999 23.1333 83.8266 23.488C84.1626 23.8427 84.7133 24.02 85.4786 24.02C86.5613 24.02 87.2239 23.6233 87.4666 22.83H88.7826C88.6613 23.614 88.3299 24.2113 87.7886 24.622C87.2566 25.0233 86.6219 25.224 85.8846 25.224H85.0726C84.1953 25.224 83.4813 24.9673 82.9306 24.454C82.3893 23.9407 82.1186 23.18 82.1186 22.172V21.108C82.1186 20.4453 82.2586 19.8853 82.5386 19.428C82.8279 18.9613 83.2059 18.616 83.6726 18.392C84.1486 18.168 84.6619 18.056 85.2126 18.056H85.7446ZM85.4786 19.26C84.7693 19.26 84.2513 19.3953 83.9246 19.666C83.6073 19.9273 83.4206 20.3193 83.3646 20.842H87.5926C87.5366 20.3193 87.3453 19.9273 87.0186 19.666C86.7013 19.3953 86.1879 19.26 85.4786 19.26ZM94.0546 18.056C94.9132 18.056 95.6179 18.3173 96.1686 18.84C96.7286 19.3533 97.0086 20.1093 97.0086 21.108V22.172C97.0086 23.1707 96.7286 23.9313 96.1686 24.454C95.6179 24.9673 94.9132 25.224 94.0546 25.224C93.6159 25.224 93.1772 25.0887 92.7386 24.818C92.3092 24.5473 91.9872 24.2067 91.7726 23.796V25H90.5126V14.836H91.7726V19.484C91.9872 19.0733 92.3092 18.7327 92.7386 18.462C93.1772 18.1913 93.6159 18.056 94.0546 18.056ZM95.7486 21.332C95.7486 20.6787 95.5852 20.17 95.2586 19.806C94.9412 19.442 94.4512 19.26 93.7886 19.26C93.4712 19.26 93.1586 19.33 92.8506 19.47C92.5426 19.61 92.2859 19.848 92.0806 20.184C91.8752 20.52 91.7726 20.954 91.7726 21.486V21.794C91.7726 22.326 91.8752 22.76 92.0806 23.096C92.2859 23.432 92.5426 23.67 92.8506 23.81C93.1586 23.95 93.4712 24.02 93.7886 24.02C94.4512 24.02 94.9412 23.838 95.2586 23.474C95.5852 23.11 95.7486 22.6013 95.7486 21.948V21.332ZM104.456 22.97C104.456 23.67 104.195 24.2207 103.672 24.622C103.15 25.0233 102.366 25.224 101.32 25.224C100.359 25.224 99.6124 25.042 99.0804 24.678C98.5577 24.3047 98.217 23.768 98.0584 23.068H99.4584C99.6077 23.7027 100.233 24.02 101.334 24.02C102.576 24.02 103.196 23.6653 103.196 22.956C103.196 22.7507 103.131 22.592 103 22.48C102.879 22.368 102.655 22.2793 102.328 22.214C102.011 22.1393 101.502 22.06 100.802 21.976C99.8877 21.864 99.2484 21.6633 98.8844 21.374C98.5204 21.0847 98.3384 20.674 98.3384 20.142C98.3384 19.498 98.595 18.9893 99.1084 18.616C99.6217 18.2427 100.336 18.056 101.25 18.056C101.988 18.056 102.618 18.224 103.14 18.56C103.672 18.896 104.013 19.3907 104.162 20.044H102.762C102.688 19.7827 102.52 19.582 102.258 19.442C102.006 19.2927 101.624 19.218 101.11 19.218C100.662 19.218 100.298 19.2973 100.018 19.456C99.7384 19.6053 99.5984 19.7967 99.5984 20.03C99.5984 20.3007 99.7197 20.492 99.9624 20.604C100.205 20.716 100.625 20.8 101.222 20.856C102.062 20.94 102.716 21.0707 103.182 21.248C103.649 21.416 103.976 21.64 104.162 21.92C104.358 22.1907 104.456 22.5407 104.456 22.97ZM106.754 16.516C106.521 16.516 106.32 16.4367 106.152 16.278C105.993 16.1193 105.914 15.9233 105.914 15.69C105.914 15.4567 105.993 15.256 106.152 15.088C106.32 14.92 106.521 14.836 106.754 14.836C106.987 14.836 107.183 14.92 107.342 15.088C107.51 15.256 107.594 15.4567 107.594 15.69C107.594 15.9233 107.51 16.1193 107.342 16.278C107.183 16.4367 106.987 16.516 106.754 16.516ZM106.124 25V18.28H107.384V25H106.124ZM110.958 19.484V22.004C110.958 22.6013 111.07 23.0493 111.294 23.348C111.518 23.6467 111.896 23.796 112.428 23.796H112.848V25H112.022C111.331 25 110.771 24.7807 110.342 24.342C109.912 23.9033 109.698 23.1987 109.698 22.228V19.484H108.704V18.28H109.698V14.836H110.958V18.28H112.848V19.484H110.958ZM117.6 18.056C118.151 18.056 118.659 18.168 119.126 18.392C119.602 18.616 119.98 18.9613 120.26 19.428C120.549 19.8853 120.694 20.4453 120.694 21.108V21.878H115.192V21.948C115.192 22.62 115.355 23.1333 115.682 23.488C116.018 23.8427 116.569 24.02 117.334 24.02C118.417 24.02 119.079 23.6233 119.322 22.83H120.638C120.517 23.614 120.185 24.2113 119.644 24.622C119.112 25.0233 118.477 25.224 117.74 25.224H116.928C116.051 25.224 115.337 24.9673 114.786 24.454C114.245 23.9407 113.974 23.18 113.974 22.172V21.108C113.974 20.4453 114.114 19.8853 114.394 19.428C114.683 18.9613 115.061 18.616 115.528 18.392C116.004 18.168 116.517 18.056 117.068 18.056H117.6ZM117.334 19.26C116.625 19.26 116.107 19.3953 115.78 19.666C115.463 19.9273 115.276 20.3193 115.22 20.842H119.448C119.392 20.3193 119.201 19.9273 118.874 19.666C118.557 19.3953 118.043 19.26 117.334 19.26Z" fill="#EFEFE5"/>
<path d="M9.5 41H129.5" stroke="url(#paint2_linear_3104_1663)" stroke-width="2"/>
<path d="M129.5 0.999998H137.5V32.1111L129.5 41" stroke="url(#paint3_linear_3104_1663)" stroke-width="2" stroke-linecap="round" stroke-linejoin="round"/>
<defs>
<linearGradient id="paint0_linear_3104_1663" x1="5.5" y1="1" x2="5.5" y2="45.4444" gradientUnits="userSpaceOnUse">
<stop stop-color="#7D4CD4"/>
<stop offset="1" stop-color="#6253DA"/>
</linearGradient>
<linearGradient id="paint1_linear_3104_1663" x1="13.5741" y1="1" x2="129.5" y2="1" gradientUnits="userSpaceOnUse">
<stop stop-color="#794BCA"/>
<stop offset="0.501736" stop-color="#C34C52"/>
<stop offset="1" stop-color="#E69597"/>
</linearGradient>
<linearGradient id="paint2_linear_3104_1663" x1="129.5" y1="41.0002" x2="9.5" y2="41.0001" gradientUnits="userSpaceOnUse">
<stop stop-color="#C7AAC6"/>
<stop offset="0.475694" stop-color="#4161BF"/>
<stop offset="1" stop-color="#6253DA"/>
</linearGradient>
<linearGradient id="paint3_linear_3104_1663" x1="133.5" y1="41" x2="133.5" y2="-3.44444" gradientUnits="userSpaceOnUse">
<stop stop-color="#C7AAC6"/>
<stop offset="1" stop-color="#E69597"/>
</linearGradient>
</defs>
</svg>
