<svg width="66" height="42" viewBox="0 0 66 42" fill="none" xmlns="http://www.w3.org/2000/svg">
<path d="M9 41H1V25V21M9 1L1 9" stroke="#353539" stroke-linecap="round" stroke-linejoin="round"/>
<path d="M9 1H57" stroke="#353539"/>
<path d="M24.0573 19.582C24.6453 19.7407 25.0933 20.044 25.4013 20.492C25.7093 20.9307 25.8633 21.4487 25.8633 22.046C25.8633 22.746 25.6906 23.32 25.3453 23.768C24.9999 24.2067 24.5939 24.524 24.1273 24.72C23.6606 24.9067 23.2313 25 22.8393 25H17.8133V15.06H22.2093C23.2079 15.06 23.9686 15.2793 24.4913 15.718C25.0233 16.1567 25.2893 16.7913 25.2893 17.622C25.2893 18.0233 25.1773 18.406 24.9533 18.77C24.7293 19.134 24.4306 19.4047 24.0573 19.582ZM19.0733 16.264V19.12H22.1393C23.3526 19.12 23.9593 18.644 23.9593 17.692C23.9593 16.74 23.3526 16.264 22.1393 16.264H19.0733ZM22.4333 23.796C23.1706 23.796 23.7026 23.628 24.0293 23.292C24.3653 22.9467 24.5333 22.508 24.5333 21.976C24.5333 21.5467 24.3933 21.164 24.1133 20.828C23.8333 20.492 23.3059 20.324 22.5313 20.324H19.0733V23.796H22.4333ZM32.8476 23.278C32.8476 23.6233 33.0296 23.796 33.3936 23.796V25C32.955 25 32.591 24.958 32.3016 24.874C32.0216 24.79 31.821 24.5893 31.6996 24.272C31.485 24.608 31.1583 24.8507 30.7196 25C30.281 25.14 29.8096 25.21 29.3056 25.21C28.5496 25.21 27.915 25.0373 27.4016 24.692C26.8883 24.3467 26.6316 23.782 26.6316 22.998V22.844C26.6316 22.2187 26.8743 21.7147 27.3596 21.332C27.845 20.94 28.4936 20.744 29.3056 20.744H31.5876C31.5783 20.3987 31.5363 20.1233 31.4616 19.918C31.387 19.7033 31.2423 19.54 31.0276 19.428C30.8223 19.316 30.519 19.26 30.1176 19.26H29.2776C28.9323 19.26 28.643 19.344 28.4096 19.512C28.1856 19.6707 28.0736 19.8667 28.0736 20.1H26.8136C26.8136 19.7547 26.9116 19.428 27.1076 19.12C27.313 18.8027 27.593 18.546 27.9476 18.35C28.3116 18.154 28.713 18.056 29.1516 18.056H30.5236C31.2143 18.056 31.7743 18.2753 32.2036 18.714C32.633 19.1527 32.8476 19.8573 32.8476 20.828V23.278ZM29.7116 24.006C30.1316 24.006 30.547 23.922 30.9576 23.754C31.3776 23.586 31.5876 23.306 31.5876 22.914V21.808H29.7116C29.0116 21.808 28.531 21.9247 28.2696 22.158C28.0176 22.382 27.8916 22.6433 27.8916 22.942C27.8916 23.334 28.027 23.6093 28.2976 23.768C28.5776 23.9267 29.049 24.006 29.7116 24.006ZM34.3803 21.108C34.3803 20.4453 34.511 19.8853 34.7723 19.428C35.0336 18.9613 35.3836 18.616 35.8223 18.392C36.261 18.168 36.7416 18.056 37.2643 18.056H38.0763C38.7576 18.056 39.341 18.2613 39.8263 18.672C40.3116 19.0733 40.5963 19.666 40.6803 20.45H39.3643C39.2803 20.058 39.103 19.764 38.8323 19.568C38.571 19.3627 38.1836 19.26 37.6703 19.26C36.9423 19.26 36.4196 19.4373 36.1023 19.792C35.7943 20.1467 35.6403 20.66 35.6403 21.332V21.948C35.6403 22.62 35.7943 23.1333 36.1023 23.488C36.4196 23.8427 36.9423 24.02 37.6703 24.02C38.2303 24.02 38.6456 23.9033 38.9163 23.67C39.187 23.4367 39.3503 23.1007 39.4063 22.662H40.7083C40.6523 23.502 40.377 24.1413 39.8823 24.58C39.3876 25.0093 38.7856 25.224 38.0763 25.224H37.2643C36.7416 25.224 36.261 25.112 35.8223 24.888C35.3836 24.664 35.0336 24.3233 34.7723 23.866C34.511 23.3993 34.3803 22.8347 34.3803 22.172V21.108ZM47.1268 25L44.5228 21.668H43.5148V25H42.2548V14.836H43.5148V20.408H44.2568L46.4268 18.07H48.1628L45.4328 20.87L48.7508 25H47.1268Z" fill="#EFEFE5"/>
<path d="M9 41H57" stroke="#353539"/>
<path d="M57 1H65V33L57 41" stroke="#353539" stroke-linecap="round" stroke-linejoin="round"/>
</svg>
