<svg width="66" height="42" viewBox="0 0 66 42" fill="none" xmlns="http://www.w3.org/2000/svg">
<path d="M9 41H1V27.6667V23.2222M9 1L1 9.88889" stroke="url(#paint0_linear_13_1452)" stroke-width="2" stroke-linecap="round" stroke-linejoin="round"/>
<path d="M9 1H57" stroke="url(#paint1_linear_13_1452)" stroke-width="2"/>
<path d="M25.592 15.06H26.852V25H24.402L20.286 16.264H19.852V25H18.592V15.06H21.042L25.158 23.796H25.592V15.06ZM32.2915 18.056C32.8421 18.056 33.3508 18.168 33.8175 18.392C34.2935 18.616 34.6715 18.9613 34.9515 19.428C35.2408 19.8853 35.3855 20.4453 35.3855 21.108V21.878H29.8835V21.948C29.8835 22.62 30.0468 23.1333 30.3735 23.488C30.7095 23.8427 31.2601 24.02 32.0255 24.02C33.1081 24.02 33.7708 23.6233 34.0135 22.83H35.3295C35.2081 23.614 34.8768 24.2113 34.3355 24.622C33.8035 25.0233 33.1688 25.224 32.4315 25.224H31.6195C30.7421 25.224 30.0281 24.9673 29.4775 24.454C28.9361 23.9407 28.6655 23.18 28.6655 22.172V21.108C28.6655 20.4453 28.8055 19.8853 29.0855 19.428C29.3748 18.9613 29.7528 18.616 30.2195 18.392C30.6955 18.168 31.2088 18.056 31.7595 18.056H32.2915ZM32.0255 19.26C31.3161 19.26 30.7981 19.3953 30.4715 19.666C30.1541 19.9273 29.9675 20.3193 29.9115 20.842H34.1395C34.0835 20.3193 33.8921 19.9273 33.5655 19.666C33.2481 19.3953 32.7348 19.26 32.0255 19.26ZM40.9951 21.472L43.4031 25H41.9051L40.0431 22.074H39.3711L37.5091 25H36.0111L38.4191 21.472L36.1931 18.28H37.6631L39.3711 20.87H40.0431L41.7511 18.28H43.2211L40.9951 21.472ZM46.1434 19.484V22.004C46.1434 22.6013 46.2554 23.0493 46.4794 23.348C46.7034 23.6467 47.0814 23.796 47.6134 23.796H48.0334V25H47.2074C46.5167 25 45.9567 24.7807 45.5274 24.342C45.098 23.9033 44.8834 23.1987 44.8834 22.228V19.484H43.8894V18.28H44.8834V14.836H46.1434V18.28H48.0334V19.484H46.1434Z" fill="#EFEFE5"/>
<path d="M9 41H57" stroke="url(#paint2_linear_13_1452)" stroke-width="2"/>
<path d="M57 0.999998H65V32.1111L57 41" stroke="url(#paint3_linear_13_1452)" stroke-width="2" stroke-linecap="round" stroke-linejoin="round"/>
<defs>
<linearGradient id="paint0_linear_13_1452" x1="5" y1="1" x2="5" y2="45.4444" gradientUnits="userSpaceOnUse">
<stop stop-color="#7D4CD4"/>
<stop offset="1" stop-color="#6253DA"/>
</linearGradient>
<linearGradient id="paint1_linear_13_1452" x1="10.6296" y1="1" x2="57" y2="1" gradientUnits="userSpaceOnUse">
<stop stop-color="#794BCA"/>
<stop offset="0.501736" stop-color="#C34C52"/>
<stop offset="1" stop-color="#E69597"/>
</linearGradient>
<linearGradient id="paint2_linear_13_1452" x1="57" y1="41.0002" x2="9" y2="41.0002" gradientUnits="userSpaceOnUse">
<stop stop-color="#C7AAC6"/>
<stop offset="0.475694" stop-color="#4161BF"/>
<stop offset="1" stop-color="#6253DA"/>
</linearGradient>
<linearGradient id="paint3_linear_13_1452" x1="61" y1="41" x2="61" y2="-3.44444" gradientUnits="userSpaceOnUse">
<stop stop-color="#C7AAC6"/>
<stop offset="1" stop-color="#E69597"/>
</linearGradient>
</defs>
</svg>
