<svg width="81" height="42" viewBox="0 0 81 42" fill="none" xmlns="http://www.w3.org/2000/svg">
<path d="M9 41H1V27.6667V23.2222M9 1L1 9.88889" stroke="url(#paint0_linear_13_1880)" stroke-width="2" stroke-linecap="round" stroke-linejoin="round"/>
<path d="M9 1H72" stroke="url(#paint1_linear_13_1880)" stroke-width="2"/>
<path d="M19.4222 22.06C19.5529 22.6853 19.8749 23.1613 20.3882 23.488C20.9016 23.8147 21.5829 23.978 22.4322 23.978C23.3002 23.978 23.9582 23.824 24.4062 23.516C24.8542 23.208 25.0782 22.7833 25.0782 22.242C25.0782 21.85 24.9616 21.542 24.7282 21.318C24.4949 21.0847 24.1682 20.9027 23.7482 20.772C23.3282 20.6413 22.7216 20.5013 21.9282 20.352C21.1816 20.212 20.5656 20.0533 20.0802 19.876C19.6042 19.6987 19.2122 19.4373 18.9042 19.092C18.5962 18.7467 18.4422 18.28 18.4422 17.692C18.4422 16.8053 18.7549 16.11 19.3802 15.606C20.0149 15.0927 20.8922 14.836 22.0122 14.836C23.1789 14.836 24.0749 15.1067 24.7002 15.648C25.3349 16.18 25.7129 16.9267 25.8342 17.888H24.5742C24.4716 17.3093 24.2196 16.8567 23.8182 16.53C23.4169 16.2033 22.8149 16.04 22.0122 16.04C21.3216 16.04 20.7616 16.1847 20.3322 16.474C19.9122 16.7633 19.7022 17.1553 19.7022 17.65C19.7022 17.9767 19.8002 18.2333 19.9962 18.42C20.2016 18.6067 20.4676 18.7467 20.7942 18.84C21.1209 18.9333 21.5549 19.0267 22.0962 19.12C23.0762 19.288 23.8462 19.4607 24.4062 19.638C24.9662 19.8153 25.4282 20.1047 25.7922 20.506C26.1562 20.9073 26.3382 21.4767 26.3382 22.214C26.3382 23.138 26.0162 23.8707 25.3722 24.412C24.7376 24.9533 23.7156 25.224 22.3062 25.224C21.1396 25.224 20.1689 24.958 19.3942 24.426C18.6196 23.894 18.1622 23.1053 18.0222 22.06H19.4222ZM33.7354 18.28V25H32.5594V23.894C32.326 24.2767 31.9807 24.594 31.5234 24.846C31.0754 25.098 30.632 25.224 30.1934 25.224C29.764 25.224 29.358 25.1353 28.9754 24.958C28.5927 24.7713 28.2754 24.4727 28.0234 24.062C27.7807 23.642 27.6594 23.1053 27.6594 22.452V18.28H28.9194V22.228C28.9194 22.8533 29.05 23.3107 29.3114 23.6C29.582 23.88 30.0114 24.02 30.5994 24.02C30.87 24.02 31.15 23.95 31.4394 23.81C31.7287 23.6607 31.9714 23.4227 32.1674 23.096C32.3727 22.76 32.4754 22.326 32.4754 21.794V18.28H33.7354ZM39.4472 18.056C40.3058 18.056 41.0105 18.3173 41.5612 18.84C42.1212 19.3533 42.4012 20.1093 42.4012 21.108V22.172C42.4012 23.1707 42.1212 23.9313 41.5612 24.454C41.0105 24.9673 40.3058 25.224 39.4472 25.224C39.0085 25.224 38.5698 25.0887 38.1312 24.818C37.7018 24.5473 37.3798 24.2067 37.1652 23.796V25H35.9052V14.836H37.1652V19.484C37.3798 19.0733 37.7018 18.7327 38.1312 18.462C38.5698 18.1913 39.0085 18.056 39.4472 18.056ZM41.1412 21.332C41.1412 20.6787 40.9778 20.17 40.6512 19.806C40.3338 19.442 39.8438 19.26 39.1812 19.26C38.8638 19.26 38.5512 19.33 38.2432 19.47C37.9352 19.61 37.6785 19.848 37.4732 20.184C37.2678 20.52 37.1652 20.954 37.1652 21.486V21.794C37.1652 22.326 37.2678 22.76 37.4732 23.096C37.6785 23.432 37.9352 23.67 38.2432 23.81C38.5512 23.95 38.8638 24.02 39.1812 24.02C39.8438 24.02 40.3338 23.838 40.6512 23.474C40.9778 23.11 41.1412 22.6013 41.1412 21.948V21.332ZM51.7669 18.056C52.1029 18.056 52.4529 18.1493 52.8169 18.336C53.1809 18.5227 53.4889 18.826 53.7409 19.246C54.0023 19.6567 54.1329 20.184 54.1329 20.828V25H52.8729V21.052C52.8729 20.4453 52.7376 19.9973 52.4669 19.708C52.1963 19.4093 51.8276 19.26 51.3609 19.26C50.9316 19.26 50.5536 19.4373 50.2269 19.792C49.9003 20.1373 49.7369 20.702 49.7369 21.486V25H48.4769V21.052C48.4769 20.4453 48.3416 19.9973 48.0709 19.708C47.8003 19.4093 47.4316 19.26 46.9649 19.26C46.5356 19.26 46.1576 19.4373 45.8309 19.792C45.5043 20.1373 45.3409 20.702 45.3409 21.486V25H44.0809V18.28H45.3409V19.232C45.5649 18.8773 45.8589 18.5927 46.2229 18.378C46.5963 18.1633 46.9789 18.056 47.3709 18.056C47.7816 18.056 48.1923 18.1867 48.6029 18.448C49.0229 18.7 49.3309 19.092 49.5269 19.624C49.7229 19.1667 50.0263 18.7933 50.4369 18.504C50.8569 18.2053 51.3003 18.056 51.7669 18.056ZM56.7812 16.516C56.5479 16.516 56.3472 16.4367 56.1792 16.278C56.0206 16.1193 55.9412 15.9233 55.9412 15.69C55.9412 15.4567 56.0206 15.256 56.1792 15.088C56.3472 14.92 56.5479 14.836 56.7812 14.836C57.0146 14.836 57.2106 14.92 57.3692 15.088C57.5372 15.256 57.6212 15.4567 57.6212 15.69C57.6212 15.9233 57.5372 16.1193 57.3692 16.278C57.2106 16.4367 57.0146 16.516 56.7812 16.516ZM56.1512 25V18.28H57.4112V25H56.1512ZM60.9852 19.484V22.004C60.9852 22.6013 61.0972 23.0493 61.3212 23.348C61.5452 23.6467 61.9232 23.796 62.4552 23.796H62.8752V25H62.0492C61.3585 25 60.7985 24.7807 60.3692 24.342C59.9398 23.9033 59.7252 23.1987 59.7252 22.228V19.484H58.7312V18.28H59.7252V14.836H60.9852V18.28H62.8752V19.484H60.9852Z" fill="#EFEFE5"/>
<path d="M9 41H72" stroke="url(#paint2_linear_13_1880)" stroke-width="2"/>
<path d="M72 0.999998H80V32.1111L72 41" stroke="url(#paint3_linear_13_1880)" stroke-width="2" stroke-linecap="round" stroke-linejoin="round"/>
<defs>
<linearGradient id="paint0_linear_13_1880" x1="5" y1="1" x2="5" y2="45.4444" gradientUnits="userSpaceOnUse">
<stop stop-color="#7D4CD4"/>
<stop offset="1" stop-color="#6253DA"/>
</linearGradient>
<linearGradient id="paint1_linear_13_1880" x1="11.1389" y1="1" x2="72" y2="1" gradientUnits="userSpaceOnUse">
<stop stop-color="#794BCA"/>
<stop offset="0.501736" stop-color="#C34C52"/>
<stop offset="1" stop-color="#E69597"/>
</linearGradient>
<linearGradient id="paint2_linear_13_1880" x1="72" y1="41.0002" x2="9" y2="41.0002" gradientUnits="userSpaceOnUse">
<stop stop-color="#C7AAC6"/>
<stop offset="0.475694" stop-color="#4161BF"/>
<stop offset="1" stop-color="#6253DA"/>
</linearGradient>
<linearGradient id="paint3_linear_13_1880" x1="76" y1="41" x2="76" y2="-3.44444" gradientUnits="userSpaceOnUse">
<stop stop-color="#C7AAC6"/>
<stop offset="1" stop-color="#E69597"/>
</linearGradient>
</defs>
</svg>
