<svg width="192" height="60" viewBox="0 0 192 60" fill="none" xmlns="http://www.w3.org/2000/svg">
<rect width="0.97" height="45" transform="matrix(-1 0 0 1 0.970215 0)" fill="url(#paint0_linear_3104_1639)"/>
<path d="M0.446054 47.3708C0.16102 47.0857 4.95911e-05 46.6929 4.95911e-05 46.2826V45H0.974609V46.2826C0.974609 46.4194 1.02823 46.5503 1.12323 46.6453L13.5 59H16V60H13.0698L0.446054 47.3708Z" fill="url(#paint1_linear_3104_1639)"/>
<path d="M176 0.999994L128.5 1C128.224 1 128 0.776144 128 0.500003C128 0.223862 128.224 5.98734e-06 128.5 5.95273e-06L176 0V0.999994Z" fill="url(#paint2_linear_3104_1639)"/>
<path opacity="0.9" d="M38.4 13.6V17.04H29.2V42H25.6V17.04H16.4V13.6H38.4ZM52.1325 22.16C53.3592 22.16 54.5192 22.4267 55.6125 22.96C56.7058 23.4667 57.5992 24.32 58.2925 25.52C59.0125 26.6933 59.3725 28.2133 59.3725 30.08V42H55.7725V30.72C55.7725 28.9333 55.3858 27.64 54.6125 26.84C53.8658 26.0133 52.6525 25.6 50.9725 25.6C50.1992 25.6 49.3992 25.8133 48.5725 26.24C47.7458 26.64 47.0392 27.32 46.4525 28.28C45.8925 29.2133 45.6125 30.44 45.6125 31.96V42H42.0125V12.96H45.6125V25.6C46.3325 24.5867 47.3058 23.76 48.5325 23.12C49.7592 22.48 50.9592 22.16 52.1325 22.16ZM81.9319 37.08C81.9319 38.0667 82.4519 38.56 83.4919 38.56V42C82.2385 42 81.1985 41.88 80.3719 41.64C79.5719 41.4 78.9985 40.8267 78.6519 39.92C78.0385 40.88 77.1052 41.5733 75.8519 42C74.5985 42.4 73.2519 42.6 71.8119 42.6C69.6519 42.6 67.8385 42.1067 66.3719 41.12C64.9052 40.1333 64.1719 38.52 64.1719 36.28V35.84C64.1719 34.0533 64.8652 32.6133 66.2519 31.52C67.6385 30.4 69.4919 29.84 71.8119 29.84H78.3319C78.3052 28.8533 78.1852 28.0667 77.9719 27.48C77.7585 26.8667 77.3452 26.4 76.7319 26.08C76.1452 25.76 75.2785 25.6 74.1319 25.6H71.7319C70.7452 25.6 69.9185 25.84 69.2519 26.32C68.6119 26.7733 68.2919 27.3333 68.2919 28H64.6919C64.6919 27.0133 64.9719 26.08 65.5319 25.2C66.1185 24.2933 66.9185 23.56 67.9319 23C68.9719 22.44 70.1185 22.16 71.3719 22.16H75.2919C77.2652 22.16 78.8652 22.7867 80.0919 24.04C81.3185 25.2933 81.9319 27.3067 81.9319 30.08V37.08ZM72.9719 39.16C74.1719 39.16 75.3585 38.92 76.5319 38.44C77.7319 37.96 78.3319 37.16 78.3319 36.04V32.88H72.9719C70.9719 32.88 69.5985 33.2133 68.8519 33.88C68.1319 34.52 67.7719 35.2667 67.7719 36.12C67.7719 37.24 68.1585 38.0267 68.9319 38.48C69.7319 38.9333 71.0785 39.16 72.9719 39.16ZM92.3416 26.24V33.44C92.3416 35.1467 92.6616 36.4267 93.3016 37.28C93.9416 38.1333 95.0216 38.56 96.5416 38.56H97.7416V42H95.3816C93.4082 42 91.8082 41.3733 90.5816 40.12C89.3549 38.8667 88.7416 36.8533 88.7416 34.08V26.24H85.9016V22.8H88.7416V12.96H92.3416V22.8H97.7416V26.24H92.3416ZM105.955 15.4C105.955 15.56 105.941 15.68 105.915 15.76C105.835 16.5067 105.515 17.8933 104.955 19.92C104.555 21.4667 104.328 22.4267 104.275 22.8H102.835C102.781 22.4267 102.555 21.4667 102.155 19.92C101.595 17.8933 101.275 16.5067 101.195 15.76C101.168 15.68 101.155 15.56 101.155 15.4C101.155 14.7333 101.381 14.16 101.835 13.68C102.315 13.2 102.888 12.96 103.555 12.96C104.221 12.96 104.781 13.2 105.235 13.68C105.715 14.16 105.955 14.7333 105.955 15.4ZM127.243 36.2C127.243 38.2 126.496 39.7733 125.003 40.92C123.509 42.0667 121.269 42.64 118.283 42.64C115.536 42.64 113.403 42.12 111.883 41.08C110.389 40.0133 109.416 38.48 108.963 36.48H112.963C113.389 38.2933 115.176 39.2 118.323 39.2C121.869 39.2 123.643 38.1867 123.643 36.16C123.643 35.5733 123.456 35.12 123.083 34.8C122.736 34.48 122.096 34.2267 121.163 34.04C120.256 33.8267 118.803 33.6 116.803 33.36C114.189 33.04 112.363 32.4667 111.323 31.64C110.283 30.8133 109.763 29.64 109.763 28.12C109.763 26.28 110.496 24.8267 111.963 23.76C113.429 22.6933 115.469 22.16 118.083 22.16C120.189 22.16 121.989 22.64 123.483 23.6C125.003 24.56 125.976 25.9733 126.403 27.84H122.403C122.189 27.0933 121.709 26.52 120.963 26.12C120.243 25.6933 119.149 25.48 117.683 25.48C116.403 25.48 115.363 25.7067 114.563 26.16C113.763 26.5867 113.363 27.1333 113.363 27.8C113.363 28.5733 113.709 29.12 114.403 29.44C115.096 29.76 116.296 30 118.003 30.16C120.403 30.4 122.269 30.7733 123.603 31.28C124.936 31.76 125.869 32.4 126.403 33.2C126.963 33.9733 127.243 34.9733 127.243 36.2ZM143.807 17.76C143.14 17.76 142.567 17.5333 142.087 17.08C141.634 16.6267 141.407 16.0667 141.407 15.4C141.407 14.7333 141.634 14.16 142.087 13.68C142.567 13.2 143.14 12.96 143.807 12.96C144.474 12.96 145.034 13.2 145.487 13.68C145.967 14.16 146.207 14.7333 146.207 15.4C146.207 16.0667 145.967 16.6267 145.487 17.08C145.034 17.5333 144.474 17.76 143.807 17.76ZM142.007 42V22.8H145.607V42H142.007ZM155.818 26.24V33.44C155.818 35.1467 156.138 36.4267 156.778 37.28C157.418 38.1333 158.498 38.56 160.018 38.56H161.218V42H158.858C156.885 42 155.285 41.3733 154.058 40.12C152.831 38.8667 152.218 36.8533 152.218 34.08V26.24H149.378V22.8H152.218V12.96H155.818V22.8H161.218V26.24H155.818ZM171.431 13.6L171.031 31.8H167.431L167.031 13.6H171.431ZM169.231 42.2C168.511 42.2 167.898 41.96 167.391 41.48C166.885 40.9733 166.631 40.36 166.631 39.64C166.631 38.92 166.885 38.3067 167.391 37.8C167.898 37.2667 168.511 37 169.231 37C169.951 37 170.565 37.2667 171.071 37.8C171.578 38.3067 171.831 38.92 171.831 39.64C171.831 40.36 171.578 40.9733 171.071 41.48C170.565 41.96 169.951 42.2 169.231 42.2Z" fill="#EFEFE5"/>
<g clip-path="url(#clip0_3104_1639)">
<path d="M16 59V60H176V59H16Z" fill="url(#paint3_linear_3104_1639)"/>
</g>
<path d="M192 58.4867C192 59.3225 191.346 60 190.538 60L176 60V58.9911L190.538 58.9911C190.807 58.9911 191.025 58.7653 191.025 58.4867V57H192V58.4867Z" fill="url(#paint4_linear_3104_1639)"/>
<rect width="0.97" height="42" transform="matrix(1 0 0 -1 191.03 57)" fill="url(#paint5_linear_3104_1639)"/>
<path d="M191.554 12.6292C191.839 12.9143 192 13.3071 192 13.7174V15H191.025V13.7174C191.025 13.5806 190.972 13.4497 190.877 13.3547L178.646 1.14613C178.553 1.05256 178.426 1 178.293 1H176V0H178.723C178.856 0 178.983 0.0527077 179.077 0.146523L191.554 12.6292Z" fill="url(#paint6_linear_3104_1639)"/>
<defs>
<linearGradient id="paint0_linear_3104_1639" x1="-11.155" y1="-12.6562" x2="-9.86384" y2="-12.8622" gradientUnits="userSpaceOnUse">
<stop stop-color="#724CE8"/>
<stop offset="1" stop-color="#724CE8"/>
</linearGradient>
<linearGradient id="paint1_linear_3104_1639" x1="16" y1="54.3865" x2="3.52925e-05" y2="54.3863" gradientUnits="userSpaceOnUse">
<stop stop-color="#724CE8"/>
<stop offset="1" stop-color="#724CE8"/>
</linearGradient>
<linearGradient id="paint2_linear_3104_1639" x1="128" y1="0.500445" x2="221" y2="0.500612" gradientUnits="userSpaceOnUse">
<stop stop-color="#E6A5A5"/>
<stop offset="1" stop-color="#E6A5A5"/>
</linearGradient>
<linearGradient id="paint3_linear_3104_1639" x1="16" y1="59.6258" x2="176" y2="59.4287" gradientUnits="userSpaceOnUse">
<stop stop-color="#724CE8"/>
<stop offset="1" stop-color="#C34C52"/>
</linearGradient>
<linearGradient id="paint4_linear_3104_1639" x1="181.5" y1="60.5" x2="185.385" y2="62.4156" gradientUnits="userSpaceOnUse">
<stop stop-color="#C34D53"/>
<stop offset="1" stop-color="#C34D53"/>
</linearGradient>
<linearGradient id="paint5_linear_3104_1639" x1="-11.155" y1="-11.8125" x2="-9.86856" y2="-12.0323" gradientUnits="userSpaceOnUse">
<stop stop-color="#C34C52"/>
<stop offset="1" stop-color="#C34C52"/>
</linearGradient>
<linearGradient id="paint6_linear_3104_1639" x1="192" y1="12" x2="193.997" y2="6.96305" gradientUnits="userSpaceOnUse">
<stop stop-color="#C34C52"/>
<stop offset="1" stop-color="#E6A5A5"/>
</linearGradient>
<clipPath id="clip0_3104_1639">
<rect width="160" height="1" fill="white" transform="translate(16 59)"/>
</clipPath>
</defs>
</svg>
