<svg width="455" height="52" viewBox="0 0 455 52" fill="none" xmlns="http://www.w3.org/2000/svg">
<rect width="0.97" height="37" transform="matrix(-1 0 0 1 0.970215 0)" fill="url(#paint0_linear_1_1166)"/>
<path d="M0.446054 39.3708C0.16102 39.0857 4.95911e-05 38.6929 4.95911e-05 38.2826V37H0.974609V38.2826C0.974609 38.4194 1.02823 38.5503 1.12323 38.6453L13.5 51H16V52H13.0698L0.446054 39.3708Z" fill="url(#paint1_linear_1_1166)"/>
<path d="M439 0.999994L391.5 1C391.224 1 391 0.776144 391 0.500003C391 0.223862 391.224 5.98734e-06 391.5 5.95273e-06L439 0V0.999994Z" fill="url(#paint2_linear_1_1166)"/>
<path opacity="0.9" d="M30.976 11.44C33.256 11.44 35.176 12.1 36.736 13.42C38.32 14.716 39.112 16.756 39.112 19.54C39.112 22.444 38.344 24.52 36.808 25.768C35.272 26.992 33.328 27.604 30.976 27.604H22.48V37H19.24V11.44H30.976ZM30.292 24.508C32.236 24.508 33.616 24.076 34.432 23.212C35.272 22.324 35.692 21.1 35.692 19.54C35.692 17.98 35.272 16.768 34.432 15.904C33.616 15.016 32.236 14.572 30.292 14.572H22.48V24.508H30.292ZM54.0962 19.72V22.816H50.6042C49.9322 22.816 49.2242 23.032 48.4802 23.464C47.7362 23.896 47.1002 24.568 46.5722 25.48C46.0442 26.392 45.7802 27.532 45.7802 28.9V37H42.5402V19.72H45.7802V22.924C46.3562 22.012 47.1962 21.256 48.3002 20.656C49.4042 20.032 50.5202 19.72 51.6482 19.72H54.0962ZM65.7607 19.144C67.1527 19.144 68.4247 19.432 69.5767 20.008C70.7287 20.584 71.6407 21.46 72.3127 22.636C73.0087 23.812 73.3567 25.264 73.3567 26.992V29.728C73.3567 31.456 73.0087 32.908 72.3127 34.084C71.6407 35.26 70.7287 36.136 69.5767 36.712C68.4247 37.288 67.1527 37.576 65.7607 37.576H63.6727C62.2807 37.576 61.0087 37.288 59.8567 36.712C58.7047 36.136 57.7807 35.26 57.0847 34.084C56.4127 32.908 56.0767 31.456 56.0767 29.728V26.992C56.0767 25.264 56.4127 23.812 57.0847 22.636C57.7807 21.46 58.7047 20.584 59.8567 20.008C61.0087 19.432 62.2807 19.144 63.6727 19.144H65.7607ZM70.1167 27.568C70.1167 25.84 69.6967 24.52 68.8567 23.608C68.0407 22.696 66.6607 22.24 64.7167 22.24C62.7727 22.24 61.3807 22.696 60.5407 23.608C59.7247 24.52 59.3167 25.84 59.3167 27.568V29.152C59.3167 30.88 59.7247 32.2 60.5407 33.112C61.3807 34.024 62.7727 34.48 64.7167 34.48C66.6607 34.48 68.0407 34.024 68.8567 33.112C69.6967 32.2 70.1167 30.88 70.1167 29.152V27.568ZM80.6133 15.184C80.0133 15.184 79.4973 14.98 79.0653 14.572C78.6573 14.164 78.4533 13.66 78.4533 13.06C78.4533 12.46 78.6573 11.944 79.0653 11.512C79.4973 11.08 80.0133 10.864 80.6133 10.864C81.2133 10.864 81.7173 11.08 82.1253 11.512C82.5573 11.944 82.7733 12.46 82.7733 13.06C82.7733 13.66 82.5573 14.164 82.1253 14.572C81.7173 14.98 81.2133 15.184 80.6133 15.184ZM74.2412 41.32H75.3213C76.6893 41.32 77.6613 40.936 78.2373 40.168C78.8133 39.4 79.1013 38.248 79.1013 36.712V19.72H82.3413V37.288C82.3413 39.784 81.7893 41.596 80.6853 42.724C79.5813 43.852 78.1413 44.416 76.3653 44.416H74.2412V41.32ZM95.7054 19.144C97.1214 19.144 98.4294 19.432 99.6294 20.008C100.853 20.584 101.825 21.472 102.545 22.672C103.289 23.848 103.661 25.288 103.661 26.992V28.972H89.5134V29.152C89.5134 30.88 89.9334 32.2 90.7734 33.112C91.6374 34.024 93.0534 34.48 95.0214 34.48C97.8054 34.48 99.5094 33.46 100.133 31.42H103.517C103.205 33.436 102.353 34.972 100.961 36.028C99.5934 37.06 97.9614 37.576 96.0654 37.576H93.9774C91.7214 37.576 89.8854 36.916 88.4694 35.596C87.0774 34.276 86.3814 32.32 86.3814 29.728V26.992C86.3814 25.288 86.7414 23.848 87.4614 22.672C88.2054 21.472 89.1774 20.584 90.3774 20.008C91.6014 19.432 92.9214 19.144 94.3374 19.144H95.7054ZM95.0214 22.24C93.1974 22.24 91.8654 22.588 91.0254 23.284C90.2094 23.956 89.7294 24.964 89.5854 26.308H100.457C100.313 24.964 99.8214 23.956 98.9814 23.284C98.1654 22.588 96.8454 22.24 95.0214 22.24ZM106.526 26.992C106.526 25.288 106.862 23.848 107.534 22.672C108.206 21.472 109.106 20.584 110.234 20.008C111.362 19.432 112.598 19.144 113.942 19.144H116.03C117.782 19.144 119.282 19.672 120.53 20.728C121.778 21.76 122.51 23.284 122.726 25.3H119.342C119.126 24.292 118.67 23.536 117.974 23.032C117.302 22.504 116.306 22.24 114.986 22.24C113.114 22.24 111.77 22.696 110.954 23.608C110.162 24.52 109.766 25.84 109.766 27.568V29.152C109.766 30.88 110.162 32.2 110.954 33.112C111.77 34.024 113.114 34.48 114.986 34.48C116.426 34.48 117.494 34.18 118.19 33.58C118.886 32.98 119.306 32.116 119.45 30.988H122.798C122.654 33.148 121.946 34.792 120.674 35.92C119.402 37.024 117.854 37.576 116.03 37.576H113.942C112.598 37.576 111.362 37.288 110.234 36.712C109.106 36.136 108.206 35.26 107.534 34.084C106.862 32.884 106.526 31.432 106.526 29.728V26.992ZM130.411 22.816V29.296C130.411 30.832 130.699 31.984 131.275 32.752C131.851 33.52 132.823 33.904 134.191 33.904H135.271V37H133.147C131.371 37 129.931 36.436 128.827 35.308C127.723 34.18 127.171 32.368 127.171 29.872V22.816H124.615V19.72H127.171V10.864H130.411V19.72H135.271V22.816H130.411ZM161.238 10.864C163.302 10.864 165.15 11.344 166.782 12.304C168.414 13.24 169.686 14.62 170.598 16.444C171.534 18.268 172.002 20.452 172.002 22.996V25.444C172.002 28.036 171.534 30.244 170.598 32.068C169.686 33.868 168.414 35.236 166.782 36.172C165.15 37.108 163.302 37.576 161.238 37.576H158.286C156.222 37.576 154.374 37.108 152.742 36.172C151.11 35.236 149.826 33.868 148.89 32.068C147.978 30.244 147.522 28.036 147.522 25.444V22.996C147.522 20.404 147.978 18.208 148.89 16.408C149.826 14.584 151.11 13.204 152.742 12.268C154.374 11.332 156.222 10.864 158.286 10.864H161.238ZM168.762 23.284C168.762 20.524 168.054 18.28 166.638 16.552C165.246 14.824 162.954 13.96 159.762 13.96C156.57 13.96 154.266 14.824 152.85 16.552C151.458 18.28 150.762 20.524 150.762 23.284V25.156C150.762 27.892 151.458 30.1 152.85 31.78C154.266 33.436 156.57 34.264 159.762 34.264C162.954 34.264 165.246 33.436 166.638 31.78C168.054 30.1 168.762 27.892 168.762 25.156V23.284ZM185.593 19.144C186.697 19.144 187.741 19.384 188.725 19.864C189.709 20.32 190.513 21.088 191.137 22.168C191.785 23.224 192.109 24.592 192.109 26.272V37H188.869V26.848C188.869 25.24 188.521 24.076 187.825 23.356C187.153 22.612 186.061 22.24 184.549 22.24C183.853 22.24 183.133 22.432 182.389 22.816C181.645 23.176 181.009 23.788 180.481 24.652C179.977 25.492 179.725 26.596 179.725 27.964V37H176.485V19.72H179.509V22.564C180.109 21.58 180.985 20.764 182.137 20.116C183.313 19.468 184.465 19.144 185.593 19.144ZM206.617 19.144C208.825 19.144 210.637 19.816 212.053 21.16C213.493 22.48 214.213 24.424 214.213 26.992V29.728C214.213 32.296 213.493 34.252 212.053 35.596C210.637 36.916 208.825 37.576 206.617 37.576C205.489 37.576 204.361 37.228 203.233 36.532C202.129 35.836 201.301 34.96 200.749 33.904V37H197.509V10.864H200.749V22.816C201.301 21.76 202.129 20.884 203.233 20.188C204.361 19.492 205.489 19.144 206.617 19.144ZM210.973 27.568C210.973 25.888 210.553 24.58 209.713 23.644C208.897 22.708 207.637 22.24 205.933 22.24C205.117 22.24 204.313 22.42 203.521 22.78C202.729 23.14 202.069 23.752 201.541 24.616C201.013 25.48 200.749 26.596 200.749 27.964V28.756C200.749 30.124 201.013 31.24 201.541 32.104C202.069 32.968 202.729 33.58 203.521 33.94C204.313 34.3 205.117 34.48 205.933 34.48C207.637 34.48 208.897 34.012 209.713 33.076C210.553 32.14 210.973 30.832 210.973 29.152V27.568ZM226.776 19.144C228.168 19.144 229.44 19.432 230.592 20.008C231.744 20.584 232.656 21.46 233.328 22.636C234.024 23.812 234.372 25.264 234.372 26.992V29.728C234.372 31.456 234.024 32.908 233.328 34.084C232.656 35.26 231.744 36.136 230.592 36.712C229.44 37.288 228.168 37.576 226.776 37.576H224.688C223.296 37.576 222.024 37.288 220.872 36.712C219.72 36.136 218.796 35.26 218.1 34.084C217.428 32.908 217.092 31.456 217.092 29.728V26.992C217.092 25.264 217.428 23.812 218.1 22.636C218.796 21.46 219.72 20.584 220.872 20.008C222.024 19.432 223.296 19.144 224.688 19.144H226.776ZM231.132 27.568C231.132 25.84 230.712 24.52 229.872 23.608C229.056 22.696 227.676 22.24 225.732 22.24C223.788 22.24 222.396 22.696 221.556 23.608C220.74 24.52 220.332 25.84 220.332 27.568V29.152C220.332 30.88 220.74 32.2 221.556 33.112C222.396 34.024 223.788 34.48 225.732 34.48C227.676 34.48 229.056 34.024 229.872 33.112C230.712 32.2 231.132 30.88 231.132 29.152V27.568ZM253.581 32.572C253.581 33.46 254.049 33.904 254.985 33.904V37C253.857 37 252.921 36.892 252.177 36.676C251.457 36.46 250.941 35.944 250.629 35.128C250.077 35.992 249.237 36.616 248.109 37C246.981 37.36 245.769 37.54 244.473 37.54C242.529 37.54 240.897 37.096 239.577 36.208C238.257 35.32 237.597 33.868 237.597 31.852V31.456C237.597 29.848 238.221 28.552 239.469 27.568C240.717 26.56 242.385 26.056 244.473 26.056H250.341C250.317 25.168 250.209 24.46 250.017 23.932C249.825 23.38 249.453 22.96 248.901 22.672C248.373 22.384 247.593 22.24 246.561 22.24H244.401C243.513 22.24 242.769 22.456 242.169 22.888C241.593 23.296 241.305 23.8 241.305 24.4H238.065C238.065 23.512 238.317 22.672 238.821 21.88C239.349 21.064 240.069 20.404 240.981 19.9C241.917 19.396 242.949 19.144 244.077 19.144H247.605C249.381 19.144 250.821 19.708 251.925 20.836C253.029 21.964 253.581 23.776 253.581 26.272V32.572ZM245.517 34.444C246.597 34.444 247.665 34.228 248.721 33.796C249.801 33.364 250.341 32.644 250.341 31.636V28.792H245.517C243.717 28.792 242.481 29.092 241.809 29.692C241.161 30.268 240.837 30.94 240.837 31.708C240.837 32.716 241.185 33.424 241.881 33.832C242.601 34.24 243.813 34.444 245.517 34.444ZM270.166 19.72V22.816H266.674C266.002 22.816 265.294 23.032 264.55 23.464C263.806 23.896 263.17 24.568 262.642 25.48C262.114 26.392 261.85 27.532 261.85 28.9V37H258.61V19.72H261.85V22.924C262.426 22.012 263.266 21.256 264.37 20.656C265.474 20.032 266.59 19.72 267.718 19.72H270.166ZM289.031 10.864V37H285.791V33.904C285.239 34.96 284.399 35.836 283.271 36.532C282.167 37.228 281.051 37.576 279.923 37.576C277.715 37.576 275.891 36.916 274.451 35.596C273.035 34.252 272.327 32.296 272.327 29.728V26.992C272.327 24.424 273.035 22.48 274.451 21.16C275.891 19.816 277.715 19.144 279.923 19.144C281.051 19.144 282.167 19.492 283.271 20.188C284.399 20.884 285.239 21.76 285.791 22.816V10.864H289.031ZM280.607 34.48C281.423 34.48 282.227 34.3 283.019 33.94C283.811 33.58 284.471 32.968 284.999 32.104C285.527 31.24 285.791 30.124 285.791 28.756V27.964C285.791 26.596 285.527 25.48 284.999 24.616C284.471 23.752 283.811 23.14 283.019 22.78C282.227 22.42 281.423 22.24 280.607 22.24C278.903 22.24 277.631 22.708 276.791 23.644C275.975 24.58 275.567 25.888 275.567 27.568V29.152C275.567 30.832 275.975 32.14 276.791 33.076C277.631 34.012 278.903 34.48 280.607 34.48ZM296.014 15.184C295.414 15.184 294.898 14.98 294.466 14.572C294.058 14.164 293.854 13.66 293.854 13.06C293.854 12.46 294.058 11.944 294.466 11.512C294.898 11.08 295.414 10.864 296.014 10.864C296.614 10.864 297.118 11.08 297.526 11.512C297.958 11.944 298.174 12.46 298.174 13.06C298.174 13.66 297.958 14.164 297.526 14.572C297.118 14.98 296.614 15.184 296.014 15.184ZM294.394 37V19.72H297.634V37H294.394ZM312.297 19.144C313.401 19.144 314.445 19.384 315.429 19.864C316.413 20.32 317.217 21.088 317.841 22.168C318.489 23.224 318.813 24.592 318.813 26.272V37H315.573V26.848C315.573 25.24 315.225 24.076 314.529 23.356C313.857 22.612 312.765 22.24 311.253 22.24C310.557 22.24 309.837 22.432 309.093 22.816C308.349 23.176 307.713 23.788 307.185 24.652C306.681 25.492 306.429 26.596 306.429 27.964V37H303.189V19.72H306.213V22.564C306.813 21.58 307.689 20.764 308.841 20.116C310.017 19.468 311.169 19.144 312.297 19.144ZM339.656 19.72V36.568C339.656 39.16 338.984 41.116 337.64 42.436C336.32 43.756 334.544 44.416 332.312 44.416H330.44C328.712 44.416 327.188 43.984 325.868 43.12C324.572 42.256 323.684 40.984 323.204 39.304H326.84C327.176 40 327.656 40.504 328.28 40.816C328.904 41.152 329.96 41.32 331.448 41.32C332.864 41.32 333.932 41.104 334.652 40.672C335.372 40.264 335.84 39.688 336.056 38.944C336.296 38.2 336.416 37.216 336.416 35.992V33.724C335.936 34.708 335.132 35.5 334.004 36.1C332.876 36.7 331.724 37 330.548 37C329.156 37 327.884 36.712 326.732 36.136C325.58 35.536 324.656 34.648 323.96 33.472C323.288 32.272 322.952 30.808 322.952 29.08V26.992C322.952 25.264 323.288 23.812 323.96 22.636C324.656 21.46 325.58 20.584 326.732 20.008C327.884 19.432 329.156 19.144 330.548 19.144C331.676 19.144 332.792 19.492 333.896 20.188C335.024 20.884 335.864 21.76 336.416 22.816V19.72H339.656ZM331.592 33.904C332.792 33.904 333.896 33.496 334.904 32.68C335.912 31.864 336.416 30.472 336.416 28.504V27.964C336.416 26.596 336.152 25.492 335.624 24.652C335.12 23.788 334.496 23.176 333.752 22.816C333.008 22.432 332.288 22.24 331.592 22.24C329.648 22.24 328.256 22.696 327.416 23.608C326.6 24.52 326.192 25.84 326.192 27.568V28.504C326.192 30.232 326.6 31.564 327.416 32.5C328.256 33.436 329.648 33.904 331.592 33.904ZM371.7 14.536H357.66V22.492H370.908V25.588H357.66V37H354.42V11.44H371.7V14.536ZM382.624 19.144C384.016 19.144 385.288 19.432 386.44 20.008C387.592 20.584 388.504 21.46 389.176 22.636C389.872 23.812 390.22 25.264 390.22 26.992V29.728C390.22 31.456 389.872 32.908 389.176 34.084C388.504 35.26 387.592 36.136 386.44 36.712C385.288 37.288 384.016 37.576 382.624 37.576H380.536C379.144 37.576 377.872 37.288 376.72 36.712C375.568 36.136 374.644 35.26 373.948 34.084C373.276 32.908 372.94 31.456 372.94 29.728V26.992C372.94 25.264 373.276 23.812 373.948 22.636C374.644 21.46 375.568 20.584 376.72 20.008C377.872 19.432 379.144 19.144 380.536 19.144H382.624ZM386.98 27.568C386.98 25.84 386.56 24.52 385.72 23.608C384.904 22.696 383.524 22.24 381.58 22.24C379.636 22.24 378.244 22.696 377.404 23.608C376.588 24.52 376.18 25.84 376.18 27.568V29.152C376.18 30.88 376.588 32.2 377.404 33.112C378.244 34.024 379.636 34.48 381.58 34.48C383.524 34.48 384.904 34.024 385.72 33.112C386.56 32.2 386.98 30.88 386.98 29.152V27.568ZM406.081 19.72V22.816H402.589C401.917 22.816 401.209 23.032 400.465 23.464C399.721 23.896 399.085 24.568 398.557 25.48C398.029 26.392 397.765 27.532 397.765 28.9V37H394.525V19.72H397.765V22.924C398.341 22.012 399.181 21.256 400.285 20.656C401.389 20.032 402.505 19.72 403.633 19.72H406.081ZM429.441 19.144C430.305 19.144 431.205 19.384 432.141 19.864C433.077 20.344 433.869 21.124 434.517 22.204C435.189 23.26 435.525 24.616 435.525 26.272V37H432.285V26.848C432.285 25.288 431.937 24.136 431.241 23.392C430.545 22.624 429.597 22.24 428.397 22.24C427.293 22.24 426.321 22.696 425.481 23.608C424.641 24.496 424.221 25.948 424.221 27.964V37H420.981V26.848C420.981 25.288 420.633 24.136 419.937 23.392C419.241 22.624 418.293 22.24 417.093 22.24C415.989 22.24 415.017 22.696 414.177 23.608C413.337 24.496 412.917 25.948 412.917 27.964V37H409.677V19.72H412.917V22.168C413.493 21.256 414.249 20.524 415.185 19.972C416.145 19.42 417.129 19.144 418.137 19.144C419.193 19.144 420.249 19.48 421.305 20.152C422.385 20.8 423.177 21.808 423.681 23.176C424.185 22 424.965 21.04 426.021 20.296C427.101 19.528 428.241 19.144 429.441 19.144Z" fill="#EFEFE5"/>
<g clip-path="url(#clip0_1_1166)">
<path d="M16 51V52H439V51H16Z" fill="url(#paint3_linear_1_1166)"/>
</g>
<path d="M455 50.4867C455 51.3225 454.346 52 453.538 52L439 52V50.9911L453.538 50.9911C453.807 50.9911 454.025 50.7653 454.025 50.4867V49H455V50.4867Z" fill="url(#paint4_linear_1_1166)"/>
<rect width="0.97" height="34" transform="matrix(1 0 0 -1 454.03 49)" fill="url(#paint5_linear_1_1166)"/>
<path d="M454.554 12.6292C454.839 12.9143 455 13.3071 455 13.7174V15H454.025V13.7174C454.025 13.5806 453.972 13.4497 453.877 13.3547L441.646 1.14613C441.553 1.05256 441.426 1 441.293 1H439V0H441.723C441.856 0 441.983 0.0527077 442.077 0.146523L454.554 12.6292Z" fill="url(#paint6_linear_1_1166)"/>
<defs>
<linearGradient id="paint0_linear_1_1166" x1="-11.155" y1="-10.4062" x2="-9.87901" y2="-10.6538" gradientUnits="userSpaceOnUse">
<stop stop-color="#724CE8"/>
<stop offset="1" stop-color="#724CE8"/>
</linearGradient>
<linearGradient id="paint1_linear_1_1166" x1="16" y1="46.3865" x2="3.52925e-05" y2="46.3863" gradientUnits="userSpaceOnUse">
<stop stop-color="#724CE8"/>
<stop offset="1" stop-color="#724CE8"/>
</linearGradient>
<linearGradient id="paint2_linear_1_1166" x1="391" y1="0.500445" x2="484" y2="0.500612" gradientUnits="userSpaceOnUse">
<stop stop-color="#E6A5A5"/>
<stop offset="1" stop-color="#E6A5A5"/>
</linearGradient>
<linearGradient id="paint3_linear_1_1166" x1="16" y1="51.6258" x2="438.996" y2="50.2482" gradientUnits="userSpaceOnUse">
<stop stop-color="#724CE8"/>
<stop offset="1" stop-color="#C34C52"/>
</linearGradient>
<linearGradient id="paint4_linear_1_1166" x1="444.5" y1="52.5" x2="448.385" y2="54.4156" gradientUnits="userSpaceOnUse">
<stop stop-color="#C34D53"/>
<stop offset="1" stop-color="#C34D53"/>
</linearGradient>
<linearGradient id="paint5_linear_1_1166" x1="-11.155" y1="-9.56249" x2="-9.88748" y2="-9.83007" gradientUnits="userSpaceOnUse">
<stop stop-color="#C34C52"/>
<stop offset="1" stop-color="#C34C52"/>
</linearGradient>
<linearGradient id="paint6_linear_1_1166" x1="455" y1="12" x2="456.997" y2="6.96305" gradientUnits="userSpaceOnUse">
<stop stop-color="#C34C52"/>
<stop offset="1" stop-color="#E6A5A5"/>
</linearGradient>
<clipPath id="clip0_1_1166">
<rect width="423" height="1" fill="white" transform="translate(16 51)"/>
</clipPath>
</defs>
</svg>
