<svg width="8" height="40" viewBox="0 0 8 40" fill="none" xmlns="http://www.w3.org/2000/svg">
<g id="left-line" opacity="0.6">
<mask id="path-1-inside-1_4475_87" fill="white">
<path d="M8 1.16505C7.62902 1.16505 7.50895 1.30802 7.24647 1.56255L1.61058 7.02776C1.34766 7.28271 1.19993 7.62869 1.19993 7.98947V10.3883H0V7.98947C0 7.31945 0.274359 6.67691 0.76263 6.20343L6.39852 0.738226C6.88599 0.265516 7.31104 0 8 0V1.16505Z"/>
<path d="M2.59985 40C1.16399 40 0 38.8699 0 37.4757V16.7961H1.19993V37.4757C1.19993 38.2264 1.8267 38.835 2.59985 38.835H8V40H2.59985Z"/>
</mask>
<path d="M7.24647 1.56255L5.85416 0.126766L5.85416 0.126766L7.24647 1.56255ZM8 1.16505V3.16505C9.10457 3.16505 10 2.26962 10 1.16505H8ZM1.61058 7.02776L0.218275 5.59197L0.218274 5.59197L1.61058 7.02776ZM1.19993 10.3883V12.3883C2.3045 12.3883 3.19993 11.4929 3.19993 10.3883H1.19993ZM0 10.3883H-2C-2 11.4929 -1.10457 12.3883 0 12.3883L0 10.3883ZM0.76263 6.20343L-0.629675 4.76764H-0.629675L0.76263 6.20343ZM6.39852 0.738226L7.79082 2.17401L6.39852 0.738226ZM8 0H10C10 -1.10457 9.10457 -2 8 -2V0ZM1.19993 16.7961H3.19993C3.19993 15.6916 2.3045 14.7961 1.19993 14.7961V16.7961ZM0 16.7961V14.7961C-1.10457 14.7961 -2 15.6916 -2 16.7961H0ZM8 38.835H10C10 37.7304 9.10457 36.835 8 36.835V38.835ZM8 40V42C9.10457 42 10 41.1046 10 40H8ZM8.63877 2.99834C8.73545 2.90459 8.74658 2.89259 8.7702 2.87105C8.77987 2.86223 8.72822 2.91137 8.6348 2.96916C8.52856 3.03489 8.40099 3.09225 8.26119 3.12824C8.13074 3.16181 8.03481 3.16505 8 3.16505V-0.834951C7.51542 -0.834951 7.01218 -0.730594 6.5303 -0.432462C6.18528 -0.219009 5.88751 0.0944315 5.85416 0.126766L8.63877 2.99834ZM3.00288 8.46355L8.63877 2.99834L5.85416 0.126766L0.218275 5.59197L3.00288 8.46355ZM3.19993 7.98947C3.19993 8.17894 3.1218 8.34823 3.00288 8.46354L0.218274 5.59197C-0.426473 6.21719 -0.800067 7.07845 -0.800067 7.98947H3.19993ZM3.19993 10.3883V7.98947H-0.800067V10.3883H3.19993ZM0 12.3883H1.19993V8.38835H0V12.3883ZM-2 7.98947V10.3883H2V7.98947H-2ZM-0.629675 4.76764C-1.49978 5.61139 -2 6.7692 -2 7.98947H2C2 7.8697 2.0485 7.74243 2.15493 7.63922L-0.629675 4.76764ZM5.00621 -0.697562L-0.629675 4.76764L2.15493 7.63922L7.79082 2.17401L5.00621 -0.697562ZM8 -2C7.3754 -2 6.78918 -1.87435 6.23602 -1.60036C5.7142 -1.34191 5.31329 -0.995342 5.00621 -0.697562L7.79082 2.17401C7.97122 1.99908 8.02657 1.97654 8.01138 1.98406C7.99876 1.99031 7.98052 1.997 7.96411 2.00067C7.94957 2.00392 7.95765 2 8 2V-2ZM6 0V1.16505H10V0H6ZM-2 37.4757C-2 40.0296 0.115455 42 2.59985 42V38C2.21253 38 2 37.7101 2 37.4757H-2ZM1.19993 14.7961H0V18.7961H1.19993V14.7961ZM2.59985 36.835C2.87524 36.835 3.19993 37.0667 3.19993 37.4757H-0.800067C-0.800067 39.3862 0.778155 40.835 2.59985 40.835V36.835ZM-2 16.7961V37.4757H2V16.7961H-2ZM3.19993 37.4757V16.7961H-0.800067V37.4757H3.19993ZM8 36.835H2.59985V40.835H8V36.835ZM2.59985 42H8V38H2.59985V42ZM10 40V38.835H6V40H10Z" fill="white" mask="url(#path-1-inside-1_4475_87)"/>
</g>
</svg>
