<svg width="8" height="40" viewBox="0 0 8 40" fill="none" xmlns="http://www.w3.org/2000/svg">
<mask id="path-1-inside-1_4328_7700" fill="white">
<path d="M7.99902 1.16505C7.62805 1.16505 7.50798 1.30802 7.24549 1.56255L1.6096 7.02776C1.34669 7.28271 1.19896 7.62869 1.19896 7.98947V10.3883H-0.000976562V7.98947C-0.000976562 7.31945 0.273383 6.67691 0.761653 6.20343L6.39754 0.738226C6.88502 0.265516 7.31006 0 7.99902 0V1.16505Z"/>
<path d="M2.59888 40C1.16302 40 -0.000976562 38.8699 -0.000976562 37.4757V16.7961H1.19896V37.4757C1.19896 38.2264 1.82572 38.835 2.59888 38.835H7.99902V40H2.59888Z"/>
</mask>
<path d="M7.24549 1.56255L5.85319 0.126766L5.85319 0.126766L7.24549 1.56255ZM7.99902 1.16505V3.16505C9.10359 3.16505 9.99902 2.26962 9.99902 1.16505H7.99902ZM1.6096 7.02776L0.217298 5.59197L0.217297 5.59197L1.6096 7.02776ZM1.19896 10.3883V12.3883C2.30353 12.3883 3.19896 11.4929 3.19896 10.3883H1.19896ZM-0.000976562 10.3883H-2.00098C-2.00098 11.4929 -1.10555 12.3883 -0.000976562 12.3883L-0.000976562 10.3883ZM0.761653 6.20343L-0.630652 4.76764H-0.630652L0.761653 6.20343ZM6.39754 0.738226L7.78985 2.17401L6.39754 0.738226ZM7.99902 0H9.99902C9.99902 -1.10457 9.10359 -2 7.99902 -2V0ZM1.19896 16.7961H3.19896C3.19896 15.6916 2.30353 14.7961 1.19896 14.7961V16.7961ZM-0.000976562 16.7961V14.7961C-1.10555 14.7961 -2.00098 15.6916 -2.00098 16.7961H-0.000976562ZM7.99902 38.835H9.99902C9.99902 37.7304 9.10359 36.835 7.99902 36.835V38.835ZM7.99902 40V42C9.10359 42 9.99902 41.1046 9.99902 40H7.99902ZM8.6378 2.99834C8.73448 2.90459 8.7456 2.89259 8.76922 2.87105C8.77889 2.86223 8.72724 2.91137 8.63383 2.96916C8.52759 3.03489 8.40001 3.09225 8.26022 3.12824C8.12976 3.16181 8.03384 3.16505 7.99902 3.16505V-0.834951C7.51444 -0.834951 7.01121 -0.730594 6.52932 -0.432462C6.1843 -0.219009 5.88653 0.0944315 5.85319 0.126766L8.6378 2.99834ZM3.00191 8.46355L8.6378 2.99834L5.85319 0.126766L0.217298 5.59197L3.00191 8.46355ZM3.19896 7.98947C3.19896 8.17894 3.12082 8.34823 3.00191 8.46354L0.217297 5.59197C-0.427449 6.21719 -0.801044 7.07845 -0.801044 7.98947H3.19896ZM3.19896 10.3883V7.98947H-0.801044V10.3883H3.19896ZM-0.000976562 12.3883H1.19896V8.38835H-0.000976562V12.3883ZM-2.00098 7.98947V10.3883H1.99902V7.98947H-2.00098ZM-0.630652 4.76764C-1.50075 5.61139 -2.00098 6.7692 -2.00098 7.98947H1.99902C1.99902 7.8697 2.04752 7.74243 2.15396 7.63922L-0.630652 4.76764ZM5.00524 -0.697562L-0.630652 4.76764L2.15396 7.63922L7.78985 2.17401L5.00524 -0.697562ZM7.99902 -2C7.37442 -2 6.78821 -1.87435 6.23504 -1.60036C5.71322 -1.34191 5.31232 -0.995342 5.00524 -0.697562L7.78985 2.17401C7.97024 1.99908 8.02559 1.97654 8.01041 1.98406C7.99778 1.99031 7.97954 1.997 7.96313 2.00067C7.94859 2.00392 7.95667 2 7.99902 2V-2ZM5.99902 0V1.16505H9.99902V0H5.99902ZM-2.00098 37.4757C-2.00098 40.0296 0.114478 42 2.59888 42V38C2.21156 38 1.99902 37.7101 1.99902 37.4757H-2.00098ZM1.19896 14.7961H-0.000976562V18.7961H1.19896V14.7961ZM2.59888 36.835C2.87427 36.835 3.19896 37.0667 3.19896 37.4757H-0.801044C-0.801044 39.3862 0.777178 40.835 2.59888 40.835V36.835ZM-2.00098 16.7961V37.4757H1.99902V16.7961H-2.00098ZM3.19896 37.4757V16.7961H-0.801044V37.4757H3.19896ZM7.99902 36.835H2.59888V40.835H7.99902V36.835ZM2.59888 42H7.99902V38H2.59888V42ZM9.99902 40V38.835H5.99902V40H9.99902Z" fill="url(#paint0_linear_4328_7700)" mask="url(#path-1-inside-1_4328_7700)"/>
<defs>
<linearGradient id="paint0_linear_4328_7700" x1="3.99902" y1="0" x2="3.99902" y2="40" gradientUnits="userSpaceOnUse">
<stop stop-color="#7D4CD4"/>
<stop offset="1" stop-color="#6253DA"/>
</linearGradient>
</defs>
</svg>
