<svg width="12" height="12" viewBox="0 0 12 12" fill="none" xmlns="http://www.w3.org/2000/svg">
<g id="icon">
<path id="Union" fill-rule="evenodd" clip-rule="evenodd" d="M8.64651 2.64645C8.84177 2.45118 9.15835 2.45118 9.35362 2.64645C9.54888 2.84171 9.54888 3.15829 9.35362 3.35355L6.70717 6L9.35362 8.64645C9.54888 8.84171 9.54888 9.15829 9.35362 9.35355C9.15835 9.54882 8.84177 9.54882 8.64651 9.35355L6.00006 6.70711L3.35361 9.35355C3.15835 9.54882 2.84177 9.54882 2.64651 9.35355C2.45125 9.15829 2.45125 8.84171 2.64651 8.64645L5.29295 6L2.64651 3.35355C2.45125 3.15829 2.45125 2.84171 2.64651 2.64645C2.84177 2.45118 3.15835 2.45118 3.35361 2.64645L6.00006 5.29289L8.64651 2.64645Z" fill="#EFEFE5"/>
</g>
</svg>
