<svg width="16" height="16" viewBox="0 0 16 16" fill="none" xmlns="http://www.w3.org/2000/svg">
<g id="icon">
<path id="Vector" d="M8.47456 16.0019C8.1617 16.0019 7.84924 16.0019 7.53638 16.0019C7.4287 15.9893 7.32102 15.9756 7.21334 15.9639C5.89495 15.8229 4.67485 15.3993 3.58044 14.6502C1.70251 13.3651 0.536439 11.6058 0.123342 9.36099C0.0689148 9.06536 0.0403308 8.76464 0 8.46666C0 8.15381 0 7.84134 0 7.52848C0.0336743 7.26066 0.0583426 6.99126 0.102981 6.72539C0.384122 5.05891 1.10499 3.60778 2.29768 2.41195C4.0926 0.613512 6.27124 -0.190363 8.80504 0.0379173C10.3697 0.178879 11.7797 0.756432 12.9893 1.75805C15.1914 3.58155 16.2005 5.93365 15.9671 8.78892C15.8594 10.11 15.4083 11.3274 14.6593 12.4218C13.3742 14.2994 11.6145 15.465 9.36889 15.8781C9.07326 15.933 8.77293 15.9611 8.47456 16.0019ZM8.94365 9.40445C8.94365 9.28463 8.94365 9.16482 8.94365 9.045C8.94365 8.39383 8.94874 7.74228 8.94208 7.09111C8.93543 6.40392 8.31676 5.96146 7.68439 6.18308C7.30222 6.31699 7.06846 6.66901 7.06768 7.12243C7.06611 8.13344 7.06729 9.14406 7.06729 10.1551C7.06729 10.6762 7.06416 11.1974 7.06846 11.7182C7.07199 12.1466 7.31319 12.4962 7.68439 12.6262C8.31715 12.8478 8.93621 12.4054 8.94208 11.7182C8.94874 10.9468 8.94365 10.1758 8.94365 9.40445ZM8.94248 4.24133C8.93973 3.73034 8.51097 3.30589 8.00155 3.30863C7.49057 3.31137 7.06572 3.74013 7.06885 4.24955C7.0716 4.76054 7.50035 5.18499 8.00978 5.18225C8.52076 5.17951 8.94522 4.75114 8.94248 4.24133Z" fill="#6788FF"/>
</g>
</svg>
