<svg width="24" height="24" viewBox="0 0 24 24" fill="none" xmlns="http://www.w3.org/2000/svg">
<g clip-path="url(#clip0_2333_23)">
<path d="M12 23.6571C18.4381 23.6571 23.6572 18.438 23.6572 11.9999C23.6572 5.56185 18.4381 0.342773 12 0.342773C5.56198 0.342773 0.342896 5.56185 0.342896 11.9999C0.342896 18.438 5.56198 23.6571 12 23.6571Z" fill="#D9D9D9" stroke="#D9D9D9" stroke-width="1.09714"/>
<path d="M20.4343 12.0001V11.9851V11.97C20.4192 7.26734 16.6259 3.42871 11.9973 3.42871C7.34608 3.42871 3.55957 7.26734 3.55957 12.0001C3.55957 16.7179 7.34608 20.5716 11.9966 20.5716C14.1436 20.5716 16.163 19.759 17.7285 18.2758C18.0412 17.9775 18.0638 17.4934 17.7587 17.18C17.4755 16.8667 16.9907 16.8447 16.678 17.1279C16.678 17.1279 16.678 17.1279 16.6629 17.143C15.4032 18.3355 13.704 19.0212 11.9596 19.0212C9.91751 19.0212 8.09146 18.127 6.82426 16.6959L10.4318 10.9195V13.5951C10.4318 14.8774 10.931 15.2868 11.3486 15.4061C11.7662 15.5254 12.3923 15.4356 13.078 14.3624L15.0528 11.1574C15.12 11.0607 15.1721 10.9565 15.2393 10.8893V12.5144C15.2393 13.7069 15.7241 14.6758 16.5511 15.138C17.2965 15.5707 18.2428 15.5179 19.0259 15.0413C19.9872 14.4077 20.5015 13.3119 20.4343 12.0001ZM18.2428 13.6774C17.9445 13.8639 17.5941 13.8934 17.326 13.7446C16.9907 13.5437 16.7966 13.0959 16.7966 12.4849V10.6068C16.7966 9.7126 16.4462 9.06391 15.8503 8.89248C14.8368 8.5942 14.0688 9.83877 13.7856 10.3085L11.9966 13.1782V9.63717C11.974 8.8246 11.7134 8.34802 11.2142 8.19854C10.8789 8.10185 10.3865 8.14643 9.90243 8.87671L5.89991 15.2868C5.36368 14.2733 5.08803 13.148 5.08803 12.0001C5.08803 8.13203 8.19637 4.98665 11.9973 4.98665C15.7989 4.98665 18.9065 8.13203 18.9065 12.0001V12.0152V12.0303C18.936 12.7825 18.7049 13.3791 18.2428 13.6774Z" fill="#757575"/>
</g>
<defs>
<clipPath id="clip0_2333_23">
<rect width="24" height="24" fill="white"/>
</clipPath>
</defs>
</svg>
