<svg width="24" height="24" viewBox="0 0 24 24" fill="none" xmlns="http://www.w3.org/2000/svg">
<rect x="0.5" y="0.5" width="23" height="23" rx="11.5" fill="#D9D9D9"/>
<rect x="0.5" y="0.5" width="23" height="23" rx="11.5" stroke="#D9D9D9"/>
<g clip-path="url(#clip0_3042_1339)">
<path d="M15.9331 9.29383C15.2186 8.73998 14.3972 8.4056 13.5375 8.14661C13.6116 8.01893 13.71 7.99401 13.8376 8.00252C14.7684 8.08599 15.6603 8.41539 16.4222 8.95702C16.479 8.99724 16.5258 9.05009 16.5589 9.11144C17.2619 10.4155 17.7208 11.8372 17.9131 13.3064C17.9629 13.7016 17.9781 14.1016 18 14.4992C17.9971 14.5663 17.9699 14.6301 17.9234 14.6786C17.1227 15.5297 16.1202 15.9261 14.9707 15.9966C14.9195 16.0047 14.8671 15.9983 14.8194 15.9782C14.7716 15.9581 14.7304 15.9251 14.7003 15.8829C14.5254 15.6562 14.3358 15.4391 14.1438 15.2051C14.837 14.9904 15.4446 14.6871 15.9057 14.1472C13.3025 15.6063 10.7064 15.6063 8.1174 14.1472C8.16114 14.2803 8.49044 14.5807 8.87746 14.7856C9.18124 14.9467 9.50446 15.0768 9.83802 15.2288C9.63813 15.4683 9.43034 15.7212 9.21587 15.9668C9.19096 15.9954 9.12292 15.9954 9.07613 15.993C7.89686 15.9364 6.87372 15.5254 6.05594 14.6555C6.01862 14.6071 5.9989 14.5475 6.00005 14.4864C6.0204 13.3739 6.20759 12.2707 6.55536 11.2138C6.77604 10.5053 7.06371 9.81943 7.41445 9.16555C7.46703 9.06901 7.54102 8.98582 7.63074 8.92237C8.38018 8.39991 9.25321 8.08279 10.1631 8.00252C10.2919 7.99097 10.3903 8.01589 10.4668 8.14539C9.6041 8.40438 8.78329 8.73998 8.06576 9.29748C10.6872 8.10466 13.3096 8.10344 15.9331 9.29383ZM13.8479 13.6505C13.9871 13.6498 14.1247 13.6215 14.2528 13.5672C14.381 13.513 14.4971 13.4338 14.5945 13.3344C14.6919 13.2349 14.7687 13.1172 14.8203 12.9879C14.8719 12.8586 14.8974 12.7203 14.8954 12.5811C14.8954 12.0011 14.4257 11.5129 13.8734 11.5159C13.5898 11.5151 13.3173 11.6268 13.1158 11.8266C12.9142 12.0263 12.8 12.2978 12.7981 12.5817C12.7969 12.7209 12.8231 12.8589 12.8752 12.9879C12.9273 13.1169 13.0043 13.2344 13.1018 13.3337C13.1993 13.4329 13.3153 13.512 13.4434 13.5663C13.5714 13.6207 13.7089 13.6493 13.8479 13.6505ZM10.1552 13.6505C10.4335 13.6476 10.6995 13.5352 10.8956 13.3376C11.0918 13.1399 11.2023 12.873 11.2032 12.5945C11.2039 12.4526 11.1765 12.3121 11.1226 12.1809C11.0687 12.0497 10.9894 11.9305 10.8891 11.8302C10.7889 11.7299 10.6698 11.6505 10.5387 11.5966C10.4076 11.5426 10.2671 11.5152 10.1254 11.5159C9.57494 11.5159 9.1053 12.0023 9.1059 12.5829C9.10422 12.7221 9.13007 12.8603 9.18198 12.9895C9.23389 13.1186 9.31083 13.2362 9.40835 13.3355C9.50588 13.4348 9.62208 13.5138 9.75025 13.568C9.87842 13.6221 10.016 13.6504 10.1552 13.6511V13.6505Z" fill="#757575"/>
</g>
<defs>
<clipPath id="clip0_3042_1339">
<rect width="12" height="12" fill="white" transform="translate(6 6)"/>
</clipPath>
</defs>
</svg>
