<svg width="24" height="24" viewBox="0 0 24 24" fill="none" xmlns="http://www.w3.org/2000/svg">
<rect x="0.5" y="0.5" width="23" height="23" rx="11.5" fill="#D9D9D9"/>
<rect x="0.5" y="0.5" width="23" height="23" rx="11.5" stroke="#D9D9D9"/>
<g clip-path="url(#clip0_3042_1344)">
<path d="M10.7845 12.709C10.6955 12.709 10.6218 12.709 10.5477 12.709C10.2073 12.709 9.86683 12.7115 9.52639 12.7076C9.32311 12.7051 9.25536 12.6413 9.2537 12.4317C9.24871 11.8673 9.24871 11.3026 9.25403 10.7382C9.25602 10.5293 9.32743 10.4648 9.52838 10.4637C9.89805 10.4616 10.2674 10.463 10.6371 10.463C10.6816 10.463 10.7264 10.463 10.7849 10.463C10.7849 10.3971 10.7842 10.3447 10.7849 10.2924C10.7935 9.78217 10.7762 9.26941 10.8164 8.76202C10.9174 7.48458 11.8268 6.56009 13.0162 6.51172C13.5138 6.49129 14.0126 6.50347 14.5109 6.50491C14.6763 6.50527 14.747 6.58195 14.748 6.7604C14.7507 7.29359 14.7507 7.82678 14.748 8.35997C14.747 8.54164 14.6783 8.61367 14.4982 8.61833C14.1621 8.62728 13.8256 8.62728 13.4895 8.63266C13.0989 8.63911 12.9451 8.79785 12.9382 9.21924C12.9315 9.61734 12.9368 10.0154 12.9368 10.4279C12.9886 10.4304 13.0325 10.4347 13.076 10.4347C13.5038 10.435 13.9313 10.4347 14.3591 10.435C14.6377 10.4354 14.6988 10.5003 14.6992 10.7952C14.6995 11.3237 14.6998 11.8526 14.6989 12.3811C14.6985 12.6287 14.6417 12.6914 14.4115 12.6925C13.9715 12.6943 13.5314 12.6932 13.0913 12.6932C13.0461 12.6932 13.0009 12.6932 12.9372 12.6932C12.9372 12.7592 12.9372 12.8158 12.9372 12.8724C12.9372 14.2745 12.9372 15.677 12.9372 17.0792C12.9372 17.4565 12.8963 17.4998 12.5419 17.4998C12.0643 17.4998 11.587 17.5002 11.1094 17.4998C10.8457 17.4995 10.7849 17.435 10.7849 17.1537C10.7845 15.7336 10.7845 14.3132 10.7845 12.8932C10.7845 12.8398 10.7845 12.7868 10.7845 12.709Z" fill="#757575"/>
</g>
<defs>
<clipPath id="clip0_3042_1344">
<rect width="12" height="12" fill="white" transform="translate(6 6)"/>
</clipPath>
</defs>
</svg>
