<svg width="12" height="12" viewBox="0 0 12 12" fill="none" xmlns="http://www.w3.org/2000/svg">
<g id="social-icons" opacity="0.8">
<path id="Vector" d="M3.51211 1.15491C3.8876 1.2821 4.2448 1.45793 4.57461 1.67791C5.0404 1.55886 5.51935 1.49906 6.00011 1.49991C6.49661 1.49991 6.97561 1.56191 7.42461 1.67741C7.7543 1.45765 8.11133 1.28199 8.48661 1.15491C8.83511 1.03641 9.33161 0.844409 9.62661 1.17091C9.82661 1.39291 9.87661 1.76491 9.91211 2.04891C9.95211 2.36591 9.96161 2.77891 9.85661 3.18891C10.2581 3.70741 10.5001 4.32591 10.5001 4.99991C10.5001 6.02091 9.94711 6.90741 9.12861 7.52141C8.7347 7.81317 8.29782 8.04191 7.83361 8.19941C7.94061 8.44441 8.00011 8.71541 8.00011 8.99991V10.4999C8.00011 10.6325 7.94744 10.7597 7.85367 10.8535C7.7599 10.9472 7.63272 10.9999 7.50011 10.9999H4.50011C4.36751 10.9999 4.24033 10.9472 4.14656 10.8535C4.05279 10.7597 4.00011 10.6325 4.00011 10.4999V10.0044C3.52261 10.0629 3.12211 10.0109 2.78161 9.86641C2.42561 9.71541 2.17761 9.48141 1.99111 9.25741C1.81411 9.04541 1.62111 8.56741 1.34211 8.47441C1.2798 8.45366 1.22219 8.42084 1.17256 8.37783C1.12293 8.33481 1.08226 8.28244 1.05287 8.22371C0.993514 8.10509 0.98371 7.96775 1.02561 7.84191C1.06752 7.71606 1.1577 7.61202 1.27632 7.55266C1.39493 7.49331 1.53227 7.4835 1.65811 7.52541C1.99111 7.63641 2.20811 7.87641 2.35661 8.06941C2.59661 8.37941 2.79161 8.78441 3.17161 8.94591C3.32811 9.01241 3.55761 9.05591 3.91661 9.00691L4.00011 8.98991C4.00107 8.71781 4.05773 8.44878 4.16661 8.19941C3.70241 8.04192 3.26552 7.81318 2.87161 7.52141C2.05311 6.90741 1.50011 6.02141 1.50011 4.99991C1.50011 4.32691 1.74161 3.70891 2.14211 3.19091C2.03711 2.78091 2.04611 2.36691 2.08611 2.04941L2.08861 2.03041C2.12511 1.73941 2.16761 1.39691 2.37161 1.17091C2.66661 0.844409 3.16361 1.03691 3.51161 1.15541L3.51211 1.15491Z" fill="white"/>
</g>
</svg>
