<svg width="24" height="24" viewBox="0 0 24 24" fill="none" xmlns="http://www.w3.org/2000/svg">
<g clip-path="url(#clip0_2333_29)">
<path d="M12 23.5273C18.3662 23.5273 23.5271 18.3665 23.5271 12.0002C23.5271 5.634 18.3662 0.473145 12 0.473145C5.63376 0.473145 0.4729 5.634 0.4729 12.0002C0.4729 18.3665 5.63376 23.5273 12 23.5273Z" fill="#D9D9D9" stroke="#D9D9D9" stroke-width="0.886699"/>
<path d="M12 5.79696C14.0203 5.79696 14.2596 5.80464 15.0575 5.84105C15.7952 5.87472 16.1958 5.99798 16.4625 6.10157C16.8156 6.23883 17.0677 6.40283 17.3325 6.66759C17.5972 6.93235 17.7612 7.18443 17.8985 7.53759C18.0021 7.80424 18.1254 8.20488 18.159 8.94258C18.1954 9.74047 18.2031 9.97976 18.2031 12.0001C18.2031 14.0205 18.1954 14.2598 18.159 15.0576C18.1254 15.7953 18.0021 16.196 17.8985 16.4626C17.7612 16.8158 17.5972 17.0679 17.3325 17.3326C17.0677 17.5974 16.8156 17.7614 16.4625 17.8986C16.1958 18.0022 15.7952 18.1255 15.0575 18.1592C14.2597 18.1956 14.0204 18.2033 12 18.2033C9.97949 18.2033 9.74019 18.1956 8.94246 18.1592C8.20473 18.1255 7.80409 18.0022 7.53747 17.8986C7.18428 17.7614 6.9322 17.5974 6.66744 17.3326C6.40267 17.0679 6.23868 16.8158 6.10145 16.4626C5.99783 16.196 5.87456 15.7953 5.84089 15.0576C5.80449 14.2598 5.7968 14.0205 5.7968 12.0001C5.7968 9.97976 5.80449 9.74047 5.84089 8.94261C5.87456 8.20488 5.99783 7.80424 6.10145 7.53759C6.23868 7.18443 6.40267 6.93235 6.66744 6.66759C6.9322 6.40283 7.18428 6.23883 7.53747 6.10157C7.80409 5.99798 8.20473 5.87472 8.94243 5.84105C9.74031 5.80464 9.97961 5.79696 12 5.79696ZM12 4.43359C9.94501 4.43359 9.68736 4.4423 8.88031 4.47913C8.07492 4.51589 7.52491 4.64378 7.0436 4.83084C6.54603 5.02421 6.12407 5.28293 5.70342 5.70358C5.28278 6.12422 5.02406 6.54619 4.83069 7.04375C4.64363 7.52506 4.51574 8.07507 4.47898 8.88047C4.44215 9.68748 4.43347 9.94516 4.43347 12.0001C4.43347 14.0551 4.44215 14.3127 4.47898 15.1198C4.51574 15.9252 4.64363 16.4752 4.83069 16.9565C5.02406 17.454 5.28278 17.876 5.70342 18.2966C6.12407 18.7173 6.54603 18.976 7.0436 19.1694C7.52491 19.3564 8.07492 19.4843 8.88031 19.5211C9.68736 19.5579 9.94501 19.5666 12 19.5666C14.0549 19.5666 14.3126 19.5579 15.1196 19.5211C15.925 19.4843 16.475 19.3564 16.9563 19.1694C17.4539 18.976 17.8759 18.7173 18.2965 18.2966C18.7171 17.876 18.9759 17.454 19.1692 16.9565C19.3563 16.4752 19.4842 15.9252 19.5209 15.1198C19.5578 14.3127 19.5665 14.0551 19.5665 12.0001C19.5665 9.94516 19.5578 9.68748 19.5209 8.88047C19.4842 8.07507 19.3563 7.52506 19.1692 7.04375C18.9759 6.54619 18.7171 6.12422 18.2965 5.70358C17.8759 5.28293 17.4539 5.02421 16.9563 4.83084C16.475 4.64378 15.925 4.51589 15.1196 4.47913C14.3126 4.4423 14.0549 4.43359 12 4.43359ZM12 8.1146C9.85406 8.1146 8.11445 9.85421 8.11445 12.0001C8.11445 14.146 9.85406 15.8856 12 15.8856C14.1459 15.8856 15.8855 14.146 15.8855 12.0001C15.8855 9.85421 14.1459 8.1146 12 8.1146ZM12 14.5223C10.607 14.5223 9.47778 13.3931 9.47778 12.0001C9.47778 10.6072 10.607 9.47793 12 9.47793C13.3929 9.47793 14.5221 10.6072 14.5221 12.0001C14.5221 13.3931 13.3929 14.5223 12 14.5223ZM16.947 7.96109C16.947 8.46256 16.5405 8.86908 16.039 8.86908C15.5375 8.86908 15.131 8.46256 15.131 7.96109C15.131 7.45962 15.5375 7.05312 16.039 7.05312C16.5405 7.05312 16.947 7.45962 16.947 7.96109Z" fill="#757575"/>
</g>
<defs>
<clipPath id="clip0_2333_29">
<rect width="24" height="24" fill="white"/>
</clipPath>
</defs>
</svg>
