<svg width="24" height="24" viewBox="0 0 24 24" fill="none" xmlns="http://www.w3.org/2000/svg">
<g clip-path="url(#clip0_2333_14)">
<path d="M12 23.5C18.3513 23.5 23.5 18.3513 23.5 12C23.5 5.64873 18.3513 0.5 12 0.5C5.64873 0.5 0.5 5.64873 0.5 12C0.5 18.3513 5.64873 23.5 12 23.5Z" fill="#D9D9D9" stroke="#D9D9D9"/>
<mask id="mask0_2333_14" style="mask-type:luminance" maskUnits="userSpaceOnUse" x="6" y="6" width="12" height="12">
<path d="M18 6H6V18H18V6Z" fill="white"/>
</mask>
<g mask="url(#mask0_2333_14)">
<path d="M12.7197 10.8452C12.991 10.5068 13.2847 10.2489 13.6054 10.0152C14.865 9.09817 17.0845 9.50877 17.7305 11.3654C17.9176 11.9029 17.9946 12.4551 17.9961 13.0192C17.9995 14.4636 17.9963 15.9082 17.9999 17.3526C18.0001 17.4519 17.9677 17.4664 17.8794 17.466C17.1009 17.4626 16.3224 17.4618 15.5439 17.4667C15.4414 17.4673 15.4237 17.4353 15.4239 17.3419C15.4267 16.0182 15.4264 14.6943 15.4256 13.3706C15.4254 13.0068 15.389 12.6494 15.254 12.3062C14.8945 11.3927 13.7573 11.4273 13.2439 11.892C12.9136 12.1911 12.7218 12.5524 12.7226 13.0074C12.7239 13.7816 12.7203 14.5559 12.7196 15.3301C12.719 16.0003 12.7177 16.6706 12.7214 17.3408C12.722 17.4353 12.7026 17.4673 12.6 17.4665C11.8215 17.4618 11.043 17.4622 10.2645 17.4662C10.172 17.4666 10.147 17.4453 10.1472 17.3504C10.15 14.8485 10.1502 12.3468 10.147 9.84491C10.1468 9.74132 10.1799 9.7244 10.2731 9.72478C11.0475 9.72835 11.8219 9.72835 12.5962 9.72459C12.6915 9.72421 12.7244 9.74433 12.7222 9.84641C12.7152 10.1667 12.7197 10.4873 12.7197 10.8452Z" fill="#757575"/>
<path d="M8.72715 13.5943C8.72715 14.8388 8.72583 16.0832 8.7294 17.3277C8.72978 17.4315 8.7138 17.4685 8.59667 17.4674C7.82249 17.461 7.04812 17.462 6.27394 17.4667C6.17223 17.4672 6.15362 17.4362 6.15381 17.3422C6.15625 14.845 6.15607 12.3476 6.154 9.85024C6.154 9.76057 6.16547 9.7224 6.27187 9.72316C7.05019 9.72842 7.8287 9.72804 8.60701 9.72353C8.70778 9.72297 8.72959 9.75173 8.72921 9.84817C8.72602 11.0969 8.72715 12.3456 8.72715 13.5943Z" fill="#757575"/>
<path d="M7.43306 8.6721C6.77732 8.67247 6.26502 8.33464 6.07495 7.77647C5.80028 6.9707 6.30788 6.14595 7.15106 6.02412C7.5092 5.97242 7.85737 5.99743 8.18393 6.16193C8.68758 6.41554 8.95266 6.94589 8.87971 7.53639C8.81485 8.06298 8.40689 8.4997 7.86527 8.6219C7.72314 8.65405 7.57932 8.67454 7.43306 8.6721Z" fill="#757575"/>
</g>
</g>
<defs>
<clipPath id="clip0_2333_14">
<rect width="24" height="24" fill="white"/>
</clipPath>
</defs>
</svg>
