<svg width="24" height="24" viewBox="0 0 24 24" fill="none" xmlns="http://www.w3.org/2000/svg">
<rect x="0.5" y="0.5" width="23" height="23" rx="11.5" fill="#D9D9D9"/>
<rect x="0.5" y="0.5" width="23" height="23" rx="11.5" stroke="#D9D9D9"/>
<g clip-path="url(#clip0_3042_1334)">
<path d="M17.0425 8.3665L18 7.4505V7.25H14.683L12.319 13.134L9.6295 7.25H6.1515V7.4505L7.27 8.797C7.379 8.8965 7.436 9.042 7.4215 9.1885V14.48C7.456 14.6705 7.394 14.8665 7.26 15.005L6 16.532V16.73H9.5725V16.5295L8.3125 15.005C8.176 14.866 8.1115 14.6735 8.139 14.48V9.903L11.275 16.7325H11.6395L14.336 9.903V15.3435C14.336 15.487 14.336 15.5165 14.242 15.6105L13.272 16.549V16.75H17.978V16.5495L17.043 15.634C16.961 15.572 16.9185 15.468 16.936 15.367V8.6335C16.9185 8.532 16.9605 8.428 17.0425 8.3665Z" fill="#757575"/>
</g>
<defs>
<clipPath id="clip0_3042_1334">
<rect width="12" height="12" fill="white" transform="translate(6 6)"/>
</clipPath>
</defs>
</svg>
