<svg width="24" height="24" viewBox="0 0 24 24" fill="none" xmlns="http://www.w3.org/2000/svg">
<circle cx="12" cy="12" r="11.5" fill="#292929" stroke="#44454B"/>
<path d="M17.0425 8.31651L18 7.40051V7.20001H14.683L12.319 13.084L9.6295 7.20001H6.1515V7.40051L7.27 8.74701C7.379 8.84651 7.436 8.99201 7.4215 9.13851V14.43C7.456 14.6205 7.394 14.8165 7.26 14.955L6 16.482V16.68H9.5725V16.4795L8.3125 14.955C8.176 14.816 8.1115 14.6235 8.139 14.43V9.85301L11.275 16.6825H11.6395L14.336 9.85301V15.2935C14.336 15.437 14.336 15.4665 14.242 15.5605L13.272 16.499V16.7H17.978V16.4995L17.043 15.584C16.961 15.522 16.9185 15.418 16.936 15.317V8.58351C16.9185 8.48201 16.9605 8.37801 17.0425 8.31651Z" fill="white"/>
</svg>
