<svg width="24" height="24" viewBox="0 0 24 24" fill="none" xmlns="http://www.w3.org/2000/svg">
<rect x="0.5" y="0.5" width="23" height="23" rx="11.5" fill="#D9D9D9"/>
<rect x="0.5" y="0.5" width="23" height="23" rx="11.5" stroke="#D9D9D9"/>
<g clip-path="url(#clip0_3042_1324)">
<path d="M10.7087 13.5909L10.5102 16.3829C10.7942 16.3829 10.9172 16.2609 11.0647 16.1144L12.3962 14.8419L15.1553 16.8624C15.6613 17.1444 16.0178 16.9959 16.1543 16.3969L17.9654 7.91072L17.9659 7.91022C18.1264 7.16221 17.6954 6.8697 17.2024 7.0532L6.5571 11.1288C5.83058 11.4108 5.84159 11.8158 6.4336 11.9993L9.15516 12.8458L15.4768 8.89025C15.7743 8.69324 16.0448 8.80225 15.8223 8.99925L10.7087 13.5909Z" fill="#757575"/>
</g>
<defs>
<clipPath id="clip0_3042_1324">
<rect width="12" height="12" fill="white" transform="translate(6 6)"/>
</clipPath>
</defs>
</svg>
