<svg width="8" height="10" viewBox="0 0 8 10" fill="none" xmlns="http://www.w3.org/2000/svg">
<path d="M6.30008 1.91C5.95829 1.51981 5.76994 1.01872 5.77008 0.5H4.22508V6.7C4.21316 7.03551 4.07151 7.35331 3.82996 7.58647C3.58841 7.81963 3.2658 7.94995 2.93008 7.95C2.22008 7.95 1.63008 7.37 1.63008 6.65C1.63008 5.79 2.46008 5.145 3.31508 5.41V3.83C1.59008 3.6 0.0800781 4.94 0.0800781 6.65C0.0800781 8.315 1.46008 9.5 2.92508 9.5C4.49508 9.5 5.77008 8.225 5.77008 6.65V3.505C6.39658 3.95493 7.14876 4.19632 7.92008 4.195V2.65C7.92008 2.65 6.98008 2.695 6.30008 1.91Z" fill="white"/>
</svg>
