<svg width="24" height="24" viewBox="0 0 24 24" fill="none" xmlns="http://www.w3.org/2000/svg">
<rect x="0.5" y="0.5" width="23" height="23" rx="11.5" fill="#D9D9D9"/>
<rect x="0.5" y="0.5" width="23" height="23" rx="11.5" stroke="#D9D9D9"/>
<g clip-path="url(#clip0_3042_1329)">
<path d="M16.5684 9.61915C17.036 9.28154 17.4294 8.86013 17.75 8.3749V8.37441C17.3221 8.5649 16.8669 8.69156 16.3916 8.75295C16.8803 8.45626 17.2536 7.99003 17.429 7.42831C16.9733 7.70454 16.4701 7.89941 15.934 8.00854C15.5013 7.53987 14.8846 7.25 14.2118 7.25C12.9066 7.25 11.8558 8.32715 11.8558 9.64741C11.8558 9.83741 11.8716 10.0201 11.9104 10.194C9.9506 10.0966 8.21602 9.14172 7.05069 7.68651C6.84752 8.04556 6.72773 8.45626 6.72773 8.89813C6.72773 9.72828 7.14796 10.4639 7.77519 10.8902C7.39617 10.8829 7.02481 10.7708 6.71 10.595V10.6213C6.71 11.7861 7.52698 12.7537 8.59888 12.9768C8.40673 13.0304 8.19781 13.0557 7.98075 13.0557C7.82981 13.0557 7.67744 13.0469 7.53465 13.0148C7.83987 13.9638 8.70717 14.6619 9.73737 14.6848C8.93525 15.3226 7.91654 15.7069 6.81398 15.7069C6.62088 15.7069 6.43544 15.6982 6.25 15.6743C7.29458 16.3588 8.53179 16.75 9.86675 16.75C14.0274 16.75 16.739 13.2209 16.5684 9.61915Z" fill="#757575"/>
</g>
<defs>
<clipPath id="clip0_3042_1329">
<rect width="12" height="12" fill="white" transform="translate(6 6)"/>
</clipPath>
</defs>
</svg>
