<svg width="24" height="24" viewBox="0 0 24 24" fill="none" xmlns="http://www.w3.org/2000/svg">
<rect x="0.5" y="0.5" width="23" height="23" rx="11.5" fill="#D9D9D9"/>
<rect x="0.5" y="0.5" width="23" height="23" rx="11.5" stroke="#D9D9D9"/>
<g clip-path="url(#clip0_3042_1319)">
<path fill-rule="evenodd" clip-rule="evenodd" d="M6.50933 9.6353H9.02101C9.30361 8.39183 9.69451 7.20047 10.6683 6.25C9.59987 6.50138 8.6901 6.97858 7.90963 7.69373C7.30979 8.24303 6.84491 8.8864 6.50933 9.6353ZM17.4908 9.6353H14.9782C14.6962 8.39641 14.307 7.20473 13.3596 6.2772C13.7721 6.24443 15.1338 6.89664 15.8163 7.45578C16.5411 8.04966 17.0969 8.76874 17.4908 9.6353ZM14.1507 9.63301H9.84547C10.0648 8.71893 10.349 7.84253 10.9545 7.10248C11.1175 6.90321 11.3074 6.73245 11.5397 6.61184C11.8603 6.44502 12.1779 6.45419 12.4921 6.62856C12.797 6.79767 13.0237 7.04709 13.2186 7.326C13.6608 7.95921 13.9138 8.67108 14.0994 9.40982C14.1116 9.4592 14.1228 9.50889 14.1346 9.56153L14.1346 9.56164L14.1346 9.56165L14.1346 9.5617C14.1398 9.58483 14.1451 9.60852 14.1507 9.63301ZM9.70718 13.5647C9.56488 12.5178 9.56455 11.4815 9.70718 10.4357H14.2917C14.4353 11.4766 14.4343 12.5159 14.2923 13.5647H9.70718ZM14.1534 14.367H9.84681C10.0374 15.187 10.294 15.9693 10.7742 16.6645C10.9535 16.9234 11.1625 17.1561 11.4331 17.3279C11.797 17.5586 12.1759 17.5858 12.5325 17.34C12.7504 17.1895 12.9567 17.0044 13.119 16.7976C13.6805 16.0827 13.9471 15.2408 14.1534 14.367ZM15.1001 13.5637C15.2324 12.5113 15.2311 11.4746 15.1008 10.4321H17.7924C17.8079 10.5098 17.8246 10.5878 17.8413 10.6661C17.8786 10.8407 17.9162 11.0169 17.9417 11.1947C18.0524 11.9659 18.0047 12.7292 17.8051 13.484C17.7871 13.5525 17.7604 13.5755 17.6885 13.5755C17.1305 13.5739 16.5726 13.5739 16.0147 13.5738H16.0126C15.7344 13.5738 15.4563 13.5737 15.1781 13.5735C15.1621 13.5735 15.1461 13.5709 15.1283 13.568C15.1195 13.5665 15.1101 13.565 15.1001 13.5637ZM8.90038 13.5738C8.76742 12.5175 8.76775 11.4805 8.89905 10.4363C8.88941 10.4345 8.88169 10.4327 8.87519 10.4312C8.86416 10.4287 8.85661 10.4269 8.84906 10.4271C8.59922 10.4269 8.34938 10.4269 8.09954 10.4268H8.09953H8.09952H8.09951H8.0995C7.49993 10.4267 6.90041 10.4266 6.30105 10.4245C6.22007 10.4242 6.20874 10.4661 6.19308 10.5261C5.93548 11.5054 5.93748 12.4844 6.18808 13.465C6.21174 13.5584 6.25339 13.5758 6.34071 13.5755C6.96147 13.5732 7.58224 13.5735 8.203 13.5737L8.77608 13.5738H8.90038ZM14.9782 14.3654H17.4902C17.1253 15.1772 16.6097 15.8658 15.9392 16.441C15.1898 17.084 14.3297 17.5173 13.3322 17.75C14.3037 16.8005 14.6949 15.6108 14.9782 14.3654ZM10.6683 17.7487C9.69584 16.7992 9.30528 15.6114 9.02235 14.3654H6.50999C6.89756 15.225 7.45175 15.9461 8.1779 16.538C8.90205 17.1283 9.7225 17.5291 10.6683 17.7487Z" fill="#757575"/>
</g>
<defs>
<clipPath id="clip0_3042_1319">
<rect width="12" height="12" fill="white" transform="translate(6 6)"/>
</clipPath>
</defs>
</svg>
