<svg width="24" height="24" viewBox="0 0 24 24" fill="none" xmlns="http://www.w3.org/2000/svg">
<rect x="0.5" y="0.5" width="23" height="23" rx="11.5" fill="#D9D9D9"/>
<rect x="0.5" y="0.5" width="23" height="23" rx="11.5" stroke="#D9D9D9"/>
<g clip-path="url(#clip0_3042_1350)">
<path d="M11.9756 7.75381C13.2071 7.80258 14.4395 7.80811 15.6708 7.86469C15.961 7.87802 16.252 7.91688 16.5378 7.97003C17.2304 8.09881 17.6735 8.57126 17.8046 9.30754C17.986 10.326 18.0223 11.3558 17.9888 12.3859C17.9655 13.1059 17.8966 13.8253 17.8285 14.5431C17.7781 15.0736 17.5678 15.5251 17.1058 15.8255C16.8263 16.0073 16.5111 16.0591 16.1916 16.0932C14.9515 16.2256 13.7061 16.2555 12.4611 16.2492C11.2121 16.2429 9.96318 16.2048 8.71478 16.1637C8.30824 16.1503 7.90132 16.0983 7.49834 16.0378C6.81795 15.9353 6.33453 15.4644 6.21649 14.7523C6.12627 14.2086 6.07665 13.6565 6.03812 13.1059C5.97591 12.2161 5.99339 11.3246 6.06481 10.4359C6.09827 10.0204 6.14432 9.60282 6.2289 9.19572C6.3802 8.46648 6.88335 8.02776 7.6098 7.93574C8.77756 7.78772 9.95209 7.77458 11.1261 7.75458C11.4091 7.74981 11.6924 7.75381 11.9756 7.75381C11.9756 7.74067 11.9752 7.76677 11.9756 7.75381ZM10.8131 13.8203C11.8546 13.2122 12.8832 12.6118 13.9288 12.0012C12.8817 11.3899 11.8529 10.7893 10.8131 10.1823C10.8131 11.4021 10.8131 12.6023 10.8131 13.8203Z" fill="#757575"/>
</g>
<defs>
<clipPath id="clip0_3042_1350">
<rect width="12" height="12" fill="white" transform="translate(6 6)"/>
</clipPath>
</defs>
</svg>
