<svg width="20" height="20" viewBox="0 0 20 20" fill="none" xmlns="http://www.w3.org/2000/svg">
<g clip-path="url(#clip0_165_6195)">
<circle cx="10" cy="10" r="10" fill="white"/>
<path fill-rule="evenodd" clip-rule="evenodd" d="M10 20C15.5228 20 20 15.5229 20 10C20 4.47716 15.5228 0 10 0C4.47715 0 0 4.47716 0 10C0 15.5229 4.47715 20 10 20ZM6.97845 14.5305H4.63254C4.07634 14.5305 3.79823 14.5305 3.63168 14.4227C3.45168 14.3063 3.33811 14.111 3.32608 13.8971C3.31492 13.6992 3.45267 13.4579 3.72815 12.9753L3.72828 12.9751L8.86451 3.97697C9.14404 3.4872 9.28383 3.24232 9.46169 3.15116C9.65381 3.05268 9.88166 3.05251 10.0739 3.15073C10.2519 3.24161 10.3921 3.48631 10.6723 3.97564L11.8569 6.0439L11.8569 6.04396C12.0607 6.39976 12.1626 6.57769 12.2074 6.76538C12.2562 6.96974 12.2563 7.18263 12.2077 7.38699C12.1631 7.57475 12.0613 7.7528 11.8578 8.10882L8.78639 13.4819C8.57993 13.8431 8.47669 14.0237 8.33523 14.1587C8.18126 14.3057 7.99455 14.414 7.79047 14.4747C7.60296 14.5305 7.3948 14.5305 6.97845 14.5305ZM15.3479 14.5305H12.6281C12.0669 14.5305 11.7862 14.5305 11.6192 14.4218C11.4386 14.3044 11.3254 14.1076 11.3147 13.8927C11.3048 13.6938 11.4461 13.4515 11.7286 12.9669L13.0862 10.6376C13.3651 10.1592 13.5046 9.91994 13.6811 9.83033C13.872 9.73348 14.0976 9.73333 14.2886 9.82987C14.4653 9.9192 14.605 10.1582 14.8846 10.6362L14.8846 10.6364L16.2468 12.9656C16.5304 13.4505 16.6721 13.693 16.6624 13.892C16.652 14.1071 16.5388 14.3041 16.3582 14.4217C16.1911 14.5305 15.91 14.5305 15.3479 14.5305Z" fill="#D04D47"/>
</g>
<defs>
<clipPath id="clip0_165_6195">
<rect width="20" height="20" fill="white"/>
</clipPath>
</defs>
</svg>
