<svg width="20" height="20" viewBox="0 0 20 20" fill="none" xmlns="http://www.w3.org/2000/svg">
<path d="M10 20C15.5228 20 20 15.5228 20 10C20 4.47715 15.5228 0 10 0C4.47715 0 0 4.47715 0 10C0 15.5228 4.47715 20 10 20Z" fill="#EDBC04"/>
<path d="M10.1321 6.93141L12.1394 8.93908C12.2116 9.0113 12.3287 9.0113 12.4008 8.93908L13.4589 7.88083C13.5311 7.80865 13.5311 7.69161 13.4589 7.61943L10.132 4.29184C10.0599 4.21961 9.94278 4.21961 9.8706 4.29184L6.54498 7.61822C6.4728 7.6904 6.4728 7.80744 6.54498 7.87962L7.60301 8.93787C7.67519 9.01009 7.79227 9.01009 7.86445 8.93787L9.8706 6.93141C9.94287 6.85918 10.0599 6.85918 10.1321 6.93141Z" fill="white"/>
<path d="M5.35122 8.81121L4.29315 9.86951C4.22097 9.94168 4.22097 10.0587 4.29315 10.1309L5.35113 11.1892C5.42331 11.2614 5.5404 11.2614 5.61258 11.1892L6.67065 10.1309C6.74283 10.0587 6.74283 9.94164 6.67065 9.86946L5.61262 8.81125C5.54049 8.73903 5.42345 8.73903 5.35122 8.81121Z" fill="white"/>
<path d="M10.1309 15.7095L13.4583 12.3813C13.5305 12.3091 13.5305 12.192 13.4582 12.1198L12.3996 11.0621C12.3274 10.99 12.2104 10.99 12.1382 11.0622L10.1309 13.0698C10.0587 13.1421 9.94161 13.1421 9.86943 13.0698L7.8631 11.0632C7.79097 10.9911 7.67406 10.991 7.60184 11.063L6.54224 12.1199C6.46988 12.1921 6.46979 12.3092 6.54206 12.3815L9.86943 15.7094C9.94165 15.7816 10.0587 15.7816 10.1309 15.7095Z" fill="white"/>
<path d="M14.3886 8.81195L13.3305 9.87024C13.2583 9.94242 13.2583 10.0595 13.3305 10.1316L14.3885 11.1899C14.4607 11.2621 14.5778 11.2621 14.65 11.1899L15.708 10.1316C15.7802 10.0594 15.7802 9.94238 15.708 9.8702L14.65 8.81195C14.5778 8.73977 14.4608 8.73977 14.3886 8.81195Z" fill="white"/>
<path d="M11.2101 9.87006L10.132 8.79172C10.0598 8.71949 9.94272 8.71949 9.87054 8.79172L8.79242 9.87006C8.72024 9.94224 8.72024 10.0593 8.79242 10.1315L9.87054 11.2099C9.94272 11.2821 10.0598 11.2821 10.132 11.2099L11.2101 10.1315C11.2823 10.0592 11.2823 9.94224 11.2101 9.87006Z" fill="white"/>
</svg>
