<svg width="20" height="20" viewBox="0 0 20 20" fill="none" xmlns="http://www.w3.org/2000/svg">
<path d="M10 20C15.5228 20 20 15.5228 20 10C20 4.47715 15.5228 0 10 0C4.47715 0 0 4.47715 0 10C0 15.5228 4.47715 20 10 20Z" fill="#6398FF"/>
<path d="M9.88333 4.77505L7.07486 9.30423C7.04095 9.35891 7.05747 9.43071 7.11189 9.46505L9.97689 11.2745C10.0156 11.299 10.0649 11.2986 10.1033 11.2738L12.8905 9.46583C12.9442 9.43098 12.9601 9.35946 12.926 9.3052L10.0822 4.77446C10.0361 4.70106 9.92904 4.70138 9.88333 4.77505Z" fill="white"/>
<path d="M10.0803 12.8419L12.542 11.3108C12.6488 11.2444 12.7709 11.3697 12.7018 11.4747L10.2215 15.2424C10.1763 15.311 10.0762 15.313 10.0283 15.2462L7.3444 11.5012C7.26991 11.3972 7.39205 11.2661 7.501 11.333L9.95705 12.8422C9.9949 12.8655 10.0426 12.8653 10.0803 12.8419Z" fill="white"/>
</svg>
