<svg width="20" height="20" viewBox="0 0 20 20" fill="none" xmlns="http://www.w3.org/2000/svg">
<circle cx="10" cy="10" r="10" fill="#2B6BF6"/>
<path d="M8.89614 3.13354C9.23497 2.95549 9.75052 2.95549 10.0893 3.13354L13.5467 4.95041C13.7508 5.05764 13.8628 5.21744 13.8829 5.38239H13.8862V14.5149C13.8817 14.6949 13.7686 14.8736 13.5467 14.9902L10.0893 16.8071C9.75052 16.9851 9.23497 16.9851 8.89614 16.8071L5.43878 14.9902C5.21782 14.8741 5.11178 14.6941 5.10653 14.5149C5.10601 14.4973 5.10595 14.4826 5.10645 14.4704L5.10643 5.44105C5.10608 5.43116 5.10604 5.42129 5.10633 5.41145L5.10653 5.38239L5.10808 5.38238C5.12344 5.21562 5.23042 5.05991 5.43878 4.95041L8.89614 3.13354ZM13.3419 10.4774L10.0893 12.1867C9.75052 12.3647 9.23497 12.3647 8.89614 12.1867L5.65065 10.4812V14.4969L8.89614 16.1934C9.07941 16.2908 9.26962 16.3858 9.45561 16.3979L9.49275 16.3991C9.68655 16.3997 9.87471 16.3018 10.0655 16.2091L13.3419 14.4823V10.4774ZM4.54419 14.3164C4.54419 14.6662 4.58507 14.8962 4.66622 15.0583C4.73348 15.1926 4.83441 15.2952 5.01869 15.4201L5.02921 15.4272C5.06965 15.4543 5.1142 15.4827 5.16843 15.516L5.23238 15.555L5.42876 15.673L5.1471 16.1363L4.9273 16.0042L4.89036 15.9816C4.82681 15.9425 4.77413 15.9091 4.725 15.8761C4.1998 15.5238 4.00392 15.1398 4.00006 14.3407L4 14.3164H4.54419ZM9.22057 8.02959C9.1954 8.0382 9.17181 8.04814 9.1503 8.05944L5.69293 9.87632C5.68931 9.87822 5.68584 9.88011 5.68255 9.88197L5.67962 9.88367L5.68505 9.88675L5.69293 9.89101L9.1503 11.7079C9.17181 11.7192 9.1954 11.7291 9.22057 11.7377V8.02959ZM9.76493 8.02959V11.7377C9.79009 11.7291 9.81368 11.7192 9.83518 11.7079L13.2926 9.89101C13.2962 9.8891 13.2997 9.88722 13.3029 9.88536L13.3059 9.88367L13.3004 9.88058L13.2926 9.87632L9.83518 8.05944C9.81368 8.04814 9.79009 8.0382 9.76493 8.02959ZM13.3419 6.03023L10.2405 7.66008L13.3419 9.28993V6.03023ZM5.65065 6.03404V9.28612L8.74492 7.66008L5.65065 6.03404ZM9.83518 3.61231C9.65539 3.51783 9.3301 3.51783 9.1503 3.61231L5.69293 5.42919C5.68931 5.4311 5.68584 5.43298 5.68255 5.43484L5.67962 5.43653L5.68505 5.43963L5.69293 5.44388L9.1503 7.26076C9.3301 7.35524 9.65539 7.35524 9.83518 7.26076L13.2926 5.44388C13.2962 5.44198 13.2997 5.44009 13.3029 5.43822L13.3059 5.43653L13.3004 5.43344L13.2926 5.42919L9.83518 3.61231ZM13.8529 3.81155L14.0727 3.94363L14.1096 3.9662C14.1732 4.00523 14.2259 4.03876 14.275 4.07172C14.8002 4.42401 14.9961 4.80811 14.9999 5.60712L15 5.63146H14.4558C14.4558 5.28155 14.4149 5.05158 14.3338 4.88955C14.2665 4.75526 14.1656 4.65264 13.9813 4.52776L13.9708 4.52067C13.9304 4.49354 13.8858 4.46512 13.8316 4.43172L13.7676 4.39275L13.5712 4.27485L13.8529 3.81155Z" fill="white"/>
</svg>
