<svg width="20" height="20" viewBox="0 0 20 20" fill="none" xmlns="http://www.w3.org/2000/svg">
<path d="M10 20C15.5228 20 20 15.5228 20 10C20 4.47715 15.5228 0 10 0C4.47715 0 0 4.47715 0 10C0 15.5228 4.47715 20 10 20Z" fill="#784FDD"/>
<path d="M12.9099 8.04692C12.6991 7.9204 12.4249 7.9204 12.193 8.04692L10.5483 9.01687L9.43073 9.64945L7.78603 10.6194C7.57517 10.7459 7.30105 10.7459 7.06911 10.6194L5.76178 9.86031C5.55092 9.73379 5.40332 9.50185 5.40332 9.24881V7.75171C5.40332 7.49868 5.52984 7.26674 5.76178 7.14022L7.04802 6.40221C7.25888 6.2757 7.533 6.2757 7.76494 6.40221L9.05119 7.14022C9.26204 7.26674 9.40965 7.49868 9.40965 7.75171V8.72167L10.5272 8.068V7.09805C10.5272 6.84502 10.4007 6.61307 10.1687 6.48656L7.78603 5.09489C7.57517 4.96837 7.30105 4.96837 7.06911 5.09489L4.64423 6.48656C4.41228 6.61307 4.28577 6.84502 4.28577 7.09805V9.90248C4.28577 10.1555 4.41228 10.3875 4.64423 10.514L7.06911 11.9056C7.27997 12.0322 7.55409 12.0322 7.78603 11.9056L9.43073 10.9568L10.5483 10.3031L12.193 9.35424C12.4038 9.22773 12.678 9.22773 12.9099 9.35424L14.1962 10.0923C14.407 10.2188 14.5546 10.4507 14.5546 10.7037V12.2008C14.5546 12.4539 14.4281 12.6858 14.1962 12.8123L12.9099 13.5714C12.6991 13.6979 12.4249 13.6979 12.193 13.5714L10.9067 12.8334C10.6959 12.7069 10.5483 12.475 10.5483 12.2219V11.252L9.43073 11.9056V12.8756C9.43073 13.1286 9.55725 13.3606 9.78919 13.4871L12.2141 14.8788C12.4249 15.0053 12.6991 15.0053 12.931 14.8788L15.3559 13.4871C15.5667 13.3606 15.7143 13.1286 15.7143 12.8756V10.0712C15.7143 9.81813 15.5878 9.58619 15.3559 9.45967L12.9099 8.04692Z" fill="white"/>
</svg>
