<svg width="20" height="20" viewBox="0 0 20 20" fill="none" xmlns="http://www.w3.org/2000/svg">
<path d="M10 20C15.5228 20 20 15.5228 20 10C20 4.47715 15.5228 0 10 0C4.47715 0 0 4.47715 0 10C0 15.5228 4.47715 20 10 20Z" fill="url(#paint0_linear_165_6165)"/>
<path fill-rule="evenodd" clip-rule="evenodd" d="M6.71748 12.8625C6.74929 12.828 6.7881 12.8 6.83123 12.7806C6.87436 12.7612 6.92072 12.7509 6.96762 12.7499H14.8226C14.856 12.7504 14.8884 12.7601 14.9159 12.779C14.9434 12.7973 14.9655 12.8232 14.9784 12.8539C14.9919 12.8846 14.9957 12.9181 14.9903 12.9509C14.9849 12.9838 14.9698 13.014 14.9477 13.0388L13.2824 14.8873C13.2506 14.9218 13.2118 14.9499 13.1687 14.9693C13.1256 14.9887 13.0792 14.9989 13.0323 15H5.17247C5.13905 14.9995 5.1067 14.9892 5.07921 14.9709C5.05172 14.9526 5.02961 14.9267 5.01668 14.896C5.00374 14.8652 4.99942 14.8318 5.00482 14.7989C5.01021 14.766 5.0253 14.7359 5.0474 14.7111L6.71748 12.8625ZM14.9547 11.3299C14.9773 11.3547 14.9919 11.3849 14.9973 11.4178C15.0027 11.4507 14.9989 11.4841 14.9854 11.5148C14.9719 11.5456 14.9504 11.5714 14.9229 11.5898C14.8954 11.6081 14.863 11.6183 14.8296 11.6189L6.97247 11.6253C6.92557 11.6243 6.87867 11.614 6.83608 11.5946C6.79296 11.5752 6.75468 11.5472 6.72234 11.5127L5.04471 9.67008C5.02207 9.64529 5.00751 9.6151 5.00212 9.58221C4.99673 9.54933 5.0005 9.5159 5.01398 9.48518C5.02746 9.45445 5.04902 9.42857 5.07651 9.41024C5.10401 9.39192 5.13635 9.38167 5.16978 9.38113L13.0269 9.37466C13.0738 9.37574 13.1207 9.38599 13.1633 9.40539C13.2064 9.4248 13.2447 9.45229 13.2771 9.48733L14.9547 11.3299ZM6.71748 6.11267C6.74929 6.07817 6.7881 6.05013 6.83123 6.03073C6.87436 6.01132 6.92072 6.00108 6.96762 6L14.8275 6.00647C14.8609 6.00701 14.8932 6.01671 14.9207 6.03558C14.9482 6.05391 14.9703 6.07978 14.9833 6.11051C14.9962 6.14124 15.0005 6.17466 14.9951 6.20755C14.9897 6.24043 14.9746 6.27062 14.9525 6.29542L13.2824 8.13801C13.2506 8.17251 13.2118 8.20054 13.1687 8.21995C13.1256 8.23935 13.0792 8.2496 13.0323 8.25068H5.17247C5.13905 8.25014 5.1067 8.23989 5.07921 8.22156C5.05172 8.20324 5.02961 8.17682 5.01668 8.14663C5.00374 8.1159 4.99942 8.08248 5.00482 8.0496C5.01021 8.01671 5.0253 7.98652 5.0474 7.96173L6.71748 6.11267Z" fill="white"/>
<defs>
<linearGradient id="paint0_linear_165_6165" x1="-0.378459" y1="19.3404" x2="20.3785" y2="0.65953" gradientUnits="userSpaceOnUse">
<stop stop-color="#9945FF"/>
<stop offset="0.14" stop-color="#8A53F4"/>
<stop offset="0.42" stop-color="#6377D6"/>
<stop offset="0.79" stop-color="#24B0A7"/>
<stop offset="0.99" stop-color="#00D18C"/>
<stop offset="1" stop-color="#00D18C"/>
</linearGradient>
</defs>
</svg>
