<svg width="20" height="20" viewBox="0 0 20 20" fill="none" xmlns="http://www.w3.org/2000/svg">
<path d="M10 20C15.5228 20 20 15.5228 20 10C20 4.47715 15.5228 0 10 0C4.47715 0 0 4.47715 0 10C0 15.5228 4.47715 20 10 20Z" fill="#172852"/>
<path d="M8.0548 4.46902C9.2258 4.03102 10.5438 4.03002 11.7368 4.39002C13.2898 4.87202 14.6008 6.04403 15.2858 7.51504C15.4748 7.93404 15.6558 8.37105 15.6738 8.83705C14.8008 8.33105 13.8438 8.00304 12.8848 7.70404C11.3508 7.15104 9.7448 6.76704 8.2928 6.00703C7.9548 5.80503 7.5238 5.59803 7.4318 5.17703C7.3948 4.81302 7.7798 4.61002 8.0548 4.46902Z" fill="#FFD83D"/>
<path d="M4.51991 8.00905C4.85891 7.08905 5.41491 6.23505 6.16991 5.60205C6.36191 7.18105 7.03391 8.70705 8.14391 9.85505C9.47491 11.2381 11.3709 12.0871 13.2999 12.0551C14.0659 12.0791 14.8149 11.9021 15.5619 11.7591C14.8269 14.4151 11.9159 16.1781 9.21891 15.7541C7.59091 15.5461 6.08791 14.5821 5.18091 13.2211C4.15791 11.7171 3.89991 9.72005 4.51991 8.00905Z" fill="#FFD83D"/>
<path d="M12.885 7.70398C13.844 8.00298 14.801 8.33098 15.674 8.83698L15.733 8.86798C15.814 9.47698 15.873 10.098 15.765 10.708C15.326 10.522 14.97 10.195 14.598 9.90598C13.882 9.30998 13.151 8.62798 12.885 7.70398Z" fill="#FF6F03"/>
</svg>
