<svg width="16" height="16" viewBox="0 0 16 16" fill="none" xmlns="http://www.w3.org/2000/svg">
<g id="icon">
<path id="Vector" d="M8.00065 1.33333C11.6827 1.33333 14.6673 4.31799 14.6673 7.99999C14.6673 11.682 11.6827 14.6667 8.00065 14.6667C4.31865 14.6667 1.33398 11.682 1.33398 7.99999C1.33398 4.31799 4.31865 1.33333 8.00065 1.33333ZM8.00065 2.66666C6.58616 2.66666 5.22961 3.22856 4.22941 4.22876C3.22922 5.22895 2.66732 6.58551 2.66732 7.99999C2.66732 9.41448 3.22922 10.771 4.22941 11.7712C5.22961 12.7714 6.58616 13.3333 8.00065 13.3333C9.41514 13.3333 10.7717 12.7714 11.7719 11.7712C12.7721 10.771 13.334 9.41448 13.334 7.99999C13.334 6.58551 12.7721 5.22895 11.7719 4.22876C10.7717 3.22856 9.41514 2.66666 8.00065 2.66666ZM8.00065 10.6667C8.17746 10.6667 8.34703 10.7369 8.47205 10.8619C8.59708 10.9869 8.66732 11.1565 8.66732 11.3333C8.66732 11.5101 8.59708 11.6797 8.47205 11.8047C8.34703 11.9298 8.17746 12 8.00065 12C7.82384 12 7.65427 11.9298 7.52925 11.8047C7.40422 11.6797 7.33398 11.5101 7.33398 11.3333C7.33398 11.1565 7.40422 10.9869 7.52925 10.8619C7.65427 10.7369 7.82384 10.6667 8.00065 10.6667ZM8.00065 4.33333C8.56217 4.33335 9.10616 4.5289 9.53917 4.88639C9.97219 5.24389 10.2672 5.74102 10.3735 6.29238C10.4798 6.84374 10.3909 7.41492 10.1218 7.9078C9.85282 8.40068 9.42056 8.7845 8.89932 8.99333C8.8225 9.02248 8.75307 9.06824 8.69598 9.12733C8.66665 9.16066 8.66198 9.20333 8.66265 9.24733L8.66732 9.33333C8.66713 9.50325 8.60206 9.66668 8.48542 9.79024C8.36877 9.9138 8.20935 9.98815 8.03972 9.99811C7.87009 10.0081 7.70306 9.95288 7.57276 9.84382C7.44246 9.73476 7.35872 9.58006 7.33865 9.41133L7.33398 9.33333V9.16666C7.33398 8.39799 7.95398 7.93666 8.40332 7.75599C8.58619 7.68297 8.74572 7.56151 8.86477 7.40465C8.98383 7.2478 9.0579 7.06148 9.07905 6.8657C9.10019 6.66992 9.06761 6.47208 8.9848 6.29342C8.90199 6.11476 8.77207 5.96204 8.60901 5.85165C8.44594 5.74125 8.25589 5.67737 8.05925 5.66684C7.86262 5.65632 7.66683 5.69955 7.49291 5.79191C7.319 5.88426 7.17352 6.02225 7.07211 6.19105C6.9707 6.35984 6.91719 6.55308 6.91732 6.74999C6.91732 6.92681 6.84708 7.09637 6.72205 7.2214C6.59703 7.34642 6.42746 7.41666 6.25065 7.41666C6.07384 7.41666 5.90427 7.34642 5.77925 7.2214C5.65422 7.09637 5.58398 6.92681 5.58398 6.74999C5.58398 6.10905 5.8386 5.49437 6.29181 5.04115C6.74502 4.58794 7.35971 4.33333 8.00065 4.33333Z" fill="white"/>
</g>
</svg>
