<svg width="16" height="16" viewBox="0 0 16 16" fill="none" xmlns="http://www.w3.org/2000/svg">
<g id="Icon24/Refund">
<g id="Union">
<path d="M5.37864 12.835C6.18338 13.2716 7.08446 13.5002 8 13.5V14.5C7.04584 14.4998 6.10338 14.2899 5.23935 13.8851C4.37531 13.4803 3.61082 12.8905 3 12.1575V14H2V10H6V11H3.392C3.89101 11.7676 4.5739 12.3984 5.37864 12.835Z" fill="white"/>
<path d="M12.608 5H10V6H14V2H13V3.8425C12.145 2.81543 10.9943 2.07673 9.70453 1.72694C8.41475 1.37714 7.04851 1.43323 5.79174 1.88758C4.53497 2.34193 3.44871 3.17247 2.68079 4.26617C1.91286 5.35988 1.50056 6.66363 1.5 8H2.5C2.4995 6.81433 2.88227 5.66026 3.59123 4.70989C4.30019 3.75953 5.29736 3.06379 6.43402 2.72643C7.57069 2.38908 8.78596 2.42818 9.89858 2.8379C11.0112 3.24763 11.9616 4.00603 12.608 5Z" fill="white"/>
<path d="M11.5846 7.5H12.626V8.37172C12.8863 8.4263 13.137 8.52055 13.3693 8.65152C13.6663 8.81902 13.9272 9.04331 14.1369 9.31156L14.2889 9.50598L13.4769 10.1579L13.3211 9.95674C13.1686 9.75977 12.9711 9.60159 12.7448 9.49535C12.5185 9.38911 12.27 9.33791 12.0198 9.34603L12.0157 9.34616H12.0117C11.7476 9.34616 11.4797 9.39911 11.2874 9.50842C11.1063 9.61137 11.002 9.7549 11.002 9.969C11.002 10.1344 11.0294 10.2428 11.0676 10.3173C11.1042 10.3885 11.1587 10.4447 11.2428 10.4934C11.4306 10.6022 11.7273 10.6564 12.1891 10.7202L12.211 10.7232C12.607 10.7779 13.1088 10.8472 13.5098 11.0763C13.7205 11.1968 13.9095 11.364 14.0442 11.599C14.1786 11.8336 14.25 12.1201 14.25 12.4656C14.25 12.9511 14.0693 13.366 13.7332 13.6676C13.4497 13.9219 13.0696 14.0835 12.626 14.1524V15H11.5846V14.1721C11.278 14.1436 10.9783 14.0598 10.7007 13.9238C10.3475 13.7508 10.0395 13.4983 9.80129 13.1861L9.65332 12.9922L10.4585 12.3457L10.6153 12.5387C10.7836 12.746 10.9442 12.8923 11.1571 12.9915C11.3726 13.0918 11.6632 13.1538 12.1053 13.1538C12.3459 13.1538 12.6389 13.1235 12.863 13.0156C12.9717 12.9632 13.0557 12.8967 13.1127 12.8143C13.1684 12.7338 13.2087 12.6239 13.2087 12.4656C13.2087 12.3082 13.182 12.2062 13.1456 12.1366C13.1107 12.07 13.0583 12.0165 12.9758 11.9695C12.7915 11.8644 12.5 11.8114 12.0461 11.7486L12.0246 11.7456C11.623 11.6902 11.1144 11.6201 10.7082 11.386C10.4949 11.263 10.304 11.0923 10.1681 10.8528C10.0327 10.6138 9.96061 10.3218 9.96061 9.969C9.96061 9.49705 10.1543 9.09159 10.4926 8.80024C10.7764 8.55577 11.1526 8.39903 11.5846 8.33767V7.5Z" fill="white"/>
</g>
</g>
</svg>
