<svg width="16" height="16" viewBox="0 0 16 16" fill="none" xmlns="http://www.w3.org/2000/svg">
<g id="Icon16/Tiers">
<path id="Vector" d="M7.99935 13.0917L3.66602 10.5458V5.45416L7.99935 2.90833L12.3327 5.45416V10.5458L7.99935 13.0917ZM4.74935 9.94999L7.99935 11.8458L11.2493 9.94999V6.10416L7.99935 4.20833L4.74935 6.10416V9.94999Z" fill="white"/>
<path id="Vector_2" d="M13.9583 3.775L8.54167 0.579164C8.37917 0.470831 8.21667 0.416664 8 0.416664C7.78333 0.416664 7.62083 0.470831 7.45833 0.579164L2.04167 3.775C1.71667 3.99166 1.5 4.31666 1.5 4.69583V11.3042C1.5 11.6833 1.71667 12.0625 2.04167 12.225L7.45833 15.4208C7.62083 15.5292 7.8375 15.5833 8 15.5833C8.1625 15.5833 8.37917 15.5292 8.54167 15.4208L13.9583 12.225C14.2833 12.0083 14.5 11.6833 14.5 11.3042V4.69583C14.5 4.31666 14.2833 3.9375 13.9583 3.775ZM13.4167 11.3042L8 14.5L2.58333 11.3042V4.69583L8 1.5L13.4167 4.69583V11.3042Z" fill="white"/>
</g>
</svg>
