<?xml version="1.0" standalone="no"?>
<!DOCTYPE svg PUBLIC "-//W3C//DTD SVG 20010904//EN"
 "http://www.w3.org/TR/2001/REC-SVG-20010904/DTD/svg10.dtd">
<svg version="1.0" xmlns="http://www.w3.org/2000/svg"
 width="180.000000pt" height="180.000000pt" viewBox="0 0 180.000000 180.000000"
 preserveAspectRatio="xMidYMid meet">
<metadata>
Created by potrace 1.14, written by Peter Selinger 2001-2017
</metadata>
<g transform="translate(0.000000,180.000000) scale(0.100000,-0.100000)"
fill="#000000" stroke="none">
<path d="M0 900 l0 -900 900 0 900 0 0 900 0 900 -900 0 -900 0 0 -900z m761
63 c34 -35 32 -94 -3 -130 -59 -58 -153 -17 -153 66 0 87 97 127 156 64z m384
23 c39 -17 55 -42 55 -86 0 -44 -16 -69 -56 -86 -29 -12 -39 -12 -68 0 -40 17
-56 42 -56 86 0 43 16 69 53 85 40 18 32 17 72 1z m-782 -496 c26 -51 91 -104
145 -120 22 -6 179 -10 393 -10 400 0 418 3 487 69 l38 37 18 -43 c10 -24 25
-51 33 -59 14 -13 7 -23 -58 -88 l-74 -73 -215 -6 c-336 -10 -617 -9 -658 2
-29 8 -68 41 -165 139 l-127 129 0 81 c0 59 4 82 13 82 6 0 39 20 72 44 l60
44 8 -92 c5 -63 14 -105 30 -136z"/>
</g>
</svg>
