<svg width="16" height="16" viewBox="0 0 16 16" fill="none" xmlns="http://www.w3.org/2000/svg">
<g id="Phantom-Icon_Square 1" clip-path="url(#clip0_2796_10973)">
<g id="Clip path group">
<mask id="mask0_2796_10973" style="mask-type:luminance" maskUnits="userSpaceOnUse" x="0" y="0" width="16" height="16">
<g id="clip0_2596_138572">
<path id="Vector" d="M16 0H0V16H16V0Z" fill="white"/>
</g>
</mask>
<g mask="url(#mask0_2796_10973)">
<g id="Group">
<path id="Vector_2" d="M16 0H0V16H16V0Z" fill="#AB9FF2"/>
<path id="Vector_3" fill-rule="evenodd" clip-rule="evenodd" d="M6.96315 10.1976C6.33492 11.1602 5.2822 12.3784 3.88143 12.3784C3.21924 12.3784 2.58252 12.1058 2.58252 10.9217C2.58252 7.90595 6.69996 3.23755 10.5203 3.23755C12.6936 3.23755 13.5596 4.74542 13.5596 6.45772C13.5596 8.65563 12.1333 11.1687 10.7155 11.1687C10.2656 11.1687 10.0449 10.9217 10.0449 10.5298C10.0449 10.4276 10.0618 10.3168 10.0958 10.1976C9.61189 11.0239 8.67804 11.7906 7.80361 11.7906C7.16689 11.7906 6.84429 11.3902 6.84429 10.828C6.84429 10.6235 6.88673 10.4105 6.96315 10.1976ZM10.254 6.39828C10.254 6.89724 9.95965 7.14672 9.63035 7.14672C9.29604 7.14672 9.00665 6.89724 9.00665 6.39828C9.00665 5.89934 9.29604 5.64986 9.63035 5.64986C9.95965 5.64986 10.254 5.89934 10.254 6.39828ZM12.1251 6.3983C12.1251 6.89724 11.8307 7.14672 11.5014 7.14672C11.1671 7.14672 10.8777 6.89724 10.8777 6.3983C10.8777 5.89934 11.1671 5.64986 11.5014 5.64986C11.8307 5.64986 12.1251 5.89934 12.1251 6.3983Z" fill="#FFFDF8"/>
</g>
</g>
</g>
</g>
<defs>
<clipPath id="clip0_2796_10973">
<rect width="16" height="16" fill="white"/>
</clipPath>
</defs>
</svg>
