<svg width="94" height="40" viewBox="0 0 94 40" fill="none" xmlns="http://www.w3.org/2000/svg">
<g opacity="0.8">
<path opacity="0.8" d="M24.5667 15.0539H19.1394V10.5028H24.5667V15.0539ZM5.518 29.4949H10.8833V17.7157H5.518V29.4949ZM61.137 10.6055L61.0653 10.5023H56.4948V15.0533H64.2085L61.137 10.6055ZM0 15.0539H16.3927V10.5028H0V15.0539ZM67.5755 19.9273L66.0473 17.7139H56.4948V29.4931H61.9221V20.0925L68.4072 29.3932L68.4783 29.4949H72.9943V10.5028H67.5755V19.9273ZM39.4489 15.0539H53.1535V10.5034H39.4489V15.0539ZM30.6902 17.7145H19.1394V29.4937H24.5667V22.2718H30.6902V29.492H36.1089V10.5H30.6878L30.6902 17.7145ZM87.6406 10.8507L87.5213 10.5028H80.9306L79.4385 14.8842L81.6819 13.9466L89.5081 16.387L81.6819 18.8274L78.5433 17.5147L74.4543 29.5H80.2724L81.8673 24.4676H86.5847L88.1796 29.5H94L87.6406 10.8507ZM44.8768 22.2741H50.7564V17.7139H39.4507V29.4943H53.1553V24.9438H44.8786L44.8768 22.2741Z" fill="white"/>
</g>
</svg>
