<svg width="140" height="40" viewBox="0 0 140 40" fill="none" xmlns="http://www.w3.org/2000/svg">
<g opacity="0.8" clip-path="url(#clip0_3371_122074)">
<g opacity="0.8">
<path d="M38.5995 25.8684L38.6148 14.18L44.0708 14.1872C46.6795 14.1872 48.1262 15.8756 48.1262 17.8539C48.1262 19.8322 46.6487 21.5134 44.0631 21.5134L40.785 21.5061L40.7773 25.8684H38.5995ZM43.7707 15.9916H40.7927L40.785 19.709H43.763C44.9943 19.709 45.8869 18.9771 45.8869 17.8539C45.8869 16.7307 44.9943 15.9916 43.7707 15.9916Z" fill="white"/>
<path d="M55.7214 14.0072C59.4459 14.0145 62.0623 16.5725 62.0623 20.0579C62.0546 23.5435 59.4305 26.1014 55.706 26.0942C51.9815 26.0869 49.3651 23.529 49.3651 20.0435C49.3728 16.558 51.9969 14 55.7214 14.0072ZM55.7137 15.8261C53.2051 15.8261 51.5967 17.6232 51.5967 20.0435C51.5967 22.442 53.1896 24.2681 55.706 24.2681C58.1992 24.2681 59.823 22.4493 59.823 20.0507C59.8307 17.6377 58.2069 15.8333 55.7137 15.8261Z" fill="white"/>
<path d="M64.1554 25.8986L64.1708 14.2102H66.3486L66.3332 24.0943L71.8045 24.1015V25.9059L64.1554 25.8986Z" fill="white"/>
<path d="M79.015 14.0362C82.7395 14.0435 85.3559 16.6014 85.3559 20.087C85.3482 23.5724 82.7241 26.1305 78.9996 26.1232C75.2752 26.116 72.6588 23.558 72.6588 20.0724C72.6664 16.5869 75.2982 14.029 79.015 14.0362ZM79.015 15.8551C76.5064 15.8551 74.898 17.6522 74.898 20.0724C74.898 22.471 76.4911 24.2972 79.0073 24.2972C81.5006 24.2972 83.1243 22.4783 83.1243 20.0798C83.1243 17.6667 81.5084 15.8623 79.015 15.8551Z" fill="white"/>
<path d="M96.1063 25.9348L89.6423 17.413L89.6346 25.9275H87.4568L87.4721 14.2391H89.7038L96.037 22.5362L96.0447 14.2463H98.2224L98.207 25.9348H96.1063Z" fill="white"/>
<path d="M100.847 25.942L100.862 14.2536H103.04L103.024 25.942H100.847Z" fill="white"/>
<path d="M105.671 25.9493L105.687 14.2609L114.19 14.2681V16.0725L107.865 16.0652L107.857 19.0942L114.051 19.1015V20.9058L107.857 20.8985L107.849 24.1377L114.175 24.1449V25.9493H105.671Z" fill="white"/>
<path d="M124.709 25.971L121.239 21.3912L117.753 25.9637H115.144L119.808 19.9781L115.444 14.2753H118.053L121.247 18.5724L124.433 14.2825H127.057L122.693 19.9564L127.318 25.971H124.709Z" fill="white"/>
<path d="M25.7482 20.0144L19.315 16.5145L12.8894 13.0072L19.3304 9.52168L25.7636 6.02891L25.7482 20.0144Z" fill="white"/>
<path d="M12.8741 26.9927L0.0229905 19.9855L12.8894 13.0072L12.8741 26.9927Z" fill="#C7C7BF"/>
<path d="M0.0373706 6L12.8894 13.0072L0.0229905 19.9855L0.0373706 6Z" fill="#989891"/>
<path d="M0.00769456 26.9783L0.0229905 19.9855L12.8741 26.9927L6.44094 30.4855L0 33.9711L0.00769456 26.9783Z" fill="white"/>
<path d="M19.315 16.5145L12.8894 13.0072L12.8741 26.9927L25.7252 34L25.7329 27.0072L25.7482 20.0144L19.315 16.5145Z" fill="#989891"/>
<path d="M134.265 8.81033H132.725V12.8129H131.87V8.81033H130.349V8.16366H134.265V8.81033ZM136.028 8.14617L137.458 11.7117L138.886 8.14617H140V12.7954H139.146V11.2573L139.239 9.21235L137.774 12.7954H137.16L135.713 9.21235L135.786 11.2573V12.7954H134.933V8.14617H136.028Z" fill="white"/>
</g>
</g>
<defs>
<clipPath id="clip0_3371_122074">
<rect width="140" height="40" fill="white"/>
</clipPath>
</defs>
</svg>
