<svg width="152" height="40" viewBox="0 0 152 40" fill="none" xmlns="http://www.w3.org/2000/svg">
<g opacity="0.8" clip-path="url(#clip0_3371_122086)">
<g opacity="0.8">
<path fill-rule="evenodd" clip-rule="evenodd" d="M103.123 13.1777C101.711 13.0187 100.287 13.0028 98.8722 13.1301C98.865 13.1307 98.8579 13.1312 98.8508 13.1315C98.7546 13.1355 98.6591 13.1395 98.5641 13.1434C97.5051 13.1877 96.5147 13.229 95.5609 13.229C95.5021 13.229 95.4576 13.2307 95.4242 13.2333C95.4217 13.2663 95.42 13.3102 95.42 13.3681V13.3805C95.3545 15.7456 95.1556 18.0986 94.9587 20.4296C94.8626 21.5678 94.7669 22.7009 94.6874 23.8275C94.6625 24.2011 94.6348 24.5715 94.6072 24.9397C94.5256 26.0317 94.4453 27.1046 94.4453 28.1829C94.4453 28.1934 94.4449 28.2039 94.4442 28.2143C94.4211 28.5401 94.5079 28.8642 94.6908 29.135C94.8737 29.4058 95.1422 29.6077 95.4535 29.7083C95.459 29.7101 95.4645 29.712 95.4699 29.714C95.6815 29.7917 95.8997 29.85 96.1218 29.8883C97.5662 30.1251 99.0353 30.1728 100.492 30.0301C100.503 30.029 100.514 30.0283 100.526 30.0281C101.988 29.9958 103.404 29.5052 104.572 28.6257C105.74 27.7462 106.602 26.5222 107.037 25.1268L107.04 25.1151C107.883 22.6477 108.095 20.009 107.657 17.4389C107.656 17.433 107.655 17.4271 107.655 17.4212C107.527 16.4297 107.109 15.4979 106.455 14.7419C105.572 13.8399 104.394 13.285 103.135 13.1789L103.123 13.1777ZM103.216 12.2926C101.75 12.128 100.272 12.1113 98.8032 12.2427C98.7117 12.2465 98.6208 12.2503 98.5306 12.2541C97.467 12.2985 96.4951 12.339 95.5609 12.339C95.4301 12.339 95.2946 12.345 95.1699 12.3718C95.0402 12.3996 94.8934 12.456 94.7707 12.5784C94.6479 12.7009 94.5912 12.8477 94.5631 12.9775C94.5366 13.1003 94.5305 13.2333 94.5303 13.3618C94.4653 15.7005 94.2703 18.0069 94.0748 20.3209C93.9781 21.4657 93.8812 22.6124 93.7998 23.7658L93.7996 23.7676C93.7759 24.1248 93.7489 24.485 93.7218 24.8474C93.6398 25.9431 93.5563 27.0582 93.5555 28.1679C93.5225 28.6868 93.6624 29.2021 93.9536 29.6332C94.2461 30.0664 94.6747 30.3897 95.1714 30.5524C95.4316 30.6474 95.6999 30.7188 95.9729 30.7658L95.9763 30.7663C97.4919 31.015 99.0334 31.0658 100.562 30.9174C102.205 30.8777 103.794 30.325 105.107 29.3368C106.423 28.3464 107.394 26.9684 107.884 25.3971C108.772 22.7936 108.996 20.0099 108.536 17.2981C108.383 16.1316 107.89 15.0359 107.117 14.1481C107.112 14.1418 107.106 14.1357 107.101 14.1298C106.069 13.0705 104.69 12.4183 103.216 12.2926ZM99.3861 16.0406C100.176 15.9419 100.976 15.943 101.765 16.0438C101.771 16.0445 101.777 16.0454 101.783 16.0464C102.275 16.1294 102.734 16.3489 103.107 16.68C103.478 17.0102 103.75 17.4381 103.891 17.9149C104.121 18.6509 104.227 19.4201 104.203 20.1908C104.241 21.4089 104.106 22.6262 103.801 23.8064C103.572 24.8798 102.932 25.8211 102.017 26.4288C101.111 27.0304 100.008 27.2577 98.9394 27.0643H98.7362C98.6683 27.0643 98.5777 27.0618 98.4874 27.0408C98.388 27.0177 98.2654 26.9669 98.1654 26.8533C98.0705 26.7456 98.0345 26.6246 98.0183 26.5368C98.0024 26.4504 97.9996 26.36 97.9996 26.2803C97.9996 26.2688 98 26.2573 98.0009 26.2458C98.2439 23.1288 98.4873 19.971 98.6329 16.8638C98.6339 16.6929 98.6595 16.4583 98.8246 16.2737C98.9953 16.0827 99.2225 16.0445 99.3861 16.0406ZM99.5209 16.9207C99.3768 19.9918 99.1377 23.1093 98.899 26.1743H98.9805C99.0086 26.1743 99.0366 26.1769 99.0642 26.1822C99.9176 26.3458 100.801 26.1681 101.525 25.6874C102.248 25.2068 102.754 24.4617 102.933 23.6126C102.934 23.606 102.936 23.5994 102.937 23.5929C103.223 22.4873 103.35 21.3465 103.313 20.2052C103.313 20.1956 103.313 20.186 103.313 20.1764C103.335 19.4995 103.243 18.8237 103.041 18.1773L103.038 18.1696C102.945 17.8515 102.764 17.5659 102.516 17.3457C102.27 17.1273 101.968 16.9817 101.644 16.9254C100.939 16.8363 100.226 16.8347 99.5209 16.9207Z" fill="white"/>
<path fill-rule="evenodd" clip-rule="evenodd" d="M42.5258 13.0796C40.7061 13.0107 38.8839 13.0626 37.0712 13.2351C37.0572 13.2365 37.0431 13.2371 37.0291 13.2371C36.9272 13.2371 36.8541 13.2385 36.8002 13.2417C36.797 13.2954 36.7955 13.3684 36.7955 13.47V13.4846C36.7343 15.3541 36.5756 17.2387 36.4182 19.1099C36.325 20.218 36.2322 21.3214 36.1603 22.4141C36.1224 23.1056 36.0641 23.7778 36.0065 24.4418C35.9132 25.5174 35.8218 26.5714 35.8218 27.6509C35.8218 27.6711 35.8205 27.6912 35.8178 27.7111C35.7843 27.9566 35.8007 28.2062 35.8662 28.4452C35.9317 28.6841 36.0448 28.9074 36.1988 29.1016C36.3528 29.2958 36.5445 29.457 36.7625 29.5754C36.9805 29.6938 37.2201 29.767 37.4672 29.7906C37.485 29.7923 37.5027 29.7951 37.5202 29.7989C39.8549 30.3113 42.285 30.1806 44.5511 29.4208L44.5666 29.4159C45.2878 29.2029 45.9384 28.8002 46.4505 28.25C46.9625 27.6998 47.3171 27.0223 47.4773 26.2884C47.6212 25.6334 47.652 24.9579 47.5678 24.2926C47.5666 24.2828 47.5657 24.273 47.5651 24.2632C47.5313 23.6947 47.3332 23.1483 46.9948 22.6899C46.6564 22.2316 46.1921 21.8811 45.6582 21.681C45.6437 21.6756 45.6294 21.6694 45.6155 21.6624C45.6158 21.6626 45.6158 21.6626 45.6155 21.6624C45.6145 21.662 45.6092 21.6598 45.5939 21.6544C45.5923 21.6538 45.59 21.653 45.5872 21.652C45.57 21.6461 45.5328 21.6332 45.4998 21.6192C45.4027 21.5778 45.2611 21.4954 45.1722 21.3178C45.1144 21.2022 45.1096 21.0671 45.1593 20.9477C45.2089 20.8284 45.3079 20.7365 45.4307 20.696C45.8519 20.557 46.2377 20.3283 46.5616 20.0257C46.8832 19.7251 47.1361 19.3589 47.303 18.9519C47.5178 18.3487 47.6228 17.7119 47.613 17.0718C47.6128 17.0608 47.6131 17.0497 47.6137 17.0388C47.6558 16.3249 47.4648 15.6166 47.0695 15.0204C46.6741 14.4241 46.0957 13.9721 45.4211 13.7323C45.4147 13.73 45.4084 13.7276 45.4022 13.7251C44.486 13.3516 43.5138 13.1335 42.5258 13.0796ZM37.0079 12.3471C38.8541 12.1724 40.7099 12.12 42.5631 12.1904L42.5703 12.1907C43.6551 12.2494 44.7224 12.4882 45.7287 12.8971C46.5805 13.2023 47.311 13.7744 47.811 14.5285C48.3098 15.2808 48.5523 16.1736 48.5029 17.0745C48.5123 17.8192 48.3886 18.5597 48.1374 19.261C48.1353 19.2669 48.133 19.2728 48.1307 19.2786C47.9152 19.8086 47.5871 20.2854 47.169 20.676C46.9847 20.8482 46.7849 21.0019 46.5725 21.1352C47.015 21.3961 47.4027 21.7443 47.7105 22.1612C48.1482 22.754 48.4058 23.4603 48.4524 24.1954C48.547 24.9569 48.5112 25.729 48.3465 26.4786C48.1522 27.3683 47.7223 28.1896 47.1017 28.8564C46.4829 29.5213 45.6972 30.0084 44.8264 30.2672C42.418 31.0732 39.8364 31.2136 37.3548 30.6738C36.9984 30.6361 36.6529 30.5286 36.3378 30.3575C36.0146 30.1819 35.7302 29.9428 35.5017 29.6546C35.2732 29.3665 35.1053 29.0351 35.0081 28.6804C34.9137 28.3359 34.8879 27.9762 34.9321 27.6219C34.9338 26.5237 35.0305 25.3999 35.1252 24.2988C35.1817 23.642 35.2375 22.9933 35.272 22.363L35.2723 22.3581C35.3466 21.2287 35.4408 20.1101 35.5347 18.9963C35.6904 17.148 35.8449 15.3127 35.9057 13.4626C35.9058 13.3097 35.9084 13.1584 35.9284 13.0288C35.949 12.895 35.997 12.7198 36.1402 12.5776C36.2832 12.4356 36.4583 12.3889 36.5911 12.3689C36.7159 12.3501 36.8612 12.3474 37.0079 12.3471ZM43.0591 15.837C43.5009 15.9735 43.8843 16.2551 44.1467 16.6371C44.4132 17.025 44.5383 17.4922 44.5015 17.9606C44.5172 18.4261 44.3757 18.8837 44.0993 19.2594C43.8169 19.6434 43.4109 19.9184 42.9496 20.0385C42.1549 20.2484 41.3199 20.2521 40.5238 20.0497C40.3608 20.0339 40.1936 19.9608 40.0783 19.7992C39.9678 19.6443 39.9529 19.4712 39.9529 19.364C39.9529 19.357 39.953 19.3499 39.9534 19.3429C40.0019 18.322 40.0504 17.3506 40.1 16.3785C40.1021 16.2163 40.1459 16.0098 40.3216 15.8588C40.4679 15.7331 40.6371 15.7076 40.7469 15.7033C41.0884 15.6479 41.4333 15.6154 41.7792 15.6061C42.2196 15.5486 42.6669 15.6294 43.0591 15.837ZM42.67 16.6384C42.4296 16.5034 42.1511 16.4515 41.8781 16.4909C41.8583 16.4937 41.8384 16.4952 41.8185 16.4954C41.8172 16.4954 41.8159 16.4954 41.8146 16.4954H41.8124V16.0504L41.8231 16.4953C41.8216 16.4953 41.82 16.4953 41.8185 16.4954C41.5381 16.5023 41.2585 16.5264 40.9812 16.5676C40.9838 16.5165 40.9864 16.4654 40.989 16.4143C40.9894 16.4067 40.9896 16.3992 40.9896 16.3916C40.9888 16.3966 40.9864 16.4043 40.9834 16.414C40.9743 16.443 40.9527 16.4898 40.9016 16.5338C40.8864 16.5468 40.8713 16.5571 40.8573 16.565C40.8332 16.5788 40.8122 16.5858 40.799 16.5892C40.7945 16.5904 40.7908 16.5911 40.7879 16.5917C40.8123 16.5917 40.8368 16.5905 40.8609 16.5865C40.901 16.5798 40.9411 16.5735 40.9812 16.5676C40.937 17.4363 40.8936 18.306 40.8503 19.2129C40.8024 19.2021 40.7546 19.1904 40.707 19.1778C40.6699 19.168 40.6317 19.1631 40.5934 19.1631C40.6055 19.1631 40.6404 19.1651 40.6851 19.1854C40.6911 19.1882 40.697 19.1911 40.7027 19.1942C40.7429 19.2159 40.7773 19.2468 40.8025 19.2822C40.8275 19.3172 40.8375 19.3475 40.8412 19.364H40.3977L40.8421 19.3852C40.8423 19.3807 40.8425 19.3763 40.8427 19.3719C40.8453 19.3188 40.8478 19.2656 40.8503 19.2129C41.4677 19.3515 42.1101 19.3399 42.7232 19.1778L42.725 19.1774C42.989 19.1087 43.2212 18.9514 43.3827 18.732C43.5441 18.5125 43.6249 18.2443 43.6115 17.9724C43.6105 17.9513 43.611 17.9301 43.613 17.909C43.6385 17.6377 43.5679 17.366 43.4135 17.1412C43.259 16.9163 43.0304 16.7527 42.7675 16.6788C42.7335 16.6692 42.7008 16.6557 42.67 16.6384ZM40.3104 22.583C41.0619 22.4243 41.8383 22.4245 42.5897 22.5835L42.596 22.5848C42.9871 22.6735 43.3452 22.871 43.6289 23.1544C43.91 23.4352 44.1066 23.7892 44.1966 24.176C44.3738 24.8201 44.3533 25.5026 44.1377 26.1349C44.1358 26.1406 44.1337 26.1463 44.1315 26.1519C43.925 26.6859 43.5436 27.1343 43.0497 27.4241C42.5643 27.7088 41.9983 27.824 41.4408 27.7521L41.2851 27.7503C40.7974 27.7692 40.3121 27.6712 39.87 27.4643C39.8423 27.4513 39.816 27.4356 39.7916 27.4172C39.6183 27.2872 39.5068 27.1216 39.452 26.9358C39.4005 26.7612 39.4062 26.5928 39.4218 26.4608C39.4342 26.3554 39.4573 26.2452 39.4752 26.1597C39.4789 26.1417 39.4825 26.1247 39.4856 26.1092C39.5068 26.0051 39.5164 25.9403 39.5164 25.8919C39.5164 25.3154 39.563 24.7026 39.6075 24.1189C39.6278 23.8524 39.6476 23.5919 39.6623 23.3438C39.6632 23.2256 39.6775 23.0311 39.8117 22.8597C39.9523 22.6802 40.1531 22.6146 40.3104 22.583ZM40.5477 23.4428C40.5315 23.7084 40.5114 23.9714 40.4915 24.2319C40.4484 24.7962 40.4061 25.3488 40.4061 25.8919C40.4061 26.0383 40.3791 26.1806 40.3575 26.2866C40.3523 26.3123 40.3474 26.3361 40.3427 26.3583C40.3256 26.4408 40.3128 26.5027 40.3054 26.5652C40.2965 26.6402 40.3021 26.6728 40.3054 26.6839C40.3054 26.6836 40.3054 26.6839 40.3054 26.6839C40.6058 26.8138 40.932 26.8747 41.2596 26.8606C41.2676 26.8603 41.2757 26.8602 41.2838 26.8603L41.4783 26.8625C41.4973 26.8627 41.5163 26.8642 41.5352 26.8668C41.9036 26.9188 42.2788 26.8446 42.5995 26.6564C42.9177 26.4697 43.1638 26.1818 43.2985 25.839C43.4546 25.3755 43.4679 24.8759 43.3367 24.4048C43.3348 24.3979 43.333 24.3909 43.3315 24.3839C43.2799 24.1568 43.165 23.9489 43.0001 23.7841C42.8359 23.62 42.6287 23.5055 42.4023 23.4535C41.791 23.3247 41.1601 23.3211 40.5477 23.4428Z" fill="white"/>
<path fill-rule="evenodd" clip-rule="evenodd" d="M131.455 17.1197C130.397 16.8615 129.284 16.9679 128.295 17.4216C127.307 17.875 126.501 18.6485 126.008 19.6166C125.052 21.549 124.773 23.746 125.215 25.8556C125.219 25.8729 125.222 25.8903 125.223 25.9079C125.303 26.8107 125.724 27.6492 126.401 28.2529C127.078 28.8566 127.959 29.18 128.867 29.157C128.887 29.1565 128.907 29.1574 128.927 29.1595C129.565 29.2296 130.21 29.1213 130.79 28.8468C131.36 28.577 131.845 28.1573 132.193 27.633C132.195 27.628 132.197 27.6225 132.202 27.611L132.203 27.6092C132.212 27.5851 132.236 27.5265 132.275 27.4674C132.32 27.3984 132.39 27.3238 132.494 27.2714C132.593 27.2212 132.694 27.2069 132.779 27.2069C133.014 27.2069 133.209 27.3899 133.223 27.6247C133.277 28.4941 133.173 29.366 132.918 30.1988C132.799 30.7736 132.504 31.2973 132.073 31.6969C131.643 32.0961 131.1 32.3513 130.518 32.4276C129.914 32.5684 129.281 32.5262 128.701 32.3062C128.113 32.0831 127.606 31.6875 127.246 31.1712C127.235 31.1543 127.224 31.1365 127.215 31.118C127.161 31.0116 127.071 30.9272 126.961 30.8795C126.852 30.8319 126.729 30.824 126.614 30.8574C126.582 30.8666 126.549 30.8723 126.516 30.8742C126.218 30.892 125.93 30.9944 125.688 31.1693C125.45 31.341 125.264 31.5756 125.153 31.8466C125.069 32.1207 125.07 32.4137 125.155 32.6876C125.241 32.9667 125.411 33.2128 125.642 33.3928C125.659 33.4062 125.675 33.4209 125.69 33.4366C126.002 33.7643 126.391 34.0089 126.822 34.1484L126.835 34.1524C129.013 34.9292 131.403 34.8634 133.535 33.9677C134.123 33.7165 134.646 33.3364 135.066 32.8555C135.486 32.3742 135.793 31.8045 135.962 31.1886L135.965 31.1793C136.135 30.6099 136.26 30.0281 136.34 29.4392L136.342 29.4296C136.731 26.9659 136.923 24.4976 137.069 22.0165C137.069 22.0082 137.07 22 137.071 21.9917C137.198 20.885 137.23 19.7694 137.166 18.6573C137.165 18.6419 137.165 18.6264 137.166 18.611C137.174 18.4328 137.146 18.2548 137.084 18.0876C137.022 17.9204 136.926 17.7675 136.803 17.638C136.68 17.5085 136.532 17.4052 136.368 17.3342C136.204 17.2632 136.028 17.2261 135.849 17.225C135.836 17.225 135.824 17.2244 135.811 17.2232C135.567 17.2011 135.319 17.2008 135.048 17.2008H135.039C134.776 17.2008 134.491 17.2008 134.202 17.1747L134.186 17.1729C134.174 17.1713 134.163 17.1703 134.153 17.1697C134.153 17.1787 134.152 17.189 134.152 17.2005C134.185 17.5764 134.166 17.9551 134.095 18.3258C134.073 18.4374 134.011 18.5326 133.926 18.5971C133.859 18.6949 133.754 18.7626 133.636 18.7832C133.493 18.808 133.347 18.7619 133.245 18.6596C133.244 18.6584 133.242 18.6569 133.241 18.6554C133.22 18.6345 133.175 18.5899 133.137 18.5391C133.11 18.5039 133.062 18.4331 133.035 18.3347C132.894 18.0318 132.684 17.7655 132.421 17.5571C132.146 17.3386 131.822 17.1902 131.477 17.1246C131.47 17.1232 131.462 17.1215 131.455 17.1197ZM133.265 17.1226C133.174 17.0293 133.077 16.9416 132.975 16.8602C132.59 16.5545 132.137 16.346 131.655 16.2524C130.406 15.9501 129.092 16.0769 127.924 16.6126C126.753 17.1499 125.797 18.067 125.213 19.2152L125.211 19.2195C124.17 21.3235 123.863 23.7149 124.339 26.013C124.445 27.1314 124.97 28.1689 125.809 28.9172C126.647 29.6649 127.737 30.0682 128.859 30.0474C129.651 30.1289 130.45 29.9919 131.17 29.6512C131.585 29.4549 131.964 29.1953 132.295 28.8834C132.248 29.2466 132.17 29.6059 132.061 29.9571C132.057 29.972 132.053 29.9871 132.05 30.0024C131.971 30.4022 131.767 30.7669 131.468 31.0444C131.169 31.3219 130.79 31.498 130.385 31.5474C130.368 31.5495 130.351 31.5525 130.334 31.5566C129.897 31.6623 129.437 31.6335 129.017 31.474C128.604 31.3176 128.248 31.0427 127.992 30.6845C127.843 30.4076 127.605 30.1886 127.316 30.0631C127.032 29.9398 126.715 29.9141 126.416 29.9891C125.966 30.0246 125.534 30.183 125.167 30.4474C124.788 30.721 124.494 31.0969 124.321 31.5313C124.316 31.5413 124.313 31.5515 124.31 31.5618C124.166 32.0136 124.165 32.4984 124.305 32.9511C124.442 33.3932 124.708 33.784 125.068 34.0738C125.477 34.4954 125.983 34.8111 126.542 34.9931C128.928 35.8423 131.546 35.7691 133.881 34.7877L133.883 34.7867C134.594 34.4831 135.228 34.0231 135.736 33.441C136.243 32.8602 136.613 32.1727 136.819 31.4295C137.001 30.8189 137.135 30.1951 137.221 29.5638C137.616 27.0622 137.81 24.5652 137.956 22.081C138.087 20.9349 138.12 19.7799 138.055 18.6282C138.066 18.3382 138.019 18.049 137.918 17.7769C137.814 17.4972 137.654 17.2415 137.448 17.0251C137.243 16.8087 136.996 16.636 136.722 16.5174C136.454 16.4014 136.166 16.3396 135.874 16.3353C135.592 16.3108 135.313 16.3108 135.056 16.3108H135.048C134.779 16.3108 134.533 16.3105 134.29 16.2889C134.024 16.2568 133.731 16.2963 133.513 16.5151C133.335 16.6938 133.277 16.9239 133.265 17.1226ZM131.773 19.3075C132.188 19.3094 132.592 19.4423 132.927 19.6877C133.266 19.9361 133.516 20.2866 133.641 20.6878C133.824 21.231 133.914 21.8009 133.907 22.3738C133.96 23.3145 133.778 24.2537 133.378 25.1069L133.374 25.1146C133.087 25.6977 132.604 26.1618 132.01 26.4265C131.419 26.6899 130.755 26.7394 130.132 26.5669C129.773 26.4814 129.447 26.2903 129.197 26.0181C128.948 25.7468 128.786 25.4076 128.731 25.0437C128.436 23.6039 128.62 22.107 129.255 20.7814C129.474 20.3047 129.836 19.9073 130.289 19.6437C130.738 19.3829 131.256 19.2657 131.773 19.3075ZM131.715 20.1957C131.374 20.1654 131.032 20.2414 130.736 20.4133C130.44 20.5852 130.205 20.8446 130.063 21.1555L130.059 21.1631C129.505 22.3177 129.345 23.6222 129.605 24.8761C129.607 24.8852 129.609 24.8944 129.61 24.9037C129.637 25.095 129.722 25.2737 129.853 25.4162C129.984 25.5588 130.155 25.6585 130.343 25.7022C130.35 25.7038 130.357 25.7055 130.363 25.7073C130.789 25.8269 131.244 25.7938 131.648 25.6136C132.051 25.434 132.378 25.1196 132.574 24.7248C132.912 24.002 133.065 23.2064 133.018 22.4099C133.018 22.3991 133.017 22.3883 133.017 22.3774C133.024 21.8981 132.95 21.4211 132.796 20.9668L132.793 20.9559C132.725 20.7353 132.588 20.5423 132.401 20.4057C132.215 20.269 131.989 20.196 131.758 20.1975C131.743 20.1976 131.729 20.197 131.715 20.1957Z" fill="white"/>
<path fill-rule="evenodd" clip-rule="evenodd" d="M88.331 16.2905C88.0577 16.2918 87.7366 16.3241 87.4965 16.5483C87.2543 16.7743 87.1988 17.0993 87.174 17.3722L87.125 17.6602C87.125 17.6602 86.7257 22.7674 86.4419 24.1121C86.1581 25.4567 83.4639 26.913 83.4639 24.427C83.4639 21.9411 83.862 18.9086 83.862 18.9086C83.9065 18.593 83.8824 18.2714 83.7913 17.9657C83.6966 17.6483 83.5321 17.3562 83.3097 17.1107C83.0874 16.8653 82.8129 16.6727 82.5064 16.5471C82.211 16.4261 81.8931 16.3703 81.5743 16.3832C81.1644 16.3445 80.7526 16.3286 80.3408 16.3357C79.969 16.336 79.5757 16.3777 79.2934 16.6475C79.0128 16.9155 78.9495 17.3075 78.925 17.6764C78.8778 18.4027 78.8176 19.1305 78.7568 19.862L78.7526 19.9122C78.6936 20.6218 78.6342 21.3356 78.5866 22.0499C78.4306 23.3301 78.3974 24.6223 78.4876 25.9088C78.4913 26.6061 78.6728 27.291 79.0148 27.899C79.3595 28.5115 79.8556 29.0254 80.4557 29.3915C80.4629 29.3959 80.4702 29.4001 80.4775 29.404C81.2192 29.8009 82.0441 30.0173 82.8852 30.0357C83.7263 30.0541 84.5599 29.874 85.3183 29.51C85.3233 29.5075 85.3284 29.505 85.3333 29.5024C85.6831 29.3179 86.008 29.0926 86.3016 28.8324C86.2626 29.1501 86.2009 29.4652 86.1168 29.7751C86.112 29.7927 86.1083 29.8106 86.1057 29.8286C86.0655 30.1096 85.9677 30.3792 85.8184 30.6207C85.6691 30.8623 85.4716 31.0705 85.2381 31.2323C85.0045 31.3942 84.7401 31.5062 84.4612 31.5613C84.1824 31.6164 83.8951 31.6135 83.6174 31.5527C83.579 31.5443 83.5396 31.541 83.5002 31.543C83.195 31.5582 82.891 31.4944 82.6177 31.3578C82.3458 31.2219 82.1135 31.0185 81.943 30.7673C81.8365 30.6018 81.7376 30.4519 81.6392 30.3344C81.5358 30.211 81.4084 30.0927 81.2333 30.0215C81.0596 29.9509 80.8874 29.9464 80.7326 29.9592C80.5886 29.9711 80.421 30.002 80.2405 30.0359C79.9988 30.06 79.7612 30.1147 79.5333 30.1986C79.1638 30.3012 78.8288 30.5017 78.5638 30.7792C78.2935 31.0622 78.1066 31.4142 78.0237 31.7966C77.9407 32.179 77.9649 32.5768 78.0937 32.9463C78.2212 33.3122 78.4462 33.6362 78.7444 33.8834C79.2961 34.3817 79.9458 34.7595 80.6519 34.9927C82.3299 35.5462 84.1137 35.7032 85.8625 35.4512C87.3179 35.3433 88.6808 34.6962 89.6838 33.6361C90.6874 32.5755 91.2578 31.1784 91.2832 29.7193C91.3323 29.083 91.3873 28.4469 91.4425 27.8097C91.5496 26.5732 91.657 25.3327 91.7213 24.0789C91.7517 23.7009 91.7845 23.3232 91.8173 22.9453C91.9389 21.5442 92.0608 20.1393 92.0615 18.7023C92.0888 18.1771 91.9253 17.6596 91.601 17.2452C91.5322 17.1605 91.462 17.0826 91.3889 17.0112C91.0875 16.7237 90.7085 16.5269 90.2954 16.4472C90.1217 16.4057 89.9464 16.3715 89.7702 16.3448C89.3775 16.2999 88.9074 16.285 88.331 16.2905ZM90.098 17.315C89.5371 17.1801 88.9584 17.1343 88.3832 17.1791L88.382 17.1792C88.3709 17.1801 88.3597 17.1805 88.3486 17.1805C88.2299 17.1805 88.1601 17.1888 88.1194 17.1987C88.1138 17.2 88.1093 17.2013 88.1056 17.2024C88.1038 17.2068 88.1016 17.2126 88.0992 17.2199C88.0931 17.2386 88.0869 17.2629 88.0809 17.2944C88.0733 17.3346 88.0661 17.3865 88.06 17.4536L88.0598 17.4554C88.0117 17.9616 87.9756 18.4565 87.9391 18.9568L87.9389 18.959C87.9029 19.4524 87.8665 19.9512 87.8181 20.4626C87.7839 21.6971 87.5982 22.9227 87.2651 24.1121L87.2631 24.1192C87.0155 24.9494 86.5235 25.6858 85.8513 26.2324C85.5624 26.4809 85.2087 26.642 84.8316 26.697C84.452 26.7522 84.0644 26.6976 83.7149 26.5395C83.3653 26.3814 83.0684 26.1264 82.8594 25.8047C82.6517 25.4851 82.5395 25.1129 82.5359 24.7319C82.5018 23.8094 82.5675 22.8859 82.7318 21.9775C82.7546 21.741 82.7795 21.5048 82.8044 21.2687C82.8884 20.4716 82.9723 19.6758 82.9723 18.8753C82.9723 18.852 82.9741 18.8288 82.9777 18.8058C83.0086 18.6101 82.9953 18.41 82.9387 18.2201C82.882 18.0302 82.7835 17.8553 82.6504 17.7083C82.5173 17.5614 82.3528 17.446 82.1692 17.3707C81.9855 17.2955 81.7872 17.2623 81.589 17.2735C81.5662 17.2748 81.5433 17.2744 81.5206 17.2721C81.1325 17.2343 80.7425 17.2188 80.3525 17.2256L80.3447 17.2257C79.9861 17.2257 79.9176 17.2818 79.908 17.2909C79.8957 17.3028 79.8369 17.3734 79.8128 17.7352C79.765 18.4706 79.7042 19.2054 79.6434 19.9357L79.6395 19.9829C79.58 20.6988 79.5208 21.4103 79.4735 22.1213C79.473 22.1295 79.4722 22.1377 79.4712 22.1458C79.3203 23.3783 79.2884 24.6224 79.3761 25.8609C79.3769 25.8711 79.3772 25.8814 79.3773 25.8916C79.3781 26.4419 79.5203 26.9828 79.7902 27.4625C80.0581 27.9386 80.4429 28.3388 80.9084 28.6252C81.5239 28.9523 82.2076 29.1307 82.9047 29.1459C83.6032 29.1612 84.2955 29.0123 84.9257 28.7112C85.528 28.3919 86.0395 27.9252 86.4123 27.3548C86.5174 27.194 86.7138 27.1188 86.8993 27.1683C87.0849 27.2178 87.2177 27.3808 87.2288 27.5726C87.2757 28.384 87.1925 29.1976 86.9824 29.9826C86.9224 30.3748 86.7839 30.751 86.5752 31.0888C86.3615 31.4344 86.0788 31.7323 85.7448 31.9639C85.4108 32.1954 85.0325 32.3556 84.6338 32.4344C84.2543 32.5094 83.864 32.5093 83.4849 32.4342C83.0469 32.4462 82.6124 32.35 82.22 32.1539C81.8098 31.9489 81.4595 31.6415 81.203 31.2615L81.1974 31.2532C81.0856 31.0794 81.0149 30.9748 80.9572 30.9061C80.9233 30.8656 80.9045 30.8506 80.898 30.8461C80.8902 30.8446 80.8646 30.8413 80.8056 30.8462C80.7122 30.8539 80.5877 30.8762 80.3851 30.9143C80.3714 30.9169 80.3575 30.9188 80.3437 30.9201C80.1667 30.9363 79.9928 30.9764 79.8266 31.0391C79.8127 31.0443 79.7985 31.0489 79.7841 31.0527C79.5639 31.1113 79.3643 31.2294 79.2072 31.394C79.05 31.5586 78.9414 31.7632 78.8932 31.9854C78.845 32.2075 78.859 32.4387 78.9338 32.6534C79.0087 32.8681 79.1413 33.0581 79.3173 33.2024C79.323 33.2071 79.3286 33.2119 79.3341 33.2168C79.7953 33.6351 80.3393 33.9521 80.9308 34.1475C82.4828 34.6595 84.1329 34.8035 85.7504 34.5681C85.7612 34.5665 85.772 34.5654 85.7828 34.5646C87.0226 34.4762 88.1839 33.9266 89.0376 33.0244C89.8913 32.1221 90.3751 30.933 90.3938 29.6918C90.3939 29.6827 90.3943 29.6735 90.3951 29.6644C90.4458 29.0051 90.502 28.3558 90.558 27.7104C90.6644 26.4824 90.7695 25.2684 90.8331 24.0269L90.8337 24.014C90.8633 23.6463 90.8948 23.2828 90.9261 22.9221L90.9325 22.8474C91.0539 21.4479 91.1717 20.089 91.1717 18.69C91.1717 18.6814 91.172 18.6727 91.1725 18.6641C91.1908 18.3506 91.0941 18.0412 90.9004 17.7938C90.7067 17.5463 90.4293 17.3777 90.12 17.3197C90.1126 17.3183 90.1053 17.3168 90.098 17.315Z" fill="white"/>
<path fill-rule="evenodd" clip-rule="evenodd" d="M67.0788 12.4914C66.5209 12.4289 65.9587 12.4134 65.3983 12.4449C65.3899 12.4454 65.3816 12.4456 65.3733 12.4456C65.3184 12.4456 65.2724 12.4461 65.2332 12.4475C65.2326 12.4734 65.2324 12.5027 65.2324 12.5361V12.55C65.1715 14.5027 65.0139 16.4518 64.8572 18.3926C64.7633 19.5554 64.6696 20.7153 64.5971 21.8711L64.5964 21.8822C64.4686 23.3368 64.4364 24.7982 64.5003 26.257C64.5435 27.1397 64.8882 27.9811 65.477 28.6409C66.0661 29.301 66.8639 29.7395 67.7375 29.8831C67.7456 29.8844 67.7537 29.886 67.7617 29.8877C68.7047 30.0968 69.6765 30.144 70.6355 30.0273C70.6463 30.026 70.6572 30.0251 70.6682 30.0246C71.7056 29.9756 72.7084 29.6366 73.5625 29.0464C74.4166 28.4562 75.0877 27.6384 75.4995 26.6861L75.5014 26.6817C76.4634 24.5221 76.6453 22.096 76.0162 19.8174C76.0133 19.807 76.0108 19.7965 76.0087 19.7859C75.8583 19.0315 75.4631 18.3476 74.8841 17.8402C74.3052 17.3328 73.5748 17.0303 72.8062 16.9796C72.7861 16.9782 72.7661 16.9755 72.7463 16.9715C72.0623 16.8316 71.3517 16.9055 70.7111 17.1831C70.0706 17.4607 69.5312 17.9285 69.1662 18.523C69.1475 18.5535 69.1251 18.5817 69.0995 18.6069C69.0494 18.6564 69.0051 18.7114 68.9675 18.7708C68.8617 18.9382 68.658 19.0155 68.4678 18.9604C68.2776 18.9053 68.1467 18.7311 68.1467 18.533V18.0912C68.1467 18.0806 68.147 18.0699 68.1478 18.0592C68.1737 17.7004 68.2024 17.3485 68.2309 17.0008C68.3123 16.0047 68.3909 15.0425 68.3909 14.0466C68.3909 14.0342 68.3914 14.0218 68.3925 14.0095C68.4079 13.8247 68.3866 13.6388 68.3297 13.4623C68.2728 13.2858 68.1814 13.1224 68.0609 12.9813C67.9403 12.8403 67.7929 12.7245 67.6273 12.6407C67.4616 12.5568 67.2809 12.5066 67.0956 12.493C67.09 12.4926 67.0844 12.4921 67.0788 12.4914ZM65.105 12.459C65.105 12.459 65.1057 12.4588 65.1071 12.4585L65.105 12.459ZM67.1697 11.6061C66.5692 11.5392 65.9641 11.5224 65.3607 11.5556C65.2314 11.5558 65.1018 11.5586 64.9884 11.5759C64.8712 11.5937 64.7121 11.6346 64.5777 11.7584C64.438 11.887 64.3872 12.0468 64.3655 12.1693C64.3453 12.2833 64.3427 12.4109 64.3426 12.5291C64.2821 14.4634 64.1283 16.3647 63.9732 18.2831C63.8789 19.4486 63.7842 20.6205 63.7095 21.8098C63.5786 23.3018 63.5458 24.8008 63.6114 26.2971L63.6115 26.2992C63.6644 27.386 64.0886 28.4217 64.8132 29.2336C65.5351 30.0425 66.5116 30.5806 67.581 30.7593C68.6135 30.9868 69.6769 31.0387 70.7267 30.9128C71.9244 30.8531 73.0817 30.4604 74.0682 29.7787C75.0586 29.0943 75.8371 28.1461 76.3152 27.0417C77.358 24.6991 77.5568 22.0681 76.878 19.5958C76.6869 18.6555 76.1925 17.8036 75.4705 17.1708C74.7519 16.541 73.8475 16.163 72.8949 16.0936C72.0412 15.9252 71.1562 16.0203 70.3574 16.3665C69.893 16.5677 69.4707 16.8483 69.108 17.193C69.1105 17.1628 69.113 17.1326 69.1154 17.1024C69.1973 16.1017 69.2797 15.0936 69.2807 14.0643C69.3029 13.7687 69.2675 13.4714 69.1765 13.1891C69.0835 12.9006 68.9341 12.6334 68.7371 12.4029C68.5401 12.1725 68.2994 11.9834 68.0288 11.8465C67.7609 11.7109 67.469 11.6293 67.1697 11.6061ZM70.6184 19.3549C71.101 19.299 71.5875 19.4275 71.9798 19.7155C72.3765 20.0067 72.6463 20.4385 72.7342 20.922C73.2173 22.7338 73.0136 24.6602 72.1618 26.3311C71.9739 26.7292 71.6797 27.0677 71.3115 27.3094C70.9475 27.5483 70.5252 27.6833 70.0902 27.7C69.6201 27.7568 69.1447 27.6454 68.7485 27.3852C68.3477 27.1219 68.0546 26.7238 67.9223 26.2631C67.6863 25.5122 67.5809 24.7264 67.6104 23.9399C67.5833 22.9227 67.7955 21.9134 68.23 20.9931C68.4086 20.5036 68.7363 20.0821 69.1672 19.7882C69.5945 19.4968 70.1017 19.3455 70.6184 19.3549ZM71.4534 20.433C71.2368 20.274 70.9669 20.2053 70.7005 20.2415C70.6758 20.2449 70.6508 20.2462 70.6259 20.2453C70.2852 20.2341 69.9499 20.3316 69.6684 20.5236C69.387 20.7155 69.1742 20.9919 69.0607 21.3127C69.0555 21.3273 69.0496 21.3417 69.0429 21.3557C68.6604 22.1585 68.4744 23.0407 68.5002 23.9294C68.5005 23.9396 68.5005 23.9498 68.5001 23.96C68.4726 24.6511 68.5648 25.3417 68.7727 26.0014L68.7766 26.0138C68.8496 26.2713 69.0128 26.4941 69.2368 26.6412C69.4609 26.7884 69.7305 26.85 69.9964 26.8148C70.0115 26.8128 70.0267 26.8116 70.0419 26.8112C70.3202 26.8031 70.5908 26.7179 70.8234 26.5653C71.056 26.4126 71.2416 26.1984 71.3594 25.9466L71.3662 25.9327C72.1234 24.4508 72.3029 22.7409 71.8699 21.1343C71.8662 21.1207 71.8632 21.1069 71.8609 21.093C71.8159 20.8287 71.6699 20.5919 71.4534 20.433Z" fill="white"/>
<path fill-rule="evenodd" clip-rule="evenodd" d="M58.4319 17.3554C57.3576 17.0704 56.2389 16.9919 55.1353 17.1242C55.1251 17.1255 55.1149 17.1263 55.1046 17.1268C54.1651 17.1741 53.2492 17.4372 52.4282 17.8958C52.054 18.12 51.7318 18.4212 51.483 18.7794C51.2331 19.1392 51.063 19.5482 50.9843 19.979C50.9808 19.9977 50.9762 20.0162 50.9704 20.0344C50.9088 20.2271 50.8927 20.4313 50.9232 20.6312C50.9537 20.8311 51.0302 21.0213 51.1465 21.1869C51.2628 21.3525 51.416 21.489 51.5939 21.5857C51.7698 21.6812 51.9652 21.7354 52.1652 21.744C52.3064 21.7445 52.4438 21.7582 52.5579 21.7696L52.5661 21.7704C52.6919 21.7829 52.7917 21.7925 52.8874 21.7925C52.8972 21.7925 52.9071 21.7928 52.9169 21.7935C53.1029 21.8058 53.2117 21.8091 53.2846 21.8031C53.2925 21.8024 53.2993 21.8017 53.3051 21.801C53.3092 21.7927 53.3141 21.7818 53.3197 21.768C53.3507 21.6919 53.3836 21.5792 53.4334 21.3921C53.4412 21.3629 53.4519 21.3346 53.4654 21.3076C53.4659 21.3061 53.4695 21.2959 53.4802 21.2528C53.4808 21.2504 53.4814 21.2479 53.4821 21.2452C53.4908 21.21 53.5058 21.1492 53.5331 21.0808C53.591 20.7997 53.7059 20.5331 53.8711 20.2978C54.047 20.0472 54.2756 19.8381 54.5408 19.685C54.806 19.532 55.1015 19.4388 55.4065 19.4118C55.6963 19.3862 55.9882 19.421 56.2636 19.5139C56.5757 19.5669 56.8641 19.7153 57.0888 19.9395C57.3236 20.1738 57.4759 20.4781 57.5226 20.8065C57.5916 21.2378 57.6095 21.6756 57.576 22.1111C57.5728 22.3208 57.5152 22.5637 57.3068 22.7376C57.1115 22.9006 56.8703 22.9265 56.6929 22.9265C55.2133 22.9277 53.7463 23.1984 52.364 23.7255C52.352 23.73 52.3399 23.7341 52.3275 23.7376C51.5787 23.9512 50.9156 24.3935 50.431 25.0024C49.9464 25.6112 49.6646 26.3562 49.6249 27.1329C49.6243 27.1447 49.6233 27.1565 49.6217 27.1681C49.5514 27.7045 49.6586 28.2491 49.927 28.719C50.1954 29.1887 50.6102 29.5579 51.1082 29.7702C51.8873 30.1008 52.7459 30.1974 53.5791 30.0483C54.4123 29.8992 55.1838 29.5108 55.7995 28.9306L55.8104 28.9207C56.0573 28.7031 56.283 28.4626 56.4845 28.2024C56.5888 28.0678 56.7609 28.0045 56.9276 28.0395C57.0942 28.0745 57.2263 28.2016 57.2677 28.3668C57.3121 28.5439 57.3701 28.7173 57.4414 28.8854C57.4478 28.9006 57.4534 28.9161 57.4581 28.9319C57.5464 29.228 57.7116 29.4955 57.937 29.7072C58.1624 29.919 58.4399 30.0674 58.7414 30.1372L58.753 30.1399C59.2392 30.2665 59.7497 30.2667 60.2359 30.1402C60.7431 30.0065 61.1915 29.7084 61.5108 29.2928C61.8301 28.877 62.0022 28.367 62.0001 27.843L62.0001 27.8412C62.0001 27.7503 61.9969 27.6936 61.9909 27.6545C61.9898 27.6476 61.9887 27.6419 61.9878 27.6374C61.9709 27.6291 61.9382 27.6163 61.8804 27.6022C61.6826 27.5767 61.4914 27.5133 61.3174 27.4154C61.1351 27.3129 60.9754 27.1748 60.8477 27.0091C60.7201 26.8434 60.6272 26.6537 60.5746 26.4513C60.5249 26.2602 60.5122 26.0615 60.5369 25.8659C60.5392 25.4509 60.5876 25.0004 60.6319 24.5876C60.6522 24.399 60.6716 24.2183 60.6854 24.0524C60.6859 24.0457 60.6866 24.039 60.6875 24.0324C60.8391 22.8546 60.9194 21.6688 60.9281 20.4814C60.928 19.7577 60.6828 19.0553 60.2323 18.4884C59.7815 17.9211 59.1517 17.5229 58.4453 17.3588L58.4319 17.3554ZM58.6535 16.4934C57.4772 16.1822 56.2528 16.0958 55.0446 16.2388C53.9715 16.2951 52.9258 16.5973 51.9883 17.1222L51.9777 17.1283C51.4924 17.4178 51.0746 17.8076 50.7523 18.2716C50.4353 18.728 50.2179 19.2458 50.1142 19.7914C50.018 20.1067 49.9938 20.4396 50.0437 20.7657C50.095 21.1014 50.2233 21.4207 50.4186 21.6987C50.6138 21.9766 50.8708 22.2056 51.1693 22.3677C51.4677 22.5299 51.7997 22.6209 52.1391 22.6336C52.1447 22.6338 52.1502 22.6339 52.1558 22.6339C52.2521 22.6339 52.3523 22.6435 52.478 22.656L52.4868 22.6569C52.5435 22.6626 52.6059 22.6688 52.6716 22.6737C52.4678 22.7398 52.2655 22.8109 52.0647 22.8871C51.1453 23.1536 50.3311 23.699 49.7349 24.448C49.1383 25.1976 48.7897 26.1139 48.7373 27.0701C48.6463 27.7935 48.7926 28.5271 49.1545 29.1606C49.5194 29.7992 50.0834 30.3009 50.7602 30.5893C51.6983 30.9873 52.7326 31.1039 53.7358 30.9244C54.7365 30.7453 55.6636 30.2794 56.4042 29.5835C56.4913 29.5066 56.5761 29.4272 56.6586 29.3455C56.8 29.729 57.0289 30.0751 57.3279 30.356C57.6663 30.6739 58.0825 30.897 58.5346 31.0029C59.1662 31.1663 59.8291 31.1658 60.4605 31.0014L60.4617 31.0011C61.1596 30.8173 61.7768 30.4072 62.2163 29.835C62.6556 29.263 62.8926 28.5615 62.8898 27.8404C62.8898 27.6571 62.8855 27.3906 62.7448 27.1616C62.5855 26.9025 62.3223 26.789 62.0548 26.7291C62.0389 26.7255 62.0228 26.7228 62.0066 26.721C61.9175 26.7112 61.8314 26.6835 61.7534 26.6396C61.6753 26.5957 61.607 26.5366 61.5524 26.4658C61.4979 26.395 61.4582 26.3139 61.4357 26.2275C61.4133 26.141 61.4085 26.051 61.4217 25.9626C61.4249 25.9409 61.4266 25.9189 61.4266 25.8969C61.4266 25.5207 61.4674 25.1429 61.5103 24.7466C61.5317 24.5484 61.5537 24.3456 61.5712 24.1361C61.7266 22.9255 61.809 21.7067 61.8178 20.4862L61.8178 20.4831C61.8181 19.5576 61.5047 18.6593 60.9289 17.9346C60.3544 17.2117 59.5526 16.704 58.6535 16.4934ZM54.0371 22.3112C54.9077 22.1298 55.7964 22.0374 56.6894 22.0366C56.7169 21.6716 56.7015 21.3047 56.6435 20.9433L56.642 20.934C56.6228 20.7961 56.5591 20.6681 56.4604 20.5696C56.3616 20.471 56.2333 20.4073 56.0949 20.3883C56.0639 20.3841 56.0335 20.3766 56.0042 20.3659C55.8381 20.3059 55.6608 20.2828 55.4848 20.2983C55.3088 20.3139 55.1383 20.3677 54.9854 20.456C54.8324 20.5442 54.7006 20.6648 54.5993 20.8092C54.4979 20.9536 54.4294 21.1184 54.3985 21.2919C54.391 21.3341 54.3775 21.3749 54.3584 21.4131C54.3593 21.4113 54.3571 21.4134 54.3436 21.4677C54.343 21.4701 54.3424 21.4726 54.3418 21.4753C54.3324 21.5134 54.3155 21.5816 54.2836 21.6568C54.2395 21.8218 54.1957 21.9761 54.1436 22.104C54.1162 22.1713 54.0822 22.2424 54.0371 22.3112ZM57.3273 24.9591C57.2502 25.7522 56.8909 26.4913 56.3147 27.0422L56.3103 27.0463C55.8632 27.4624 55.2767 27.696 54.6665 27.702C54.3966 27.7289 54.1243 27.6789 53.8814 27.5572C53.633 27.4329 53.4261 27.2391 53.2858 26.9994C53.1288 26.7479 53.0513 26.4547 53.0636 26.1583C53.0756 25.8693 53.1724 25.5905 53.3417 25.3566C53.596 24.9174 54.009 24.5922 54.4956 24.4477C55.092 24.2082 55.724 24.0687 56.366 24.035C56.4953 24.0234 56.6235 24.0145 56.7333 24.0211C56.8356 24.0273 57.0237 24.0506 57.1733 24.1987C57.3293 24.3531 57.347 24.546 57.3493 24.6446C57.3516 24.7425 57.3389 24.8558 57.3282 24.9512L57.3273 24.9591ZM56.4364 24.9223C56.3703 25.4833 56.1111 26.0047 55.7022 26.3966C55.4139 26.6638 55.035 26.8123 54.6415 26.8121C54.6238 26.8121 54.6061 26.8132 54.5886 26.8153C54.4825 26.8279 54.3751 26.8092 54.2797 26.7614C54.1843 26.7136 54.1051 26.6389 54.0519 26.5467C54.0488 26.5414 54.0457 26.5361 54.0424 26.531C53.979 26.4308 53.9476 26.3137 53.9526 26.1953C53.9575 26.0769 53.9984 25.9628 54.07 25.8682C54.0823 25.8519 54.0934 25.8348 54.1034 25.817C54.2453 25.5634 54.4823 25.3762 54.7624 25.297C54.7781 25.2925 54.7936 25.2872 54.8087 25.281C55.322 25.0725 55.8667 24.9516 56.4201 24.9234C56.4255 24.9231 56.431 24.9228 56.4364 24.9223Z" fill="white"/>
<path fill-rule="evenodd" clip-rule="evenodd" d="M119.084 17.0707C117.901 16.8379 116.684 16.8379 115.501 17.0707C115.493 17.0723 115.485 17.0737 115.477 17.0748C114.443 17.2194 113.47 17.646 112.664 18.3077C111.858 18.9694 111.251 19.8404 110.908 20.8249L110.903 20.8386C110.459 21.9934 110.253 23.2263 110.299 24.4627C110.3 24.473 110.3 24.4833 110.299 24.4935C110.281 25.0813 110.327 25.6693 110.439 26.2467C110.44 26.2555 110.442 26.2644 110.443 26.2734C110.561 27.176 110.968 28.0162 111.605 28.6678C112.241 29.3195 113.072 29.7474 113.972 29.8873L113.988 29.8899C114.874 30.0589 115.782 30.0901 116.678 29.9823C116.686 29.9813 116.695 29.9806 116.703 29.9801C117.799 29.9101 118.853 29.5385 119.75 28.9064C120.648 28.2743 121.352 27.4064 121.786 26.399L121.788 26.3928C122.568 24.6541 122.828 22.727 122.535 20.8442C122.533 20.8307 122.531 20.8172 122.53 20.8035C122.473 19.8842 122.102 19.0123 121.478 18.3335C120.855 17.6547 120.017 17.2102 119.105 17.0742C119.098 17.0732 119.091 17.0721 119.084 17.0707ZM119.246 16.1955C117.957 15.9431 116.631 15.9429 115.341 16.1951C114.15 16.364 113.029 16.8568 112.1 17.6197C111.169 18.3838 110.467 19.3891 110.07 20.5256C109.586 21.7861 109.362 23.1312 109.41 24.4804C109.39 25.1246 109.441 25.7691 109.562 26.4021C109.707 27.4908 110.2 28.5036 110.968 29.2897C111.737 30.0773 112.741 30.5949 113.828 30.7655C114.799 30.9497 115.791 30.9841 116.772 30.8674C118.027 30.785 119.235 30.3583 120.263 29.634C121.293 28.908 122.103 27.9113 122.601 26.7542C123.448 24.8654 123.731 22.7728 123.417 20.7275C123.343 19.6121 122.89 18.5552 122.134 17.7314C121.375 16.9051 120.356 16.3632 119.246 16.1955ZM117.105 19.3565C117.54 19.3699 117.961 19.5172 118.309 19.7785C118.664 20.0445 118.926 20.4154 119.058 20.8386C119.06 20.8448 119.062 20.851 119.063 20.8572C119.217 21.4373 119.288 22.0362 119.274 22.6361C119.258 23.7654 119.015 24.8799 118.56 25.9139C118.364 26.4319 118.017 26.8793 117.564 27.1981C117.108 27.5188 116.566 27.6945 116.009 27.7023C115.595 27.7142 115.187 27.6034 114.836 27.3839C114.483 27.1637 114.204 26.844 114.033 26.465L114.031 26.4601C113.733 25.7754 113.587 25.0342 113.604 24.2878C113.567 23.2364 113.742 22.1883 114.119 21.2061C114.336 20.6034 114.751 20.0923 115.297 19.7566C115.838 19.4239 116.475 19.2832 117.105 19.3565ZM117.018 20.2424C116.581 20.188 116.138 20.284 115.763 20.5147C115.388 20.7453 115.103 21.0968 114.955 21.5109L114.952 21.521C114.615 22.3965 114.459 23.3311 114.494 24.2684C114.494 24.2776 114.494 24.2868 114.494 24.296C114.478 24.9164 114.598 25.5328 114.846 26.1021C114.944 26.3192 115.104 26.5026 115.307 26.6291C115.51 26.756 115.746 26.8199 115.986 26.8126L115.994 26.8124C116.373 26.8076 116.742 26.6883 117.052 26.4701C117.362 26.252 117.599 25.9453 117.731 25.5904C117.734 25.5821 117.738 25.574 117.741 25.5659C118.151 24.6375 118.37 23.636 118.384 22.6213L118.384 22.6169C118.396 22.1038 118.336 21.5916 118.206 21.0953C118.129 20.8542 117.978 20.6428 117.775 20.4905C117.57 20.3365 117.321 20.2508 117.064 20.2458C117.049 20.2455 117.033 20.2444 117.018 20.2424Z" fill="white"/>
<path fill-rule="evenodd" clip-rule="evenodd" d="M148.991 17.2062C148.279 16.9941 147.537 16.9014 146.795 16.9318L146.781 16.9323L146.536 16.9344C146.53 16.9344 146.524 16.9344 146.518 16.9342C145.482 16.9015 144.456 17.1395 143.54 17.6246C142.626 18.1091 141.854 18.8234 141.301 19.6969C140.069 21.7137 139.654 24.1238 140.139 26.4359L140.141 26.4453C140.284 27.2025 140.63 27.9067 141.143 28.4817C141.657 29.0568 142.317 29.481 143.055 29.7085L143.069 29.7132C144.418 30.1805 145.871 30.2604 147.263 29.9438C147.275 29.9411 147.287 29.9388 147.3 29.9371C148.144 29.8182 148.929 29.4338 149.539 28.8397L149.542 28.8371C149.711 28.6752 149.834 28.471 149.898 28.2458C149.961 28.0207 149.964 27.7826 149.904 27.5562C149.845 27.3299 149.726 27.1235 149.56 26.9584C149.393 26.7933 149.186 26.6755 148.959 26.6174C148.952 26.6157 148.946 26.6138 148.939 26.6118C148.616 26.5128 148.531 26.5227 148.5 26.5325C148.476 26.5401 148.405 26.5719 148.214 26.8319C147.879 27.3272 147.374 27.6838 146.795 27.8352C146.396 27.9444 145.978 27.9614 145.572 27.885C145.165 27.8084 144.781 27.6399 144.449 27.3923C144.117 27.1447 143.846 26.8245 143.657 26.4562C143.473 26.0989 143.371 25.7055 143.358 25.3043C143.333 25.1493 143.325 24.8993 143.518 24.7061C143.703 24.5211 143.955 24.5211 144.046 24.5211C144.169 24.5211 144.284 24.511 144.42 24.4986L144.426 24.4981C144.554 24.4865 144.701 24.4732 144.863 24.4726C146.288 24.3958 147.685 24.046 148.978 23.4422L148.987 23.4379C149.568 23.1825 150.068 22.7741 150.434 22.2563C150.8 21.7385 151.018 21.1311 151.065 20.499C151.066 20.485 151.067 20.471 151.07 20.4571C151.189 19.7558 151.043 19.0353 150.661 18.4351C150.279 17.8349 149.687 17.3978 149 17.2088L148.991 17.2062ZM149.241 16.352C148.438 16.1134 147.602 16.0088 146.766 16.0422L146.537 16.0443C145.349 16.0085 144.173 16.282 143.124 16.8381C142.072 17.3957 141.184 18.218 140.547 19.2238L140.543 19.2297C139.193 21.4393 138.737 24.0803 139.268 26.6144C139.44 27.5292 139.859 28.3798 140.48 29.0745C141.099 29.7686 141.896 30.2809 142.785 30.5567C144.283 31.0742 145.896 31.1639 147.442 30.8157C148.466 30.6677 149.417 30.1999 150.158 29.479C150.442 29.2076 150.647 28.8655 150.754 28.488C150.861 28.1099 150.864 27.7102 150.765 27.3302C150.665 26.9502 150.465 26.6038 150.187 26.3269C149.91 26.0525 149.567 25.8563 149.19 25.7579C148.882 25.6638 148.555 25.5836 148.236 25.6824C147.908 25.7844 147.687 26.0442 147.491 26.314C147.489 26.3169 147.487 26.3198 147.484 26.3228C147.483 26.3244 147.482 26.326 147.481 26.3277C147.266 26.6474 146.941 26.8775 146.568 26.9746L146.562 26.9763C146.293 27.0503 146.011 27.0619 145.737 27.0104C145.463 26.9588 145.204 26.8454 144.981 26.6788C144.758 26.5123 144.576 26.2969 144.448 26.0493C144.345 25.8477 144.28 25.629 144.256 25.4045C144.341 25.3994 144.42 25.3922 144.493 25.3856L144.5 25.385C144.637 25.3727 144.752 25.3625 144.875 25.3625C144.883 25.3625 144.891 25.3623 144.899 25.3619C146.44 25.2805 147.952 24.9032 149.35 24.2507C150.077 23.9302 150.703 23.4184 151.161 22.77C151.616 22.126 151.889 21.3712 151.951 20.5854C152.1 19.673 151.908 18.7371 151.411 17.9568C150.911 17.1718 150.138 16.6001 149.241 16.352ZM146.034 19.3558C146.354 19.3399 146.671 19.4201 146.945 19.5862C147.222 19.7537 147.441 20.0009 147.575 20.2952C147.731 20.6225 147.784 20.9897 147.726 21.3478C147.668 21.7079 147.501 22.0413 147.247 22.3033C147.242 22.3081 147.238 22.3127 147.233 22.3173C146.631 22.8854 145.857 23.2355 145.033 23.3121C144.879 23.337 144.738 23.3499 144.613 23.3613L144.603 23.3622C144.468 23.3746 144.35 23.3858 144.222 23.4074C144.198 23.4116 144.173 23.4137 144.148 23.4137C144.145 23.4137 144.143 23.4137 144.14 23.4137C144.098 23.4137 144.034 23.4138 143.973 23.4074C143.912 23.4009 143.791 23.3827 143.676 23.3003C143.539 23.2025 143.474 23.0628 143.454 22.9341C143.438 22.8297 143.45 22.7296 143.465 22.6512C143.573 21.8853 143.819 21.1452 144.191 20.4664C144.369 20.1301 144.636 19.8489 144.963 19.6532C145.286 19.4593 145.657 19.3565 146.034 19.3558ZM146.484 20.3474C146.36 20.2723 146.216 20.2365 146.072 20.245C146.062 20.2456 146.053 20.2458 146.044 20.2458C145.824 20.2448 145.608 20.3039 145.42 20.4167C145.232 20.5295 145.078 20.6917 144.976 20.8855L144.972 20.8914C144.699 21.3913 144.504 21.9299 144.394 22.488C144.438 22.4836 144.48 22.4798 144.521 22.476C144.657 22.4636 144.776 22.4526 144.904 22.4314C144.915 22.4295 144.926 22.4281 144.938 22.4271C145.565 22.3716 146.155 22.1075 146.614 21.6773C146.738 21.5471 146.819 21.3828 146.848 21.2057C146.877 21.0256 146.85 20.8408 146.771 20.6764L146.766 20.6657C146.707 20.5336 146.609 20.4226 146.484 20.3474Z" fill="white"/>
<path fill-rule="evenodd" clip-rule="evenodd" d="M68.7869 18.2889C68.7127 18.3622 68.647 18.4436 68.5913 18.5318V18.3014C68.6814 18.2515 68.7737 18.2052 68.868 18.1625C68.8402 18.204 68.8132 18.2462 68.7869 18.2889ZM73.4212 29.6615C73.0721 30.0853 72.6647 30.4612 72.2088 30.7769C71.2868 31.4157 70.2039 31.783 69.0832 31.8372C68.0743 31.96 67.0518 31.9103 66.0595 31.6903C65.0856 31.5302 64.196 31.0414 63.5392 30.3054C62.8823 29.5694 62.4979 28.6306 62.4499 27.6457C62.3851 26.167 62.4176 24.6857 62.5472 23.2113C62.6208 22.0379 62.7151 20.8714 62.8092 19.7065C62.9653 17.7759 63.1209 15.8497 63.1816 13.9042C63.1816 13.4173 63.2302 13.3687 63.7673 13.3687C64.0967 13.3505 64.4267 13.3477 64.7561 13.3602C64.6825 15.0254 64.5489 16.6793 64.4149 18.3366C64.3208 19.5018 64.2265 20.6685 64.1529 21.842C64.0233 23.3164 63.9908 24.7978 64.0556 26.2764C64.1036 27.2613 64.488 28.2001 65.1449 28.9361C65.8017 29.6721 66.6913 30.1609 67.6652 30.321C68.6575 30.541 69.68 30.5907 70.6889 30.4679C71.6536 30.4223 72.5906 30.1447 73.4212 29.6615ZM70.2563 27.2384C70.5451 27.1998 70.8223 27.0969 71.0672 26.9361C71.3687 26.7382 71.6093 26.4606 71.7621 26.1341C72.5695 24.5539 72.7609 22.7305 72.2992 21.0173C72.2349 20.6389 72.0259 20.3003 71.7164 20.0731C71.4068 19.8458 71.021 19.7477 70.6403 19.7994C70.2053 19.7851 69.777 19.9095 69.4176 20.1547C69.0656 20.3948 68.7975 20.7384 68.6503 21.1375C68.7756 21.1181 68.9031 21.1103 69.0312 21.1145C69.4119 21.0627 69.7977 21.1609 70.1073 21.3881C70.4168 21.6154 70.6258 21.954 70.6901 22.3324C71.1314 23.9699 70.976 25.7082 70.2563 27.2384ZM45.721 21.2256C45.6585 21.2038 45.603 21.1825 45.5701 21.1169V21.1078C45.6772 21.0726 45.7824 21.0324 45.8852 20.9872C45.8337 21.0689 45.7789 21.1484 45.721 21.2256ZM45.5723 29.4796C45.2934 29.6292 44.9988 29.7506 44.6926 29.841C42.3502 30.6264 39.8383 30.7615 37.425 30.2319C37.1184 30.2026 36.8208 30.1117 36.5503 29.9647C36.2797 29.8177 36.0416 29.6176 35.8504 29.3764C35.6591 29.1352 35.5186 28.8579 35.4373 28.5611C35.3559 28.2643 35.3355 27.9541 35.3771 27.6492C35.3771 26.5558 35.4715 25.4624 35.5659 24.369C35.623 23.7079 35.6801 23.0467 35.7163 22.3856C35.7895 21.2742 35.883 20.1627 35.9765 19.0513C36.1159 17.3951 36.2553 15.739 36.3272 14.0829C36.0401 14.1036 35.7532 14.1273 35.4665 14.1539C34.8366 14.1539 34.788 14.198 34.788 14.8318C34.7273 16.6874 34.5714 18.5431 34.4155 20.3987C34.3216 21.5155 34.2278 22.6323 34.1547 23.7491C34.1185 24.4103 34.0614 25.0714 34.0043 25.7325C33.9099 26.8259 33.8155 27.9193 33.8155 29.0128C33.774 29.3176 33.7946 29.6276 33.876 29.9243C33.9575 30.2209 34.098 30.4981 34.2892 30.7392C34.4805 30.9803 34.7185 31.1803 34.989 31.3272C35.2595 31.4742 35.5569 31.565 35.8634 31.5943C38.2766 32.1237 40.7884 31.989 43.1311 31.2045C43.9287 30.9686 44.6483 30.523 45.2146 29.9143C45.3429 29.7763 45.4624 29.6311 45.5723 29.4796ZM40.0411 24.2754C40.325 24.2867 40.6081 24.3218 40.8875 24.3807C41.1976 24.4514 41.4812 24.6084 41.7055 24.8335C41.9299 25.0587 42.0858 25.3428 42.1552 25.6528C42.3044 26.1885 42.2955 26.7553 42.1302 27.2852C42.3734 27.2422 42.6087 27.1562 42.8247 27.0295C43.2321 26.7905 43.5465 26.4208 43.7168 25.9805C43.9046 25.4298 43.9215 24.8351 43.7654 24.2746C43.6952 23.9655 43.5389 23.6826 43.3146 23.4585C43.0903 23.2344 42.8071 23.0782 42.4977 23.0081C41.8062 22.8618 41.0917 22.8618 40.4001 23.0081C40.1558 23.0567 40.1072 23.1538 40.1072 23.347C40.0915 23.6155 40.0706 23.8892 40.0496 24.1647L40.0411 24.2754ZM40.788 16.1368C41.1268 16.0804 41.4691 16.0479 41.8125 16.0396L41.8147 16.0532C42.1842 15.9985 42.5615 16.0672 42.8879 16.2486C43.2493 16.3504 43.5639 16.5751 43.7771 16.8839C43.9904 17.1927 44.089 17.5662 44.056 17.9399C44.0743 18.314 43.9631 18.6831 43.7411 18.9849C43.5191 19.2867 43.1998 19.503 42.837 19.5973C42.6965 19.6344 42.5547 19.6645 42.412 19.6874C42.4411 19.5507 42.4527 19.4099 42.4458 19.2684C42.482 18.8922 42.3846 18.5152 42.1707 18.2035C41.9567 17.8918 41.6398 17.6653 41.2754 17.5636C41.0253 17.4627 40.7622 17.399 40.4946 17.3742C40.5112 17.0419 40.528 16.7114 40.5448 16.3808C40.5448 16.1854 40.6421 16.1368 40.788 16.1368ZM94.9501 14.1134C94.6347 14.1143 94.3192 14.1092 94.0038 14.0983C93.5153 14.0983 93.418 14.1955 93.418 14.6824C93.3528 17.0353 93.156 19.3658 92.9597 21.6893C92.8632 22.831 92.7669 23.9713 92.6864 25.1114C92.6621 25.4769 92.6347 25.8423 92.6074 26.2078C92.5253 27.3043 92.4433 28.4007 92.4433 29.4972C92.4132 29.9222 92.5265 30.3451 92.7651 30.6984C93.0036 31.0516 93.3537 31.3148 93.7595 31.446C93.997 31.5332 94.2419 31.5986 94.4912 31.6415C95.9741 31.8848 97.4825 31.9338 98.9782 31.7872C100.534 31.7529 102.04 31.2311 103.282 30.2955C103.668 30.0053 104.022 29.6797 104.341 29.3243C103.204 30.0434 101.888 30.4421 100.535 30.472C99.0396 30.6185 97.5312 30.5695 96.0482 30.3262C95.7989 30.2833 95.554 30.2179 95.3166 30.1308C94.9108 29.9995 94.5607 29.7363 94.3221 29.3831C94.0835 29.0298 93.9702 28.607 94.0003 28.1819C94.0003 27.0854 94.0824 25.989 94.1644 24.8925C94.1918 24.527 94.2191 24.1616 94.2434 23.7961C94.3239 22.6561 94.4202 21.5162 94.5166 20.3746C94.6922 18.297 94.8682 16.2133 94.9501 14.1134ZM103.462 18.0433C103.679 18.7373 103.778 19.463 103.755 20.1899L103.758 20.1944C103.796 21.3767 103.664 22.5583 103.368 23.7035C103.165 24.6675 102.591 25.5133 101.769 26.0585C101.601 26.1704 101.424 26.2679 101.242 26.3504C101.514 25.9488 101.709 25.4946 101.81 25.0108C102.108 23.8671 102.239 22.6863 102.198 21.5051C102.221 20.7783 102.122 20.0526 101.905 19.3586C101.788 18.9603 101.561 18.6028 101.251 18.3271C100.94 18.0514 100.558 17.8686 100.149 17.7995C99.7779 17.7522 99.405 17.7279 99.032 17.7267C99.0468 17.4421 99.0609 17.1578 99.0742 16.874C99.0742 16.5814 99.1703 16.4842 99.4135 16.4842C100.174 16.3871 100.945 16.3871 101.706 16.4842C102.115 16.5533 102.497 16.7361 102.808 17.0118C103.118 17.2875 103.345 17.645 103.462 18.0433ZM133.658 18.2402C133.665 18.2007 133.672 18.1611 133.679 18.1213C133.614 18.121 133.55 18.121 133.486 18.121L133.427 18.121C133.439 18.1462 133.451 18.1716 133.462 18.1973C133.462 18.2459 133.511 18.2944 133.56 18.343C133.608 18.2459 133.658 18.2459 133.658 18.2459V18.2402ZM133.709 34.3757C133.841 34.3191 133.971 34.2566 134.097 34.1884C134.015 34.3004 133.929 34.4089 133.837 34.5136C133.373 35.0453 132.794 35.4654 132.145 35.7427C129.91 36.6818 127.405 36.7512 125.121 35.937C124.62 35.7748 124.167 35.4901 123.804 35.1089C123.502 34.8729 123.279 34.5504 123.166 34.1845C123.053 33.8186 123.054 33.4269 123.17 33.0617C123.312 32.7059 123.553 32.3978 123.864 32.1736C124.112 31.9942 124.398 31.8743 124.698 31.8218C124.619 32.1497 124.629 32.4938 124.73 32.8176C124.843 33.1835 125.066 33.506 125.368 33.7419C125.731 34.1231 126.184 34.4078 126.685 34.57C128.969 35.3842 131.474 35.3148 133.709 34.3757ZM127.612 30.9152C127.629 30.9404 127.647 30.9653 127.665 30.9898C128.269 31.0015 128.868 30.8737 129.416 30.6142C130.063 30.3082 130.613 29.831 131.006 29.2346L130.98 29.2472C130.326 29.557 129.598 29.6792 128.878 29.6001C127.858 29.6259 126.866 29.2623 126.105 28.5833C125.343 27.9043 124.87 26.961 124.78 25.9453C124.317 23.7371 124.609 21.4375 125.61 19.4152C125.757 19.1263 125.929 18.8533 126.124 18.599C125.236 19.1071 124.513 19.8647 124.046 20.7822C123.045 22.8046 122.753 25.1043 123.217 27.3123C123.307 28.3279 123.78 29.2712 124.541 29.9502C124.877 30.2499 125.258 30.4881 125.666 30.6585C125.92 30.5244 126.201 30.4455 126.49 30.4282C126.704 30.366 126.934 30.3806 127.139 30.4695C127.343 30.5584 127.511 30.7161 127.612 30.9152ZM131.771 31.3689C131.488 31.631 131.148 31.8195 130.779 31.9203C130.842 31.771 130.891 31.6149 130.922 31.4541C131.156 30.6998 131.257 29.911 131.221 29.1228C131.771 28.8141 132.239 28.3763 132.585 27.8456C132.591 27.833 132.597 27.8203 132.602 27.8079L132.611 27.7851C132.64 27.7115 132.664 27.6501 132.779 27.6501C132.83 28.4734 132.731 29.2991 132.486 30.087C132.389 30.579 132.139 31.0276 131.771 31.3689ZM133.462 22.3876C133.47 21.8579 133.387 21.3307 133.218 20.8285C133.122 20.5165 132.928 20.2437 132.664 20.0505C132.4 19.8574 132.082 19.7543 131.755 19.7564C131.322 19.7178 130.888 19.8143 130.513 20.0324C130.137 20.2505 129.839 20.5796 129.658 20.9743C129.631 21.0304 129.605 21.0869 129.58 21.1437C129.765 21.1099 129.955 21.1008 130.144 21.1177C130.471 21.1156 130.79 21.2188 131.054 21.4119C131.317 21.605 131.512 21.8778 131.608 22.1899C131.777 22.692 131.86 23.2192 131.852 23.749C131.901 24.5771 131.752 25.4043 131.419 26.1629C131.559 26.1295 131.696 26.0832 131.829 26.0239C132.328 25.8015 132.734 25.4115 132.975 24.9217C133.346 24.1308 133.514 23.2597 133.462 22.3876ZM84.9003 31.4208C84.7599 31.4832 84.6125 31.53 84.4609 31.56C84.1821 31.6151 83.8948 31.6122 83.6171 31.5514C83.5787 31.543 83.5393 31.5397 83.4999 31.5417C83.1947 31.5569 82.8907 31.4931 82.6174 31.3565C82.4005 31.248 82.2087 31.0966 82.0534 30.9122C82.5592 30.8435 83.0528 30.696 83.5157 30.4738C83.8426 30.3013 84.1455 30.0898 84.4182 29.8449C84.6832 29.7722 84.9429 29.679 85.1948 29.5659C85.1858 30.1366 85.0971 30.7042 84.9303 31.2522C84.9222 31.3088 84.9122 31.365 84.9003 31.4208ZM79.0831 30.3797L79.0773 30.3766C78.5421 30.0501 78.0997 29.5919 77.7924 29.0457C77.4852 28.4996 77.3233 27.8838 77.3223 27.2573C77.2326 25.9902 77.2652 24.7175 77.4195 23.4567C77.4671 22.742 77.5265 22.0273 77.586 21.3125C77.6481 20.5656 77.7103 19.8179 77.7588 19.0709C77.8074 18.34 78.003 18.1456 78.7347 18.1456C78.7873 18.1447 78.8399 18.1442 78.8925 18.144C78.9038 17.9876 78.9145 17.8313 78.9247 17.6751C78.9492 17.3062 79.0125 16.9142 79.2931 16.6461C79.5754 16.3764 79.9687 16.3347 80.3405 16.3344C80.7523 16.3273 81.1641 16.3432 81.574 16.3819C81.8928 16.3689 82.2107 16.4248 82.5061 16.5458C82.8126 16.6714 83.0871 16.864 83.3094 17.1094C83.5318 17.3549 83.6964 17.647 83.791 17.9644C83.8821 18.2701 83.9062 18.5917 83.8617 18.9073C83.8617 18.9073 83.4636 21.9398 83.4636 24.4257C83.4636 25.8425 84.3386 25.9789 85.1438 25.5852C85.1719 25.5086 85.1977 25.431 85.221 25.3525C85.5455 24.1935 85.7259 22.999 85.7581 21.7959C85.8067 21.2842 85.8432 20.7845 85.8797 20.2849C85.9161 19.7852 85.9526 19.2856 86.0012 18.7738C86.0498 18.2383 86.1968 18.0959 86.7328 18.0959C86.8521 18.0866 86.9715 18.0809 87.0909 18.0788C87.1125 17.8146 87.1247 17.6588 87.1247 17.6588L87.1737 17.3709C87.1985 17.098 87.254 16.773 87.4962 16.547C87.7363 16.3228 88.0574 16.2905 88.3307 16.2892C88.9071 16.2837 89.3772 16.2986 89.7699 16.3435C89.9461 16.3702 90.1214 16.4044 90.2951 16.4458C90.7082 16.5256 91.0872 16.7224 91.3885 17.0098C91.4617 17.0813 91.5319 17.1592 91.6007 17.2439C91.925 17.6583 92.0885 18.1758 92.0612 18.701C92.0605 20.138 91.9386 21.5428 91.817 22.9439C91.7842 23.3218 91.7514 23.6996 91.721 24.0775C91.6567 25.3314 91.5493 26.5719 91.4422 27.8084C91.3871 28.4454 91.3319 29.0818 91.2829 29.718C91.2575 31.1771 90.6871 32.5742 89.6835 33.6348C88.9965 34.3609 88.1407 34.8932 87.2019 35.1913C86.3486 35.8762 85.3021 36.2903 84.1987 36.3689C82.513 36.6143 80.7933 36.4642 79.1757 35.9306C78.5252 35.7157 77.9269 35.367 77.4195 34.907C77.1803 34.7108 76.9998 34.4524 76.898 34.1603C76.7962 33.8682 76.7771 33.5537 76.8427 33.2514C76.9083 32.9492 77.056 32.6708 77.2697 32.4471C77.4679 32.2396 77.7156 32.0864 77.9891 32.0018C77.9971 31.9326 78.0085 31.8637 78.0234 31.7953C78.1063 31.4129 78.2932 31.0609 78.5635 30.7779C78.7158 30.6184 78.8913 30.4844 79.0831 30.3797ZM88.3829 17.1778C88.9581 17.1329 89.5368 17.1788 90.0977 17.3137L90.1059 17.3156L90.1197 17.3184C90.429 17.3764 90.7064 17.545 90.9001 17.7925C91.0938 18.0399 91.1905 18.3493 91.1722 18.6628L91.1716 18.6756L91.1714 18.6887C91.1714 20.0876 91.0536 21.4466 90.9323 22.846L90.9258 22.9208L90.9261 22.9221L90.9255 22.9245L90.9254 22.9255C90.8942 23.2845 90.8628 23.6468 90.8334 24.0127L90.8328 24.0256C90.7692 25.2671 90.6641 26.4811 90.5577 27.7091C90.5017 28.3545 90.4455 29.0038 90.3948 29.6631C90.3941 29.6722 90.3936 29.6814 90.3935 29.6905C90.3748 30.9317 89.891 32.1208 89.0373 33.023C88.1836 33.9253 87.0223 34.4749 85.7825 34.5633C85.7717 34.5641 85.7609 34.5652 85.7501 34.5668C84.1327 34.8022 82.4825 34.6582 80.9305 34.1462C80.339 33.9508 79.795 33.6338 79.3338 33.2155C79.3283 33.2106 79.3227 33.2058 79.317 33.2011C79.141 33.0568 79.0084 32.8668 78.9335 32.6521C78.8587 32.4374 78.8447 32.2062 78.8929 31.9841C78.9411 31.7619 79.0497 31.5573 79.2068 31.3927C79.364 31.2281 79.5636 31.11 79.7838 31.0514C79.7982 31.0476 79.8124 31.043 79.8263 31.0378C79.9925 30.9751 80.1664 30.935 80.3434 30.9188C80.3572 30.9175 80.3711 30.9156 80.3848 30.913C80.5874 30.8749 80.7119 30.8526 80.8053 30.8449C80.8643 30.84 80.8891 30.8438 80.8968 30.8453C80.9034 30.8498 80.9231 30.8643 80.9569 30.9048C81.0146 30.9735 81.0853 31.078 81.1971 31.2519L81.2027 31.2602C81.4592 31.6402 81.8095 31.9476 82.2197 32.1526C82.6121 32.3487 83.0466 32.4449 83.4846 32.4329C83.8637 32.508 84.254 32.5081 84.6335 32.4331C85.0322 32.3543 85.4104 32.1941 85.7445 31.9626C86.0785 31.731 86.3612 31.4331 86.5749 31.0874C86.7836 30.7497 86.9221 30.3735 86.9821 29.9813C87.1922 29.1963 87.2754 28.3827 87.2285 27.5713C87.2174 27.3795 87.0846 27.2165 86.899 27.167C86.7135 27.1175 86.5171 27.1927 86.412 27.3535C86.0392 27.9239 85.5277 28.3906 84.9254 28.7099C84.2952 29.011 83.6029 29.1599 82.9044 29.1446C82.2073 29.1294 81.5236 28.951 80.9081 28.6239C80.4426 28.3375 80.0578 27.9373 79.7899 27.4612C79.52 26.9814 79.3778 26.4406 79.377 25.8903C79.3769 25.88 79.3766 25.8698 79.3758 25.8596C79.2881 24.621 79.32 23.377 79.4709 22.1445C79.4719 22.1364 79.4727 22.1282 79.4732 22.12C79.5205 21.4092 79.58 20.6986 79.6395 19.9829L79.6392 19.9816L79.6431 19.9344C79.7039 19.2041 79.7647 18.4693 79.8125 17.7339C79.8366 17.3721 79.8954 17.3014 79.9077 17.2896C79.9173 17.2805 79.9858 17.2244 80.3445 17.2244L80.3522 17.2243C80.7422 17.2175 81.1322 17.233 81.5203 17.2708C81.543 17.2731 81.5659 17.2735 81.5887 17.2722C81.7869 17.2609 81.9852 17.2942 82.1689 17.3694C82.3525 17.4447 82.517 17.56 82.6501 17.707C82.7833 17.854 82.8817 18.0289 82.9384 18.2188C82.995 18.4087 83.0083 18.6088 82.9774 18.8045C82.9738 18.8275 82.972 18.8507 82.972 18.874C82.972 19.6745 82.8881 20.4703 82.8041 21.2674C82.7792 21.5035 82.7543 21.7397 82.7315 21.9762C82.5672 22.8846 82.5015 23.8081 82.5356 24.7306C82.5392 25.1116 82.6514 25.4838 82.8591 25.8034C83.0681 26.1251 83.365 26.3801 83.7146 26.5382C84.0641 26.6963 84.4517 26.7509 84.8313 26.6956C85.2084 26.6407 85.5621 26.4796 85.851 26.2311C86.5232 25.6845 87.0152 24.9481 87.2628 24.1179L87.2648 24.1108C87.5979 22.9214 87.7836 21.6958 87.8178 20.4613C87.8662 19.9499 87.9031 19.4502 87.9391 18.9568L87.9388 18.9555C87.9753 18.4552 88.0119 17.9598 88.06 17.4536L88.0597 17.4523C88.0658 17.3852 88.073 17.3333 88.0806 17.2931C88.0866 17.2616 88.0928 17.2373 88.0989 17.2186C88.1013 17.2113 88.1035 17.2055 88.1053 17.2011C88.109 17.2 88.1135 17.1987 88.1191 17.1974C88.1598 17.1875 88.2296 17.1792 88.3483 17.1792L88.3574 17.1791L88.3691 17.1787L88.3817 17.1779L88.3829 17.1778ZM56.8365 28.4738C56.6178 28.7561 56.3728 29.0171 56.1049 29.2533C55.8546 29.4891 55.5811 29.6962 55.2893 29.8719C55.3224 30.0466 55.3839 30.215 55.4717 30.3702C55.5822 30.743 55.7898 31.0799 56.0733 31.3463C56.3568 31.6127 56.7061 31.7991 57.0854 31.8863C57.6452 32.0321 58.2331 32.0321 58.7929 31.8863C59.3936 31.7266 59.9244 31.3726 60.3025 30.8796C60.3922 30.7626 60.472 30.6395 60.5417 30.5113C60.4783 30.5329 60.4139 30.5524 60.3488 30.5695C59.789 30.7153 59.2011 30.7153 58.6413 30.5695C58.2634 30.4819 57.9154 30.2959 57.6328 30.0304C57.3501 29.7649 57.1429 29.4294 57.0321 29.0579C56.9519 28.8686 56.8865 28.6733 56.8365 28.4738ZM54.5445 30.5702C54.759 30.3811 54.9587 30.1761 55.1421 29.957C54.6822 30.2122 54.181 30.3915 53.6578 30.4851C52.7396 30.6494 51.7934 30.5429 50.9348 30.1786C50.3473 29.9283 49.8578 29.4928 49.5411 28.9386C49.2244 28.3843 49.0979 27.7418 49.181 27.109C49.2219 26.3075 49.4931 25.5362 49.9601 24.8867C49.4029 25.158 48.9102 25.5513 48.5205 26.0408C47.9781 26.7223 47.6626 27.5562 47.6183 28.4258C47.5354 29.0589 47.6622 29.7016 47.9793 30.2559C48.2964 30.8102 48.7864 31.2455 49.3744 31.4954C50.233 31.8597 51.1792 31.9662 52.0973 31.8019C53.0155 31.6376 53.8659 31.2096 54.5445 30.5702ZM51.5338 23.5645C51.7266 23.4714 51.927 23.3928 52.1335 23.3298C52.1923 23.2166 52.2394 23.0536 52.3009 22.8221C52.3253 22.7736 52.3374 22.7247 52.3496 22.6758C52.3617 22.627 52.3739 22.5781 52.3982 22.5295C52.4178 22.4195 52.4484 22.312 52.4895 22.2087C52.3784 22.1978 52.2673 22.1877 52.1561 22.1877C51.8851 22.1776 51.6202 22.1049 51.3819 21.9755C51.1437 21.8461 50.9387 21.6633 50.7829 21.4416C50.627 21.2198 50.5247 20.9651 50.4838 20.6972C50.4428 20.4294 50.4645 20.1558 50.547 19.8977C50.6303 19.4419 50.8029 19.0075 51.0544 18.6191C50.9151 18.6847 50.7779 18.7552 50.6432 18.8306C50.2123 19.0877 49.8414 19.4337 49.5553 19.8456C49.2692 20.2575 49.0745 20.7258 48.9843 21.219C48.9026 21.4768 48.8816 21.75 48.923 22.0172C48.9643 22.2845 49.0668 22.5386 49.2225 22.7598C49.3783 22.9809 49.583 23.1632 49.8208 23.2924C50.0585 23.4216 50.323 23.4942 50.5934 23.5045C50.7157 23.5045 50.838 23.5167 50.9601 23.5289C51.0819 23.541 51.2036 23.5531 51.3251 23.5531C51.4018 23.5582 51.4711 23.5622 51.5338 23.5645ZM56.6929 22.4803C56.3153 22.4806 55.9385 22.4978 55.5637 22.5318C55.5531 22.4169 55.5387 22.3024 55.5203 22.1883C55.4878 21.9542 55.3796 21.7372 55.2122 21.5701C55.0448 21.4031 54.8274 21.2953 54.5931 21.2631C54.3933 21.1908 54.1818 21.1577 53.97 21.1653C54.0159 20.9452 54.1061 20.7366 54.2355 20.5523C54.3741 20.3548 54.5543 20.1899 54.7634 20.0693C54.9725 19.9486 55.2054 19.8751 55.4459 19.8539C55.6865 19.8326 55.9287 19.8641 56.1558 19.9462C56.3901 19.9785 56.6075 20.0863 56.7749 20.2533C56.9423 20.4203 57.0505 20.6374 57.083 20.8715C57.1477 21.2745 57.1641 21.6837 57.1316 22.0906C57.1316 22.382 56.9858 22.4803 56.6929 22.4803ZM56.3978 24.4778C55.7947 24.5085 55.201 24.6403 54.6416 24.8676C54.2481 24.9789 53.915 25.2418 53.7155 25.5985C53.6199 25.7249 53.5553 25.871 53.5258 26.0253C53.9504 25.8949 54.3902 25.8173 54.8351 25.7946C55.3247 25.7946 55.3733 25.7946 55.3224 26.2284C55.2892 26.5741 55.1941 26.908 55.0443 27.2153C55.4024 27.142 55.7364 26.9717 56.0076 26.7193C56.5076 26.2413 56.819 25.5998 56.8851 24.9116C56.9338 24.4733 56.9338 24.4247 56.3978 24.4733V24.4778ZM110.488 20.676C110.022 21.8871 109.807 23.18 109.855 24.4766C109.835 25.0973 109.885 25.7184 110.002 26.3283C110.132 27.3265 110.583 28.2556 111.286 28.9761C111.99 29.6966 112.909 30.1697 113.904 30.3243C114.836 30.502 115.79 30.5347 116.731 30.4215C117.714 30.3587 118.667 30.07 119.516 29.5811C119.185 29.9567 118.81 30.294 118.398 30.5848C117.433 31.2642 116.3 31.6636 115.122 31.7388C114.181 31.8519 113.227 31.8191 112.295 31.6416C111.3 31.4868 110.382 31.0136 109.678 30.2931C108.975 29.5726 108.524 28.6436 108.394 27.6456C108.296 27.0332 108.246 26.4141 108.245 25.7939C108.197 24.4972 108.413 23.2043 108.879 21.9933C109.248 20.9315 109.904 19.992 110.773 19.2784C111.045 19.0546 111.336 18.8558 111.64 18.6834C111.135 19.2663 110.743 19.9419 110.488 20.676ZM118.634 20.9686C118.778 21.5087 118.844 22.0663 118.83 22.6249H118.828C118.813 23.6993 118.583 24.7597 118.149 25.7431C117.986 26.1822 117.693 26.5617 117.309 26.8315C117.075 26.9966 116.813 27.116 116.537 27.1851C116.555 27.1441 116.572 27.1025 116.588 27.0604C117.022 26.0772 117.253 25.0167 117.269 23.9422C117.282 23.3833 117.216 22.8253 117.073 22.2848C116.968 21.951 116.761 21.6585 116.481 21.4487C116.201 21.2388 115.862 21.1223 115.512 21.1155C115.209 21.0777 114.903 21.0989 114.612 21.1756C114.807 20.7457 115.126 20.382 115.531 20.133C115.992 19.8493 116.537 19.7312 117.074 19.7982C117.424 19.8051 117.763 19.9218 118.043 20.1318C118.323 20.3419 118.53 20.6346 118.634 20.9686ZM139.307 20.825C139.848 19.9703 140.583 19.2573 141.451 18.7431C141.259 18.9692 141.083 19.2091 140.923 19.4613C139.631 21.5754 139.195 24.1026 139.704 26.527C139.861 27.3639 140.244 28.1421 140.812 28.7776C141.379 29.4131 142.109 29.8819 142.924 30.1332C144.351 30.6277 145.889 30.7123 147.362 30.3772C147.794 30.3164 148.212 30.1929 148.604 30.0128C148.513 30.203 148.387 30.376 148.234 30.523C147.555 31.1827 146.684 31.6093 145.746 31.7409C144.273 32.0759 142.735 31.9914 141.308 31.4968C140.493 31.2456 139.763 30.7769 139.195 30.1414C138.628 29.5059 138.245 28.7276 138.088 27.8906C137.579 25.4662 138.015 22.9391 139.307 20.825ZM147.556 25.2085C146.442 25.729 145.252 26.068 144.034 26.2141C143.888 25.9163 143.809 25.5901 143.802 25.2582C143.754 25.0142 143.851 24.9656 144.047 24.9656C144.192 24.9656 144.326 24.9535 144.46 24.9414C144.594 24.9292 144.729 24.917 144.875 24.917C146.362 24.8385 147.819 24.4745 149.167 23.8449C149.187 23.8358 149.208 23.8266 149.228 23.8171C149.215 23.837 149.201 23.8567 149.187 23.8763C148.775 24.4601 148.211 24.9206 147.556 25.2085ZM146.045 19.8025C145.744 19.8012 145.448 19.8822 145.191 20.0367C144.933 20.1913 144.722 20.4135 144.581 20.6792C144.503 20.8222 144.431 20.9681 144.365 21.1165C144.388 21.1156 144.412 21.1152 144.435 21.1153C144.669 21.1056 144.901 21.1652 145.102 21.2866C145.302 21.408 145.462 21.5858 145.562 21.7977C145.68 22.0442 145.721 22.3212 145.677 22.5913C145.669 22.6423 145.658 22.6926 145.644 22.7419C146.12 22.5959 146.56 22.3417 146.927 21.9954C147.117 21.7988 147.243 21.5486 147.286 21.2785C147.33 21.0084 147.29 20.7314 147.171 20.4849C147.074 20.2721 146.915 20.0935 146.715 19.9725C146.515 19.8515 146.283 19.7939 146.049 19.8071L146.045 19.8025Z" fill="white"/>
<path fill-rule="evenodd" clip-rule="evenodd" d="M5.13771 23.6681C4.53187 24.4101 4.20397 25.34 4.21044 26.2975C3.77354 26.1191 3.37705 25.8546 3.0446 25.5198C2.2908 24.8106 1.80712 23.8617 1.67632 22.8355C1.6277 22.64 1.57907 22.4943 1.38345 22.4457C1.2991 22.425 1.21027 22.4329 1.13087 22.468C1.05147 22.5032 0.985989 22.5637 0.944693 22.64C0.944693 22.6886 0.896073 22.7372 0.847451 22.7858C0.465566 23.3839 0.205491 24.0514 0.0821243 24.7501C-0.0412423 25.4488 -0.025485 26.1649 0.128494 26.8575C0.282474 27.5501 0.571652 28.2056 0.979478 28.7864C1.3873 29.3672 1.90577 29.8619 2.5052 30.2423C2.60112 30.3089 2.68123 30.3957 2.73985 30.4966C2.79847 30.5976 2.83418 30.7101 2.84444 30.8264C2.91228 31.5389 3.11084 32.2328 3.4302 32.8735C3.62141 33.2946 3.93026 33.6515 4.31962 33.9014C4.70898 34.1514 5.1623 34.2836 5.62509 34.2824H7.13924C7.38042 34.2726 7.61834 34.3407 7.81772 34.4767C8.26101 34.7728 8.77659 34.943 9.30923 34.9688C9.84187 34.9947 10.3715 34.8753 10.8415 34.6236C11.2259 34.3988 11.6638 34.2817 12.1091 34.2846H13.1336C13.2484 34.2846 13.3633 34.2805 13.4774 34.2763C14.0421 34.2559 14.5897 34.2361 15.0356 34.723C15.0607 34.723 15.0854 34.7353 15.11 34.7475C15.1343 34.7595 15.1585 34.7716 15.1826 34.7716C15.9831 35.0436 16.8584 34.9912 17.6207 34.6258C18.1516 34.3693 18.7394 34.2527 19.3282 34.2869H20.1107C20.5754 34.2943 21.0318 34.164 21.4225 33.9125C21.8131 33.6609 22.1204 33.2994 22.3056 32.8735C22.6567 32.1743 22.872 31.4148 22.94 30.6354C23.0233 30.0542 22.9391 29.4613 22.6972 28.9263C22.4552 28.3912 22.0656 27.9361 21.5739 27.6144C21.4303 27.5059 21.4458 27.4245 21.4637 27.3307C21.4701 27.2975 21.4767 27.2627 21.4767 27.2246C21.5911 26.6036 21.572 25.9653 21.4208 25.3521C21.2695 24.7389 20.9894 24.1649 20.5992 23.6681C20.544 23.6013 20.5048 23.5227 20.4845 23.4385C20.4643 23.3542 20.4635 23.2664 20.4822 23.1818C20.501 23.0972 20.5388 23.018 20.5927 22.9501C20.6467 22.8823 20.7154 22.8276 20.7937 22.7903C21.8297 22.2768 22.7154 21.5046 23.3648 20.5485C24.0143 19.5925 24.4055 18.485 24.5005 17.3335C24.6175 15.8983 24.435 14.4545 23.9645 13.0934C23.8999 12.9396 23.8829 12.77 23.9158 12.6065C24.4036 10.796 24.5031 8.90293 24.2076 7.05137C24.0865 6.09515 23.789 5.16965 23.3301 4.32183C23.1713 4.02203 22.9177 3.78307 22.609 3.64209C22.3002 3.50111 21.9534 3.46602 21.6226 3.54228C21.1995 3.63708 20.79 3.78434 20.4036 3.98064C19.5237 4.43034 18.703 4.98702 17.9599 5.63802C17.884 5.71189 17.7873 5.76079 17.6828 5.77816C17.5783 5.79553 17.471 5.78053 17.3753 5.73518C15.9539 5.11295 14.4202 4.78766 12.8684 4.77931C11.3166 4.77096 9.77946 5.07971 8.35146 5.6866C8.24542 5.75414 8.11867 5.78147 7.99419 5.76364C7.86972 5.74582 7.75575 5.68401 7.67298 5.58944C6.8939 4.90476 6.02403 4.3307 5.08796 3.88348C3.4302 3.10393 2.50294 3.49935 1.91379 5.19402C1.16765 7.48307 1.10049 9.93894 1.72042 12.2653C1.77839 12.606 1.7618 12.9552 1.6718 13.2889C1.19457 14.8168 1.07845 16.4344 1.33256 18.0147C1.52239 19.0358 1.94732 19.9989 2.57377 20.8277C3.20021 21.6565 4.01101 22.3284 4.94208 22.7903C5.01787 22.8301 5.08406 22.886 5.13607 22.954C5.18808 23.022 5.22467 23.1004 5.24328 23.184C5.26189 23.2675 5.26209 23.354 5.24386 23.4377C5.22563 23.5213 5.18941 23.5999 5.13771 23.6681ZM1.96707 17.5779C1.78326 16.2533 1.89918 14.9044 2.30631 13.6305C3.00594 11.2123 4.47958 9.08999 6.50159 7.58841C6.79334 7.34438 6.84083 7.15006 6.59997 6.85744C6.23224 6.35442 5.82459 5.88178 5.38097 5.4441C5.55186 5.27236 5.68434 5.36491 5.81447 5.45581C5.8324 5.46834 5.8504 5.48091 5.86834 5.49268C6.42817 5.82704 6.95122 6.21935 7.42885 6.66312C7.56044 6.76096 7.71591 6.82169 7.87902 6.83898C8.04214 6.85627 8.2069 6.82948 8.35611 6.76141C10.4719 5.83183 12.8277 5.59456 15.0867 6.08355C15.8567 6.25288 16.6082 6.49773 17.3302 6.81451C17.4399 6.86894 17.5636 6.8887 17.6848 6.87114C17.806 6.85358 17.9189 6.79954 18.0087 6.71622C18.495 6.28385 19.0166 5.89272 19.568 5.5469L19.57 5.54541C19.765 5.40016 19.9601 5.2548 20.2024 5.40116C19.7863 5.81605 19.3951 6.25517 19.0309 6.71622C18.6917 7.20429 18.6917 7.30145 19.1779 7.64264C20.4983 8.64707 21.5868 9.9237 22.3694 11.3858C23.152 12.8479 23.6105 14.4611 23.7136 16.116C23.7721 16.5866 23.756 17.0636 23.6661 17.5293C23.4823 17.8414 23.2166 18.0972 22.8976 18.2691C22.5787 18.441 22.2187 18.5223 21.8568 18.5043C20.7918 18.5719 19.7424 18.2221 18.9314 17.5293C18.1485 16.8863 17.3997 16.2029 16.6879 15.4822C16.2346 15.0365 15.7452 14.6292 15.2246 14.2643C14.5136 13.7491 13.6557 13.4758 12.7774 13.4846C11.8992 13.4933 11.047 13.7837 10.3463 14.3128C9.63967 14.8455 8.97541 15.4321 8.3595 16.0674C7.8933 16.5473 7.40263 17.0028 6.88946 17.4321C6.05056 18.1537 4.97215 18.536 3.86569 18.5043C3.49817 18.5106 3.13437 18.4299 2.80401 18.2689C2.47364 18.1079 2.18608 17.8711 1.96481 17.5779H1.96707ZM22.6479 10.3651C22.8857 10.745 23.0764 11.125 23.2671 11.5049L23.2802 11.531C23.3287 11.4232 23.3614 11.3091 23.3774 11.192C23.5006 10.3533 23.5494 9.5053 23.5233 8.65796C23.5195 7.4407 23.2894 6.23473 22.8448 5.10143C22.6005 4.51846 22.6005 4.51846 22.0634 4.85739L22.0148 4.90597L22.0292 4.96542C22.0088 4.94492 21.9871 4.92566 21.964 4.90781C21.2715 5.33181 20.6468 5.85738 20.1106 6.4669C19.6233 7.00354 19.6233 7.05212 20.1593 7.49047C21.115 8.33193 21.9528 9.2985 22.6479 10.3651ZM3.62474 4.95643C4.46006 5.44111 5.19057 6.08701 5.77341 6.85663C5.87066 7.00351 5.91928 7.10067 5.77341 7.24641C4.68407 8.13006 3.74438 9.18333 2.9905 10.3657C2.7963 10.7549 2.59992 11.1436 2.35718 11.5812C2.19837 11.2474 2.13087 10.8775 2.16155 10.5091C1.97381 8.92322 2.10647 7.31584 2.55167 5.78211C2.57627 5.6838 2.61332 5.5852 2.65037 5.4866C2.68654 5.39033 2.72273 5.29401 2.7473 5.19801C2.86645 4.8658 2.92721 4.6964 3.03286 4.66109C3.14279 4.62435 3.30133 4.73276 3.62481 4.95398L3.62474 4.95643ZM11.9488 14.375C11.5513 14.5132 11.2016 14.762 10.941 15.0922H10.9376C10.8366 15.4559 10.8638 15.8432 11.0148 16.1892C11.1657 16.5352 11.4311 16.8188 11.7665 16.9925C11.7977 17.0237 11.831 17.0504 11.8623 17.0755C11.9785 17.1687 12.0667 17.2395 11.9135 17.4309C11.8159 17.5391 11.6951 17.6238 11.5601 17.6787C11.4251 17.7336 11.2795 17.7573 11.134 17.7479C10.9885 17.7386 10.8471 17.6965 10.7203 17.6247C10.5934 17.553 10.4845 17.4535 10.4016 17.3337C10.243 17.1411 10.1114 16.9279 10.0103 16.6999C9.99749 16.6505 9.97319 16.6048 9.9394 16.5665C9.90562 16.5283 9.8633 16.4985 9.81585 16.4796C9.76841 16.4606 9.71718 16.4531 9.6663 16.4577C9.61543 16.4622 9.56632 16.4786 9.52296 16.5056C9.47927 16.5257 9.44037 16.5549 9.40884 16.5912C9.3773 16.6275 9.35386 16.6701 9.34006 16.7162C9.32627 16.7622 9.32243 16.8107 9.32882 16.8583C9.3352 16.906 9.35166 16.9517 9.37709 16.9925C9.57218 17.4868 9.91138 17.9111 10.3507 18.2104C10.4293 18.2685 10.4956 18.3415 10.5458 18.4253C10.5961 18.509 10.6293 18.6019 10.6436 18.6985C10.7329 19.3647 11.0421 19.9821 11.5222 20.453C11.6817 20.6168 11.8731 20.7461 12.0847 20.8329C12.2962 20.9196 12.5234 20.962 12.752 20.9573C12.9807 20.9527 13.2059 20.9011 13.4138 20.8058C13.6216 20.7105 13.8076 20.5735 13.9602 20.4033C14.4476 19.9582 14.7593 19.3534 14.8389 18.6985C14.8577 18.6168 14.8934 18.54 14.9437 18.4729C14.9939 18.4058 15.0576 18.3499 15.1306 18.3087C15.6236 18.022 16.0026 17.5744 16.2038 17.0411C16.2292 17.0003 16.2456 16.9545 16.252 16.9069C16.2584 16.8592 16.2546 16.8108 16.2408 16.7647C16.227 16.7187 16.2035 16.6761 16.172 16.6398C16.1405 16.6035 16.1016 16.5743 16.0579 16.5542C16.0183 16.5246 15.9723 16.5046 15.9236 16.496C15.8749 16.4874 15.8248 16.4903 15.7775 16.5044C15.7301 16.5186 15.6867 16.5437 15.6507 16.5776C15.6148 16.6115 15.5873 16.6534 15.5705 16.6999C15.4513 16.9176 15.321 17.1291 15.1804 17.3337C14.7405 17.8703 14.399 17.9167 13.7657 17.5777C13.4751 17.2365 13.4751 17.2365 13.8144 17.0411C14.0538 16.9186 14.2592 16.7389 14.4123 16.5179C14.5654 16.297 14.6614 16.0416 14.6919 15.7746C14.7198 15.6275 14.718 15.4764 14.6865 15.33C14.6551 15.1837 14.5946 15.0451 14.5087 14.9224C14.4229 14.7998 14.3133 14.6955 14.1865 14.6158C14.0596 14.5362 13.9181 14.4826 13.7703 14.4584C13.5891 14.3647 13.3885 14.3148 13.1845 14.3127C12.7751 14.2153 12.3463 14.2369 11.9488 14.375ZM13.6736 19.5741C13.6015 19.7473 13.4803 19.8959 13.324 20C13.1677 20.1042 12.9841 20.1598 12.7962 20.1598C12.6084 20.1598 12.4247 20.1042 12.2685 20C12.1122 19.8959 11.9903 19.7478 11.9182 19.5746C11.7237 19.4288 11.6752 19.2817 11.9669 19.2354C12.5361 19.041 13.1538 19.041 13.723 19.2354C13.9711 19.3177 13.8338 19.4357 13.7269 19.5275L13.7115 19.5406C13.6977 19.5523 13.6845 19.5634 13.6736 19.5741ZM3.13703 19.4778C2.85079 19.057 2.52393 18.6654 2.16114 18.3085H2.16001C2.33869 19.1769 2.74225 19.9832 3.33039 20.6471C4.51333 21.8938 6.04186 22.7592 7.72017 23.1326C10.3339 23.789 13.0495 23.9378 15.7195 23.5709C17.4881 23.393 19.1996 22.8452 20.7425 21.9633C21.4156 21.5746 22.004 21.0553 22.4732 20.4359C22.9424 19.8166 23.2829 19.1098 23.4745 18.357C23.2982 18.357 23.2413 18.4764 23.1961 18.5711C23.1912 18.5815 23.1864 18.5915 23.1817 18.6011C22.9839 18.9293 22.7568 19.239 22.5032 19.5264C21.2396 20.7693 19.6506 21.6308 17.9189 22.0119C15.6049 22.5649 13.2149 22.7294 10.8468 22.4988C8.97357 22.4094 7.13466 21.9631 5.42917 21.1837C4.57437 20.7482 3.79941 20.1714 3.13703 19.4778ZM3.13452 28.6432C3.02544 28.8921 2.94442 29.1524 2.89297 29.4192C2.84322 29.6146 2.79459 29.6632 2.64872 29.5163C1.88687 28.9729 1.3067 28.2126 0.983942 27.3346C0.661182 26.4567 0.61082 25.502 0.839432 24.595H0.843955C0.886897 24.3248 0.969184 24.0626 1.08817 23.8161C1.38339 24.6464 1.86722 25.397 2.50168 26.009C2.93293 26.4473 3.44729 26.7952 4.0147 27.0326C4.40482 27.2269 4.40482 27.4224 4.06332 27.6653C3.6979 27.9168 3.34674 28.2538 3.13452 28.6432ZM11.5257 31.993V32.0012L11.5246 31.9921L11.5257 31.993ZM11.5257 31.993V29.7597C11.5257 29.4207 11.3798 29.223 11.0383 29.2727C10.9112 29.1567 10.8255 29.0024 10.7941 28.8333C10.4865 27.9021 10.0248 27.0291 9.42807 26.2506C9.29069 25.9999 9.06502 25.809 8.79482 25.7151C8.77812 25.7068 8.76146 25.7 8.7453 25.6934C8.66623 25.6609 8.59919 25.6333 8.59919 25.4711C8.90623 25.5097 9.21328 25.5633 9.52032 25.6168C9.99353 25.6994 10.4667 25.7819 10.94 25.81C11.2127 25.81 11.1471 25.9373 11.0583 26.1099L11.0383 26.1489C10.8878 26.4931 10.8491 26.8758 10.9278 27.2431C11.0066 27.6103 11.1987 27.9437 11.4771 28.1961C11.7505 28.4584 12.0948 28.6352 12.4676 28.7044C12.8403 28.7737 13.2252 28.7325 13.5747 28.5858C14.0127 28.3871 14.3602 28.0316 14.5486 27.5894C14.737 27.1473 14.7526 26.6506 14.5924 26.1975C14.4466 25.8077 14.5924 25.8077 14.8853 25.8077C15.3854 25.7663 15.8857 25.6892 16.4185 25.6072L16.4216 25.6067C16.5116 25.5928 16.6025 25.5788 16.6946 25.5648C16.7296 25.6698 16.689 25.7243 16.6453 25.783C16.6284 25.8057 16.611 25.8291 16.5974 25.8563C15.7965 26.7684 15.2127 27.85 14.8899 29.0197C14.8753 29.0488 14.8651 29.0778 14.8554 29.1056C14.8325 29.1707 14.8121 29.2289 14.744 29.2637C14.3052 29.214 14.2068 29.3123 14.2068 29.7506C14.2068 30.4816 14.2068 31.2126 14.1582 31.9435C14.1268 31.9706 14.0946 31.9967 14.0618 32.0217C14.0625 32.2338 14.0743 32.4348 14.0861 32.6357C14.0982 32.8428 14.1104 33.0499 14.1104 33.2691C14.1104 33.5131 14.0618 33.5617 13.8661 33.5617H11.7176C11.522 33.5617 11.4247 33.5131 11.4734 33.3188C11.5138 32.8813 11.5301 32.4419 11.522 32.0026H11.5254L11.5482 32.0151L11.5674 32.0255C11.5534 32.0148 11.5395 32.004 11.5257 31.993ZM8.50199 32.927C9.26559 32.7467 10.0694 32.8681 10.7455 33.2659C10.7455 33.7043 10.5996 34.0455 10.1609 34.1426C9.72309 34.1912 9.23232 34.1936 8.79453 34.145C8.54321 34.1037 8.30391 34.0082 8.09322 33.8652C7.88253 33.7222 7.7055 33.5351 7.5744 33.3169C6.86104 32.4334 6.34146 31.4152 5.96658 30.3435C5.40576 29.1975 5.05896 27.959 4.94321 26.6886C4.88464 26.0206 5.00157 25.3488 5.28245 24.7398C5.5267 24.2528 5.5267 24.2528 5.96093 24.5454C6.01068 24.57 6.04771 24.5946 6.08474 24.6192C6.12093 24.6432 6.15712 24.6672 6.20518 24.6912L6.21084 24.6923C5.81711 26.0972 5.92055 27.5948 6.50372 28.9324C6.91862 30.225 7.50954 31.4544 8.25985 32.5861C8.28512 32.6138 8.30407 32.6466 8.31538 32.6823C8.32669 32.7181 8.3301 32.7558 8.32537 32.793C8.32064 32.8302 8.30788 32.8659 8.28798 32.8976C8.26807 32.9294 8.2415 32.9565 8.2101 32.977L8.20881 32.981C8.30802 32.9839 8.40693 32.9664 8.4994 32.9294L8.50199 32.9248V32.927ZM14.892 33.2681C15.2174 33.0696 15.5788 32.9375 15.9556 32.8793C16.3323 32.8212 16.7168 32.8381 17.0869 32.9292L17.1843 32.9293C18.2554 31.2721 19.0263 29.4399 19.4717 27.518C19.7324 26.5892 19.6984 25.6024 19.3745 24.6936C19.3992 24.6683 19.4365 24.6433 19.4736 24.6185C19.5095 24.5945 19.5451 24.5706 19.569 24.5467C20.1548 24.2541 20.1548 24.2541 20.399 24.8393C20.7483 25.8111 20.7823 26.8681 20.4963 27.8604C20.042 29.6381 19.3039 31.3312 18.3104 32.8743C18.261 32.9483 18.2117 33.01 18.1622 33.072C18.1142 33.132 18.066 33.1923 18.0175 33.2641C18.0307 33.2727 18.0252 33.2702 18.0188 33.2673C18.0116 33.2641 18.0033 33.2603 18.0175 33.2704C17.7443 33.6541 17.303 33.9898 16.8559 34.1386C16.4087 34.2875 15.9258 34.2905 15.4768 34.1472C15.038 34.0501 14.892 33.8081 14.892 33.2704V33.2681ZM12.4525 28.006C12.2977 27.9557 12.1555 27.8729 12.0353 27.7632C11.9151 27.6536 11.8197 27.5196 11.7554 27.3702C11.6912 27.2207 11.6596 27.0593 11.6627 26.8967C11.6659 26.7341 11.7037 26.5741 11.7737 26.4273C11.8437 26.2805 11.9442 26.1502 12.0686 26.0453C12.193 25.9404 12.3383 25.8632 12.4949 25.8189C12.6515 25.7745 12.8158 25.7641 12.9768 25.7882C13.1204 25.8098 13.2547 25.8372 13.3799 25.9102C13.6289 26.0508 13.8166 26.2789 13.9066 26.5502C13.9966 26.8214 13.9824 27.1164 13.8667 27.3778C13.7511 27.6392 13.5423 27.8482 13.2809 27.9643C13.0197 28.0804 12.7241 28.0952 12.4525 28.006ZM14.6479 25.1315C14.0135 25.2772 13.9694 25.2286 13.9694 24.6445C13.9694 24.3519 14.1164 24.3056 14.3595 24.3056C15.6299 24.2578 16.8903 24.0614 18.1149 23.7204C18.5444 23.6129 18.9679 23.4828 19.3837 23.3306C19.5296 23.282 19.6766 23.2334 19.6279 23.4763C19.603 23.5032 19.5775 23.5295 19.5514 23.5551C19.5753 23.5441 19.5992 23.5333 19.6234 23.5226C19.6651 23.731 19.527 23.7964 19.3656 23.8728C19.3388 23.8855 19.3115 23.8984 19.2842 23.9124C18.0711 24.498 16.7685 24.8768 15.4304 25.0331C15.1738 25.0894 14.9126 25.1219 14.6501 25.1303H14.6479L14.6405 25.1286L14.6434 25.1315H14.6479ZM5.96544 23.6191C5.91681 23.3265 6.01406 23.2802 6.25831 23.3751C7.826 23.9423 9.47006 24.2709 11.1355 24.3501C11.6228 24.3501 11.6715 24.3987 11.6228 24.9839C11.5889 25.2901 11.4368 25.2633 11.2812 25.2359C11.2673 25.2335 11.2449 25.2289 11.2177 25.2234C11.1136 25.2022 10.9382 25.1666 10.8912 25.1782L10.8922 25.1763C9.27806 25.0729 7.70156 24.6431 6.25831 23.9129C6.22838 23.8931 6.19851 23.8753 6.1699 23.8582C6.05796 23.7915 5.96544 23.7352 5.96544 23.6191ZM12.6924 25.0452C12.741 25.0391 12.7919 25.0328 12.8428 25.0328C12.8828 25.0195 12.9339 25.0243 12.9869 25.0292C13.1273 25.0423 13.2816 25.0567 13.2816 24.7402C13.2816 24.373 13.1093 24.3839 12.909 24.3965C12.8714 24.3988 12.8328 24.4013 12.7942 24.4013C12.7682 24.4013 12.7428 24.4007 12.7181 24.4001C12.5108 24.3954 12.3555 24.3919 12.3555 24.7402C12.3555 25.0872 12.5078 25.0682 12.6924 25.0452ZM5.30056 33.5393C5.551 33.5967 5.81037 33.6038 6.06356 33.5601L6.50458 33.5612C6.74883 33.5612 6.74883 33.5126 6.65158 33.3172C5.71918 31.8315 4.9962 30.2245 4.50305 28.5416C4.45443 28.2501 4.35605 28.3473 4.21018 28.493C3.95919 28.7349 3.77462 29.0372 3.67418 29.3709C3.40389 30.2201 3.45582 31.139 3.82005 31.9524C3.8598 32.206 3.94965 32.4492 4.08439 32.6678C4.21912 32.8864 4.39603 33.076 4.60483 33.2256C4.81362 33.3753 5.05012 33.4819 5.30056 33.5393ZM21.0853 28.5416C20.5548 30.3117 19.7835 32.0007 18.7931 33.5612H18.7864C19.2576 33.5856 19.7298 33.5856 20.201 33.5612C20.4975 33.522 20.7789 33.4073 21.0181 33.228C21.2573 33.0488 21.4464 32.811 21.567 32.5376C21.8629 31.9604 22.0448 31.3318 22.103 30.6859C22.153 30.2932 22.1183 29.8944 22.0013 29.5161C21.8842 29.1379 21.6876 28.7891 21.4245 28.493C21.2809 28.3473 21.1825 28.2501 21.0853 28.5416ZM9.57489 10.5113C9.57048 10.6533 9.5351 10.7926 9.47122 10.9195C9.40735 11.0465 9.31652 11.1579 9.20507 11.2461C9.09362 11.3343 8.96425 11.3972 8.82598 11.4303C8.68771 11.4634 8.54387 11.4659 8.40451 11.4377C8.37785 11.4409 8.3508 11.4382 8.32537 11.4295C8.29993 11.4209 8.27674 11.4068 8.25751 11.388C7.52588 11.2909 7.13575 10.9497 7.18551 10.4142C7.25082 10.0945 7.43022 9.80954 7.69028 9.61228C7.95034 9.41503 8.27331 9.31897 8.59901 9.34201C8.87829 9.38031 9.13317 9.52146 9.3137 9.73777C9.49423 9.95408 9.58738 10.23 9.57489 10.5113ZM16.3549 9.75035C16.1651 9.95805 16.0605 10.2296 16.0621 10.5109L16.0632 10.5064C16.059 10.6704 16.0972 10.8328 16.174 10.9779C16.2509 11.1229 16.3638 11.2457 16.502 11.3345C16.7617 11.4442 17.0445 11.4883 17.3253 11.4629C17.6062 11.4375 17.8764 11.3434 18.1122 11.1888C18.2248 11.1169 18.3157 11.016 18.3755 10.8966C18.4352 10.7773 18.4614 10.644 18.4515 10.5109C18.3994 10.1902 18.232 9.89943 17.9808 9.69312C17.7295 9.48682 17.4116 9.37911 17.0866 9.39017C16.806 9.41404 16.5448 9.54264 16.3549 9.75035ZM5.90342 12.7101C5.62053 13.0109 5.46745 13.4109 5.47726 13.8235C5.43985 14.0803 5.49886 14.3418 5.64291 14.5577C5.78697 14.7736 6.0059 14.9286 6.25751 14.9928C6.9006 15.133 7.57242 15.0472 8.15953 14.7499C8.37666 14.6656 8.55575 14.5054 8.66349 14.299C8.77123 14.0926 8.8003 13.8542 8.74528 13.6281C8.69224 13.2114 8.47965 12.8315 8.15219 12.5682C7.82472 12.3049 7.40785 12.1786 6.98914 12.2158C6.57631 12.2317 6.18631 12.4093 5.90342 12.7101ZM7.81842 13.2387C7.81842 12.8976 7.62392 12.8004 7.33105 12.7518C7.26269 12.7429 7.19321 12.749 7.12744 12.7696C7.06167 12.7902 7.00119 12.8249 6.95018 12.8713C6.89918 12.9176 6.85889 12.9745 6.8321 13.0379C6.80531 13.1014 6.79266 13.1699 6.79505 13.2387C6.79593 13.3806 6.85265 13.5164 6.95295 13.6168C7.05324 13.7172 7.18906 13.7742 7.33105 13.7754C7.39884 13.7737 7.46559 13.7583 7.52726 13.7301C7.58892 13.7019 7.64421 13.6615 7.68978 13.6114C7.73535 13.5612 7.77025 13.5023 7.79236 13.4382C7.81448 13.3742 7.82334 13.3063 7.81842 13.2387ZM18.7439 15.0425C18.4114 15.0203 18.0833 14.9545 17.768 14.847C17.5966 14.8066 17.4365 14.728 17.2997 14.6172C17.163 14.5064 17.053 14.3661 16.978 14.2069C16.903 14.0477 16.8649 13.8737 16.8666 13.6977C16.8683 13.5218 16.9097 13.3485 16.9877 13.1908C17.127 12.8297 17.3891 12.5292 17.728 12.3421C18.067 12.1549 18.4611 12.093 18.8411 12.1672C19.2224 12.2412 19.5646 12.4489 19.8062 12.7528C20.0477 13.0567 20.1727 13.4368 20.1585 13.8246C20.1585 14.6527 19.6711 15.0425 18.7439 15.0425ZM18.8413 13.3375C18.8308 13.4587 18.7746 13.5713 18.6841 13.6526C18.5936 13.734 18.4757 13.778 18.354 13.7759C18.212 13.775 18.076 13.7183 17.9755 13.6181C17.875 13.5179 17.818 13.3822 17.8168 13.2403C17.8152 13.1058 17.8647 12.9756 17.9554 12.876C18.046 12.7764 18.1711 12.7148 18.3053 12.7037C18.3833 12.7072 18.4596 12.7267 18.5296 12.7611C18.5996 12.7955 18.6618 12.8439 18.7121 12.9035C18.7624 12.963 18.7999 13.0323 18.8222 13.107C18.8444 13.1817 18.8509 13.2602 18.8413 13.3375Z" fill="white"/>
</g>
</g>
<defs>
<clipPath id="clip0_3371_122086">
<rect width="152" height="40" fill="white"/>
</clipPath>
</defs>
</svg>
