<svg width="112" height="40" viewBox="0 0 112 40" fill="none" xmlns="http://www.w3.org/2000/svg">
<g opacity="0.8">
<path opacity="0.8" fill-rule="evenodd" clip-rule="evenodd" d="M11.7082 15.7171C11.5707 16.3245 11.4502 16.8566 10.9098 18.0923C10.4396 17.9747 9.55054 17.5879 8.41272 17.0927C6.45595 16.2412 3.76333 15.0695 1.19953 14.3966C3.17727 10.0195 7.40041 7 12.2927 7C15.9359 7 19.2073 8.67748 21.4577 11.3352C21.3455 11.3489 21.2333 11.3666 21.1179 11.3848C21.1007 11.3875 21.0835 11.3902 21.0661 11.3929C19.9276 11.587 19.2084 11.7847 18.6616 11.9351C17.9086 12.1422 17.4826 12.2593 16.7389 12.153C16.6734 12.1437 16.5935 12.1301 16.5014 12.1143C15.4996 11.9429 13.064 11.5261 12.2332 13.8881C11.9247 14.7611 11.8117 15.2604 11.7082 15.7171ZM10.6421 17.458C10.3149 11.6026 8.5801 9.32226 8.2232 9.2646C8.14971 10.9993 8.0148 12.2352 7.91388 13.1597C7.77662 14.4172 7.70223 15.0987 7.93077 15.6757C8.41156 16.8918 10.6421 17.458 10.6421 17.458ZM21.8988 11.8935C21.8951 11.8896 21.8914 11.8857 21.8889 11.8804C21.8807 11.8822 21.8724 11.8833 21.8642 11.8845C21.8516 11.8862 21.8391 11.888 21.8266 11.8918C21.8227 11.8912 21.8188 11.8906 21.8148 11.89C21.3025 11.9971 20.8044 12.1307 20.3433 12.2544L20.3433 12.2544C20.0371 12.3366 19.7472 12.4144 19.4802 12.4771C17.9535 12.8388 16.526 14.076 16.2137 16.3405C16.0778 17.3315 16.163 18.0459 16.2521 18.7934C16.345 19.5722 16.4421 20.3869 16.298 21.5879C15.844 25.3516 12.6797 26.8556 10.8137 27.7425C10.6422 27.8241 10.4816 27.9004 10.335 27.9728C9.32882 28.4656 6.88517 29.5978 5.00159 30.4628C7.04375 32.0565 9.56177 33 12.2929 33C19.0837 33 24.5856 27.1813 24.5856 19.9995C24.5856 16.9381 23.5844 14.1231 21.909 11.9057C21.9088 11.9057 21.9085 11.9056 21.9082 11.9056C21.9058 11.9008 21.9023 11.8972 21.8988 11.8935ZM0.332101 16.9914C0.114005 17.956 0 18.9625 0 20.0005C0 23.7433 1.49693 27.114 3.88608 29.4835L7.88119 23.1771C10.4091 23.649 11.7326 22.1235 12.0796 21.6412C12.0796 21.638 12.0777 21.6368 12.0751 21.6351C12.0735 21.634 12.0716 21.6328 12.0697 21.6307C10.1712 23.9373 4.96169 21.4578 1.75964 18.3177C1.25405 17.8197 0.77821 17.3846 0.332101 16.9914ZM41.1218 16.1871C40.6483 15.6786 40.0168 15.2548 39.2276 14.9158C38.4383 14.5768 37.4122 14.4073 36.1493 14.4073C35.5179 14.4073 34.8865 14.492 34.3339 14.5768C33.7814 14.6615 33.2289 14.831 32.6765 15.0005L32.4397 15.0853V10.5084L29.835 8.89802H29.2036V21.2725C29.2036 22.1201 29.2825 22.8829 29.5193 23.561C29.6772 24.239 30.0718 24.8323 30.5454 25.4256C31.0189 25.9341 31.6504 26.3579 32.4397 26.697C33.2289 27.036 34.255 27.2055 35.5179 27.2055H36.1493C37.4122 27.2055 38.4383 27.036 39.2276 26.697C40.0168 26.4427 40.7272 26.0189 41.2008 25.4256C41.6744 24.9171 41.9901 24.3238 42.2269 23.561L42.2271 23.5598C42.3849 22.7974 42.5426 22.035 42.5426 21.2725V20.3402C42.5426 19.4926 42.4636 18.7298 42.2269 18.0518C41.9901 17.289 41.5954 16.6956 41.1218 16.1871ZM39.1486 21.9506C39.1486 22.3744 38.9907 22.7134 38.754 23.0524C38.5172 23.3067 38.2015 23.561 37.7279 23.8153C37.2543 23.9848 36.6229 24.0695 35.8336 24.0695C35.0443 24.0695 34.4129 23.9848 33.9393 23.8153C33.4657 23.6458 33.15 23.3914 32.9132 23.0524C32.6765 22.7134 32.5975 22.3744 32.5186 21.9506C32.5186 21.7906 32.501 21.6117 32.4824 21.4229L32.4824 21.4227L32.4824 21.4227V21.4226C32.4617 21.2114 32.4397 20.9877 32.4397 20.764V18.1365H32.5186C32.9922 17.967 33.5447 17.7975 34.0971 17.7128C34.6496 17.628 35.2022 17.5433 35.9125 17.5433C36.7018 17.5433 37.3333 17.628 37.7279 17.7975C38.1225 17.967 38.5172 18.2213 38.675 18.4755C38.9119 18.8146 38.9907 19.1536 39.0697 19.5774C39.0697 19.7375 39.0873 19.9164 39.1059 20.1054C39.1266 20.3166 39.1486 20.5403 39.1486 20.764V21.9506ZM96.293 17.5424C96.0567 16.9492 95.662 16.3559 95.188 16.0168C94.6355 15.5931 94.0045 15.2541 93.1358 14.9998C92.0308 14.6607 90.4526 14.576 88.6374 14.6607C88.4004 14.6607 88.1636 14.6819 87.9268 14.7031C87.69 14.7243 87.4532 14.7455 87.2162 14.7455C86.9796 14.7879 86.7427 14.8091 86.5059 14.8303C86.2691 14.8515 86.0323 14.8727 85.7957 14.9151C85.6083 14.9553 85.4209 14.9764 85.242 14.9966C85.044 15.0189 84.8564 15.04 84.6907 15.0846V18.3053C84.8484 18.2629 85.0259 18.2206 85.2034 18.1782L85.2036 18.1782C85.3811 18.1358 85.5587 18.0934 85.7165 18.0511L87.1376 17.7968C87.3744 17.7543 87.6113 17.7331 87.8482 17.7119C88.0849 17.6908 88.3216 17.6696 88.5581 17.6272C89.9001 17.5424 91.0051 17.5424 91.6368 17.712C92.1101 17.7968 92.5048 17.9663 92.7418 18.1358C92.9781 18.3053 93.1358 18.5596 93.215 18.8986C93.2942 19.1528 93.3728 19.4071 93.3728 19.7462V20.0004L93.1358 19.9157C92.11 19.5767 90.8473 19.4919 89.4261 19.4919C88.2426 19.4919 87.2954 19.5767 86.5059 19.7462C85.7165 19.9157 85.0854 20.1699 84.6115 20.5089C84.1382 20.848 83.8227 21.1871 83.665 21.6108C83.5065 22.0346 83.428 22.4584 83.428 22.9669V23.2212C83.428 23.7297 83.5065 24.2383 83.7435 24.6621C83.9013 25.0858 84.2175 25.5096 84.6907 25.9334C85.164 26.2724 85.7957 26.6115 86.5852 26.781C87.3746 27.0353 88.4004 27.12 89.5846 27.12C90.6103 27.12 91.5576 27.0353 92.347 26.781C93.1028 26.6186 93.2799 26.534 93.918 26.229L94.0045 26.1877C94.2415 26.0182 94.8725 25.9334 95.2672 26.1029L95.9775 26.5267H96.6877V19.4071C96.6877 18.9833 96.53 18.2206 96.293 17.5424ZM93.2942 24.1536H93.215C92.1893 24.4926 91.0843 24.6621 89.8209 24.6621C89.1106 24.6621 88.4796 24.6621 88.0849 24.5773C87.9734 24.5534 87.8682 24.5362 87.7693 24.52C87.5182 24.479 87.3077 24.4447 87.1376 24.3231C86.9007 24.2383 86.7429 24.0688 86.6637 23.8992C86.5852 23.7297 86.5852 23.5602 86.5852 23.3907C86.5852 23.2212 86.5852 23.1364 86.6637 22.9669C86.7429 22.7974 86.9007 22.6279 87.0584 22.5432C87.2162 22.4584 87.5324 22.2888 87.9271 22.2888C88.3212 22.2041 88.8737 22.2041 89.5054 22.2041C90.2156 22.2041 90.8473 22.2041 91.4783 22.2888L91.4797 22.2891C92.0318 22.3738 92.5838 22.4585 93.1358 22.6279H93.2942V24.1536ZM46.252 8.89802H46.4099C47.1203 8.89802 47.5938 9.06753 47.7517 9.32181C47.9885 9.66083 48.1463 10.0846 48.1463 10.5084V10.7627C48.1463 11.2712 48.0674 11.6102 47.8306 11.9493C47.5938 12.2035 47.1203 12.3731 46.4099 12.3731H46.252C45.5417 12.3731 45.0681 12.2883 44.8313 11.9493C44.5945 11.6102 44.4366 11.1865 44.4366 10.7627V10.5084C44.4366 9.99986 44.5945 9.66083 44.8313 9.32181C45.0681 9.06753 45.5417 8.89802 46.252 8.89802ZM44.6737 14.9158V26.697H47.9887V16.5262L45.3841 14.9158H44.6737ZM59.8278 19.915C60.2224 20.0846 60.6171 20.3389 60.9328 20.5931C61.1401 20.7601 61.3134 20.9637 61.4974 21.1798L61.4975 21.1798L61.4975 21.1799L61.4975 21.1799L61.4975 21.1799C61.5936 21.2928 61.6927 21.4091 61.801 21.5254C62.0378 21.9493 62.1167 22.4578 62.1167 23.051V23.3053C62.1167 23.8139 61.9589 24.3224 61.801 24.7462L61.8009 24.7464C61.5642 25.1701 61.3274 25.5938 60.8538 25.9328C60.3803 26.2718 59.8278 26.6109 59.0385 26.7804C58.3281 27.0346 57.3809 27.1194 56.197 27.1194H55.5656C54.6184 27.1194 53.5924 27.0346 52.7242 26.9499C51.9728 26.8765 51.2806 26.7397 50.5452 26.5943L50.5451 26.5943L50.5448 26.5942L50.5444 26.5942L50.5412 26.5935C50.4281 26.5712 50.314 26.5486 50.1985 26.5261V23.5596C51.0667 23.8139 52.0928 23.9834 53.0399 24.0681C54.0659 24.1529 55.171 24.2376 56.1181 24.2376C56.6706 24.2376 57.1442 24.2376 57.4599 24.1529C57.7756 24.1529 58.0913 24.0681 58.2492 23.9834C58.4328 23.9177 58.5215 23.801 58.5889 23.7124L58.5889 23.7124C58.6084 23.6867 58.6261 23.6634 58.6438 23.6444C58.7228 23.5596 58.7228 23.3901 58.7228 23.3053C58.7228 22.9663 58.5649 22.5425 57.9335 22.4578C57.5388 22.373 56.9074 22.2883 55.9602 22.2883C55.8112 22.2883 55.6445 22.2694 55.4686 22.2494C55.2719 22.2271 55.0636 22.2035 54.8553 22.2035C54.5179 22.2035 54.1806 22.1416 53.794 22.0707L53.7938 22.0706C53.7282 22.0586 53.6611 22.0463 53.5924 22.034C53.5374 22.0222 53.4808 22.0103 53.4231 21.9983C53.0672 21.924 52.6692 21.8408 52.3295 21.695C51.9349 21.5254 51.5402 21.2711 51.2245 21.0169C50.9088 20.7626 50.672 20.4236 50.4352 19.9998C50.1985 19.576 50.1195 19.0675 50.1195 18.4742V18.2199C50.1195 17.7114 50.1985 17.2029 50.3563 16.779C50.5142 16.3553 50.8299 15.9315 51.3034 15.5925C51.777 15.2534 52.4085 14.9144 53.1188 14.7449C53.9081 14.4906 54.8553 14.4059 56.0392 14.4059H56.8285C57.6178 14.4059 58.486 14.4906 59.2752 14.5754C60.0644 14.6601 60.7746 14.8296 61.4849 14.999L61.4853 14.9991V17.9656C60.6171 17.7961 59.7489 17.6266 58.9595 17.5419C58.0913 17.4571 57.1442 17.3724 56.197 17.3724C55.5656 17.3724 55.092 17.3724 54.7763 17.4571C54.4606 17.4571 54.1449 17.5419 53.987 17.6266C53.8035 17.6923 53.7148 17.8089 53.6475 17.8975L53.6474 17.8975C53.6279 17.9232 53.6101 17.9466 53.5924 17.9656C53.5135 18.0504 53.5135 18.1351 53.5135 18.3046C53.5135 18.6437 53.5924 18.9828 54.2238 19.1523C54.6184 19.237 55.2499 19.3218 56.197 19.3218C56.4338 19.4065 56.8285 19.4065 57.2231 19.4065C57.6178 19.4065 58.0913 19.4913 58.486 19.576L58.4872 19.5762C58.9604 19.661 59.4335 19.7457 59.8278 19.915ZM77.0343 22.6287L74.1933 14.9158H71.6671L68.9047 22.6287L66.0633 14.9158H63.1429V15.6786L67.405 26.697H70.3252L72.9299 19.5774L75.5345 26.697H78.4554L82.7961 15.6786V14.9158H79.7967L77.0343 22.6287ZM110.579 16.3551C111.053 16.9483 111.448 17.5416 111.605 18.2197C111.842 18.9825 111.921 19.7453 112 20.5081V21.4405C112 22.288 111.842 23.0508 111.684 23.7289C111.448 24.407 111.131 25.085 110.658 25.5936C110.184 26.1868 109.553 26.5259 108.764 26.8649C107.974 27.204 106.948 27.3735 105.686 27.3735C105.054 27.3735 104.423 27.2887 103.87 27.204C103.337 27.1323 102.916 27.0003 102.465 26.8588L102.464 26.8585C102.381 26.8326 102.298 26.8064 102.212 26.7801L101.976 26.6954V31.2722L99.3713 32.8826H98.6611V20.5081C98.6611 19.7453 98.8188 18.9826 98.9765 18.2198L98.9766 18.2197C99.2135 17.4568 99.5291 16.8636 100.002 16.3551C100.476 15.7617 101.107 15.338 101.897 15.0837C102.686 14.7447 103.712 14.5751 104.975 14.5751H105.528C106.791 14.5751 107.816 14.7447 108.606 15.0837C109.474 15.4227 110.106 15.8465 110.579 16.3551ZM108.211 23.3051C108.448 22.9661 108.606 22.6271 108.606 22.2032C108.606 21.8642 108.606 21.4405 108.764 21.0167C108.764 20.793 108.742 20.5693 108.721 20.3581C108.703 20.1691 108.685 19.9902 108.685 19.8301C108.685 19.4063 108.527 19.0672 108.29 18.7282C108.053 18.3892 107.738 18.135 107.264 17.9655C106.791 17.7959 106.159 17.7112 105.369 17.7112C104.581 17.7112 103.949 17.7959 103.476 17.9655C103.002 18.2197 102.686 18.3892 102.449 18.7282C102.212 19.0672 102.055 19.4063 102.055 19.8301C101.976 20.2538 101.976 20.5929 101.976 21.0165V21.0167V23.6441H102.055C102.528 23.8136 103.081 23.9832 103.633 24.068C104.186 24.1527 104.817 24.2375 105.449 24.2375C106.238 24.2375 106.869 24.1527 107.264 23.9832C107.659 23.8136 107.974 23.6441 108.211 23.3051Z" fill="white"/>
</g>
</svg>
