<svg width="100" height="40" viewBox="0 0 100 40" fill="none" xmlns="http://www.w3.org/2000/svg">
<g opacity="0.8">
<g opacity="0.8">
<path fill-rule="evenodd" clip-rule="evenodd" d="M82.7868 15.8347H85.6268V12.9817H82.7868V15.8347ZM67.6918 20.586C68.2345 19.1404 69.6241 18.1111 71.2535 18.1111C72.8827 18.1111 74.2723 19.1404 74.8153 20.586H67.6918ZM71.2535 15.4585C67.6937 15.4585 64.807 18.358 64.807 21.9349C64.807 25.5118 67.6937 28.4109 71.2535 28.4109C73.6964 28.4109 75.8215 27.0464 76.9154 25.0351L74.5333 23.8742C73.8714 25.0015 72.6507 25.7583 71.2535 25.7583C69.4882 25.7583 68.0044 24.551 67.5738 22.9136H74.9331C74.9326 22.9148 74.9323 22.9165 74.9321 22.9179H77.6274C77.6761 22.5972 77.7013 22.269 77.7013 21.9349C77.7013 18.358 74.8145 15.4585 71.2535 15.4585ZM78.4499 28.0657H81.2899V25.2126H78.4499V28.0657ZM82.7868 28.0657H85.6268V17.089H82.7868V28.0657ZM93.5534 25.7583C91.4513 25.7583 89.7473 24.0464 89.7473 21.9349C89.7473 19.823 91.4513 18.1111 93.5534 18.1111C95.6555 18.1111 97.3595 19.823 97.3595 21.9349C97.3595 24.0464 95.6555 25.7583 93.5534 25.7583ZM93.5522 15.4585C89.9924 15.4585 87.1057 18.358 87.1057 21.9349C87.1057 25.5118 89.9924 28.4109 93.5522 28.4109C97.1132 28.4109 100 25.5118 100 21.9349C100 18.358 97.1132 15.4585 93.5522 15.4585ZM34.1752 19.5476V22.4975H38.1462C37.9388 23.3404 37.5289 24.0958 36.9411 24.6992C36.0545 25.6094 34.8253 26.1109 33.4794 26.1109C30.6867 26.1109 28.4143 23.8284 28.4143 21.0226C28.4143 18.2168 30.6867 15.934 33.4794 15.934C34.9754 15.934 36.3505 16.5772 37.3038 17.6867L39.5773 15.8204C38.0699 14.0458 35.8334 12.9839 33.4794 12.9839C29.0674 12.9839 25.4779 16.5901 25.4779 21.0226C25.4779 25.455 29.0674 29.061 33.4794 29.061C35.6216 29.061 37.5964 28.2856 39.0401 26.8035C40.2516 25.5595 41.0545 23.8243 41.2089 22.086C41.2842 21.238 41.2911 20.3958 41.2467 19.5476H34.1752ZM48.6406 25.759C46.5386 25.759 44.8343 24.0467 44.8343 21.9349C44.8343 19.8227 46.5386 18.1109 48.6406 18.1109C50.7429 18.1109 52.4472 19.8227 52.4472 21.9349C52.4472 24.0467 50.7429 25.759 48.6406 25.759ZM52.4477 16.7206C51.3806 15.9347 50.0649 15.4695 48.6406 15.4695C45.0808 15.4695 42.195 18.3688 42.195 21.945C42.195 25.5216 45.0808 28.4204 48.6406 28.4204C50.0649 28.4204 51.3806 27.9554 52.4477 27.1695V28.0657H55.0865V15.8245H52.4477V16.7206ZM60.7512 12.982H58.1122V15.8347H56.5305V18.3368H58.1122V24.8846C58.1122 25.5607 58.1967 26.1295 58.3644 26.5759C58.5297 27.0175 58.7824 27.3633 59.0828 27.6333C59.3873 27.9075 59.7445 28.121 60.1679 28.2422C60.5983 28.3639 61.073 28.4109 61.5749 28.4109C62.0943 28.4109 62.5574 28.3567 62.9526 28.2496C63.3195 28.1506 63.6712 28.0105 63.9985 27.8326V25.8165C63.4779 26.0427 62.9913 26.1245 62.436 26.1505C61.8499 26.1782 61.5032 26.01 61.2146 25.7337C60.9123 25.4443 60.7512 25.0671 60.7512 24.4344V18.3368H63.9985V15.8347H60.7512V12.982Z" fill="white"/>
<path fill-rule="evenodd" clip-rule="evenodd" d="M11.4475 26.8251C7.97035 26.8251 5.15152 23.9935 5.15152 20.5001C5.15152 17.007 7.97035 14.1749 11.4475 14.1749V9C5.12516 9 0 14.1487 0 20.5001C0 26.8513 5.12516 32 11.4475 32C17.7697 32 22.8951 26.8513 22.8951 20.5001H17.7435C17.7435 23.9935 14.9247 26.8251 11.4475 26.8251Z" fill="white"/>
<path fill-rule="evenodd" clip-rule="evenodd" d="M11.4476 20.5003L17.7435 20.5001L17.7436 14.1754L11.4475 14.1749L11.4476 20.5003Z" fill="white"/>
</g>
</g>
</svg>
