<svg width="122" height="40" viewBox="0 0 122 40" fill="none" xmlns="http://www.w3.org/2000/svg">
<g opacity="0.8" clip-path="url(#clip0_3371_122082)">
<path opacity="0.8" fill-rule="evenodd" clip-rule="evenodd" d="M26.1898 7.73878L16.2258 0.158988C16.1194 0.0795169 15.9948 0.0277767 15.8633 0.00847986C15.7318 -0.010817 15.5975 0.00294271 15.4727 0.0485061C15.3478 0.0940696 15.2364 0.169989 15.1486 0.269347C15.0608 0.368706 14.9994 0.488348 14.97 0.617375L11.3267 17.4929L26.1089 9.04582C26.2232 8.9822 26.3197 8.89102 26.3894 8.78068C26.4592 8.67034 26.4999 8.54438 26.508 8.41426C26.516 8.28414 26.491 8.15418 26.4354 8.03614C26.3799 7.9181 26.2955 7.81584 26.1898 7.73878ZM12.0523 19.9925L27.0622 28.5592C27.1823 28.6267 27.3179 28.662 27.4558 28.6616C27.5937 28.6613 27.7291 28.6252 27.8489 28.557C27.9686 28.4888 28.0684 28.3908 28.1385 28.2726C28.2086 28.1544 28.2466 28.0201 28.2489 27.8829L28.2515 12.1074C28.2499 11.97 28.2123 11.8352 28.1424 11.7166C28.0725 11.598 27.9726 11.4997 27.8527 11.4313C27.7329 11.363 27.5971 11.3269 27.4589 11.3268C27.3208 11.3268 27.1849 11.3626 27.065 11.4308L12.0523 19.9925ZM26.2087 32.2494L16.2191 39.8373C16.1141 39.9182 15.9902 39.9711 15.859 39.9911C15.7278 40.011 15.5937 39.9974 15.4691 39.9515C15.3447 39.9056 15.234 39.829 15.1476 39.7287C15.0611 39.6284 15.0017 39.508 14.975 39.3786L11.3257 22.5019L26.1283 30.9423C26.2404 31.0078 26.3346 31.0997 26.4027 31.2099C26.4707 31.3201 26.5105 31.4453 26.5185 31.5745C26.5264 31.7036 26.5023 31.8328 26.4482 31.9504C26.3943 32.0681 26.312 32.1707 26.2087 32.2494ZM8.20422 19.9926L12.1357 1.81013C12.1699 1.65264 12.1543 1.4885 12.0913 1.34012C12.0282 1.19173 11.9206 1.06632 11.7833 0.981024C11.646 0.895732 11.4855 0.85469 11.3239 0.863513C11.1622 0.872336 11.0072 0.930586 10.8801 1.03032L0.821398 8.67568C0.566551 8.86957 0.36013 9.11946 0.21821 9.40581C0.0762892 9.69215 0.00269789 10.0072 0.00316775 10.3264L3.33713e-06 29.6904C-0.00057069 30.0097 0.0729175 30.3247 0.214745 30.6112C0.356572 30.8975 0.562911 31.1475 0.817693 31.3415L10.8739 38.9786C11.002 39.0742 11.1561 39.129 11.316 39.1359C11.4759 39.1427 11.6342 39.1013 11.77 39.017C11.9059 38.9327 12.013 38.8095 12.0772 38.6635C12.1414 38.5176 12.1597 38.3557 12.1298 38.1992L8.20422 19.9926ZM88.5455 15.1972C87.9164 14.8504 87.2066 14.6754 86.4883 14.6901C86.0293 14.6867 85.5718 14.7572 85.1356 14.8989C84.7315 15.0296 84.3548 15.2339 84.0254 15.5011C83.7097 15.7592 83.4513 16.0811 83.2698 16.4457C83.0807 16.8309 82.9854 17.255 82.9922 17.6836C82.9854 18.0421 83.054 18.3981 83.1935 18.7288C83.3277 19.0352 83.5153 19.3154 83.7479 19.5566C83.9919 19.8095 84.2694 20.0289 84.5714 20.2091C84.8977 20.4057 85.234 20.5844 85.5802 20.7446L86.8062 21.3136C87.0525 21.4251 87.2737 21.5338 87.4696 21.6396C87.6518 21.7364 87.8234 21.8513 87.9828 21.9824C88.1238 22.0996 88.2382 22.245 88.319 22.4094C88.3999 22.5849 88.4403 22.7764 88.4365 22.9696C88.4456 23.1863 88.4022 23.4021 88.3099 23.5985C88.2176 23.795 88.0796 23.9664 87.9065 24.0982C87.5039 24.3869 87.0152 24.5312 86.5203 24.5078C86.1978 24.5117 85.8775 24.4638 85.5702 24.3657C85.2927 24.275 85.0296 24.1453 84.7894 23.9807C84.5531 23.8187 84.3365 23.6307 84.1428 23.4204C83.9484 23.2116 83.7715 22.9878 83.6129 22.7513L82.3525 23.7043C82.762 24.4247 83.3529 25.027 84.0666 25.4526C84.8139 25.8902 85.6694 26.1131 86.5363 26.0967C87.0358 26.1012 87.5329 26.025 88.0072 25.8711C88.438 25.7333 88.8398 25.518 89.1921 25.2359C89.5276 24.9641 89.7975 24.6213 89.982 24.2325C90.1772 23.8167 90.2756 23.362 90.2687 22.9029C90.2741 22.5541 90.2108 22.2076 90.0835 21.8827C89.9584 21.5793 89.7823 21.2992 89.5627 21.0544C89.3164 20.7853 89.0335 20.5517 88.7224 20.3605C88.361 20.1351 87.9851 19.9338 87.5962 19.7581L86.3526 19.1891C86.1585 19.0928 85.9776 19.0026 85.8088 18.9185L85.7311 18.8797C85.5557 18.795 85.3918 18.688 85.2439 18.5616C85.1127 18.4492 85.0045 18.3129 84.9244 18.1603C84.8421 17.9912 84.8016 17.8048 84.807 17.6168C84.794 17.4188 84.8329 17.2208 84.9221 17.0431C85.0106 16.8653 85.1448 16.7142 85.311 16.6051C85.6625 16.3833 86.072 16.27 86.4875 16.279C86.9488 16.2737 87.4025 16.3953 87.799 16.6306C88.2085 16.8816 88.5585 17.2184 88.8238 17.6175L90.0674 16.6642C89.6992 16.0501 89.1738 15.5439 88.5455 15.1972ZM100.151 23.0211L102.286 17.7027L104.151 17.7031L100.503 26.0985H99.8975L97.2936 20.6123L94.7217 26.0976H94.1163L90.454 17.7008L92.3359 17.701L94.5029 23.0702L97.0084 17.518H97.6131L100.151 23.0211ZM109.63 17.7389C109.186 17.5894 108.72 17.5158 108.252 17.5212C107.584 17.5153 106.923 17.6611 106.319 17.9474C105.703 18.2514 105.175 18.7095 104.789 19.277L105.798 20.3141C106.094 19.9586 106.446 19.6536 106.84 19.4109C107.223 19.193 107.659 19.0831 108.1 19.0933C108.338 19.065 108.581 19.0911 108.808 19.1693C109.035 19.2476 109.241 19.3761 109.411 19.5453C109.581 19.7143 109.71 19.9196 109.789 20.1456C109.867 20.3716 109.893 20.6124 109.865 20.8498L109.864 21.3851L107.529 21.3848C106.74 21.343 105.959 21.5635 105.31 22.0116C105.043 22.2095 104.829 22.4689 104.685 22.7676C104.542 23.0662 104.473 23.395 104.486 23.7258C104.481 24.0599 104.55 24.3912 104.688 24.6959C104.823 24.9865 105.021 25.2436 105.268 25.4486C105.535 25.6688 105.843 25.8337 106.175 25.9337C106.559 26.0497 106.958 26.1062 107.36 26.1013C107.885 26.1103 108.406 26.0107 108.89 25.8088C109.318 25.6283 109.697 25.3506 109.998 24.998V25.9178L111.646 25.9181L111.647 20.9507C111.657 20.4404 111.571 19.9328 111.395 19.4538C111.244 19.0505 111.006 18.6849 110.697 18.383C110.393 18.0941 110.028 17.8743 109.63 17.7389ZM108.553 24.6046C108.29 24.7004 108.011 24.7485 107.729 24.7466C107.368 24.7581 107.011 24.662 106.704 24.4705C106.569 24.3841 106.459 24.2635 106.385 24.1211C106.311 23.9786 106.277 23.8194 106.284 23.6593C106.276 23.5119 106.306 23.3648 106.373 23.2327C106.439 23.1006 106.539 22.9882 106.663 22.9066C106.992 22.7201 107.369 22.633 107.747 22.656L109.864 22.6562V22.8067C109.867 23.0751 109.809 23.3406 109.696 23.5844C109.587 23.8205 109.43 24.0312 109.234 24.2032C109.034 24.3783 108.804 24.5145 108.553 24.6046ZM117.95 17.5213C118.507 17.5163 119.06 17.6275 119.572 17.8478C120.058 18.0571 120.496 18.3647 120.857 18.751C121.221 19.1452 121.506 19.6053 121.697 20.1061C121.903 20.6482 122.005 21.224 121.999 21.8036C122.005 22.3859 121.903 22.9643 121.697 23.5095C121.506 24.015 121.218 24.4782 120.847 24.8726C120.476 25.2662 120.027 25.5786 119.527 25.7901C119.029 26.0017 118.49 26.1076 117.948 26.1014C117.409 26.1076 116.875 26.0051 116.377 25.8002C115.916 25.6109 115.51 25.3121 115.192 24.9302L115.191 28.9275L113.427 28.9272L113.429 17.7045L115.059 17.7048L115.058 18.8923C115.365 18.4544 115.783 18.1054 116.269 17.8805C116.795 17.6364 117.369 17.5135 117.95 17.5213ZM117.664 19.1268C117.357 19.1276 117.052 19.1812 116.764 19.2855C116.467 19.3914 116.196 19.5565 115.966 19.7707C115.719 20.0038 115.525 20.2857 115.395 20.5983C115.24 20.9805 115.165 21.3903 115.176 21.8024C115.165 22.2138 115.237 22.623 115.385 23.0068C115.513 23.3217 115.704 23.6067 115.949 23.8433C116.177 24.0619 116.448 24.2301 116.747 24.3367C117.04 24.4422 117.35 24.4961 117.663 24.4958C118 24.4977 118.334 24.4324 118.646 24.3037C118.949 24.1788 119.224 23.9939 119.453 23.76C119.687 23.5175 119.87 23.2303 119.991 22.9155C120.248 22.2076 120.248 21.4325 119.992 20.7244C119.872 20.4112 119.692 20.1242 119.462 19.8797C119.236 19.6443 118.965 19.4566 118.663 19.3279C118.348 19.1923 118.008 19.1239 117.664 19.1268ZM39.6235 25.9049L41.4048 25.9051L41.4067 14.8664L39.6254 14.8661L39.6235 25.9049ZM48.7999 25.9062L43.6748 20.0348L48.2976 14.8676L46.1127 14.8671L41.456 20.0346L46.5982 25.9058L48.7999 25.9062ZM52.716 26.8446C52.4563 27.5175 52.0245 28.1112 51.4634 28.567C50.9411 28.9345 50.3126 29.1223 49.6732 29.102C49.4429 29.1014 49.2128 29.0873 48.9841 29.0601C48.7575 29.0336 48.5329 28.9917 48.312 28.9346V27.4462C48.5138 27.4681 48.6931 27.4848 48.8501 27.4962C49.0067 27.5072 49.1578 27.5128 49.3035 27.5129C49.6567 27.5196 50.006 27.4393 50.3204 27.2791C50.6799 27.0487 50.9545 26.7083 51.1027 26.3092L51.4385 25.5399L48.1459 17.6949L50.0448 17.6953L52.3971 23.6834L54.8519 17.6961L56.7339 17.6963L52.716 26.8446ZM60.6078 17.8303C60.1517 18.0272 59.7465 18.3245 59.4225 18.6998L59.4234 13.3643L57.659 13.364L57.6572 25.9081L59.287 25.9083V24.7377C59.5941 25.1762 60.0154 25.5231 60.5057 25.7412C61.0361 25.9799 61.6127 26.1 62.1948 26.0928C62.7497 26.0987 63.2995 25.9876 63.8082 25.767C64.2917 25.5563 64.7265 25.249 65.0857 24.8641C65.4501 24.47 65.7354 24.0102 65.9263 23.5094C66.1323 22.9672 66.2348 22.3915 66.2287 21.8119C66.2345 21.2296 66.132 20.6513 65.9267 20.106C65.7366 19.6004 65.4482 19.137 65.0782 18.7424C64.7069 18.3488 64.2575 18.0362 63.7586 17.8246C63.2595 17.6129 62.7217 17.5067 62.1793 17.5127C61.6387 17.5064 61.103 17.6147 60.6078 17.8303ZM60.977 19.277C61.271 19.1718 61.5809 19.1181 61.8933 19.1182C62.2307 19.1164 62.5649 19.1819 62.8764 19.3109C63.1796 19.4358 63.454 19.6207 63.6831 19.8546C63.9179 20.0972 64.1009 20.3846 64.2212 20.6995C64.4778 21.4075 64.4777 22.1825 64.2207 22.8904C64.1013 23.2036 63.9213 23.4905 63.6911 23.7348C63.4647 23.9702 63.1931 24.1579 62.8924 24.2866C62.5766 24.4218 62.2361 24.4901 61.8923 24.4872C61.5863 24.4866 61.2824 24.4357 60.9931 24.3365C60.696 24.2361 60.424 24.0735 60.1953 23.8598C59.9474 23.6244 59.7526 23.3392 59.6238 23.0233C59.4697 22.6379 59.3954 22.2254 59.4055 21.8107C59.3953 21.3994 59.4667 20.9902 59.6158 20.6066C59.7427 20.2917 59.9346 20.0069 60.1788 19.7703C60.4071 19.5518 60.6791 19.3838 60.977 19.277ZM71.675 17.5152C72.1985 17.5105 72.7179 17.6071 73.2042 17.7999C73.6564 17.9759 74.0674 18.2427 74.4114 18.5837C74.7554 18.9247 75.0251 19.3326 75.2037 19.782C75.3968 20.2574 75.4938 20.7661 75.4893 21.2789C75.4897 21.4915 75.4755 21.7039 75.4469 21.9146C75.4274 22.0726 75.3966 22.229 75.3547 22.3827L69.2032 22.3818C69.2942 23.0062 69.6183 23.5737 70.1111 23.9709C70.6208 24.3596 71.25 24.5606 71.8919 24.5398C72.3423 24.5463 72.789 24.4581 73.2028 24.2808C73.6027 24.1031 73.9717 23.8633 74.2959 23.5702L75.1525 24.7746C74.7216 25.1831 74.2208 25.5115 73.6736 25.7443C73.099 25.9835 72.4812 26.1029 71.8585 26.0954C71.2491 26.1007 70.6443 25.9899 70.0767 25.7691C69.5532 25.5689 69.076 25.2646 68.6745 24.8748C68.273 24.4851 67.9555 24.0181 67.7413 23.5021C67.5149 22.9677 67.4005 22.393 67.405 21.8131C67.4006 21.2338 67.5123 20.6595 67.7333 20.1237C67.942 19.6141 68.2504 19.1508 68.6407 18.7609C69.0298 18.3747 69.489 18.0654 69.9939 17.8495C70.5249 17.6234 71.0974 17.5096 71.675 17.5152ZM71.6238 19.0038C71.0588 18.9895 70.5083 19.183 70.0777 19.5472C69.6411 19.9277 69.3452 20.4429 69.2376 21.0105L73.7248 21.0112C73.7313 20.7312 73.6768 20.4533 73.565 20.1963C73.4533 19.9393 73.2871 19.7094 73.0776 19.5224C72.6731 19.1783 72.1559 18.9938 71.6238 19.0038ZM81.5993 17.6421C81.4742 17.6241 81.3476 17.6157 81.2211 17.6169C80.7529 17.6139 80.2908 17.7167 79.8684 17.9176C79.4444 18.1214 79.0777 18.4259 78.8001 18.8041L78.8009 17.7002L77.1707 17.7L77.1699 25.912L78.9336 25.9123L78.9343 21.5303C78.9275 21.1886 78.993 20.8495 79.128 20.5351C79.2477 20.2633 79.4254 20.0207 79.6496 19.8244C79.8753 19.6309 80.1383 19.4857 80.4227 19.3982C80.7239 19.3025 81.0388 19.2545 81.3553 19.2558L81.8928 19.2561L81.8936 17.7006C81.8036 17.6782 81.706 17.6588 81.5993 17.6421Z" fill="white"/>
</g>
<defs>
<clipPath id="clip0_3371_122082">
<rect width="122" height="40" fill="white"/>
</clipPath>
</defs>
</svg>
