<svg width="160" height="40" viewBox="0 0 160 40" fill="none" xmlns="http://www.w3.org/2000/svg">
<g opacity="0.8">
<g opacity="0.8">
<path d="M7.51725 12.9679C9.00165 10.5489 12.5267 10.5783 13.9705 13.0217L22.2793 27.0827C22.9717 28.2545 22.127 29.7347 20.766 29.7347H4.40791C1.26699 29.7347 -0.659298 26.2927 0.983452 23.6156L7.51725 12.9679Z" fill="white"/>
<path d="M19.2765 11.5443C21.0781 10.5042 23.3818 11.1215 24.4219 12.923L30.8256 24.0144C31.8657 25.816 31.2484 28.1197 29.4469 29.1598C27.6453 30.2 25.3416 29.5827 24.3015 27.7811L17.8978 16.6897C16.8577 14.8881 17.475 12.5845 19.2765 11.5443Z" fill="white"/>
<path d="M158.868 28.6585C157.893 28.6585 157.129 28.4478 156.551 28.0791C155.944 27.6842 155.628 27.1047 155.628 26.3147V14.8333H157.156C157.709 14.8333 158.183 15.281 158.183 15.8603V25.9724C158.183 25.9988 158.183 26.4728 158.578 26.8678C158.814 27.1047 159.104 27.2364 159.499 27.2364H159.789C159.895 27.2364 160 27.3418 160 27.4471V28.6848L158.868 28.6585Z" fill="white"/>
<path d="M125.951 28.6576C124.37 28.6576 123.08 28.2363 122.106 27.3936C121.606 26.9723 121.263 26.4982 121.053 25.9715C120.842 25.4449 120.736 24.6812 120.736 23.6542C120.736 22.6536 120.842 21.8635 121.053 21.3368C121.237 20.8365 121.579 20.3888 122.08 19.9675C123.053 19.1248 124.344 18.7035 125.924 18.7035C127.504 18.7035 128.794 19.1248 129.769 19.9675C130.27 20.3888 130.612 20.8628 130.796 21.3368C131.007 21.8898 131.112 22.6536 131.112 23.6542C131.112 24.6812 131.007 25.4449 130.796 25.9715C130.585 26.4982 130.243 26.9723 129.742 27.3936C128.821 28.2363 127.531 28.6576 125.951 28.6576ZM125.951 20.1518C124.212 20.1518 123.343 21.3368 123.343 23.6805C123.343 26.0506 124.212 27.2356 125.951 27.2356C127.688 27.2356 128.558 26.0506 128.558 23.7068C128.558 21.3368 127.662 20.1518 125.951 20.1518Z" fill="white"/>
<path d="M136.852 28.6585C135.483 28.6585 134.219 28.2898 133.14 27.5788C133.034 27.4734 132.823 27.3418 132.56 27.1838C132.508 27.1575 132.455 27.0784 132.455 26.9994V14.8333H134.009C134.562 14.8333 135.036 15.3073 135.036 15.8603V19.4154L135.51 19.152C136.063 18.8624 136.8 18.7307 137.748 18.7307C139.407 18.7307 140.671 19.231 141.514 20.2053C142.251 21.0744 142.62 22.233 142.62 23.6551C142.62 25.0771 142.198 26.2358 141.355 27.0784C140.381 28.1318 138.854 28.6585 136.852 28.6585ZM137.116 20.1527C136.537 20.1527 135.878 20.3633 135.141 20.8111L135.036 20.8637V26.5781L135.141 26.6571C135.72 27.0258 136.405 27.2101 137.116 27.2101C138.064 27.2101 138.802 26.8151 139.301 26.0251C139.723 25.3931 139.96 24.5768 139.96 23.6551C139.96 21.3377 138.986 20.1527 137.116 20.1527Z" fill="white"/>
<path d="M148.703 28.6313C145.806 28.6313 143.989 26.7353 143.989 23.6542C143.989 20.5995 145.779 18.7035 148.65 18.7035C149.756 18.7035 150.704 18.9931 151.468 19.5462L151.626 19.6515V18.8878H153.653C153.785 18.8878 153.864 18.9931 153.864 19.0985V28.4469H151.599V27.6042L151.441 27.7359C150.81 28.3152 149.808 28.6313 148.703 28.6313ZM149.23 20.3888C147.412 20.3888 146.332 21.7845 146.332 23.6542C146.332 25.5239 147.412 26.9723 149.23 26.9723C149.808 26.9723 150.81 26.9196 151.599 26.1295L151.626 26.1032V21.3105L151.599 21.2842C151.046 20.6522 150.23 20.3888 149.23 20.3888Z" fill="white"/>
<path d="M55.1392 28.5262V14.8063H66.5417V15.6753C66.5417 16.36 65.9887 16.913 65.3041 16.913H57.9832V20.5997H65.3041V22.7065H57.9832V26.3931H65.3041C65.9887 26.3931 66.5417 26.9461 66.5417 27.6308V28.4998L55.1392 28.5262Z" fill="white"/>
<path d="M82.9213 14.8063H80.2352C79.7348 14.8063 79.2872 15.017 78.9712 15.412L75.7322 19.4937L72.4931 15.4383C72.1772 15.0433 71.7294 14.8327 71.2292 14.8327H68.5431L73.9941 21.6794L68.5431 28.5262H71.2292C71.7294 28.5262 72.1772 28.3155 72.4931 27.9205L75.7322 23.8651L78.9975 27.9468C79.3135 28.3155 79.7613 28.5525 80.2615 28.5525H82.9476L77.4965 21.7057L82.9213 14.8063Z" fill="white"/>
<path d="M46.2122 27.0786L49.9516 20.5479V28.5007H52.7957V14.7808H51.0313C50.4783 14.7808 49.9516 15.0705 49.6883 15.5708L45.2116 23.7342L40.7349 15.5708C40.4715 15.0705 39.9448 14.7808 39.3918 14.7808H37.6275V28.5007H40.4715V20.5479L44.2109 27.0786H46.2122Z" fill="white"/>
<path d="M90.3474 28.6841C86.3973 28.7368 83.1847 25.6294 83.1583 21.6793C83.1583 19.52 83.8166 17.7293 85.0543 16.4916C86.2921 15.2803 88.0827 14.6219 90.2158 14.6219C92.7174 14.6219 94.6925 15.4909 96.1144 17.1763L95.2192 17.94C94.6661 18.414 93.8497 18.4403 93.2441 17.9926C92.4541 17.387 91.4534 17.0973 90.321 17.0973C87.5297 17.0973 85.8706 18.7826 85.8706 21.6267C85.8706 24.497 87.5823 26.2614 90.321 26.2614C91.4797 26.2614 92.4541 25.9454 93.2441 25.3661C93.8234 24.9183 94.6397 24.9448 95.2192 25.4187L96.1144 26.1824C94.6925 27.8414 92.7965 28.6841 90.3474 28.6841Z" fill="white"/>
<path d="M107.859 28.6844C103.436 28.6844 100.697 25.9984 100.697 21.6796C100.697 17.3609 103.436 14.6749 107.807 14.6749C109.913 14.6749 111.678 15.2806 113.047 16.5182L112.389 17.2556C112.099 17.5716 111.678 17.7559 111.256 17.7559C111.02 17.7559 110.782 17.7033 110.571 17.5979C109.755 17.1766 108.807 16.9659 107.807 16.9659C104.962 16.9659 103.198 18.7829 103.198 21.706C103.198 24.6553 105.041 26.4723 107.991 26.4723C109.413 26.4723 110.519 26.209 111.335 25.6297L111.388 25.6034V22.7856H108.254V21.8639C108.254 21.1793 108.807 20.6263 109.492 20.6263H113.363C113.469 20.6263 113.574 20.7316 113.574 20.837V26.9201C112.231 28.0787 110.308 28.6844 107.859 28.6844Z" fill="white"/>
<path d="M118.656 28.6585C117.682 28.6585 116.918 28.4478 116.339 28.0791C115.734 27.6842 115.417 27.1047 115.417 26.3147V14.8333H116.945C117.498 14.8333 117.972 15.281 117.972 15.8603V25.9724C117.972 25.9988 117.972 26.4728 118.366 26.8678C118.604 27.1047 118.893 27.2364 119.288 27.2364H119.578C119.683 27.2364 119.788 27.3418 119.788 27.4471V28.6848L118.656 28.6585Z" fill="white"/>
</g>
</g>
</svg>
