<svg width="110" height="40" viewBox="0 0 110 40" fill="none" xmlns="http://www.w3.org/2000/svg">
<g opacity="0.8">
<path opacity="0.8" fill-rule="evenodd" clip-rule="evenodd" d="M18.6738 19.2554L18.6378 19.2276C19.4401 18.0573 19.8413 16.634 19.8413 14.9575C19.8413 12.4707 18.9988 10.5223 17.3138 9.11215C15.6287 7.70202 13.3098 6.99797 10.357 7H3.00297V8.04159H10.2246C12.7341 8.04159 14.9727 8.60737 16.393 9.78011C17.7139 10.872 18.1984 11.8114 18.585 13.2175C18.1924 11.935 17.2672 11.1099 16.6924 10.625C15.6859 9.76791 14.4357 9.16858 11.0295 9.16858H5.35752V10.1842H10.9031C13.8098 10.1842 14.8765 10.5472 15.8544 11.2807C17.1062 12.2201 17.8825 13.3425 17.8825 14.9621C17.8825 16.4216 17.377 17.2024 16.5284 18.0121C16.4291 17.9725 16.3299 17.9344 16.2276 17.8978L16.3238 17.8459C17.2431 17.332 17.8795 16.3453 17.8795 14.9575C17.8795 13.4417 17.0219 12.4946 16.1824 11.9609C15.3956 11.4607 14.6463 11.1252 11.4493 11.1252H7.37205V11.8023H11.3349C14.2205 11.8023 15.3143 12.3223 15.6453 12.5282C16.2938 12.9308 17.1498 13.6292 17.1498 14.9682C17.1498 15.8222 16.6518 16.8501 15.9161 17.2694C15.6772 17.4035 15.425 17.5119 15.1639 17.5928C14.0686 17.3412 12.9483 17.2194 11.8254 17.2298H6.90717V18.2714H11.69C14.1994 18.2714 16.4712 18.7944 17.8584 20.0099C18.9055 20.9124 19.6674 22.1073 20.049 23.4457C19.6578 22.1632 18.8544 21.3855 18.1578 20.8533C17.1046 20.0465 15.9011 19.3953 12.4949 19.3969H4.78431V20.4125H12.3685C15.2752 20.4125 16.3404 20.7754 17.3198 21.509C18.5716 22.4485 19.3358 23.5708 19.3358 25.1904C19.3358 26.752 18.5595 27.8912 17.3017 28.8306C16.0154 29.7914 14.049 29.8204 13.2487 29.8204H9.03603V30.8345H12.185C14.8209 30.8345 16.5811 30.6058 18.1052 29.462C19.5344 28.3853 20.2942 26.993 20.2942 25.1919C20.3081 26.1571 20.1034 27.1126 19.6961 27.985C19.2887 28.8574 18.6894 29.6235 17.9442 30.2245C16.5014 31.4323 13.9272 31.9645 11.3514 31.9645H3.06015V33H11.4101C14.5195 33 16.9461 32.3158 18.6904 30.9473C20.4346 29.5789 21.3077 27.6563 21.3097 25.1798C21.3037 22.6899 20.4577 20.7409 18.7717 19.3328C18.7396 19.306 18.7068 19.2807 18.6738 19.2554ZM18.8223 15.0903C18.8193 16.3482 18.4459 17.5777 17.7486 18.6206C17.6599 18.5688 17.5696 18.5185 17.4793 18.4681C18.3364 17.5557 18.8158 16.3469 18.8223 15.0903ZM13.6532 23.7202H6.42562V24.2872H13.6532V23.7202ZM9.4061 25.7836H13.6097V26.2698H9.4061V25.7836ZM5.19213 23.7202H3.05123V24.2872H5.19213V23.7202ZM1.71651 25.744H8.21895V26.3109H1.71651V25.744ZM7.8353 30.0719H1.71651V30.7516H7.8353V30.0719ZM3.31889 11.2838H5.85246V11.7517H3.31889V11.2838ZM7.3569 15.0049H1.55403V15.5489H7.3569V15.0049ZM4.01534 13.3425H13.6231V13.8866H4.01534V13.3425ZM13.4412 15.0049H8.81933V15.5489H13.4412V15.0049ZM19.3268 25.1813C19.3268 26.4914 18.7024 27.4719 17.7817 27.9675C16.8639 28.4601 15.5641 28.7438 13.366 28.7438H0V28.0987H13.3058C15.3338 28.0987 16.6969 27.7678 17.3679 27.3987C18.1052 26.9915 18.6031 26.0018 18.6031 25.1783C18.6031 23.8896 17.7471 23.211 17.0987 22.8221C16.7677 22.6239 15.6723 22.1222 12.7882 22.1222H7.71206V21.4771H12.9071C16.1628 21.4771 16.8534 21.8019 17.6418 22.2838C18.4813 22.8008 19.3268 23.7188 19.3268 25.1813ZM45.1546 13.7024C44.7749 13.713 44.403 13.5908 44.1015 13.3563C43.9655 13.2563 43.8552 13.1248 43.7795 12.9728C43.7038 12.8208 43.6652 12.6527 43.6667 12.4824C43.6652 12.3113 43.7038 12.1423 43.7794 11.9893C43.8551 11.8363 43.9654 11.7037 44.1015 11.6025C44.4012 11.3642 44.7739 11.24 45.1546 11.2517C45.5414 11.24 45.9203 11.3639 46.2274 11.6025C46.3649 11.7011 46.4771 11.8317 46.5546 11.9834C46.6319 12.135 46.6724 12.3033 46.6724 12.474C46.6724 12.6448 46.6319 12.8131 46.5546 12.9647C46.4771 13.1164 46.3649 13.247 46.2274 13.3456C45.9216 13.5874 45.5423 13.7136 45.1546 13.7024ZM46.277 28.4738H43.9766V16.693H46.277V28.4738ZM28.9708 28.4738V11.9761H34.6879C36.426 11.9761 37.8047 12.3248 38.8238 13.0223C39.8428 13.7197 40.3523 14.6286 40.3523 15.749C40.3647 16.6527 40.0333 17.5264 39.427 18.189C38.8102 18.8804 37.9577 19.3714 36.8694 19.6622V19.708C38.2244 19.8381 39.3087 20.258 40.1221 20.9676C40.5184 21.3054 40.834 21.7298 41.0453 22.2089C41.2566 22.688 41.3582 23.2094 41.3423 23.734C41.3423 25.1461 40.7254 26.2889 39.4917 27.1623C38.2581 28.0356 36.7034 28.4727 34.8278 28.4738H28.9708ZM31.3268 13.7253V19.0522H33.734C35.0239 19.0522 36.0379 18.7981 36.7761 18.2897C37.1296 18.0583 37.4176 17.7376 37.6119 17.3593C37.8064 16.981 37.9004 16.5581 37.8849 16.1318C37.8849 14.5295 36.5996 13.7284 34.029 13.7284L31.3268 13.7253ZM31.3268 20.7892V26.7261H34.5239C35.907 26.7261 36.9797 26.4577 37.742 25.9209C38.1033 25.6826 38.3982 25.3542 38.5984 24.9674C38.7986 24.5805 38.8975 24.1478 38.8855 23.7111C38.8855 21.7642 37.2681 20.7902 34.0335 20.7892H31.3268ZM54.2989 28.727C55.1876 28.728 55.9027 28.6054 56.4444 28.3595L56.4489 26.749C55.9933 27.0193 55.4721 27.1546 54.9444 27.1394C54.1861 27.1394 53.6435 26.9707 53.3165 26.6332C52.9896 26.2956 52.826 25.7319 52.826 24.9419V18.3035H56.4444V16.6931H52.826V13.2069L50.5272 13.8169V16.6931H48.0583V18.3035H50.5272V25.2759C50.5262 27.5766 51.7834 28.727 54.2989 28.727ZM77.3312 28.4738H75.1768V18.2928C75.1875 17.3062 75.2477 16.3207 75.3573 15.3403H75.3062C75.1685 15.8474 74.9826 16.3398 74.7511 16.8104L68.4321 28.4738H67.3789L61.0706 16.8959C60.832 16.3986 60.6458 15.8772 60.5154 15.3403H60.4642C60.5488 16.3292 60.5834 17.3217 60.5681 18.3141V28.4738H58.4648V13.2968H61.3234L66.9998 23.8804C67.3335 24.4622 67.6183 25.0713 67.8514 25.7013H67.9296C68.2987 24.8687 68.5951 24.2479 68.8187 23.8393L74.6111 13.2968H77.3192L77.3312 28.4738ZM89.014 28.4738H91.3144V20.8121C91.3134 17.882 89.6258 16.417 86.2517 16.417C84.4092 16.417 82.7823 16.785 81.3711 17.5211V19.4548C82.7478 18.493 84.3842 17.9865 86.0561 18.0046C88.0281 18.0055 89.014 19.0065 89.014 21.0073L84.7096 21.5029C81.5491 21.8628 79.9689 23.1433 79.9689 25.3445C79.9568 25.8258 80.0609 26.3027 80.2722 26.7338C80.4836 27.1649 80.7958 27.5372 81.1816 27.818C81.991 28.4392 83.1109 28.7498 84.5411 28.7498C86.4829 28.7509 87.9554 28.0452 88.9583 26.6331H89.014V28.4738ZM85.5536 22.906L89.014 22.5155L89.023 23.6883C89.0332 24.1615 88.9383 24.6311 88.7453 25.0621C88.5523 25.4931 88.2662 25.8748 87.9082 26.1786C87.1649 26.8344 86.2231 27.1623 85.0827 27.1623C84.2522 27.1623 83.5863 26.9803 83.0847 26.6163C82.8526 26.4645 82.662 26.2558 82.5304 26.0094C82.399 25.7632 82.3309 25.4872 82.3325 25.2071C82.3375 24.4162 82.6088 23.8656 83.1464 23.5556C83.6841 23.2455 84.4864 23.029 85.5536 22.906ZM101.987 18.6023C101.586 18.3492 101.006 18.2226 100.248 18.2226C99.7801 18.2149 99.3162 18.3132 98.89 18.5102C98.4647 18.7073 98.087 18.9983 97.7863 19.3618C97.1273 20.1212 96.7982 21.1567 96.7982 22.4682V28.4738H94.4992V16.693H96.7982V19.1223H96.855C97.1493 18.3356 97.6745 17.6592 98.3593 17.184C99.0238 16.7227 99.8112 16.4793 100.616 16.4871C101.08 16.4703 101.543 16.5248 101.99 16.6488V16.6931H104.078V13.8169L106.377 13.2069V16.6931H109.988V18.3035H106.377V24.9419C106.377 25.7319 106.541 26.2956 106.868 26.6332C107.195 26.9707 107.738 27.1394 108.496 27.1394C109.023 27.1546 109.544 27.0193 110 26.749L109.995 28.3595C109.454 28.6054 108.739 28.728 107.85 28.727C105.334 28.727 104.077 27.5766 104.078 25.2759V18.3035H101.987L101.987 18.6023ZM0.191121 31.9722H1.72119V32.9582H0.191121V31.9722Z" fill="white"/>
</g>
</svg>
