<svg width="138" height="40" viewBox="0 0 138 40" fill="none" xmlns="http://www.w3.org/2000/svg">
<g opacity="0.8">
<g opacity="0.8">
<path d="M33.0275 6.17682C32.1667 5.81762 31.1926 6.0146 30.5357 6.68665L21.9843 15.4349V20.1856L31.1473 10.8232V26.4311H15.9248L14.1692 23.5228L8.04164 29.7913H32.1554C33.4126 29.7913 34.4319 28.7485 34.4319 27.4624V8.34361C34.4319 7.39347 33.877 6.54761 33.0275 6.17682Z" fill="white"/>
<path d="M7.93975 26.4311L18.0315 16.107V25.7475H21.3161V13.6157C21.3161 12.6656 20.7612 11.8197 19.9116 11.4605C19.0508 11.1013 18.0768 11.2983 17.4198 11.9704L0 29.7913H7.07894L10.3636 26.4311H7.93975Z" fill="white"/>
<path d="M113.795 29.745H124.374V27.3233H116.446V22.6189H124.374V20.2436H116.446V15.4117H124.374V13.1175H113.795V29.745Z" fill="white"/>
<path d="M132.892 20.9967L137.649 13.1175H134.942L132.461 17.2078C132.28 17.5206 132.11 17.8219 131.963 18.0768C131.816 18.3433 131.691 18.5866 131.566 18.83L131.396 18.5055C131.057 17.8335 130.819 17.4047 130.694 17.1846L128.35 13.1175H125.575L130.241 21.0431L124.963 29.745H127.761L130.604 24.9943C130.774 24.7046 130.932 24.4266 131.079 24.1485C131.227 23.8704 131.363 23.6039 131.487 23.3489C131.736 23.8472 132.008 24.3802 132.314 24.9479L132.359 25.029L135.078 29.745H138L132.892 20.9967Z" fill="white"/>
<path d="M46.5851 13.384H44.1952L37.9431 29.745H40.6274L42.3943 25.0523H48.318L50.0509 29.745H52.8259L46.619 13.4651L46.5851 13.384ZM43.3117 22.5262L45.3844 16.9181L47.4118 22.5262H43.3117Z" fill="white"/>
<path d="M72.4996 25.087C72.1712 25.7938 71.7068 26.35 71.1292 26.7439C70.5515 27.1263 69.8833 27.3233 69.1697 27.3233C68.0938 27.3233 67.1876 26.9294 66.4628 26.153C65.7378 25.3767 65.3754 24.3802 65.3754 23.1982C65.3754 22.0396 65.7378 21.0431 66.4514 20.2552C67.165 19.4672 68.0372 19.0733 69.0565 19.0733C69.8493 19.0733 70.5402 19.2471 71.1065 19.6063C71.6729 19.9656 72.1486 20.51 72.511 21.2285L72.545 21.2981H75.1501L75.0934 21.1242C74.6291 19.7106 73.8815 18.5982 72.8621 17.8103C71.8428 17.0224 70.6195 16.6284 69.2377 16.6284C68.3542 16.6284 67.5048 16.8022 66.7346 17.1614C65.953 17.509 65.2509 18.042 64.6278 18.7141C64.0616 19.3398 63.6312 20.035 63.348 20.7882C63.0536 21.5413 62.9176 22.364 62.9176 23.2215C62.9176 24.0557 63.0762 24.8901 63.3934 25.7011C63.7104 26.5006 64.1635 27.219 64.7185 27.8216C65.3075 28.4588 65.9871 28.9456 66.7232 29.2584C67.4594 29.5828 68.2863 29.7335 69.1811 29.7335C70.6082 29.7335 71.8428 29.3395 72.8395 28.5747C73.8361 27.8099 74.595 26.6628 75.1047 25.1797L75.1613 25.0059H72.5562L72.4996 25.087Z" fill="white"/>
<path d="M87.0426 19.5252C86.4537 18.6214 85.6835 17.903 84.7773 17.3932C83.8599 16.8833 82.8633 16.6284 81.7986 16.6284C80.9037 16.6284 80.0657 16.8022 79.3182 17.1382C78.5593 17.4743 77.8797 17.9957 77.2794 18.6677C76.7131 19.2934 76.2826 19.9886 75.9995 20.7418C75.705 21.495 75.569 22.3177 75.569 23.1867C75.569 24.0209 75.7277 24.8553 76.0448 25.6664C76.362 26.4659 76.815 27.1842 77.3699 27.7868C77.9703 28.4356 78.6498 28.9223 79.3861 29.2467C80.1223 29.5713 80.9492 29.7335 81.8439 29.7335C83.169 29.7335 84.347 29.3626 85.355 28.6327C86.3517 27.9027 87.1446 26.8483 87.6996 25.481L87.7789 25.2956H85.0945L85.0606 25.3651C84.732 25.9793 84.279 26.4543 83.7241 26.7903C83.169 27.1263 82.5348 27.2885 81.8552 27.2885C80.9038 27.2885 80.077 26.9757 79.3861 26.3732C78.7292 25.7938 78.3101 25.0407 78.1175 24.1368H88.096V23.6617C88.096 22.8043 88.0054 22.0396 87.8467 21.3675C87.6543 20.7071 87.3937 20.0814 87.0426 19.5252ZM78.1741 21.9238C78.4347 21.0546 78.8763 20.3595 79.4994 19.8497C80.1562 19.305 80.9492 19.0385 81.8552 19.0385C82.7387 19.0385 83.4976 19.305 84.1318 19.838C84.7207 20.3363 85.1625 21.0431 85.4229 21.9353H78.1741V21.9238Z" fill="white"/>
<path d="M109.99 18.5866C109.457 18.0884 108.891 17.706 108.268 17.4395C107.566 17.1382 106.796 16.9876 105.98 16.9876C105.063 16.9876 104.225 17.1498 103.5 17.4627C102.775 17.7755 102.107 18.2622 101.495 18.9111C100.94 19.502 100.498 20.1972 100.204 20.9735C99.9093 21.7499 99.7508 22.5842 99.7508 23.4532C99.7508 25.3188 100.362 26.8946 101.563 28.1344C102.764 29.3742 104.293 30 106.105 30C106.886 30 107.623 29.8493 108.313 29.5365C108.914 29.27 109.469 28.8991 109.967 28.4125V29.745H112.391V13.1175H109.99V18.5866ZM108.914 26.4311C108.144 27.2422 107.237 27.6477 106.218 27.6477C105.108 27.6477 104.157 27.2422 103.386 26.4426C102.616 25.6432 102.231 24.6235 102.231 23.4417C102.231 22.306 102.616 21.3444 103.386 20.5565C104.157 19.7684 105.097 19.3745 106.173 19.3745C107.226 19.3745 108.155 19.7917 108.914 20.6143C109.684 21.437 110.069 22.4336 110.069 23.5922C110.08 24.6699 109.684 25.62 108.914 26.4311Z" fill="white"/>
<path d="M57.5943 19.0269C57.6736 19.0153 57.7416 19.0153 57.8322 19.0153C58.0927 19.0153 58.3305 19.0617 58.5571 19.1312C59.0668 19.3166 59.4745 19.7106 59.6783 20.2204H62.2834C62.1588 19.4093 61.7284 18.6793 61.0942 18.1116C60.8563 17.8566 60.5732 17.6481 60.2446 17.4743C59.8482 17.2657 59.3952 17.1151 58.8855 17.034C58.5571 16.9644 58.2172 16.9297 57.8661 16.9297C57.1186 16.9297 56.4051 17.0687 55.782 17.3352C55.7254 17.3584 55.6688 17.3816 55.6122 17.4047C55.5782 17.4163 55.5555 17.4279 55.5216 17.4511C55.2271 17.5901 54.9553 17.7524 54.7175 17.9493C53.902 18.6098 53.5056 19.4672 53.5056 20.5217C53.5056 21.2981 53.7546 21.9585 54.2417 22.5031C54.74 23.0476 55.6009 23.5807 56.8354 24.102C57.0507 24.2064 57.3678 24.3222 57.7755 24.4729C58.9874 24.9364 59.5878 25.481 59.5878 26.1298C59.5878 26.6165 59.4179 26.9989 59.0781 27.277C58.7382 27.5551 58.2738 27.694 57.6736 27.694C56.9827 27.694 56.4164 27.5435 55.9746 27.2307C55.9633 27.219 55.9519 27.219 55.9294 27.2074C55.5103 26.8946 55.1932 26.4426 55.0686 25.8865H52.5541C52.5768 26.4195 52.7467 26.9178 53.0185 27.3929C53.4262 28.146 53.9699 28.7138 54.6381 29.0961C55.3517 29.5017 56.2352 29.7218 57.2884 29.745C57.3112 29.745 57.3339 29.745 57.3451 29.745C57.3791 29.745 57.4131 29.745 57.4583 29.745C58.9308 29.745 60.0974 29.4089 60.9355 28.7369C61.7737 28.0649 62.1928 27.1379 62.1928 25.956C62.1928 25.1334 61.9663 24.4613 61.5019 23.905C61.0375 23.3606 60.2787 22.8738 59.2139 22.4336C58.9761 22.3292 58.6477 22.2018 58.206 22.0512C56.8354 21.5413 56.1559 20.9852 56.1559 20.3595C56.1559 20.2667 56.1672 20.1856 56.1786 20.093C56.4504 19.5368 56.9714 19.1312 57.5943 19.0269Z" fill="white"/>
<path d="M93.9857 16.9528C91.0975 16.9528 88.7529 19.3514 88.7529 22.306V29.745H91.1655V22.5262C91.1655 20.9387 92.4341 19.641 93.9857 19.641C95.5374 19.641 96.8059 20.9387 96.8059 22.5262V29.745H99.2185V22.306C99.2185 19.3514 96.8739 16.9528 93.9857 16.9528Z" fill="white"/>
</g>
</g>
</svg>
