<svg width="132" height="40" viewBox="0 0 132 40" fill="none" xmlns="http://www.w3.org/2000/svg">
<g opacity="0.8">
<g opacity="0.8">
<path d="M22.1301 13.3999C22.0909 13.2865 22.0469 13.1792 21.9956 13.078C22.0641 13.1926 22.1081 13.3012 22.1301 13.3999Z" fill="white"/>
<path d="M54.6989 17.8696C54.3408 16.4757 53.4388 15.4561 51.6665 15.4561C49.0608 15.4561 47.9705 17.7501 47.9705 20.0794C47.9705 22.4088 49.0608 24.7027 51.6665 24.7027C53.5573 24.7027 54.5962 23.2917 54.7661 21.5246H56.8439C56.674 24.4307 54.6121 26.4369 51.6653 26.4369C48.0207 26.4369 45.8402 23.5478 45.8402 20.0806C45.8402 16.6135 48.0207 13.7244 51.6653 13.7244C54.408 13.7415 56.5713 15.2537 56.8268 17.8708H54.6989V17.8696Z" fill="white"/>
<path d="M58.1069 21.7453C58.1069 19.0599 59.7252 17.122 62.5522 17.122C65.3792 17.122 66.9974 19.0599 66.9974 21.7453C66.9974 24.4478 65.3792 26.3857 62.5522 26.3857C59.7252 26.3857 58.1069 24.4478 58.1069 21.7453ZM65.0565 21.7453C65.0565 20.2331 64.2902 18.6525 62.5522 18.6525C60.8142 18.6525 60.0478 20.2331 60.0478 21.7453C60.0478 23.2746 60.8142 24.8551 62.5522 24.8551C64.2902 24.8563 65.0565 23.2746 65.0565 21.7453Z" fill="white"/>
<path d="M68.6684 14.0119H70.6105V15.8473H68.6684V14.0119ZM68.6684 17.3608H70.6105V26.1476H68.6684V17.3608Z" fill="white"/>
<path d="M72.7222 17.3608H74.5616V18.6523L74.5958 18.6865C75.1752 17.7182 76.1798 17.123 77.3385 17.123C79.2464 17.123 80.4552 18.1426 80.4552 20.1146V26.1476H78.5131V20.6243C78.4788 19.2475 77.9337 18.6523 76.7922 18.6523C75.4978 18.6523 74.6631 19.6719 74.6631 20.9634V26.1476H72.7222V17.3608Z" fill="white"/>
<path d="M92.0211 26.1469L91.6973 24.7188C90.5557 26.0103 89.5168 26.4359 88.0355 26.4359C84.3908 26.4359 82.2104 23.5468 82.2104 20.0796C82.2104 16.6125 84.3908 13.7234 88.0355 13.7234C90.6926 13.7234 92.9244 15.1344 93.2482 17.8698H91.1705C90.9664 16.2722 89.5694 15.4563 88.0367 15.4563C85.4309 15.4563 84.3407 17.7503 84.3407 20.0796C84.3407 22.409 85.4309 24.7029 88.0367 24.7029C90.2171 24.7371 91.4088 23.4285 91.443 21.3711H88.2066V19.7565H93.3851V26.1469H92.0211Z" fill="white"/>
<path d="M96.9444 22.2553C96.9444 23.6321 97.6936 24.8553 99.3118 24.8553C100.436 24.8553 101.117 24.3626 101.458 23.3931H103.297C102.872 25.3139 101.237 26.3846 99.3118 26.3846C96.5521 26.3846 95.0023 24.4639 95.0023 21.7614C95.0023 19.2625 96.6376 17.121 99.2605 17.121C102.037 17.121 103.74 19.6198 103.416 22.2541H96.9444V22.2553ZM101.475 20.9809C101.407 19.7577 100.572 18.6527 99.2605 18.6527C97.9148 18.6527 96.9945 19.6723 96.9444 20.9809H101.475Z" fill="white"/>
<path d="M110.844 20.3012C110.691 19.2304 109.906 18.6523 108.834 18.6523C107.83 18.6523 106.415 19.1792 106.415 21.8475C106.415 23.3098 107.063 24.8561 108.749 24.8561C109.873 24.8561 110.657 24.1086 110.844 22.85H112.786C112.428 25.1281 111.015 26.3854 108.749 26.3854C105.989 26.3854 104.473 24.4305 104.473 21.8475C104.473 19.1962 105.922 17.123 108.817 17.123C110.861 17.123 112.599 18.1426 112.786 20.3012H110.844Z" fill="white"/>
<path d="M114.421 14.0119H116.363V20.9121L119.872 17.3595H122.257L118.885 20.5889L122.581 26.1463H120.213L117.522 21.8804L116.363 23.0024V26.1463H114.421V14.0119Z" fill="white"/>
<path d="M123.108 21.7453C123.108 19.0599 124.727 17.122 127.555 17.122C130.382 17.122 132 19.0599 132 21.7453C132 24.4478 130.382 26.3857 127.555 26.3857C124.727 26.3857 123.108 24.4478 123.108 21.7453ZM130.058 21.7453C130.058 20.2331 129.292 18.6525 127.554 18.6525C125.816 18.6525 125.049 20.2331 125.049 21.7453C125.049 23.2746 125.816 24.8551 127.554 24.8551C129.292 24.8563 130.058 23.2746 130.058 21.7453Z" fill="white"/>
<path d="M17.4596 3.00017C7.77351 3.04408 -0.042603 10.9126 0.000174758 20.5787C0.0441748 30.2435 7.9324 38.0425 17.6173 37.9998C27.3034 37.9559 35.1195 30.0862 35.0767 20.4226C35.0327 10.7565 27.1457 2.95749 17.4596 3.00017ZM15.2388 19.6408C13.5069 19.6408 12.1026 18.2408 12.1026 16.5127C12.1026 14.7858 13.5069 13.3846 15.2388 13.3846C16.9695 13.3846 18.3738 14.7858 18.3738 16.5127C18.3751 18.2408 16.9707 19.6408 15.2388 19.6408ZM17.7395 23.0238L17.7554 23.0043L17.7725 22.9848C18.6672 23.5604 19.6889 23.7641 20.7095 23.7934C21.7313 23.8202 22.7726 23.7434 23.7968 23.5373C24.8198 23.3251 25.8257 23.0116 26.7974 22.6116C27.3425 22.3872 27.8852 22.1421 28.4022 21.8543C28.4058 21.8519 28.4083 21.8506 28.4119 21.8482C28.7334 21.6555 29.0475 21.4519 29.3567 21.2421C29.4239 21.1945 29.4887 21.1445 29.5523 21.0933L29.5596 21.1018L29.5865 21.1336C28.7982 21.8494 27.8595 22.3811 26.9037 22.8507C25.9382 23.3043 24.9311 23.6763 23.8909 23.9446C22.8545 24.2117 21.7728 24.4141 20.6777 24.3141C19.6009 24.2178 18.4655 23.8409 17.7395 23.0238ZM25.7866 19.6408C25.7854 19.2652 26.0885 18.9628 26.4625 18.9591C26.8389 18.9579 27.1421 19.2591 27.1457 19.6335C27.1469 20.0079 26.8438 20.314 26.4698 20.3152C26.0946 20.3177 25.7891 20.0152 25.7866 19.6408ZM20.4149 36.4254C19.7378 31.6899 23.8824 27.052 26.2193 24.6788C26.7497 24.1409 27.5698 23.3995 28.3325 22.6116C31.3661 19.7811 31.9698 16.3993 25.7609 14.709C24.5839 14.3688 23.3642 13.887 22.1285 13.4004C22.0894 13.287 22.0454 13.1797 21.9941 13.0785C21.8523 12.8346 21.6042 12.5541 21.229 12.2358C20.4223 11.537 18.9055 11.5553 17.5965 11.865C16.1494 11.5248 14.7218 11.404 13.3493 11.7321C7.34573 13.3821 6.38017 16.3042 6.14673 19.825C5.82895 23.63 5.64317 26.4654 4.19973 29.7045C2.39817 27.1117 1.33606 23.9666 1.3214 20.5726C1.28106 11.6358 8.50928 4.35874 17.4657 4.3185C26.4222 4.27825 33.7152 11.4894 33.7555 20.4262C33.7922 28.4081 28.0269 35.068 20.4149 36.4254Z" fill="white"/>
<path d="M17.4434 16.5417C17.4434 17.7575 16.4558 18.7417 15.2385 18.7417C14.0199 18.7417 13.0324 17.7575 13.0324 16.5417C13.0324 15.3258 14.0199 14.3416 15.2385 14.3416C16.4558 14.3404 17.4434 15.3258 17.4434 16.5417Z" fill="white"/>
</g>
</g>
</svg>
