<svg width="16" height="16" viewBox="0 0 16 16" fill="none" xmlns="http://www.w3.org/2000/svg">
<path d="M13 4.99988H11.619C11.9421 4.51882 12.0666 3.93138 11.9663 3.36061C11.866 2.78984 11.5488 2.28002 11.081 1.93794C10.6132 1.59586 10.0312 1.44806 9.45686 1.5255C8.88254 1.60294 8.36047 1.89962 8 2.35338C7.63953 1.89962 7.11746 1.60294 6.54314 1.5255C5.96882 1.44806 5.38681 1.59586 4.91903 1.93794C4.45125 2.28002 4.13398 2.78984 4.03369 3.36061C3.93339 3.93138 4.05786 4.51882 4.381 4.99988H3C2.73491 5.00028 2.48078 5.10576 2.29333 5.29321C2.10588 5.48066 2.0004 5.73479 2 5.99988V7.99988C2.0004 8.26498 2.10588 8.5191 2.29333 8.70655C2.48078 8.894 2.73491 8.99948 3 8.99988V13.9999C3.0004 14.265 3.10588 14.5191 3.29333 14.7066C3.48078 14.894 3.73491 14.9995 4 14.9999H12C12.2651 14.9995 12.5192 14.894 12.7067 14.7066C12.8941 14.5191 12.9996 14.265 13 13.9999V8.99988C13.2651 8.99948 13.5192 8.894 13.7067 8.70655C13.8941 8.5191 13.9996 8.26498 14 7.99988V5.99988C13.9996 5.73479 13.8941 5.48066 13.7067 5.29321C13.5192 5.10576 13.2651 5.00028 13 4.99988ZM8.5 3.74988C8.5 3.50265 8.57331 3.26098 8.71066 3.05542C8.84801 2.84986 9.04324 2.68964 9.27165 2.59503C9.50005 2.50042 9.75139 2.47567 9.99386 2.5239C10.2363 2.57213 10.4591 2.69118 10.6339 2.866C10.8087 3.04081 10.9278 3.26354 10.976 3.50602C11.0242 3.74849 10.9995 3.99983 10.9048 4.22823C10.8102 4.45664 10.65 4.65187 10.4445 4.78922C10.2389 4.92657 9.99723 4.99988 9.75 4.99988H8.5V3.74988ZM6.25 2.49988C6.5814 2.50028 6.89911 2.6321 7.13345 2.86643C7.36778 3.10077 7.4996 3.41848 7.5 3.74988V4.99988H6.25C5.91848 4.99988 5.60054 4.86818 5.36612 4.63376C5.1317 4.39934 5 4.0814 5 3.74988C5 3.41836 5.1317 3.10042 5.36612 2.866C5.60054 2.63158 5.91848 2.49988 6.25 2.49988ZM3 5.99988H7.5V7.99988H3V5.99988ZM4 8.99988H7.5V13.9999H4V8.99988ZM12.0005 13.9999H8.5V8.99988H12L12.0005 13.9999ZM8.5 7.99988V5.99988H13L13.0005 7.99988H8.5Z" fill="white"/>
</svg>
