<svg width="16" height="16" viewBox="0 0 16 16" fill="none" xmlns="http://www.w3.org/2000/svg">
<path d="M10.8284 8.70727L8.70711 10.8286C8.3182 11.2175 7.6818 11.2175 7.29289 10.8286L5.17157 8.70727C4.78266 8.31836 4.78266 7.68196 5.17157 7.29306L7.29289 5.17174C7.6818 4.78283 8.3182 4.78283 8.70711 5.17174L10.8284 7.29306C11.2173 7.68196 11.2173 8.31836 10.8284 8.70727ZM5.87868 8.00016L8 10.1215L10.1213 8.00016L8 5.87884L5.87868 8.00016Z" fill="white"/>
<path d="M9.879 13.3251L8 14.4211L2.5 11.2131V9.00015H1.5V11.5001C1.5 11.6776 1.5945 11.8426 1.748 11.9321L7.748 15.4321C7.82448 15.4768 7.91145 15.5003 8 15.5003C8.08855 15.5003 8.17552 15.4768 8.252 15.4321L10.393 14.1831L9.879 13.3251ZM14.252 4.06815L12.1175 2.82315L11.603 3.68065L13.5 4.78715V11.2131L11.6065 12.3176L12.121 13.1751L14.252 11.9321C14.4055 11.8426 14.5 11.6776 14.5 11.5001V4.50015C14.5 4.32265 14.4055 4.15765 14.252 4.06815ZM2.5 4.78715L8 1.57865L9.8755 2.67265L10.39 1.81515L8.252 0.568148C8.17552 0.523518 8.08855 0.5 8 0.5C7.91145 0.5 7.82448 0.523518 7.748 0.568148L1.748 4.06815C1.67251 4.1122 1.60989 4.17527 1.56637 4.25107C1.52286 4.32687 1.49997 4.41275 1.5 4.50015V7.00015H2.5V4.78715Z" fill="white"/>
</svg>
