<svg width="22" height="22" viewBox="0 0 22 22" fill="none" xmlns="http://www.w3.org/2000/svg">
<g id="icon">
<path id="Vector" fill-rule="evenodd" clip-rule="evenodd" d="M11.0007 11.9163C13.1971 11.9163 15.1945 12.5525 16.6639 13.4481C17.3972 13.8973 18.0242 14.4243 18.4771 14.9973C18.9226 15.5619 19.2507 16.2366 19.2507 16.958C19.2507 17.7326 18.874 18.3431 18.3313 18.7785C17.818 19.191 17.1406 19.4642 16.421 19.6548C14.9745 20.0371 13.044 20.1663 11.0007 20.1663C8.95748 20.1663 7.02698 20.038 5.58048 19.6548C4.8609 19.4642 4.18348 19.191 3.67015 18.7785C3.12657 18.3422 2.75073 17.7326 2.75073 16.958C2.75073 16.2366 3.0789 15.5619 3.5244 14.9973C3.97723 14.4243 4.60332 13.8973 5.33757 13.4481C6.80698 12.5525 8.80532 11.9163 11.0007 11.9163ZM11.0007 13.7497C9.14632 13.7497 7.47798 14.2905 6.29273 15.0138C5.69965 15.3749 5.25232 15.7673 4.96357 16.1339C4.66657 16.5098 4.58407 16.7939 4.58407 16.958C4.58407 17.0698 4.61798 17.1881 4.81782 17.3485C5.04607 17.5318 5.44298 17.7216 6.04982 17.882C7.25798 18.2028 8.99415 18.333 11.0007 18.333C13.0082 18.333 14.7435 18.2019 15.9507 17.882C16.5585 17.7216 16.9554 17.5318 17.1837 17.3485C17.3835 17.1881 17.4174 17.0698 17.4174 16.958C17.4174 16.793 17.3349 16.5098 17.0388 16.1339C16.7491 15.7673 16.3018 15.3749 15.7087 15.0138C14.5235 14.2896 12.8551 13.7497 11.0007 13.7497ZM11.0007 1.83301C12.2163 1.83301 13.3821 2.31589 14.2416 3.17544C15.1012 4.03498 15.5841 5.20077 15.5841 6.41634C15.5841 7.63192 15.1012 8.79771 14.2416 9.65725C13.3821 10.5168 12.2163 10.9997 11.0007 10.9997C9.78516 10.9997 8.61937 10.5168 7.75983 9.65725C6.90028 8.79771 6.4174 7.63192 6.4174 6.41634C6.4174 5.20077 6.90028 4.03498 7.75983 3.17544C8.61937 2.31589 9.78516 1.83301 11.0007 1.83301ZM11.0007 3.66634C10.6396 3.66634 10.282 3.73747 9.94835 3.87567C9.61471 4.01387 9.31155 4.21644 9.05619 4.4718C8.80083 4.72716 8.59826 5.03032 8.46006 5.36396C8.32186 5.69761 8.25073 6.05521 8.25073 6.41634C8.25073 6.77748 8.32186 7.13508 8.46006 7.46872C8.59826 7.80237 8.80083 8.10552 9.05619 8.36089C9.31155 8.61625 9.61471 8.81881 9.94835 8.95701C10.282 9.09521 10.6396 9.16634 11.0007 9.16634C11.7301 9.16634 12.4296 8.87661 12.9453 8.36089C13.461 7.84516 13.7507 7.14569 13.7507 6.41634C13.7507 5.687 13.461 4.98752 12.9453 4.4718C12.4296 3.95607 11.7301 3.66634 11.0007 3.66634Z" fill="#EFEFE5"/>
</g>
</svg>
