<svg width="288" height="323" viewBox="0 0 288 323" fill="none" xmlns="http://www.w3.org/2000/svg">
<path d="M180.303 147.838L203.968 107.684L267.753 207.032L267.783 226.097L267.575 94.8999C267.424 91.6929 265.721 88.7589 263.004 87.0289L148.167 20.9729C145.481 19.6529 142.074 19.6669 139.393 21.0139C139.031 21.1959 138.69 21.3929 138.365 21.6079L137.965 21.8599L26.4967 86.4549L26.0637 86.6509C25.5077 86.9069 24.9457 87.2319 24.4177 87.6099C22.3047 89.1259 20.9007 91.3669 20.4467 93.8809C20.3787 94.2619 20.3287 94.6499 20.3047 95.0409L20.4797 201.954L79.8927 109.867C87.3727 97.6559 103.671 93.7229 118.8 93.9369L136.557 94.4059L31.9327 262.193L44.2657 269.294L150.144 94.5759L196.942 94.4059L91.3367 273.533L135.345 298.845L140.603 301.869C142.827 302.773 145.449 302.818 147.692 302.009L264.143 234.524L241.879 247.425L180.303 147.838ZM189.332 277.877L144.883 208.115L172.016 162.073L230.391 254.082L189.332 277.877Z" fill="#2D374B"/>
<path d="M144.883 208.115L189.332 277.877L230.392 254.082L172.017 162.073L144.883 208.115Z" fill="#28A0F0"/>
<path d="M267.783 226.097L267.753 207.032L203.968 107.684L180.303 147.838L241.879 247.425L264.143 234.524C266.327 232.751 267.648 230.148 267.787 227.339L267.783 226.097Z" fill="#28A0F0"/>
<path d="M0.491241 244.077L31.9312 262.193L136.555 94.4059L118.798 93.9369C103.669 93.7229 87.3722 97.6559 79.8912 109.867L20.4782 201.954L0.490234 232.665V244.077H0.491241Z" fill="white"/>
<path d="M196.941 94.4058L150.144 94.5758L44.2656 269.294L81.2726 290.602L91.3366 273.533L196.941 94.4058Z" fill="white"/>
<path d="M287.504 94.1649C287.113 84.3779 281.814 75.4179 273.513 70.2019L157.171 3.29686C148.96 -0.838139 138.702 -0.843141 130.478 3.29386C129.506 3.78386 17.3372 68.8379 17.3372 68.8379C15.7852 69.5819 14.2902 70.4689 12.8832 71.4749C5.47318 76.7859 0.956187 85.0379 0.492188 94.1049V232.666L20.4802 201.955L20.3052 95.0419C20.3292 94.6509 20.3782 94.2669 20.4472 93.8869C20.8982 91.3709 22.3032 89.1269 24.4182 87.6109C24.9462 87.2329 139.03 21.1969 139.393 21.0149C142.075 19.6679 145.482 19.6539 148.167 20.9739L263.004 87.0299C265.721 88.7599 267.424 91.6939 267.575 94.9009V227.34C267.436 230.149 266.326 232.751 264.142 234.525L241.878 247.426L230.391 254.083L189.331 277.878L147.691 302.01C145.448 302.82 142.826 302.775 140.602 301.87L91.3362 273.534L81.2722 290.602L125.546 316.093C127.01 316.925 128.315 317.663 129.385 318.265C131.043 319.195 132.172 319.816 132.571 320.009C135.718 321.537 140.245 322.427 144.325 322.427C148.066 322.427 151.713 321.74 155.165 320.388L276.11 250.345C283.052 244.967 287.136 236.856 287.504 228.069V94.1649Z" fill="#96BEDC"/>
</svg>
