<svg width="24" height="24" viewBox="0 0 24 24" fill="none" xmlns="http://www.w3.org/2000/svg">
<g clip-path="url(#clip0_3517_94888)">
<circle cx="12" cy="12" r="11.5" fill="#212126" stroke="#353539"/>
<g clip-path="url(#clip1_3517_94888)">
<path d="M13.3321 13.368L12.4609 15.7584C12.4393 15.8232 12.4393 15.8952 12.4609 15.9672L13.9585 20.0784L15.6937 19.0776L13.6129 13.368C13.5625 13.2384 13.3825 13.2384 13.3321 13.368Z" fill="white"/>
<path d="M15.0817 9.3504C15.0313 9.2208 14.8513 9.2208 14.8009 9.3504L13.9297 11.7408C13.9081 11.8056 13.9081 11.8776 13.9297 11.9496L16.3849 18.6816L18.1201 17.6808L15.0817 9.3576V9.3504Z" fill="white"/>
<path d="M12.0001 4.116C12.0433 4.116 12.0865 4.1304 12.1225 4.152L18.7321 7.968C18.8113 8.0112 18.8545 8.0976 18.8545 8.184V15.816C18.8545 15.9024 18.8041 15.9888 18.7321 16.032L12.1225 19.848C12.0865 19.8696 12.0433 19.884 12.0001 19.884C11.9569 19.884 11.9137 19.8696 11.8777 19.848L5.26806 16.032C5.18886 15.9888 5.14566 15.9024 5.14566 15.816V8.1768C5.14566 8.0904 5.19606 8.004 5.26806 7.9608L11.8777 4.1448C11.9137 4.1232 11.9569 4.1088 12.0001 4.1088V4.116ZM12.0001 3C11.7625 3 11.5321 3.0576 11.3161 3.18L4.70646 6.996C4.28166 7.2408 4.02246 7.6872 4.02246 8.1768V15.8088C4.02246 16.2984 4.28166 16.7448 4.70646 16.9896L11.3161 20.8056C11.5249 20.928 11.7625 20.9856 12.0001 20.9856C12.2377 20.9856 12.4681 20.928 12.6841 20.8056L19.2937 16.9896C19.7185 16.7448 19.9777 16.2984 19.9777 15.8088V8.1768C19.9777 7.6872 19.7185 7.2408 19.2937 6.996L12.6769 3.18C12.4681 3.0576 12.2305 3 11.9929 3H12.0001Z" fill="white"/>
<path d="M11.4385 7.6368H9.76086C9.63846 7.6368 9.52326 7.716 9.48006 7.8312L5.88726 17.6808L7.62246 18.6816L11.5825 7.8312C11.6185 7.7304 11.5465 7.6296 11.4457 7.6296L11.4385 7.6368Z" fill="white"/>
<path d="M14.3761 7.6368H12.6985C12.5761 7.6368 12.4609 7.716 12.4177 7.8312L8.31366 19.0776L10.0489 20.0784L14.5129 7.8312C14.5489 7.7304 14.4769 7.6296 14.3761 7.6296V7.6368Z" fill="white"/>
</g>
</g>
<defs>
<clipPath id="clip0_3517_94888">
<rect width="24" height="24" fill="white"/>
</clipPath>
<clipPath id="clip1_3517_94888">
<rect width="18" height="18" fill="white" transform="translate(3 3)"/>
</clipPath>
</defs>
</svg>
