<svg width="24" height="24" viewBox="0 0 24 24" fill="none" xmlns="http://www.w3.org/2000/svg">
<g clip-path="url(#clip0_3517_94886)">
<circle cx="12" cy="12" r="11.5" fill="#212126" stroke="#353539"/>
<path d="M5.56851 17.3435H8.38359C8.88322 17.3435 9.13301 17.3435 9.35802 17.2767C9.60292 17.2038 9.82697 17.0738 10.0117 16.8975C10.1815 16.7355 10.3054 16.5187 10.5531 16.0853L14.2388 9.63757C14.483 9.21035 14.6052 8.99669 14.6587 8.77138C14.717 8.52615 14.7169 8.27068 14.6584 8.02545C14.6046 7.80021 14.4823 7.58662 14.2377 7.15967L12.8162 4.67776L12.8161 4.67751C12.4799 4.09047 12.3117 3.7969 12.0982 3.68786C11.8675 3.57 11.594 3.57021 11.3635 3.68838C11.1501 3.79777 10.9823 4.09163 10.6469 4.67936L4.48324 15.4773C4.15265 16.0564 3.98736 16.346 4.00075 16.5835C4.01518 16.8402 4.15147 17.0746 4.36747 17.2143C4.56733 17.3435 4.90107 17.3435 5.56851 17.3435Z" fill="white"/>
<path d="M15.1632 17.3435H18.427C19.1015 17.3435 19.4388 17.3435 19.6393 17.213C19.856 17.0719 19.9918 16.8355 20.0044 16.5774C20.016 16.3385 19.8459 16.0476 19.5056 15.4657L17.8709 12.6705L17.8706 12.6699C17.5354 12.0967 17.3677 11.81 17.1557 11.7028C16.9266 11.587 16.6558 11.5872 16.4268 11.7034C16.215 11.8109 16.0476 12.098 15.7129 12.6721L14.0837 15.4673C13.7448 16.0488 13.5753 16.3396 13.5871 16.5782C13.5999 16.8361 13.7358 17.0723 13.9525 17.2132C14.1529 17.3435 14.4897 17.3435 15.1632 17.3435Z" fill="white"/>
</g>
<defs>
<clipPath id="clip0_3517_94886">
<rect width="24" height="24" fill="white"/>
</clipPath>
</defs>
</svg>
