<svg width="24" height="24" viewBox="0 0 24 24" fill="none" xmlns="http://www.w3.org/2000/svg">
<path d="M0 12C0 5.37258 5.37258 0 12 0V0C18.6274 0 24 5.37258 24 12V12C24 18.6274 18.6274 24 12 24V24C5.37258 24 0 18.6274 0 12V12Z" fill="#353539"/>
<path d="M16.5476 11.91L19.0018 10.6872L19.8478 8.09064L18.1558 6.85938H6.89009L4.28516 8.79418H17.5276L16.824 10.972H11.5136L11.0027 12.5634H16.3131L14.8222 17.145L17.3098 15.9138L18.1977 13.1664L16.5309 11.9436L16.5476 11.91Z" fill="white"/>
<path d="M8.02949 15.177L9.56229 10.4027L7.86196 9.12951L5.30729 17.1454L14.8222 17.145L15.459 15.177H8.02949Z" fill="white"/>
</svg>
