<svg width="16" height="16" viewBox="0 0 16 16" fill="none" xmlns="http://www.w3.org/2000/svg">
<path d="M8.00037 16C12.4186 16 16.0004 12.4183 16.0004 8C16.0004 3.58172 12.4186 0 8.00037 0C3.58209 0 0.000366211 3.58172 0.000366211 8C0.000366211 12.4183 3.58209 16 8.00037 16Z" fill="#EDBC04"/>
<path fill-rule="evenodd" clip-rule="evenodd" d="M8.10603 5.54562L9.71188 7.15175C9.76962 7.20953 9.86329 7.20953 9.92103 7.15175L10.7675 6.30515C10.8252 6.24741 10.8252 6.15378 10.7675 6.09603L8.10599 3.43396C8.04825 3.37618 7.95458 3.37618 7.89684 3.43396L5.23634 6.09506C5.1786 6.15281 5.1786 6.24644 5.23634 6.30418L6.08276 7.15078C6.14051 7.20856 6.23418 7.20856 6.29192 7.15078L7.89684 5.54562C7.95465 5.48784 8.04828 5.48784 8.10603 5.54562ZM4.28137 7.04948L3.43491 7.89611C3.37717 7.95386 3.37717 8.04749 3.43491 8.10524L4.2813 8.95184C4.33904 9.00962 4.43271 9.00962 4.49045 8.95184L5.33691 8.1052C5.39465 8.04745 5.39465 7.95382 5.33691 7.89608L4.49049 7.04951C4.43278 6.99173 4.33915 6.99173 4.28137 7.04948ZM10.767 9.90554L8.10504 12.5681C8.04729 12.6258 7.95366 12.6258 7.89588 12.568L5.23399 9.90568C5.17618 9.84787 5.17625 9.75416 5.23413 9.69642L6.08181 8.85093C6.13959 8.7933 6.23312 8.79337 6.29082 8.85108L7.89588 10.4564C7.95363 10.5142 8.04729 10.5142 8.10504 10.4564L9.71089 8.85029C9.76863 8.79254 9.86223 8.79251 9.92001 8.85021L10.7669 9.69635C10.8247 9.75409 10.8247 9.84776 10.767 9.90554ZM11.5113 7.05002L10.6648 7.89666C10.6071 7.9544 10.6071 8.04803 10.6648 8.10578L11.5112 8.95238C11.569 9.01016 11.6626 9.01016 11.7204 8.95238L12.5668 8.10574C12.6246 8.048 12.6246 7.95437 12.5668 7.89662L11.7204 7.05002C11.6626 6.99228 11.569 6.99228 11.5113 7.05002ZM8.10601 7.03388L8.96851 7.89656C9.02625 7.95431 9.02625 8.0479 8.96851 8.10568L8.10601 8.96843C8.04827 9.02621 7.9546 9.02621 7.89685 8.96843L7.03436 8.10568C6.97661 8.04794 6.97661 7.95431 7.03436 7.89656L7.89685 7.03388C7.9546 6.9761 8.04827 6.9761 8.10601 7.03388Z" fill="white"/>
</svg>
