<?xml version="1.0" encoding="utf-8"?>
<!-- Generator: Adobe Illustrator 24.2.1, SVG Export Plug-In . SVG Version: 6.00 Build 0)  -->
<svg version="1.1" id="Layer_1" xmlns="http://www.w3.org/2000/svg" xmlns:xlink="http://www.w3.org/1999/xlink" x="0px" y="0px"
	 viewBox="0 0 280 40" style="enable-background:new 0 0 280 40;" xml:space="preserve">
<style type="text/css">
	.st0{fill:#353539;}
</style>
<path class="st0" d="M8,1.2c-0.4,0-0.5,0.1-0.8,0.4L1.6,7C1.3,7.3,1.2,7.6,1.2,8v4H0V8c0-0.7,0.3-1.3,0.8-1.8l5.6-5.5
	C6.9,0.3,7.3,0,8,0V1.2z"/>
<path class="st0" d="M2.6,40C1.2,40,0,38.8,0,37.4V12h1.2v25.4c0,0.8,0.6,1.4,1.4,1.4H8V40H2.6z"/>
<path class="st0" d="M8,1.2V0h264v1.2H8z"/>
<path class="st0" d="M8,38.8V40h264v-1.2H8z"/>
<path class="st0" d="M272,38.8c0.4,0,0.5-0.1,0.8-0.4l5.6-5.5c0.3-0.3,0.4-0.6,0.4-1v-4V2.5c0-0.8-0.6-1.4-1.4-1.4H272V0h5.4
	c1.4,0,2.6,1.1,2.6,2.5V28v4c0,0.7-0.3,1.3-0.8,1.8l-5.6,5.5c-0.5,0.5-0.9,0.7-1.6,0.7V38.8z"/>
</svg>
