<?xml version="1.0" encoding="utf-8"?>
<!-- Generator: Adobe Illustrator 24.2.1, SVG Export Plug-In . SVG Version: 6.00 Build 0)  -->
<svg version="1.1" id="Layer_1" xmlns="http://www.w3.org/2000/svg" xmlns:xlink="http://www.w3.org/1999/xlink" x="0px" y="0px"
	 viewBox="0 0 104 32" style="enable-background:new 0 0 104 32;" xml:space="preserve">
<style type="text/css">
	.st0{opacity:0.6;}
	.st1{fill:#FFFFFF;}
	.st2{opacity:0.6;fill:#FFFFFF;enable-background:new    ;}
</style>
<g class="st0">
	<path class="st1" d="M2.6,32C1.2,32,0,30.9,0,29.5V16.8h1.2v12.7c0,0.8,0.6,1.4,1.4,1.4H8V32H2.6z"/>
	<path class="st1" d="M8,1.2c-0.4,0-0.5,0.1-0.8,0.4L1.6,7C1.3,7.3,1.2,7.6,1.2,8v2.4H0V8c0-0.7,0.3-1.3,0.8-1.8l5.6-5.5
		C6.9,0.3,7.3,0,8,0V1.2z"/>
</g>
<path class="st2" d="M8,1.2V0l88,0v1.2L8,1.2z"/>
<path class="st2" d="M8,32v-1.2h88V32H8z"/>
<path class="st2" d="M101.5,0c1.4,0,2.5,1.1,2.5,2.5V24c0,0.7-0.3,1.3-0.7,1.8l-5.5,5.5C97.3,31.7,96.7,32,96,32v-1.2
	c0.4,0,0.7-0.1,1-0.4l5.5-5.5c0.3-0.3,0.4-0.6,0.4-1V2.5c0-0.8-0.6-1.4-1.4-1.4H96V0H101.5z"/>
</svg>
