<svg width="24" height="24" viewBox="0 0 24 24" fill="none" xmlns="http://www.w3.org/2000/svg">
<g opacity="0.8" clip-path="url(#clip0_1650_46842)">
<path d="M15.1416 7.13139C15.1149 7.05362 15.0848 6.98003 15.0496 6.91062C15.0965 6.98922 15.1266 7.06365 15.1416 7.13139Z" fill="white"/>
<path d="M11.9461 0.000119571C5.31872 0.0302249 -0.0291495 5.42576 0.000119571 12.0539C0.0302249 18.6813 5.42743 24.0292 12.0539 23.9999C18.6813 23.9698 24.0292 18.5734 23.9999 11.9469C23.9698 5.31872 18.5734 -0.0291495 11.9461 0.000119571ZM10.4266 11.4109C9.2416 11.4109 8.28074 10.4508 8.28074 9.26585C8.28074 8.08171 9.2416 7.12086 10.4266 7.12086C11.6107 7.12086 12.5716 8.08171 12.5716 9.26585C12.5724 10.4508 11.6116 11.4109 10.4266 11.4109ZM12.1376 13.7306L12.1484 13.7173L12.1601 13.7039C12.7723 14.0986 13.4714 14.2382 14.1697 14.2583C14.8688 14.2767 15.5813 14.224 16.2821 14.0827C16.982 13.9372 17.6702 13.7223 18.3351 13.448C18.708 13.2941 19.0793 13.126 19.4331 12.9287C19.4356 12.927 19.4373 12.9262 19.4398 12.9245C19.6597 12.7924 19.8746 12.6527 20.0862 12.5089C20.1322 12.4762 20.1765 12.442 20.22 12.4068L20.225 12.4127L20.2434 12.4344C19.704 12.9253 19.0618 13.2899 18.4078 13.6119C17.7472 13.923 17.0581 14.178 16.3465 14.362C15.6373 14.5451 14.8972 14.684 14.1479 14.6154C13.4112 14.5493 12.6343 14.2909 12.1376 13.7306ZM17.6435 11.4109C17.6427 11.1533 17.85 10.9459 18.1059 10.9434C18.3635 10.9426 18.5709 11.1491 18.5734 11.4058C18.5742 11.6626 18.3668 11.8725 18.111 11.8733C17.8542 11.875 17.6452 11.6676 17.6435 11.4109ZM13.9681 22.9203C13.5048 19.6731 16.3406 16.4928 17.9395 14.8654C18.3025 14.4966 18.8636 13.9882 19.3854 13.448C21.461 11.507 21.8741 9.18808 17.6259 8.02903C16.8206 7.79571 15.986 7.46539 15.1406 7.13173C15.1138 7.05395 15.0837 6.98036 15.0486 6.91095C14.9516 6.7437 14.7818 6.55136 14.5251 6.3331C13.9732 5.85392 12.9354 5.86647 12.0397 6.07888C11.0496 5.84556 10.0728 5.76277 9.13373 5.98773C5.02603 7.11918 4.36539 9.12286 4.20566 11.5371C3.98823 14.1463 3.86112 16.0906 2.8735 18.3117C1.64086 16.5338 0.914149 14.3771 0.904114 12.0498C0.876518 5.92166 5.82215 0.931711 11.9502 0.904114C18.0783 0.876518 23.0683 5.82131 23.0959 11.9494C23.121 17.4227 19.1763 21.9895 13.9681 22.9203Z" fill="white"/>
<path d="M11.9349 9.2857C11.9349 10.1195 11.2592 10.7943 10.4263 10.7943C9.59258 10.7943 8.91688 10.1195 8.91688 9.2857C8.91688 8.45196 9.59258 7.7771 10.4263 7.7771C11.2592 7.77626 11.9349 8.45196 11.9349 9.2857Z" fill="white"/>
</g>
<defs>
<clipPath id="clip0_1650_46842">
<rect width="24" height="24" fill="white"/>
</clipPath>
</defs>
</svg>
