<svg width="16" height="18" viewBox="0 0 16 18" fill="none" xmlns="http://www.w3.org/2000/svg">
<path d="M11.4286 15.2727V16.6364C11.4286 17.0882 11.0448 17.4545 10.5714 17.4545H0.857143C0.38375 17.4545 0 17.0882 0 16.6364V4.09091C0 3.63903 0.38375 3.27273 0.857143 3.27273H3.42857V13.3636C3.42857 14.4163 4.32575 15.2727 5.42857 15.2727H11.4286ZM11.4286 3.54545V0H5.42857C4.95518 0 4.57143 0.366307 4.57143 0.818182V13.3636C4.57143 13.8155 4.95518 14.1818 5.42857 14.1818H15.1429C15.6163 14.1818 16 13.8155 16 13.3636V4.36364H12.2857C11.8143 4.36364 11.4286 3.99545 11.4286 3.54545ZM15.749 2.48765L13.3939 0.239625C13.2332 0.0861963 13.0151 1.13453e-06 12.7878 0L12.5714 0V3.27273H16V3.06617C16 2.84918 15.9097 2.64108 15.749 2.48765Z" fill="white"/>
</svg>
