<svg width="600" height="600" viewBox="0 0 600 600" fill="none" xmlns="http://www.w3.org/2000/svg">
<path fill-rule="evenodd" clip-rule="evenodd" d="M300.006 68.5715L99.7949 184.286V415.715L300.006 531.429L500.219 415.715V184.286L300.006 68.5715ZM308.415 10.2554C303.212 7.24819 296.801 7.24819 291.598 10.2554L53.5479 147.838C48.3447 150.846 45.14 156.404 45.14 162.417V437.583C45.14 443.597 48.3447 449.155 53.5479 452.162L291.598 589.744C296.801 592.752 303.212 592.752 308.415 589.744L546.466 452.162C551.669 449.155 554.874 443.597 554.874 437.583V162.417C554.874 156.404 551.669 150.846 546.466 147.838L308.415 10.2554Z" fill="#121212"/>
<path d="M300.006 152.396L172.312 226.198V373.803L299.167 447.118C299.686 447.419 300.006 447.975 300.006 448.577V473.848C300.006 475.143 298.605 475.954 297.485 475.306L153.393 392.026C149.491 389.771 147.086 385.603 147.086 381.092V218.908C147.086 214.397 149.491 210.229 153.393 207.973L293.7 126.882C297.603 124.627 302.411 124.627 306.313 126.882L450.98 210.191C452.091 210.831 452.102 212.434 450.998 213.09C442.462 218.159 438.09 220.414 428.538 225.731C428.021 226.019 427.388 226.016 426.876 225.721L300.006 152.396Z" fill="#121212"/>
<path d="M321.028 303.115C321.028 302.493 321.371 301.922 321.919 301.629L448.887 233.979C450.006 233.382 451.358 234.194 451.358 235.465V400.038C451.358 400.639 451.039 401.193 450.521 401.494L323.553 475.294C322.433 475.946 321.028 475.137 321.028 473.838V303.115Z" fill="#121212"/>
</svg>
