<svg width="87" height="32" viewBox="0 0 87 32" fill="none" xmlns="http://www.w3.org/2000/svg">
<path d="M31.2587 12.1288V1.73126H32.9953V12.1288H31.2587ZM32.9953 13.86V12.1288H39.9416V13.86H32.9953ZM32.9953 1.73126V0H39.9416V1.73126H32.9953ZM39.9416 12.1288V10.3975H41.6882V12.1288H39.9416ZM39.9416 3.47247V1.73126H41.6882V3.47247H39.9416Z" fill="#EFEFE5"/>
<path d="M44.0895 13.86V3.47247H48.0529L48.6945 5.05449H45.9259V13.86H44.0895Z" fill="#EFEFE5"/>
<path d="M49.2853 3.47247H51.2714L53.986 11.6014H54.0758L56.8703 3.47247H58.7766L53.6666 17.3226H50.1036V15.7505H52.4989L53.1576 13.86L49.2853 3.47247Z" fill="#EFEFE5"/>
<path d="M60.0102 17.3226V3.47247H61.8465V5.16394C62.1726 4.54042 62.6117 4.06283 63.1639 3.73117C63.7162 3.39288 64.3882 3.22373 65.18 3.22373C65.872 3.22373 66.4774 3.36634 66.9964 3.65157C67.5154 3.9368 67.9445 4.32484 68.2839 4.81569C68.6299 5.29992 68.886 5.877 69.0524 6.54696C69.2254 7.21028 69.3119 7.91671 69.3119 8.66626C69.3119 9.42908 69.2254 10.1388 69.0524 10.7955C68.886 11.4522 68.6299 12.026 68.2839 12.5168C67.9445 13.0077 67.5154 13.3957 66.9964 13.681C66.4841 13.9662 65.8786 14.1088 65.18 14.1088C64.3882 14.1088 63.7162 13.943 63.1639 13.6113C62.6117 13.273 62.1726 12.7921 61.8465 12.1686V17.3226H60.0102ZM61.8465 9.54184C61.8465 10.4373 62.0927 11.1769 62.5851 11.7606C63.0775 12.3444 63.7861 12.6362 64.7109 12.6362C65.4894 12.6362 66.1248 12.4206 66.6172 11.9895C67.1162 11.5517 67.3657 10.9812 67.3657 10.2781V7.0544C67.3657 6.35128 67.1162 5.78082 66.6172 5.34303C66.1248 4.90524 65.4894 4.68635 64.7109 4.68635C63.7861 4.68635 63.0775 4.98152 62.5851 5.57188C62.0927 6.1556 61.8465 6.8952 61.8465 7.79068V9.54184Z" fill="#EFEFE5"/>
<path d="M70.1462 5.03459V3.47247H71.9028V0H73.7192V3.47247H76.1145V5.03459H73.7192V12.288H76.1145V13.86H71.9028V5.03459H70.1462Z" fill="#EFEFE5"/>
<path d="M77.0985 8.66626C77.0985 7.87691 77.1917 7.14726 77.378 6.47731C77.5709 5.80072 77.8604 5.22695 78.2463 4.756C78.6388 4.27841 79.1279 3.90363 79.7134 3.63167C80.2989 3.35971 80.9875 3.22373 81.7793 3.22373C82.5711 3.22373 83.2597 3.35971 83.8453 3.63167C84.4308 3.90363 84.9165 4.27841 85.3024 4.756C85.6883 5.22695 85.9777 5.80072 86.1707 6.47731C86.3636 7.14726 86.4601 7.87691 86.4601 8.66626C86.4601 9.46888 86.3636 10.2018 86.1707 10.8652C85.9777 11.5285 85.6883 12.0989 85.3024 12.5765C84.9165 13.0541 84.4274 13.4289 83.8353 13.7008C83.2498 13.9728 82.5644 14.1088 81.7793 14.1088C80.9875 14.1088 80.2989 13.9728 79.7134 13.7008C79.1279 13.4289 78.6388 13.0541 78.2463 12.5765C77.8604 12.0989 77.5709 11.5285 77.378 10.8652C77.1917 10.2018 77.0985 9.46888 77.0985 8.66626ZM79.0347 10.2781C79.0347 10.6297 79.1079 10.9514 79.2543 11.2433C79.4073 11.5351 79.6069 11.7839 79.8531 11.9895C80.0993 12.1885 80.3887 12.3477 80.7214 12.4671C81.0541 12.5798 81.4067 12.6362 81.7793 12.6362C82.1453 12.6362 82.4946 12.5798 82.8273 12.4671C83.1599 12.3477 83.4494 12.1885 83.6956 11.9895C83.9417 11.7839 84.138 11.5351 84.2844 11.2433C84.4374 10.9514 84.5139 10.6297 84.5139 10.2781V7.0544C84.5139 6.70284 84.4374 6.38113 84.2844 6.08927C84.138 5.79741 83.9417 5.54866 83.6956 5.34303C83.4494 5.1374 83.1599 4.97821 82.8273 4.86544C82.4946 4.74605 82.1453 4.68635 81.7793 4.68635C81.4134 4.68635 81.0607 4.74605 80.7214 4.86544C80.3887 4.97821 80.0993 5.1374 79.8531 5.34303C79.6069 5.54866 79.4073 5.79741 79.2543 6.08927C79.1079 6.38113 79.0347 6.70284 79.0347 7.0544V10.2781Z" fill="#EFEFE5"/>
<path d="M31.2829 29.9161V19.374H33.0436V29.9161H31.2829ZM33.0436 31.6715V29.9161H38.3258V31.6715H33.0436ZM33.0436 19.374V17.6187H40.0866V19.374H41.8574V21.1395H40.0866V19.374H33.0436ZM36.5651 26.4055V24.6501H41.8574V31.6715H40.0866V29.9161H38.3258V28.1608H40.0866V26.4055H36.5651Z" fill="#EFEFE5"/>
<path d="M44.2111 28.1608V21.1395H46.0731V27.949C46.0731 28.7089 46.2215 29.3142 46.5183 29.7648C46.8151 30.2087 47.3582 30.4306 48.1475 30.4306C48.9368 30.4306 49.5608 30.1381 50.0195 29.553C50.485 28.9679 50.7177 28.2146 50.7177 27.2932V21.1395H52.5797V31.6715H50.7177V29.9363C50.4277 30.5551 50.0398 31.0427 49.554 31.3991C49.0683 31.7488 48.4274 31.9237 47.6314 31.9237C47.1457 31.9237 46.6903 31.8531 46.2653 31.7118C45.8471 31.5773 45.4861 31.3588 45.1826 31.0561C44.879 30.7535 44.6395 30.3634 44.4641 29.8859C44.2955 29.4084 44.2111 28.8334 44.2111 28.1608Z" fill="#EFEFE5"/>
<path d="M54.3262 28.7762C54.3262 27.949 54.5893 27.2394 55.1155 26.6476C55.6417 26.0557 56.431 25.7127 57.4834 25.6186L60.9239 25.3059V24.4585C60.9239 24.0482 60.87 23.7086 60.762 23.4396C60.6608 23.1705 60.5124 22.9587 60.3168 22.804C60.1279 22.6426 59.8985 22.5316 59.6287 22.4711C59.3588 22.4038 59.0586 22.3702 58.7281 22.3702C58.067 22.3702 57.5374 22.5182 57.1394 22.8141C56.7481 23.11 56.5525 23.5976 56.5525 24.2769H54.6804C54.6804 23.7792 54.7884 23.3252 55.0042 22.915C55.2201 22.498 55.5102 22.1382 55.8745 21.8355C56.2388 21.5329 56.6671 21.3009 57.1596 21.1395C57.6521 20.9713 58.1816 20.8872 58.7483 20.8872C59.315 20.8872 59.8412 20.9612 60.3269 21.1092C60.8194 21.2504 61.2444 21.4656 61.6019 21.7548C61.9662 22.044 62.2462 22.4173 62.4418 22.8746C62.6442 23.3252 62.7454 23.8599 62.7454 24.4786V30.0776H64.324V31.6715H61.1668L61.1263 29.7245H61.0454C60.7553 30.471 60.3269 31.0258 59.7602 31.389C59.1936 31.7455 58.5156 31.9237 57.7263 31.9237C57.2001 31.9237 56.7245 31.843 56.2995 31.6816C55.8745 31.5202 55.5068 31.2814 55.1965 30.9653C54.9199 30.6896 54.704 30.36 54.5489 29.9767C54.4004 29.5933 54.3262 29.1932 54.3262 28.7762ZM56.2995 29.0284C56.2995 29.5126 56.4681 29.8691 56.8054 30.0977C57.1427 30.3197 57.6082 30.4306 58.2019 30.4306C59.0451 30.4306 59.7096 30.1314 60.1954 29.5328C60.6811 28.9342 60.9239 28.1608 60.9239 27.2125V26.7384L57.1697 27.0814C56.7852 27.1083 56.5423 27.2092 56.4411 27.384C56.3467 27.5589 56.2995 27.7976 56.2995 28.1003V29.0284Z" fill="#EFEFE5"/>
<path d="M65.3723 31.6715V21.1395H70.4521V22.7435H67.2342V31.6715H65.3723Z" fill="#EFEFE5"/>
<path d="M71.207 26.4055C71.207 25.6455 71.2914 24.9292 71.46 24.2567C71.6354 23.5774 71.8951 22.9923 72.2392 22.5014C72.5832 22.0037 73.0184 21.6102 73.5446 21.321C74.0708 21.0318 74.6847 20.8872 75.3862 20.8872C76.1755 20.8872 76.8535 21.0554 77.4202 21.3917C77.9869 21.7279 78.4355 22.2155 78.7661 22.8544V17.6187H80.6381V31.6715H78.7661V29.9565C78.4355 30.5887 77.9936 31.0763 77.4404 31.4193C76.8873 31.7556 76.2194 31.9237 75.4368 31.9237C74.7218 31.9237 74.0977 31.7791 73.5648 31.4899C73.0386 31.2007 72.6001 30.8073 72.2493 30.3096C71.8985 29.8119 71.6354 29.2302 71.46 28.5643C71.2914 27.8918 71.207 27.1722 71.207 26.4055ZM73.1702 28.0398C73.1702 28.3962 73.2376 28.7224 73.3725 29.0183C73.5142 29.3142 73.7065 29.5664 73.9493 29.7749C74.1922 29.9767 74.4755 30.1381 74.7993 30.2591C75.1232 30.3735 75.4807 30.4306 75.872 30.4306C76.8097 30.4306 77.5248 30.1347 78.0172 29.5429C78.5164 28.951 78.7661 28.2012 78.7661 27.2932V25.5177C78.7661 24.6098 78.5164 23.8599 78.0172 23.2681C77.5248 22.6695 76.8097 22.3702 75.872 22.3702C75.4874 22.3702 75.1299 22.4307 74.7993 22.5518C74.4755 22.6661 74.1922 22.8275 73.9493 23.036C73.7065 23.2445 73.5142 23.4967 73.3725 23.7926C73.2376 24.0886 73.1702 24.4147 73.1702 24.7712V28.0398Z" fill="#EFEFE5"/>
<path d="M20.2185 3.65794V6.91681C20.2185 7.10047 20.0696 7.24935 19.8859 7.24935H17.8907C17.707 7.24935 17.5582 7.10047 17.5582 6.91681V4.32301C17.5582 3.58839 16.9626 2.99286 16.228 2.99286H3.99058C3.25596 2.99286 2.66043 3.58839 2.66043 4.32301V15.4657C2.66043 15.973 2.94894 16.4361 3.40426 16.6597L9.81613 19.8084C10.001 19.8992 10.2176 19.8992 10.4025 19.8084L16.8143 16.6597C17.2696 16.4361 17.5582 15.973 17.5582 15.4657V11.1733C17.5582 10.9896 17.707 10.8408 17.8907 10.8408H19.8859C20.0696 10.8408 20.2185 10.9896 20.2185 11.1733V16.8376C20.2185 17.0773 20.0895 17.2985 19.8809 17.4165L11.7468 22.0187C10.7308 22.5935 9.48777 22.5935 8.47176 22.0187L0.337692 17.4165C0.129086 17.2985 0.00012207 17.0773 0.00012207 16.8376V3.65793C0.00012207 3.29062 0.297887 2.99286 0.665199 2.99286H1.72932C2.09663 2.99286 2.3944 2.69509 2.3944 2.32778V0.997627C2.3944 0.630315 2.69216 0.33255 3.05948 0.33255H17.1591C17.5264 0.33255 17.8242 0.630315 17.8242 0.997627V2.32778C17.8242 2.69509 18.122 2.99286 18.4893 2.99286H19.5534C19.9207 2.99286 20.2185 3.29062 20.2185 3.65794Z" fill="url(#paint0_linear_246_136)"/>
<path d="M8.76724 11.0343C8.76724 11.8024 8.1446 12.425 7.37654 12.425C6.60848 12.425 5.98584 11.8024 5.98584 11.0343C5.98584 10.2663 6.60848 9.64362 7.37654 9.64362C8.1446 9.64362 8.76724 10.2663 8.76724 11.0343Z" fill="white"/>
<path d="M14.6583 11.0343C14.6583 11.8024 14.0357 12.425 13.2676 12.425C12.4996 12.425 11.8769 11.8024 11.8769 11.0343C11.8769 10.2663 12.4996 9.64362 13.2676 9.64362C14.0357 9.64362 14.6583 10.2663 14.6583 11.0343Z" fill="white"/>
<path d="M83.1348 19.6178C83.1348 19.3891 83.1782 19.1734 83.2651 18.9706C83.352 18.7678 83.4702 18.5917 83.6196 18.4423C83.7706 18.2913 83.9467 18.1724 84.1479 18.0855C84.3492 17.9986 84.5657 17.9551 84.7975 17.9551C85.0262 17.9551 85.2419 17.9986 85.4447 18.0855C85.6475 18.1724 85.8236 18.2913 85.973 18.4423C86.1224 18.5917 86.2406 18.7678 86.3275 18.9706C86.4159 19.1734 86.4602 19.3891 86.4602 19.6178C86.4602 19.8496 86.4159 20.0661 86.3275 20.2674C86.2406 20.4671 86.1224 20.6424 85.973 20.7934C85.8236 20.9428 85.6467 21.0617 85.4424 21.1502C85.2396 21.2371 85.0246 21.2805 84.7975 21.2805C84.5657 21.2805 84.3492 21.2371 84.1479 21.1502C83.9467 21.0617 83.7706 20.9428 83.6196 20.7934C83.4702 20.6424 83.352 20.4671 83.2651 20.2674C83.1782 20.0661 83.1348 19.8496 83.1348 19.6178ZM83.4389 19.6178C83.4389 19.8084 83.474 19.9868 83.5441 20.153C83.6143 20.3177 83.7103 20.461 83.8323 20.583C83.9543 20.7034 84.0976 20.7995 84.2623 20.8711C84.4285 20.9413 84.6069 20.9763 84.7975 20.9763C84.988 20.9763 85.1657 20.9413 85.3303 20.8711C85.4965 20.7995 85.6406 20.7034 85.7626 20.583C85.8846 20.461 85.9806 20.3177 86.0508 20.153C86.1209 19.9868 86.156 19.8084 86.156 19.6178C86.156 19.4272 86.1209 19.2496 86.0508 19.0849C85.9806 18.9188 85.8846 18.7747 85.7626 18.6527C85.6406 18.5307 85.4965 18.4347 85.3303 18.3645C85.1657 18.2944 84.988 18.2593 84.7975 18.2593C84.6069 18.2593 84.4285 18.2944 84.2623 18.3645C84.0976 18.4347 83.9543 18.5307 83.8323 18.6527C83.7103 18.7747 83.6143 18.9188 83.5441 19.0849C83.474 19.2496 83.4389 19.4272 83.4389 19.6178ZM84.2028 20.4137V18.8219H84.9324C85.094 18.8219 85.2183 18.8654 85.3052 18.9523C85.3936 19.0392 85.4378 19.1642 85.4378 19.3274C85.4378 19.4676 85.4043 19.5774 85.3372 19.6567C85.2701 19.736 85.1885 19.7886 85.0925 19.8145L85.4424 20.4137H85.1062L84.7792 19.8282H84.507V20.4137H84.2028ZM84.507 19.5835H84.9507C85.0102 19.5835 85.0536 19.566 85.0811 19.5309C85.11 19.4943 85.1245 19.4509 85.1245 19.4006V19.2428C85.1245 19.1269 85.0666 19.0689 84.9507 19.0689H84.507V19.5835Z" fill="#EFEFE5"/>
<defs>
<linearGradient id="paint0_linear_246_136" x1="-2.20174" y1="25.2145" x2="-13.6019" y2="3.57327" gradientUnits="userSpaceOnUse">
<stop stop-color="#F8CF3E"/>
<stop offset="1" stop-color="#27F3D1"/>
</linearGradient>
</defs>
</svg>
