<?xml version="1.0" encoding="utf-8"?>
<!-- Generator: Adobe Illustrator 24.2.1, SVG Export Plug-In . SVG Version: 6.00 Build 0)  -->
<svg version="1.1" id="Layer_1" xmlns="http://www.w3.org/2000/svg" xmlns:xlink="http://www.w3.org/1999/xlink" x="0px" y="0px"
	 viewBox="0 0 248 32" style="enable-background:new 0 0 248 32;" xml:space="preserve">
<style type="text/css">
	.st0{fill:#FFFFFF;filter:url(#Adobe_OpacityMaskFilter);}
	.st1{mask:url(#path-1-inside-1_2419_5096_1_);fill:url(#SVGID_1_);}
	.st2{fill:none;stroke:url(#SVGID_2_);}
	.st3{fill:none;stroke:url(#SVGID_3_);}
	.st4{fill:none;stroke:url(#SVGID_4_);stroke-linecap:round;stroke-linejoin:round;}
</style>
<defs>
	<filter id="Adobe_OpacityMaskFilter" filterUnits="userSpaceOnUse" x="-2" y="-2" width="12" height="36">
		<feColorMatrix  type="matrix" values="1 0 0 0 0  0 1 0 0 0  0 0 1 0 0  0 0 0 1 0"/>
	</filter>
</defs>
<mask maskUnits="userSpaceOnUse" x="-2" y="-2" width="12" height="36" id="path-1-inside-1_2419_5096_1_">
	<path class="st0" d="M8,1.2c-0.4,0-0.5,0.1-0.8,0.4L1.6,7C1.3,7.3,1.2,7.6,1.2,8v21.5c0,0.8,0.6,1.4,1.4,1.4H8V32H2.6
		C1.2,32,0,30.9,0,29.5V8c0-0.7,0.3-1.3,0.8-1.8l5.6-5.5C6.9,0.3,7.3,0,8,0V1.2z"/>
</mask>
<linearGradient id="SVGID_1_" gradientUnits="userSpaceOnUse" x1="4" y1="34" x2="4" y2="-6" gradientTransform="matrix(1 0 0 -1 0 34)">
	<stop  offset="0" style="stop-color:#7D4CD4"/>
	<stop  offset="1" style="stop-color:#6253DA"/>
</linearGradient>
<path class="st1" d="M7.2,1.6L5.9,0.1l0,0L7.2,1.6z M8,1.2v2c1.1,0,2-0.9,2-2H8z M1.6,7L0.2,5.6h0L1.6,7z M0.8,6.2l-1.4-1.4l0,0
	L0.8,6.2z M6.4,0.7l1.4,1.4L6.4,0.7z M8,0h2c0-1.1-0.9-2-2-2V0z M8,30.8h2c0-1.1-0.9-2-2-2V30.8z M8,32v2c1.1,0,2-0.9,2-2H8z M8.6,3
	c0.1-0.1,0.1-0.1,0.1-0.1C8.8,2.9,8.7,2.9,8.6,3C8.5,3,8.4,3.1,8.3,3.1c-0.1,0-0.2,0-0.3,0v-4c-0.5,0-1,0.1-1.5,0.4
	C6.2-0.2,5.9,0.1,5.9,0.1L8.6,3z M3,8.5L8.6,3L5.9,0.1L0.2,5.6L3,8.5z M3.2,8c0,0.2-0.1,0.4-0.2,0.5L0.2,5.6c-0.6,0.6-1,1.5-1,2.4
	H3.2z M-0.6,4.8C-1.5,5.6-2,6.8-2,8h4c0-0.1,0-0.2,0.2-0.4L-0.6,4.8z M5-0.7l-5.6,5.5l2.8,2.9l5.6-5.5L5-0.7z M8-2
	C7.4-2,6.8-1.9,6.2-1.6C5.7-1.3,5.3-1,5-0.7l2.8,2.9C8,2,8,2,8,2c0,0,0,0,0,0c0,0,0,0,0,0V-2z M6,0v1.2h4V0H6z M-2,29.5
	C-2,32,0.1,34,2.6,34v-4C2.2,30,2,29.7,2,29.5H-2z M2.6,28.8c0.3,0,0.6,0.2,0.6,0.6h-4c0,1.9,1.6,3.4,3.4,3.4V28.8z M8,28.8H2.6v4H8
	V28.8z M2.6,34H8v-4H2.6V34z M10,32v-1.2H6V32H10z M3.2,29.5V8h-4v21.5H3.2z M-2,8v21.5h4V8H-2z"/>
<linearGradient id="SVGID_2_" gradientUnits="userSpaceOnUse" x1="15.8765" y1="33.4175" x2="240" y2="33.4175" gradientTransform="matrix(1 0 0 -1 0 34)">
	<stop  offset="0" style="stop-color:#794BCA"/>
	<stop  offset="0.5017" style="stop-color:#C34C52"/>
	<stop  offset="1" style="stop-color:#E69597"/>
</linearGradient>
<path class="st2" d="M8.5,0.7V0.5l231,0v0.2L8.5,0.7z"/>
<linearGradient id="SVGID_3_" gradientUnits="userSpaceOnUse" x1="240.0131" y1="2.5692" x2="8.0131" y2="2.5696" gradientTransform="matrix(1 0 0 -1 0 34)">
	<stop  offset="0" style="stop-color:#C7AAC6"/>
	<stop  offset="0.4757" style="stop-color:#4161BF"/>
	<stop  offset="1" style="stop-color:#6253DA"/>
</linearGradient>
<path class="st3" d="M239.5,31.5H8.5v-0.2h231V31.5z"/>
<linearGradient id="SVGID_4_" gradientUnits="userSpaceOnUse" x1="244" y1="34" x2="244" y2="-6" gradientTransform="matrix(1 0 0 -1 0 34)">
	<stop  offset="0" style="stop-color:#E69597"/>
	<stop  offset="1" style="stop-color:#C7AAC6"/>
</linearGradient>
<path class="st4" d="M245.5,0.5c1.1,0,2,0.9,2,2V24c0,0.5-0.2,1.1-0.6,1.4l-5.5,5.5c-0.3,0.3-0.6,0.4-0.9,0.5v-0.2
	c0.3-0.1,0.6-0.2,0.8-0.5l5.5-5.5l-0.4-0.4l0.4,0.4c0.3-0.3,0.5-0.8,0.5-1.3V2.5c0-1-0.8-1.9-1.9-1.9l-5,0V0.5H245.5z"/>
</svg>
