<?xml version="1.0" encoding="utf-8"?>
<!-- Generator: Adobe Illustrator 24.2.1, SVG Export Plug-In . SVG Version: 6.00 Build 0)  -->
<svg version="1.1" id="Layer_1" xmlns="http://www.w3.org/2000/svg" xmlns:xlink="http://www.w3.org/1999/xlink" x="0px" y="0px"
	 viewBox="0 0 1280 800" style="enable-background:new 0 0 1280 800;" xml:space="preserve">
<style type="text/css">
	.st0{clip-path:url(#SVGID_2_);}
	.st1{opacity:0.4;fill-rule:evenodd;clip-rule:evenodd;fill:url(#SVGID_3_);enable-background:new    ;}
	.st2{opacity:0.4;fill-rule:evenodd;clip-rule:evenodd;fill:url(#SVGID_4_);enable-background:new    ;}
	.st3{opacity:0.4;fill-rule:evenodd;clip-rule:evenodd;fill:url(#SVGID_5_);enable-background:new    ;}
	.st4{opacity:0.4;fill-rule:evenodd;clip-rule:evenodd;fill:url(#SVGID_6_);enable-background:new    ;}
	.st5{clip-path:url(#SVGID_8_);}
	.st6{fill:#C0DAFF;}
	.st7{fill:#D4E8FF;}
	.st8{fill:#FFFFFF;}
	.st9{fill:#0066FF;}
	.st10{fill:#0101FF;}
	.st11{fill:#001E7C;}
	.st12{fill:#559AFF;}
	.st13{fill:#2579F2;}
	.st14{fill:#FDFDFD;}
	.st15{fill:#F8FE22;}
	.st16{fill:#0C0D08;}
	.st17{fill:#720000;}
	.st18{fill:#003060;}
	.st19{fill:#FFF5E1;}
</style>
<g>
	<defs>
		<path id="SVGID_1_" d="M24,0h1232c13.3,0,24,10.7,24,24v752c0,13.3-10.7,24-24,24H24c-13.3,0-24-10.7-24-24V24C0,10.7,10.7,0,24,0
			z"/>
	</defs>
	<clipPath id="SVGID_2_">
		<use xlink:href="#SVGID_1_"  style="overflow:visible;"/>
	</clipPath>
	<g class="st0">
		
			<linearGradient id="SVGID_3_" gradientUnits="userSpaceOnUse" x1="835.671" y1="355.6674" x2="1067.9611" y2="125.8544" gradientTransform="matrix(1 0 0 -1 0 800)">
			<stop  offset="0.25" style="stop-color:#0066FF;stop-opacity:0"/>
			<stop  offset="0.5" style="stop-color:#0066FF"/>
			<stop  offset="1" style="stop-color:#0066FF;stop-opacity:0"/>
		</linearGradient>
		<path class="st1" d="M862.9,444v24.7h64.7V444h1.1v24.7h64.7V444h1.1v24.7h64.7V444h1.1v24.7h23.8v1.1h-23.8v64.7h23.8v1.1h-23.8
			v64.7h23.8v1.1h-23.8V666h23.8v1.1h-23.8V692h-1.1v-24.8h-64.7V692h-1.1v-24.8h-64.7V692h-1.1v-24.8h-64.7V692h-1.1v-24.8H836V666
			h25.8v-64.7H836v-1.1h25.8v-64.7H836v-1.1h25.8v-64.7H836v-1.1h25.8V444H862.9z M862.9,534.5v-64.7h64.7v64.7H862.9z M862.9,535.6
			v64.7h64.7v-64.7H862.9z M862.9,666v-64.7h64.7V666H862.9z M928.7,666v-64.7h64.7V666H928.7z M994.5,666v-64.7h64.7V666H994.5z
			 M928.7,535.6v64.7h64.7v-64.7H928.7z M994.5,535.6v64.7h64.7v-64.7H994.5z M928.7,534.5v-64.7h64.7v64.7H928.7z M994.5,534.5
			v-64.7h64.7v64.7H994.5z"/>
		
			<linearGradient id="SVGID_4_" gradientUnits="userSpaceOnUse" x1="835.671" y1="404.3326" x2="1067.9611" y2="634.1456" gradientTransform="matrix(1 0 0 -1 0 800)">
			<stop  offset="0.25" style="stop-color:#0066FF;stop-opacity:0"/>
			<stop  offset="0.5" style="stop-color:#0066FF"/>
			<stop  offset="1" style="stop-color:#0066FF;stop-opacity:0"/>
		</linearGradient>
		<path class="st2" d="M862.9,396v-24.7h64.7V396h1.1v-24.7h64.7V396h1.1v-24.7h64.7V396h1.1v-24.7h23.8v-1.1h-23.8v-64.7h23.8v-1.1
			h-23.8v-64.7h23.8v-1.1h-23.8V174h23.8v-1.1h-23.8V148h-1.1v24.8h-64.7V148h-1.1v24.8h-64.7V148h-1.1v24.8h-64.7V148h-1.1v24.8
			H836v1.1h25.8v64.7H836v1.1h25.8v64.7H836v1.1h25.8v64.7H836v1.1h25.8V396H862.9z M862.9,305.5v64.7h64.7v-64.7H862.9z
			 M862.9,304.4v-64.7h64.7v64.7H862.9z M862.9,174v64.7h64.7V174H862.9z M928.7,174v64.7h64.7V174H928.7z M994.5,174v64.7h64.7V174
			H994.5z M928.7,304.4v-64.7h64.7v64.7H928.7z M994.5,304.4v-64.7h64.7v64.7H994.5z M928.7,305.5v64.7h64.7v-64.7H928.7z
			 M994.5,305.5v64.7h64.7v-64.7H994.5z"/>
		
			<linearGradient id="SVGID_5_" gradientUnits="userSpaceOnUse" x1="444.3285" y1="404.3321" x2="212.0355" y2="634.145" gradientTransform="matrix(1 0 0 -1 0 800)">
			<stop  offset="0.25" style="stop-color:#0066FF;stop-opacity:0"/>
			<stop  offset="0.75" style="stop-color:#0066FF"/>
			<stop  offset="0.95" style="stop-color:#0066FF;stop-opacity:0"/>
		</linearGradient>
		<path class="st3" d="M417.1,396v-24.7h-64.7V396h-1.1v-24.7h-64.7V396h-1.1v-24.7h-64.7V396h-1.1v-24.7H196v-1.1h23.8v-64.7H196
			v-1.1h23.8v-64.7H196v-1.1h23.8V174H196v-1.1h23.8V148h1.1v24.8h64.7V148h1.1v24.8h64.7V148h1.1v24.8h64.7V148h1.1v24.8H444v1.1
			h-25.8v64.7H444v1.1h-25.8v64.7H444v1.1h-25.8v64.7H444v1.1h-25.8V396H417.1z M417.1,305.5v64.7h-64.7v-64.7H417.1z M417.1,304.4
			v-64.7h-64.7v64.7H417.1z M417.1,174v64.7h-64.7V174H417.1z M351.3,174v64.7h-64.7V174H351.3z M285.5,174v64.7h-64.7V174H285.5z
			 M351.3,304.4v-64.7h-64.7v64.7H351.3z M285.5,304.4v-64.7h-64.7v64.7H285.5z M351.3,305.5v64.7h-64.7v-64.7H351.3z M285.5,305.5
			v64.7h-64.7v-64.7H285.5z"/>
		
			<linearGradient id="SVGID_6_" gradientUnits="userSpaceOnUse" x1="444.3285" y1="355.6679" x2="212.0355" y2="125.855" gradientTransform="matrix(1 0 0 -1 0 800)">
			<stop  offset="0.25" style="stop-color:#0066FF;stop-opacity:0"/>
			<stop  offset="0.75" style="stop-color:#0066FF"/>
			<stop  offset="0.95" style="stop-color:#0066FF;stop-opacity:0"/>
		</linearGradient>
		<path class="st4" d="M417.1,444v24.7h-64.7V444h-1.1v24.7h-64.7V444h-1.1v24.7h-64.7V444h-1.1v24.7H196v1.1h23.8v64.7H196v1.1
			h23.8v64.7H196v1.1h23.8V666H196v1.1h23.8V692h1.1v-24.8h64.7V692h1.1v-24.8h64.7V692h1.1v-24.8h64.7V692h1.1v-24.8H444V666h-25.8
			v-64.7H444v-1.1h-25.8v-64.7H444v-1.1h-25.8v-64.7H444v-1.1h-25.8V444H417.1z M417.1,534.5v-64.7h-64.7v64.7H417.1z M417.1,535.6
			v64.7h-64.7v-64.7H417.1z M417.1,666v-64.7h-64.7V666H417.1z M351.3,666v-64.7h-64.7V666H351.3z M285.5,666v-64.7h-64.7V666H285.5
			z M351.3,535.6v64.7h-64.7v-64.7H351.3z M285.5,535.6v64.7h-64.7v-64.7H285.5z M351.3,534.5v-64.7h-64.7v64.7H351.3z M285.5,534.5
			v-64.7h-64.7v64.7H285.5z"/>
		<g>
			<defs>
				<rect id="SVGID_7_" x="428" y="168" width="425" height="344"/>
			</defs>
			<clipPath id="SVGID_8_">
				<use xlink:href="#SVGID_7_"  style="overflow:visible;"/>
			</clipPath>
			<g class="st5">
				<path class="st6" d="M838.2,385.3c-5.6,15.4-53.7,18.4-79.8,18.8H531.2c-33.2,0-66.5-0.3-72.2-10c-0.7-1.1-0.9-2.4-0.8-3.7
					c1-12.4,15.5-17.5,17.7-18.2c0.2-0.1,0.3-0.1,0.3-0.1h0c38-11.1,94.7-13.8,88.4-26.3c-9.2-18.3-119.8,13.1-133.2-7.2
					c0,0-16-17.7,29.8-36.4c15.2-6.2,57.1-20.7,106.4-37.4h0c8.6-2.9,13.1-5.4,11-8.3c-1.5-2-7.1-1.6-10.4-1.2
					c-0.8,0.1-1.6,0.3-2.3,0.4c-39.4,6.6-99,21.3-99,13.9c0-0.5,0.3-1.1,0.8-1.7c0.1-0.1,0.2-0.2,0.3-0.3h0
					c1.2-1.1,9.9-6.4,69.2-25.8c0.5-0.2,1.1-0.4,1.6-0.5l3.3-1.1l5-1.7l3.4-1.1l3.4-1.1c1.7-0.6,3.5-1.1,5.2-1.7l5.3-1.7l3.5-1.2
					c2.4-0.8,4.7-1.6,7.1-2.3l3.6-1.2c32.2-10.5,65.3-21.4,89.6-29.4c0.9-0.3,1.8-0.6,2.7-0.9c2.2-0.7,4.4-1.4,6.4-2.1l2.3-0.8
					c0.4-0.1,0.8-0.3,1.2-0.4l3.4-1.1c0.4-0.1,0.7-0.2,1.1-0.4c0.5-0.2,1.1-0.3,1.6-0.5l1.5-0.5c0.5-0.2,1-0.3,1.5-0.5l1.4-0.5
					l0.9-0.3c8.7-2.8,13.7-4.5,13.7-4.5s0,0,0.2,0c0,0,0,0,0.1,0l0.1,0l17.5-5.7c0,0,0,0,0,0c22.1-7,56.8-16.9,56.1-10.5
					c-0.5,3.9-10.9,10-24.9,16.9c-14.1,6.9-31.9,14.6-47.3,21.5c-0.4,0.2-0.8,0.3-1.1,0.5c-2.7,1.3-9.4,4.7-9.2,7.9
					c0.1,1.8,1.2,2.6,3.1,2.6c2.3,0,5.7-1,10.2-2.5c48.9-16.2,85.2-28,85.2-28s3.5-1.2,8.6-2.4c0,0,31.4-8.6,42.9,3.7
					c11.5,12.3-0.6,28.5-12.9,39l0,0c-7.5,6.6-17.6,13.6-30.7,20.9c-76,42.1-66.2,44.7-21.5,26.8c44.6-17.9,57.6,19.4,17.8,38.3
					c-33.5,15.9-28.4,31.6,1.8,36.2h0C818.3,354.7,846,364,838.2,385.3L838.2,385.3z"/>
				<path class="st7" d="M824.2,385.3H477.9v108.5h346.4V385.3z"/>
				<path class="st8" d="M603,493.8h-43.8l-41.8-108.5h43.8L603,493.8z"/>
				<path class="st8" d="M551,493.8h-18.4l-41.8-108.5h18.4L551,493.8z"/>
				<path class="st9" d="M483.9,385.3h-6.1v108.5h6.1V385.3z"/>
				<path class="st9" d="M818.2,493.8H483.9v6.1h334.3V493.8z"/>
				<path class="st9" d="M818.2,379.2H483.9v6.1h334.3V379.2z"/>
				<path class="st9" d="M824.2,385.3h-6.1v108.5h6.1V385.3z"/>
				<path class="st10" d="M588.9,434.4h-39.4c-1.6,0-2.9-1.3-2.9-2.9V407c0-1.6-1.3-2.9-2.9-2.9h-9.5c-1.6,0-2.9,1.3-2.9,2.9v24.7
					c0,1.6,1.3,2.9,2.9,2.9h9.3c1.6,0,2.9,1.3,2.9,2.9v9.3c0,1.6,1.3,2.9,2.9,2.9h39.6c1.6,0,2.9,1.3,2.9,2.9v24.5
					c0,1.6,1.3,2.9,2.9,2.9h9.5c1.6,0,2.9-1.3,2.9-2.9v-24.7c0-1.6-1.3-2.9-2.9-2.9h-9.3c-1.6,0-2.9-1.3-2.9-2.9v-9
					c0-1.6,1.3-2.9,2.9-2.9h9.3c1.6,0,2.9-1.3,2.9-2.9V407c0-1.6-1.3-2.9-2.9-2.9h-9.5c-1.6,0-2.9,1.3-2.9,2.9v24.5
					C591.9,433.1,590.6,434.4,588.9,434.4z"/>
				<path class="st10" d="M770.9,431.7V407c0-1.6-1.3-2.9-2.9-2.9h-9.5c-1.6,0-2.9,1.3-2.9,2.9v24.5c0,1.6-1.3,2.9-2.9,2.9h-39.4
					c-1.6,0-2.9-1.3-2.9-2.9V407c0-1.6-1.3-2.9-2.9-2.9h-9.5c-1.6,0-2.9,1.3-2.9,2.9v24.7c0,1.6,1.3,2.9,2.9,2.9h9.3
					c1.6,0,2.9,1.3,2.9,2.9v9.3c0,1.6,1.3,2.9,2.9,2.9h39.6c1.6,0,2.9,1.3,2.9,2.9v24.5c0,1.6,1.3,2.9,2.9,2.9h9.5
					c1.6,0,2.9-1.3,2.9-2.9v-24.7c0-1.6-1.3-2.9-2.9-2.9h-9.3c-1.6,0-2.9-1.3-2.9-2.9v-9c0-1.6,1.3-2.9,2.9-2.9h9.3
					C769.6,434.7,770.9,433.3,770.9,431.7z"/>
				<path class="st10" d="M671,404.1h-39.9c-1.6,0-2.9,1.3-2.9,2.9v9.3c0,1.6-1.3,2.9-2.9,2.9H616c-1.6,0-2.9,1.3-2.9,2.9V462
					c0,1.6,1.3,2.9,2.9,2.9h9.3c1.6,0,2.9,1.3,2.9,2.9v9.3c0,1.6,1.3,2.9,2.9,2.9H671c1.6,0,2.9-1.3,2.9-2.9v-9.3
					c0-1.6,1.3-2.9,2.9-2.9h9.3c1.6,0,2.9-1.3,2.9-2.9v-39.9c0-1.6-1.3-2.9-2.9-2.9h-9.3c-1.6,0-2.9-1.3-2.9-2.9V407
					C673.9,405.4,672.6,404.1,671,404.1z M628.4,461.8v-39.4c0-1.6,1.3-2.9,2.9-2.9h39.4c1.6,0,2.9,1.3,2.9,2.9v39.4
					c0,1.6-1.3,2.9-2.9,2.9h-39.4C629.7,464.7,628.4,463.4,628.4,461.8z"/>
				<path class="st9" d="M508.5,358.6c0,0.3,0,0.6,0,0.9c0,0.3,0,0.7,0,1c0,0.2,0,0.4,0,0.6c0,0.2,0,0.3,0,0.5c0,0.3,0,0.5,0.1,0.8
					c0,0.4,0.1,0.8,0.2,1.1c0,0.2,0.1,0.4,0.1,0.6c0,0.2,0.1,0.5,0.1,0.7c0,0.2,0.1,0.4,0.1,0.6c0.2,0.8,0.4,1.6,0.6,2.3
					c0.1,0.3,0.2,0.6,0.3,0.8c0.1,0.3,0.2,0.6,0.3,0.9c0.1,0.3,0.2,0.6,0.3,0.8c0.1,0.3,0.2,0.6,0.4,0.8c0.1,0.2,0.2,0.5,0.3,0.7
					c0,0.1,0.1,0.1,0.1,0.2c0.1,0.2,0.2,0.5,0.4,0.7c0.2,0.4,0.4,0.7,0.6,1.1c0.2,0.3,0.4,0.7,0.6,1c0.2,0.4,0.5,0.8,0.7,1.1
					c0.2,0.3,0.4,0.6,0.7,1c0.2,0.3,0.5,0.7,0.7,1c0.2,0.3,0.4,0.6,0.7,0.9c0,0.1,0.1,0.1,0.2,0.2c0.2,0.2,0.4,0.5,0.6,0.7
					c0.1,0.1,0.1,0.2,0.2,0.2c0.2,0.3,0.5,0.5,0.7,0.8c0,0,0,0,0,0c0.1,0.1,0.1,0.2,0.2,0.2c0.9,0.9,1.8,1.8,2.8,2.5
					c0.2,0.1,0.3,0.2,0.5,0.4c0.2,0.2,0.5,0.4,0.7,0.5c0.2,0.1,0.4,0.3,0.6,0.4c0.5,0.3,1,0.7,1.5,1h0c0,0,0,0,0.1,0
					c0.3,0.1,0.5,0.3,0.8,0.4c1,0.5,2,1,3,1.5c0.2,0.1,0.4,0.2,0.6,0.2c0.6,0.2,1.1,0.4,1.7,0.6c0.4,0.1,0.7,0.2,1.1,0.3
					c0.4,0.1,0.7,0.2,1.1,0.3c0,0,0,0,0,0c0,0,0,0,0,0c0.2,0.1,0.5,0.1,0.7,0.2c0.1,0,0.2,0,0.3,0.1c0.8,0.2,1.6,0.3,2.5,0.4
					c0.6,0.1,1.2,0.2,1.9,0.2c0.3,0,0.6,0,0.9,0.1c0.3,0,0.6,0,0.9,0h0.2c0.2,0,0.5,0,0.7,0h126.2l5.3-13.6l1.3-3.4l0,0l1.5-3.9
					l3-7.5l8.9-22.7l0-0.1l5.3-13.5v0l6.2-15.7c0,0,0.1,0,0.1-0.1h-0.1l4.7-12.1l7.6-20.1l7.1-18.9c0.8-2.2,1.9-4.3,2.9-6.4
					c-0.9,1.8-2.1,3.4-3.5,4.8l0,0c-3.5,3.4-8.2,5.6-13.5,5.6l-75.1-0.1h-0.2c0,0,0,0-0.1,0c0,0-0.1,0-0.1,0c-0.1,0-0.2,0-0.4,0
					h-0.1c-0.1,0-0.1,0-0.2,0c-1.6-0.1-4.9-0.4-7.1-1.6c-2.4-1.3-4.6-2.6-6.1-4.2c-0.1-0.1-0.1-0.1-0.2-0.2c-0.3-0.3-0.6-0.7-0.8-1
					l-2.5-4c-0.2-0.4-0.4-0.7-0.6-1.1c0,0,0,0,0,0c-3.9-6.2-10.6-10.7-18.6-11.2c-0.2,0-0.3,0-0.5,0c-0.2,0-0.4,0-0.6,0
					c-0.1,0-0.3,0-0.4,0h-10.4c-0.4,0-0.7,0-1.1,0s-0.7,0-1.1,0c-0.3,0-0.6,0-0.8,0.1c-0.1,0-0.3,0-0.4,0c-0.1,0-0.3,0-0.4,0
					c-0.3,0-0.6,0-0.8,0.1c-1.4,0.2-2.8,0.4-4.2,0.7c0,0,0,0,0,0c-0.8,0.2-1.7,0.4-2.5,0.6c-0.6,0.2-1.3,0.4-1.9,0.6
					c-11.1,3.9-20.3,12.5-24.6,24l-9.6,25.5l-0.1,0.2l-1.4,3.8v0c0,0,0,0,0,0.1l-11.4,30.4l-1.3,3.3h0l-0.1,0.2h0l-2.6,6.9l-0.1,0.2
					l-4.2,11.3c0,0.1-0.1,0.2-0.1,0.3c-0.1,0.2-0.2,0.5-0.3,0.7c-0.3,0.9-0.5,1.7-0.8,2.6c0,0,0,0.1,0,0.2c-0.1,0.3-0.2,0.7-0.2,1
					c0,0.1,0,0.2,0,0.3c-0.1,0.3-0.1,0.6-0.2,0.9c0,0.1,0,0.2,0,0.3c0,0.3-0.1,0.5-0.1,0.8c-0.1,0.6-0.1,1.2-0.2,1.7
					c0,0.3,0,0.6-0.1,0.9c0,0.2,0,0.4,0,0.5C508.5,358,508.5,358.3,508.5,358.6L508.5,358.6z"/>
				<path class="st11" d="M565.6,325.5h49.7l-11.5-30.3C603.8,295.2,617.9,325.5,565.6,325.5z"/>
				<path class="st12" d="M536.2,318.2c1.7,1.8,3.8,3.4,6.1,4.6l27.3-71.1c2.8-7.3,10-12.3,17.8-12.3h3.7v-0.1c-0.2,0-0.3,0-0.5,0
					c-0.4,0-0.8,0-1.3,0h-10.3c-1.5,0-3.1,0.1-4.6,0.3c-1.4,0.2-2.8,0.4-4.2,0.7c0,0,0,0,0,0c-1.8,0.4-3.3,1.5-4.3,2.9
					c-1.3,1.8-2.4,3.8-3.2,5.9L536.2,318.2L536.2,318.2z"/>
				<path d="M666.5,390.5H540.2c-0.2,0-0.5,0-0.7,0c-2.5-0.1-4.9-0.4-7.2-1c-2.9-0.8-5.7-1.9-8.3-3.5c-2.2-1.4-4.3-3-6.2-4.9
					c0,0-0.1-0.1-0.2-0.1l-0.1-0.1c0,0,0,0,0,0c0,0,0,0,0,0c-2.3-2.3-4.2-5-5.6-7.9c-3.4-6.8-4.3-14.6-2.5-22
					c0.2-0.8,0.5-1.7,0.8-2.6l0-0.1c0.1-0.2,0.1-0.4,0.2-0.6l0.1-0.3l4.3-11.5c0,0,0,0,0,0l14.9-39.7c0,0,0,0,0,0l0.2-0.6
					c0,0,0,0,0,0l11.3-30.2c4.7-12.5,15.2-21.9,28.2-25.1c0,0,0,0,0.1,0h0c0.3-0.1,0.6-0.2,0.9-0.2c1.6-0.4,3.2-0.6,4.9-0.8h0.1
					c0.3,0,0.5,0,0.8-0.1c0.3,0,0.6,0,0.8-0.1c0.4,0,0.7,0,1.1,0c0.4,0,0.7,0,1.1,0h10.4c0.1,0,0.3,0,0.4,0c0.2,0,0.5,0,0.7,0
					c7.7,0.3,14.6,4.3,18.9,10.7c0,0,0,0,0,0c0.2,0.3,0.4,0.7,0.6,1c0,0,0,0,0.1,0.1c0.8,1.4,1.9,3.3,2.9,4.6
					c0.8,1.2,2.1,2.3,3.9,3.5l0.1,0c0.9,0.6,2,1.2,3.1,1.8c2.1,1.1,5.2,1.5,6.8,1.6h0.1c0,0,0.1,0,0.1,0h0.1c0.1,0,0.2,0,0.3,0h0.1
					c0,0,0.1,0,0.1,0h0.2l75.1,0.1c0.1,0,0.2,0.1,0.2,0.2c0,0.1-0.1,0.2-0.2,0.2l-75.3-0.1c0,0-0.1,0-0.1,0h-0.1c-0.1,0-0.2,0-0.3,0
					h-0.1h0c0,0-0.1,0-0.1,0h-0.1c-1.7-0.1-4.8-0.5-7-1.6c-1.1-0.6-2.2-1.2-3.1-1.8l-0.1,0c-1.8-1.2-3.2-2.4-4-3.6
					c-0.8-1.2-1.7-2.7-2.5-4c0,0,0,0-0.1-0.1c-0.3-0.5-0.6-1.1-1-1.6c0,0,0,0,0,0c-4.2-6.4-11-10.2-18.6-10.6c-0.2,0-0.5,0-0.7,0
					c-0.1,0-0.3,0-0.4,0h-10.4c-0.4,0-0.7,0-1.1,0c-0.4,0-0.7,0-1.1,0c-0.3,0-0.5,0-0.8,0.1c-0.3,0-0.5,0-0.8,0.1h-0.1
					c-1.6,0.2-3.3,0.4-4.9,0.8c-0.3,0.1-0.6,0.1-0.9,0.2l-0.1,0c0,0,0,0-0.1,0c-12.8,3.2-23.2,12.5-27.8,24.9l-11.3,30.2
					c0,0,0,0,0,0l-0.2,0.6c0,0,0,0,0,0l-14.9,39.7c0,0,0,0,0,0l-0.1,0.2l-4.3,11.5c-0.1,0.2-0.2,0.4-0.2,0.6l0,0.1
					c-0.3,0.9-0.5,1.7-0.7,2.5c-1.8,7.3-0.9,15,2.4,21.7c1.4,2.9,3.3,5.5,5.6,7.8c0,0,0,0,0,0c0,0,0,0,0,0l0.1,0.1
					c0,0,0.1,0.1,0.1,0.1c1.8,1.9,3.9,3.5,6.1,4.8c2.6,1.5,5.3,2.7,8.2,3.4c2.3,0.6,4.7,0.9,7.1,1c0.2,0,0.5,0,0.7,0h126.2l6.6-16.9
					c0,0,0,0,0,0l13.4-34.1c0,0,0,0,0,0l0-0.1l5.3-13.5c0,0,0,0,0-0.1l6.1-15.6c0,0,0,0,0,0c0.1-0.3,3.4-9.1,6.3-16.8
					c3.9-10.3,5.8-15.5,5.9-15.5c0.1-0.1,0.2,0,0.3,0c0,0.1,0,0.1,0,0.2c-0.1,0.3-3,8-5.8,15.4c-5.2,13.9-6.2,16.4-6.4,16.8h0
					l-6.2,15.7c0,0,0,0,0,0.1l-5.3,13.5c0,0,0,0,0,0.1l-13.4,34.1c0,0,0,0,0,0l-1.3,3.4l-5.4,13.6
					C666.7,390.5,666.6,390.5,666.5,390.5L666.5,390.5z"/>
				<path class="st9" d="M508.7,363.2c0.3,2,0.8,3.9,1.4,5.8c0.8,2.4,2,4.7,3.4,6.9c5.4,8.4,14.7,14.2,25.8,14.5c0.3,0,0.6,0,0.8,0
					h126.7l5.3-13.6l0.3-0.9l0.9-2.4l1.6-4.1l0.3-0.9l16.7-42.9l-85.7,0l-33.7,0h-19.1c-4.2,0-7.9-1-11.2-2.7l-2.2,5.8l-6.9-2.6
					l3-7.8c-6-6.2-8.5-15.5-5.7-24.1l-11.8,31.4l-6.5,17.3l-1.8,4.7c0,0.1-0.1,0.2-0.1,0.3c-0.1,0.2-0.2,0.5-0.3,0.7
					C508.4,353.4,508,358.4,508.7,363.2L508.7,363.2z"/>
				<path class="st13" d="M525.5,368.5c3.5,5.1,9.3,8.2,15.5,8.2h131.1l0.3-0.9l0.9-2.4l1.6-4.1h-134c-3.8,0-7.3-1.8-9.5-5
					c-2.2-3.2-2.6-7.1-1.2-10.6l11.9-30.9c-2.3-1.2-4.4-2.8-6.1-4.6l-12.7,32.8C521.2,356.9,522,363.4,525.5,368.5z"/>
				<path d="M666.9,390.5H540.2c-0.3,0-0.6,0-0.9,0c-10.2-0.3-19.4-5.2-25.3-13.6c-5.9-8.4-7.4-18.8-4.1-28.5l0-0.1
					c0.1-0.2,0.1-0.4,0.2-0.6l0.1-0.3l20-53.4c0-0.1,0.2-0.2,0.3-0.1c0.1,0,0.2,0.1,0.1,0.3c-2.3,7.2-0.9,15.2,3.6,21.4
					c4.5,6.2,11.5,9.7,19.2,9.7l138.5,0c0.1,0,0.1,0,0.2,0.1c0,0.1,0,0.1,0,0.2l-25.2,64.8C667,390.5,667,390.5,666.9,390.5
					L666.9,390.5z M529.6,297.3l-18.9,50.5c-0.1,0.2-0.1,0.4-0.2,0.6l0,0.1c-3.2,9.6-1.8,19.8,4,28.1c5.8,8.3,14.9,13.2,25,13.5
					c0.3,0,0.6,0,0.8,0h126.5l25-64.4l-138.1,0c-7.9,0-15-3.6-19.6-9.9C530.1,310.4,528.5,303.7,529.6,297.3z"/>
				<path class="st9" d="M586.8,252c0,0,0,0.1,0,0.2C586.8,252.1,586.8,252,586.8,252c-0.3-0.5-0.6-1-0.9-1.4
					c-0.2-0.3-0.3-0.5-0.5-0.8H579l-4.1-3.3v-5.9c-0.1-0.1-0.3-0.1-0.4-0.2h-4.9l-2.6-2.1c1.7,0.2,3.3,0.5,4.8,1.1
					c0.2,0.1,0.5,0.1,0.7,0.2c0.7,0.2,1.3,0.5,2,0.8c0.1,0.1,0.3,0.1,0.4,0.2c1.8,0.9,3.6,1.9,5.2,3.2c1,0.8,2,1.7,2.9,2.7
					c0.9,1,1.8,2.1,2.5,3.3C586,250.5,586.4,251.2,586.8,252z"/>
				<path class="st9" d="M798.8,358.6c0,0.3,0,0.6,0,0.9c0,0.3,0,0.7,0,1c0,0.2,0,0.4,0,0.6c0,0.2,0,0.3,0,0.5c0,0.3,0,0.5-0.1,0.8
					c0,0.4-0.1,0.8-0.2,1.1c0,0.2-0.1,0.4-0.1,0.6c0,0.2-0.1,0.5-0.1,0.7c0,0.2-0.1,0.4-0.1,0.6c-0.2,0.8-0.4,1.6-0.6,2.3
					c-0.1,0.3-0.2,0.6-0.3,0.8c-0.1,0.3-0.2,0.6-0.3,0.9s-0.2,0.6-0.3,0.8c-0.1,0.3-0.2,0.6-0.4,0.8c-0.1,0.2-0.2,0.5-0.3,0.7
					c0,0.1-0.1,0.1-0.1,0.2c-0.1,0.2-0.2,0.5-0.4,0.7c-0.2,0.4-0.4,0.7-0.6,1.1c-0.2,0.3-0.4,0.7-0.6,1c-0.2,0.4-0.5,0.8-0.7,1.1
					c-0.2,0.3-0.4,0.6-0.7,1c-0.2,0.3-0.5,0.7-0.7,1c-0.2,0.3-0.5,0.6-0.7,0.9c-0.1,0.1-0.1,0.1-0.2,0.2c-0.2,0.2-0.4,0.5-0.6,0.7
					c-0.1,0.1-0.1,0.2-0.2,0.2c-0.2,0.3-0.5,0.5-0.7,0.8c0,0,0,0,0,0c-0.1,0.1-0.1,0.2-0.2,0.2c-0.9,0.9-1.8,1.8-2.8,2.5
					c-0.2,0.1-0.3,0.2-0.5,0.4c-0.2,0.2-0.5,0.4-0.7,0.5c-0.2,0.1-0.4,0.3-0.6,0.4c-0.5,0.3-1,0.7-1.5,1h0c0,0,0,0-0.1,0
					c-0.3,0.1-0.5,0.3-0.8,0.4c-1,0.5-2,1-3,1.5c-0.2,0.1-0.4,0.2-0.6,0.2c-0.6,0.2-1.1,0.4-1.7,0.6c-0.4,0.1-0.7,0.2-1.1,0.3
					c-0.4,0.1-0.7,0.2-1.1,0.3c0,0,0,0,0,0c0,0,0,0,0,0c-0.2,0.1-0.5,0.1-0.7,0.2c-0.1,0-0.2,0-0.3,0.1c-0.8,0.2-1.6,0.3-2.5,0.4
					c-0.6,0.1-1.2,0.2-1.9,0.2c-0.3,0-0.6,0-0.9,0.1c-0.3,0-0.6,0-0.9,0h-0.2c-0.2,0-0.5,0-0.7,0H640.9l-5.3-13.6l-1.3-3.4l0,0
					l-1.5-3.9l-3-7.5l-8.9-22.7l0-0.1l-5.3-13.5v0l-6.2-15.7c0,0-0.1,0-0.1-0.1h0.1l-4.7-12.1l-7.6-20.1l-7.1-18.9
					c-0.8-2.2-1.9-4.3-2.9-6.4c0.9,1.8,2.1,3.4,3.5,4.8l0,0c3.5,3.4,8.2,5.6,13.5,5.6l75.1-0.1h0.2c0,0,0.1,0,0.1,0
					c0.1,0,0.2,0,0.4,0h0.1c0.1,0,0.1,0,0.2,0c1.6-0.1,4.9-0.4,7.1-1.6c2.4-1.3,4.6-2.6,6.1-4.2c0.1-0.1,0.1-0.1,0.2-0.2
					c0.3-0.3,0.6-0.7,0.8-1l2.5-4c0.2-0.4,0.4-0.7,0.6-1.1c0,0,0,0,0,0c3.9-6.2,10.6-10.7,18.6-11.2c0.2,0,0.3,0,0.5,0
					c0.2,0,0.4,0,0.6,0c0.1,0,0.3,0,0.4,0h10.4c0.4,0,0.7,0,1.1,0c0.4,0,0.7,0,1.1,0c0.3,0,0.6,0,0.8,0.1c0.1,0,0.3,0,0.4,0
					c0.1,0,0.3,0,0.4,0c0.3,0,0.6,0,0.8,0.1c1.4,0.2,2.8,0.4,4.2,0.7c0,0,0,0,0,0c0.9,0.2,1.7,0.4,2.5,0.6c0.6,0.2,1.3,0.4,1.9,0.6
					c11.1,3.9,20.3,12.5,24.6,24l9.6,25.5l0.1,0.2l1.4,3.8v0c0,0,0,0,0,0.1l11.4,30.4l1.3,3.3h0l0.1,0.2h0l2.6,6.9l0.1,0.2l4.2,11.3
					c0,0.1,0.1,0.2,0.1,0.3c0.1,0.2,0.2,0.5,0.3,0.7c0.3,0.9,0.5,1.7,0.8,2.6c0,0,0,0.1,0,0.2c0.1,0.3,0.2,0.7,0.2,1
					c0,0.1,0,0.2,0,0.3c0.1,0.3,0.1,0.6,0.2,0.9c0,0.1,0,0.2,0,0.3c0,0.3,0.1,0.5,0.1,0.8c0.1,0.6,0.1,1.2,0.2,1.7
					c0,0.3,0,0.6,0.1,0.9c0,0.2,0,0.4,0,0.5C798.8,358,798.8,358.3,798.8,358.6L798.8,358.6z"/>
				<path class="st12" d="M771.1,318.2c-1.7,1.8-3.8,3.4-6.1,4.6l-27.3-71.1c-2.8-7.3-10-12.3-17.8-12.3h-3.7v-0.1
					c0.2,0,0.3,0,0.5,0c0.4,0,0.8,0,1.3,0h10.3c1.5,0,3.1,0.1,4.6,0.3c1.4,0.2,2.8,0.4,4.2,0.7c0,0,0,0,0,0c1.8,0.4,3.3,1.5,4.3,2.9
					c1.3,1.8,2.4,3.8,3.2,5.9L771.1,318.2L771.1,318.2z"/>
				<path class="st9" d="M710.6,250.1c0,0-0.2,0.3-0.5,0.8C710.5,250.5,710.6,250.1,710.6,250.1z"/>
				<path d="M767.1,390.5H640.7c-0.1,0-0.2,0-0.2-0.1l-20.1-51.2c0,0,0,0,0,0l0-0.1l-5.3-13.4c0,0,0,0,0,0c0,0,0,0,0,0l-6.2-15.7h0
					c-0.3-0.6-1.8-4.6-12-31.4c-5.3-13.9-10.8-28.3-10.9-28.7c0-0.1,0-0.1,0-0.2c0.1-0.1,0.2-0.1,0.3,0c0,0,3.7,9.6,11,28.8
					c5.8,15.3,11.8,31,12,31.4c0,0,0,0,0,0l6.1,15.6c0,0,0,0,0,0l5.3,13.5c0,0,0,0,0,0l20.1,51.1h126.2c0.2,0,0.5,0,0.7,0
					c2.4-0.1,4.8-0.4,7.2-1c2.9-0.7,5.7-1.9,8.2-3.4c2.2-1.3,4.3-2.9,6.1-4.8c0.1,0,0.1-0.1,0.1-0.1l0.1-0.1c0,0,0,0,0,0
					c2.3-2.3,4.2-5,5.6-7.9c3.4-6.7,4.3-14.4,2.4-21.7c-0.2-0.8-0.4-1.6-0.8-2.5l0-0.1c-0.1-0.2-0.1-0.4-0.2-0.6l-0.1-0.3l-4.3-11.4
					c0,0,0,0,0,0l-14.9-39.7c0,0,0,0,0,0l-0.2-0.6c0,0,0,0,0,0l-11.3-30.2c-4.6-12.4-15.1-21.7-27.9-24.9c-0.4-0.1-0.7-0.2-1-0.2
					c-1.6-0.4-3.2-0.6-4.9-0.8h-0.1c-0.3,0-0.5,0-0.8-0.1c-0.3,0-0.6,0-0.8-0.1c-0.4,0-0.7,0-1.1,0c-0.4,0-0.7,0-1.1,0h-10.4
					c-0.1,0-0.3,0-0.4,0c-0.3,0-0.5,0-0.7,0c-7.6,0.3-14.4,4.2-18.6,10.6c0,0,0,0,0,0c-0.4,0.5-0.7,1.1-1,1.6c0,0,0,0.1-0.1,0.1
					c-0.7,1.3-1.7,2.8-2.5,4c-0.9,1.2-2.2,2.4-4,3.6l-0.1,0c-0.9,0.6-2,1.2-3.1,1.8c-2.2,1.2-5.3,1.5-7,1.6H680c0,0-0.1,0-0.1,0
					c0,0-0.1,0-0.1,0h-0.1c-0.1,0-0.2,0-0.3,0h-0.1c0,0,0,0-0.1,0H679l-75.1,0.1c-0.1,0-0.2-0.1-0.2-0.2c0-0.1,0.1-0.2,0.2-0.2
					l75.3-0.1c0,0,0,0,0.1,0h0.1c0.1,0,0.2,0,0.3,0h0.1h0c0,0,0.1,0,0.1,0h0.1c1.7-0.1,4.7-0.4,6.8-1.6c1.1-0.6,2.2-1.2,3.1-1.8
					l0.1,0c1.8-1.2,3.1-2.3,3.9-3.5c0.9-1.3,2.1-3.3,2.9-4.6c0,0,0,0,0.1-0.1c0.2-0.3,0.4-0.7,0.6-1c0,0,0,0,0,0
					c4.3-6.5,11.2-10.4,18.9-10.7c0.2,0,0.5,0,0.7,0c0.1,0,0.3,0,0.4,0h10.4c0.4,0,0.7,0,1.1,0c0.4,0,0.7,0,1.1,0
					c0.3,0,0.6,0,0.8,0.1c0.3,0,0.5,0,0.8,0.1h0.1c1.7,0.2,3.3,0.4,4.9,0.8c0.3,0.1,0.6,0.2,1,0.2c13,3.2,23.5,12.6,28.2,25.1
					l11.3,30.2c0,0,0,0,0,0l0.2,0.6c0,0,0,0,0,0l14.9,39.7c0,0,0,0,0,0l0.1,0.2l4.3,11.5c0.1,0.2,0.2,0.4,0.2,0.6l0,0.1
					c0.3,0.9,0.6,1.8,0.8,2.6c1.8,7.4,1,15.2-2.5,22c-1.5,2.9-3.4,5.6-5.6,7.9c0,0,0,0,0,0l-0.1,0.1c0,0.1-0.1,0.1-0.2,0.2
					c-1.8,1.9-3.9,3.5-6.2,4.9c-2.6,1.6-5.4,2.7-8.3,3.5c-2.3,0.6-4.8,0.9-7.2,1C767.5,390.5,767.3,390.5,767.1,390.5L767.1,390.5z"
					/>
				<path class="st12" d="M585.2,249.4c0.1,0.1,0.2,0.2,0.2,0.3H579l-4.1-3.3v-2.8h4.9c0.1,0.1,0.1,0.1,0.2,0.2
					c0.9,0.7,1.9,1.6,2.8,2.6C583.7,247.4,584.5,248.3,585.2,249.4z"/>
				<path class="st12" d="M586,250.6L586,250.6c-0.2-0.3-0.4-0.5-0.5-0.8C585.6,250,585.8,250.3,586,250.6z"/>
				<path class="st11" d="M634.6,325.5h82.2l-15.2-40.3C701.6,285.2,704.2,325.5,634.6,325.5z"/>
				<path d="M574.5,240.6h-4.9c0,0-0.1,0-0.1,0l-2.6-2.1c-0.1-0.1-0.1-0.2-0.1-0.2c0-0.1,0.1-0.1,0.2-0.1c1.7,0.2,3.3,0.6,4.9,1.1
					c0.2,0.1,0.5,0.1,0.7,0.2c0.6,0.2,1.3,0.5,2,0.8c0.1,0,0.1,0.1,0.1,0.2C574.7,240.5,574.6,240.6,574.5,240.6L574.5,240.6z
					 M569.7,240.2h3.8c-0.3-0.1-0.7-0.3-1-0.4c-0.2-0.1-0.4-0.1-0.7-0.2c-1.3-0.4-2.7-0.7-4.1-0.9L569.7,240.2z"/>
				<path d="M585.5,250H579c0,0-0.1,0-0.1,0l-4.1-3.3c0,0-0.1-0.1-0.1-0.2v-5.9c0-0.1,0-0.1,0.1-0.2c0.1,0,0.1,0,0.2,0
					c1.8,0.9,3.6,2,5.2,3.3c1.1,0.8,2,1.8,2.9,2.7c0.8,0.9,1.6,1.9,2.3,2.9c0.1,0.1,0.2,0.2,0.2,0.3c0,0.1,0,0.1,0,0.2
					C585.6,249.9,585.5,250,585.5,250L585.5,250z M579.1,249.6h6c-0.7-1-1.5-2-2.3-2.9c-0.9-0.9-1.8-1.8-2.8-2.7
					c-1.5-1.2-3.1-2.2-4.8-3.1v5.5L579.1,249.6L579.1,249.6z"/>
				<path class="st11" d="M722.8,320.9c0.9,0,1.6-0.7,1.6-1.6c0-0.9-0.7-1.6-1.6-1.6c-0.9,0-1.6,0.7-1.6,1.6
					C721.2,320.2,721.9,320.9,722.8,320.9z"/>
				<path d="M722.8,321.1c-1,0-1.8-0.8-1.8-1.8s0.8-1.8,1.8-1.8c1,0,1.8,0.8,1.8,1.8S723.9,321.1,722.8,321.1z M722.8,317.9
					c-0.8,0-1.4,0.6-1.4,1.4c0,0.8,0.6,1.4,1.4,1.4c0.8,0,1.4-0.6,1.4-1.4C724.3,318.5,723.6,317.9,722.8,317.9z"/>
				<path class="st8" d="M652,313.5h-8.5l-19.1-50.8h8.5L652,313.5z"/>
				<path d="M652,313.7h-8.5c-0.1,0-0.2,0-0.2-0.1l-19.1-50.8c0-0.1,0-0.1,0-0.2c0-0.1,0.1-0.1,0.2-0.1h8.5c0.1,0,0.2,0,0.2,0.1
					l19.1,50.8c0,0.1,0,0.1,0,0.2C652.1,313.7,652.1,313.7,652,313.7z M643.6,313.3h8.1l-18.9-50.4h-8.1L643.6,313.3z"/>
				<path d="M650.1,308.7h-8.5c-0.1,0-0.2-0.1-0.2-0.2s0.1-0.2,0.2-0.2h8.5c0.1,0,0.2,0.1,0.2,0.2S650.2,308.7,650.1,308.7z"/>
				<path d="M645.6,313.7c-0.1,0-0.2,0-0.2-0.1l-1.9-4.9c0-0.1,0-0.2,0.1-0.3c0.1,0,0.2,0,0.3,0.1l1.9,4.9
					C645.8,313.5,645.8,313.6,645.6,313.7C645.6,313.7,645.6,313.7,645.6,313.7L645.6,313.7z"/>
				<path d="M647.7,313.7c-0.1,0-0.2,0-0.2-0.1l-1.8-4.9c0-0.1,0-0.2,0.1-0.3c0.1,0,0.2,0,0.3,0.1l1.8,4.9
					C647.9,313.5,647.9,313.6,647.7,313.7C647.7,313.7,647.7,313.7,647.7,313.7L647.7,313.7z"/>
				<path d="M649.8,313.7c-0.1,0-0.2,0-0.2-0.1l-1.8-4.9c0-0.1,0-0.2,0.1-0.3c0.1,0,0.2,0,0.3,0.1l1.8,4.9
					C650.1,313.5,650,313.6,649.8,313.7C649.9,313.7,649.9,313.7,649.8,313.7L649.8,313.7z"/>
				<path class="st8" d="M682.3,313.5h-8.6l-19.1-50.8h8.6L682.3,313.5z"/>
				<path class="st11" d="M682.3,313.7h-8.5c-0.1,0-0.2,0-0.2-0.1l-19.1-50.8c0-0.1,0-0.1,0-0.2c0-0.1,0.1-0.1,0.2-0.1h8.5
					c0.1,0,0.2,0,0.2,0.1l19.1,50.8c0,0.1,0,0.1,0,0.2C682.4,313.7,682.3,313.7,682.3,313.7z M673.8,313.3h8.1L663,262.9h-8.1
					L673.8,313.3z"/>
				<path class="st11" d="M680.4,308.7h-8.5c-0.1,0-0.2-0.1-0.2-0.2s0.1-0.2,0.2-0.2h8.5c0.1,0,0.2,0.1,0.2,0.2
					S680.5,308.7,680.4,308.7z"/>
				<path class="st11" d="M675.8,313.7c-0.1,0-0.2,0-0.2-0.1l-1.9-4.9c0-0.1,0-0.2,0.1-0.3c0.1,0,0.2,0,0.3,0.1l1.9,4.9
					C676.1,313.5,676,313.6,675.8,313.7C675.9,313.7,675.9,313.7,675.8,313.7L675.8,313.7z"/>
				<path class="st11" d="M678,313.7c-0.1,0-0.2,0-0.2-0.1l-1.8-4.9c0-0.1,0-0.2,0.1-0.3c0.1,0,0.2,0,0.3,0.1l1.8,4.9
					C678.2,313.5,678.1,313.6,678,313.7C678,313.7,678,313.7,678,313.7L678,313.7z"/>
				<path class="st11" d="M680.1,313.7c-0.1,0-0.2,0-0.2-0.1l-1.8-4.9c0-0.1,0-0.2,0.1-0.3c0.1,0,0.2,0,0.3,0.1l1.8,4.9
					C680.3,313.5,680.3,313.6,680.1,313.7C680.1,313.7,680.1,313.7,680.1,313.7L680.1,313.7z"/>
				<path class="st14" d="M691.5,313.5c2,0,3.7-1.6,3.7-3.7c0-2-1.6-3.7-3.7-3.7c-2,0-3.7,1.6-3.7,3.7
					C687.8,311.9,689.4,313.5,691.5,313.5z"/>
				<path d="M691.5,313.7c-2.1,0-3.9-1.7-3.9-3.9c0-2.1,1.7-3.9,3.9-3.9s3.9,1.7,3.9,3.9C695.4,312,693.6,313.7,691.5,313.7z
					 M691.5,306.3c-1.9,0-3.5,1.6-3.5,3.5c0,1.9,1.6,3.5,3.5,3.5s3.5-1.6,3.5-3.5C695,307.9,693.4,306.3,691.5,306.3z"/>
				<path class="st15" d="M703.9,313.5c2,0,3.7-1.6,3.7-3.7c0-2-1.7-3.7-3.7-3.7c-2,0-3.7,1.6-3.7,3.7
					C700.2,311.9,701.8,313.5,703.9,313.5z"/>
				<path d="M703.9,313.7c-2.1,0-3.9-1.7-3.9-3.9c0-2.1,1.7-3.9,3.9-3.9s3.9,1.7,3.9,3.9C707.7,312,706,313.7,703.9,313.7z
					 M703.9,306.3c-1.9,0-3.5,1.6-3.5,3.5c0,1.9,1.6,3.5,3.5,3.5c1.9,0,3.5-1.6,3.5-3.5C707.3,307.9,705.8,306.3,703.9,306.3z"/>
				<path class="st11" d="M680.1,262.6h-0.8C679.3,262.6,679.5,262.6,680.1,262.6z"/>
				<path d="M679.5,262.5c-0.1,0-0.2-0.1-0.2-0.2c0-0.1,0.1-0.2,0.2-0.2c0,0,4.9,0,7.9-1.6c2.5-1.3,5.5-3.1,7.1-5.3
					c0.1-0.1,0.2-0.1,0.3,0c0.1,0.1,0.1,0.2,0,0.3c-1.6,2.3-4.7,4.1-7.2,5.5C684.6,262.5,679.7,262.5,679.5,262.5L679.5,262.5z"/>
				<path d="M716.8,325.7c-0.1,0-0.2,0-0.2-0.1l-15.2-40.3c-0.7-1.6-6.6-15.8-7-22.9c-0.2-3.6,0.6-7.3,2.3-10.7
					c0-0.1,0.1-0.2,0.1-0.2l0,0c0-0.1,0.2-0.1,0.3-0.1c0.1,0,0.1,0.2,0.1,0.3l0,0c0,0.1-0.1,0.2-0.1,0.2c-1.6,3.3-2.4,6.9-2.3,10.5
					c0.3,7.1,6.3,21.2,6.9,22.8l15.2,40.3C717.1,325.5,717,325.7,716.8,325.7C716.9,325.7,716.8,325.7,716.8,325.7L716.8,325.7z"/>
				<path class="st16" d="M528.8,231.5l5,5.7c4.3,4.9-0.6,16.3-10.9,25.4c-10.4,9.1-22.3,12.5-26.6,7.5l-5-5.7c0.9,1,2,1.6,3.4,2
					c1.6,0.4,3.6,0.4,5.8,0c5.2-1,11.5-4.3,17.4-9.5c5.8-5.1,10-11,11.7-16c0.7-2.1,1-4,0.8-5.7
					C530.2,233.7,529.7,232.5,528.8,231.5L528.8,231.5z"/>
				<path class="st15" d="M528.8,231.5c0.9,1,1.4,2.2,1.5,3.7c0.2,1.7-0.1,3.6-0.8,5.7c-1.7,5-5.8,10.9-11.7,16
					c-5.9,5.1-12.2,8.4-17.4,9.5c-2.2,0.4-4.1,0.5-5.8,0c-1.4-0.3-2.6-1-3.4-2c-4.3-4.9,0.6-16.3,10.9-25.4
					C512.6,229.9,524.5,226.5,528.8,231.5L528.8,231.5z"/>
				<path d="M502.2,272.5c-2.6,0-4.7-0.7-6.1-2.3l-5-5.7l0.3-0.3c0.8,0.9,1.9,1.6,3.3,1.9c1.6,0.4,3.5,0.4,5.7,0
					c5.4-1.1,11.7-4.5,17.3-9.4c5.6-4.9,9.8-10.7,11.6-15.9c0.7-2.1,1-4,0.8-5.6c-0.2-1.4-0.6-2.6-1.5-3.6l0.3-0.3l5,5.7
					c2.1,2.5,2.2,6.5,0.1,11.4c-2.1,4.8-6,9.9-11,14.3C515.8,269,507.9,272.5,502.2,272.5z M492.9,265.9l3.5,4
					c4.2,4.8,16,1.4,26.3-7.6c5-4.4,8.9-9.4,10.9-14.2c2-4.7,2-8.6,0-10.9l-3.5-4c0.2,0.6,0.4,1.2,0.4,1.9c0.2,1.7-0.1,3.6-0.8,5.8
					c-1.8,5.3-6,11.1-11.7,16.1c-5.7,5-12,8.4-17.5,9.5c-2.2,0.4-4.2,0.5-5.9,0C494,266.4,493.4,266.2,492.9,265.9L492.9,265.9z"/>
				<path d="M497.3,266.9c-0.9,0-1.8-0.1-2.6-0.3c-1.5-0.4-2.7-1-3.6-2.1c-2.1-2.5-2.2-6.5-0.1-11.4c2.1-4.8,6-9.9,11-14.3
					c5-4.4,10.6-7.6,15.6-9.1c5.1-1.4,9.1-0.9,11.2,1.6c0.9,1,1.4,2.3,1.6,3.8c0.2,1.7-0.1,3.6-0.8,5.8c-1.8,5.3-6,11.1-11.7,16.1
					c-5.7,5-12,8.4-17.5,9.5C499.4,266.8,498.3,266.9,497.3,266.9L497.3,266.9z M522.9,229.4c-1.5,0-3.2,0.3-5,0.8
					c-5,1.4-10.5,4.6-15.5,9c-5,4.4-8.9,9.4-10.9,14.2c-2,4.7-2,8.6,0,10.9c0.8,0.9,1.9,1.6,3.3,1.9c1.6,0.4,3.5,0.4,5.7,0
					c5.4-1.1,11.7-4.5,17.3-9.4c5.6-4.9,9.8-10.7,11.6-15.9c0.7-2.1,1-4,0.8-5.6c-0.2-1.4-0.6-2.6-1.5-3.6
					C527.4,230.1,525.4,229.4,522.9,229.4L522.9,229.4z"/>
				<path d="M505.8,235.1c2.4,2.3,16.9,1.4,16.9,1.8s-14.4-0.4-16.8,1.8c-2.5,2.3-1.7,17.1-2.1,17.1c-0.4,0,0.4-14.9-2.2-17.2
					c-2.4-2.1-16.7-1.3-16.7-1.7s14.6,0.4,17-1.9c2.4-2.4,1.5-17,1.9-17S503.3,232.7,505.8,235.1z"/>
				<path class="st10" d="M615.2,325.5h-2.4c-6.1,0-10.3,6.1-8.1,11.8l17.7,45.7c1.7,4.4,6,7.3,10.7,7.3h7.2L615.2,325.5
					L615.2,325.5z"/>
				<path d="M640.4,390.5h-7.2c-4.9,0-9.1-2.9-10.9-7.4l-17.7-45.7c-1.1-2.7-0.7-5.8,0.9-8.2c1.7-2.4,4.4-3.9,7.3-3.9h2.4
					c0.1,0,0.2,0,0.2,0.1l25.2,64.8c0,0.1,0,0.1,0,0.2C640.5,390.5,640.5,390.5,640.4,390.5z M612.8,325.7c-2.8,0-5.4,1.3-7,3.7
					c-1.6,2.3-1.9,5.2-0.9,7.8l17.7,45.7c1.7,4.4,5.8,7.2,10.5,7.2h6.9l-25-64.4H612.8z"/>
				<path class="st14" d="M635.8,373.3L635.8,373.3c-2.8-0.1-6.3-0.1-10.2,0.3c-0.5,0-1,0.1-1.5,0.2c-0.9,0.1-1.7,0.2-2.6,0.3
					c0,0,0,0,0,0c-7.4,0.8-12.4,0.5-16-2.1l0,0l0,0l-17.4,4.3c-2,0.5-4,0.6-5.9,0.5c-2-0.1-3.9-0.6-5.7-1.4c-3-1.3-3.1-5.3-0.5-7
					c0.1-0.1,0.2-0.1,0.3-0.2c0,0,0,0,0.1,0c0.1,0,0.2-0.1,0.3-0.1l10.7-4.5l-0.1-0.1c0,0,0-0.1-0.1-0.1c-0.6-1.2-1-2.5-0.8-4
					c0,0,0-0.1,0-0.1c0,0,0,0,0,0v0c0-0.3,0.1-0.6,0.2-0.9l0,0c-1.3-1.7-2.6-3.8-1.7-5.6c0.2-0.4,0.6-0.9,1.2-1.5h0l0,0l-11.7-0.7
					c-4-0.2-7.9-1.7-11-4.3c-0.4-0.3-0.7-0.6-0.9-1c-1.2-1.9-0.5-4.4,1.3-5.5c0,0,0,0,0.1,0c0,0,0,0,0.1,0c0,0,0,0,0,0
					c0,0,0.1,0,0.1-0.1c0.4-0.2,0.9-0.4,1.4-0.4l27.8-2.9c1.7-0.2,3.5-0.3,5.2-0.3l-0.6-0.1c0,0-0.1,0-0.1,0c0,0,0,0-0.1,0h0
					c-0.7-1.1-1.3-2.2-1.7-3.1v0l0,0c-0.1-0.1-0.1-0.3-0.2-0.4c-1.5-3.9-0.6-6.3,1.2-7.5c0.1-0.1,0.2-0.1,0.2-0.2h0
					c0.1-0.1,0.3-0.2,0.5-0.3c2.5-1.4,5.3-0.6,10.4,4.6c1.6,1.6,3.5,3.3,5.5,4.9l0.1,0.1c0.1,0,0.1,0.1,0.2,0.1l0.1,0.1
					c1.1,0.9,2.2,1.7,3.2,2.5l0.5,0.4c1,0.8,2,1.5,2.8,2.1l1.8,0.5l0,0.1l7.7,19.6l5.5,14L635.8,373.3L635.8,373.3z"/>
				<path d="M620.5,339.3c-3.7-2.7-8.9-6.7-12.4-10.3c-5.7-5.8-8.3-5.9-10.9-4.2c-1.6,1.1-3.6,4,0.8,10.8l-0.3,0.2
					c-1.6-2.5-4.8-8.5-0.7-11.4c2.7-1.9,5.5-1.8,11.4,4.2c3.5,3.5,8.6,7.5,12.4,10.2L620.5,339.3L620.5,339.3z"/>
				<path class="st16" d="M595.8,332c0,0,2.3,2.2,8.1,2c5.8-0.2,8.8-1,8.8-1l7.2,5.7c0,0-9.8-2.4-12.7-2.4c-2.8,0-9.5-0.5-9.5-0.5
					L595.8,332z"/>
				<path class="st16" d="M593,361.2c-4.8,2-6.4-2.4-6.4-2.4s-0.7,2.2,0.8,4.7L593,361.2z"/>
				<path class="st16" d="M635.8,373.3C635.8,373.3,635.8,373.3,635.8,373.3L635.8,373.3c0,0-0.1,0-0.2,0c-0.1,0-0.1,0-0.2,0
					c-0.2,0-0.3,0-0.6,0c-0.3,0-0.6,0-1,0c-0.1,0-0.3,0-0.4,0c0,0,0,0,0,0c-1.7,0-4,0.1-6.4,0.2c-0.4,0-0.9,0.1-1.3,0.1
					c-1.4,0.1-2.8,0.3-4,0.5c0,0,0,0,0,0c0,0,7.5-6.3,8.7-14.8l5.5,14L635.8,373.3L635.8,373.3L635.8,373.3z"/>
				<path d="M615.3,374.7c-4,0-7.3-0.7-9.9-2.5l0.2-0.3c3.8,2.8,9.2,2.8,16.6,2c0.6-0.1,1.2-0.1,1.8-0.2c0.9-0.1,1.8-0.2,2.9-0.3
					c2.1-0.2,4.2-0.2,6.4-0.2c0,0,0.1,0,0.1,0c0,0,0,0,0,0c0,0,0,0,0,0h0.3c0.2,0,0.5,0,0.7,0l1.2,0c0.1,0,0.1,0,0.2,0
					c0,0,0.1,0,0.1,0c0,0,0.1,0,0.1,0.1l0,0l0,0l0,0.1c0,0.1,0,0.2-0.1,0.2c0,0-0.1,0-0.2,0c0,0-0.1,0-0.2,0l-1.2,0
					c-0.2,0-0.4,0-0.7,0h-0.3c0,0,0,0,0,0h0c0,0,0,0-0.1,0c-2.1,0-4.3,0-6.4,0.2c-1,0.1-2,0.2-2.8,0.3c-0.6,0.1-1.3,0.2-1.9,0.2
					C619.7,374.5,617.3,374.7,615.3,374.7L615.3,374.7z"/>
				<path d="M635.6,373.4l-13.3-33.6l-4.8-1.3c-3.3-0.9-6.8-1.6-10.3-2c-2.6-0.3-5.1-0.4-7.7-0.4c0,0,0,0-0.1,0
					c-2.1,0-4.2,0.1-6.2,0.3l-27.8,2.9c-0.5,0-0.9,0.2-1.3,0.3c-0.1,0-0.1,0-0.2,0.1c0,0,0,0,0,0c0,0-0.1,0-0.1,0
					c-0.9,0.5-1.6,1.5-1.8,2.5c-0.2,1,0,2.1,0.6,3c0.2,0.3,0.4,0.5,0.7,0.8c3.1,2.5,6.9,4,10.8,4.2l11.7,0.7l0,0.4l-11.7-0.7
					c-4-0.2-8-1.8-11.1-4.3c-0.3-0.2-0.6-0.5-0.8-0.8c-0.7-0.9-0.9-2.1-0.7-3.3c0.2-1.2,1-2.2,1.9-2.8l0.2,0.1l-0.1-0.2
					c0,0,0.1,0,0.1-0.1c0.1,0,0.1-0.1,0.2-0.1c0.4-0.2,0.9-0.3,1.4-0.4l27.8-2.9c2-0.2,4.1-0.3,6.2-0.3h0.1c2.6,0,5.1,0.1,7.7,0.4
					c0,0,0,0,0,0c3.5,0.4,7,1.1,10.3,2l4.9,1.4c0.1,0,0.1,0.1,0.1,0.1l13.3,33.7L635.6,373.4L635.6,373.4z"/>
				<path d="M583.6,377c-2.5,0-4.9-0.5-7.2-1.5c-1.5-0.6-2.5-2.1-2.5-3.8c0-1.8,1-3.3,2.7-4l25.9-10.8c1.4-0.6,2.8-1.1,4.2-1.6
					l0.1,0.4c-1.4,0.5-2.8,1-4.2,1.6l-25.9,10.8c-1.5,0.6-2.4,2-2.4,3.6c0,1.5,0.8,2.8,2.2,3.4c3.6,1.5,7.6,1.8,11.5,0.9l19.8-4.9
					l0.1,0.4l-19.8,4.9C586.7,376.8,585.1,377,583.6,377L583.6,377z"/>
				<path d="M587.2,363.5c-1-1.8-1.2-3.6-0.7-5.4c1.1-3.7,12.8-7.9,17.7-9.6l0.1,0.4c-3.8,1.3-16.4,5.7-17.5,9.3
					c-0.5,1.7-0.3,3.4,0.6,5L587.2,363.5z"/>
				<path d="M586.5,358.4c-1.9-2.3-2.5-4.3-1.8-5.8c1.6-3.4,15.7-11.2,16.3-11.6l0.2,0.4c-0.1,0.1-14.5,8-16.1,11.4
					c-0.8,1.7,0.5,3.9,1.7,5.4L586.5,358.4L586.5,358.4z"/>
				<path class="st14" d="M708.7,227.9c0-0.2,0-0.4,0-0.5c0-0.1,0-0.2,0-0.2v0c0,0,0-0.1,0-0.1c0-0.1,0-0.2,0-0.2
					c0-0.1,0-0.3-0.1-0.4c0-0.1,0-0.1,0-0.2c0-0.1,0-0.2-0.1-0.3c0,0,0,0,0,0c-0.1-0.6-0.3-1.2-0.6-1.8c-0.7-1.7-1.8-3.1-3.2-4.3
					c-0.2-0.1-0.4-0.3-0.5-0.4c0,0,0,0-0.1,0c-2.8-1.9-6.4-1.9-7.4-1.9c-0.4,0-0.6,0-0.6,0h-7.4c-0.5,0-1.1,0-1.5,0
					c-11.6-0.1-12.8-12.4-16.6-20.6h-0.4l-7.6,0c0.4,1.2,0.7,2.5,0.9,3.6c0,0.2,0,0.3,0,0.5c0.1,1,0.1,1.9,0,2.9
					c-0.8,7.7-7.6,13.6-15.8,13.7c-0.2,0-0.3,0-0.5,0h-58.6c-3.4,0-6.7,1.6-8.6,4.5c-0.8,1.3-1.4,2.8-1.6,4.4c0,0.5-0.1,0.9,0,1.4v0
					c0,0.2,0,0.3,0,0.5c0,0.2,0,0.4,0.1,0.7c0.1,0.6,0.2,1.2,0.4,1.7l6.2,16.3l1.9,5c1.8,3.9,4.8,6.9,8.5,8.7
					c0.2,0.1,0.5,0.2,0.7,0.3c2.2,1,4.6,1.5,7.2,1.6c0.1,0,0.2,0,0.3,0h76.1c10.5,0,18.9-8.5,18.9-18.9v-3.2c0-0.6,0-1.2,0-1.9
					C704.3,238.3,708.6,233.6,708.7,227.9L708.7,227.9z"/>
				<path class="st16" d="M603.5,255.5h-2v2h2V255.5z"/>
				<path class="st16" d="M598,252.2h-2v2h2V252.2z"/>
				<path class="st16" d="M609.6,252.2h-2v2h2V252.2z"/>
				<path class="st16" d="M665.5,255.5h-2v2h2V255.5z"/>
				<path class="st16" d="M660,252.2h-2v2h2V252.2z"/>
				<path class="st16" d="M671.7,252.2h-2v2h2V252.2z"/>
				<path d="M679.8,262.9h-76.1c-0.1,0-0.2,0-0.3,0c-2.5-0.1-4.9-0.6-7.3-1.6c-0.2-0.1-0.5-0.2-0.7-0.3c-3.8-1.9-6.8-5-8.6-8.8
					l-8.1-21.3c-0.2-0.6-0.3-1.2-0.4-1.8c0-0.2-0.1-0.4-0.1-0.7c0-0.2,0-0.3,0-0.5c0,0,0,0,0,0c0-0.5,0-0.9,0.1-1.4
					c0.2-1.6,0.7-3.1,1.6-4.5c1.8-2.8,5.2-4.6,8.8-4.6h58.6c0.1,0,0.3,0,0.4,0h0.1c8.1-0.1,14.8-6,15.6-13.6c0.1-0.9,0.1-1.9,0-2.8
					l0-0.2c0-0.1,0-0.2,0-0.3c-0.1-1.2-0.4-2.4-0.9-3.6c0-0.1,0-0.1,0-0.2s0.1-0.1,0.2-0.1l7.9,0c0.1,0,0.2,0,0.2,0.1
					c0.8,1.8,1.5,3.7,2.3,5.8c2.6,7.2,5.2,14.6,14.1,14.7c0.4,0,1,0,1.5,0c0,0,0,0,0,0h7.3c0,0,0.2,0,0.6,0c1,0,4.7,0.1,7.5,1.9
					l0,0.2l0.1-0.2c0.2,0.1,0.4,0.3,0.5,0.4c1.4,1.1,2.6,2.6,3.3,4.3c0.2,0.5,0.4,1.2,0.6,1.8c0,0,0,0,0,0c0,0.1,0,0.2,0.1,0.3
					c0,0.1,0,0.1,0,0.2c0,0,0,0.1,0,0.1c0,0.1,0,0.2,0,0.2c0,0,0,0.1,0,0.2v0.1l0,0.1l0,0.2c0,0.2,0,0.4,0,0.6
					c0,5.6-4.3,10.4-9.9,11c0,0.5,0,1.1,0,1.7v3.2C699,254.3,690.4,262.9,679.8,262.9L679.8,262.9z M578.6,227.9c0,0.2,0,0.3,0,0.5
					c0,0.2,0,0.4,0.1,0.6c0.1,0.5,0.2,1.1,0.4,1.7l8.1,21.3c1.7,3.7,4.7,6.8,8.4,8.6c0.2,0.1,0.4,0.2,0.7,0.3c2.3,1,4.6,1.5,7.1,1.6
					c0.1,0,0.2,0,0.3,0h76.1c10.3,0,18.7-8.4,18.7-18.7v-3.2c0-0.7,0-1.3,0-1.9c0-0.1,0.1-0.2,0.2-0.2c5.4-0.5,9.7-5.1,9.7-10.6
					c0-0.2,0-0.4,0-0.5l0-0.3V227c0-0.1,0-0.1,0-0.2c0-0.1,0-0.2,0-0.2c0,0,0-0.1,0-0.2c0-0.1,0-0.1,0-0.2c0-0.1,0-0.2-0.1-0.3
					c0,0,0,0,0,0c-0.1-0.6-0.3-1.2-0.6-1.7c-0.7-1.6-1.8-3.1-3.1-4.2c-0.2-0.1-0.4-0.3-0.5-0.4l0.1-0.2l-0.1,0.2
					c-2.7-1.8-6.2-1.9-7.3-1.9c-0.4,0-0.6,0-0.6,0h-7.4c0,0,0,0,0,0c-0.6,0-1.1,0-1.5,0c-9.2-0.1-11.9-7.6-14.5-15
					c-0.7-2-1.4-3.9-2.2-5.6l-7.5,0c0.4,1.1,0.7,2.3,0.8,3.4c0,0.1,0,0.2,0,0.4l0,0.2c0.1,1,0.1,2,0,2.9c-0.8,7.8-7.7,13.8-16,13.9
					h-0.1c-0.1,0-0.3,0-0.4,0h-58.6c-3.4,0-6.7,1.7-8.4,4.4c-0.8,1.3-1.4,2.8-1.5,4.3C578.7,227,578.7,227.4,578.6,227.9
					C578.7,227.9,578.7,227.9,578.6,227.9L578.6,227.9z"/>
				<path class="st10" d="M716.6,222.5l-9.4-24.9c-2.1-5.8-8.1-8.7-14.1-8.1c2.6-6.7-2.4-14.6-10-14.5h-103c-7.6,0-12.7,7.8-10,14.5
					h-10.3c-19.3,0.8-19.3,28.4,0,29.1h0.3c-3.2,0.8-5.7,3.7-5.7,7.1c0,4.1,3.3,7.3,7.3,7.3h1.3l16.7,0c-0.5-1.3-0.9-2.7-1-4.1
					c-0.1-2.1,0.5-4.1,1.6-5.8c1.9-2.9,5.2-4.5,8.6-4.5h58.3c11,0.3,19.8-9.6,15.8-20.8l7.6,0c3.8,8.2,5,20.5,16.6,20.6
					c0.5,0,1,0,1.5,0h7.7c0,0,4.4-0.3,7.6,1.9c0,0,0,0,0.1,0c0.2,0.1,0.4,0.3,0.5,0.4c1.4,1.1,2.5,2.6,3.2,4.3
					c1,2.4,1.1,5.4,0.1,7.9C713.8,233.9,718.8,228.3,716.6,222.5L716.6,222.5z"/>
				<path class="st17" d="M708.9,233.4c-0.4,0-0.8,0-1.1-0.1c-0.1,0-0.1,0-0.1-0.1c0-0.1,0-0.1,0-0.2c0.9-2.5,0.9-5.3-0.1-7.7
					c-0.7-1.6-1.8-3.1-3.1-4.2c-0.2-0.1-0.3-0.3-0.5-0.4l0,0c-3.1-2.1-7.5-1.9-7.5-1.9h-7.7c0,0,0,0,0,0c-0.6,0-1.1,0-1.5,0
					c-9.2-0.1-11.9-7.6-14.5-15c-0.7-2-1.4-3.9-2.2-5.6l-7.2,0c1.7,4.9,1,10-2,14.1c-3.2,4.4-8.4,6.9-14.1,6.7h-58.3
					c-3.3,0-6.3,1.5-8.1,4c-1.3,1.8-1.9,3.9-1.9,6.1c0,0,0,0,0,0c0,1.2,0.3,2.5,0.9,4c0,0.1,0,0.1,0,0.2c0,0.1-0.1,0.1-0.2,0.1
					l-17.9,0c-4.2,0-7.6-3.4-7.6-7.5c0-3.1,1.9-5.9,4.7-7c-9.5-0.8-13.8-8.1-13.8-14.7c0-6.8,4.6-14.4,14.7-14.8h10
					c-1.2-3.2-0.7-6.8,1.3-9.8c2.1-3,5.3-4.7,8.9-4.7c0,0,0,0,0.1,0h103c3.6,0,6.9,1.7,9,4.7c2,2.9,2.5,6.5,1.3,9.7
					c6.4-0.5,12,2.8,14,8.2l9.4,24.9c1,2.7,0.6,5.5-1.2,7.7C714,232.2,711.5,233.4,708.9,233.4L708.9,233.4z M708.1,233
					c2.8,0.3,5.5-0.9,7.3-3c1.7-2.1,2.1-4.8,1.1-7.3l-9.4-24.9c-1.9-5.4-7.5-8.6-13.9-7.9c-0.1,0-0.1,0-0.2-0.1c0-0.1-0.1-0.1,0-0.2
					c1.2-3.2,0.8-6.8-1.2-9.7c-2-2.9-5.1-4.6-8.6-4.6c0,0,0,0-0.1,0h-103c0,0,0,0-0.1,0c-3.5,0-6.6,1.7-8.6,4.6
					c-2,2.9-2.4,6.5-1.2,9.7c0,0.1,0,0.1,0,0.2c0,0.1-0.1,0.1-0.2,0.1h-10.3c-6.9,0.3-14.3,4.9-14.3,14.4c0,9.5,7.4,14.1,14.3,14.4
					h0.2c0.1,0,0.2,0.1,0.2,0.2c0,0.1-0.1,0.2-0.2,0.2c-3.2,0.8-5.5,3.6-5.5,6.9c0,3.9,3.2,7.1,7.1,7.1h1.3l16.3,0
					c-0.6-1.4-0.8-2.7-0.9-3.9c0,0,0,0,0,0c-0.1-2.2,0.6-4.5,2-6.3c1.9-2.6,5-4.2,8.4-4.2h58.3c5.5,0.2,10.7-2.3,13.8-6.5
					c2.9-4,3.6-9.1,1.8-13.9c0-0.1,0-0.1,0-0.2c0-0.1,0.1-0.1,0.2-0.1l7.6,0c0.1,0,0.2,0,0.2,0.1c0.8,1.8,1.5,3.7,2.3,5.8
					c2.6,7.2,5.2,14.6,14.1,14.7c0.4,0,1,0,1.5,0c0,0,0,0,0,0h7.7c0.2,0,4.5-0.2,7.7,1.9l0,0.2l0.1-0.2c0.2,0.1,0.4,0.3,0.5,0.4
					c1.4,1.1,2.5,2.6,3.3,4.3C708.8,227.6,708.9,230.4,708.1,233L708.1,233z"/>
				<path d="M708.9,233.6c-0.4,0-0.8,0-1.2-0.1c-0.1,0-0.2-0.1-0.3-0.2c-0.1-0.1-0.1-0.2,0-0.4c0.9-2.4,0.9-5.2-0.1-7.6
					c-0.7-1.6-1.7-3-3.1-4.1c-0.2-0.1-0.3-0.3-0.5-0.4l0.2-0.4l-0.2,0.3c-3-2.1-7.3-1.8-7.4-1.8h-7.7c0,0,0,0-0.1,0
					c-0.5,0-1,0-1.5,0c-9.3-0.1-12-7.7-14.7-15.1c-0.7-1.9-1.3-3.8-2.1-5.5l-6.7,0c1.6,4.9,0.8,10-2.1,14c-3.2,4.4-8.5,7-14.3,6.8
					h-58.3c-3.2,0-6.2,1.5-8,3.9c-1.3,1.7-1.9,3.8-1.8,6c0,0,0,0,0,0.1c0,1.2,0.3,2.4,0.9,3.9c0,0.1,0,0.3,0,0.4
					c-0.1,0.1-0.2,0.2-0.3,0.2l-17.9,0c-4.3,0-7.8-3.5-7.8-7.8c0-2.9,1.6-5.6,4.2-6.9c-9.1-1.1-13.2-8.3-13.2-14.8
					c0-6.9,4.7-14.6,14.9-15h9.7c-1.1-3.2-0.5-6.8,1.4-9.7c2.1-3.1,5.4-4.8,9.1-4.8c0,0,0,0,0.1,0h103c0,0,0,0,0.1,0
					c3.7,0,7,1.8,9.1,4.8c2,2.9,2.5,6.4,1.5,9.6c6.4-0.4,11.9,2.9,13.9,8.4l9.4,24.9c1,2.7,0.6,5.6-1.2,7.9
					C714.1,232.4,711.6,233.6,708.9,233.6L708.9,233.6z M708.3,232.8c2.6,0.2,5.2-0.9,6.8-3c1.6-2.1,2-4.6,1.1-7.1l-9.4-24.9
					c-1.9-5.3-7.4-8.4-13.7-7.8c-0.1,0-0.3,0-0.4-0.2c-0.1-0.1-0.1-0.3-0.1-0.4c1.2-3.1,0.8-6.7-1.2-9.5c-2-2.8-5-4.5-8.4-4.5
					c0,0,0,0-0.1,0h-103c-3.5,0-6.5,1.6-8.5,4.5c-1.9,2.8-2.4,6.4-1.2,9.5c0,0.1,0,0.3,0,0.4c-0.1,0.1-0.2,0.2-0.3,0.2h-10.3
					c-9.7,0.4-14.1,7.6-14.1,14.2c0,6.5,4.4,13.8,14.1,14.2h0.2c0.2,0,0.4,0.2,0.4,0.4c0,0.2-0.1,0.4-0.3,0.4
					c-3.1,0.7-5.3,3.5-5.3,6.7c0,3.8,3.1,6.9,6.9,6.9l17.3,0c-0.5-1.3-0.8-2.6-0.8-3.7c0,0,0,0,0-0.1c-0.1-2.3,0.7-4.5,2-6.4
					c1.9-2.7,5.1-4.3,8.6-4.3h58.3c5.5,0.2,10.5-2.2,13.6-6.5c2.9-3.9,3.5-9,1.8-13.8c0-0.1,0-0.3,0-0.4c0.1-0.1,0.2-0.2,0.3-0.2
					l7.6,0c0.2,0,0.3,0.1,0.4,0.2c0.8,1.8,1.6,3.8,2.3,5.8c2.5,7.1,5.2,14.5,13.9,14.6c0.5,0,1,0,1.5,0c0,0,0,0,0.1,0h7.6
					c0.2,0,4.6-0.2,7.8,2c0,0,0.1,0.1,0.1,0.1c0.2,0.1,0.4,0.3,0.5,0.4c1.4,1.2,2.6,2.7,3.3,4.4C709,227.4,709.1,230.3,708.3,232.8
					L708.3,232.8z"/>
				<path class="st17" d="M575.4,233.2c-0.1,0-0.2,0-0.2-0.1c-0.6-1.5-1-2.9-1-4.2c0,0,0,0,0,0c-0.1-2.1,0.5-4.1,1.6-5.9
					c1.8-2.8,5.2-4.6,8.8-4.6h58.3c0.1,0,0.2,0.1,0.2,0.2s-0.1,0.2-0.2,0.2h-58.3c-3.4,0-6.7,1.7-8.4,4.4c-1.1,1.7-1.7,3.7-1.6,5.7
					c0,0,0,0,0,0c0,1.2,0.3,2.5,0.9,4C575.6,233,575.6,233.1,575.4,233.2C575.4,233.1,575.4,233.2,575.4,233.2L575.4,233.2z"/>
				<path d="M546.2,209C546.2,209,546.1,209,546.2,209c-0.1,0-0.2-0.1-0.2-0.2c0-0.1,2.6-11.2,17.3-11.2h99.6c0.1,0,0.2,0.1,0.2,0.2
					c0,0.1-0.1,0.2-0.2,0.2h-99.6c-14.4,0-16.9,10.7-16.9,10.8C546.3,208.9,546.3,209,546.2,209L546.2,209z"/>
				<path d="M563.3,190c-0.1,0-0.2-0.1-0.2-0.2c0-0.1,0.1-0.2,0.2-0.2l129.8,0c0.1,0,0.2,0.1,0.2,0.2c0,0.1-0.1,0.2-0.2,0.2
					L563.3,190z"/>
				<path class="st14" d="M607,240.4h-37.3l-2.6-2.1l-1.5-1.2h37.3l0.5,0.4L607,240.4z"/>
				<path d="M607,240.6h-37.3c0,0-0.1,0-0.1,0l-4.1-3.3c-0.1-0.1-0.1-0.1-0.1-0.2c0-0.1,0.1-0.1,0.2-0.1h37.3c0,0,0.1,0,0.1,0
					l0.5,0.4l3.6,2.9c0.1,0.1,0.1,0.1,0.1,0.2C607.1,240.5,607.1,240.6,607,240.6L607,240.6z M569.7,240.2h36.7l-3.6-2.8h-36.7
					L569.7,240.2z"/>
				<path d="M579.8,231.9c0,0.3,0,0.5,0,0.8C579.8,232.4,579.8,232.1,579.8,231.9L579.8,231.9z"/>
				<path class="st14" d="M625.7,240.4h-37.3l-4.1-3.3h37.3L625.7,240.4z"/>
				<path d="M625.7,240.6h-37.3c0,0-0.1,0-0.1,0l-4.1-3.3c-0.1-0.1-0.1-0.1-0.1-0.2c0-0.1,0.1-0.1,0.2-0.1h37.3c0,0,0.1,0,0.1,0
					l4.1,3.3c0.1,0.1,0.1,0.1,0.1,0.2C625.9,240.5,625.8,240.6,625.7,240.6z M588.4,240.2h36.7l-3.6-2.8h-36.7L588.4,240.2z"/>
				<path class="st14" d="M691.3,240.4H654l-4.1-3.3h37.3L691.3,240.4z"/>
				<path d="M691.3,240.6H654c0,0-0.1,0-0.1,0l-4.1-3.3c-0.1-0.1-0.1-0.1-0.1-0.2c0-0.1,0.1-0.1,0.2-0.1h37.3c0,0,0.1,0,0.1,0
					l4.1,3.3c0.1,0.1,0.1,0.1,0.1,0.2S691.4,240.6,691.3,240.6z M654.1,240.2h36.7l-3.6-2.8h-36.7L654.1,240.2z"/>
				<path class="st14" d="M672.5,240.4h-37.3l-4.1-3.3h37.3L672.5,240.4z"/>
				<path d="M672.5,240.6h-37.3c0,0-0.1,0-0.1,0l-4.1-3.3c-0.1-0.1-0.1-0.1-0.1-0.2c0-0.1,0.1-0.1,0.2-0.1h37.3c0,0,0.1,0,0.1,0
					l4.1,3.3c0.1,0.1,0.1,0.1,0.1,0.2C672.7,240.5,672.6,240.6,672.5,240.6z M635.3,240.2h36.7l-3.6-2.8h-36.7L635.3,240.2z"/>
				<path class="st14" d="M663.1,231h-37.3l-4.1-3.3H659L663.1,231z"/>
				<path class="st18" d="M663.1,231.2h-37.3c0,0-0.1,0-0.1,0l-4.1-3.3c-0.1-0.1-0.1-0.1-0.1-0.2c0-0.1,0.1-0.1,0.2-0.1H659
					c0,0,0.1,0,0.1,0l4.1,3.3c0.1,0.1,0.1,0.1,0.1,0.2C663.3,231.2,663.2,231.2,663.1,231.2z M625.8,230.8h36.7l-3.6-2.8h-36.7
					L625.8,230.8z"/>
				<path class="st14" d="M700.6,231h-37.3l-4.1-3.3h37.3L700.6,231z"/>
				<path d="M700.6,231.2h-37.3c0,0-0.1,0-0.1,0l-4.1-3.3c-0.1-0.1-0.1-0.1-0.1-0.2c0-0.1,0.1-0.1,0.2-0.1h37.3c0,0,0.1,0,0.1,0
					l4.1,3.3c0.1,0.1,0.1,0.1,0.1,0.2C700.8,231.2,700.7,231.2,700.6,231.2z M663.4,230.8H700l-3.6-2.8h-36.7L663.4,230.8z"/>
				<path class="st19" d="M700.6,221.7h-37.3l-4.1-3.3h37.3L700.6,221.7z"/>
				<path class="st18" d="M700.6,221.9h-37.3c0,0-0.1,0-0.1,0l-4.1-3.3c-0.1-0.1-0.1-0.1-0.1-0.2c0-0.1,0.1-0.1,0.2-0.1h37.3
					c0,0,0.1,0,0.1,0l4.1,3.3c0.1,0.1,0.1,0.1,0.1,0.2S700.7,221.9,700.6,221.9z M663.4,221.5H700l-3.6-2.8h-36.7L663.4,221.5z"/>
				<path class="st18" d="M583.1,240.1c0,0-9.1-21.7,33.1-21.7l-26.9,0.2c0,0-6.6,0-9,5.5s1.3,12.1,1.3,12.1L583.1,240.1z"/>
				<path class="st16" d="M696.7,218.4v9.4h-9.4v9.4h-9.4v9.4h-37.5v-9.4h-9.4v-9.4h-9.4v9.4h-9.4v9.4h-37.5v-9.4h-9.4v-18.7H696.7z
					"/>
				<path class="st14" d="M611,218.4l-24.5,28.1h-8.7v0l24.5-28.1H611z"/>
				<path class="st14" d="M620,218.4l-24.5,28.1H591l24.5-28.1H620z"/>
				<path class="st14" d="M676.8,218.4L652,246.5h-8.7l24.8-28.1H676.8z"/>
				<path class="st14" d="M685.7,218.4L661,246.5h-4.5l24.8-28.1H685.7z"/>
				<path d="M677.9,246.7h-37.5c-0.1,0-0.2-0.1-0.2-0.2v-9.2h-9.2c-0.1,0-0.2-0.1-0.2-0.2V228h-9v9.2c0,0.1-0.1,0.2-0.2,0.2h-9.2
					v9.2c0,0.1-0.1,0.2-0.2,0.2h-37.5c-0.1,0-0.2-0.1-0.2-0.2v-9.2h-9.2c-0.1,0-0.2-0.1-0.2-0.2v-18.7c0-0.1,0.1-0.2,0.2-0.2h131.1
					c0.1,0,0.2,0.1,0.2,0.2v9.4c0,0.1-0.1,0.2-0.2,0.2h-9.2v9.2c0,0.1-0.1,0.2-0.2,0.2h-9.2v9.2
					C678.1,246.6,678.1,246.7,677.9,246.7z M640.7,246.3h37.1v-9.2c0-0.1,0.1-0.2,0.2-0.2h9.2v-9.2c0-0.1,0.1-0.2,0.2-0.2h9.2v-9
					H565.8v18.3h9.2c0.1,0,0.2,0.1,0.2,0.2v9.2h37.1v-9.2c0-0.1,0.1-0.2,0.2-0.2h9.2v-9.2c0-0.1,0.1-0.2,0.2-0.2h9.4
					c0.1,0,0.2,0.1,0.2,0.2v9.2h9.2c0.1,0,0.2,0.1,0.2,0.2V246.3z"/>
				<path class="st14" d="M616.3,249.8H579l-4.1-3.3h37.3l0.1,0.1L616.3,249.8z"/>
				<path d="M616.3,250H579c0,0-0.1,0-0.1,0l-4.1-3.3c-0.1-0.1-0.1-0.1-0.1-0.2c0-0.1,0.1-0.1,0.2-0.1h37.3c0,0,0.1,0,0.1,0l0.1,0.1
					l4,3.1c0.1,0.1,0.1,0.1,0.1,0.2C616.5,249.9,616.4,250,616.3,250L616.3,250z M579.1,249.6h36.7l-3.6-2.8h-36.7L579.1,249.6
					L579.1,249.6z"/>
				<path class="st14" d="M616.3,249.8v-9.4l-4-3.3v9.5L616.3,249.8z"/>
				<path class="st14" d="M681.9,249.8h-37.3l-4.1-3.2h37.3L681.9,249.8z"/>
				<path d="M681.9,250h-37.3c0,0-0.1,0-0.1,0l-4.1-3.3c-0.1-0.1-0.1-0.1-0.1-0.2c0-0.1,0.1-0.1,0.2-0.1h37.3c0,0,0.1,0,0.1,0
					l4.1,3.3c0.1,0.1,0.1,0.1,0.1,0.2C682.1,249.9,682,250,681.9,250z M644.6,249.6h36.7l-3.6-2.8h-36.7L644.6,249.6z"/>
				<path class="st14" d="M625.8,231v9.4l-4-3.3v-9.4L625.8,231z"/>
				<path d="M616.3,250c0,0-0.1,0-0.1,0l-4-3.1c0,0-0.1-0.1-0.1-0.2v-9.5c0-0.1,0-0.1,0.1-0.2c0.1,0,0.2,0,0.2,0l4,3.3
					c0,0,0.1,0.1,0.1,0.2v9.4C616.5,249.8,616.5,249.9,616.3,250C616.4,250,616.4,250,616.3,250L616.3,250z M612.6,246.5l3.6,2.8
					v-8.9l-3.6-2.9V246.5L612.6,246.5z"/>
				<path class="st14" d="M681.9,249.8v-9.4l-4-3.3l-0.1,9.4L681.9,249.8z"/>
				<path d="M625.8,240.6c0,0-0.1,0-0.1,0l-4-3.3c0,0-0.1-0.1-0.1-0.2v-9.4c0-0.1,0-0.1,0.1-0.2c0.1,0,0.2,0,0.2,0l4,3.3
					c0,0,0.1,0.1,0.1,0.2v9.4C626,240.5,625.9,240.5,625.8,240.6C625.8,240.6,625.8,240.6,625.8,240.6L625.8,240.6z M622,237
					l3.6,2.9v-8.8l-3.6-2.9V237L622,237z"/>
				<path d="M681.9,250c0,0-0.1,0-0.1,0l-4.1-3.3c0,0-0.1-0.1-0.1-0.2l0.1-9.4c0-0.1,0-0.1,0.1-0.2c0.1,0,0.2,0,0.2,0l4,3.3
					c0,0,0.1,0.1,0.1,0.2v9.4C682.1,249.8,682.1,249.9,681.9,250C682,250,681.9,250,681.9,250L681.9,250z M678,246.4l3.7,2.9v-8.8
					l-3.6-2.9L678,246.4z"/>
				<path class="st14" d="M691.3,240.4V231l-4-3.3v9.4L691.3,240.4z"/>
				<path d="M691.3,240.6c0,0-0.1,0-0.1,0l-4-3.3c0,0-0.1-0.1-0.1-0.2v-9.4c0-0.1,0.1-0.1,0.1-0.2c0.1,0,0.2,0,0.2,0l4,3.3
					c0,0,0.1,0.1,0.1,0.2v9.4C691.5,240.5,691.5,240.5,691.3,240.6C691.4,240.6,691.3,240.6,691.3,240.6L691.3,240.6z M687.5,237.1
					l3.6,2.9v-8.8l-3.6-2.9V237.1z"/>
				<path class="st14" d="M700.6,231v-9.4l-4-3.3v9.4L700.6,231z"/>
				<path d="M700.6,231.2c0,0-0.1,0-0.1,0l-4-3.3c0,0-0.1-0.1-0.1-0.2v-9.3c0-0.1,0-0.1,0.1-0.2c0.1,0,0.2,0,0.2,0l4,3.2
					c0,0,0.1,0.1,0.1,0.2v9.4C700.8,231.1,700.8,231.2,700.6,231.2C700.7,231.2,700.7,231.2,700.6,231.2L700.6,231.2z M696.9,227.7
					l3.6,2.9v-8.8l-3.6-2.9V227.7z"/>
				<path class="st15" d="M681.9,220c5.6-1.1,9.5-1.5,11.7-1.6c-2.2-0.1-6.1-0.5-11.7-1.6c-2-0.4-3.6-2-4-4
					c-1.1-5.6-1.5-9.5-1.6-11.7c-0.1,2.2-0.5,6.1-1.6,11.7c-0.4,2-2,3.6-4,4c-5.6,1.1-9.5,1.5-11.7,1.6c2.2,0.1,6.1,0.5,11.7,1.6
					c2,0.4,3.6,2,4,4c1.1,5.6,1.5,9.5,1.6,11.7c0.1-2.2,0.5-6.1,1.6-11.7C678.3,222,679.9,220.4,681.9,220z"/>
				<path d="M676.3,235.9c-0.1,0-0.2-0.1-0.2-0.2c-0.1-1.8-0.4-5.7-1.6-11.7c-0.4-2-1.9-3.5-3.9-3.9c-6-1.2-9.9-1.5-11.7-1.6
					c-0.1,0-0.2-0.1-0.2-0.2c0-0.1,0.1-0.2,0.2-0.2c1.8-0.1,5.7-0.4,11.7-1.6c2-0.4,3.5-1.9,3.9-3.9c1.2-6,1.5-9.9,1.6-11.7
					c0-0.1,0.1-0.2,0.2-0.2c0.1,0,0.2,0.1,0.2,0.2c0.1,1.8,0.4,5.7,1.6,11.7c0.4,2,1.9,3.5,3.9,3.9c6,1.2,9.9,1.5,11.7,1.6
					c0.1,0,0.2,0.1,0.2,0.2c0,0.1-0.1,0.2-0.2,0.2c-1.8,0.1-5.7,0.4-11.7,1.6c-2,0.4-3.5,1.9-3.9,3.9c-1.2,6-1.5,9.9-1.6,11.7
					C676.5,235.9,676.4,235.9,676.3,235.9z M661.5,218.4c2.1,0.2,5.2,0.6,9.2,1.4c2.1,0.4,3.8,2.1,4.2,4.2c0.8,4,1.2,7,1.4,9.2
					c0.2-2.1,0.6-5.2,1.4-9.2c0.4-2.1,2.1-3.8,4.2-4.2c4-0.8,7-1.2,9.2-1.4c-2.1-0.2-5.2-0.6-9.2-1.4c-2.1-0.4-3.8-2.1-4.2-4.2
					c-0.8-4-1.2-7-1.4-9.2c-0.2,2.1-0.6,5.2-1.4,9.2c-0.4,2.1-2.1,3.8-4.2,4.2C666.7,217.8,663.7,218.2,661.5,218.4z"/>
				<path class="st9" d="M798.6,363.2c-0.3,2-0.8,3.9-1.4,5.8c-0.8,2.4-2,4.7-3.4,6.9c-5.4,8.4-14.7,14.2-25.8,14.5
					c-0.3,0-0.6,0-0.9,0H640.4l-5.3-13.6l-0.3-0.9l-0.9-2.4l-1.6-4.1l-0.3-0.9l-16.7-42.9l85.7,0l33.7,0h19.1c4.2,0,8-1,11.2-2.7
					l2.2,5.8l6.9-2.6l-3-7.8c6-6.2,8.5-15.5,5.7-24.1l11.8,31.4l6.5,17.3l1.8,4.7c0,0.1,0.1,0.2,0.1,0.3c0.1,0.2,0.2,0.5,0.3,0.7
					C798.9,353.4,799.3,358.4,798.6,363.2L798.6,363.2z"/>
				<path class="st13" d="M781.8,368.5c-3.5,5.1-9.3,8.2-15.5,8.2H635.1l-0.3-0.9l-0.9-2.4l-1.6-4.1h134c3.8,0,7.3-1.8,9.5-5
					c2.2-3.2,2.6-7.1,1.2-10.6L765,322.8c2.3-1.2,4.4-2.8,6.1-4.6l12.7,32.8C786.1,356.9,785.3,363.4,781.8,368.5z"/>
				<path d="M767.1,390.5H640.4c-0.1,0-0.2,0-0.2-0.1l-25.2-64.8c0-0.1,0-0.1,0-0.2s0.1-0.1,0.2-0.1l138.5,0
					c7.7,0,14.7-3.5,19.2-9.7c4.6-6.2,5.9-14.2,3.6-21.4c0-0.1,0-0.2,0.1-0.3c0.1,0,0.2,0,0.3,0.1l20.1,53.6
					c0.1,0.2,0.1,0.4,0.2,0.6l0,0.1c3.3,9.7,1.8,20.1-4.1,28.5c-5.9,8.4-15.1,13.4-25.3,13.6C767.6,390.5,767.4,390.5,767.1,390.5
					L767.1,390.5z M640.6,390.1h126.5c0.3,0,0.6,0,0.8,0c10.1-0.3,19.2-5.2,25-13.5c5.8-8.3,7.3-18.6,4-28.1l0-0.1
					c-0.1-0.2-0.1-0.4-0.2-0.6l-0.1-0.3l-18.8-50.2c1.1,6.4-0.5,13.1-4.5,18.5c-4.6,6.3-11.7,9.9-19.6,9.9l-138.1,0L640.6,390.1
					L640.6,390.1z"/>
				<path class="st15" d="M745.1,492c0,1.3-0.4,2.6-1.3,3.8c-1,1.4-2.5,2.7-4.4,3.8c-4.6,2.6-11.5,4.3-19.3,4.3
					c-7.8,0-14.7-1.7-19.3-4.3c-1.9-1.1-3.4-2.4-4.4-3.8c-0.8-1.2-1.3-2.5-1.3-3.8c0-6.6,11.2-11.9,25-11.9
					C733.9,480.2,745.1,485.5,745.1,492z"/>
				<path class="st15" d="M745.1,492v7.6c0,6.6-11.2,11.9-25,11.9c-13.8,0-25-5.3-25-11.9V492c0,1.3,0.4,2.6,1.3,3.8
					c1,1.4,2.5,2.7,4.4,3.8c4.6,2.6,11.5,4.3,19.3,4.3c7.8,0,14.7-1.7,19.3-4.3c1.9-1.1,3.4-2.4,4.4-3.8
					C744.6,494.6,745.1,493.4,745.1,492z"/>
				<path d="M720.1,504.1c-7.5,0-14.6-1.6-19.4-4.3c-2-1.1-3.5-2.4-4.5-3.8c-0.9-1.2-1.3-2.6-1.3-3.9c0-6.7,11.3-12.1,25.2-12.1
					c13.9,0,25.2,5.4,25.2,12.1c0,1.3-0.4,2.7-1.3,3.9c-1,1.4-2.5,2.7-4.5,3.8C734.7,502.5,727.6,504.1,720.1,504.1z M720.1,480.4
					c-13.7,0-24.8,5.2-24.8,11.7c0,1.3,0.4,2.5,1.3,3.7c1,1.4,2.4,2.6,4.4,3.7c4.7,2.7,11.7,4.3,19.2,4.3c7.4,0,14.4-1.6,19.2-4.3
					c1.9-1.1,3.4-2.4,4.4-3.7c0.8-1.2,1.3-2.4,1.3-3.7C744.9,485.6,733.8,480.4,720.1,480.4L720.1,480.4z"/>
				<path d="M720.1,511.7c-13.9,0-25.2-5.4-25.2-12.1V492h0.4c0,1.3,0.4,2.5,1.3,3.7c1,1.4,2.4,2.6,4.4,3.7
					c4.7,2.7,11.7,4.3,19.2,4.3c7.4,0,14.4-1.6,19.2-4.3c1.9-1.1,3.4-2.4,4.4-3.7c0.8-1.2,1.3-2.4,1.3-3.7h0.4v7.6
					C745.3,506.3,734,511.7,720.1,511.7L720.1,511.7z M695.3,494.2v5.4c0,6.4,11.1,11.7,24.8,11.7c13.7,0,24.8-5.2,24.8-11.7v-5.4
					c-0.2,0.6-0.5,1.1-0.9,1.7c-1,1.4-2.5,2.7-4.5,3.8c-4.8,2.8-11.8,4.3-19.4,4.3c-7.5,0-14.6-1.6-19.4-4.3c-2-1.1-3.5-2.4-4.5-3.8
					C695.9,495.4,695.6,494.8,695.3,494.2z"/>
				<path d="M731,502.7v7.6c-3.3,0.8-7,1.2-10.9,1.2c-13.8,0-25-5.3-25-11.9V492c0,1.3,0.4,2.6,1.3,3.8c1,1.4,2.5,2.7,4.4,3.8
					c4.6,2.6,11.5,4.3,19.3,4.3C724,503.9,727.7,503.5,731,502.7L731,502.7z"/>
				<path class="st15" d="M567.5,389.2c0,1.6-4.3,2.9-10.8,3.8c-4,0.5-8.9,0.8-14.2,0.8c-5.3,0-10.2-0.3-14.2-0.8
					c-6.5-0.8-10.8-2.2-10.8-3.8c0-2.5,11.2-4.6,25-4.6C556.3,384.6,567.5,386.7,567.5,389.2z"/>
				<path d="M567.5,389.2v7.5c0,2.5-11.2,4.6-25,4.6c-13.8,0-25-2-25-4.6v-7.5c0,1.6,4.3,2.9,10.8,3.8c4,0.5,8.9,0.8,14.2,0.8
					c5.3,0,10.2-0.3,14.2-0.8C563.2,392.2,567.5,390.8,567.5,389.2z"/>
				<path d="M559.5,386.1c-4.6,2.3-11,3.7-18.2,3.7c-7.2,0-13.6-1.4-18.2-3.7c4.6-0.9,11-1.4,18.2-1.4
					C548.5,384.6,554.9,385.2,559.5,386.1z"/>
				<path d="M542.5,394c-5.1,0-10-0.3-14.2-0.8c-4.1-0.5-11-1.7-11-4c0-3,12.8-4.8,25.2-4.8c12.4,0,25.2,1.8,25.2,4.8
					c0,2.2-6.9,3.4-11,4C552.5,393.7,547.6,394,542.5,394z M542.5,384.8c-14.8,0-24.8,2.3-24.8,4.4c0,1.1,2.8,2.6,10.6,3.6
					c4.2,0.5,9.1,0.8,14.2,0.8c5.1,0,10-0.3,14.2-0.8c7.8-1,10.6-2.5,10.6-3.6C567.3,387.1,557.3,384.8,542.5,384.8L542.5,384.8z"/>
				<path d="M567.5,365.6v7.5c0,6.6-11.2,11.9-25,11.9c-13.8,0-25-5.3-25-11.9v-7.5c0,1.3,0.4,2.6,1.3,3.8c1,1.4,2.5,2.7,4.4,3.8
					c4.6,2.7,11.5,4.3,19.3,4.3c7.8,0,14.7-1.7,19.3-4.3c1.9-1.1,3.4-2.4,4.4-3.8C567,368.2,567.5,366.9,567.5,365.6L567.5,365.6z"
					/>
				<path d="M542.5,401.5c-12.4,0-25.2-1.8-25.2-4.8v-7.5h0.4c0,1.1,2.8,2.6,10.6,3.6c4.2,0.5,9.1,0.8,14.2,0.8
					c5.1,0,10-0.3,14.2-0.8c7.8-1,10.6-2.5,10.6-3.6h0.4v7.5C567.7,399.7,554.9,401.5,542.5,401.5L542.5,401.5z M517.7,390.1v6.6
					c0,2.1,10,4.4,24.8,4.4c14.8,0,24.8-2.3,24.8-4.4v-6.6c-1.5,1.7-7.1,2.6-10.6,3.1c-4.2,0.5-9.1,0.8-14.2,0.8
					c-5.1,0-10-0.3-14.2-0.8C524.8,392.8,519.3,391.8,517.7,390.1z"/>
				<path class="st15" d="M567.5,365.6c0,1.3-0.4,2.6-1.3,3.8c-1,1.4-2.5,2.7-4.4,3.8c-4.6,2.7-11.5,4.3-19.3,4.3
					c-7.8,0-14.7-1.7-19.3-4.3c-1.9-1.1-3.4-2.4-4.4-3.8c-0.8-1.2-1.3-2.5-1.3-3.8c0-6.6,11.2-11.9,25-11.9
					C556.3,353.7,567.5,359.1,567.5,365.6L567.5,365.6z"/>
				<path d="M542.5,385.2c-13.9,0-25.2-5.4-25.2-12.1v-7.5h0.4c0,1.2,0.4,2.5,1.3,3.7c0.9,1.3,2.4,2.6,4.3,3.7
					c4.7,2.7,11.7,4.3,19.2,4.3c7.5,0,14.5-1.6,19.2-4.3c1.9-1.1,3.4-2.4,4.3-3.7c0.8-1.2,1.3-2.4,1.3-3.7h0.4v7.5
					C567.7,379.8,556.4,385.2,542.5,385.2z M517.7,367.8v5.3c0,6.4,11.1,11.7,24.8,11.7s24.8-5.2,24.8-11.7v-5.3
					c-0.2,0.6-0.5,1.1-0.9,1.7c-1,1.4-2.5,2.7-4.4,3.8c-4.8,2.8-11.9,4.4-19.4,4.4c-7.5,0-14.6-1.6-19.4-4.4c-2-1.1-3.5-2.4-4.4-3.8
					C518.3,368.9,518,368.4,517.7,367.8z"/>
				<path d="M542.5,377.7c-7.5,0-14.6-1.6-19.4-4.4c-2-1.1-3.5-2.4-4.4-3.8c-0.9-1.3-1.3-2.6-1.3-3.9c0-6.7,11.3-12.1,25.2-12.1
					c13.9,0,25.2,5.4,25.2,12.1c0,1.3-0.4,2.6-1.3,3.9c-1,1.4-2.5,2.7-4.4,3.8C557.1,376.1,550,377.7,542.5,377.7z M542.5,353.9
					c-13.7,0-24.8,5.2-24.8,11.7c0,1.2,0.4,2.5,1.3,3.7c0.9,1.3,2.4,2.6,4.3,3.7c4.7,2.7,11.7,4.3,19.2,4.3c7.5,0,14.5-1.6,19.2-4.3
					c1.9-1.1,3.4-2.4,4.3-3.7c0.8-1.2,1.3-2.4,1.3-3.7C567.3,359.2,556.2,353.9,542.5,353.9z"/>
				<path class="st15" d="M807,309.3v-5.4v0l-1.6-0.5V298l0,0h0l-5.2-1.8l-5.2-1.8l-5.2-1.8l0,0l-5.2-1.8l-5.2-1.8l-3.6,4.1
					l-5.2-1.8l-3.6,4.1l-5.2-1.8l-3.6,4.1l-3.6,4.1l-3.6,4.1l-3.6,4.1l-3.6,4.1v5.4l1.6,0.6v5.4l1.6,0.6v5.4l5.2,1.8l5.2,1.8
					l5.2,1.8l5.2,1.8l5.2,1.8l3.6-4.1l5.2,1.8l3.6-4.1l5.2,1.8h0l3.6-4.1l14.3-16.5v-5.4L807,309.3z"/>
				<path d="M776.9,331l0,5.4l5.1,1.7l0-5.3L776.9,331z"/>
				<path d="M751,327.4l0-5.3l-5-1.8l0,5.4l1.5,0.5l0,5.3l25.8,8.9l0-5.4L751,327.4z"/>
				<path d="M785.6,328.7l0,5.4l5.1,1.7l0-5.3L785.6,328.7z"/>
				<path d="M807,303.9l-5-1.8l0,5.4l5.1,1.7L807,303.9z"/>
				<path d="M805.5,298l-5-1.8l0,5.4l5.1,1.7L805.5,298z"/>
				<path d="M749.4,316.1l-5.2-1.8v5.4l4.4,1.6L749.4,316.1z"/>
				<path d="M790,298.2C790,298.2,789.9,298.2,790,298.2l-5.2-1.8c-0.1,0-0.2-0.2-0.1-0.3c0-0.1,0.2-0.2,0.3-0.1l5.2,1.8
					c0.1,0,0.2,0.2,0.1,0.3C790.1,298.1,790,298.2,790,298.2L790,298.2z"/>
				<path class="st15" d="M808.6,309.8L805,314l-3.6,4.1l-3.6,4.1l-3.6,4.1l-3.6,4.1h0l-5.2-1.8l-3.6,4.1l-5.2-1.8l-3.6,4.1
					l-5.2-1.8l-5.2-1.8l-5.2-1.8l-5.2-1.8l-5.2-1.8l3.6-4.1l-5.2-1.8l3.6-4.1l-5.2-1.8l3.6-4.1l3.6-4.1l3.6-4.1l3.6-4.1l3.6-4.1
					l5.2,1.8l3.6-4.1l5.2,1.8l3.6-4.1l5.2,1.8l5.2,1.8l0,0l5.2,1.8l5.2,1.8l5.2,1.8h0l-3.6,4.1l5.2,1.8l-3.6,4.1L808.6,309.8z"/>
				<path d="M790.7,336.1C790.7,336.1,790.6,336.1,790.7,336.1c-0.2,0-0.2-0.1-0.2-0.2v-5.4c0,0,0-0.1,0-0.1l17.9-20.6
					c0.1-0.1,0.1-0.1,0.2-0.1c0.1,0,0.1,0.1,0.1,0.2v5.4c0,0,0,0.1,0,0.1l-14.3,16.5c0,0,0,0,0,0l-3.6,4.1
					C790.8,336,790.8,336.1,790.7,336.1z M790.9,330.5v4.8l3.2-3.7c0,0,0,0,0,0l14.3-16.4v-4.8L790.9,330.5L790.9,330.5z"/>
				<path d="M773.2,340.7C773.2,340.7,773.2,340.7,773.2,340.7l-25.9-9c-0.1,0-0.1-0.1-0.1-0.2v-5.2l-1.4-0.5
					c-0.1,0-0.1-0.1-0.1-0.2v-5.2l-1.4-0.5c-0.1,0-0.1-0.1-0.1-0.2v-5.4c0-0.1,0.1-0.2,0.2-0.2c0.1,0,0.2,0.1,0.2,0.2v5.3l1.4,0.5
					c0.1,0,0.1,0.1,0.1,0.2v5.2l1.4,0.5c0.1,0,0.1,0.1,0.1,0.2v5.2l25.5,8.9l3.5-4c0.1-0.1,0.1-0.1,0.2-0.1l5,1.8l3.5-4
					c0.1-0.1,0.1-0.1,0.2-0.1l4.9,1.7v-5.1c0,0,0-0.1,0-0.1l14.3-16.5c0.1-0.1,0.2-0.1,0.3,0c0.1,0.1,0.1,0.2,0,0.3l-14.3,16.4v5.3
					c0,0.1-0.1,0.2-0.3,0.2l-5-1.8l-3.5,4c-0.1,0.1-0.1,0.1-0.2,0.1l-5-1.8l-3.5,4C773.3,340.7,773.3,340.7,773.2,340.7L773.2,340.7
					z"/>
				<path d="M773.2,340.7c-0.1,0-0.2-0.1-0.2-0.2v-5.4c0-0.1,0.1-0.2,0.2-0.2c0.1,0,0.2,0.1,0.2,0.2v5.4
					C773.4,340.6,773.3,340.7,773.2,340.7z"/>
				<path d="M776.8,336.6c-0.1,0-0.2-0.1-0.2-0.2V331c0-0.1,0.1-0.2,0.2-0.2c0.1,0,0.2,0.1,0.2,0.2v5.4
					C777,336.5,776.9,336.6,776.8,336.6z"/>
				<path d="M782,338.4c-0.1,0-0.2-0.1-0.2-0.2v-5.4c0-0.1,0.1-0.2,0.2-0.2c0.1,0,0.2,0.1,0.2,0.2v5.4
					C782.2,338.3,782.1,338.4,782,338.4z"/>
				<path d="M785.5,334.3c-0.1,0-0.2-0.1-0.2-0.2v-5.4c0-0.1,0.1-0.2,0.2-0.2c0.1,0,0.2,0.1,0.2,0.2v5.4
					C785.7,334.2,785.6,334.3,785.5,334.3z"/>
				<path d="M773.2,335.3C773.2,335.3,773.2,335.3,773.2,335.3l-25.9-9c-0.1,0-0.1-0.1-0.1-0.1c0-0.1,0-0.1,0-0.2l3.4-3.9l-4.9-1.7
					c-0.1,0-0.1-0.1-0.1-0.1c0-0.1,0-0.1,0-0.2l3.4-3.9l-4.9-1.7c-0.1,0-0.1-0.1-0.1-0.1c0-0.1,0-0.1,0-0.2l14.3-16.5c0,0,0,0,0,0
					l3.6-4.1c0.1-0.1,0.1-0.1,0.2-0.1l5,1.8l3.5-4c0.1-0.1,0.1-0.1,0.2-0.1l5,1.7l3.5-4c0.1-0.1,0.1-0.1,0.2-0.1l5.1,1.8
					c0,0,0,0,0,0l15.5,5.4c0,0,0,0,0,0l5.1,1.8c0.1,0,0.1,0.1,0.1,0.1c0,0.1,0,0.2,0,0.2l-3.4,3.9l4.9,1.7c0.1,0,0.1,0.1,0.1,0.1
					c0,0.1,0,0.2,0,0.2l-3.4,3.9l4.9,1.7c0.1,0,0.1,0.1,0.1,0.1c0,0.1,0,0.1,0,0.2l-14.3,16.5c0,0,0,0,0,0l-3.6,4.1
					c-0.1,0.1-0.2,0.1-0.2,0.1l-5-1.8l-3.5,4c-0.1,0.1-0.1,0.1-0.2,0.1l-5-1.8l-3.5,4C773.3,335.3,773.3,335.3,773.2,335.3
					L773.2,335.3z M747.8,326l25.4,8.8l3.5-4c0.1-0.1,0.1-0.1,0.2-0.1l5,1.8l3.5-4c0.1-0.1,0.1-0.1,0.2-0.1l5,1.8l3.5-4c0,0,0,0,0,0
					l14.1-16.3l-4.9-1.7c-0.1,0-0.1-0.1-0.1-0.1c0-0.1,0-0.1,0-0.2l3.4-3.9l-4.9-1.7c-0.1,0-0.1-0.1-0.1-0.1c0-0.1,0-0.1,0-0.2
					l3.4-3.9l-4.9-1.7c0,0,0,0,0,0l-15.5-5.4c0,0,0,0,0,0l-5-1.8l-3.5,4c-0.1,0.1-0.1,0.1-0.2,0.1l-5-1.7l-3.5,4
					c-0.1,0.1-0.1,0.1-0.2,0.1l-5-1.8l-3.5,4c0,0,0,0,0,0l-14.1,16.3l4.9,1.7c0.1,0,0.1,0.1,0.1,0.1c0,0.1,0,0.1,0,0.2l-3.4,3.9
					l4.9,1.7c0.1,0,0.1,0.1,0.1,0.1c0,0.1,0,0.1,0,0.2L747.8,326L747.8,326z"/>
				<path d="M805.4,303.5c-0.1,0-0.2-0.1-0.2-0.2V298c0-0.1,0.1-0.2,0.2-0.2c0.1,0,0.2,0.1,0.2,0.2v5.4
					C805.7,303.5,805.6,303.5,805.4,303.5z"/>
				<path d="M807,309.5c-0.1,0-0.2-0.1-0.2-0.2v-5.4c0-0.1,0.1-0.2,0.2-0.2c0.1,0,0.2,0.1,0.2,0.2v5.4
					C807.2,309.4,807.1,309.5,807,309.5z"/>
				<path d="M756.3,310.5l-3.6,4.1l5.2,1.8l3.6-4.1L756.3,310.5z"/>
				<path d="M757.9,316.4l-3.6,4.1l5.2,1.8l3.6-4.1L757.9,316.4z"/>
				<path d="M763.1,318.2l-3.6,4.1l5.2,1.8l3.6-4.1L763.1,318.2z"/>
				<path d="M768.2,320l-3.6,4.1l5.2,1.8l3.6-4.1L768.2,320z"/>
				<path d="M770.7,307.1l-2.8,3.2l4,1.4l2.8-3.2L770.7,307.1z"/>
				<path d="M779.5,310.2l-2.8,3.2l4,1.4l2.8-3.2L779.5,310.2z"/>
				<path d="M773.4,321.8l-3.6,4.1l5.2,1.8l3.6-4.1L773.4,321.8z"/>
				<path d="M775.7,295.8l-3.6,4.1l5.2,1.8l3.6-4.1L775.7,295.8z"/>
				<path d="M780.9,297.6l-3.6,4.1l5.2,1.8l3.6-4.1L780.9,297.6z"/>
				<path d="M786,299.4l-3.6,4.1l5.2,1.8l3.6-4.1L786,299.4z"/>
				<path d="M791.2,301.2l-3.6,4.1l5.2,1.8l3.6-4.1L791.2,301.2z"/>
				<path d="M759.9,306.4l-3.6,4.1l5.2,1.8l3.6-4.1L759.9,306.4z"/>
				<path d="M763.5,302.2l-3.6,4.1l5.2,1.8l3.6-4.1L763.5,302.2z"/>
				<path d="M767.1,298.1l-3.6,4.1l5.2,1.8l3.6-4.1L767.1,298.1z"/>
				<path d="M782.1,319.5l-3.6,4.1l5.2,1.8l3.6-4.1L782.1,319.5z"/>
				<path d="M785.7,315.4l-3.6,4.1l5.2,1.8l3.6-4.1L785.7,315.4z"/>
				<path d="M792.8,307.1l-3.6,4.1l5.2,1.8l3.6-4.1L792.8,307.1z"/>
				<path class="st15" d="M678.2,374.8l10.5,27.6l2.5-12l13.5-0.1L678.2,374.8z"/>
				<path d="M688.8,403.1l-11-28.8l27.6,16.1l-14.1,0.1L688.8,403.1L688.8,403.1z M678.6,375.2l10.1,26.4l2.4-11.5L704,390
					L678.6,375.2L678.6,375.2z"/>
			</g>
		</g>
	</g>
</g>
</svg>
