<svg width="17" height="16" viewBox="0 0 17 16" fill="none" xmlns="http://www.w3.org/2000/svg">
<g clip-path="url(#clip0_2578_28811)">
<path fill-rule="evenodd" clip-rule="evenodd" d="M8.66642 1.3335C12.3484 1.3335 15.3331 4.31816 15.3331 8.00016C15.3331 11.6822 12.3484 14.6668 8.66642 14.6668C4.98442 14.6668 1.99976 11.6822 1.99976 8.00016C1.99976 4.31816 4.98442 1.3335 8.66642 1.3335ZM8.66642 2.66683C7.25193 2.66683 5.89538 3.22873 4.89519 4.22893C3.89499 5.22912 3.33309 6.58567 3.33309 8.00016C3.33309 9.41465 3.89499 10.7712 4.89519 11.7714C5.89538 12.7716 7.25193 13.3335 8.66642 13.3335C10.0809 13.3335 11.4375 12.7716 12.4377 11.7714C13.4379 10.7712 13.9998 9.41465 13.9998 8.00016C13.9998 6.58567 13.4379 5.22912 12.4377 4.22893C11.4375 3.22873 10.0809 2.66683 8.66642 2.66683ZM7.72376 5.1715C7.95978 4.93563 8.27567 4.79683 8.60904 4.78251C8.94242 4.76819 9.26904 4.8794 9.52442 5.09416L9.60909 5.1715L11.4951 7.0575C11.731 7.29352 11.8698 7.60941 11.8841 7.94278C11.8984 8.27616 11.7872 8.60278 11.5724 8.85816L11.4951 8.94283L9.60909 10.8288C9.37306 11.0647 9.05717 11.2035 8.7238 11.2178C8.39043 11.2321 8.0638 11.1209 7.80842 10.9062L7.72376 10.8288L5.83776 8.94283C5.60189 8.7068 5.46309 8.39091 5.44877 8.05754C5.43445 7.72417 5.54566 7.39754 5.76042 7.14216L5.83776 7.0575L7.72376 5.1715ZM8.66642 6.11483L6.78109 8.00016L8.66642 9.8855L10.5518 8.00016L8.66642 6.11483Z" fill="#EFEFE5" fill-opacity="0.8"/>
</g>
<defs>
<clipPath id="clip0_2578_28811">
<rect width="16" height="16" fill="white" transform="translate(0.666504)"/>
</clipPath>
</defs>
</svg>
