<svg width="52" height="52" viewBox="0 0 52 52" fill="none" xmlns="http://www.w3.org/2000/svg">
<g clip-path="url(#clip0_2578_28741)">
<mask id="mask0_2578_28741" style="mask-type:alpha" maskUnits="userSpaceOnUse" x="0" y="0" width="52" height="52">
<rect x="0.5" y="0.5" width="51" height="51" rx="1.5" fill="#C4C4C4" stroke="#353539"/>
</mask>
<g mask="url(#mask0_2578_28741)">
<rect x="0.5" y="0.5" width="51" height="51" rx="1.5" fill="#111115" stroke="#111115"/>
</g>
<path d="M34 17C34.5304 17 35.0391 17.2107 35.4142 17.5858C35.7893 17.9609 36 18.4696 36 19V33C36 33.5304 35.7893 34.0391 35.4142 34.4142C35.0391 34.7893 34.5304 35 34 35H18C17.4696 35 16.9609 34.7893 16.5858 34.4142C16.2107 34.0391 16 33.5304 16 33V19C16 18.4696 16.2107 17.9609 16.5858 17.5858C16.9609 17.2107 17.4696 17 18 17H34ZM34 19H18V29.1L22.995 24.106C23.1111 23.9899 23.2489 23.8978 23.4006 23.8349C23.5522 23.7721 23.7148 23.7398 23.879 23.7398C24.0432 23.7398 24.2058 23.7721 24.3574 23.8349C24.5091 23.8978 24.6469 23.9899 24.763 24.106L28.828 28.172L30.066 26.934C30.1821 26.8179 30.3199 26.7258 30.4716 26.6629C30.6232 26.6001 30.7858 26.5678 30.95 26.5678C31.1142 26.5678 31.2768 26.6001 31.4284 26.6629C31.5801 26.7258 31.7179 26.8179 31.834 26.934L34 29.101V19ZM29.5 21C29.8978 21 30.2794 21.158 30.5607 21.4393C30.842 21.7206 31 22.1022 31 22.5C31 22.8978 30.842 23.2794 30.5607 23.5607C30.2794 23.842 29.8978 24 29.5 24C29.1022 24 28.7206 23.842 28.4393 23.5607C28.158 23.2794 28 22.8978 28 22.5C28 22.1022 28.158 21.7206 28.4393 21.4393C28.7206 21.158 29.1022 21 29.5 21Z" fill="#EFEFE5" fill-opacity="0.8"/>
</g>
<rect x="0.5" y="0.5" width="51" height="51" rx="1.5" stroke="#353539"/>
<defs>
<clipPath id="clip0_2578_28741">
<rect width="52" height="52" rx="2" fill="white"/>
</clipPath>
</defs>
</svg>
