<svg width="32" height="24" viewBox="0 0 32 24" fill="none" xmlns="http://www.w3.org/2000/svg">
<path d="M0 12C0 5.37258 5.37258 0 12 0L20 0C26.6274 0 32 5.37258 32 12C32 18.6274 26.6274 24 20 24H12C5.37258 24 0 18.6274 0 12Z" fill="#E5EFFF"/>
<path d="M23.7998 8.59347H23.1931C23.085 8.59347 22.9969 8.50537 22.9969 8.39724V7.79056C22.9969 7.68244 22.9088 7.59434 22.8027 7.59434H22.196C22.0878 7.59434 22.0018 7.50624 22.0018 7.39812V6.79144C22.0018 6.68332 21.9137 6.59522 21.8055 6.59522H21.1988C21.0907 6.59522 21.0026 6.50712 21.0026 6.399V5.79632C21.0026 5.6882 20.9145 5.6001 20.8064 5.6001H11.1896C11.0815 5.6001 10.9934 5.6882 10.9934 5.79632V6.403C10.9934 6.51112 10.9053 6.59922 10.7971 6.59922H10.1905C10.0823 6.59922 9.99424 6.68732 9.99424 6.79544V7.40213C9.99424 7.51025 9.90614 7.59835 9.79802 7.59835H9.19134C9.08322 7.59835 8.99512 7.68644 8.99512 7.79457V12.3937C8.99512 12.5019 8.90702 12.59 8.7989 12.59H8.19622C8.0881 12.59 8 12.6781 8 12.7862V15.4191C8 15.5273 8.0881 15.6154 8.19622 15.6154H8.8029C8.91102 15.6154 8.99912 15.7035 8.99912 15.8116V16.4183C8.99912 16.5264 9.08722 16.6145 9.19534 16.6145H9.80203C9.91015 16.6145 9.99825 16.7026 9.99825 16.8107V17.4174C9.99825 17.5255 10.0863 17.6136 10.1945 17.6136H10.8012C10.9093 17.6136 10.9974 17.7017 10.9974 17.8098V18.4165C10.9974 18.5246 11.0855 18.6127 11.1936 18.6127H21.8095C21.9177 18.6127 22.0058 18.5246 22.0058 18.4165V17.8098C22.0058 17.7017 22.0939 17.6136 22.2 17.6136H22.8067C22.9148 17.6136 23.0009 17.5255 23.0009 17.4174V14.8145C23.0009 14.7063 23.089 14.6182 23.1971 14.6182H23.8038C23.9119 14.6182 24 14.5301 24 14.422V12.7862C24 12.6781 23.9119 12.59 23.8038 12.59H23.1971C23.089 12.59 23.0009 12.5019 23.0009 12.3937V10.818C23.0009 10.7098 23.089 10.6217 23.1971 10.6217H23.8038C23.9119 10.6217 24 10.5336 24 10.4255V8.78969C24 8.68156 23.9119 8.59347 23.8038 8.59347H23.7998ZM11.0234 12.8102C11.0234 12.7021 11.1115 12.614 11.2196 12.614H11.7963C11.9044 12.614 11.9925 12.7021 11.9925 12.8102V13.3869C11.9925 13.495 11.9044 13.5831 11.7963 13.5831H11.2196C11.1115 13.5831 11.0234 13.495 11.0234 13.3869V12.8102ZM21.9697 17.3794C21.9697 17.4875 21.8816 17.5756 21.7735 17.5756H11.2196C11.1115 17.5756 11.0234 17.4875 11.0234 17.3794V15.7735C11.0234 15.6654 10.9353 15.5773 10.8272 15.5773H9.22338C9.11525 15.5773 9.02716 15.4892 9.02716 15.3811V13.8053C9.02716 13.6972 9.11525 13.6091 9.22338 13.6091H10.7991C10.9073 13.6091 10.9954 13.6972 10.9954 13.8053V14.412C10.9954 14.5201 11.0835 14.6082 11.1916 14.6082H11.7983C11.9064 14.6082 11.9945 14.6963 11.9945 14.8045V15.4111C11.9945 15.5193 12.0826 15.6074 12.1907 15.6074H15.8208C15.9289 15.6074 16.017 15.5193 16.017 15.4111V14.8045C16.017 14.6963 16.1051 14.6082 16.2132 14.6082H16.8199C16.928 14.6082 17.0161 14.5201 17.0161 14.412V13.8053C17.0161 13.6972 17.1042 13.6091 17.2124 13.6091H17.789C17.8971 13.6091 17.9852 13.6972 17.9852 13.8053V14.412C17.9852 14.5201 18.0733 14.6082 18.1815 14.6082H18.7881C18.8963 14.6082 18.9844 14.6963 18.9844 14.8045V15.4111C18.9844 15.5193 19.0725 15.6074 19.1806 15.6074H21.7835C21.8916 15.6074 21.9797 15.6955 21.9797 15.8036V17.3794H21.9697ZM21.9697 12.3897C21.9697 12.4979 21.8816 12.586 21.7735 12.586H12.2167C12.1086 12.586 12.0205 12.4979 12.0205 12.3897V10.814C12.0205 10.7058 12.1086 10.6177 12.2167 10.6177H12.8234C12.9315 10.6177 13.0196 10.5296 13.0196 10.4215V9.81484C13.0196 9.70672 13.1077 9.61862 13.2159 9.61862H14.7916C14.8998 9.61862 14.9879 9.70672 14.9879 9.81484V10.4215C14.9879 10.5296 15.076 10.6177 15.1841 10.6177H15.7908C15.8989 10.6177 15.987 10.7058 15.987 10.814V11.4206C15.987 11.5288 16.0751 11.6169 16.1832 11.6169H21.7795C21.8876 11.6169 21.9757 11.705 21.9757 11.8131V12.3897H21.9697Z" fill="#0066FF"/>
</svg>
