<svg width="32" height="24" viewBox="0 0 32 24" fill="none" xmlns="http://www.w3.org/2000/svg">
<path d="M0 12C0 5.37258 5.37258 0 12 0L20 0C26.6274 0 32 5.37258 32 12C32 18.6274 26.6274 24 20 24H12C5.37258 24 0 18.6274 0 12Z" fill="#E5EFFF"/>
<g clip-path="url(#clip0_1391_54003)">
<path d="M16 4.6665V19.3332M19.3333 7.33317H14.3333C13.7145 7.33317 13.121 7.579 12.6834 8.01659C12.2458 8.45417 12 9.04767 12 9.6665C12 10.2853 12.2458 10.8788 12.6834 11.3164C13.121 11.754 13.7145 11.9998 14.3333 11.9998H17.6667C18.2855 11.9998 18.879 12.2457 19.3166 12.6833C19.7542 13.1208 20 13.7143 20 14.3332C20 14.952 19.7542 15.5455 19.3166 15.9831C18.879 16.4207 18.2855 16.6665 17.6667 16.6665H12" stroke="#0066FF" stroke-width="1.6" stroke-linecap="round" stroke-linejoin="round"/>
</g>
<defs>
<clipPath id="clip0_1391_54003">
<rect width="16" height="16" fill="white" transform="translate(8 4)"/>
</clipPath>
</defs>
</svg>
