<svg width="25" height="24" viewBox="0 0 25 24" fill="none" xmlns="http://www.w3.org/2000/svg">
<g clip-path="url(#clip0_2964_22528)">
<path d="M12.4997 17.2504C12.2772 17.2504 12.0597 17.3164 11.8747 17.44C11.6897 17.5636 11.5455 17.7393 11.4603 17.9449C11.3752 18.1504 11.3529 18.3766 11.3963 18.5949C11.4397 18.8131 11.5469 19.0136 11.7042 19.1709C11.8615 19.3282 12.062 19.4354 12.2802 19.4788C12.4985 19.5222 12.7247 19.4999 12.9302 19.4148C13.1358 19.3296 13.3115 19.1854 13.4351 19.0004C13.5587 18.8154 13.6247 18.5979 13.6247 18.3754C13.6247 18.077 13.5062 17.7909 13.2952 17.5799C13.0842 17.3689 12.7981 17.2504 12.4997 17.2504ZM11.7497 9.0004H13.2497V15.7504H11.7497V9.0004Z" fill="#FFD058"/>
<path d="M22.2497 22.5004H2.7497C2.6209 22.5003 2.49428 22.4671 2.38205 22.4039C2.26981 22.3407 2.17574 22.2497 2.1089 22.1396C2.04206 22.0295 2.0047 21.9041 2.00041 21.7753C1.99613 21.6466 2.02507 21.5189 2.08445 21.4046L11.8344 2.65465C11.8978 2.53295 11.9933 2.43096 12.1106 2.35979C12.2279 2.28861 12.3625 2.25098 12.4997 2.25098C12.6369 2.25098 12.7715 2.28861 12.8888 2.35979C13.0061 2.43096 13.1016 2.53295 13.1649 2.65465L22.9149 21.4046C22.9743 21.5189 23.0033 21.6466 22.999 21.7753C22.9947 21.9041 22.9573 22.0295 22.8905 22.1396C22.8237 22.2497 22.7296 22.3407 22.6174 22.4039C22.5051 22.4671 22.3785 22.5003 22.2497 22.5004ZM3.9872 21.0004H21.0122L21.0129 20.9981L12.5012 4.6279H12.4982L3.9857 20.9981L3.9872 21.0004Z" fill="#FFD058"/>
</g>
<defs>
<clipPath id="clip0_2964_22528">
<rect width="24" height="24" fill="white" transform="translate(0.5)"/>
</clipPath>
</defs>
</svg>
