<svg width="164" height="59" viewBox="0 0 164 59" fill="none" xmlns="http://www.w3.org/2000/svg">
<path fill-rule="evenodd" clip-rule="evenodd" d="M68.3396 0.515923C68.1048 0.813628 67.9141 0.845363 67.6888 0.62352C67.2485 0.190108 65.2966 1.33197 64.9844 2.20544C64.8062 2.70323 64.7858 2.57689 64.9031 1.70463L65.0601 0.537986L63.943 0.770106C62.3095 1.10982 61.8359 1.14639 61.555 0.954472C61.1925 0.706938 59.5639 0.912763 59.2182 1.24976C59.0255 1.43775 58.8858 1.40239 58.8121 1.14609C58.7219 0.832669 58.534 0.828136 57.861 1.12252C57.2892 1.37247 56.8727 1.39423 56.5523 1.19113C56.1939 0.963539 55.9596 1.03849 55.5642 1.50727C55.1332 2.01835 54.8637 2.08515 53.9652 1.90501C53.3707 1.78563 52.7696 1.73334 52.6294 1.78865C52.4892 1.84366 51.7436 1.9307 50.9725 1.98178C48.744 2.12958 48.6782 2.14106 48.6782 2.38437C48.6782 2.51161 48.3167 2.55241 47.8747 2.47564C47.1564 2.35052 47.0863 2.40431 47.2135 2.98129C47.3091 3.4147 47.2379 3.62687 46.9973 3.62687C46.8003 3.62687 46.6389 3.42286 46.6389 3.17351C46.6389 2.87127 46.384 2.72015 45.8741 2.72015C45.4324 2.72015 45.1094 2.87974 45.1094 3.09795C45.1091 3.33128 44.7145 3.49117 44.0767 3.51625C42.9018 3.56219 42.5299 3.8327 43.0775 4.24314C43.3314 4.43355 43.3497 4.52573 43.1338 4.52906C42.9587 4.53147 42.8152 4.7376 42.8152 4.98695C42.8152 5.2363 42.6431 5.44031 42.4328 5.44031C42.2225 5.44031 42.0504 5.2363 42.0504 4.98695C42.0504 4.7376 42.1651 4.53359 42.3053 4.53359C42.4455 4.53359 42.5603 4.39758 42.5603 4.23135C42.5603 3.77557 41.8697 3.86866 41.7155 4.34499C41.6334 4.59827 41.3425 4.70708 40.9721 4.62305C40.4098 4.49581 40.3716 4.56593 40.4682 5.5467C40.5676 6.55587 41.1985 7.26251 41.5202 6.72482C41.6015 6.58912 41.9836 6.45402 42.3691 6.425C42.7545 6.39599 43.2136 6.3567 43.3887 6.33766C43.5641 6.31862 43.9653 6.39689 44.2809 6.51144C44.7092 6.6671 44.8545 6.59788 44.8545 6.23852C44.8545 5.84712 44.9761 5.81236 45.5083 6.05234C46.4923 6.49573 47.4036 6.41956 47.4036 5.89367C47.4036 5.61168 47.6443 5.44031 48.0409 5.44031C48.4134 5.44031 48.6782 5.61409 48.6782 5.858C48.6782 6.43044 50.6948 6.46671 50.8789 5.8976C50.9523 5.67092 51.3189 5.49259 51.6934 5.50106C52.9906 5.53068 53.2667 5.43819 53.2667 4.97365C53.2667 4.71705 53.4102 4.52906 53.5853 4.55626C53.7607 4.58316 54.166 4.5892 54.4865 4.56925C54.9853 4.53873 55.0302 4.44775 54.7992 3.93606C54.5792 3.44825 54.6009 3.37088 54.9178 3.51474C55.1314 3.61206 55.306 3.88105 55.306 4.11257C55.306 4.34408 55.4658 4.53359 55.6611 4.53359C55.8564 4.53359 56.0815 4.73549 56.1615 4.98211C56.3746 5.64099 59.4489 5.466 60.1491 4.75513C60.6878 4.20838 61.3011 4.0358 61.0597 4.49913C60.983 4.64633 61.2083 4.8319 61.5606 4.91199C61.9126 4.99178 62.2634 4.93708 62.3399 4.79049C62.4164 4.6436 62.5856 4.6019 62.7161 4.69771C62.8467 4.79321 62.9535 4.72732 62.9535 4.55142C62.9535 4.37552 63.1898 4.23135 63.4783 4.23135C63.7669 4.23135 63.9323 4.36736 63.8457 4.53359C63.7488 4.71947 64.1108 4.8183 64.7866 4.79049C65.5192 4.76027 65.6563 4.70375 65.198 4.62094C64.7083 4.53238 64.5538 4.36434 64.6599 4.03641C64.7417 3.78343 64.8788 3.68974 64.9645 3.82816C65.2056 4.21835 66.2197 4.83583 66.6196 4.83583C66.817 4.83583 67.5068 4.24435 68.1525 3.52109C68.9562 2.62102 69.3263 2.3623 69.3263 2.70051C69.3263 2.97192 68.9802 3.43676 68.557 3.73296C67.6911 4.33955 67.7642 4.83583 68.7191 4.83583C69.1267 4.83583 69.2924 4.71312 69.179 4.49551C69.0518 4.2516 69.1303 4.24042 69.4551 4.45591C70.0289 4.83674 70.8558 4.59404 70.8558 4.04487C70.8558 3.81517 70.9705 3.62687 71.1107 3.62687C71.2509 3.62687 71.3657 3.80822 71.3657 4.02976C71.3657 4.66204 74.368 4.58981 74.5121 3.9542C74.6013 3.55977 74.6255 3.56854 74.65 4.00467C74.6841 4.61399 75.2016 4.70043 75.6482 4.1709C75.8802 3.89586 75.9541 3.89435 75.9541 4.16456C75.9541 4.55988 80.431 4.54266 80.967 4.14551C81.1302 4.02432 81.3221 4.09625 81.3935 4.3051C81.4929 4.59494 81.5842 4.58104 81.781 4.24586C81.9225 4.00437 81.9826 3.70001 81.9146 3.56914C81.8465 3.43858 81.9686 3.41258 82.1863 3.51142C82.404 3.61055 82.5819 3.85174 82.5819 4.04789C82.5819 4.43748 83.0688 4.52634 85.0036 4.49007C85.7046 4.47677 87.1959 4.49702 88.3175 4.5348C91.8904 4.65539 92.1109 4.64119 92.2113 4.28454C92.2794 4.04185 92.4262 4.07267 92.6898 4.38519C93.1696 4.954 94.748 4.96579 95.8724 4.40877C96.615 4.04094 96.8026 4.04094 97.2268 4.40877C97.8289 4.93103 98.3545 4.97909 97.9278 4.47314C97.5115 3.97958 97.5434 3.62687 98.0043 3.62687C98.2146 3.62687 98.3867 3.83088 98.3867 4.08023C98.3867 4.32958 98.5875 4.54477 98.8328 4.55807C99.078 4.57167 99.623 4.61489 100.044 4.65418C100.464 4.69347 100.893 4.58044 100.996 4.40302C101.121 4.18722 101.184 4.20536 101.187 4.45803C101.189 4.66597 101.449 4.83371 101.764 4.8313C102.163 4.82797 102.237 4.7509 102.007 4.57772C101.741 4.37794 101.75 4.25644 102.053 3.95843C102.36 3.65649 102.481 3.70122 102.706 4.20052C102.872 4.56714 103.136 4.74365 103.365 4.63968C103.575 4.54417 103.888 4.60401 104.062 4.77266C104.575 5.27166 105.416 5.31881 105.867 4.87421C106.141 4.60492 106.289 4.57832 106.289 4.79896C106.289 5.15892 107.113 5.26954 107.386 4.94615C107.753 4.51122 109.58 4.53963 109.79 4.98362C110.012 5.45361 111.104 5.58357 112.735 5.33422C113.266 5.25292 114.04 5.30218 114.455 5.44333C114.871 5.58478 115.211 5.59082 115.211 5.45693C115.211 5.32304 115.498 5.21363 115.848 5.21363C116.199 5.21363 116.486 5.3847 116.486 5.59384C116.486 6.04811 117.446 6.40778 117.561 5.99673C117.605 5.83926 118.07 5.59596 118.593 5.45602C119.447 5.22783 119.545 5.2641 119.545 5.80813C119.545 6.34461 119.654 6.38994 120.501 6.20255C121.026 6.08619 121.368 6.09707 121.259 6.22673C120.973 6.56826 122.67 7.19571 123.027 6.88078C123.2 6.72815 123.392 6.75142 123.488 6.93669C123.579 7.11109 124.086 7.25374 124.615 7.25374C125.145 7.25374 125.66 7.35167 125.761 7.47136C126.047 7.80986 128.556 7.81681 128.913 7.48042C129.142 7.26432 129.231 7.32205 129.231 7.68504C129.231 8.08913 129.474 8.18645 130.442 8.17044C131.108 8.15925 132.039 8.23814 132.51 8.34573C133.064 8.47207 133.433 8.41253 133.556 8.17739C133.702 7.89842 133.829 7.90779 134.102 8.21728C134.618 8.80393 135.78 9.36277 135.982 9.12249C136.299 8.7465 137.372 8.8807 137.512 9.31411C137.62 9.64929 137.728 9.66289 138.018 9.37758C138.385 9.0158 139.028 9.21769 138.814 9.62753C138.715 9.81764 139.434 9.85965 140.384 9.71881C140.559 9.69281 140.712 9.43349 140.723 9.14274C140.739 8.71991 140.773 8.70479 140.891 9.06718C140.973 9.31653 141.211 9.66984 141.42 9.8524C141.629 10.0349 141.725 10.3284 141.633 10.5043C141.53 10.7023 141.652 10.767 141.953 10.6736C142.22 10.5908 142.856 10.7576 143.365 11.0441C143.875 11.331 144.861 11.5658 145.556 11.5658C146.252 11.5658 146.821 11.6837 146.821 11.8275C146.821 11.9717 146.993 12.0896 147.203 12.0896C147.413 12.0896 147.585 11.9391 147.585 11.755C147.585 11.5709 147.757 11.4987 147.968 11.5945C148.178 11.69 148.35 11.6365 148.35 11.4757C148.35 10.9949 149.048 11.1445 149.215 11.661C149.444 12.3676 149.427 12.3918 148.714 12.3918C148.091 12.3918 148.081 12.4178 148.502 12.918C148.819 13.2928 148.976 13.3372 149.051 13.0722C149.122 12.8192 149.424 12.9428 149.994 13.4584C150.524 13.9381 150.995 14.1427 151.274 14.0157C151.535 13.897 151.805 13.987 151.936 14.2367C152.058 14.4688 152.361 14.6589 152.611 14.6589C152.862 14.6592 153.08 14.8294 153.098 15.0367C153.115 15.2443 153.144 15.5284 153.162 15.6678C153.251 16.3765 155.488 16.9399 155.488 16.2535C155.488 16.0504 155.666 16.1867 155.885 16.5564C156.103 16.9263 156.219 17.3491 156.143 17.496C155.957 17.8527 156.473 18.3072 157.343 18.5539C157.765 18.6736 158.332 19.2357 158.745 19.9442C159.127 20.5985 159.58 21.1389 159.753 21.1453C159.925 21.1516 160.145 21.5261 160.24 21.9779C160.336 22.4295 160.625 23.0678 160.884 23.3966C161.203 23.8026 161.294 24.194 161.167 24.6159C161.064 24.9574 161.005 25.7729 161.035 26.4275C161.066 27.0825 160.92 27.9275 160.711 28.3059C160.502 28.6843 160.331 29.2024 160.331 29.4578C160.331 29.7128 160.216 29.8875 160.076 29.8461C159.935 29.8044 159.675 30.1106 159.498 30.5262C159.32 30.9417 158.919 31.416 158.606 31.5801C158.293 31.7442 158.037 32.1114 158.037 32.3961C158.037 32.6811 157.875 33.0227 157.677 33.1557C157.478 33.2886 157.278 33.8055 157.231 34.3042C157.168 34.9646 157.005 35.2193 156.631 35.2417C155.957 35.2822 154.753 36.0417 153.964 36.9231C153.617 37.3111 153.303 37.5986 153.266 37.5614C153.077 37.3722 150.709 38.634 150.202 39.1941C150.025 39.3899 149.88 39.7118 149.88 39.9092C149.88 40.1147 149.67 40.2033 149.389 40.1162C149.12 40.0328 148.544 40.2208 148.109 40.5345C147.674 40.8479 147.153 41.1045 146.951 41.1045C146.749 41.1045 146.159 41.5464 145.64 42.0862C145.122 42.6263 144.487 43.0256 144.229 42.9739C143.9 42.9077 143.762 43.0661 143.762 43.5092C143.762 44.0399 143.655 44.1067 143.082 43.9362C142.52 43.7691 142.431 43.8202 142.564 44.2327C142.672 44.5661 142.593 44.7314 142.324 44.7314C142.072 44.7314 141.977 44.5628 142.069 44.2781C142.169 43.9698 142.056 43.8247 141.714 43.8247C141.438 43.8247 141.212 43.938 141.212 44.0765C141.212 44.2152 141.069 44.3515 140.894 44.3799C138.092 44.833 136.68 45.4725 136.575 46.3363C136.504 46.923 136.46 46.9408 136.125 46.514C135.746 46.0307 135.733 46.0323 133.522 46.8323C133.007 47.0185 132.157 47.2361 131.631 47.3156C131.106 47.3954 130.544 47.5906 130.383 47.7493C130.222 47.908 129.409 48.1271 128.577 48.2362C127.738 48.3462 126.529 48.7733 125.861 49.1958C124.894 49.8069 124.583 49.8846 124.283 49.5899C124.011 49.3218 123.774 49.31 123.401 49.5464C123.121 49.7241 122.501 49.8695 122.022 49.8695C121.544 49.8695 120.797 50.0798 120.362 50.337C119.875 50.6251 118.573 50.8617 116.974 50.953C115.545 51.0346 114.178 51.2271 113.936 51.381C113.694 51.5345 112.706 51.6823 111.741 51.7095C110.775 51.7367 109.524 51.9407 108.96 52.1632C108.395 52.3853 107.191 52.5918 106.283 52.622C105.127 52.6607 104.453 52.8426 104.033 53.2295C103.513 53.7091 103.386 53.7248 103.069 53.3483C102.803 53.0327 102.534 52.9907 102.083 53.1941C101.742 53.348 101.029 53.4631 100.498 53.4501C99.9676 53.4371 99.4191 53.4559 99.2789 53.4918C99.1387 53.5281 98.6627 53.5344 98.2212 53.5063C97.7797 53.4782 97.3428 53.6006 97.2502 53.778C97.1577 53.9555 96.8161 54.1008 96.4909 54.1008C96.1658 54.1008 95.7598 54.3009 95.5885 54.5457C95.3318 54.9126 95.2186 54.9211 94.943 54.5947C94.529 54.1036 91.6085 54.226 91.0691 54.757C90.78 55.0414 90.6551 55.0332 90.4912 54.7183C90.3347 54.4182 89.5669 54.3299 87.4493 54.3686C84.3528 54.4251 83.3508 54.708 83.339 55.5289C83.3316 56.0258 83.3107 56.0237 83.0543 55.5002C82.8302 55.0429 82.7344 55.0142 82.5521 55.3491C82.3754 55.674 82.2962 55.6305 82.1837 55.146C82.0864 54.7271 81.7998 54.507 81.2915 54.4611C80.8796 54.4239 80.5426 54.5137 80.5426 54.6609C80.5426 54.8081 80.1985 54.8806 79.7779 54.8226C79.3572 54.7646 79.0131 54.8404 79.0131 54.9912C79.0131 55.3832 78.2321 55.5325 77.4625 55.288C76.9672 55.1306 76.7298 55.2197 76.5045 55.6477C76.3396 55.9605 76.0107 56.2165 75.7737 56.2165C75.4382 56.2165 75.4104 56.1358 75.6482 55.8538C76.2967 55.0849 75.9437 54.8567 74.1654 54.8948C73.1817 54.9157 72.317 54.819 72.2444 54.6793C72.0506 54.3076 70.8979 55.0103 70.7697 55.5785C70.6815 55.9708 70.6542 55.9575 70.6305 55.5099C70.604 55.0139 70.3891 54.9628 68.6253 55.0357C67.5389 55.0804 66.3956 55.2234 66.0851 55.353C65.7527 55.492 65.4539 55.4609 65.3583 55.2778C65.2691 55.1064 65.0211 55.0459 64.8072 55.1433C64.5933 55.2406 64.2895 55.2016 64.1319 55.0565C63.3052 54.2949 62.2119 54.5633 61.8678 55.612C61.7498 55.9723 61.7151 55.9557 61.699 55.5316C61.6847 55.1535 61.4747 55.0015 60.9779 55.0106C60.5924 55.0172 59.9936 54.9855 59.6475 54.9395C58.9538 54.848 58.572 55.8079 59.1374 56.222C59.3092 56.348 59.3711 56.6025 59.2748 56.7871C59.0219 57.2722 58.6199 57.2003 58.6199 56.6699C58.6199 56.4205 58.5011 56.2165 58.3561 56.2165C58.1815 56.2165 58.1891 56.0016 58.379 55.5809C58.6553 54.9686 58.6186 54.9495 57.368 55.052C56.3945 55.1321 56.0705 55.055 56.0705 54.744C56.0708 54.4094 55.9966 54.4019 55.6884 54.7053C55.4564 54.9335 55.306 54.9577 55.306 54.7667C55.306 54.5823 54.6455 54.4502 53.7128 54.4481C52.8366 54.446 50.8389 54.3988 49.274 54.3435C47.7088 54.2885 46.4814 54.3456 46.5466 54.4708C46.7047 54.7736 45.8956 54.4103 45.1481 53.8424C44.714 53.513 44.4339 53.4737 44.1285 53.6995C43.8937 53.8732 43.4818 53.9065 43.1975 53.775C42.4466 53.4271 40.5357 53.4528 39.4024 53.8261C38.6555 54.0718 38.3646 54.0631 38.2224 53.7904C38.115 53.5843 37.3885 53.4102 36.5369 53.3866C35.2967 53.3525 34.9421 53.4616 34.4667 54.0253C33.7532 54.8712 33.262 54.9278 33.6902 54.1144C34.0512 53.4293 33.7736 52.9127 33.328 53.441C32.8888 53.9618 32.4995 53.8796 32.8735 53.3452C33.0481 53.0959 33.148 52.8849 33.0958 52.8765C33.0438 52.8683 32.2757 52.7858 31.3894 52.6933C29.9442 52.5425 29.7102 52.5984 29.1229 53.2373L28.468 53.9497L28.6363 53.1186C28.8196 52.213 28.8364 52.2236 27.0742 52.1351C26.4782 52.1048 25.9908 52.2046 25.9908 52.3566C25.9908 52.5086 25.8105 52.4192 25.5903 52.1577C25.3698 51.8966 24.9874 51.6829 24.7404 51.6829C24.4934 51.6829 24.2181 51.5959 24.1284 51.4898C24.0389 51.3834 23.5321 51.2619 23.0027 51.2199C20.5573 51.0246 18.9964 50.7402 18.6839 50.4329C18.4315 50.1844 18.237 50.2022 17.9334 50.5012C17.5862 50.8427 17.473 50.8227 17.1944 50.3709C16.9471 49.9701 16.8319 49.9354 16.7315 50.2313C16.6265 50.5402 16.5497 50.5447 16.3751 50.2527C16.2525 50.0481 15.8857 49.9414 15.5599 50.0158C15.2339 50.0904 14.3259 49.884 13.5417 49.5573C12.7579 49.2302 11.9113 49.0401 11.661 49.1344C11.3818 49.2393 11.2042 49.1517 11.2019 48.9075C11.1988 48.6143 11.1313 48.6288 10.9449 48.9628C10.7285 49.3508 10.6281 49.32 10.248 48.7497C10.0035 48.3834 9.1442 47.7865 8.3379 47.4232C7.5316 47.0602 6.87214 46.6733 6.87214 46.5636C6.87214 46.4539 6.47065 46.4194 5.97993 46.4874C5.15962 46.6011 5.08773 46.5467 5.08773 45.8146C5.08773 45.1675 4.94115 44.9838 4.30361 44.8327C3.75019 44.7015 3.32499 44.2814 2.85824 43.4046C2.49448 42.7212 2.22401 42.1161 2.25715 42.0593C2.29055 42.0025 2.15162 41.7985 1.94845 41.606C1.74554 41.4134 1.5077 40.4753 1.41976 39.5217C1.27955 37.9966 1.32187 37.7421 1.77205 37.4088C2.05348 37.2005 2.28366 36.7227 2.28366 36.347C2.28366 35.9716 2.39302 35.6642 2.5266 35.6642C2.66017 35.6642 2.96021 35.1882 3.19295 34.6064C3.42568 34.0246 3.77543 33.5486 3.96967 33.5486C4.16392 33.5486 4.32299 33.3772 4.32299 33.168C4.32299 32.9586 4.55241 32.6174 4.83282 32.4097C5.11322 32.2021 5.34265 31.7771 5.34265 31.4655C5.34265 31.1421 5.57487 30.8269 5.88409 30.7311C6.31948 30.596 6.39341 30.4119 6.26162 29.789C6.10153 29.0334 6.4296 28.713 6.74468 29.3172C6.83135 29.4834 6.99781 29.6195 7.11482 29.6195C7.43168 29.6195 7.66594 28.71 7.45283 28.3077C7.35087 28.1149 7.30014 27.7193 7.34067 27.4282C7.38095 27.1375 7.28535 26.8993 7.12807 26.8993C6.97079 26.8993 6.91088 27.0314 6.99501 27.1928C7.07913 27.3542 6.86067 27.5715 6.50939 27.6761C6.15812 27.7806 5.80149 28.1246 5.71686 28.4404C5.63248 28.7566 5.45634 29.015 5.32557 29.015C5.1948 29.015 5.08773 29.1806 5.08773 29.3831C5.08773 29.5856 4.7826 30.0622 4.40991 30.4421C4.03697 30.8218 3.60616 31.4383 3.45271 31.8116C3.29925 32.1852 2.80369 32.6947 2.35173 32.9441C1.899 33.1937 1.52759 33.6308 1.52453 33.917C1.52096 34.2534 1.38407 34.3749 1.13655 34.2625C0.692995 34.0606 0.654757 34.4078 1.00093 35.488C1.20537 36.1249 1.16 36.3134 0.738879 36.5806C0.458982 36.7583 0.300425 37.0385 0.386587 37.2038C0.472748 37.3689 0.396783 37.7131 0.217833 37.9688C-0.0240817 38.3146 -0.0358076 38.5694 0.172458 38.965C0.344016 39.2902 0.364154 39.6617 0.22497 39.9225C-0.0850064 40.5031 -0.070986 42.0113 0.244344 42.0113C0.384547 42.0113 0.508436 42.3854 0.519397 42.8424C0.530359 43.2994 0.597401 43.5037 0.668013 43.2958C0.834982 42.8058 1.21557 42.8058 1.17937 43.2958C1.13221 43.9335 2.10267 45.9404 2.45828 45.9404C2.64259 45.9404 2.7935 46.1317 2.7935 46.3653C2.7935 46.6322 2.97143 46.7353 3.27095 46.6425C3.59775 46.5412 3.92455 46.7882 4.30795 47.4265C4.61563 47.9391 5.08926 48.3583 5.35998 48.3583C5.63096 48.3583 5.85248 48.5623 5.85248 48.8116C5.85248 49.061 6.02454 49.265 6.23485 49.265C6.44515 49.265 6.61722 49.4125 6.61722 49.5923C6.61722 49.7725 6.76074 49.8574 6.93587 49.7812C7.11125 49.7051 7.22723 49.4947 7.19384 49.3137C7.16045 49.1326 7.30396 49.0622 7.51248 49.1571C7.721 49.252 7.8918 49.5038 7.8918 49.7162C7.8918 50.0934 9.34813 51.0784 9.90588 51.0784C10.0601 51.0784 10.186 51.1939 10.186 51.3347C10.186 51.4756 10.5416 51.6028 10.9765 51.6176C11.4112 51.6321 11.9712 51.8637 12.221 52.1317C12.5259 52.4588 12.8945 52.5537 13.3424 52.4204C13.7339 52.304 14.0098 52.3488 14.0098 52.5286C14.0098 52.6972 14.2392 52.764 14.5196 52.6773C15.0949 52.4987 15.1882 52.1115 14.7108 51.883C14.5357 51.7993 14.6504 51.7198 14.9657 51.7068C15.2973 51.6929 15.5393 51.8615 15.5393 52.1067C15.5393 52.6114 16.9589 53.331 17.7698 53.2373C18.0851 53.2011 18.3433 53.2978 18.3433 53.4525C18.3433 53.9201 19.1488 54.1347 19.5228 53.7669C19.7938 53.5 19.8728 53.5275 19.8728 53.8887C19.8728 54.2411 20.2621 54.3964 21.466 54.5246C22.3424 54.618 23.386 54.6796 23.7858 54.6621C24.4404 54.6331 24.4982 54.5463 24.3703 53.788C24.2703 53.1959 24.3445 52.8937 24.6206 52.768C25.2161 52.4972 25.2946 52.5461 25.122 53.0796C25.0002 53.4562 25.0823 53.5323 25.4771 53.4099C26.1317 53.2071 26.1368 53.5402 25.4878 54.0948C25.0246 54.4907 25.0173 54.5669 25.3925 55.0586C25.68 55.4352 25.926 55.5126 26.2278 55.3213C26.4703 55.1671 26.8098 55.1629 27.012 55.311C27.208 55.4546 27.4504 55.5123 27.5503 55.4388C27.6505 55.3654 28.0574 55.4534 28.4548 55.6344C28.8522 55.8154 29.7508 56.0243 30.4518 56.0989C31.1528 56.1733 31.9415 56.3129 32.2043 56.409C32.5156 56.5227 32.6216 56.4668 32.5079 56.2488C32.2464 55.7471 32.7631 55.846 33.1284 56.3676C33.5765 57.0081 33.8931 56.9301 33.8931 56.1796C33.8931 55.7103 33.9788 55.6175 34.2118 55.8333C34.3872 55.9959 34.9034 56.2776 35.3589 56.4592C36.1364 56.7693 36.1874 56.746 36.1874 56.085C36.1874 55.6347 36.3712 55.3234 36.6964 55.2224C37.0969 55.0982 37.1586 55.1638 36.9858 55.5301C36.6008 56.3453 37.5254 57.0897 38.9132 57.0824C39.5872 57.0788 40.6267 57.2085 41.2235 57.3702C41.8569 57.5418 42.367 57.5518 42.4494 57.3937C42.5269 57.245 42.4687 57.1232 42.3204 57.1232C42.172 57.1232 42.0504 57.0171 42.0504 56.8872C42.0504 56.5139 43.494 55.9669 43.8297 56.2129C44.0286 56.3586 43.9281 56.503 43.5379 56.6333L42.9426 56.8316L43.5228 57.4101C44.2595 58.1445 47.8574 58.2524 48.0858 57.547C48.2681 56.9839 48.6782 57.0044 48.6782 57.5766C48.6782 57.8553 48.9171 58.0299 49.2984 58.0299C49.8202 58.0299 49.9153 57.8882 49.8972 57.1383C49.8817 56.4867 49.7376 56.2223 49.3624 56.1561C48.9148 56.0769 48.8982 56.0173 49.2342 55.6894C49.56 55.3711 49.7134 55.5304 50.2322 56.7267L50.845 58.14L50.9895 57.2538C51.0691 56.7663 51.0451 56.0681 50.9368 55.7021C50.7838 55.1865 50.8231 55.0746 51.1109 55.2055C51.3151 55.2983 51.4841 55.5298 51.4861 55.7199C51.4884 55.9267 51.5794 55.8979 51.7127 55.6489C52.0258 55.0629 52.555 55.5419 52.3676 56.2419C52.2825 56.5605 52.3273 56.821 52.4675 56.821C52.6077 56.821 52.7953 57.093 52.8843 57.4255C52.9733 57.7579 53.2104 58.0299 53.4112 58.0299C53.6121 58.0299 53.7765 58.166 53.7765 58.3322C53.7765 58.7351 54.6998 58.7169 55.3552 58.3011C55.7587 58.0451 55.9313 58.0626 56.0993 58.3766C56.2691 58.6943 56.3188 58.6677 56.3218 58.2566C56.3264 57.6262 57.0165 57.5624 57.5801 58.1403C57.8016 58.3669 58.4129 58.6305 58.9385 58.7257C59.6842 58.8605 59.8945 58.7985 59.8945 58.444C59.8945 57.9879 60.5139 58.0686 61.4105 58.6408C61.6134 58.7704 62.0396 58.7592 62.3575 58.6157C62.7044 58.4594 62.996 58.4715 63.087 58.6459C63.3093 59.0724 64.9321 59.0007 65.0575 58.5589C65.135 58.2862 65.2648 58.2699 65.5248 58.5002C65.7229 58.6761 66.5439 58.8538 67.3495 58.8956C68.6447 58.9624 68.8853 58.8798 69.4326 58.1796L70.0516 57.388L70.1349 58.0868C70.2134 58.7432 70.319 58.7816 71.8755 58.72C72.7868 58.684 73.6472 58.6405 73.7874 58.6229C73.9276 58.6057 75.6085 58.6855 77.5229 58.7997C80.7883 58.995 81.0111 58.9732 81.1258 58.4434C81.2339 57.945 81.2518 57.9408 81.2778 58.4077C81.304 58.8795 81.5883 59.0706 82.1249 58.9769C82.5128 58.9089 89.8875 58.5697 90.548 58.5894C90.9335 58.6009 91.249 58.483 91.249 58.3273C91.249 58.1563 91.4836 58.1505 91.8438 58.3131C92.1711 58.4606 92.5909 58.4697 92.777 58.3334C92.9646 58.1959 93.3062 58.2267 93.5435 58.4026C93.8099 58.5997 94.3488 58.6272 94.9685 58.4751C95.5166 58.3406 96.0692 58.2606 96.1964 58.2971C96.3239 58.334 96.51 58.2068 96.6102 58.0148C96.7476 57.751 96.9268 57.7507 97.3397 58.0127C97.641 58.2037 97.9918 58.2835 98.1193 58.1901C98.247 58.0967 99.0696 57.9538 99.9478 57.8731C100.826 57.7921 101.618 57.5835 101.709 57.4094C101.8 57.2354 102.093 57.0978 102.361 57.1042C103.031 57.1196 103.783 57.1181 104.313 57.1006C104.559 57.0924 104.76 56.8902 104.76 56.6511C104.76 56.4121 104.932 56.2165 105.142 56.2165C105.352 56.2165 105.524 56.3525 105.524 56.5187C105.524 56.685 105.689 56.821 105.891 56.821C106.151 56.821 106.253 56.4677 106.243 55.5975C106.235 54.9244 106.299 54.2897 106.386 54.187C106.473 54.0842 106.544 54.3562 106.544 54.7918C106.544 55.6761 107.031 57.1232 107.329 57.1232C107.806 57.1232 108.328 56.7209 108.328 56.3531C108.328 55.6725 108.897 55.4893 109.247 56.0572C109.64 56.694 110.497 56.4468 110.275 55.7607C110.189 55.4972 110.273 55.3098 110.476 55.3098C110.667 55.3098 110.889 55.5138 110.97 55.7632C111.05 56.0125 111.378 56.2008 111.698 56.1815C112.13 56.1555 112.165 56.1107 111.833 56.0083C111.315 55.8478 111.229 55.3098 111.721 55.3098C111.905 55.3098 112.277 55.5026 112.549 55.7381C112.897 56.0406 113.137 56.0742 113.362 55.8523C113.587 55.6311 113.682 55.6426 113.682 55.891C113.682 56.1252 113.96 56.1821 114.51 56.0603C115.395 55.8641 115.695 55.8036 118.27 55.3031C119.181 55.1257 120.156 54.8558 120.437 54.7026C120.717 54.5497 121.233 54.4387 121.584 54.4563C122.495 54.5022 124.218 54.099 124.503 53.7732C124.636 53.6209 124.962 53.4964 125.228 53.4964C125.494 53.4964 126.016 53.2425 126.388 52.9318C126.849 52.5473 127.227 52.4443 127.574 52.6084C128.381 52.9895 128.718 52.9312 128.559 52.4385C128.466 52.1514 128.562 51.9852 128.822 51.9852C129.047 51.9852 129.231 52.1212 129.231 52.2874C129.231 52.4536 129.403 52.5896 129.614 52.5896C130.065 52.5896 130.07 52.5564 129.748 51.5514C129.586 51.0476 129.586 50.7762 129.748 50.7762C129.884 50.7762 129.996 50.9802 129.996 51.2296C129.996 51.4789 130.216 51.6829 130.485 51.6829C130.753 51.6829 131.011 51.8147 131.058 51.9758C131.108 52.1475 131.629 52.0613 132.316 51.7679C133.204 51.3885 133.561 51.0431 133.782 50.3488L134.074 49.4312L134.462 50.088C134.831 50.7133 134.9 50.7239 135.892 50.3092C136.464 50.0696 137.019 49.9366 137.124 50.0137C137.229 50.0904 137.264 49.8335 137.2 49.4424C137.088 48.7439 137.656 47.9497 137.829 48.5641C137.877 48.7364 138.066 49.1184 138.248 49.4134C138.54 49.8867 138.696 49.9064 139.577 49.5808C140.126 49.378 141.062 48.9522 141.656 48.6342C142.25 48.3163 142.912 48.056 143.127 48.056C143.341 48.056 143.971 47.716 144.526 47.3005C145.082 46.8849 145.702 46.5449 145.905 46.5449C146.108 46.5449 146.426 46.3747 146.611 46.1671C146.796 45.9594 147.333 45.7527 147.804 45.7083C148.275 45.6635 148.902 45.4257 149.199 45.1793C149.495 44.933 149.942 44.7314 150.191 44.7314C150.44 44.7314 150.644 44.5274 150.644 44.2781C150.644 44.0239 150.872 43.8247 151.162 43.8247C151.447 43.8247 151.746 43.6207 151.827 43.3713C151.907 43.122 152.251 42.918 152.59 42.918C153.013 42.918 153.282 42.6807 153.448 42.1624C153.685 41.4231 154.213 41.1103 154.213 41.709C154.213 42.156 154.705 42.0759 155.142 41.5579C155.352 41.3086 155.718 41.1045 155.955 41.1045C156.192 41.1045 156.5 40.8096 156.638 40.4493C156.777 40.0887 157.118 39.6468 157.398 39.467C157.677 39.2872 158.159 38.8341 158.469 38.46C158.779 38.0861 159.124 37.7742 159.235 37.7672C159.347 37.76 159.726 37.3272 160.076 36.8049C160.427 36.2826 161.03 35.4989 161.416 35.0637C162.354 34.0074 163.845 30.4597 163.131 30.9829C162.615 31.361 162.796 29.9323 163.454 28.435C163.849 27.534 164.083 26.718 163.973 26.6215C163.862 26.5248 163.772 25.5051 163.772 24.3553C163.771 22.9539 163.666 22.2231 163.453 22.1387C163.278 22.0695 163.135 21.835 163.135 21.6174C163.135 21.3994 162.974 21.148 162.777 21.0585C162.58 20.9688 162.342 20.4797 162.247 19.9717C162.153 19.4636 161.97 18.9704 161.841 18.8754C161.711 18.7808 161.602 18.4052 161.596 18.041C161.591 17.6768 161.333 17.0333 161.023 16.6111C160.25 15.5596 158.547 14.1022 158.547 14.4921C158.547 14.6668 158.375 14.8097 158.164 14.8097C157.954 14.8097 157.782 14.6955 157.782 14.5561C157.782 14.4165 157.495 14.1472 157.145 13.958C156.794 13.7685 156.505 13.3729 156.501 13.0782C156.495 12.5311 155.046 11.4851 154.294 11.4851C154.07 11.4851 153.724 11.2469 153.524 10.9562C153.275 10.5926 153.122 10.5394 153.034 10.7863C152.948 11.0293 152.74 10.9477 152.391 10.5333C152.032 10.1084 151.687 9.97752 151.259 10.1045C150.914 10.2072 150.644 10.154 150.644 9.98357C150.644 9.49031 148.816 8.27108 147.713 8.02838C147.152 7.90507 146.576 7.68897 146.432 7.54843C145.904 7.0316 143.241 6.1406 141.38 5.8583C140.797 5.77005 139.948 5.58266 139.492 5.44212C138.931 5.26924 138.663 5.29342 138.663 5.51738C138.663 5.69902 138.405 5.56513 138.09 5.21937C137.73 4.82495 137.041 4.5354 136.242 4.44141C135.541 4.3589 134.393 4.13917 133.692 3.95269C132.991 3.76651 131.754 3.56098 130.941 3.4957C130.129 3.43072 129.326 3.24665 129.157 3.08677C128.988 2.92689 128.046 2.78362 127.065 2.76821C125.306 2.74071 124.888 2.67875 124.133 2.3351C123.447 2.02289 121.074 1.89534 121.074 2.17068C121.074 2.31848 120.862 2.30488 120.603 2.14046C120.28 1.93494 120.041 1.95035 119.839 2.19033C119.617 2.45358 119.545 2.43575 119.545 2.11839C119.545 1.81223 119.457 1.83943 119.224 2.21813C118.862 2.80508 117.836 2.74917 117.51 2.12504C117.371 1.85756 117.037 1.78865 116.499 1.9162C115.953 2.04556 115.75 2.00173 115.866 1.77868C115.974 1.57316 115.819 1.58917 115.453 1.8216C114.97 2.12837 114.819 2.11144 114.58 1.72397C114.321 1.30386 114.262 1.30779 114.001 1.76115C113.733 2.22992 113.71 2.22811 113.697 1.73788C113.688 1.44712 113.653 1.19657 113.618 1.18145C113.583 1.16664 112.414 1.09411 111.021 1.02066C109.628 0.946916 108.347 0.748647 108.176 0.579997C107.962 0.369639 107.807 0.381426 107.685 0.616871C107.568 0.841132 107.183 0.884655 106.578 0.741695C105 0.368128 103.995 0.398654 103.995 0.820278C103.995 1.03396 103.88 1.20896 103.74 1.20896C103.6 1.20896 103.514 1.05602 103.549 0.868938C103.584 0.681852 103.326 0.492046 102.975 0.447012C102.625 0.401978 102.08 0.267179 101.764 0.14719C101.33 -0.01753 101.191 0.0483581 101.191 0.417997C101.191 0.68699 101.325 0.906718 101.488 0.906718C101.652 0.906718 101.7 1.00857 101.595 1.13279C101.49 1.25732 101.26 1.12524 101.083 0.839319C100.648 0.132683 99.4599 0.0831159 98.4211 0.728095C97.7456 1.1473 97.5019 1.18145 97.274 0.887979C97.0555 0.607199 97.0626 0.56821 97.3033 0.729001C97.4988 0.859871 97.6219 0.760434 97.6219 0.471191C97.6219 0.212172 97.4753 0 97.2964 0C96.9 0 95.8273 0.8233 95.3914 1.46193C95.1143 1.86814 95.0728 1.84003 95.0728 1.24644C95.0728 0.701195 94.97 0.602363 94.5629 0.755598C94.1997 0.89221 94.0531 0.810001 94.0531 0.469075C94.0531 0.11878 93.8308 0.00574242 93.2246 0.0474514C92.7688 0.0791866 92.2106 0.212474 91.9835 0.343948C91.7566 0.475423 91.5014 0.50081 91.4165 0.400165C91.3316 0.299217 90.2097 0.178019 88.9237 0.130567C87.1554 0.0655857 86.4398 0.157466 85.9884 0.508366C85.4872 0.89765 85.3694 0.904602 85.2552 0.551889C85.1122 0.110317 84.1754 0.0329438 83.6482 0.419206C83.4777 0.54403 83.3928 0.750762 83.4593 0.878307C83.5259 1.00585 83.4237 1.37579 83.2322 1.69979C82.935 2.20272 82.0869 2.3883 81.3074 2.12112C81.0919 2.04737 82.4397 1.41267 82.677 1.47644C82.7994 1.50908 82.8279 1.31535 82.7407 1.04545C82.6533 0.775848 82.5819 0.42918 82.5819 0.275642C82.5819 0.11334 81.7532 0.0704217 80.6063 0.173183C78.2762 0.381728 78.3177 0.382333 77.4199 0.128149C76.8836 -0.023877 76.7189 0.0401977 76.7189 0.400165C76.7189 0.817255 76.6391 0.821487 76.0179 0.43734C75.0581 -0.156258 73.1506 -0.117873 72.3942 0.51018C71.9586 0.87196 71.7506 0.915785 71.679 0.6613C71.5308 0.134496 70.2086 0.223657 69.8145 0.786729C69.5061 1.22739 69.439 1.21802 69.0735 0.682759C68.7319 0.182553 68.622 0.157467 68.3396 0.515923ZM71.6206 1.36008C71.6206 1.60942 71.5059 1.83036 71.3657 1.85122C71.2255 1.87207 70.992 1.90592 70.8467 1.92678C70.7011 1.94763 70.4735 2.16857 70.3406 2.41791C69.9978 3.06078 70.0103 2.25471 70.3549 1.49125C70.6657 0.802748 71.6206 0.703915 71.6206 1.36008ZM58.1101 1.94672C58.1101 2.02017 57.9954 2.16403 57.8552 2.26679C57.715 2.36956 57.6002 2.30941 57.6002 2.13351C57.6002 1.9576 57.715 1.81344 57.8552 1.81344C57.9954 1.81344 58.1101 1.87328 58.1101 1.94672ZM50.6013 3.60541C50.3507 4.08628 49.9469 3.69457 50.1251 3.14359C50.2233 2.84045 50.3622 2.78242 50.5253 2.97585C50.6627 3.13876 50.6969 3.42195 50.6013 3.60541ZM112.917 3.17351C112.917 3.42286 112.748 3.62687 112.542 3.62687C112.314 3.62687 112.225 3.44976 112.315 3.17351C112.396 2.92417 112.564 2.72015 112.689 2.72015C112.814 2.72015 112.917 2.92417 112.917 3.17351ZM115.575 2.94683C115.448 3.07166 115.259 3.30952 115.154 3.47575C115.046 3.64833 114.962 3.55101 114.96 3.24907C114.958 2.95499 115.145 2.72015 115.381 2.72015C115.615 2.72015 115.702 2.82201 115.575 2.94683ZM49.443 3.62687C49.443 3.7931 49.3282 3.92911 49.188 3.92911C49.0478 3.92911 48.9331 3.7931 48.9331 3.62687C48.9331 3.46064 49.0478 3.32463 49.188 3.32463C49.3282 3.32463 49.443 3.46064 49.443 3.62687ZM57.5312 3.50718C57.4465 3.60753 57.2265 3.61841 57.0427 3.53106C56.8393 3.43465 56.8997 3.36302 57.1967 3.34851C57.4654 3.33551 57.6158 3.40684 57.5312 3.50718ZM119.545 3.95208C119.545 4.09504 119.373 4.13403 119.162 4.03852C118.952 3.94271 118.78 3.74716 118.78 3.6039C118.78 3.46094 118.952 3.42195 119.162 3.51746C119.373 3.61327 119.545 3.80882 119.545 3.95208ZM124.898 3.62687C124.898 3.7931 124.697 3.927 124.452 3.92458C124.07 3.92065 124.061 3.87713 124.388 3.62687C124.869 3.25814 124.898 3.25814 124.898 3.62687ZM44.727 4.23135C44.8137 4.39758 44.763 4.53359 44.6146 4.53359C44.4663 4.53359 44.3447 4.39758 44.3447 4.23135C44.3447 4.06512 44.3951 3.92911 44.4571 3.92911C44.519 3.92911 44.6404 4.06512 44.727 4.23135ZM111.387 4.23135C111.387 4.39758 111.266 4.53359 111.117 4.53359C110.969 4.53359 110.918 4.39758 111.005 4.23135C111.092 4.06512 111.213 3.92911 111.275 3.92911C111.337 3.92911 111.387 4.06512 111.387 4.23135ZM117.749 4.97033C117.98 5.30158 117.991 5.44031 117.783 5.44031C117.622 5.44031 117.423 5.2363 117.343 4.98695C117.262 4.7376 117.036 4.53359 116.841 4.53359C116.645 4.53359 116.486 4.39275 116.486 4.22077C116.486 3.82937 117.28 4.30056 117.749 4.97033ZM114.377 4.4139C114.293 4.51425 114.073 4.52513 113.889 4.43778C113.685 4.34136 113.746 4.26973 114.043 4.25523C114.311 4.24223 114.462 4.31356 114.377 4.4139ZM39.6713 5.33966C39.3391 5.73318 39.5082 6.34703 39.9474 6.34249C40.3002 6.33886 40.3201 6.28265 40.0422 6.0738C39.849 5.92873 39.7697 5.65883 39.8661 5.47416C40.0588 5.10452 39.9392 5.02201 39.6713 5.33966ZM123.809 6.22734C123.724 6.32768 123.504 6.33856 123.321 6.25122C123.117 6.1548 123.178 6.08317 123.475 6.06866C123.743 6.05567 123.894 6.127 123.809 6.22734ZM124.643 6.64926C124.643 6.8155 124.528 6.9515 124.388 6.9515C124.248 6.9515 124.133 6.8155 124.133 6.64926C124.133 6.48303 124.248 6.34703 124.388 6.34703C124.528 6.34703 124.643 6.48303 124.643 6.64926ZM127.447 6.80038C127.447 7.04973 127.332 7.25374 127.192 7.25374C127.052 7.25374 126.937 7.04973 126.937 6.80038C126.937 6.55104 127.052 6.34703 127.192 6.34703C127.332 6.34703 127.447 6.55104 127.447 6.80038ZM134.585 7.42269C134.585 7.68171 134.47 7.80986 134.33 7.7071C134.189 7.60434 134.075 7.39247 134.075 7.23591C134.075 7.07935 134.189 6.9515 134.33 6.9515C134.47 6.9515 134.585 7.16368 134.585 7.42269ZM144.016 10.125C144.016 10.3744 143.844 10.5784 143.634 10.5784C143.424 10.5784 143.252 10.3744 143.252 10.125C143.252 9.87567 143.424 9.67166 143.634 9.67166C143.844 9.67166 144.016 9.87567 144.016 10.125ZM152.852 12.7696C152.782 12.9776 152.724 12.8074 152.724 12.3918C152.724 11.9762 152.782 11.8064 152.852 12.014C152.923 12.222 152.923 12.562 152.852 12.7696ZM32.746 16.3209C32.6593 16.4872 32.7101 16.6232 32.8584 16.6232C33.0068 16.6232 33.1284 16.4872 33.1284 16.3209C33.1284 16.1547 33.0779 16.0187 33.016 16.0187C32.954 16.0187 32.8327 16.1547 32.746 16.3209ZM29.3449 17.5299C29.3449 17.9455 29.4028 18.1156 29.4734 17.9077C29.5443 17.7 29.5443 17.36 29.4734 17.1521C29.4028 16.9444 29.3449 17.1143 29.3449 17.5299ZM23.9989 17.8968C23.6017 18.3677 23.6114 18.8259 24.0152 18.6524C24.1906 18.5771 24.5273 18.715 24.7639 18.9589C25.0004 19.2031 25.3158 19.3131 25.4649 19.204C25.8281 18.9377 25.81 18.4366 25.4374 18.4366C25.2732 18.4366 24.9502 18.2344 24.72 17.9875C24.397 17.6408 24.2321 17.6202 23.9989 17.8968ZM20.5703 19.2218C20.4864 19.3213 20.4793 19.5924 20.5545 19.8248C20.6641 20.1636 20.4652 20.2104 19.5509 20.0617C18.8249 19.9439 18.3466 19.9995 18.2345 20.2144C18.1376 20.4002 18.1799 20.5523 18.3283 20.5523C18.4766 20.5523 18.5982 20.8754 18.5982 21.2701C18.5982 21.8344 18.7346 21.9879 19.2355 21.9879C19.6844 21.9879 19.8728 21.8235 19.8728 21.4318C19.8728 20.8198 20.5827 20.2543 21.0839 20.4673C21.297 20.558 21.346 20.4277 21.2318 20.0747C21.115 19.7145 21.1555 19.6159 21.359 19.7649C21.5231 19.8852 21.6572 19.8541 21.6572 19.6957C21.6572 19.5374 21.4757 19.3255 21.2539 19.2245C20.7591 18.9994 20.7576 18.9994 20.5703 19.2218ZM22.167 19.8695C22.167 20.4268 22.6381 20.6115 23.1209 20.2437C23.4824 19.968 23.4888 19.9312 23.1541 20.0524C22.9257 20.1352 22.6103 20.0503 22.4531 19.8638C22.2417 19.6132 22.167 19.6147 22.167 19.8695ZM16.6864 20.8545C16.5997 21.0207 16.6504 21.1568 16.7988 21.1568C16.9471 21.1568 17.0687 21.3496 17.0687 21.585C17.0687 22.2055 17.6576 22.3455 17.9936 21.8048C18.2105 21.4557 18.1993 21.245 17.9479 20.9473C17.5526 20.4782 16.9071 20.4308 16.6864 20.8545ZM14.9657 21.6672C14.7202 21.7434 14.5196 22.0511 14.5196 22.3509C14.5196 22.6507 14.3261 23.0829 14.0895 23.3111C13.7151 23.672 13.6799 23.6605 13.8186 23.222C13.9131 22.9218 13.8295 22.6507 13.6113 22.5513C13.4099 22.4597 13.245 22.5165 13.245 22.6773C13.245 22.8384 13.0729 22.9702 12.8626 22.9702C12.6523 22.9702 12.4803 23.102 12.4803 23.2631C12.4803 23.4238 12.3199 23.4828 12.1236 23.3933C11.5542 23.1343 11.4828 23.6735 12.0031 24.3076C12.4239 24.8208 12.4803 24.8299 12.4803 24.3832C12.4803 24.1048 12.6523 23.8769 12.8626 23.8769C13.0729 23.8769 13.245 24.0903 13.245 24.3514C13.245 25.1451 14.3452 24.7443 14.5474 23.8769C14.6583 23.4015 14.7332 23.3175 14.749 23.6502C14.7776 24.2408 15.1627 24.355 15.4256 23.8506C15.5196 23.6699 15.8112 23.5886 16.0736 23.6699C16.4631 23.7905 16.5059 23.7197 16.3086 23.2824C16.1758 22.9883 16.1368 22.6649 16.2219 22.564C16.3914 22.3627 15.8293 21.4375 15.5719 21.494C15.4837 21.5134 15.2112 21.5914 14.9657 21.6672ZM16.5589 22.6679C16.2321 22.9182 16.2413 22.9617 16.6226 22.9657C16.8681 22.9681 17.0687 22.8342 17.0687 22.6679C17.0687 22.2992 17.0399 22.2992 16.5589 22.6679ZM9.88116 24.926C8.56885 25.9297 8.4312 26.1872 9.10264 26.3828C9.34787 26.4541 9.17606 26.4574 8.72027 26.39C7.86274 26.2631 7.57927 26.6926 8.30298 27.0217C8.56401 27.1405 8.66597 27.4285 8.58185 27.8096C8.50895 28.14 8.5533 28.4105 8.68051 28.4105C8.80745 28.4105 8.91146 28.1385 8.91146 27.806C8.91146 27.1471 9.09933 27.0649 9.65352 27.4808C10.0711 27.7942 10.9508 27.2544 10.9508 26.685C10.9508 26.468 11.1364 26.3846 11.3969 26.484C11.7566 26.6212 11.7721 26.5946 11.4769 26.3465C11.1784 26.0953 11.1708 25.9533 11.4354 25.5752C11.6987 25.1992 11.6956 25.0079 11.4191 24.5612C11.0951 24.0377 11.0191 24.0555 9.88116 24.926ZM4.70536 31.4329C4.7933 31.6015 4.60263 31.733 4.2743 31.7306C3.80066 31.7267 3.76039 31.6686 4.06807 31.4329C4.54247 31.0696 4.51596 31.0696 4.70536 31.4329ZM153.576 39.2911C153.662 39.4573 153.548 39.5933 153.321 39.5933C153.094 39.5933 152.979 39.4573 153.066 39.2911C153.153 39.1249 153.267 38.9889 153.321 38.9889C153.374 38.9889 153.489 39.1249 153.576 39.2911ZM149.203 42.4776C149.12 42.7342 148.997 42.8793 148.93 42.8001C148.863 42.7209 148.884 42.5109 148.977 42.3338C149.228 41.8514 149.375 41.9451 149.203 42.4776ZM148.438 44.2911C148.355 44.5477 148.232 44.6927 148.165 44.6135C148.099 44.5344 148.12 44.3243 148.212 44.1472C148.463 43.6648 148.61 43.7585 148.438 44.2911ZM142.487 45.3359C142.487 45.5021 142.365 45.6381 142.217 45.6381C142.069 45.6381 142.018 45.5021 142.105 45.3359C142.191 45.1697 142.313 45.0337 142.375 45.0337C142.437 45.0337 142.487 45.1697 142.487 45.3359ZM143.379 45.3359C143.466 45.5021 143.358 45.6381 143.139 45.6381C142.921 45.6381 142.742 45.5021 142.742 45.3359C142.742 45.1697 142.85 45.0337 142.982 45.0337C143.114 45.0337 143.293 45.1697 143.379 45.3359ZM126.427 51.3807C126.427 51.5469 126.313 51.6829 126.172 51.6829C126.032 51.6829 125.917 51.5469 125.917 51.3807C125.917 51.2144 126.032 51.0784 126.172 51.0784C126.313 51.0784 126.427 51.2144 126.427 51.3807ZM27.8603 54.1308C27.9771 54.2344 27.8912 54.4016 27.6691 54.5025C27.3783 54.6349 27.2653 54.5055 27.2653 54.041C27.2653 53.6862 27.3515 53.5187 27.4565 53.6692C27.5616 53.8195 27.7433 54.0274 27.8603 54.1308ZM32.2946 54.5856C32.2099 54.686 31.9899 54.6968 31.8062 54.6095C31.6027 54.5131 31.6631 54.4415 31.9601 54.4269C32.2288 54.414 32.3792 54.4853 32.2946 54.5856ZM94.8179 55.7632C94.8179 56.0237 94.5879 56.2165 94.2769 56.2165C93.8247 56.2165 93.788 56.1419 94.0531 55.7632C94.2277 55.5138 94.4712 55.3098 94.594 55.3098C94.7172 55.3098 94.8179 55.5138 94.8179 55.7632ZM66.9046 55.9143C66.9913 56.0805 66.8766 56.2165 66.6497 56.2165C66.4229 56.2165 66.3081 56.0805 66.3948 55.9143C66.4815 55.748 66.5962 55.612 66.6497 55.612C66.7033 55.612 66.818 55.748 66.9046 55.9143ZM56.8355 56.0285C56.8355 56.0911 56.6634 56.3117 56.4531 56.5187C56.1398 56.827 56.0708 56.8062 56.0708 56.4045C56.0708 56.1349 56.2428 55.9143 56.4531 55.9143C56.6634 55.9143 56.8355 55.9657 56.8355 56.0285ZM73.6599 56.0476C73.6599 56.121 73.5452 56.2649 73.405 56.3676C73.2648 56.4704 73.1501 56.4102 73.1501 56.2343C73.1501 56.0584 73.2648 55.9143 73.405 55.9143C73.5452 55.9143 73.6599 55.9741 73.6599 56.0476ZM62.3373 56.821C62.5362 56.821 62.6985 57.093 62.6985 57.4255C62.6985 57.7579 62.633 58.0299 62.553 58.0299C62.2601 58.0299 61.8048 57.2586 61.75 56.6699C61.7192 56.3374 61.7574 56.2356 61.8349 56.4432C61.9126 56.6511 62.1388 56.821 62.3373 56.821ZM51.7372 57.4255C51.7372 57.8151 51.8662 58.0293 52.0558 57.9544C52.2312 57.8852 52.3745 57.647 52.3745 57.4255C52.3745 57.2039 52.2312 56.9658 52.0558 56.8965C51.8662 56.8216 51.7372 57.0359 51.7372 57.4255ZM67.971 57.4823C67.8896 57.7232 67.8292 57.6515 67.817 57.2994C67.806 56.9809 67.8662 56.8026 67.9508 56.9029C68.0355 57.0032 68.0446 57.2641 67.971 57.4823ZM68.6891 58.3322C68.7757 58.4984 68.6676 58.6344 68.4492 58.6344C68.2307 58.6344 68.0518 58.4984 68.0518 58.3322C68.0518 58.166 68.1596 58.0299 68.2916 58.0299C68.4237 58.0299 68.6024 58.166 68.6891 58.3322Z" fill="#D01F36"/>
<path d="M27.2962 46.6364V10.2727H29.6257V46.6364H27.2962ZM34.0149 21.9062C33.8823 20.6657 33.3236 19.6998 32.3388 19.0085C31.3634 18.3172 30.0945 17.9716 28.532 17.9716C27.4335 17.9716 26.4912 18.1373 25.7053 18.4688C24.9193 18.8002 24.3179 19.25 23.9013 19.8182C23.4846 20.3864 23.2715 21.035 23.2621 21.7642C23.2621 22.3703 23.3994 22.8958 23.674 23.3409C23.9581 23.786 24.3416 24.1648 24.8246 24.4773C25.3075 24.7803 25.8426 25.036 26.4297 25.2443C27.0168 25.4527 27.6087 25.6278 28.2053 25.7699L30.9325 26.4517C32.031 26.7074 33.0869 27.053 34.1001 27.4886C35.1229 27.9242 36.0367 28.4735 36.8416 29.1364C37.656 29.7992 38.3 30.5994 38.7734 31.5369C39.2469 32.4744 39.4837 33.5729 39.4837 34.8324C39.4837 36.5369 39.0481 38.0379 38.1768 39.3352C37.3056 40.6231 36.0462 41.6316 34.3984 42.3608C32.7602 43.0805 30.7763 43.4403 28.4467 43.4403C26.1835 43.4403 24.2185 43.09 22.5518 42.3892C20.8946 41.6884 19.5973 40.6657 18.6598 39.321C17.7318 37.9763 17.2299 36.3381 17.1541 34.4062H22.3388C22.4145 35.4195 22.727 36.2623 23.2763 36.9347C23.8255 37.607 24.5405 38.1089 25.4212 38.4403C26.3113 38.7718 27.3056 38.9375 28.4041 38.9375C29.55 38.9375 30.5537 38.767 31.4155 38.4261C32.2867 38.0758 32.9685 37.5928 33.4609 36.9773C33.9534 36.3523 34.2043 35.6231 34.2138 34.7898C34.2043 34.0322 33.9818 33.4072 33.5462 32.9148C33.1106 32.4129 32.4998 31.9962 31.7138 31.6648C30.9373 31.3239 30.0282 31.0208 28.9865 30.7557L25.6768 29.9034C23.281 29.2879 21.3871 28.3551 19.995 27.1051C18.6125 25.8456 17.9212 24.1742 17.9212 22.0909C17.9212 20.3769 18.3852 18.8759 19.3132 17.5881C20.2507 16.3002 21.5244 15.3011 23.1342 14.5909C24.7441 13.8712 26.567 13.5114 28.603 13.5114C30.6674 13.5114 32.4761 13.8712 34.0291 14.5909C35.5916 15.3011 36.8179 16.2907 37.7081 17.5597C38.5982 18.8191 39.0575 20.268 39.0859 21.9062H34.0149ZM54.0114 43.3977C52.1174 43.3977 50.4223 43.0426 48.9261 42.3324C47.4299 41.6127 46.2415 40.6278 45.3608 39.3778C44.4896 38.1278 44.0256 36.6979 43.9688 35.0881H49.0824C49.1771 36.2812 49.6932 37.2566 50.6307 38.0142C51.5682 38.7623 52.6951 39.1364 54.0114 39.1364C55.0436 39.1364 55.9621 38.8996 56.767 38.4261C57.572 37.9527 58.2064 37.2945 58.6705 36.4517C59.1345 35.6089 59.3617 34.6477 59.3523 33.5682C59.3617 32.4697 59.1297 31.4943 58.6562 30.642C58.1828 29.7898 57.5341 29.1222 56.7102 28.6392C55.8864 28.1468 54.9394 27.9006 53.8693 27.9006C52.9981 27.8911 52.1411 28.0521 51.2983 28.3835C50.4555 28.715 49.7879 29.1506 49.2955 29.6903L44.5369 28.9091L46.0568 13.9091H62.9318V18.3125H50.4176L49.5795 26.0256H49.75C50.2898 25.3911 51.0521 24.8655 52.0369 24.4489C53.0218 24.0227 54.1013 23.8097 55.2756 23.8097C57.0369 23.8097 58.6089 24.2263 59.9915 25.0597C61.3741 25.8835 62.4631 27.0199 63.2585 28.4688C64.054 29.9176 64.4517 31.5748 64.4517 33.4403C64.4517 35.3627 64.0066 37.0767 63.1165 38.5824C62.2358 40.0786 61.0095 41.2576 59.4375 42.1193C57.875 42.9716 56.0663 43.3977 54.0114 43.3977ZM79.9631 43.554C77.6241 43.554 75.6165 42.9621 73.9403 41.7784C72.2737 40.5852 70.9905 38.8665 70.0909 36.6222C69.2008 34.3684 68.7557 31.6553 68.7557 28.483C68.7652 25.3106 69.215 22.6117 70.1051 20.3864C71.0047 18.1515 72.2879 16.447 73.9545 15.2727C75.6307 14.0985 77.6335 13.5114 79.9631 13.5114C82.2926 13.5114 84.2955 14.0985 85.9716 15.2727C87.6477 16.447 88.9309 18.1515 89.821 20.3864C90.7206 22.6212 91.1705 25.3201 91.1705 28.483C91.1705 31.6648 90.7206 34.3826 89.821 36.6364C88.9309 38.8807 87.6477 40.5947 85.9716 41.7784C84.3049 42.9621 82.3021 43.554 79.9631 43.554ZM79.9631 39.108C81.7813 39.108 83.2159 38.2131 84.267 36.4233C85.3277 34.6241 85.858 31.9773 85.858 28.483C85.858 26.1723 85.6165 24.2311 85.1335 22.6591C84.6506 21.0871 83.9688 19.9034 83.0881 19.108C82.2074 18.303 81.1657 17.9006 79.9631 17.9006C78.1544 17.9006 76.7244 18.8002 75.6733 20.5994C74.6222 22.3892 74.0919 25.017 74.0824 28.483C74.0729 30.803 74.3049 32.7538 74.7784 34.3352C75.2614 35.9167 75.9432 37.1098 76.8239 37.9148C77.7045 38.7102 78.7509 39.108 79.9631 39.108ZM106.643 43.554C104.304 43.554 102.296 42.9621 100.62 41.7784C98.9534 40.5852 97.6702 38.8665 96.7706 36.6222C95.8804 34.3684 95.4354 31.6553 95.4354 28.483C95.4448 25.3106 95.8946 22.6117 96.7848 20.3864C97.6844 18.1515 98.9676 16.447 100.634 15.2727C102.31 14.0985 104.313 13.5114 106.643 13.5114C108.972 13.5114 110.975 14.0985 112.651 15.2727C114.327 16.447 115.611 18.1515 116.501 20.3864C117.4 22.6212 117.85 25.3201 117.85 28.483C117.85 31.6648 117.4 34.3826 116.501 36.6364C115.611 38.8807 114.327 40.5947 112.651 41.7784C110.985 42.9621 108.982 43.554 106.643 43.554ZM106.643 39.108C108.461 39.108 109.896 38.2131 110.947 36.4233C112.007 34.6241 112.538 31.9773 112.538 28.483C112.538 26.1723 112.296 24.2311 111.813 22.6591C111.33 21.0871 110.648 19.9034 109.768 19.108C108.887 18.303 107.845 17.9006 106.643 17.9006C104.834 17.9006 103.404 18.8002 102.353 20.5994C101.302 22.3892 100.772 25.017 100.762 28.483C100.753 30.803 100.985 32.7538 101.458 34.3352C101.941 35.9167 102.623 37.1098 103.504 37.9148C104.384 38.7102 105.431 39.108 106.643 39.108ZM133.322 43.554C130.983 43.554 128.976 42.9621 127.3 41.7784C125.633 40.5852 124.35 38.8665 123.45 36.6222C122.56 34.3684 122.115 31.6553 122.115 28.483C122.125 25.3106 122.574 22.6117 123.464 20.3864C124.364 18.1515 125.647 16.447 127.314 15.2727C128.99 14.0985 130.993 13.5114 133.322 13.5114C135.652 13.5114 137.655 14.0985 139.331 15.2727C141.007 16.447 142.29 18.1515 143.18 20.3864C144.08 22.6212 144.53 25.3201 144.53 28.483C144.53 31.6648 144.08 34.3826 143.18 36.6364C142.29 38.8807 141.007 40.5947 139.331 41.7784C137.664 42.9621 135.661 43.554 133.322 43.554ZM133.322 39.108C135.141 39.108 136.575 38.2131 137.626 36.4233C138.687 34.6241 139.217 31.9773 139.217 28.483C139.217 26.1723 138.976 24.2311 138.493 22.6591C138.01 21.0871 137.328 19.9034 136.447 19.108C135.567 18.303 134.525 17.9006 133.322 17.9006C131.514 17.9006 130.084 18.8002 129.033 20.5994C127.982 22.3892 127.451 25.017 127.442 28.483C127.432 30.803 127.664 32.7538 128.138 34.3352C128.621 35.9167 129.303 37.1098 130.183 37.9148C131.064 38.7102 132.11 39.108 133.322 39.108Z" fill="white"/>
</svg>
