<svg width="32" height="32" viewBox="0 0 32 32" fill="none" xmlns="http://www.w3.org/2000/svg">
<circle cx="16" cy="16" r="16" fill="#2B6BF6"/>
<path d="M15.2342 5.01371C15.7763 4.72883 16.6012 4.72883 17.1433 5.01371L22.6751 7.9207C23.0016 8.09228 23.1809 8.34795 23.2131 8.61188H23.2183V23.2239C23.2112 23.5118 23.0301 23.7978 22.6751 23.9844L17.1433 26.8914C16.6012 27.1763 15.7763 27.1763 15.2342 26.8914L9.70244 23.9844C9.3489 23.7986 9.17925 23.5106 9.17085 23.2239C9.17001 23.1957 9.16991 23.1722 9.17071 23.1527L9.17067 8.70573C9.17011 8.68991 9.17006 8.67411 9.17052 8.65837L9.17085 8.61188L9.17332 8.61186C9.19789 8.34504 9.36906 8.0959 9.70244 7.9207L15.2342 5.01371ZM22.3475 16.7639L17.1433 19.4987C16.6012 19.7836 15.7763 19.7836 15.2342 19.4987L10.0414 16.77V23.195L15.2342 25.9094C15.5274 26.0654 15.8318 26.2173 16.1294 26.2367L16.1888 26.2386C16.4989 26.2396 16.7999 26.083 17.1052 25.9347L22.3475 23.1717V16.7639ZM8.2711 22.9063C8.2711 23.466 8.3365 23.834 8.46634 24.0933C8.57397 24.3082 8.73544 24.4723 9.03029 24.6722L9.04712 24.6835C9.11183 24.7269 9.18311 24.7724 9.26988 24.8257L9.3722 24.8881L9.6864 25.0768L9.23576 25.8181L8.88408 25.6067L8.82497 25.5707C8.72328 25.5081 8.639 25.4546 8.56039 25.4018C7.72007 24.8381 7.40667 24.2237 7.40048 22.9451L7.40039 22.9063H8.2711ZM15.7533 12.8474C15.713 12.8612 15.6753 12.8771 15.6409 12.8952L10.1091 15.8022C10.1033 15.8052 10.0977 15.8082 10.0925 15.8112L10.0878 15.8139L10.0965 15.8189L10.1091 15.8257L15.6409 18.7327C15.6753 18.7508 15.713 18.7667 15.7533 18.7804V12.8474ZM16.6243 12.8474V18.7804C16.6645 18.7667 16.7023 18.7508 16.7367 18.7327L22.2685 15.8257C22.2743 15.8226 22.2798 15.8196 22.2851 15.8166L22.2898 15.8139L22.2811 15.809L22.2685 15.8022L16.7367 12.8952C16.7023 12.8771 16.6645 12.8612 16.6243 12.8474ZM22.3475 9.64841L17.3852 12.2562L22.3475 14.8639V9.64841ZM10.0414 9.65451V14.8578L14.9923 12.2562L10.0414 9.65451ZM16.7367 5.77975C16.449 5.62858 15.9285 5.62858 15.6409 5.77975L10.1091 8.68676C10.1033 8.68981 10.0977 8.69282 10.0925 8.6958L10.0878 8.6985L10.0965 8.70345L10.1091 8.71026L15.6409 11.6173C15.9285 11.7684 16.449 11.7684 16.7367 11.6173L22.2685 8.71026C22.2743 8.70721 22.2798 8.7042 22.2851 8.7012L22.2898 8.6985L22.2811 8.69355L22.2685 8.68676L16.7367 5.77975ZM23.165 6.09853L23.5167 6.30986L23.5758 6.34596C23.6775 6.40841 23.7618 6.46206 23.8404 6.5148C24.6807 7.07846 24.9941 7.69302 25.0002 8.97144L25.0004 9.01039H24.1297C24.1297 8.45053 24.0643 8.08257 23.9344 7.82333C23.8268 7.60847 23.6653 7.44427 23.3705 7.24446L23.3537 7.23312C23.289 7.18971 23.2177 7.14425 23.1309 7.0908L23.0286 7.02845L22.7144 6.8398L23.165 6.09853Z" fill="white"/>
</svg>
