<svg width="18" height="18" viewBox="0 0 18 18" fill="none" xmlns="http://www.w3.org/2000/svg">
<path d="M15.2164 0.0959117L15.5876 0.149765C16.1646 0.241123 16.8109 0.394029 17.208 0.791197C17.6062 1.18933 17.7591 1.83557 17.8504 2.41257L17.9043 2.78281C18.0255 3.65793 18.0572 4.8052 17.8504 6.07844C17.4427 8.59128 16.105 11.5888 12.7459 13.9112C12.7304 14.0829 12.725 14.2553 12.7296 14.4276L12.7459 14.9498C12.7555 15.2979 12.7498 15.6451 12.6536 15.9788C12.4709 16.6135 11.8198 17.0318 11.2111 17.3319L10.913 17.4732L10.5283 17.6425L10.2658 17.7483C9.58587 18.0079 8.76557 18.1897 8.22896 17.6521C7.98566 17.4088 7.87314 17.078 7.78275 16.7472L7.73851 16.5818C7.58464 15.998 7.41058 15.4182 7.19325 14.8565C7.1332 14.9295 7.06965 14.9994 7.00284 15.0662C6.47873 15.5893 5.76805 15.8528 5.05738 16.0567L4.5852 16.1865L4.11399 16.3115L3.65431 16.4269L3.23887 16.5231L2.74169 16.6289L2.43107 16.6895C2.27612 16.7184 2.11645 16.7091 1.96588 16.6625C1.81531 16.6158 1.67838 16.5332 1.56692 16.4218C1.45546 16.3103 1.37283 16.1734 1.32618 16.0228C1.27953 15.8722 1.27027 15.7126 1.29919 15.5576L1.40593 15.0277L1.52999 14.4719L1.64923 13.9814L1.86561 13.1688C2.08006 12.3802 2.34067 11.5676 2.92344 10.9858L3.01865 10.8945L2.2849 10.631L1.5473 10.3771C1.11551 10.2348 0.661602 10.0847 0.348099 9.77125C-0.225055 9.19809 0.0182467 8.30374 0.303862 7.60076L0.463499 7.2286L0.595247 6.93914C0.900096 6.29097 1.33285 5.54472 2.0214 5.34661C2.3551 5.25045 2.7013 5.24468 3.05038 5.25333L3.57257 5.27064C3.74567 5.27353 3.91877 5.27064 4.08898 5.25429C6.41045 1.89519 9.40893 0.557512 11.9218 0.149765C13.0114 -0.0298707 14.1215 -0.0480166 15.2164 0.0959117ZM12.2295 2.0481C10.1158 2.39141 7.54714 3.52329 5.54303 6.53812C5.29972 6.90355 4.88909 7.07762 4.47077 7.14397C4.2342 7.18244 3.9957 7.19205 3.75625 7.19205L3.03788 7.18148C2.91864 7.18148 2.79843 7.18148 2.67918 7.18725C2.38683 7.57576 2.18296 8.03736 2.03005 8.49607L3.47256 9.02018L4.0659 9.24425C5.15066 9.66931 6.20081 10.1838 7.00861 10.9916C8.36936 12.3524 9.0608 14.1324 9.56087 15.9509C9.99939 15.7971 10.4398 15.6009 10.813 15.321L10.8187 14.9623L10.8082 14.2449C10.8082 14.0064 10.8178 13.7679 10.8562 13.5294C10.9216 13.1111 11.0967 12.7005 11.4621 12.4572C14.4769 10.4531 15.6088 7.88445 15.9521 5.77071C16.1252 4.70326 16.0964 3.74929 15.9992 3.04631C15.9619 2.75465 15.8999 2.46671 15.8136 2.18561C15.5325 2.09971 15.2446 2.03794 14.9529 2.00097C14.0477 1.88362 13.1301 1.89886 12.2295 2.0481ZM4.28228 12.3456C3.9457 12.7524 3.78894 13.2861 3.66297 13.8151L3.55911 14.2651L3.50621 14.4825L4.17361 14.3257C4.70253 14.2007 5.23722 14.042 5.64304 13.7054C5.82336 13.525 5.92461 13.2803 5.92452 13.0252C5.92443 12.7701 5.82301 12.5255 5.64256 12.3451C5.46211 12.1648 5.21742 12.0636 4.96232 12.0637C4.70722 12.0638 4.4626 12.1652 4.28228 12.3456ZM9.72243 5.54664C9.901 5.36801 10.113 5.22629 10.3463 5.12959C10.5797 5.03289 10.8298 4.9831 11.0824 4.98305C11.335 4.98301 11.5851 5.03272 11.8184 5.12933C12.0518 5.22595 12.2639 5.36759 12.4425 5.54616C12.6211 5.72473 12.7629 5.93674 12.8596 6.17008C12.9563 6.40342 13.006 6.65352 13.0061 6.9061C13.0061 7.15868 12.9564 7.4088 12.8598 7.64217C12.7632 7.87555 12.6216 8.0876 12.443 8.26624C12.2644 8.44487 12.0523 8.58657 11.8189 8.68325C11.5855 8.77992 11.3353 8.82968 11.0827 8.82968C10.5725 8.82968 10.0832 8.62701 9.72243 8.26624C9.5438 8.0876 9.4021 7.87553 9.30542 7.64214C9.20874 7.40874 9.15899 7.15859 9.15899 6.90596C9.15899 6.39575 9.36166 5.90645 9.72243 5.54568V5.54664Z" fill="#757575"/>
</svg>
