<svg width="48" height="48" viewBox="0 0 48 48" fill="none" xmlns="http://www.w3.org/2000/svg">
<g clip-path="url(#clip0_4310_29373)">
<path d="M0.00125289 27.4779C0.226774 26.9918 0.187934 26.4581 0.259349 25.9469C1.69642 15.7684 9.60594 7.3126 19.6228 5.25033C21.5122 4.86194 23.4153 4.67901 25.3423 4.69656C26.7631 4.71034 28.1851 4.68653 29.6071 4.70783C29.9467 4.71284 30.0156 4.61261 30.0081 4.29312C29.9855 3.37225 30.0056 2.45012 29.9981 1.52799C29.993 0.886504 30.2511 0.404139 30.8375 0.13602C31.4101 -0.124582 31.9363 0.000707204 32.3961 0.414162C35.497 3.2031 38.5992 5.98829 41.6913 8.786C42.3754 9.40493 42.3741 10.3058 41.6901 10.9234C38.5967 13.7199 35.4945 16.5063 32.3936 19.294C31.9338 19.7075 31.4038 19.8278 30.8337 19.5684C30.2486 19.3015 29.993 18.8154 29.9981 18.1739C30.0068 17.2217 29.9968 16.2683 30.0031 15.3148C30.0043 15.1219 30.0006 14.9979 29.74 15.0041C27.2905 15.0592 24.8349 14.8851 22.3905 15.1795C17.4541 15.7734 13.0915 17.6841 9.31903 20.9203C6.43988 23.3897 4.27613 26.3867 2.7927 29.8797C2.35043 30.9234 1.41201 31.2454 0.576331 30.6803C0.288166 30.4849 0.175405 30.1804 0 29.9111C0.00125289 29.1029 0.00125289 28.2898 0.00125289 27.4779Z" fill="#5EFF8B"/>
<path d="M16.1278 48.0082C12.8026 45.1529 9.59893 42.1597 6.32763 39.2442C5.62225 38.6153 5.62726 37.7094 6.33013 37.0742C9.41351 34.289 12.5056 31.5126 15.5928 28.7337C16.0526 28.319 16.5776 28.1862 17.1501 28.438C17.7377 28.6974 18.0071 29.1785 18.0033 29.8212C17.9983 30.7747 18.0071 31.7269 17.9983 32.6803C17.9958 32.8983 18.0146 33.0174 18.2903 33.0111C20.7246 32.956 23.1653 33.1364 25.5934 32.8344C32.0483 32.0351 37.3643 29.1271 41.5527 24.1632C43.0813 22.3515 44.2866 20.3343 45.1987 18.1455C45.428 17.5942 45.7562 17.1657 46.3877 17.0805C47.2985 16.9565 48.0014 17.608 47.9989 18.5828C47.9914 21.4005 47.5742 24.1632 46.5631 26.7905C43.1727 35.6058 36.8318 40.9945 27.5792 42.9215C26.1108 43.2272 24.6111 43.3249 23.1076 43.3187C21.5302 43.3124 19.9516 43.3262 18.3742 43.3099C18.0597 43.3061 17.9883 43.3988 17.9958 43.6983C18.0159 44.4951 17.9645 45.2945 18.0134 46.0876C18.0685 46.9683 17.8091 47.6336 16.9722 48.0082C16.6903 48.0082 16.4097 48.0082 16.1278 48.0082Z" fill="#5EFF8B"/>
</g>
<defs>
<clipPath id="clip0_4310_29373">
<rect width="48" height="48" fill="white"/>
</clipPath>
</defs>
</svg>
