<svg width="12" height="12" viewBox="0 0 12 12" fill="none" xmlns="http://www.w3.org/2000/svg">
<path d="M2.32476 0C3.7782 0 5.23132 0 6.68476 0C6.68476 0.87875 6.68445 1.7575 6.68476 2.63625C6.68507 3.17094 7.02913 3.51531 7.56382 3.51562C8.44257 3.51594 9.32164 3.51562 10.2004 3.51562C10.2454 3.51562 10.2904 3.51562 10.3413 3.51562C10.3413 3.57875 10.3413 3.62531 10.3413 3.67188C10.3413 5.91375 10.3413 8.15562 10.3413 10.3972C10.3413 10.5181 10.3432 10.6394 10.3394 10.7603C10.3219 11.3053 9.93914 11.7972 9.41757 11.9469C9.35101 11.9659 9.28351 11.9825 9.21632 12C6.91914 12 4.62195 12 2.32476 12C2.31851 11.9953 2.31288 11.9884 2.30601 11.9866C1.55757 11.8094 1.19976 11.3563 1.19976 10.5853C1.19976 8.34031 1.19976 6.09562 1.19976 3.85063C1.19976 3.00344 1.1982 2.15625 1.20038 1.30906C1.20132 0.860937 1.37757 0.490625 1.7507 0.242812C1.9207 0.13 2.13195 0.0790625 2.32476 0ZM5.70163 5.39062C5.82257 5.39062 5.94351 5.39062 6.06476 5.39062C6.7907 5.39062 7.51695 5.38969 8.24289 5.39125C8.40726 5.39156 8.53289 5.32812 8.60039 5.17656C8.70789 4.93562 8.52789 4.68812 8.24601 4.68781C6.82101 4.68719 5.39632 4.6875 3.97132 4.6875C3.69413 4.6875 3.41695 4.68719 3.13976 4.6875C2.97945 4.68781 2.86101 4.75938 2.79788 4.90688C2.69632 5.14469 2.87382 5.38969 3.14851 5.39C3.99976 5.39156 4.8507 5.39062 5.70163 5.39062ZM5.69913 7.26562C6.54632 7.26562 7.3932 7.265 8.24039 7.26625C8.39914 7.26656 8.52289 7.20969 8.59382 7.06406C8.71226 6.82125 8.53507 6.56312 8.2482 6.56281C6.99132 6.56187 5.73445 6.5625 4.47757 6.5625C4.03257 6.5625 3.58757 6.56281 3.14257 6.5625C2.99788 6.5625 2.88476 6.62031 2.81445 6.74844C2.68163 6.99062 2.85632 7.26469 3.14632 7.265C3.99726 7.26656 4.8482 7.26562 5.69913 7.26562ZM3.9657 9.14062C4.2432 9.14062 4.52038 9.14187 4.79788 9.14031C5.01601 9.13906 5.17476 8.99344 5.17913 8.79438C5.1832 8.59281 5.01976 8.43844 4.79695 8.43781C4.25007 8.43656 3.7032 8.43688 3.15632 8.43781C2.92976 8.43813 2.77038 8.58469 2.7707 8.78938C2.77101 8.99406 2.92976 9.13937 3.15695 9.14031C3.42663 9.14156 3.69601 9.14062 3.9657 9.14062Z" fill="white"/>
<path d="M10.159 2.81219C9.28054 2.81219 8.40211 2.81219 7.52367 2.81188C7.43961 2.81188 7.38867 2.76969 7.38867 2.68469C7.38867 1.84938 7.39023 1.01407 7.3918 0.178442C7.3918 0.17563 7.39617 0.17313 7.41305 0.153442C7.4968 0.21563 7.5893 0.271255 7.66617 0.343755C8.42804 1.06094 9.18835 1.78001 9.94554 2.50157C10.034 2.58563 10.1027 2.69032 10.1805 2.78532C10.1734 2.79438 10.1662 2.80344 10.159 2.81219Z" fill="white"/>
</svg>
