<svg width="16" height="16" viewBox="0 0 16 16" fill="none" xmlns="http://www.w3.org/2000/svg">
    <g clip-path="url(#clip0_6325_12332)">
        <path fill-rule="evenodd" clip-rule="evenodd" d="M7.99992 1.33337C11.6819 1.33337 14.6666 4.31804 14.6666 8.00004C14.6666 11.682 11.6819 14.6667 7.99992 14.6667C4.31792 14.6667 1.33325 11.682 1.33325 8.00004C1.33325 4.31804 4.31792 1.33337 7.99992 1.33337ZM7.99992 2.66671C6.58543 2.66671 5.22888 3.22861 4.22868 4.2288C3.22849 5.229 2.66659 6.58555 2.66659 8.00004C2.66659 9.41453 3.22849 10.7711 4.22868 11.7713C5.22888 12.7715 6.58543 13.3334 7.99992 13.3334C9.41441 13.3334 10.771 12.7715 11.7712 11.7713C12.7713 10.7711 13.3333 9.41453 13.3333 8.00004C13.3333 6.58555 12.7713 5.229 11.7712 4.2288C10.771 3.22861 9.41441 2.66671 7.99992 2.66671ZM7.05725 5.17137C7.29328 4.9355 7.60917 4.79671 7.94254 4.78239C8.27591 4.76807 8.60254 4.87927 8.85792 5.09404L8.94258 5.17137L10.8286 7.05737C11.0645 7.2934 11.2033 7.60929 11.2176 7.94266C11.2319 8.27604 11.1207 8.60266 10.9059 8.85804L10.8286 8.94271L8.94258 10.8287C8.70656 11.0646 8.39067 11.2034 8.0573 11.2177C7.72392 11.232 7.3973 11.1208 7.14192 10.906L7.05725 10.8287L5.17125 8.94271C4.93538 8.70668 4.79658 8.39079 4.78227 8.05742C4.76795 7.72405 4.87915 7.39742 5.09392 7.14204L5.17125 7.05737L7.05725 5.17137ZM7.99992 6.11471L6.11459 8.00004L7.99992 9.88537L9.88525 8.00004L7.99992 6.11471Z" fill="#EFEFE5"/>
    </g>
    <defs>
        <clipPath id="clip0_6325_12332">
            <rect width="16" height="16" fill="white"/>
        </clipPath>
    </defs>
</svg>
