<svg width="12" height="12" viewBox="0 0 12 12" fill="none" xmlns="http://www.w3.org/2000/svg">
<path d="M5.9944 11.4747C4.88264 11.4747 3.77089 11.4641 2.65945 11.4774C1.43909 11.4923 0.516916 10.6754 0.171418 9.69934C0.0532884 9.36572 0.000892112 9.0209 0.000892112 8.66591C0.000892112 6.71376 -0.00164832 4.76127 0.00184477 2.80913C0.0043852 1.42036 0.854158 0.310909 2.11326 0.046528C2.26028 0.0156439 2.41271 0.00308663 2.5626 0.00274724C3.76549 -0.000646615 4.96838 -0.000646615 6.17159 0.0013897C6.59235 0.00206847 6.86862 0.413743 6.72826 0.820667C6.64316 1.06774 6.43389 1.21877 6.16079 1.22182C5.84324 1.22521 5.52569 1.22284 5.20782 1.22284C4.34629 1.22284 3.48477 1.22216 2.62325 1.22318C1.77348 1.22386 1.14726 1.88498 1.14567 2.79487C1.14218 4.7555 1.1425 6.71647 1.14567 8.67711C1.14726 9.587 1.77348 10.2498 2.6223 10.2498C4.8693 10.2505 7.11663 10.2505 9.36364 10.2498C10.2128 10.2495 10.8352 9.58836 10.8396 8.67609C10.8438 7.78486 10.8396 6.89363 10.8412 6.00241C10.8418 5.63587 11.0337 5.38914 11.3464 5.34332C11.6421 5.29988 11.9317 5.53304 11.9739 5.84867C11.9784 5.88226 11.9825 5.9162 11.9825 5.95014C11.98 6.94318 11.9996 7.93691 11.9682 8.92893C11.9288 10.1643 10.9511 11.2765 9.80377 11.4394C9.63515 11.4631 9.46367 11.4726 9.29346 11.4733C8.19377 11.476 7.09408 11.4747 5.9944 11.4747Z" fill="white"/>
<path d="M10.8554 1.88506C10.8093 1.92321 10.782 1.94356 10.7572 1.96645C9.38147 3.23026 8.00575 4.49343 6.6313 5.7585C6.44626 5.92892 6.24024 6.00141 5.99797 5.90952C5.77732 5.82559 5.65364 5.65772 5.63075 5.42435C5.61072 5.21928 5.69879 5.05745 5.84886 4.9201C6.47965 4.34368 7.10789 3.76439 7.73709 3.18638C8.44228 2.53842 9.14779 1.89046 9.85361 1.24282C9.87905 1.2193 9.90925 1.20117 9.93723 1.18051C9.93246 1.17097 9.92769 1.16175 9.92292 1.15221C9.88159 1.1503 9.84026 1.14649 9.79892 1.14649C9.47304 1.14585 9.14715 1.14998 8.82126 1.1449C8.51763 1.14013 8.27918 0.9287 8.24484 0.645098C8.21082 0.363723 8.38155 0.101742 8.6553 0.0254363C8.72302 0.00667793 8.79646 0.00222679 8.86736 0.00222679C9.70195 0.0006371 10.5365 1.22347e-06 11.3711 0.00190885C11.7597 0.00286267 11.9975 0.236865 11.9987 0.624432C12.0019 1.43136 11.9994 2.23829 12 3.04522C12.0003 3.28303 11.9104 3.47221 11.6973 3.5873C11.5034 3.69222 11.3066 3.68332 11.1203 3.56536C10.9371 3.44963 10.8554 3.27636 10.8554 3.06207C10.8554 2.72028 10.8551 2.3785 10.8551 2.0364C10.8554 1.99316 10.8554 1.95087 10.8554 1.88506Z" fill="white"/>
</svg>
