<svg width="14" height="14" viewBox="0 0 14 14" fill="none" xmlns="http://www.w3.org/2000/svg">
<g clip-path="url(#clip0_185_4696)">
<path d="M0 7.37881C0 7.10503 0 6.8316 0 6.55782C0.0109635 6.46359 0.0229548 6.36936 0.033233 6.27479C0.187064 4.88329 0.689328 3.63125 1.59758 2.56595C3.20579 0.679999 5.26109 -0.177997 7.73301 0.0310196C9.09728 0.14615 10.3279 0.652587 11.3842 1.52669C13.311 3.12104 14.1761 5.18208 13.9705 7.67349C13.876 8.81931 13.4888 9.87845 12.8461 10.8331C11.7309 12.4894 10.1964 13.5246 8.22534 13.8916C7.96667 13.9399 7.70355 13.9649 7.44282 14.0005C7.16908 14.0005 6.89568 14.0005 6.62193 14.0005C6.52772 13.9896 6.4335 13.9776 6.33928 13.9673C5.19189 13.8412 4.12877 13.4742 3.17358 12.8239C1.51296 11.6928 0.476911 10.144 0.108949 8.16143C0.0606417 7.90238 0.0356313 7.63957 0 7.37881ZM8.17258 6.94742C8.22568 6.91041 8.27194 6.88745 8.30688 6.8525C9.00752 6.15418 9.70678 5.45449 10.4057 4.75445C10.4602 4.69963 10.5136 4.64275 10.5606 4.58142C10.8196 4.24528 10.762 3.74432 10.4358 3.47328C10.0833 3.18066 9.62764 3.21219 9.27989 3.55929C8.56658 4.27063 7.85532 4.98403 7.1427 5.69674C7.10809 5.73135 7.07144 5.7639 7.03169 5.80125C6.99538 5.76836 6.96488 5.74197 6.93611 5.71387C6.21217 5.00664 5.48859 4.29941 4.76397 3.59253C4.70538 3.5353 4.64508 3.47911 4.5793 3.43045C4.24149 3.18066 3.74916 3.242 3.48193 3.56477C3.189 3.91839 3.22086 4.37103 3.56861 4.72019C4.27952 5.43393 4.99283 6.14561 5.70511 6.85833C5.73972 6.89293 5.77192 6.9296 5.82331 6.98476C5.77809 7.02143 5.73629 7.04918 5.70134 7.08413C5.0014 7.78314 4.30179 8.48249 3.60321 9.18287C3.54874 9.23769 3.49563 9.29457 3.44835 9.35591C3.19242 9.68862 3.24484 10.1824 3.56244 10.4551C3.90985 10.7536 4.36928 10.7292 4.71977 10.388C5.45467 9.67251 6.18751 8.95466 6.92137 8.23818C6.95632 8.20426 6.99332 8.17239 7.05568 8.11551C7.08959 8.16314 7.11358 8.20905 7.14852 8.244C7.85669 8.95432 8.56658 9.66258 9.27441 10.3729C9.48717 10.5864 9.73487 10.7015 10.0381 10.6474C10.3492 10.5918 10.5688 10.413 10.6743 10.1125C10.7901 9.78251 10.7055 9.49262 10.4687 9.24523C10.2954 9.06431 10.1148 8.8899 9.9377 8.71275C9.36109 8.13607 8.78413 7.55905 8.17258 6.94742Z" fill="#D01F36"/>
</g>
<defs>
<clipPath id="clip0_185_4696">
<rect width="14" height="14" fill="white"/>
</clipPath>
</defs>
</svg>
