<svg width="48" height="48" viewBox="0 0 48 48" fill="none" xmlns="http://www.w3.org/2000/svg">
<path d="M12.8733 48C12.5482 47.8017 12.3173 47.5221 12.1174 47.2002C11.4688 46.1534 10.8137 45.1098 10.1473 44.0728C9.4857 43.0406 8.53803 42.5025 7.30752 42.4586C6.02663 42.4115 4.74735 42.3481 3.46808 42.2896C2.46189 42.2441 2.12866 41.6654 2.63257 40.786C3.8647 38.6355 5.11309 36.493 6.35498 34.349C7.10434 33.0535 7.85695 31.7596 8.60468 30.464C8.84688 30.043 8.81437 29.9618 8.34135 29.809C7.85207 29.6513 7.36767 29.4871 6.91253 29.24C6.05426 28.7719 5.80231 28.0323 5.89171 27.1139C5.96811 26.319 6.16479 25.5469 6.33385 24.7699C6.55329 23.7588 6.31109 22.8908 5.65764 22.1106C5.17649 21.5351 4.70346 20.9548 4.23857 20.368C3.51522 19.4529 3.54773 18.5133 4.16217 17.5543C4.60918 16.8553 5.14398 16.2214 5.67226 15.5858C6.39399 14.7194 6.63294 13.7701 6.3566 12.6631C6.17617 11.9381 5.99249 11.2083 5.94047 10.4573C5.86082 9.29833 6.23957 8.69527 7.2994 8.20924C7.95448 7.91015 8.64206 7.70208 9.32965 7.50865C10.4805 7.18354 11.2006 6.46507 11.5712 5.33697C11.8037 4.62825 12.0394 3.91628 12.3824 3.24819C12.8814 2.27939 13.5755 1.93641 14.6467 2.09571C15.3879 2.20625 16.1129 2.39643 16.8379 2.57523C17.7189 2.79305 18.4926 2.72966 19.2257 2.07133C20.0336 1.34473 20.9228 0.707529 21.9257 0.237757C22.7742 -0.158866 23.5333 -0.0450807 24.255 0.473456C24.8256 0.883083 25.3897 1.30734 25.9098 1.77549C26.8445 2.61425 27.8881 2.81093 29.0812 2.48258C29.7866 2.28752 30.4954 2.08758 31.2301 2.02906C32.3436 1.93966 32.9385 2.25989 33.3969 3.27095C33.7122 3.96342 33.9821 4.68027 34.2308 5.40036C34.59 6.44069 35.276 7.1039 36.3358 7.40461C36.9194 7.57042 37.498 7.75897 38.067 7.96866C39.6096 8.53922 40.0663 9.37148 39.7429 10.9856C39.6323 11.5366 39.5348 12.0893 39.3983 12.6339C39.1333 13.6969 39.3804 14.6267 40.0306 15.4915C40.6385 16.301 41.3001 17.0715 41.791 17.9688C42.2331 18.7783 42.1389 19.5374 41.6171 20.2477C41.1652 20.8638 40.6824 21.4587 40.1818 22.0374C39.4535 22.8794 39.2276 23.8125 39.4698 24.9048C39.6713 25.8135 39.9412 26.7156 39.894 27.6714C39.8599 28.3428 39.5511 28.819 39.0065 29.1734C38.4896 29.5099 37.9093 29.6984 37.3241 29.8528C36.9584 29.9488 36.9828 30.0593 37.1486 30.3421C39.1089 33.6923 41.0579 37.049 43.0085 40.404C43.0556 40.4853 43.1044 40.5649 43.1516 40.6462C43.6831 41.5923 43.3905 42.1466 42.3128 42.2051C41.0807 42.2717 39.8469 42.3302 38.6148 42.3725C37.3144 42.4164 36.3147 42.9593 35.6255 44.0728C35.0175 45.0546 34.3901 46.0218 33.7886 47.0068C33.5107 47.462 33.2197 47.8781 32.6573 47.9984C32.6264 47.9984 32.5955 47.9984 32.563 47.9984C32.1046 47.7074 31.838 47.2604 31.5731 46.8036C29.6664 43.5152 27.7515 40.2301 25.8399 36.9449C25.4595 36.2915 25.4595 36.2915 24.8711 36.758C23.5463 37.8113 22.7466 37.8568 21.3031 36.9612C21.1585 36.8718 21.0187 36.7694 20.8821 36.6653C20.3733 36.2801 20.3717 36.2785 20.0596 36.8181C18.0684 40.2561 16.0755 43.6924 14.0891 47.1336C13.8924 47.475 13.6633 47.7724 13.3398 47.9967C13.1854 48 13.0293 48 12.8733 48ZM22.8604 32.8454C30.8465 32.7706 37.038 26.4165 36.9194 18.4158C36.8088 10.9043 30.4417 4.69815 22.9807 4.73391C15.0108 4.77292 8.58842 11.2311 8.86151 19.2854C9.11509 26.7871 15.1425 32.8308 22.8604 32.8454Z" fill="#D01F36"/>
<path d="M34.7516 18.8953C34.7353 25.0397 29.9352 30.3064 23.5242 30.6363C16.793 30.9826 11.1817 25.7045 11.0176 19.1147C10.8517 12.429 16.0241 7.20141 22.3376 6.93808C29.0135 6.66012 34.7841 11.9658 34.7516 18.8953ZM18.0251 25.1307C18.0072 25.9565 18.3843 26.2361 19.0118 25.9419C19.8148 25.5648 20.5885 25.1291 21.3769 24.7211C22.4335 24.1749 23.4933 24.1668 24.5531 24.7146C25.3269 25.1161 26.0974 25.5274 26.8744 25.9207C27.1279 26.0492 27.4059 26.1451 27.6725 25.9484C27.9472 25.7452 27.9618 25.4493 27.9114 25.1437C27.7863 24.3895 27.6774 23.632 27.5246 22.8843C27.2466 21.5156 27.5928 20.3631 28.625 19.4106C29.1761 18.9018 29.7011 18.3654 30.2343 17.8387C30.4716 17.603 30.7057 17.3446 30.5919 16.9805C30.47 16.5903 30.1026 16.5367 29.7613 16.4847C28.9745 16.3628 28.1894 16.2392 27.401 16.1319C26.177 15.9645 25.3058 15.3208 24.7628 14.2187C24.4117 13.5068 24.0622 12.7932 23.703 12.0861C23.547 11.7788 23.3844 11.4391 22.9797 11.4359C22.5749 11.4326 22.4042 11.7642 22.2482 12.0747C21.8776 12.811 21.5199 13.5555 21.1461 14.2919C20.6162 15.3403 19.7628 15.9483 18.6022 16.1238C17.7845 16.2474 16.9669 16.3644 16.1493 16.4896C15.8209 16.5399 15.4763 16.6115 15.3495 16.9675C15.2195 17.3332 15.4633 17.5949 15.6974 17.8273C16.2939 18.4223 16.91 18.9993 17.5049 19.5975C18.347 20.4428 18.6542 21.462 18.451 22.6372C18.2982 23.5134 18.1519 24.3895 18.0251 25.1307Z" fill="#D01F36"/>
</svg>
