<svg width="8" height="8" viewBox="0 0 8 8" fill="none" xmlns="http://www.w3.org/2000/svg">
<g clip-path="url(#clip0_2711_22057)">
<path d="M6.6418 3.99319C6.59087 3.95511 6.55946 3.93702 6.53447 3.91203C5.56225 2.94076 4.59026 1.96925 3.61899 0.997031C3.40075 0.778787 3.366 0.479624 3.52879 0.24472C3.71253 -0.0204095 4.08142 -0.079909 4.3387 0.114535C4.36702 0.135955 4.39368 0.159993 4.41891 0.184983C5.5482 1.31381 6.6775 2.44287 7.80657 3.57241C7.98197 3.74781 8.04218 3.9563 7.95389 4.19096C7.92271 4.27402 7.86654 4.3547 7.80347 4.41801C6.67441 5.55136 5.54249 6.68209 4.41105 7.81305C4.23803 7.98608 4.03216 8.04557 3.79987 7.96347C3.57901 7.8854 3.45263 7.72047 3.42431 7.48771C3.40218 7.30564 3.46453 7.1488 3.59329 7.01933C3.81725 6.79418 4.04215 6.56999 4.26682 6.34532C5.02247 5.58967 5.77787 4.83403 6.53375 4.0791C6.55827 4.05411 6.58873 4.03484 6.6418 3.99319Z" fill="white"/>
<path d="M3.20244 3.98548C3.16627 3.9555 3.13675 3.93479 3.11176 3.9098C2.14192 2.94043 1.1728 1.97036 0.202241 1.0017C0.0344522 0.834391 -0.0326632 0.639471 0.0313582 0.410041C0.138219 0.0268645 0.605409 -0.125454 0.92147 0.116828C0.956694 0.143721 0.988823 0.175137 1.02024 0.206553C2.13692 1.32276 3.25313 2.43992 4.37053 3.55542C4.55046 3.73511 4.62495 3.94193 4.53523 4.18564C4.50453 4.26894 4.45003 4.35081 4.38719 4.41388C3.25623 5.5496 2.12241 6.68224 0.988585 7.81534C0.818179 7.98551 0.614453 8.0443 0.385261 7.96528C0.160115 7.8877 0.0315962 7.72086 0.00398843 7.48453C-0.0176694 7.29889 0.049922 7.14181 0.181297 7.01044C0.534248 6.6582 0.886484 6.30525 1.2392 5.95277C1.8668 5.32517 2.49416 4.69781 3.12176 4.07021C3.14413 4.04736 3.16603 4.02356 3.20244 3.98548Z" fill="white"/>
</g>
<defs>
<clipPath id="clip0_2711_22057">
<rect width="8" height="8" fill="white"/>
</clipPath>
</defs>
</svg>
