<svg width="16" height="15" viewBox="0 0 16 15" fill="none" xmlns="http://www.w3.org/2000/svg">
<path d="M15.821 4.19786L11.7806 0.177533C11.606 0.00372009 11.344 -0.0478426 11.117 0.0467827C10.8896 0.141189 10.7416 0.363127 10.7416 0.609222V2.4342C8.73856 2.56657 7.73834 3.39704 7.55762 3.56251C5.04411 5.65449 5.32208 8.50709 5.40655 9.07462C5.40777 9.08275 5.40899 9.09106 5.41039 9.09919L5.49161 9.56619C5.53527 9.81716 5.72999 10.0143 5.98014 10.0608C6.01749 10.0677 6.05486 10.0712 6.09183 10.0712C6.30321 10.0712 6.5028 9.96109 6.61405 9.77531L6.85749 9.36963C8.18824 7.15643 9.83272 6.80009 10.7416 6.79702V8.69043C10.7416 8.93712 10.8904 9.15928 11.1186 9.25347C11.3468 9.34747 11.609 9.29469 11.7828 9.12006L15.8233 5.05917C16.0604 4.8208 16.0594 4.43502 15.821 4.19786ZM11.9601 7.21449V6.23358C11.9601 5.93449 11.7433 5.67968 11.448 5.63218C10.7451 5.51908 8.53265 5.38283 6.62199 7.61268C6.74524 6.70262 7.15296 5.47949 8.34849 4.48961C8.36312 4.47742 8.36818 4.47336 8.38159 4.45995C8.39053 4.45164 9.29897 3.63458 11.2898 3.63458H11.3507C11.6872 3.63458 11.9599 3.36189 11.9599 3.02545V2.0746L14.53 4.63158L11.9601 7.21449Z" fill="#6398FF"/>
<path d="M13.6041 10.6195C13.2677 10.6195 12.995 10.8922 12.995 11.2286V12.9545H1.21829V4.0205H4.87311C5.20955 4.0205 5.48224 3.74781 5.48224 3.41137C5.48224 3.07493 5.20955 2.80225 4.87311 2.80225H0.609127C0.272688 2.80221 0 3.0749 0 3.41134V13.5637C0 13.9001 0.272688 14.1728 0.609127 14.1728H13.6041C13.9405 14.1728 14.2132 13.9001 14.2132 13.5637V11.2286C14.2132 10.8922 13.9405 10.6195 13.6041 10.6195Z" fill="#6398FF"/>
</svg>
