<svg width="16" height="16" viewBox="0 0 16 16" fill="none" xmlns="http://www.w3.org/2000/svg">
<path d="M0 11.9698C0.0649631 11.6763 0.11075 11.3773 0.198803 11.0913C0.376864 10.514 0.702854 10.0217 1.12903 9.59553C2.23692 8.48686 3.33973 7.37309 4.45389 6.27107C5.72615 5.01211 7.56625 4.78474 9.07057 5.69775C9.41261 5.90516 9.74877 6.13488 9.9464 6.50118C10.1781 6.9297 10.0767 7.46936 9.72334 7.76796C9.32886 8.10099 8.76572 8.12134 8.36733 7.81609C8.30941 7.77187 8.25345 7.72491 8.19866 7.67677C7.58894 7.13985 6.6822 7.13789 6.07288 7.67443C5.97935 7.757 5.89208 7.84701 5.80402 7.93545C4.74661 8.99169 3.68842 10.0468 2.63335 11.1049C2.05886 11.681 1.97003 12.5345 2.4099 13.1732C2.98282 14.0052 4.14864 14.1054 4.88437 13.379C5.51404 12.7572 6.13628 12.1275 6.76203 11.5014C6.7953 11.4681 6.82856 11.4352 6.86183 11.4024C6.95223 11.3124 7.05789 11.2877 7.17686 11.3335C7.75135 11.5546 8.3462 11.6642 8.96217 11.6603C9.08036 11.6595 9.1735 11.7111 9.22281 11.825C9.27329 11.9409 9.2365 12.0407 9.15549 12.1248C9.00718 12.2786 8.85533 12.4285 8.70388 12.5791C7.88089 13.3982 7.0665 14.2263 6.23137 15.0325C5.67214 15.5725 4.98259 15.8649 4.2136 15.9697C4.16273 15.9768 4.11303 15.9913 4.06293 16.0022C3.85474 16.0022 3.64615 16.0022 3.43796 16.0022C3.382 15.9917 3.32642 15.9795 3.27007 15.9709C1.81075 15.742 0.790906 14.9499 0.249286 13.5747C0.123273 13.255 0.0810082 12.9024 0 12.5647C0 12.3659 0 12.1678 0 11.9698Z" fill=" #757575"/>
<path d="M8.40377 10.8443C7.73966 10.8138 6.85522 10.4498 6.16607 9.68042C5.81307 9.28673 5.85025 8.68719 6.21029 8.2978C6.55232 7.92759 7.17886 7.86732 7.5976 8.16513C7.661 8.21053 7.72088 8.26101 7.77958 8.31228C8.44799 8.89577 9.37039 8.87386 10.0087 8.25123C10.4485 7.82193 10.8802 7.3844 11.3154 6.9504C12.001 6.26594 12.6902 5.585 13.3703 4.89545C14.1323 4.12255 13.9722 2.88551 13.0494 2.35524C12.4256 1.99677 11.6351 2.11065 11.097 2.64405C10.4681 3.26746 9.83922 3.89087 9.21972 4.52329C9.0624 4.68413 8.91487 4.72052 8.70589 4.63717C8.18266 4.42858 7.63361 4.34483 7.07164 4.34483C6.94093 4.34483 6.83605 4.30648 6.77891 4.18086C6.72021 4.05172 6.7703 3.94801 6.86149 3.85722C7.83632 2.88786 8.79081 1.89658 9.79226 0.95501C11.2485 -0.414694 13.6443 -0.289073 14.994 1.1906C16.2627 2.58104 16.3394 4.58864 15.1787 6.06753C15.0954 6.17397 15.003 6.27377 14.9071 6.36965C13.7703 7.50885 12.6354 8.65001 11.4923 9.78295C10.7397 10.53 9.8177 10.8642 8.40377 10.8443Z" fill=" #757575"/>
</svg>
