<svg width="24" height="24" viewBox="0 0 24 24" fill="none" xmlns="http://www.w3.org/2000/svg">
<path d="M0 12C0 5.37258 5.37258 0 12 0V0C18.6274 0 24 5.37258 24 12V12C24 18.6274 18.6274 24 12 24V24C5.37258 24 0 18.6274 0 12V12Z" fill="#353539"/>
<path d="M17.2459 8.59291C18.635 8.59291 19.7611 7.46683 19.7611 6.07771C19.7611 4.6886 18.635 3.5625 17.2459 3.5625C15.8567 3.5625 14.7307 4.6886 14.7307 6.07771C14.7307 7.46683 15.8567 8.59291 17.2459 8.59291Z" fill="white"/>
<path d="M7.86913 16.533L17.3239 16.5342C17.3405 16.5342 17.3563 16.5407 17.368 16.5524C17.3797 16.5641 17.3863 16.58 17.3863 16.5966L17.3875 19.0194C17.3875 19.036 17.3809 19.0518 17.3692 19.0635C17.3575 19.0752 17.3417 19.0818 17.3251 19.0818H5.01553C4.99897 19.0818 4.98313 19.0752 4.97143 19.0635C4.95973 19.0518 4.95312 19.036 4.95312 19.0194L4.95553 6.03781C4.95553 6.02125 4.96213 6.00535 4.97383 5.99365C4.98553 5.98195 5.00137 5.97541 5.01793 5.97541L7.74193 5.97661C7.75849 5.97661 7.77433 5.98315 7.78603 5.99485C7.79773 6.00655 7.80433 6.02245 7.80433 6.03901L7.80673 16.4706C7.80673 16.4872 7.81332 16.503 7.82502 16.5147C7.83672 16.5264 7.85257 16.533 7.86913 16.533Z" fill="white"/>
</svg>
