<svg width="12" height="12" viewBox="0 0 12 12" fill="white" xmlns="http://www.w3.org/2000/svg">
<path d="M11.998 2.56056C11.9453 2.73696 11.8802 2.90649 11.7399 3.0353C11.5611 3.19968 11.3486 3.26518 11.1082 3.26469C9.94941 3.26273 8.79067 3.26371 7.63193 3.26371C6.62137 3.26371 5.61082 3.26445 4.60051 3.26322C4.21066 3.26273 3.89589 3.04658 3.77984 2.71905C3.59952 2.20948 3.9425 1.603 4.6113 1.60889C4.90007 1.61134 5.18883 1.60914 5.47735 1.60914C7.34218 1.60914 9.20726 1.60963 11.0721 1.6084C11.3223 1.60815 11.5503 1.66188 11.7389 1.83853C11.8815 1.97199 11.9499 2.14324 11.998 2.32602C11.998 2.40453 11.998 2.48255 11.998 2.56056Z" />
<path d="M11.9977 9.18061C11.9508 9.35505 11.8885 9.52139 11.7555 9.65215C11.5784 9.8261 11.362 9.89749 11.1186 9.89749C8.9493 9.89774 6.78025 9.89995 4.61095 9.89602C3.98607 9.89479 3.59009 9.36903 3.77998 8.80009C3.88082 8.49783 4.10236 8.31971 4.41443 8.25936C4.49417 8.2439 4.57734 8.2439 4.65904 8.24366C6.7697 8.24292 8.88036 8.24292 10.9913 8.24292C11.5879 8.24292 11.7982 8.38988 11.9981 8.94631C11.9977 9.02457 11.9977 9.10259 11.9977 9.18061Z"/>
<path d="M12 5.87082C11.9439 6.0774 11.8604 6.2668 11.6826 6.40125C11.5484 6.50258 11.4007 6.56538 11.2316 6.57397C11.1887 6.57618 11.146 6.57839 11.1031 6.57839C8.9458 6.57863 6.78853 6.5774 4.63101 6.57986C4.26668 6.58035 3.98822 6.4432 3.81795 6.11469C3.55838 5.61395 3.91731 4.97484 4.47914 4.93485C4.53361 4.93093 4.58832 4.92921 4.64278 4.92921C6.79221 4.92896 8.94188 4.93044 11.0913 4.92749C11.4598 4.927 11.7429 5.06096 11.9132 5.39609C11.9515 5.47141 11.9713 5.5563 11.9998 5.63677C12 5.71479 12 5.79281 12 5.87082Z"/>
<path d="M1.24316 1.19995C1.923 1.20118 2.47943 1.75638 2.4809 2.43524C2.48237 3.11581 1.91613 3.6823 1.23727 3.67912C0.554001 3.67617 -0.00414756 3.11213 2.32237e-05 2.42935C0.00419401 1.75001 0.561607 1.19873 1.24316 1.19995Z"/>
<path d="M1.23627 10.3073C0.555697 10.3056 0.000982637 9.75087 1.27589e-06 9.07128C-0.000980085 8.38948 0.564284 7.82446 1.24388 7.82814C1.9269 7.83182 2.48603 8.39709 2.48088 9.07889C2.47548 9.75725 1.91684 10.309 1.23627 10.3073Z" />
<path d="M1.23504 4.51319C1.91758 4.51074 2.48112 5.07232 2.48063 5.75437C2.48014 6.43151 1.92199 6.99137 1.24486 6.99382C0.561829 6.99628 -0.00024526 6.43568 8.0286e-08 5.75265C0.000490761 5.07428 0.556922 4.51565 1.23504 4.51319Z" />
</svg>
