<svg width="41" height="24" viewBox="0 0 41 24" fill="none" xmlns="http://www.w3.org/2000/svg">
    <g clip-path="url(#clip0_6203_55405)">
        <g opacity="0.8">
            <path d="M29.0799 14.3764V4.20001H31.1874V14.3764H29.0799Z" fill="#EFEFE5"/>
            <path d="M4.51807 17.3992H0V7.22286H4.33638C6.4439 7.22286 7.67189 8.33767 7.67189 10.0815C7.67189 11.2103 6.88323 11.9397 6.33735 12.1826C6.98893 12.4683 7.82299 13.1113 7.82299 14.4698C7.82299 16.3701 6.4439 17.3992 4.51807 17.3992ZM4.16957 8.99548H2.10749V11.3395H4.16957C5.06396 11.3395 5.5644 10.8677 5.5644 10.1671C5.5644 9.46722 5.06396 8.99548 4.16957 8.99548ZM4.30583 13.1261H2.10749V15.6274H4.30583C5.2613 15.6274 5.7155 15.056 5.7155 14.3694C5.7155 13.6835 5.26046 13.1261 4.30583 13.1261Z" fill="#EFEFE5"/>
            <path d="M14.2511 13.2258V17.3992H12.1585V13.2258L8.91381 7.22286H11.203L13.2196 11.3247L15.2058 7.22286H17.4949L14.2511 13.2258Z" fill="#EFEFE5"/>
            <path d="M23.4698 17.3992H18.9517V7.22286H23.2881C25.3956 7.22286 26.6236 8.33767 26.6236 10.0815C26.6236 11.2103 25.835 11.9397 25.2891 12.1826C25.9407 12.4683 26.7748 13.1113 26.7748 14.4698C26.7748 16.3701 25.3956 17.3992 23.4698 17.3992ZM23.1213 8.99548H21.0592V11.3395H23.1213C24.0157 11.3395 24.5161 10.8677 24.5161 10.1671C24.5161 9.46722 24.0157 8.99548 23.1213 8.99548ZM23.2576 13.1261H21.0592V15.6274H23.2576C24.213 15.6274 24.6672 15.056 24.6672 14.3694C24.6672 13.6835 24.213 13.1261 23.2576 13.1261Z" fill="#EFEFE5"/>
            <path d="M37.9798 8.99548V17.4H35.8723V8.99548H33.0521V7.22286H40.8V8.99548H37.9798Z" fill="#EFEFE5"/>
        </g>
    </g>
    <defs>
        <clipPath id="clip0_6203_55405">
            <rect width="40.8" height="24" fill="white"/>
        </clipPath>
    </defs>
</svg>
