<svg width="58" height="24" viewBox="0 0 58 24" fill="none" xmlns="http://www.w3.org/2000/svg">
    <g clip-path="url(#clip0_6203_55403)">
        <g opacity="0.8">
            <path d="M56.9484 8.875C57.0113 8.875 57.0742 8.875 57.1371 8.9375C57.2 9 57.2001 9.0625 57.2001 9.125V10.5C57.2001 10.5625 57.2 10.625 57.1371 10.6875C57.0742 10.75 57.0113 10.75 56.9484 10.75H55.7533V16.25C55.7533 16.3125 55.7533 16.375 55.6904 16.4375C55.6275 16.5 55.5646 16.5 55.5017 16.5H53.6775C53.6146 16.5 53.5517 16.5 53.4888 16.4375C53.4259 16.375 53.4259 16.3125 53.4259 16.25V10.6875H52.2308C52.1679 10.6875 52.105 10.6875 52.0421 10.625C51.9792 10.5625 51.9792 10.5 51.9792 10.4375V9.0625C51.9792 9 51.9792 8.9375 52.0421 8.875C52.105 8.875 52.1679 8.875 52.2308 8.875H53.4259V6.9375C53.4259 6.875 53.4259 6.8125 53.4888 6.75C53.5517 6.6875 53.6146 6.6875 53.6775 6.6875H55.5017C55.5646 6.6875 55.6275 6.6875 55.6904 6.75C55.7533 6.8125 55.7533 6.875 55.7533 6.9375V8.875H56.9484Z" fill="#EFEFE5"/>
            <path d="M51.7276 12.5625C51.7276 12.875 51.6647 13.125 51.6018 13.3125C51.5389 13.4375 51.4131 13.5 51.1615 13.5H46.6325C46.7583 13.9375 46.947 14.25 47.2615 14.4375C47.576 14.625 48.0164 14.75 48.5196 14.75C48.7712 14.75 49.0228 14.75 49.2115 14.6875C49.4631 14.625 49.7147 14.5 49.9663 14.3125C50.0292 14.25 50.0921 14.25 50.155 14.25C50.2179 14.25 50.2808 14.25 50.3437 14.3125L51.1615 15.0625C51.2244 15.125 51.2244 15.125 51.2244 15.1875C51.2244 15.25 51.2244 15.3125 51.1615 15.375C50.784 15.75 50.4066 16 49.9034 16.25C49.4631 16.4375 48.9599 16.5625 48.3938 16.5625C47.639 16.5625 46.947 16.375 46.318 16.0625C45.7519 15.6875 45.2487 15.25 44.9342 14.625C44.6197 14.0625 44.431 13.375 44.431 12.6875C44.431 12 44.6197 11.3125 44.9342 10.75C45.2487 10.1875 45.7519 9.6875 46.318 9.375C46.8841 9 47.5131 8.875 48.268 8.875C48.9599 8.875 49.5889 9.0625 50.0921 9.375C50.6582 9.6875 51.0357 10.1875 51.3502 10.75C51.6018 11.25 51.7276 11.875 51.7276 12.5625ZM48.2051 10.75C47.8277 10.75 47.4502 10.875 47.1986 11.0625C46.8841 11.25 46.7583 11.5625 46.6325 12H49.7147C49.6518 11.5625 49.4631 11.25 49.2115 11.0625C48.897 10.875 48.5825 10.75 48.2051 10.75Z" fill="#EFEFE5"/>
            <path d="M43.4245 9C43.4874 9 43.5503 9 43.6132 9.0625C43.6761 9.125 43.6761 9.1875 43.6761 9.25V16.4375C43.6761 17.1875 43.4874 17.8125 43.0471 18.25C42.6697 18.75 42.1665 19.0625 41.5375 19.25C40.9084 19.375 40.3423 19.5 39.6504 19.5C39.0214 19.5 38.3924 19.4375 37.8262 19.25C37.2601 19.0625 36.7569 18.8125 36.3795 18.5625C36.3166 18.5 36.3166 18.4375 36.3166 18.375C36.3166 18.3125 36.3166 18.25 36.3166 18.25L36.8827 17.1875C36.9456 17.125 37.0085 17.0625 37.0714 17.0625C37.1343 17.0625 37.1343 17.0625 37.1972 17.0625C37.5117 17.25 37.8892 17.4375 38.2666 17.5C38.644 17.5625 39.0214 17.625 39.5246 17.625C40.0278 17.625 40.531 17.5 40.9084 17.3125C41.3488 17.125 41.5375 16.75 41.5375 16.25V15.5625C40.9713 16.25 40.2165 16.5625 39.3359 16.5625C38.644 16.5625 38.015 16.375 37.5117 16.0625C36.9456 15.6875 36.5053 15.25 36.1908 14.625C35.8763 14.0625 35.7505 13.375 35.7505 12.6875C35.7505 12 35.8763 11.375 36.1908 10.75C36.5682 10.125 36.9456 9.6875 37.5117 9.3125C38.0779 8.9375 38.644 8.8125 39.3359 8.8125C40.1536 8.8125 40.8455 9.125 41.4746 9.8125L41.5375 9.1875C41.5375 9.0625 41.6633 8.9375 41.7891 8.9375H43.4245V9ZM39.6504 14.4375C40.0907 14.4375 40.531 14.25 40.8455 13.875C41.1601 13.5 41.3488 13.125 41.3488 12.625C41.3488 12.125 41.1601 11.75 40.8455 11.375C40.531 11 40.1536 10.8125 39.6504 10.8125C39.1472 10.8125 38.7698 11 38.4553 11.3125C38.1408 11.625 37.9521 12.0625 37.9521 12.5625C37.9521 13.0625 38.0779 13.5 38.3924 13.8125C38.7698 14.25 39.1472 14.4375 39.6504 14.4375Z" fill="#EFEFE5"/>
            <path d="M34.9957 8.875C35.0586 8.875 35.1215 8.875 35.1844 8.9375C35.2473 9 35.2473 9.0625 35.2473 9.125V10.5C35.2473 10.5625 35.2473 10.625 35.1844 10.6875C35.1215 10.75 35.0586 10.75 34.9957 10.75H33.8005V16.25C33.8005 16.3125 33.8005 16.375 33.7376 16.4375C33.6747 16.5 33.6118 16.5 33.5489 16.5H31.7248C31.6619 16.5 31.599 16.5 31.5361 16.4375C31.5361 16.375 31.5361 16.3125 31.5361 16.25V10.6875H30.278C30.2151 10.6875 30.1522 10.6875 30.0893 10.625C30.0264 10.5625 30.0264 10.5 30.0264 10.4375V9.0625C30.0264 9 30.0264 8.9375 30.0893 8.875C30.1522 8.875 30.2151 8.875 30.278 8.875H31.5361V6.9375C31.5361 6.875 31.5361 6.8125 31.599 6.75C31.6619 6.6875 31.7248 6.6875 31.7877 6.6875H33.6118C33.6747 6.6875 33.7376 6.6875 33.8005 6.75C33.8634 6.8125 33.8634 6.875 33.8634 6.9375V8.875H34.9957Z" fill="#EFEFE5"/>
            <path d="M28.0764 8.25C27.7619 8.25 27.4474 8.125 27.1958 7.875C27.0071 7.625 26.8813 7.375 26.8813 7C26.8813 6.625 27.0071 6.375 27.2587 6.125C27.4474 5.875 27.7619 5.75 28.0764 5.75C28.391 5.75 28.7055 5.875 28.9571 6.125C29.2087 6.375 29.3345 6.6875 29.3345 7C29.3345 7.3125 29.2087 7.625 28.9571 7.875C28.7055 8.125 28.4539 8.25 28.0764 8.25ZM26.9442 9.0625C26.9442 9 26.9442 8.9375 27.0071 8.875C27.07 8.875 27.1329 8.875 27.1958 8.875H29.02C29.0829 8.875 29.1458 8.875 29.2087 8.9375C29.2716 9 29.2716 9.0625 29.2716 9.125V16.25C29.2716 16.3125 29.2716 16.375 29.2087 16.4375C29.1458 16.5 29.0829 16.5 29.02 16.5H27.1958C27.1329 16.5 27.07 16.5 27.0071 16.4375C26.9442 16.375 26.9442 16.3125 26.9442 16.25V9.0625Z" fill="#EFEFE5"/>
            <path d="M24.0507 10.75C24.6168 10.875 25.1201 11.1875 25.4975 11.6875C25.9378 12.1875 26.1265 12.75 26.1265 13.375C26.1265 14.375 25.812 15.1875 25.1201 15.6875C24.491 16.1875 23.4846 16.4375 22.1637 16.4375H18.4524C18.3895 16.4375 18.3266 16.4375 18.2637 16.375C18.2008 16.3125 18.2008 16.25 18.2008 16.1875V6C18.2008 5.9375 18.2008 5.875 18.2637 5.8125C18.2637 5.8125 18.3266 5.75 18.3895 5.75H22.1008C22.7927 5.75 23.3588 5.875 23.7991 6.125C24.3023 6.375 24.6797 6.6875 24.8684 7.125C25.1201 7.5625 25.2459 8 25.2459 8.5625C25.2459 9.0625 25.1201 9.5625 24.8684 9.9375C24.6797 10.3125 24.3652 10.625 24.0507 10.75ZM23.1072 8.875C23.1072 8.25 22.7298 7.875 21.9121 7.875H20.5282V9.9375H21.9121C22.2895 9.9375 22.604 9.875 22.7927 9.6875C22.9814 9.5 23.1072 9.1875 23.1072 8.875ZM22.2266 14.375C22.6669 14.375 23.0443 14.25 23.3588 14.0625C23.6104 13.875 23.7991 13.5 23.7991 13.125C23.7991 12.6875 23.6733 12.375 23.3588 12.1875C23.1072 12 22.7298 11.875 22.2266 11.875H20.5282V14.375H22.2266Z" fill="#EFEFE5"/>
            <path d="M5.18013 4.8125C5.36884 4.625 5.62045 4.5 5.87206 4.5H7.69621C7.94782 4.5 8.07362 4.75 7.88492 4.9375L4.29951 8.8125H6.31237L8.32523 10.9375H4.29951L8.32523 15.25H5.87206C5.62045 15.25 5.30594 15.125 5.11723 14.9375L1.02861 10.5625C0.714095 10.1875 0.714095 9.5625 1.09151 9.1875L5.18013 4.8125Z" fill="#EFEFE5"/>
            <path d="M10.7784 19.1875C10.5897 19.375 10.3381 19.5 10.0236 19.5H8.19943C7.94782 19.5 7.82202 19.25 8.01072 19.0625L11.659 15.1875H9.64617L7.63331 13.0625H11.659L7.63331 8.75H10.0865C10.3381 8.75 10.6526 8.875 10.8413 9.0625L14.9299 13.4375C15.3073 13.8125 15.3073 14.4375 14.9299 14.8125L10.7784 19.1875Z" fill="#EFEFE5"/>
        </g>
    </g>
    <defs>
        <clipPath id="clip0_6203_55403">
            <rect width="56.4" height="24" fill="white" transform="translate(0.800049)"/>
        </clipPath>
    </defs>
</svg>
