<svg width="86" height="36" viewBox="0 0 86 36" fill="none" xmlns="http://www.w3.org/2000/svg">
    <path d="M18 4.25985H25.9834C29.1633 4.25985 31.7403 6.83531 31.7403 10.0134V11.7338C31.7403 11.9785 31.9387 12.1769 32.1835 12.1769H35.5568C35.8016 12.1769 36 11.9785 36 11.7338V8.0947C36 7.36069 35.7088 6.66017 35.1908 6.1425L29.854 0.808703C29.3334 0.285882 28.6402 0 27.9032 0H18V4.25985Z" fill="url(#paint0_linear_5836_360)"/>
    <path d="M18 31.7402H25.9834C29.1633 31.7402 31.7403 29.1647 31.7403 25.9866V19.5293C31.7403 19.2846 31.9387 19.0863 32.1835 19.0863H35.5568C35.8016 19.0863 36 19.2846 36 19.5293V27.9053C36 28.6393 35.7088 29.3398 35.1908 29.8575L29.854 35.1913C29.3334 35.7141 28.6402 36 27.9032 36H18V31.7402Z" fill="url(#paint1_linear_5836_360)"/>
    <path d="M18 0H8.09676C7.37006 0 6.65884 0.296183 6.14602 0.808703L0.809135 6.1425C0.291168 6.66017 0 7.36069 0 8.09212V18H4.26226V10.0134C4.26226 6.83531 6.83923 4.25985 10.0192 4.25985H18V0Z" fill="url(#paint2_linear_5836_360)"/>
    <path d="M18 36H8.09676C7.37006 36 6.65884 35.7038 6.14602 35.1913L0.809135 29.8575C0.291168 29.3398 0 28.6393 0 27.9079V18H4.26226V25.9866C4.26226 29.1647 6.83923 31.7402 10.0192 31.7402H18V36Z" fill="url(#paint3_linear_5836_360)"/>
    <path d="M13.0263 20.8421C14.2907 20.8421 15.3158 19.7817 15.3158 18.4736C15.3158 17.1656 14.2907 16.1052 13.0263 16.1052C11.7619 16.1052 10.7368 17.1656 10.7368 18.4736C10.7368 19.7817 11.7619 20.8421 13.0263 20.8421Z" fill="#EFEFE5"/>
    <path d="M23.2895 20.8421C24.5539 20.8421 25.5789 19.7817 25.5789 18.4736C25.5789 17.1656 24.5539 16.1052 23.2895 16.1052C22.0251 16.1052 21 17.1656 21 18.4736C21 19.7817 22.0251 20.8421 23.2895 20.8421Z" fill="#EFEFE5"/>
    <path d="M49.2872 7.86601C49.2504 8.15182 49.1768 8.415 49.0665 8.65553C48.9561 8.89324 48.8132 9.09698 48.6377 9.26677C48.4595 9.43939 48.2486 9.57381 48.0053 9.67002C47.7647 9.76341 47.4959 9.8101 47.1988 9.8101C46.9441 9.8101 46.712 9.77473 46.5026 9.70398C46.2961 9.63041 46.1121 9.52995 45.9508 9.40261C45.7867 9.27526 45.6452 9.12528 45.5263 8.95266C45.4103 8.78004 45.3141 8.59186 45.2377 8.38811C45.1585 8.18436 45.099 7.97071 45.0594 7.74715C45.0226 7.5236 45.0028 7.29721 45 7.068V6.20631C45.0028 5.9771 45.0226 5.75071 45.0594 5.52715C45.099 5.3036 45.1585 5.08994 45.2377 4.8862C45.3141 4.68245 45.4103 4.49426 45.5263 4.32164C45.6452 4.14619 45.7867 3.9948 45.9508 3.86746C46.1121 3.74011 46.2961 3.64107 46.5026 3.57032C46.7092 3.49675 46.9413 3.45996 47.1988 3.45996C47.5072 3.45996 47.7831 3.50807 48.0265 3.60428C48.2699 3.69767 48.4793 3.83067 48.6547 4.00329C48.8302 4.17874 48.9703 4.38815 49.075 4.63151C49.1825 4.87488 49.2532 5.14371 49.2872 5.43801H48.5019C48.4764 5.25124 48.4326 5.07721 48.3703 4.91591C48.3081 4.75461 48.2246 4.61312 48.1199 4.49143C48.0152 4.36975 47.8864 4.27495 47.7336 4.20704C47.5836 4.13629 47.4054 4.10092 47.1988 4.10092C47.012 4.10092 46.8465 4.13205 46.7021 4.1943C46.5607 4.25373 46.439 4.33579 46.3371 4.4405C46.2324 4.5452 46.1447 4.66688 46.0739 4.80555C46.006 4.94421 45.9508 5.09136 45.9084 5.247C45.8659 5.40264 45.8348 5.56253 45.815 5.72666C45.798 5.88796 45.7895 6.04501 45.7895 6.19782V7.068C45.7895 7.22081 45.798 7.37928 45.815 7.54341C45.8348 7.70471 45.8659 7.86318 45.9084 8.01882C45.9508 8.17729 46.006 8.32586 46.0739 8.46452C46.1418 8.60318 46.2281 8.72486 46.3329 8.82957C46.4376 8.9371 46.5607 9.02199 46.7021 9.08425C46.8436 9.14368 47.0092 9.17339 47.1988 9.17339C47.4054 9.17339 47.5836 9.14085 47.7336 9.07576C47.8864 9.01067 48.0152 8.9187 48.1199 8.79985C48.2246 8.68383 48.3081 8.54658 48.3703 8.38811C48.4326 8.22681 48.4764 8.05278 48.5019 7.86601H49.2872Z" fill="white"/>
    <path d="M54.3809 9.72521H53.6381V6.86849H51.1039V9.72521H50.3654V3.54486H51.1039V6.20207H53.6381V3.54486H54.3809V9.72521Z" fill="white"/>
    <path d="M58.6766 8.12494H56.6136L56.117 9.72521H55.3317L57.3267 3.54486H57.9847L59.9458 9.72521H59.1647L58.6766 8.12494ZM56.8259 7.44153H58.4686L57.6536 4.75885L56.8259 7.44153Z" fill="white"/>
    <path d="M60.9475 3.54486H64.6829V4.22826H63.2015V9.04605H64.6829V9.72521H60.9475V9.04605H62.395V4.22826H60.9475V3.54486Z" fill="white"/>
    <path d="M70.0398 9.72521H69.2417L66.8435 5.10692L66.8307 9.72521H66.037V3.54486H66.835L69.2333 8.15465L69.246 3.54486H70.0398V9.72521Z" fill="white"/>
    <path d="M75.3881 8.91446C75.2919 9.02765 75.19 9.13094 75.0825 9.22433C74.975 9.31488 74.8632 9.39412 74.7472 9.46203C74.5491 9.58088 74.3354 9.66861 74.1062 9.72521C73.877 9.78463 73.6365 9.81293 73.3846 9.8101C73.1299 9.80727 72.8951 9.76907 72.68 9.69549C72.4678 9.61909 72.2767 9.51438 72.1069 9.38138C71.9372 9.25121 71.7886 9.09698 71.6612 8.9187C71.5339 8.74043 71.4278 8.54658 71.3429 8.33717C71.2552 8.1306 71.1887 7.91411 71.1434 7.68773C71.1009 7.45851 71.0783 7.22788 71.0755 6.99583V6.27847C71.0783 6.04926 71.0981 5.82145 71.1349 5.59507C71.1745 5.36585 71.2339 5.14654 71.3132 4.93713C71.3924 4.72773 71.4915 4.53388 71.6103 4.3556C71.7292 4.17449 71.8721 4.01744 72.039 3.88444C72.2032 3.75426 72.3899 3.65097 72.5993 3.57457C72.8087 3.49816 73.0436 3.45996 73.304 3.45996C73.5926 3.45996 73.8586 3.50524 74.102 3.59579C74.3453 3.68352 74.5576 3.80945 74.7387 3.97358C74.9198 4.14054 75.0655 4.34145 75.1759 4.57633C75.2863 4.80838 75.3542 5.06872 75.3796 5.35736H74.6029C74.5717 5.17908 74.5236 5.01495 74.4585 4.86497C74.3934 4.71216 74.3086 4.58199 74.2039 4.47446C74.0963 4.36692 73.969 4.28344 73.8218 4.22402C73.6747 4.16176 73.5035 4.13063 73.3082 4.13063C73.1214 4.13063 72.9559 4.16317 72.8116 4.22826C72.6673 4.29052 72.5413 4.37541 72.4338 4.48294C72.3263 4.59048 72.2371 4.71641 72.1664 4.86073C72.0956 5.00222 72.0376 5.1522 71.9923 5.31067C71.9471 5.46914 71.9145 5.63044 71.8947 5.79457C71.8749 5.9587 71.865 6.11717 71.865 6.26998V6.99583C71.8678 7.15148 71.8806 7.31278 71.9032 7.47974C71.9287 7.64387 71.9669 7.80517 72.0178 7.96364C72.0687 8.12211 72.1338 8.27209 72.2131 8.41358C72.2923 8.55507 72.3885 8.67958 72.5017 8.78712C72.6121 8.89465 72.7408 8.98096 72.888 9.04605C73.0351 9.1083 73.2021 9.14085 73.3889 9.14368C73.4964 9.14651 73.6082 9.14226 73.7242 9.13094C73.843 9.11962 73.9577 9.09698 74.068 9.06303C74.1784 9.02907 74.2817 8.98379 74.3779 8.92719C74.4741 8.86777 74.5548 8.79136 74.6198 8.69798L74.6283 7.30995H73.3719V6.64777H75.3754L75.3881 8.91446Z" fill="white"/>
    <path d="M77.4681 7.24627V9.72521H76.6828V3.54486H78.6863C78.9636 3.55052 79.2254 3.59438 79.4716 3.67644C79.7206 3.75851 79.9385 3.87736 80.1253 4.033C80.312 4.18864 80.4592 4.38107 80.5667 4.61029C80.6771 4.8395 80.7323 5.10268 80.7323 5.39981C80.7323 5.69694 80.6771 5.96012 80.5667 6.18933C80.4592 6.41572 80.312 6.60673 80.1253 6.76237C79.9385 6.91801 79.7206 7.03687 79.4716 7.11893C79.2254 7.201 78.9636 7.24344 78.6863 7.24627H77.4681ZM77.4681 6.60107H78.6863C78.8674 6.59824 79.0344 6.56995 79.1872 6.51618C79.34 6.45958 79.473 6.38035 79.5862 6.27847C79.6994 6.1766 79.7871 6.0535 79.8494 5.90918C79.9144 5.76203 79.947 5.59507 79.947 5.4083C79.947 5.22153 79.9144 5.05316 79.8494 4.90317C79.7871 4.75319 79.7008 4.62585 79.5904 4.52115C79.4772 4.41644 79.3428 4.33579 79.1872 4.2792C79.0344 4.2226 78.8674 4.19289 78.6863 4.19006H77.4681V6.60107Z" fill="white"/>
    <path d="M86 4.21553H84.0899V9.72521H83.3258V4.21553H81.4157V3.54486H86V4.21553Z" fill="white"/>
    <path d="M53.2299 14.2142C54.8288 14.2142 56.1752 14.6771 57.2691 15.6027C58.3799 16.5115 58.9353 17.9421 58.9353 19.8944C58.9353 21.9308 58.3967 23.3866 57.3196 24.2618C56.2425 25.1201 54.8792 25.5493 53.2299 25.5493H47.2721V32.1382H45V14.2142H53.2299ZM52.7502 23.3782C54.1135 23.3782 55.0812 23.0753 55.6534 22.4694C56.2425 21.8467 56.537 20.9883 56.537 19.8944C56.537 18.8004 56.2425 17.9505 55.6534 17.3446C55.0812 16.7219 54.1135 16.4105 52.7502 16.4105H47.2721V23.3782H52.7502Z" fill="#EFEFE5"/>
    <path d="M71.3963 29.0331C71.3963 29.6558 71.7245 29.9672 72.3809 29.9672V32.1382C71.5899 32.1382 70.9335 32.0625 70.4117 31.911C69.9068 31.7596 69.545 31.3977 69.3262 30.8255C68.9391 31.4314 68.3501 31.869 67.5591 32.1382C66.768 32.3907 65.9181 32.5169 65.0093 32.5169C63.6461 32.5169 62.5016 32.2056 61.576 31.5828C60.6503 30.9601 60.1875 29.9419 60.1875 28.5282V28.2505C60.1875 27.1229 60.6251 26.2141 61.5002 25.524C62.3754 24.8172 63.5451 24.4637 65.0093 24.4637H69.1242C69.1074 23.841 69.0317 23.3445 68.897 22.9743C68.7624 22.5872 68.5015 22.2927 68.1144 22.0907C67.7442 21.8887 67.1972 21.7878 66.4735 21.7878H64.9588C64.3361 21.7878 63.8144 21.9392 63.3936 22.2422C62.9897 22.5283 62.7877 22.8817 62.7877 23.3025H60.5157C60.5157 22.6797 60.6924 22.0907 61.0458 21.5353C61.4161 20.9631 61.921 20.5003 62.5605 20.1468C63.2169 19.7934 63.9406 19.6167 64.7316 19.6167H67.2056C68.451 19.6167 69.4608 20.0122 70.235 20.8032C71.0092 21.5942 71.3963 22.8649 71.3963 24.6152V29.0331ZM65.7414 30.3458C66.4988 30.3458 67.2477 30.1944 67.9882 29.8914C68.7456 29.5885 69.1242 29.0836 69.1242 28.3767V26.3824H65.7414C64.4792 26.3824 63.6124 26.5927 63.1412 27.0135C62.6868 27.4174 62.4595 27.8886 62.4595 28.4272C62.4595 29.1341 62.7036 29.6306 63.1917 29.9167C63.6966 30.2028 64.5465 30.3458 65.7414 30.3458Z" fill="#EFEFE5"/>
    <path d="M86 13.8103V32.1382H83.7279V29.9672C83.3409 30.7077 82.7518 31.322 81.9608 31.8101C81.1866 32.2981 80.404 32.5422 79.613 32.5422C78.0646 32.5422 76.7855 32.0793 75.7757 31.1537C74.7828 30.2112 74.2863 28.8395 74.2863 27.0387V25.1201C74.2863 23.3193 74.7828 21.9561 75.7757 21.0304C76.7855 20.0879 78.0646 19.6167 79.613 19.6167C80.404 19.6167 81.1866 19.8607 81.9608 20.3488C82.7518 20.8369 83.3409 21.4511 83.7279 22.1917V13.8103H86ZM80.0926 30.3711C80.6649 30.3711 81.2287 30.2449 81.7841 29.9924C82.3395 29.74 82.8023 29.3108 83.1726 28.7049C83.5428 28.099 83.7279 27.3164 83.7279 26.3571V25.8017C83.7279 24.8424 83.5428 24.0598 83.1726 23.4539C82.8023 22.848 82.3395 22.4189 81.7841 22.1664C81.2287 21.914 80.6649 21.7878 80.0926 21.7878C78.8977 21.7878 78.0057 22.1159 77.4167 22.7723C76.8444 23.4287 76.5583 24.3459 76.5583 25.524V26.6348C76.5583 27.8129 76.8444 28.7302 77.4167 29.3865C78.0057 30.0429 78.8977 30.3711 80.0926 30.3711Z" fill="#EFEFE5"/>
    <defs>
        <linearGradient id="paint0_linear_5836_360" x1="34.9737" y1="12.1579" x2="18.2368" y2="3.47368" gradientUnits="userSpaceOnUse">
            <stop stop-color="#6C5AE6"/>
            <stop offset="1" stop-color="#724CE8"/>
        </linearGradient>
        <linearGradient id="paint1_linear_5836_360" x1="34.9737" y1="23.8421" x2="18.2368" y2="32.5263" gradientUnits="userSpaceOnUse">
            <stop stop-color="#724CE8"/>
            <stop offset="1" stop-color="#E5A4A4"/>
        </linearGradient>
        <linearGradient id="paint2_linear_5836_360" x1="17.2895" y1="4.02631" x2="4.6579" y2="19.8947" gradientUnits="userSpaceOnUse">
            <stop stop-color="#724CE8"/>
            <stop offset="1" stop-color="#C34C52"/>
        </linearGradient>
        <linearGradient id="paint3_linear_5836_360" x1="14.1316" y1="31.8947" x2="4.10527" y2="17.3684" gradientUnits="userSpaceOnUse">
            <stop stop-color="#E6A4A4"/>
            <stop offset="1" stop-color="#C34C52"/>
        </linearGradient>
    </defs>
</svg>
