<svg width="58" height="16" viewBox="0 0 58 16" fill="none" xmlns="http://www.w3.org/2000/svg">
<g opacity="0.8">
<path d="M56.9484 4.875C57.0113 4.875 57.0742 4.875 57.1371 4.9375C57.2 5 57.2 5.0625 57.2 5.125V6.5C57.2 6.5625 57.2 6.625 57.1371 6.6875C57.0742 6.75 57.0113 6.75 56.9484 6.75H55.7533V12.25C55.7533 12.3125 55.7533 12.375 55.6904 12.4375C55.6275 12.5 55.5646 12.5 55.5017 12.5H53.6775C53.6146 12.5 53.5517 12.5 53.4888 12.4375C53.4259 12.375 53.4259 12.3125 53.4259 12.25V6.6875H52.2308C52.1678 6.6875 52.1049 6.6875 52.042 6.625C51.9791 6.5625 51.9791 6.5 51.9791 6.4375V5.0625C51.9791 5 51.9791 4.9375 52.042 4.875C52.1049 4.875 52.1678 4.875 52.2308 4.875H53.4259V2.9375C53.4259 2.875 53.4259 2.8125 53.4888 2.75C53.5517 2.6875 53.6146 2.6875 53.6775 2.6875H55.5017C55.5646 2.6875 55.6275 2.6875 55.6904 2.75C55.7533 2.8125 55.7533 2.875 55.7533 2.9375V4.875H56.9484Z" fill="#757575"/>
<path d="M51.7275 8.5625C51.7275 8.875 51.6646 9.125 51.6017 9.3125C51.5388 9.4375 51.413 9.5 51.1614 9.5H46.6325C46.7583 9.9375 46.947 10.25 47.2615 10.4375C47.576 10.625 48.0163 10.75 48.5195 10.75C48.7711 10.75 49.0227 10.75 49.2115 10.6875C49.4631 10.625 49.7147 10.5 49.9663 10.3125C50.0292 10.25 50.0921 10.25 50.155 10.25C50.2179 10.25 50.2808 10.25 50.3437 10.3125L51.1614 11.0625C51.2243 11.125 51.2243 11.125 51.2243 11.1875C51.2243 11.25 51.2243 11.3125 51.1614 11.375C50.784 11.75 50.4066 12 49.9034 12.25C49.4631 12.4375 48.9599 12.5625 48.3937 12.5625C47.6389 12.5625 46.947 12.375 46.318 12.0625C45.7518 11.6875 45.2486 11.25 44.9341 10.625C44.6196 10.0625 44.4309 9.375 44.4309 8.6875C44.4309 8 44.6196 7.3125 44.9341 6.75C45.2486 6.1875 45.7518 5.6875 46.318 5.375C46.8841 5 47.5131 4.875 48.2679 4.875C48.9598 4.875 49.5889 5.0625 50.0921 5.375C50.6582 5.6875 51.0356 6.1875 51.3501 6.75C51.6017 7.25 51.7275 7.875 51.7275 8.5625ZM48.205 6.75C47.8276 6.75 47.4502 6.875 47.1986 7.0625C46.8841 7.25 46.7583 7.5625 46.6325 8H49.7147C49.6518 7.5625 49.4631 7.25 49.2115 7.0625C48.8969 6.875 48.5824 6.75 48.205 6.75Z" fill="#757575"/>
<path d="M43.4245 5C43.4874 5 43.5503 5 43.6132 5.0625C43.6761 5.125 43.6761 5.1875 43.6761 5.25V12.4375C43.6761 13.1875 43.4874 13.8125 43.0471 14.25C42.6697 14.75 42.1664 15.0625 41.5374 15.25C40.9084 15.375 40.3423 15.5 39.6504 15.5C39.0213 15.5 38.3923 15.4375 37.8262 15.25C37.2601 15.0625 36.7569 14.8125 36.3795 14.5625C36.3166 14.5 36.3166 14.4375 36.3166 14.375C36.3166 14.3125 36.3166 14.25 36.3166 14.25L36.8827 13.1875C36.9456 13.125 37.0085 13.0625 37.0714 13.0625C37.1343 13.0625 37.1343 13.0625 37.1972 13.0625C37.5117 13.25 37.8891 13.4375 38.2665 13.5C38.6439 13.5625 39.0213 13.625 39.5246 13.625C40.0278 13.625 40.531 13.5 40.9084 13.3125C41.3487 13.125 41.5374 12.75 41.5374 12.25V11.5625C40.9713 12.25 40.2165 12.5625 39.3359 12.5625C38.6439 12.5625 38.0149 12.375 37.5117 12.0625C36.9456 11.6875 36.5053 11.25 36.1908 10.625C35.8762 10.0625 35.7504 9.375 35.7504 8.6875C35.7504 8 35.8762 7.375 36.1908 6.75C36.5682 6.125 36.9456 5.6875 37.5117 5.3125C38.0778 4.9375 38.6439 4.8125 39.3359 4.8125C40.1536 4.8125 40.8455 5.125 41.4745 5.8125L41.5374 5.1875C41.5374 5.0625 41.6632 4.9375 41.789 4.9375H43.4245V5ZM39.6504 10.4375C40.0907 10.4375 40.531 10.25 40.8455 9.875C41.16 9.5 41.3487 9.125 41.3487 8.625C41.3487 8.125 41.16 7.75 40.8455 7.375C40.531 7 40.1536 6.8125 39.6504 6.8125C39.1471 6.8125 38.7697 7 38.4552 7.3125C38.1407 7.625 37.952 8.0625 37.952 8.5625C37.952 9.0625 38.0778 9.5 38.3923 9.8125C38.7697 10.25 39.1471 10.4375 39.6504 10.4375Z" fill="#757575"/>
<path d="M34.9956 4.875C35.0585 4.875 35.1214 4.875 35.1843 4.9375C35.2472 5 35.2472 5.0625 35.2472 5.125V6.5C35.2472 6.5625 35.2472 6.625 35.1843 6.6875C35.1214 6.75 35.0585 6.75 34.9956 6.75H33.8005V12.25C33.8005 12.3125 33.8005 12.375 33.7376 12.4375C33.6747 12.5 33.6118 12.5 33.5489 12.5H31.7247C31.6618 12.5 31.5989 12.5 31.536 12.4375C31.536 12.375 31.536 12.3125 31.536 12.25V6.6875H30.278C30.2151 6.6875 30.1522 6.6875 30.0893 6.625C30.0264 6.5625 30.0264 6.5 30.0264 6.4375V5.0625C30.0264 5 30.0264 4.9375 30.0893 4.875C30.1522 4.875 30.2151 4.875 30.278 4.875H31.536V2.9375C31.536 2.875 31.536 2.8125 31.5989 2.75C31.6618 2.6875 31.7247 2.6875 31.7876 2.6875H33.6118C33.6747 2.6875 33.7376 2.6875 33.8005 2.75C33.8634 2.8125 33.8634 2.875 33.8634 2.9375V4.875H34.9956Z" fill="#757575"/>
<path d="M28.0764 4.25C27.7619 4.25 27.4474 4.125 27.1958 3.875C27.0071 3.625 26.8813 3.375 26.8813 3C26.8813 2.625 27.0071 2.375 27.2587 2.125C27.4474 1.875 27.7619 1.75 28.0764 1.75C28.3909 1.75 28.7054 1.875 28.957 2.125C29.2086 2.375 29.3344 2.6875 29.3344 3C29.3344 3.3125 29.2086 3.625 28.957 3.875C28.7054 4.125 28.4538 4.25 28.0764 4.25ZM26.9442 5.0625C26.9442 5 26.9442 4.9375 27.0071 4.875C27.07 4.875 27.1329 4.875 27.1958 4.875H29.0199C29.0828 4.875 29.1457 4.875 29.2086 4.9375C29.2715 5 29.2715 5.0625 29.2715 5.125V12.25C29.2715 12.3125 29.2715 12.375 29.2086 12.4375C29.1457 12.5 29.0828 12.5 29.0199 12.5H27.1958C27.1329 12.5 27.07 12.5 27.0071 12.4375C26.9442 12.375 26.9442 12.3125 26.9442 12.25V5.0625Z" fill="#757575"/>
<path d="M24.0507 6.75C24.6168 6.875 25.12 7.1875 25.4974 7.6875C25.9377 8.1875 26.1264 8.75 26.1264 9.375C26.1264 10.375 25.8119 11.1875 25.12 11.6875C24.491 12.1875 23.4846 12.4375 22.1636 12.4375H18.4524C18.3895 12.4375 18.3266 12.4375 18.2637 12.375C18.2008 12.3125 18.2008 12.25 18.2008 12.1875V2C18.2008 1.9375 18.2008 1.875 18.2637 1.8125C18.2637 1.8125 18.3266 1.75 18.3895 1.75H22.1007C22.7926 1.75 23.3588 1.875 23.7991 2.125C24.3023 2.375 24.6797 2.6875 24.8684 3.125C25.12 3.5625 25.2458 4 25.2458 4.5625C25.2458 5.0625 25.12 5.5625 24.8684 5.9375C24.6797 6.3125 24.3652 6.625 24.0507 6.75ZM23.1071 4.875C23.1071 4.25 22.7297 3.875 21.912 3.875H20.5282V5.9375H21.912C22.2894 5.9375 22.6039 5.875 22.7926 5.6875C22.9813 5.5 23.1071 5.1875 23.1071 4.875ZM22.2265 10.375C22.6668 10.375 23.0442 10.25 23.3588 10.0625C23.6104 9.875 23.7991 9.5 23.7991 9.125C23.7991 8.6875 23.6733 8.375 23.3588 8.1875C23.1071 8 22.7297 7.875 22.2265 7.875H20.5282V10.375H22.2265Z" fill="#757575"/>
<path d="M5.18009 0.8125C5.36879 0.625 5.6204 0.5 5.87201 0.5H7.69617C7.94777 0.5 8.07358 0.75 7.88487 0.9375L4.29946 4.8125H6.31232L8.32519 6.9375H4.29946L8.32519 11.25H5.87201C5.6204 11.25 5.30589 11.125 5.11719 10.9375L1.02856 6.5625C0.71405 6.1875 0.71405 5.5625 1.09146 5.1875L5.18009 0.8125Z" fill="#757575"/>
<path d="M10.7784 15.1875C10.5897 15.375 10.338 15.5 10.0235 15.5H8.19938C7.94777 15.5 7.82197 15.25 8.01068 15.0625L11.659 11.1875H9.64613L7.63327 9.0625H11.659L7.63327 4.75H10.0864C10.338 4.75 10.6526 4.875 10.8413 5.0625L14.9299 9.4375C15.3073 9.8125 15.3073 10.4375 14.9299 10.8125L10.7784 15.1875Z" fill="#757575"/>
</g>
</svg>
