<svg width="69" height="16" viewBox="0 0 69 16" fill="none" xmlns="http://www.w3.org/2000/svg">
<g opacity="0.8">
<path d="M54.0359 8.00159C54.0359 7.60318 54.0359 7.22842 54.0228 6.88232C54.0139 6.55582 53.9812 6.23037 53.9249 5.90852C53.8722 5.61462 53.7793 5.32919 53.6486 5.06011C53.5106 4.78268 53.3262 4.53024 53.1031 4.31345C52.7868 3.99324 52.4104 3.73696 51.9949 3.55892C51.5454 3.37904 51.064 3.28986 50.5791 3.29666C50.0923 3.29044 49.6091 3.37958 49.1575 3.55892C48.7396 3.73453 48.3608 3.9897 48.0427 4.30987C47.82 4.52653 47.6363 4.77902 47.4994 5.05653C47.3698 5.32567 47.2783 5.61115 47.2274 5.90493C47.1724 6.22688 47.1409 6.55232 47.1331 6.87874C47.1244 7.22484 47.1201 7.5996 47.1222 7.99801C47.1244 8.39641 47.1222 8.76831 47.1331 9.11656C47.1409 9.44297 47.1724 9.76841 47.2274 10.0904C47.2783 10.3841 47.3698 10.6696 47.4994 10.9388C47.6369 11.216 47.8205 11.4684 48.0427 11.6854C48.3602 12.0059 48.7392 12.2606 49.1575 12.4349C49.6088 12.6155 50.0921 12.7051 50.5791 12.6986C51.0641 12.7057 51.5457 12.616 51.9949 12.4349C52.4104 12.2593 52.787 12.0046 53.1031 11.6854C53.3257 11.4682 53.51 11.2159 53.6486 10.9388C53.7793 10.6697 53.8722 10.3843 53.9249 10.0904C53.9806 9.76942 54.0128 9.44494 54.0214 9.11942C54.0322 8.77117 54.0373 8.39856 54.0344 8.00087L54.0359 8.00159ZM52.2081 8.00159C52.2081 8.44299 52.2016 8.81059 52.1863 9.10294C52.1778 9.34309 52.1535 9.58244 52.1138 9.8195C52.0866 9.97744 52.0378 10.131 51.9687 10.276C51.9127 10.3928 51.8393 10.5007 51.7512 10.5963C51.615 10.7502 51.4461 10.8726 51.2565 10.9545C51.0431 11.0447 50.8133 11.0906 50.5812 11.0893C50.348 11.0903 50.1171 11.0444 49.9023 10.9545C49.7081 10.8741 49.5346 10.7517 49.3946 10.5963C49.3059 10.5012 49.2325 10.3931 49.177 10.276C49.1099 10.1309 49.0635 9.97723 49.0392 9.8195C49.0005 9.5823 48.9763 9.34302 48.9667 9.10294C48.9536 8.81059 48.9471 8.44347 48.9471 8.00159C48.9471 7.56019 48.9536 7.19188 48.9667 6.89952C48.9763 6.65945 49.0005 6.42016 49.0392 6.18296C49.0635 6.02523 49.1099 5.87161 49.177 5.72651C49.2327 5.60944 49.306 5.50143 49.3946 5.40621C49.5348 5.251 49.7083 5.12861 49.9023 5.04793C50.1167 4.95701 50.3479 4.91114 50.5812 4.91322C50.8134 4.91083 51.0435 4.95673 51.2565 5.04793C51.4459 5.13013 51.6148 5.25244 51.7512 5.40621C51.8392 5.50186 51.9125 5.60978 51.9687 5.72651C52.0378 5.87146 52.0866 6.02502 52.1138 6.18296C52.1535 6.42003 52.1777 6.65938 52.1863 6.89952C52.2023 7.19116 52.2081 7.55947 52.2081 8.00159Z" fill="#757575"/>
<path d="M68.6 3.53599C68.5992 3.44885 68.5279 3.37841 68.4397 3.37763H66.9318C66.8435 3.37802 66.7719 3.44869 66.7715 3.53599V9.03917L63.0942 3.42205C63.0696 3.38408 63.0478 3.37763 62.9934 3.37763H61.595C61.507 3.37879 61.4359 3.44901 61.4347 3.53599V12.4658C61.4359 12.5526 61.5071 12.6226 61.595 12.6234H63.1022C63.1902 12.623 63.2614 12.5527 63.2618 12.4658V6.94825L66.9398 12.5783C66.9652 12.6162 66.9855 12.6227 67.0406 12.6227H68.4383C68.5264 12.6223 68.5978 12.5521 68.5986 12.465L68.6 3.53599Z" fill="#757575"/>
<path d="M58.4921 3.53599C58.4918 3.44869 58.4202 3.37802 58.3319 3.37763H56.8254C56.737 3.37802 56.6655 3.44869 56.6651 3.53599V12.465C56.6655 12.5523 56.737 12.623 56.8254 12.6234H58.3319C58.4202 12.623 58.4918 12.5523 58.4921 12.465V3.53599Z" fill="#757575"/>
<path d="M40.4581 8.00159C40.4581 7.55732 40.4632 7.18758 40.4763 6.89307C40.4851 6.65295 40.5094 6.41362 40.5488 6.17651C40.6881 5.38113 41.3046 4.91178 42.0915 4.91178C42.605 4.91608 43.0707 5.10382 43.3681 5.53089C43.5027 5.73027 43.6009 5.95146 43.6582 6.18439C43.6626 6.20893 43.6853 6.22605 43.7104 6.2238H45.4838C45.5092 6.2238 45.5186 6.20661 45.5142 6.18224C45.3206 5.09809 44.7353 4.12428 43.701 3.64204C43.1927 3.40952 42.6378 3.29318 42.0777 3.30167C41.0792 3.30167 40.2381 3.63941 39.5544 4.31489C39.164 4.69074 38.8976 5.17425 38.7899 5.70215C38.6855 6.22189 38.6328 6.98813 38.6318 8.00087C38.6308 9.01361 38.6836 9.77961 38.7899 10.2989C38.8967 10.8275 39.1624 11.3119 39.5522 11.689C40.2355 12.364 41.0766 12.7015 42.0756 12.7015C42.6356 12.7099 43.1903 12.5938 43.6988 12.3619C44.7331 11.8796 45.3184 10.9058 45.5121 9.82165C45.5164 9.79657 45.507 9.78009 45.4816 9.78009H43.7075C43.6823 9.77748 43.6594 9.79477 43.6553 9.8195C43.5979 10.0522 43.4997 10.2731 43.3652 10.4723C43.0678 10.9022 42.6021 11.0878 42.0886 11.0914C41.3017 11.0914 40.6852 10.6228 40.5459 9.82738C40.5065 9.59027 40.4823 9.35095 40.4734 9.11082C40.4632 8.81489 40.4581 8.44442 40.4581 8.00159Z" fill="#757575"/>
<path d="M21.7278 3.53599C21.7274 3.44869 21.6559 3.37802 21.5675 3.37763H20.0611C19.9727 3.37802 19.9012 3.44869 19.9008 3.53599V12.4658C19.9016 12.5528 19.973 12.623 20.0611 12.6235H21.5675C21.6556 12.623 21.727 12.5528 21.7278 12.4658V9.84458L22.9369 8.41648L25.4204 12.5761C25.4395 12.6068 25.4739 12.6249 25.5103 12.6235H27.341C27.4251 12.6235 27.4403 12.5718 27.3983 12.5009L24.1467 7.05501L27.1299 3.51951C27.1901 3.44785 27.1647 3.37978 27.0704 3.37978H25.0693C25.045 3.37836 25.0215 3.38913 25.0069 3.40844L21.7278 7.29363V3.53599Z" fill="#757575"/>
<path d="M32.7032 11.0914C31.8553 11.0914 31.0865 10.3161 31.0865 9.39028V3.53599C31.0861 3.44869 31.0145 3.37802 30.9262 3.37763H29.4197C29.3313 3.37802 29.2598 3.44869 29.2594 3.53599V9.36735C29.2594 11.406 30.8029 12.7015 32.7032 12.7015C34.6035 12.7015 36.1469 11.406 36.1469 9.36735V3.53599C36.1461 3.44885 36.0748 3.37841 35.9866 3.37763H34.4794C34.3914 3.37841 34.3203 3.44897 34.3199 3.53599V9.39028C34.3199 10.3154 33.5503 11.0914 32.7032 11.0914Z" fill="#757575"/>
<path fill-rule="evenodd" clip-rule="evenodd" d="M4.75784 8.00159L9.43461 12.6227L12.3866 9.70629C12.9145 9.23673 13.722 9.25762 14.2243 9.75382C14.7265 10.25 14.7477 11.0479 14.2724 11.5693L10.3768 15.4187C9.85351 15.9271 9.01426 15.9271 8.49099 15.4187L2.87059 9.86465V13.1658C2.87059 13.8944 2.27276 14.485 1.5353 14.485C0.797841 14.485 0.200012 13.8944 0.200012 13.1658V2.83304C0.200012 2.10448 0.797841 1.51386 1.5353 1.51386C2.27276 1.51386 2.87059 2.10448 2.87059 2.83304V6.13423L8.49026 0.581611C9.01337 0.0728127 9.85295 0.0728127 10.3761 0.581611L14.2746 4.43025C14.7499 4.95175 14.7287 5.74957 14.2265 6.24578C13.7242 6.74198 12.9166 6.76287 12.3888 6.29331L9.43679 3.37691L4.75784 8.00159ZM9.43679 6.68097C8.89606 6.68068 8.40841 7.00225 8.20128 7.49571C7.99415 7.98917 8.10834 8.55731 8.49059 8.93515C8.87284 9.313 9.44785 9.42612 9.94744 9.22175C10.447 9.01739 10.7728 8.5358 10.7728 8.00159C10.773 7.65134 10.6323 7.31536 10.3818 7.06756C10.1312 6.81976 9.79131 6.68044 9.43679 6.68025V6.68097Z" fill="#757575"/>
</g>
</svg>
