<svg width="81" height="10" viewBox="0 0 81 10" fill="none" xmlns="http://www.w3.org/2000/svg">
<g opacity="0.8">
<path d="M4.35875 0.964426C5.10095 -0.245084 6.86346 -0.230385 7.58538 0.991334L11.7398 8.02183C12.086 8.60771 11.6636 9.34784 10.9831 9.34784H2.80408C1.23362 9.34784 0.270479 7.6268 1.09185 6.28826L4.35875 0.964426Z" fill="#757575"/>
<path d="M10.2384 0.252634C11.1392 -0.267436 12.291 0.0411969 12.8111 0.941984L16.0129 6.48769C16.533 7.38848 16.2243 8.54031 15.3236 9.06038C14.4228 9.58045 13.2709 9.27182 12.7509 8.37103L9.54905 2.82532C9.02898 1.92454 9.33761 0.772704 10.2384 0.252634Z" fill="#757575"/>
<path d="M80.0341 8.80971C79.5468 8.80971 79.1648 8.70438 78.8754 8.52004C78.5722 8.32255 78.4143 8.03283 78.4143 7.63784V1.89712H79.1782C79.4547 1.89712 79.6917 2.12096 79.6917 2.41063V7.46667C79.6917 7.47987 79.6917 7.71685 79.8891 7.91435C80.0074 8.03283 80.1523 8.09868 80.3497 8.09868H80.4947C80.5476 8.09868 80.6001 8.15137 80.6001 8.20401V8.82287L80.0341 8.80971Z" fill="#757575"/>
<path d="M63.5754 8.80927C62.7853 8.80927 62.1402 8.59861 61.6529 8.17725C61.403 7.9666 61.2319 7.72957 61.1265 7.46623C61.0211 7.20293 60.9682 6.82105 60.9682 6.30757C60.9682 5.80725 61.0211 5.41221 61.1265 5.14887C61.2185 4.89873 61.3897 4.67486 61.64 4.46421C62.1268 4.04288 62.772 3.83221 63.562 3.83221C64.3521 3.83221 64.9973 4.04288 65.4846 4.46421C65.7349 4.67486 65.9061 4.91189 65.9981 5.14887C66.1035 5.42537 66.1559 5.80725 66.1559 6.30757C66.1559 6.82105 66.1035 7.20293 65.9981 7.46623C65.8927 7.72957 65.7215 7.9666 65.4712 8.17725C65.0106 8.59861 64.3655 8.80927 63.5754 8.80927ZM63.5754 4.55638C62.7062 4.55638 62.2718 5.14887 62.2718 6.32073C62.2718 7.50576 62.7062 8.09824 63.5754 8.09824C64.4442 8.09824 64.879 7.50576 64.879 6.33389C64.879 5.14887 64.4313 4.55638 63.5754 4.55638Z" fill="#757575"/>
<path d="M69.0263 8.80971C68.3416 8.80971 67.7099 8.62537 67.1701 8.26986C67.1172 8.21717 67.0118 8.15137 66.8802 8.07236C66.854 8.0592 66.8277 8.01967 66.8277 7.98019V1.89712H67.6045C67.881 1.89712 68.118 2.13412 68.118 2.41063V4.18815L68.355 4.05648C68.6315 3.91165 69.0001 3.84581 69.4741 3.84581C70.3037 3.84581 70.9355 4.09598 71.357 4.58313C71.7256 5.01765 71.9101 5.59698 71.9101 6.30801C71.9101 7.01903 71.6994 7.59836 71.2779 8.01967C70.7906 8.54636 70.0272 8.80971 69.0263 8.80971ZM69.1579 4.55681C68.8685 4.55681 68.539 4.66214 68.1705 4.88601L68.118 4.91233V7.76954L68.1705 7.80902C68.4604 7.99335 68.8027 8.08552 69.1579 8.08552C69.6319 8.08552 70.0009 7.88803 70.2508 7.49303C70.4615 7.177 70.5803 6.76885 70.5803 6.30801C70.5803 5.1493 70.093 4.55681 69.1579 4.55681Z" fill="#757575"/>
<path d="M74.9517 8.79611C73.5031 8.79611 72.5948 7.84811 72.5948 6.30757C72.5948 4.78024 73.4898 3.83221 74.925 3.83221C75.4781 3.83221 75.952 3.97704 76.334 4.25355L76.4131 4.30621V3.92437H77.4268C77.4926 3.92437 77.5322 3.97704 77.5322 4.02971V8.70394H76.3998V8.28258L76.3206 8.34843C76.005 8.63809 75.5043 8.79611 74.9517 8.79611ZM75.2149 4.67486C74.3061 4.67486 73.7663 5.37273 73.7663 6.30757C73.7663 7.24241 74.3061 7.9666 75.2149 7.9666C75.5043 7.9666 76.005 7.94028 76.3998 7.54524L76.4131 7.53208V5.1357L76.3998 5.12254C76.1232 4.80656 75.7151 4.67486 75.2149 4.67486Z" fill="#757575"/>
<path d="M28.1698 8.74355V1.88364H33.871V2.31814C33.871 2.66048 33.5945 2.93698 33.2522 2.93698H29.5918V4.78032H33.2522V5.83369H29.5918V7.67701H33.2522C33.5945 7.67701 33.871 7.95351 33.871 8.29587V8.73038L28.1698 8.74355Z" fill="#757575"/>
<path d="M42.0608 1.88364H40.7177C40.4676 1.88364 40.2437 1.98897 40.0857 2.18647L38.4662 4.22733L36.8467 2.19964C36.6887 2.00214 36.4648 1.8968 36.2147 1.8968H34.8717L37.5972 5.32017L34.8717 8.74355H36.2147C36.4648 8.74355 36.6887 8.63822 36.8467 8.44072L38.4662 6.41302L40.0989 8.45388C40.2569 8.63822 40.4808 8.75671 40.7309 8.75671H42.0739L39.3484 5.33333L42.0608 1.88364Z" fill="#757575"/>
<path d="M23.7062 8.01978L25.5759 4.75441V8.7308H26.998V1.87088H26.1158C25.8393 1.87088 25.5759 2.01572 25.4443 2.26589L23.2059 6.34759L20.9676 2.26589C20.8359 2.01572 20.5725 1.87088 20.296 1.87088H19.4139V8.7308H20.8359V4.75441L22.7056 8.01978H23.7062Z" fill="#757575"/>
<path d="M45.7738 8.82253C43.7988 8.84885 42.1925 7.29515 42.1793 5.32014C42.1793 4.24046 42.5084 3.34511 43.1273 2.72628C43.7462 2.1206 44.6415 1.79143 45.708 1.79143C46.9588 1.79143 47.9464 2.22594 48.6573 3.06861L48.2097 3.45045C47.9332 3.68745 47.525 3.70062 47.2222 3.47679C46.8272 3.17395 46.3268 3.02911 45.7606 3.02911C44.365 3.02911 43.5354 3.87179 43.5354 5.29382C43.5354 6.72898 44.3913 7.61118 45.7606 7.61118C46.34 7.61118 46.8272 7.45317 47.2222 7.1635C47.5118 6.93964 47.92 6.95284 48.2097 7.18982L48.6573 7.57165C47.9464 8.40117 46.9984 8.82253 45.7738 8.82253Z" fill="#757575"/>
<path d="M54.5298 8.82265C52.3179 8.82265 50.9485 7.47966 50.9485 5.32026C50.9485 3.16093 52.3179 1.81792 54.5036 1.81792C55.5569 1.81792 56.439 2.12075 57.1237 2.73959L56.7947 3.10826C56.6497 3.26627 56.439 3.35843 56.2282 3.35843C56.11 3.35843 55.9913 3.3321 55.8859 3.27943C55.4777 3.06876 55.0038 2.96343 54.5036 2.96343C53.0813 2.96343 52.1992 3.87194 52.1992 5.33347C52.1992 6.80811 53.1208 7.71664 54.5956 7.71664C55.3065 7.71664 55.8597 7.58499 56.2678 7.29532L56.294 7.28216V5.87327H54.7272V5.41243C54.7272 5.07013 55.0038 4.79362 55.3461 4.79362H57.2815C57.3344 4.79362 57.3869 4.84626 57.3869 4.89895V7.9405C56.7155 8.51983 55.7543 8.82265 54.5298 8.82265Z" fill="#757575"/>
<path d="M59.9283 8.80971C59.441 8.80971 59.0591 8.70438 58.7697 8.52004C58.4669 8.32255 58.3086 8.03283 58.3086 7.63784V1.89712H59.0724C59.349 1.89712 59.586 2.12096 59.586 2.41063V7.46667C59.586 7.47987 59.586 7.71685 59.7834 7.91435C59.9021 8.03283 60.0466 8.09868 60.244 8.09868H60.3889C60.4418 8.09868 60.4943 8.15137 60.4943 8.20401V8.82287L59.9283 8.80971Z" fill="#757575"/>
</g>
</svg>
