<svg width="81" height="18" viewBox="0 0 81 18" fill="none" xmlns="http://www.w3.org/2000/svg">
<path d="M3.64493 9L1.82168 11.0328L0 9L1.82168 6.96717L3.64493 9ZM8.06519 4.06389L11.1869 7.54924L13.0086 5.51641L8.06519 0L3.12175 5.51641L4.94343 7.54924L8.06519 4.06389ZM14.3103 6.96717L12.4886 9L14.3103 11.0328L16.1304 9L14.3103 6.96717ZM8.06519 13.9361L4.94343 10.4525L3.12175 12.4836L8.06519 18L13.0086 12.4836L11.1869 10.4525L8.06519 13.9361ZM8.06519 11.0328L9.88686 9L8.06519 6.96717L6.24351 9L8.06519 11.0328ZM27.2905 11.228V11.1999C27.2905 9.87397 26.6602 9.21102 25.6343 8.77491C26.2646 8.37925 26.7973 7.7585 26.7973 6.64537V6.61723C26.7973 5.06624 25.6847 4.06389 23.8772 4.06389H19.7737V13.9361H23.9812C25.9778 13.9361 27.2937 13.034 27.2937 11.228H27.2905ZM24.8637 7.00762C24.8637 7.74091 24.32 8.05217 23.4612 8.05217H21.6695V5.96835H23.5904C24.4114 5.96835 24.8669 6.33411 24.8669 6.983L24.8637 7.00762ZM25.357 10.9572C25.357 11.6905 24.8385 12.0281 23.9781 12.0281H21.6695V9.85991H23.9182C24.9173 9.85991 25.3601 10.2696 25.3601 10.9326L25.357 10.9572ZM31.3798 13.9361V4.06389H29.4274V13.9361H31.3798ZM41.8419 13.9361V4.06389H39.9146V10.143L35.7701 4.06389H33.9753V13.9361H35.8962V7.66002L40.1794 13.9361H41.8419ZM52.6223 13.9361L48.8245 3.99355H47.0296L43.2397 13.9361H45.2237L46.0352 11.7222H49.7763L50.5847 13.9361H52.6223ZM49.0845 9.80363H46.727L47.9026 6.60317L49.0845 9.80363ZM61.8993 13.9361V4.06389H59.972V10.143L55.826 4.06389H54.0326V13.9361H55.952V7.66002L60.2368 13.9361H61.8993ZM71.9453 12.3429L70.7083 10.9467C70.0133 11.6501 69.394 12.102 68.3823 12.102C66.8663 12.102 65.8168 10.6952 65.8168 9V8.97186C65.8168 7.28019 66.8916 5.89801 68.3823 5.89801C69.2664 5.89801 69.9582 6.32005 70.6452 7.01114L71.8791 5.41794C71.0581 4.51583 70.0606 3.89508 68.3918 3.89508C65.675 3.89508 63.7793 6.19343 63.7793 8.99472V9.02286C63.7793 11.8576 65.7128 14.0996 68.3161 14.0996C70.0196 14.1049 71.0297 13.4279 71.939 12.3429H71.9453ZM80.25 13.9361V12.0018H75.4405V9.92497H79.6118V7.99062H75.4405V5.99648H80.1807V4.06213H73.507V13.9344L80.25 13.9361Z" fill="#757575"/>
</svg>
