<svg xmlns="http://www.w3.org/2000/svg" xmlns:xlink="http://www.w3.org/1999/xlink" width="40" zoomAndPan="magnify" viewBox="0 0 30 30.000001" height="40" preserveAspectRatio="xMidYMid meet" version="1.0"><defs><clipPath id="11aff9ccad"><path d="M 4.261719 2 L 26 2 L 26 26 L 4.261719 26 Z M 4.261719 2 " clip-rule="nonzero"/></clipPath></defs><g clip-path="url(#11aff9ccad)"><path fill="#efefe5" d="M 7.152344 23.296875 C 9.011719 24.734375 11.667969 25.535156 14.964844 25.535156 L 14.980469 25.535156 C 18.28125 25.535156 20.9375 24.734375 22.792969 23.296875 C 24.671875 21.84375 25.667969 19.777344 25.667969 17.445312 C 25.667969 15.195312 24.675781 13.570312 23.550781 12.476562 C 22.667969 11.617188 21.695312 11.066406 21.015625 10.75 C 21.171875 10.273438 21.363281 9.652344 21.53125 9.007812 C 21.761719 8.148438 21.984375 7.140625 21.984375 6.398438 C 21.984375 5.523438 21.796875 4.644531 21.289062 3.964844 C 20.75 3.242188 19.941406 2.855469 18.964844 2.855469 C 18.207031 2.855469 17.558594 3.140625 17.054688 3.632812 C 16.570312 4.101562 16.246094 4.726562 16.027344 5.378906 C 15.636719 6.523438 15.484375 7.960938 15.441406 9.398438 L 14.507812 9.398438 C 14.464844 7.960938 14.3125 6.523438 13.921875 5.378906 C 13.699219 4.726562 13.378906 4.101562 12.894531 3.632812 C 12.386719 3.140625 11.742188 2.855469 10.980469 2.855469 C 10.007812 2.855469 9.199219 3.242188 8.660156 3.964844 C 8.152344 4.644531 7.960938 5.523438 7.960938 6.398438 C 7.960938 7.140625 8.1875 8.148438 8.414062 9.007812 C 8.585938 9.652344 8.777344 10.273438 8.929688 10.75 C 8.253906 11.066406 7.28125 11.617188 6.398438 12.476562 C 5.273438 13.570312 4.277344 15.195312 4.277344 17.445312 C 4.277344 19.777344 5.273438 21.84375 7.152344 23.296875 Z M 11.253906 18.007812 C 11.886719 18.007812 12.398438 17.429688 12.398438 16.320312 C 12.398438 15.210938 11.886719 14.632812 11.253906 14.632812 C 10.617188 14.632812 10.105469 15.210938 10.105469 16.320312 C 10.105469 17.429688 10.617188 18.007812 11.253906 18.007812 Z M 18.710938 18.007812 C 19.34375 18.007812 19.855469 17.429688 19.855469 16.320312 C 19.855469 15.210938 19.34375 14.632812 18.710938 14.632812 C 18.078125 14.632812 17.5625 15.210938 17.5625 16.320312 C 17.5625 17.429688 18.078125 18.007812 18.710938 18.007812 Z M 18.710938 18.007812 " fill-opacity="1" fill-rule="evenodd"/></g></svg>
