<svg width="122" height="26" viewBox="0 0 122 26" fill="none" xmlns="http://www.w3.org/2000/svg">
<g id="logo-chainGPT" clip-path="url(#clip0_2904_19912)">
<path id="Vector" d="M12.5127 3.07655H18.9757C21.2981 3.07655 23.1801 4.93661 23.1801 7.23193V8.47445C23.1801 8.65116 23.3249 8.7944 23.5038 8.7944H25.9673C26.146 8.7944 26.291 8.65116 26.291 8.47445V5.84617C26.291 5.31605 26.0784 4.81013 25.7 4.43625L21.8025 0.584064C21.4223 0.20647 20.9161 0 20.3778 0H12.5127V3.07655Z" fill="url(#paint0_linear_2904_19912)"/>
<path id="Vector_2" d="M12.5127 22.9236H18.9759C21.2982 22.9236 23.1802 21.0635 23.1802 18.7681V14.1047C23.1802 13.9279 23.3251 13.7847 23.5039 13.7847H25.9674C26.1462 13.7847 26.2911 13.9279 26.2911 14.1047V20.154C26.2911 20.684 26.0785 21.19 25.7002 21.5638L21.8026 25.416C21.4224 25.7936 20.9162 26.0001 20.3779 26.0001H12.5127V22.9236Z" fill="url(#paint1_linear_2904_19912)"/>
<path id="Vector_3" d="M13.1456 0H5.91314C5.38243 0 4.863 0.21391 4.48849 0.584064L0.590918 4.43625C0.212642 4.81013 0 5.31605 0 5.84431V13H3.11276V7.23193C3.11276 4.93661 4.99475 3.07655 7.31711 3.07655H13.1456V0Z" fill="url(#paint2_linear_2904_19912)"/>
<path id="Vector_4" d="M13.1456 26H5.91314C5.38243 26 4.863 25.7861 4.48849 25.4159L0.590918 21.5637C0.212642 21.1899 0 20.6839 0 20.1557V12.6177H3.11276V18.768C3.11276 21.0634 4.99475 22.9235 7.31711 22.9235H13.1456V26Z" fill="url(#paint3_linear_2904_19912)"/>
<path id="Vector_5" d="M36.6689 13.6171C36.6689 17.625 39.0273 19.7286 42.1351 19.7286H43.6341C45.9742 19.7286 48.1496 18.1871 48.5884 15.213H46.8882C46.5226 16.8814 45.1881 18.1145 42.8846 18.1145C39.4112 18.1145 38.3143 15.9565 38.3143 13.4721V12.529C38.3143 10.0445 39.4112 7.83206 42.8846 7.83206C45.0053 7.83206 46.3398 8.92016 46.7786 10.4435H48.5336C47.9669 7.74139 45.8463 6.27246 43.6341 6.27246H42.1351C39.0273 6.27246 36.6689 8.37611 36.6689 12.3839V13.6171Z" fill="#EFEFE5"/>
<path id="Vector_6" d="M55.2345 10.4435C54.1742 10.4435 52.9128 11.0782 52.2548 12.0031V6.27246H50.6094V19.4385H52.2548V14.8866C52.2548 12.6559 53.7904 12.0031 54.7044 12.0031C56.2401 12.0031 56.8983 12.6922 56.8983 14.3244V19.4385H58.5435V14.0343C58.5435 11.3321 56.7519 10.4435 55.2345 10.4435Z" fill="#EFEFE5"/>
<path id="Vector_7" d="M68.8543 17.2072V14.0336C68.8543 11.3315 67.4466 10.4429 65.8196 10.4429H64.028C62.2364 10.4429 60.975 11.7667 60.975 13.0906H62.6204C62.6204 12.5102 63.2784 12.0024 64.1925 12.0024H65.2894C66.9164 12.0024 67.1724 12.7098 67.209 13.9248H64.2291C62.0901 13.9248 60.7373 15.0491 60.7373 16.645V16.8445C60.7373 19.057 62.5289 19.7098 64.2291 19.7098C65.3626 19.7098 66.7336 19.4379 67.3552 18.4948C67.7208 19.4196 68.7263 19.4379 69.5673 19.4379V17.8782C69.2382 17.8782 68.8543 17.7694 68.8543 17.2072ZM64.7593 18.1502C63.0408 18.1502 62.3827 17.7876 62.3827 16.772C62.3827 16.1916 62.7117 15.3031 64.7593 15.3031H67.209V16.7357C67.209 17.8963 65.4905 18.1502 64.7593 18.1502Z" fill="#EFEFE5"/>
<path id="Vector_8" d="M72.4778 8.44866C73.081 8.44866 73.5747 7.97715 73.5747 7.37869C73.5747 6.78024 73.081 6.27246 72.4778 6.27246C71.8745 6.27246 71.3809 6.78024 71.3809 7.37869C71.3809 7.97715 71.8745 8.44866 72.4778 8.44866ZM71.6551 19.4385H73.3005V10.7337H71.6551V19.4385Z" fill="#EFEFE5"/>
<path id="Vector_9" d="M80.7464 10.4429C79.6312 10.4429 78.2784 11.1501 77.6568 12.1657V10.733H76.1211V19.4379H77.7665V14.8859C77.7665 12.6553 79.3021 12.0024 80.2162 12.0024C81.7518 12.0024 82.41 12.6916 82.41 14.3237V19.4379H84.0552V14.0336C84.0552 11.3315 82.2638 10.4429 80.7464 10.4429Z" fill="#EFEFE5"/>
<path id="Vector_10" d="M98.4972 12.8373C98.4461 12.8373 92.4825 12.8373 92.4825 12.8373V14.3969H96.7971V14.4332C96.5411 16.4825 95.3893 18.1145 92.3729 18.1145C88.8995 18.1145 87.8025 15.9565 87.8025 13.4721V12.529C87.8025 10.0445 88.8995 7.83206 92.3729 7.83206C94.8591 7.83206 96.0292 8.95644 96.5593 10.516H98.2961C97.6562 7.77767 95.7001 6.27246 93.1224 6.27246H91.6234C88.5155 6.27246 86.1572 8.37611 86.1572 12.3839V13.6171C86.1572 17.625 88.5155 19.7286 91.6234 19.7286H93.1224C94.7129 19.7286 96.1023 19.1664 97.0529 18.0964C98.0036 17.0265 98.8391 14.9743 98.4972 12.8373Z" fill="#EFEFE5"/>
<path id="Vector_11" d="M107.085 6.56201H101.125V19.4379H102.77V14.7046H107.085C109.151 14.7046 111.216 13.816 111.216 10.6424C111.216 7.63197 109.151 6.56201 107.085 6.56201ZM106.737 13.145H102.77V8.13976H106.737C108.821 8.13976 109.48 9.19158 109.48 10.6424C109.48 12.0932 108.821 13.145 106.737 13.145Z" fill="#EFEFE5"/>
<path id="Vector_12" d="M122 6.56201H111.945V8.12161H116.15V19.4379H117.796V8.12161H122V6.56201Z" fill="#EFEFE5"/>
<path id="Vector_13" d="M9.51285 15.0524C10.4363 15.0524 11.1849 14.2865 11.1849 13.3419C11.1849 12.3972 10.4363 11.6313 9.51285 11.6313C8.58943 11.6313 7.84082 12.3972 7.84082 13.3419C7.84082 14.2865 8.58943 15.0524 9.51285 15.0524Z" fill="#EFEFE5"/>
<path id="Vector_14" d="M17.0089 15.0524C17.9324 15.0524 18.681 14.2865 18.681 13.3419C18.681 12.3972 17.9324 11.6313 17.0089 11.6313C16.0855 11.6313 15.3369 12.3972 15.3369 13.3419C15.3369 14.2865 16.0855 15.0524 17.0089 15.0524Z" fill="#EFEFE5"/>
</g>
<defs>
<linearGradient id="paint0_linear_2904_19912" x1="25.5415" y1="8.7807" x2="13.3765" y2="2.39802" gradientUnits="userSpaceOnUse">
<stop stop-color="#6C5AE6"/>
<stop offset="1" stop-color="#509ADD"/>
</linearGradient>
<linearGradient id="paint1_linear_2904_19912" x1="25.5415" y1="17.2194" x2="13.3765" y2="23.6021" gradientUnits="userSpaceOnUse">
<stop stop-color="#FC6756"/>
<stop offset="1" stop-color="#F8CF3E"/>
</linearGradient>
<linearGradient id="paint2_linear_2904_19912" x1="12.6267" y1="2.90789" x2="3.52713" y2="14.4672" gradientUnits="userSpaceOnUse">
<stop stop-color="#509ADD"/>
<stop offset="1" stop-color="#26F4D0"/>
</linearGradient>
<linearGradient id="paint3_linear_2904_19912" x1="10.3204" y1="23.0351" x2="3.10812" y2="12.4688" gradientUnits="userSpaceOnUse">
<stop stop-color="#F8CF3E"/>
<stop offset="0.288195" stop-color="#F8CF3E"/>
<stop offset="1" stop-color="#27F3D1"/>
</linearGradient>
<clipPath id="clip0_2904_19912">
<rect width="122" height="26" fill="white"/>
</clipPath>
</defs>
</svg>
