<svg width="20" height="20" viewBox="0 0 20 20" fill="none" xmlns="http://www.w3.org/2000/svg">
<path d="M19.3608 18.2168L14.6007 13.2662C15.8246 11.8113 16.4952 9.98069 16.4952 8.07499C16.4952 3.62251 12.8727 0 8.42021 0C3.96773 0 0.345215 3.62251 0.345215 8.07499C0.345215 12.5275 3.96773 16.15 8.42021 16.15C10.0917 16.15 11.6846 15.6458 13.0465 14.6888L17.8427 19.677C18.0431 19.8852 18.3128 20 18.6017 20C18.8752 20 19.1347 19.8957 19.3316 19.7061C19.7501 19.3034 19.7635 18.6357 19.3608 18.2168ZM8.42021 2.10652C11.7113 2.10652 14.3887 4.78391 14.3887 8.07499C14.3887 11.3661 11.7113 14.0435 8.42021 14.0435C5.12912 14.0435 2.45173 11.3661 2.45173 8.07499C2.45173 4.78391 5.12912 2.10652 8.42021 2.10652Z" fill="white"/>
<path d="M5.55566 10.4837C5.58799 10.3148 5.69672 10.1969 5.81357 10.0809C6.38969 9.50752 6.96421 8.93247 7.53714 8.35577C7.55474 8.34146 7.57361 8.32879 7.59353 8.31793C7.56715 8.29039 7.55395 8.27589 7.54018 8.26212C6.93932 7.66049 6.33841 7.05866 5.73746 6.45664C5.64273 6.36406 5.58647 6.23911 5.57995 6.10682C5.57342 5.97452 5.6171 5.84464 5.70225 5.74318C5.7874 5.64172 5.90773 5.57617 6.03915 5.55965C6.17057 5.54312 6.30338 5.57685 6.411 5.65408C6.43848 5.67438 6.46418 5.69698 6.48783 5.72164C7.08309 6.31418 7.6781 6.90712 8.27287 7.50044C8.2907 7.51827 8.30607 7.53871 8.32651 7.56278C8.34767 7.54262 8.36318 7.52842 8.37797 7.51363C8.97004 6.92021 9.5621 6.32694 10.1542 5.73381C10.446 5.44184 10.925 5.55506 11.0385 5.94417C11.0958 6.13988 11.0546 6.31761 10.908 6.46433C10.3151 7.05929 9.72181 7.65367 9.1282 8.24748C9.11283 8.26197 9.095 8.27546 9.07253 8.29445C9.09674 8.31895 9.11501 8.33794 9.13356 8.35635C9.73471 8.95518 10.3363 9.5542 10.9385 10.1534C11.0521 10.2664 11.114 10.3999 11.1111 10.5606C11.1088 10.6924 11.0553 10.8182 10.9621 10.9113C10.8688 11.0045 10.7431 11.0578 10.6113 11.0601C10.4258 11.0644 10.2723 11.0031 10.1398 10.8693C9.55403 10.2776 8.96632 9.68806 8.37667 9.10063C8.36238 9.08412 8.34939 9.06652 8.33782 9.04801L8.31433 9.04381C8.30444 9.06339 8.29249 9.08186 8.27867 9.09889C7.68109 9.69879 7.0827 10.2984 6.48348 10.8977C6.29995 11.0815 5.98666 11.1152 5.76863 10.975C5.65714 10.9031 5.59916 10.7958 5.56741 10.6708C5.56436 10.6589 5.55958 10.6475 5.55566 10.6359V10.4837Z" fill="#F7F7F7"/>
</svg>
