<svg width="40" height="54" viewBox="0 0 40 54" fill="none" xmlns="http://www.w3.org/2000/svg">
<path d="M32.8103 0L40 8.03077L39.9692 8.06154V49.9795C39.9692 51.8359 38.4718 53.3333 36.6359 53.3333H3.33333C1.49744 53.3333 0 51.8256 0 49.9795V3.37436C0 1.51795 1.49744 0.0205128 3.33333 0.0205128H32.7897V0.0410256L32.8103 0ZM30.5641 2.25641H3.33333C2.71795 2.25641 2.22564 2.75897 2.22564 3.37436V49.9795C2.22564 50.5949 2.71795 51.0974 3.33333 51.0974H36.6462C37.2615 51.0974 37.7538 50.5949 37.7538 49.9795V10.2872H30.5641V2.25641ZM21.0974 27.7231V31.1487H18.8718V27.7231H21.0974ZM13.0974 17.559L14.6667 19.1385L12.7282 21.0974L14.6667 23.0564L13.0974 24.6359L11.159 22.6769L9.22051 24.6359L7.65128 23.0564L9.58974 21.0974L7.65128 19.1385L9.22051 17.559L11.159 19.5179L13.0974 17.559ZM30.759 17.559L32.3282 19.1385L30.3897 21.0974L32.3282 23.0564L30.759 24.6359L28.8103 22.6769L26.8615 24.6359L25.2923 23.0564L27.2308 21.0974L25.2923 19.1385L26.8615 17.559L28.8103 19.5179L30.759 17.559ZM32.7795 3.30256V8.04103H37.0154L32.7795 3.30256ZM31.2 37.7846H8.77949V35.5487H31.2V37.7846Z" fill="#0066FF"/>
</svg>
