<?xml version="1.0" encoding="UTF-8"?>
<svg xmlns="http://www.w3.org/2000/svg" xmlns:xlink="http://www.w3.org/1999/xlink" width="26pt" height="24pt" viewBox="-8 -12 45 42" version="1.1">
<g id="surface1">
<path style=" stroke:none;fill-rule:nonzero;fill:rgb(49.411765%,58.823529%,72.156863%);fill-opacity:1;" d="M 19.636719 7.425781 C 19.160156 7.144531 18.550781 7.144531 18.011719 7.425781 L 14.21875 9.730469 L 11.644531 11.195312 L 7.921875 13.5 C 7.449219 13.78125 6.839844 13.78125 6.296875 13.5 L 3.386719 11.6875 C 2.910156 11.40625 2.574219 10.847656 2.574219 10.21875 L 2.574219 6.726562 C 2.574219 6.167969 2.84375 5.609375 3.386719 5.257812 L 6.296875 3.511719 C 6.769531 3.234375 7.378906 3.234375 7.921875 3.511719 L 10.832031 5.328125 C 11.308594 5.609375 11.644531 6.167969 11.644531 6.796875 L 11.644531 9.101562 L 14.21875 7.5625 L 14.21875 5.1875 C 14.21875 4.628906 13.949219 4.070312 13.40625 3.722656 L 7.988281 0.4375 C 7.515625 0.160156 6.90625 0.160156 6.363281 0.4375 L 0.8125 3.792969 C 0.269531 4.070312 0 4.628906 0 5.1875 L 0 11.753906 C 0 12.3125 0.269531 12.875 0.8125 13.222656 L 6.296875 16.503906 C 6.769531 16.785156 7.378906 16.785156 7.921875 16.503906 L 11.644531 14.269531 L 14.21875 12.734375 L 17.941406 10.5 C 18.417969 10.21875 19.027344 10.21875 19.566406 10.5 L 22.480469 12.246094 C 22.953125 12.523438 23.292969 13.082031 23.292969 13.710938 L 23.292969 17.203125 C 23.292969 17.761719 23.019531 18.320312 22.480469 18.671875 L 19.636719 20.417969 C 19.160156 20.695312 18.550781 20.695312 18.011719 20.417969 L 15.097656 18.671875 C 14.625 18.390625 14.285156 17.832031 14.285156 17.203125 L 14.285156 14.96875 L 11.714844 16.503906 L 11.714844 18.8125 C 11.714844 19.371094 11.984375 19.929688 12.527344 20.277344 L 18.011719 23.5625 C 18.484375 23.839844 19.09375 23.839844 19.636719 23.5625 L 25.121094 20.277344 C 25.59375 20 25.933594 19.4375 25.933594 18.8125 L 25.933594 12.175781 C 25.933594 11.617188 25.660156 11.058594 25.121094 10.707031 Z M 19.636719 7.425781 "/>
</g>
</svg>
