<svg xmlns="http://www.w3.org/2000/svg" width="60" height="60" viewBox="0 0 36 36" fill="none">
  <path d="M18 4.25985H25.9834C29.1633 4.25985 31.7403 6.83531 31.7403 10.0134V11.7338C31.7403 11.9785 31.9387 12.1769 32.1835 12.1769H35.5568C35.8016 12.1769 36 11.9785 36 11.7338V8.0947C36 7.36069 35.7088 6.66017 35.1908 6.1425L29.854 0.808703C29.3334 0.285882 28.6402 0 27.9032 0H18V4.25985Z" fill="url(#paint0_linear_7477_14166)"/>
  <path d="M18 31.7402H25.9834C29.1633 31.7402 31.7403 29.1647 31.7403 25.9866V19.5293C31.7403 19.2846 31.9387 19.0863 32.1835 19.0863H35.5568C35.8016 19.0863 36 19.2846 36 19.5293V27.9053C36 28.6393 35.7088 29.3398 35.1908 29.8575L29.854 35.1913C29.3334 35.7141 28.6402 36 27.9032 36H18V31.7402Z" fill="url(#paint1_linear_7477_14166)"/>
  <path d="M18 0H8.09676C7.37006 0 6.65884 0.296183 6.14602 0.808703L0.809135 6.1425C0.291168 6.66017 0 7.36069 0 8.09212V18H4.26226V10.0134C4.26226 6.83531 6.83923 4.25985 10.0192 4.25985H18V0Z" fill="url(#paint2_linear_7477_14166)"/>
  <path d="M18 36H8.09676C7.37006 36 6.65884 35.7038 6.14602 35.1913L0.809135 29.8575C0.291168 29.3398 0 28.6393 0 27.9079V18H4.26226V25.9866C4.26226 29.1647 6.83923 31.7402 10.0192 31.7402H18V36Z" fill="url(#paint3_linear_7477_14166)"/>
  <path d="M13.1666 20.8421C14.4451 20.8421 15.4816 19.7817 15.4816 18.4736C15.4816 17.1656 14.4451 16.1052 13.1666 16.1052C11.888 16.1052 10.8516 17.1656 10.8516 18.4736C10.8516 19.7817 11.888 20.8421 13.1666 20.8421Z" fill="#EFEFE5"/>
  <path d="M23.526 20.8468C24.8045 20.8468 25.8409 19.7864 25.8409 18.4784C25.8409 17.1703 24.8045 16.11 23.526 16.11C22.2474 16.11 21.2109 17.1703 21.2109 18.4784C21.2109 19.7864 22.2474 20.8468 23.526 20.8468Z" fill="#EFEFE5"/>
  <defs>
    <linearGradient id="paint0_linear_7477_14166" x1="34.9737" y1="12.1579" x2="18.2368" y2="3.47368" gradientUnits="userSpaceOnUse">
      <stop stop-color="#6C5AE6"/>
      <stop offset="1" stop-color="#724CE8"/>
    </linearGradient>
    <linearGradient id="paint1_linear_7477_14166" x1="34.9737" y1="23.8421" x2="18.2368" y2="32.5263" gradientUnits="userSpaceOnUse">
      <stop stop-color="#724CE8"/>
      <stop offset="1" stop-color="#E5A4A4"/>
    </linearGradient>
    <linearGradient id="paint2_linear_7477_14166" x1="17.2895" y1="4.02631" x2="4.6579" y2="19.8947" gradientUnits="userSpaceOnUse">
      <stop stop-color="#724CE8"/>
      <stop offset="1" stop-color="#C34C52"/>
    </linearGradient>
    <linearGradient id="paint3_linear_7477_14166" x1="14.1316" y1="31.8947" x2="4.10527" y2="17.3684" gradientUnits="userSpaceOnUse">
      <stop stop-color="#E6A4A4"/>
      <stop offset="1" stop-color="#C34C52"/>
    </linearGradient>
  </defs>
</svg>
