<svg width="199" height="24" viewBox="0 0 199 24" fill="none" xmlns="http://www.w3.org/2000/svg">
<g opacity="0.6">
<path d="M11.8947 2.8399H17.3222C19.4422 2.8399 21.1602 4.55687 21.1602 6.67563V7.82257C21.1602 7.98568 21.2924 8.1179 21.4556 8.1179H23.7045C23.8677 8.1179 24 7.98568 24 7.82257V5.39647C24 4.90713 23.8058 4.44011 23.4605 4.095L19.9026 0.539135C19.5556 0.190588 19.0934 0 18.6021 0H11.8947V2.8399Z" fill="#3385FF"/>
<path d="M11.8947 21.1601H17.3222C19.4422 21.1601 21.1602 19.4431 21.1602 17.3243V13.0195C21.1602 12.8564 21.2924 12.7242 21.4556 12.7242H23.7045C23.8677 12.7242 24 12.8564 24 13.0195V18.6035C24 19.0929 23.8058 19.5599 23.4605 19.905L19.9026 23.4608C19.5556 23.8094 19.0934 24 18.6021 24H11.8947V21.1601Z" fill="#3385FF"/>
<path d="M12 0H5.39784C4.91337 0 4.43922 0.197456 4.09735 0.539135L0.539423 4.095C0.194112 4.44011 0 4.90713 0 5.39475V12H2.8415V6.67563C2.8415 4.55687 4.55949 2.8399 6.67946 2.8399H12V0Z" fill="#3385FF"/>
<path d="M12 24H5.39784C4.91337 24 4.43922 23.8026 4.09735 23.4609L0.539423 19.905C0.194112 19.5599 0 19.0929 0 18.6053V11.8947H2.8415V17.3244C2.8415 19.4431 4.55949 21.1601 6.67946 21.1601H12V24Z" fill="#3385FF"/>
<path fill-rule="evenodd" clip-rule="evenodd" d="M18.8522 16.8001V7.19993C18.8522 6.07374 17.9375 5.1579 16.8091 5.1579H7.20378C6.07698 5.1579 5.16064 6.07212 5.16064 7.19993V16.8001C5.16064 17.9263 6.07536 18.8421 7.20378 18.8421H16.8091C17.9359 18.8421 18.8522 17.9279 18.8522 16.8001ZM8.89952 13.8947C9.74293 13.8947 10.4266 13.1878 10.4266 12.3158C10.4266 11.4438 9.74293 10.7368 8.89952 10.7368C8.0561 10.7368 7.37236 11.4438 7.37236 12.3158C7.37236 13.1878 8.0561 13.8947 8.89952 13.8947ZM15.1134 13.8947C15.9568 13.8947 16.6405 13.1878 16.6405 12.3158C16.6405 11.4438 15.9568 10.7368 15.1134 10.7368C14.27 10.7368 13.5862 11.4438 13.5862 12.3158C13.5862 13.1878 14.27 13.8947 15.1134 13.8947Z" fill="#3385FF"/>
</g>
<path d="M42.2031 13.5781V17H41.1191V8.46875H43.8848C44.2676 8.47656 44.6289 8.53711 44.9688 8.65039C45.3125 8.76367 45.6133 8.92773 45.8711 9.14258C46.1289 9.35742 46.332 9.62305 46.4805 9.93945C46.6328 10.2559 46.709 10.6191 46.709 11.0293C46.709 11.4395 46.6328 11.8027 46.4805 12.1191C46.332 12.4316 46.1289 12.6953 45.8711 12.9102C45.6133 13.125 45.3125 13.2891 44.9688 13.4023C44.6289 13.5156 44.2676 13.5742 43.8848 13.5781H42.2031ZM42.2031 12.6875H43.8848C44.1348 12.6836 44.3652 12.6445 44.5762 12.5703C44.7871 12.4922 44.9707 12.3828 45.127 12.2422C45.2832 12.1016 45.4043 11.9316 45.4902 11.7324C45.5801 11.5293 45.625 11.2988 45.625 11.041C45.625 10.7832 45.5801 10.5508 45.4902 10.3438C45.4043 10.1367 45.2852 9.96094 45.1328 9.81641C44.9766 9.67188 44.791 9.56055 44.5762 9.48242C44.3652 9.4043 44.1348 9.36328 43.8848 9.35938H42.2031V12.6875ZM53.7754 13.2266C53.7715 13.5312 53.7441 13.8398 53.6934 14.1523C53.6465 14.4609 53.5723 14.7598 53.4707 15.0488C53.3691 15.3379 53.2383 15.6074 53.0781 15.8574C52.9219 16.1074 52.7344 16.3262 52.5156 16.5137C52.2969 16.7012 52.0449 16.8496 51.7598 16.959C51.4785 17.0645 51.1621 17.1172 50.8105 17.1172C50.459 17.1172 50.1406 17.0645 49.8555 16.959C49.5742 16.8496 49.3242 16.7012 49.1055 16.5137C48.8867 16.3262 48.6973 16.1074 48.5371 15.8574C48.377 15.6035 48.2461 15.332 48.1445 15.043C48.0391 14.7539 47.9609 14.4551 47.9102 14.1465C47.8594 13.8379 47.832 13.5312 47.8281 13.2266V12.2539C47.832 11.9492 47.8574 11.6426 47.9043 11.334C47.9551 11.0215 48.0332 10.7207 48.1387 10.4316C48.2402 10.1426 48.3691 9.87305 48.5254 9.62305C48.6855 9.36914 48.875 9.14648 49.0938 8.95508C49.3125 8.76758 49.5625 8.62109 49.8438 8.51562C50.1289 8.40625 50.4473 8.35156 50.7988 8.35156C51.1504 8.35156 51.4688 8.40625 51.7539 8.51562C52.0391 8.62109 52.291 8.76758 52.5098 8.95508C52.7285 9.14258 52.916 9.36328 53.0723 9.61719C53.2324 9.86719 53.3652 10.1367 53.4707 10.4258C53.5723 10.7148 53.6465 11.0156 53.6934 11.3281C53.7441 11.6406 53.7715 11.9492 53.7754 12.2539V13.2266ZM52.7031 12.2422C52.6992 12.0391 52.6855 11.8281 52.6621 11.6094C52.6387 11.3867 52.5996 11.166 52.5449 10.9473C52.4863 10.7324 52.4102 10.5273 52.3164 10.332C52.2227 10.1328 52.1055 9.95703 51.9648 9.80469C51.8242 9.65625 51.6582 9.53906 51.4668 9.45312C51.2754 9.36328 51.0527 9.31836 50.7988 9.31836C50.5488 9.31836 50.3281 9.36328 50.1367 9.45312C49.9453 9.54297 49.7793 9.66211 49.6387 9.81055C49.498 9.96289 49.3809 10.1387 49.2871 10.3379C49.1934 10.5332 49.1191 10.7383 49.0645 10.9531C49.0059 11.1719 48.9629 11.3926 48.9355 11.6152C48.9121 11.834 48.8984 12.043 48.8945 12.2422V13.2266C48.8984 13.4258 48.9121 13.6367 48.9355 13.8594C48.9629 14.082 49.0059 14.3008 49.0645 14.5156C49.123 14.7344 49.1992 14.9434 49.293 15.1426C49.3867 15.3418 49.5039 15.5156 49.6445 15.6641C49.7852 15.8164 49.9512 15.9375 50.1426 16.0273C50.334 16.1172 50.5566 16.1621 50.8105 16.1621C51.0645 16.1621 51.2871 16.1172 51.4785 16.0273C51.6738 15.9375 51.8418 15.8164 51.9824 15.6641C52.1191 15.5156 52.2324 15.3438 52.3223 15.1484C52.416 14.9492 52.4922 14.7402 52.5508 14.5215C52.6055 14.3066 52.6426 14.0879 52.6621 13.8652C52.6855 13.6426 52.6992 13.4297 52.7031 13.2266V12.2422ZM55.8789 17L54.8418 8.46875H55.873L56.4883 14.3516L56.5234 14.6914L56.5879 14.3398L57.6191 8.46875H58.5625L59.5996 14.3457L59.6641 14.6914L59.6992 14.3398L60.3145 8.46875H61.3398L60.3027 17H59.1953L58.1582 10.9297L58.0996 10.5723L58.0352 10.9355L56.9922 17H55.8789ZM67.334 13.0566H63.7715V16.0801H67.9258V17H62.6875V8.46875H67.873V9.39453H63.7715V12.1367H67.334V13.0566ZM72.6719 13.5195H70.9668V17H69.8887V8.46875H72.3906C72.7891 8.47656 73.1641 8.5332 73.5156 8.63867C73.8672 8.74414 74.1758 8.90234 74.4414 9.11328C74.7031 9.32422 74.9082 9.58984 75.0566 9.91016C75.209 10.2266 75.2852 10.5996 75.2852 11.0293C75.2852 11.3066 75.2441 11.5605 75.1621 11.791C75.084 12.0215 74.9746 12.2305 74.834 12.418C74.6934 12.6055 74.5254 12.7715 74.3301 12.916C74.1348 13.0605 73.9199 13.1836 73.6855 13.2852L75.4961 16.9297L75.4902 17H74.3477L72.6719 13.5195ZM70.9668 12.6289H72.4199C72.6621 12.625 72.8906 12.5879 73.1055 12.5176C73.3203 12.4434 73.5098 12.3379 73.6738 12.2012C73.834 12.0645 73.9609 11.8984 74.0547 11.7031C74.1484 11.5039 74.1953 11.2754 74.1953 11.0176C74.1953 10.7441 74.1504 10.5059 74.0605 10.3027C73.9707 10.0957 73.8457 9.92188 73.6855 9.78125C73.5254 9.64453 73.334 9.54102 73.1113 9.4707C72.8926 9.40039 72.6523 9.36328 72.3906 9.35938H70.9668V12.6289ZM81.748 13.0566H78.1855V16.0801H82.3398V17H77.1016V8.46875H82.2871V9.39453H78.1855V12.1367H81.748V13.0566ZM84.1504 17V8.46875H86.125C86.457 8.47266 86.7695 8.50781 87.0625 8.57422C87.3594 8.63672 87.6328 8.72656 87.8828 8.84375C88.2305 9.00391 88.5371 9.21484 88.8027 9.47656C89.0723 9.73438 89.2871 10.0332 89.4473 10.373C89.5918 10.6621 89.7012 10.9785 89.7754 11.3223C89.8535 11.666 89.8945 12.0332 89.8984 12.4238V13.0508C89.8984 13.4258 89.8613 13.7812 89.7871 14.1172C89.7168 14.4531 89.6133 14.7617 89.4766 15.043C89.3359 15.3359 89.1582 15.6016 88.9434 15.8398C88.7285 16.0781 88.4883 16.2812 88.2227 16.4492C87.9414 16.625 87.623 16.7598 87.2676 16.8535C86.916 16.9473 86.5352 16.9961 86.125 17H84.1504ZM85.252 9.35938V16.1152H86.125C86.4375 16.1113 86.7207 16.0723 86.9746 15.998C87.2324 15.9238 87.4609 15.8184 87.6602 15.6816C87.8711 15.541 88.0527 15.3691 88.2051 15.166C88.3613 14.959 88.4844 14.7285 88.5742 14.4746C88.6523 14.2676 88.7109 14.0449 88.75 13.8066C88.7891 13.5645 88.8105 13.3125 88.8145 13.0508V12.4121C88.8105 12.1465 88.7871 11.8926 88.7441 11.6504C88.7051 11.4043 88.6445 11.1758 88.5625 10.9648C88.457 10.6914 88.3145 10.4453 88.1348 10.2266C87.959 10.0039 87.7422 9.82422 87.4844 9.6875C87.3008 9.58594 87.0957 9.50781 86.8691 9.45312C86.6426 9.39453 86.3945 9.36328 86.125 9.35938H85.252ZM98.6641 17V8.46875H101.201C101.553 8.47266 101.896 8.51953 102.232 8.60938C102.568 8.69531 102.867 8.83008 103.129 9.01367C103.391 9.19727 103.6 9.43164 103.756 9.7168C103.912 10.002 103.988 10.3438 103.984 10.7422C103.98 10.9648 103.943 11.168 103.873 11.3516C103.807 11.5352 103.715 11.6992 103.598 11.8438C103.477 11.9922 103.342 12.1172 103.193 12.2188C103.049 12.3203 102.873 12.416 102.666 12.5059V12.5234C102.881 12.5742 103.088 12.666 103.287 12.7988C103.486 12.9316 103.65 13.0781 103.779 13.2383C103.916 13.4141 104.021 13.6113 104.096 13.8301C104.174 14.0488 104.213 14.2852 104.213 14.5391C104.217 14.9375 104.141 15.2891 103.984 15.5938C103.828 15.8984 103.619 16.1523 103.357 16.3555C103.096 16.5625 102.793 16.7207 102.449 16.8301C102.109 16.9395 101.758 16.9961 101.395 17H98.6641ZM99.7539 13.0098V16.0801H101.424C101.65 16.0762 101.865 16.0391 102.068 15.9688C102.271 15.8945 102.451 15.793 102.607 15.6641C102.764 15.5352 102.887 15.377 102.977 15.1895C103.07 15.002 103.117 14.7891 103.117 14.5508C103.121 14.3086 103.08 14.0938 102.994 13.9062C102.912 13.7188 102.797 13.5586 102.648 13.4258C102.5 13.2969 102.326 13.1973 102.127 13.127C101.928 13.0566 101.713 13.0176 101.482 13.0098H99.7539ZM99.7539 12.1074H101.266C101.469 12.1035 101.668 12.0723 101.863 12.0137C102.059 11.9512 102.232 11.8613 102.385 11.7441C102.537 11.6309 102.66 11.4902 102.754 11.3223C102.848 11.1543 102.895 10.959 102.895 10.7363C102.895 10.498 102.848 10.2949 102.754 10.127C102.664 9.95898 102.543 9.82031 102.391 9.71094C102.234 9.60547 102.055 9.52734 101.852 9.47656C101.652 9.42578 101.447 9.39844 101.236 9.39453H99.7539V12.1074ZM108.396 12.752L110.342 8.46875H111.572L108.918 13.8184L108.9 17H107.893L107.875 13.8184L105.221 8.46875H106.457L108.396 12.752ZM124.592 14.8027C124.592 14.627 124.561 14.4648 124.498 14.3164C124.439 14.1641 124.344 14.0234 124.211 13.8945C124.078 13.7656 123.906 13.6465 123.695 13.5371C123.484 13.4238 123.234 13.3203 122.945 13.2266C122.582 13.1133 122.254 12.9824 121.961 12.834C121.668 12.6855 121.418 12.5078 121.211 12.3008C121 12.0977 120.838 11.8633 120.725 11.5977C120.611 11.332 120.555 11.0254 120.555 10.6777C120.555 10.3496 120.604 10.0527 120.701 9.78711C120.803 9.52148 120.945 9.28906 121.129 9.08984C121.309 8.89453 121.527 8.73633 121.785 8.61523C122.047 8.49414 122.336 8.41406 122.652 8.375V7.08594H123.525V8.375C123.811 8.41406 124.07 8.49023 124.305 8.60352C124.539 8.71289 124.742 8.85547 124.914 9.03125C125.137 9.26562 125.307 9.55664 125.424 9.9043C125.541 10.248 125.602 10.6445 125.605 11.0938H124.527C124.527 10.832 124.494 10.5918 124.428 10.373C124.365 10.1504 124.273 9.95898 124.152 9.79883C124.027 9.64258 123.875 9.51953 123.695 9.42969C123.516 9.33984 123.311 9.29492 123.08 9.29492C122.83 9.29492 122.611 9.33008 122.424 9.40039C122.24 9.4707 122.09 9.57031 121.973 9.69922C121.863 9.81641 121.779 9.95703 121.721 10.1211C121.666 10.2812 121.639 10.4609 121.639 10.6602C121.639 10.8555 121.67 11.0293 121.732 11.1816C121.795 11.334 121.895 11.4727 122.031 11.5977C122.164 11.7227 122.336 11.8398 122.547 11.9492C122.762 12.0547 123.02 12.1582 123.32 12.2598C123.688 12.3809 124.018 12.5156 124.311 12.6641C124.604 12.8125 124.852 12.9863 125.055 13.1855C125.258 13.3848 125.412 13.6152 125.518 13.877C125.627 14.1387 125.682 14.4434 125.682 14.791C125.682 15.1309 125.627 15.4355 125.518 15.7051C125.412 15.9746 125.262 16.2051 125.066 16.3965C124.871 16.5918 124.633 16.748 124.352 16.8652C124.074 16.9824 123.766 17.0586 123.426 17.0938V18.2188H122.553V17.0996C122.248 17.0684 121.955 16.998 121.674 16.8887C121.396 16.7793 121.15 16.6191 120.936 16.4082C120.721 16.2012 120.549 15.9395 120.42 15.623C120.291 15.3066 120.227 14.9277 120.227 14.4863H121.311C121.311 14.8145 121.359 15.0879 121.457 15.3066C121.555 15.5215 121.682 15.6934 121.838 15.8223C121.99 15.9512 122.164 16.043 122.359 16.0977C122.555 16.1523 122.752 16.1797 122.951 16.1797C123.205 16.1797 123.434 16.1484 123.637 16.0859C123.84 16.0234 124.012 15.9316 124.152 15.8105C124.293 15.6934 124.4 15.5508 124.475 15.3828C124.553 15.2109 124.592 15.0176 124.592 14.8027ZM133.029 14.4336C132.979 14.8281 132.877 15.1914 132.725 15.5234C132.572 15.8516 132.375 16.1328 132.133 16.3672C131.887 16.6055 131.596 16.791 131.26 16.9238C130.928 17.0527 130.557 17.1172 130.146 17.1172C129.795 17.1172 129.475 17.0684 129.186 16.9707C128.9 16.8691 128.646 16.7305 128.424 16.5547C128.197 16.3789 128.002 16.1719 127.838 15.9336C127.678 15.6953 127.545 15.4355 127.439 15.1543C127.33 14.873 127.248 14.5781 127.193 14.2695C127.143 13.9609 127.115 13.6484 127.111 13.332V12.1426C127.115 11.8262 127.143 11.5137 127.193 11.2051C127.248 10.8965 127.33 10.6016 127.439 10.3203C127.545 10.0391 127.678 9.7793 127.838 9.54102C128.002 9.29883 128.197 9.08984 128.424 8.91406C128.646 8.73828 128.9 8.60156 129.186 8.50391C129.471 8.40234 129.791 8.35156 130.146 8.35156C130.572 8.35156 130.953 8.41797 131.289 8.55078C131.625 8.67969 131.914 8.86328 132.156 9.10156C132.398 9.34375 132.592 9.63281 132.736 9.96875C132.885 10.3047 132.982 10.6758 133.029 11.082H131.945C131.91 10.8242 131.85 10.584 131.764 10.3613C131.678 10.1387 131.562 9.94336 131.418 9.77539C131.273 9.60742 131.096 9.47656 130.885 9.38281C130.678 9.28516 130.432 9.23633 130.146 9.23633C129.889 9.23633 129.66 9.2793 129.461 9.36523C129.266 9.44727 129.098 9.56055 128.957 9.70508C128.812 9.84961 128.691 10.0176 128.594 10.209C128.5 10.4004 128.424 10.6035 128.365 10.8184C128.307 11.0332 128.264 11.2539 128.236 11.4805C128.213 11.7031 128.201 11.9199 128.201 12.1309V13.332C128.201 13.543 128.213 13.7617 128.236 13.9883C128.264 14.2109 128.307 14.4297 128.365 14.6445C128.424 14.8633 128.5 15.0684 128.594 15.2598C128.688 15.4512 128.807 15.6191 128.951 15.7637C129.096 15.9121 129.266 16.0293 129.461 16.1152C129.656 16.1973 129.885 16.2383 130.146 16.2383C130.432 16.2383 130.678 16.1934 130.885 16.1035C131.096 16.0137 131.273 15.8867 131.418 15.7227C131.562 15.5625 131.678 15.373 131.764 15.1543C131.85 14.9316 131.91 14.6914 131.945 14.4336H133.029ZM140.23 15.8809C140.098 16.0371 139.957 16.1797 139.809 16.3086C139.66 16.4336 139.506 16.543 139.346 16.6367C139.072 16.8008 138.777 16.9219 138.461 17C138.145 17.082 137.812 17.1211 137.465 17.1172C137.113 17.1133 136.789 17.0605 136.492 16.959C136.199 16.8535 135.936 16.709 135.701 16.5254C135.467 16.3457 135.262 16.1328 135.086 15.8867C134.91 15.6406 134.764 15.373 134.646 15.084C134.525 14.7988 134.434 14.5 134.371 14.1875C134.312 13.8711 134.281 13.5527 134.277 13.2324V12.2422C134.281 11.9258 134.309 11.6113 134.359 11.2988C134.414 10.9824 134.496 10.6797 134.605 10.3906C134.715 10.1016 134.852 9.83398 135.016 9.58789C135.18 9.33789 135.377 9.12109 135.607 8.9375C135.834 8.75781 136.092 8.61523 136.381 8.50977C136.67 8.4043 136.994 8.35156 137.354 8.35156C137.752 8.35156 138.119 8.41406 138.455 8.53906C138.791 8.66016 139.084 8.83398 139.334 9.06055C139.584 9.29102 139.785 9.56836 139.938 9.89258C140.09 10.2129 140.184 10.5723 140.219 10.9707H139.146C139.104 10.7246 139.037 10.498 138.947 10.291C138.857 10.0801 138.74 9.90039 138.596 9.75195C138.447 9.60352 138.271 9.48828 138.068 9.40625C137.865 9.32031 137.629 9.27734 137.359 9.27734C137.102 9.27734 136.873 9.32227 136.674 9.41211C136.475 9.49805 136.301 9.61523 136.152 9.76367C136.004 9.91211 135.881 10.0859 135.783 10.2852C135.686 10.4805 135.605 10.6875 135.543 10.9062C135.48 11.125 135.436 11.3477 135.408 11.5742C135.381 11.8008 135.367 12.0195 135.367 12.2305V13.2324C135.371 13.4473 135.389 13.6699 135.42 13.9004C135.455 14.127 135.508 14.3496 135.578 14.5684C135.648 14.7871 135.738 14.9941 135.848 15.1895C135.957 15.3848 136.09 15.5566 136.246 15.7051C136.398 15.8535 136.576 15.9727 136.779 16.0625C136.982 16.1484 137.213 16.1934 137.471 16.1973C137.619 16.2012 137.773 16.1953 137.934 16.1797C138.098 16.1641 138.256 16.1328 138.408 16.0859C138.561 16.0391 138.703 15.9766 138.836 15.8984C138.969 15.8164 139.08 15.7109 139.17 15.582L139.182 13.666H137.447V12.752H140.213L140.23 15.8809ZM143.102 13.5781V17H142.018V8.46875H144.783C145.166 8.47656 145.527 8.53711 145.867 8.65039C146.211 8.76367 146.512 8.92773 146.77 9.14258C147.027 9.35742 147.23 9.62305 147.379 9.93945C147.531 10.2559 147.607 10.6191 147.607 11.0293C147.607 11.4395 147.531 11.8027 147.379 12.1191C147.23 12.4316 147.027 12.6953 146.77 12.9102C146.512 13.125 146.211 13.2891 145.867 13.4023C145.527 13.5156 145.166 13.5742 144.783 13.5781H143.102ZM143.102 12.6875H144.783C145.033 12.6836 145.264 12.6445 145.475 12.5703C145.686 12.4922 145.869 12.3828 146.025 12.2422C146.182 12.1016 146.303 11.9316 146.389 11.7324C146.479 11.5293 146.523 11.2988 146.523 11.041C146.523 10.7832 146.479 10.5508 146.389 10.3438C146.303 10.1367 146.184 9.96094 146.031 9.81641C145.875 9.67188 145.689 9.56055 145.475 9.48242C145.264 9.4043 145.033 9.36328 144.783 9.35938H143.102V12.6875ZM154.879 9.39453H152.242V17H151.188V9.39453H148.551V8.46875H154.879V9.39453ZM169.293 9.39453H166.656V17H165.602V9.39453H162.965V8.46875H169.293V9.39453ZM176.295 13.2266C176.291 13.5312 176.264 13.8398 176.213 14.1523C176.166 14.4609 176.092 14.7598 175.99 15.0488C175.889 15.3379 175.758 15.6074 175.598 15.8574C175.441 16.1074 175.254 16.3262 175.035 16.5137C174.816 16.7012 174.564 16.8496 174.279 16.959C173.998 17.0645 173.682 17.1172 173.33 17.1172C172.979 17.1172 172.66 17.0645 172.375 16.959C172.094 16.8496 171.844 16.7012 171.625 16.5137C171.406 16.3262 171.217 16.1074 171.057 15.8574C170.896 15.6035 170.766 15.332 170.664 15.043C170.559 14.7539 170.48 14.4551 170.43 14.1465C170.379 13.8379 170.352 13.5312 170.348 13.2266V12.2539C170.352 11.9492 170.377 11.6426 170.424 11.334C170.475 11.0215 170.553 10.7207 170.658 10.4316C170.76 10.1426 170.889 9.87305 171.045 9.62305C171.205 9.36914 171.395 9.14648 171.613 8.95508C171.832 8.76758 172.082 8.62109 172.363 8.51562C172.648 8.40625 172.967 8.35156 173.318 8.35156C173.67 8.35156 173.988 8.40625 174.273 8.51562C174.559 8.62109 174.811 8.76758 175.029 8.95508C175.248 9.14258 175.436 9.36328 175.592 9.61719C175.752 9.86719 175.885 10.1367 175.99 10.4258C176.092 10.7148 176.166 11.0156 176.213 11.3281C176.264 11.6406 176.291 11.9492 176.295 12.2539V13.2266ZM175.223 12.2422C175.219 12.0391 175.205 11.8281 175.182 11.6094C175.158 11.3867 175.119 11.166 175.064 10.9473C175.006 10.7324 174.93 10.5273 174.836 10.332C174.742 10.1328 174.625 9.95703 174.484 9.80469C174.344 9.65625 174.178 9.53906 173.986 9.45312C173.795 9.36328 173.572 9.31836 173.318 9.31836C173.068 9.31836 172.848 9.36328 172.656 9.45312C172.465 9.54297 172.299 9.66211 172.158 9.81055C172.018 9.96289 171.9 10.1387 171.807 10.3379C171.713 10.5332 171.639 10.7383 171.584 10.9531C171.525 11.1719 171.482 11.3926 171.455 11.6152C171.432 11.834 171.418 12.043 171.414 12.2422V13.2266C171.418 13.4258 171.432 13.6367 171.455 13.8594C171.482 14.082 171.525 14.3008 171.584 14.5156C171.643 14.7344 171.719 14.9434 171.812 15.1426C171.906 15.3418 172.023 15.5156 172.164 15.6641C172.305 15.8164 172.471 15.9375 172.662 16.0273C172.854 16.1172 173.076 16.1621 173.33 16.1621C173.584 16.1621 173.807 16.1172 173.998 16.0273C174.193 15.9375 174.361 15.8164 174.502 15.6641C174.639 15.5156 174.752 15.3438 174.842 15.1484C174.936 14.9492 175.012 14.7402 175.07 14.5215C175.125 14.3066 175.162 14.0879 175.182 13.8652C175.205 13.6426 175.219 13.4297 175.223 13.2266V12.2422ZM179.998 13.0391L179.049 14.1172V17H177.941V8.46875H179.049V12.6348L179.875 11.6035L182.377 8.46875H183.695L180.713 12.2012L183.895 17H182.576L179.998 13.0391ZM189.854 13.0566H186.291V16.0801H190.445V17H185.207V8.46875H190.393V9.39453H186.291V12.1367H189.854V13.0566ZM197.711 17H196.609L193.299 10.625L193.281 17H192.186V8.46875H193.287L196.598 14.832L196.615 8.46875H197.711V17Z" fill="#80B2FF"/>
</svg>
