<svg width="16" height="16" viewBox="0 0 16 16" fill="none" xmlns="http://www.w3.org/2000/svg">
<path d="M15.6676 12.0664L10.0155 1.50031C9.10744 -0.0544078 6.89378 -0.0564735 5.98447 1.50031L0.332715 12.0664C-0.595598 13.6551 0.528309 15.6668 2.34778 15.6668H13.652C15.47 15.6668 16.5959 13.6567 15.6676 12.0664ZM8 13.76C7.48319 13.76 7.0625 13.3322 7.0625 12.8066C7.0625 12.281 7.48319 11.8532 8 11.8532C8.51681 11.8532 8.9375 12.281 8.9375 12.8066C8.9375 13.3322 8.51681 13.76 8 13.76ZM8.9375 9.94641C8.9375 10.472 8.51681 10.8998 8 10.8998C7.48319 10.8998 7.0625 10.472 7.0625 9.94641V5.17939C7.0625 4.65381 7.48319 4.22599 8 4.22599C8.51681 4.22599 8.9375 4.65381 8.9375 5.17939V9.94641Z" fill="#EC221F"/>
</svg>
