<svg width="45" height="48" viewBox="0 0 45 48" fill="none" xmlns="http://www.w3.org/2000/svg">
    <path d="M20.7108 47.9988C20.0519 47.762 19.3503 47.7732 18.6713 47.6505C14.4632 46.8925 10.7763 45.0773 7.62681 42.1984C4.06516 38.9412 1.67612 34.9611 0.831746 30.2018C-0.778072 21.1342 2.10833 13.7027 9.31305 7.97001C10.9692 6.65209 12.8459 5.69372 14.8328 4.96084C15.8112 4.60004 16.5854 4.87064 16.8949 5.6837C17.2018 6.48923 16.7821 7.21584 15.8212 7.59418C9.74776 9.98448 5.72635 14.3003 3.9023 20.5604C1.35165 29.3148 5.57476 38.9136 13.6978 43.0227C24.8725 48.6765 38.1445 42.7383 41.3716 30.6415C44.1515 20.2197 37.5431 9.27791 27.0248 6.88386C26.8695 6.84878 26.7179 6.82999 26.4147 6.88887C26.6891 7.13191 26.9196 7.3073 27.1163 7.51526C27.695 8.12411 27.6976 8.976 27.1376 9.52972C26.5763 10.0847 25.7232 10.0834 25.1218 9.49214C23.9417 8.33081 22.7704 7.15947 21.6103 5.9781C21.024 5.38178 21.0228 4.56246 21.6078 3.96614C22.7791 2.7735 23.9605 1.59087 25.1544 0.42078C25.7332 -0.146728 26.5863 -0.130442 27.1351 0.410758C27.6838 0.951957 27.695 1.79007 27.1501 2.39265C26.9409 2.62441 26.7141 2.83989 26.4899 3.05788C26.2669 3.27335 26.0351 3.48006 25.742 3.75191C26.525 3.91979 27.2115 4.02878 27.8754 4.21294C36.8265 6.70847 42.4766 12.4838 44.3683 21.5551C46.8675 33.5392 38.8147 45.3128 26.8294 47.5991C26.0176 47.7545 25.1995 47.8822 24.3702 47.9148C24.2963 47.9173 24.2111 47.8998 24.1798 48C23.0234 47.9987 21.8671 47.9988 20.7108 47.9988Z" fill="#0066FF"/>
    <path d="M22.5877 40.2227C14.62 40.224 8.14188 33.7509 8.14063 25.7857C8.13937 17.8168 14.61 11.3437 22.5814 11.3412C30.5516 11.3387 37.0272 17.8105 37.0284 25.7794C37.0297 33.7471 30.5578 40.2215 22.5877 40.2227ZM24.651 28.3451C24.6648 29.747 23.759 30.6928 22.6202 30.7605C21.6105 30.8206 20.6822 30.6515 19.819 30.0702C19.1751 29.6367 18.3345 29.866 17.9248 30.4899C17.5177 31.11 17.6655 31.9556 18.2944 32.4016C18.9997 32.9002 19.7651 33.3086 20.6258 33.4314C21.0517 33.4928 21.1044 33.6556 21.1044 34.0227C21.1044 34.8546 21.7232 35.4559 22.5162 35.4509C23.3118 35.4459 23.9244 34.842 23.893 34.0027C23.8768 33.5442 24.0108 33.3512 24.4468 33.1733C27.5988 31.893 28.4932 27.7012 26.1255 25.4337C25.4778 24.8136 24.6798 24.4791 23.853 24.1796C22.976 23.8614 22.1053 23.5232 21.3186 23.002C21.0304 22.8116 20.8951 22.5673 20.8914 22.2253C20.8814 21.4498 21.3336 20.8798 22.0878 20.7182C22.8445 20.5566 23.5335 20.6957 24.1824 21.1216C24.889 21.5851 25.7296 21.4323 26.1668 20.7871C26.6253 20.1106 26.4512 19.2763 25.7371 18.7852C25.2861 18.4758 24.8013 18.2227 24.2676 18.0874C24.0146 18.0235 23.893 17.9295 23.8955 17.6264C23.9031 16.7056 23.323 16.103 22.4899 16.1093C21.6656 16.1155 21.0881 16.7369 21.1031 17.6564C21.1081 17.9771 21.0041 18.0974 20.711 18.2127C18.8544 18.9443 17.772 21.0051 18.1453 22.9632C18.4197 24.3989 19.3818 25.2157 20.587 25.8421C21.5428 26.3382 22.5551 26.6952 23.5573 27.0823C24.2501 27.3517 24.6372 27.8478 24.651 28.3451Z" fill="#0066FF"/>
</svg>
