<svg width="16" height="16" viewBox="0 0 16 16" fill="none" xmlns="http://www.w3.org/2000/svg">
<path d="M8 16C12.4183 16 16 12.4183 16 8C16 3.58172 12.4183 0 8 0C3.58172 0 0 3.58172 0 8C0 12.4183 3.58172 16 8 16Z" fill="url(#paint0_linear_983_5098)"/>
<path fill-rule="evenodd" clip-rule="evenodd" d="M5.37418 10.2901C5.39963 10.2625 5.43068 10.2401 5.46518 10.2245C5.49968 10.209 5.53677 10.2008 5.57429 10.1999H11.8583C11.885 10.2004 11.9109 10.2081 11.9329 10.2232C11.9549 10.2379 11.9726 10.2586 11.9829 10.2832C11.9937 10.3078 11.9967 10.3345 11.9924 10.3608C11.9881 10.3871 11.976 10.4113 11.9583 10.4311L10.6262 11.9099C10.6007 11.9375 10.5697 11.9599 10.5352 11.9755C10.5007 11.991 10.4636 11.9992 10.426 12.0001H4.13817C4.11143 11.9996 4.08556 11.9914 4.06356 11.9768C4.04157 11.9621 4.02389 11.9414 4.01354 11.9168C4.00319 11.8922 3.99974 11.8655 4.00405 11.8392C4.00836 11.8129 4.02044 11.7887 4.03812 11.7689L5.37418 10.2901ZM11.9639 9.06399C11.9821 9.08382 11.9937 9.10798 11.998 9.13428C12.0023 9.16059 11.9993 9.18733 11.9885 9.21191C11.9777 9.23649 11.9605 9.25719 11.9385 9.27186C11.9165 9.28652 11.8906 9.29471 11.8639 9.29515L5.57817 9.30032C5.54065 9.29946 5.50313 9.29126 5.46906 9.27574C5.43456 9.26021 5.40394 9.23779 5.37806 9.21019L4.03596 7.73611C4.01785 7.71628 4.0062 7.69213 4.00189 7.66582C3.99758 7.63951 4.0006 7.61277 4.01138 7.58819C4.02216 7.56361 4.03941 7.54291 4.06141 7.52824C4.0834 7.51358 4.10928 7.50539 4.13602 7.50496L10.4217 7.49978C10.4592 7.50064 10.4968 7.50884 10.5308 7.52436C10.5653 7.53989 10.596 7.56188 10.6218 7.58992L11.9639 9.06399ZM5.37418 4.89018C5.39963 4.86258 5.43068 4.84016 5.46518 4.82463C5.49968 4.80911 5.53677 4.80091 5.57429 4.80005L11.8622 4.80522C11.8889 4.80566 11.9148 4.81342 11.9368 4.82851C11.9588 4.84318 11.9764 4.86388 11.9868 4.88846C11.9971 4.91304 12.0006 4.93978 11.9963 4.96609C11.992 4.99239 11.9799 5.01654 11.9622 5.03638L10.6262 6.51045C10.6007 6.53806 10.5697 6.56048 10.5352 6.57601C10.5007 6.59153 10.4636 6.59973 10.426 6.60059H4.13817C4.11143 6.60016 4.08556 6.59196 4.06356 6.5773C4.04157 6.56264 4.02389 6.5415 4.01354 6.51735C4.00319 6.49277 3.99974 6.46603 4.00405 6.43973C4.00836 6.41342 4.02044 6.38927 4.03812 6.36943L5.37418 4.89018Z" fill="white"/>
<defs>
<linearGradient id="paint0_linear_983_5098" x1="-0.302767" y1="15.4724" x2="16.3028" y2="0.527624" gradientUnits="userSpaceOnUse">
<stop stop-color="#9945FF"/>
<stop offset="0.14" stop-color="#8A53F4"/>
<stop offset="0.42" stop-color="#6377D6"/>
<stop offset="0.79" stop-color="#24B0A7"/>
<stop offset="0.99" stop-color="#00D18C"/>
<stop offset="1" stop-color="#00D18C"/>
</linearGradient>
</defs>
</svg>
