<svg width="32" height="32" viewBox="0 0 32 32" fill="none" xmlns="http://www.w3.org/2000/svg">
<path d="M16 32C24.8366 32 32 24.8366 32 16C32 7.16344 24.8366 0 16 0C7.16344 0 0 7.16344 0 16C0 24.8366 7.16344 32 16 32Z" fill="url(#paint0_linear_888_922)"/>
<path fill-rule="evenodd" clip-rule="evenodd" d="M10.7484 20.58C10.7993 20.5248 10.8614 20.48 10.9304 20.4489C10.9994 20.4179 11.0735 20.4015 11.1486 20.3998H23.7166C23.77 20.4006 23.8218 20.4162 23.8658 20.4463C23.9098 20.4757 23.9451 20.5171 23.9658 20.5662C23.9874 20.6154 23.9934 20.6689 23.9848 20.7215C23.9762 20.7741 23.952 20.8224 23.9167 20.8621L21.2523 23.8197C21.2014 23.8749 21.1393 23.9198 21.0703 23.9508C21.0013 23.9819 20.9271 23.9983 20.8521 24H8.27634C8.22287 23.9991 8.17112 23.9827 8.12713 23.9534C8.08314 23.9241 8.04777 23.8827 8.02707 23.8335C8.00637 23.7843 7.99947 23.7309 8.0081 23.6783C8.01672 23.6256 8.04087 23.5773 8.07624 23.5377L10.7484 20.58ZM23.9279 18.1278C23.9641 18.1675 23.9874 18.2158 23.996 18.2684C24.0046 18.3211 23.9986 18.3745 23.977 18.4237C23.9555 18.4729 23.921 18.5143 23.877 18.5436C23.833 18.5729 23.7812 18.5893 23.7278 18.5902L11.1563 18.6005C11.0813 18.5988 11.0063 18.5824 10.9381 18.5514C10.8691 18.5203 10.8079 18.4755 10.7561 18.4202L8.07192 15.4721C8.0357 15.4324 8.01241 15.3841 8.00378 15.3315C7.99516 15.2789 8.0012 15.2254 8.02276 15.1763C8.04432 15.1271 8.07882 15.0857 8.12281 15.0564C8.1668 15.027 8.21855 15.0107 8.27203 15.0098L20.8435 14.9994C20.9185 15.0012 20.9935 15.0176 21.0617 15.0486C21.1307 15.0797 21.1919 15.1236 21.2437 15.1797L23.9279 18.1278ZM10.7484 9.78024C10.7993 9.72504 10.8614 9.68019 10.9304 9.64914C10.9994 9.61809 11.0735 9.6017 11.1486 9.59998L23.7243 9.61033C23.7778 9.61119 23.8296 9.62671 23.8735 9.6569C23.9175 9.68623 23.9529 9.72763 23.9736 9.77679C23.9943 9.82596 24.0012 9.87944 23.9926 9.93205C23.9839 9.98467 23.9598 10.033 23.9244 10.0726L21.2523 13.0208C21.2014 13.076 21.1393 13.1208 21.0703 13.1519C21.0013 13.1829 20.9271 13.1993 20.8521 13.2011H8.27634C8.22287 13.2002 8.17112 13.1838 8.12713 13.1545C8.08314 13.1252 8.04777 13.0829 8.02707 13.0346C8.00637 12.9854 7.99947 12.9319 8.0081 12.8793C8.01672 12.8267 8.04087 12.7784 8.07624 12.7387L10.7484 9.78024Z" fill="white"/>
<defs>
<linearGradient id="paint0_linear_888_922" x1="-0.605534" y1="30.9447" x2="32.6056" y2="1.05525" gradientUnits="userSpaceOnUse">
<stop stop-color="#9945FF"/>
<stop offset="0.14" stop-color="#8A53F4"/>
<stop offset="0.42" stop-color="#6377D6"/>
<stop offset="0.79" stop-color="#24B0A7"/>
<stop offset="0.99" stop-color="#00D18C"/>
<stop offset="1" stop-color="#00D18C"/>
</linearGradient>
</defs>
</svg>
