<svg width="32" height="32" viewBox="0 0 32 32" fill="none" xmlns="http://www.w3.org/2000/svg">
<path d="M16 32C24.8366 32 32 24.8366 32 16C32 7.16344 24.8366 0 16 0C7.16344 0 0 7.16344 0 16C0 24.8366 7.16344 32 16 32Z" fill="#172852"/>
<path d="M12.8894 7.15039C14.763 6.44958 16.8718 6.44798 18.7806 7.02399C21.2654 7.79519 23.363 9.6704 24.459 12.024C24.7614 12.6944 25.051 13.3936 25.0798 14.1392C23.683 13.3296 22.1518 12.8048 20.6174 12.3264C18.163 11.4416 15.5934 10.8272 13.2702 9.6112C12.7294 9.288 12.0398 8.9568 11.8926 8.28319C11.8334 7.70079 12.4494 7.37599 12.8894 7.15039Z" fill="#FFD83D"/>
<path d="M7.23284 12.8143C7.77524 11.3423 8.66484 9.97593 9.87284 8.96313C10.18 11.4895 11.2552 13.9311 13.0312 15.7679C15.1608 17.9807 18.1944 19.3391 21.2808 19.2879C22.5064 19.3263 23.7048 19.0431 24.9 18.8143C23.724 23.0639 19.0664 25.8847 14.7512 25.2063C12.1464 24.8735 9.74164 23.3311 8.29044 21.1535C6.65364 18.7471 6.24084 15.5519 7.23284 12.8143Z" fill="#FFD83D"/>
<path d="M20.6152 12.3264C22.1496 12.8048 23.6808 13.3296 25.0776 14.1392L25.172 14.1888C25.3016 15.1632 25.396 16.1568 25.2232 17.1328C24.5208 16.8352 23.9512 16.312 23.356 15.8496C22.2104 14.896 21.0408 13.8048 20.6152 12.3264Z" fill="#FF6F03"/>
</svg>
