<svg width="48" height="48" viewBox="0 0 48 48" fill="none" xmlns="http://www.w3.org/2000/svg">
<path d="M0.00170898 18.7327C0.172473 18.3927 0.319297 18.0384 0.520384 17.716C1.19067 16.634 2.19451 15.927 3.2925 15.3429C5.49647 14.1699 7.88397 13.6097 10.3401 13.3081C12.7037 13.0177 15.0704 13.0304 17.4388 13.2906C17.7452 13.3241 17.817 13.4214 17.817 13.7151C17.8074 17.9762 17.8106 22.2357 17.809 26.4968C17.809 26.6692 17.8744 26.8559 17.5664 26.8878C13.2973 27.3458 9.09527 27.1128 5.02248 25.6366C3.78724 25.1898 2.63338 24.5817 1.61199 23.7359C0.865103 23.1166 0.371963 22.3283 0.00330491 21.4473C0.00170898 20.5424 0.00170898 19.6375 0.00170898 18.7327Z" fill="#0066FF"/>
<path d="M0.00170898 32.8742C0.207583 32.7513 0.103848 32.456 0.312914 32.3204C1.43166 34.2227 3.26696 35.1579 5.23474 35.8554C9.18943 37.2582 13.2734 37.4992 17.4148 37.0395C17.7819 36.998 17.8218 37.0922 17.8154 37.4066C17.7946 38.5126 17.7436 39.6265 18.2399 40.6655C18.3532 40.9017 18.1968 40.9065 18.0245 40.9304C15.7742 41.24 13.5144 41.3006 11.2546 41.0948C8.83992 40.8745 6.47956 40.4021 4.24207 39.427C3.23824 38.9898 2.30143 38.4408 1.46996 37.7178C0.770943 37.1098 0.330469 36.3421 0.00330491 35.4963C0.00170898 34.6233 0.00170898 33.7487 0.00170898 32.8742Z" fill="#0066FF"/>
<path d="M0.00159592 25.8504C0.188319 25.71 0.108523 25.4355 0.292054 25.2839C2.02363 27.8996 4.76064 28.8029 7.59021 29.4891C10.8204 30.2727 14.1016 30.3685 17.3971 29.9823C17.7147 29.9456 17.8264 29.9966 17.8185 30.3477C17.7945 31.4074 17.7977 32.4703 17.8169 33.53C17.8217 33.8252 17.7355 33.9226 17.4434 33.9561C15.1389 34.2194 12.8344 34.2338 10.5315 33.9673C8.16952 33.6944 5.86821 33.1725 3.71211 32.1272C2.70988 31.6404 1.79222 31.0372 1.02139 30.2185C0.542613 29.711 0.296842 29.0806 0 28.4725C0.00159592 27.598 0.00159592 26.725 0.00159592 25.8504Z" fill="#0066FF"/>
<path d="M34.8581 2.40012C37.4243 2.42406 40.7119 2.85975 43.824 4.22266C44.9156 4.69984 45.9306 5.3047 46.7732 6.1649C47.56 6.96924 47.892 7.91563 47.9814 9.05671C48.1537 11.2336 47.1116 12.6427 45.3991 13.7232C43.5798 14.8723 41.5641 15.5106 39.4719 15.892C35.0671 16.698 30.6863 16.5943 26.3646 15.351C24.7703 14.893 23.302 14.1796 21.9231 13.2285C19.4159 11.5017 19.4143 7.27566 21.9455 5.53451C23.4839 4.47642 25.1469 3.75346 26.9327 3.27149C29.266 2.6443 31.6487 2.39374 34.8581 2.40012Z" fill="#0066FF"/>
<path d="M20.3799 21.5689C21.3422 23.2446 22.8424 24.1415 24.4926 24.8261C28.3244 26.4141 32.3397 26.7381 36.4269 26.446C39.1958 26.2481 41.8865 25.6911 44.3953 24.4431C45.7103 23.7888 46.8881 22.9621 47.6382 21.5976C47.8856 21.9439 47.9319 22.3237 47.9462 22.6988C47.9654 23.2286 47.967 23.7601 47.9478 24.2899C47.9191 25.1373 47.5552 25.8523 47.0046 26.4763C45.9018 27.7291 44.4671 28.4696 42.935 29.0394C39.7161 30.2379 36.3678 30.5986 32.9589 30.4869C30.1708 30.3959 27.4386 29.965 24.8293 28.9324C23.5174 28.4138 22.2838 27.7562 21.2768 26.7412C20.4836 25.9417 20.0351 25.0017 20.0862 23.8494C20.1181 23.0978 20.0048 22.3269 20.3799 21.5689Z" fill="#0066FF"/>
<path d="M20.3627 36.0469C21.5404 38.045 23.4157 38.9818 25.4217 39.6824C29.2408 41.015 33.1827 41.2703 37.1853 40.865C39.6797 40.6128 42.1023 40.0702 44.3621 38.9515C45.6899 38.2939 46.8885 37.4657 47.621 36.1139C47.7806 36.157 47.7838 36.3022 47.8013 36.4092C48.1891 38.7807 48.071 40.225 46.2389 41.714C44.6973 42.9684 42.8891 43.6818 40.9868 44.1446C35.7537 45.4149 30.5526 45.3415 25.4106 43.6419C24.4642 43.3291 23.5784 42.879 22.715 42.3731C20.6994 41.1921 19.7722 39.4877 20.1041 37.1433C20.1281 36.9741 20.1312 36.8002 20.1695 36.6342C20.2126 36.4538 20.2845 36.2799 20.3627 36.0469Z" fill="#0066FF"/>
<path d="M20.372 14.5179C21.5498 16.5048 23.4282 17.4432 25.4342 18.1406C29.2421 19.4636 33.1713 19.7238 37.1595 19.3216C39.6571 19.0694 42.0781 18.5284 44.3427 17.4145C45.6849 16.7537 46.8898 15.9143 47.6367 14.545C47.683 14.5992 47.7293 14.6296 47.7388 14.6695C48.1314 16.1888 48.1889 18.3928 46.7398 19.7285C45.4838 20.8872 44.0235 21.674 42.4244 22.1671C36.6695 23.945 30.9162 23.9386 25.1885 22.0123C24.3315 21.7234 23.5319 21.3053 22.7483 20.8505C20.6928 19.6583 19.7623 17.9236 20.1023 15.5408C20.1533 15.2009 20.2108 14.8674 20.372 14.5179Z" fill="#0066FF"/>
<path d="M47.6542 29.0057C47.71 29.1222 47.7563 29.1876 47.7707 29.2578C48.2032 31.4777 48.0883 33.1231 46.3519 34.569C45.072 35.6351 43.5894 36.3054 42.0206 36.797C38.7489 37.8199 35.3943 38.0928 31.9886 37.871C29.3442 37.6987 26.7683 37.2167 24.3234 36.1554C23.2174 35.675 22.1833 35.0766 21.3167 34.2163C20.4916 33.3976 20.0288 32.4369 20.0846 31.2479C20.1197 30.5074 20.0096 29.7526 20.3639 29.036C21.9407 31.5129 24.4654 32.4656 27.0971 33.1311C32.0333 34.3775 36.9774 34.3073 41.8785 32.8774C43.1377 32.5103 44.3394 31.998 45.4454 31.283C46.3423 30.7037 47.1163 29.9983 47.6542 29.0057Z" fill="#0066FF"/>
</svg>
