<svg width="32" height="24" viewBox="0 0 32 24" fill="none" xmlns="http://www.w3.org/2000/svg">
<path d="M0 12C0 5.37258 5.37258 0 12 0L20 0C26.6274 0 32 5.37258 32 12C32 18.6274 26.6274 24 20 24H12C5.37258 24 0 18.6274 0 12Z" fill="#E5EFFF"/>
<path d="M13.3786 16.8347C14.0365 17.1916 14.7588 17.4096 15.5007 17.4771C15.7757 17.5022 16 17.7236 16 17.9998C16 18.2759 15.7758 18.5017 15.5005 18.4805C14.7184 18.4202 13.9522 18.2188 13.2393 17.8849C12.3753 17.4801 11.6108 16.8903 11 16.1573V17.4998C11 17.7759 10.7761 17.9998 10.5 17.9998C10.2239 17.9998 10 17.7759 10 17.4998V14.9998C10 14.4475 10.4477 13.9998 11 13.9998H13.5C13.7761 13.9998 14 14.2236 14 14.4998C14 14.7759 13.7761 14.9998 13.5 14.9998H11.392C11.891 15.7674 12.5739 16.3981 13.3786 16.8347Z" fill="#0066FF"/>
<path d="M20.608 8.99977H18.5C18.2239 8.99977 18 9.22363 18 9.49977C18 9.77592 18.2239 9.99977 18.5 9.99977H21C21.5523 9.99977 22 9.55206 22 8.99977V6.49977C22 6.22363 21.7761 5.99977 21.5 5.99977C21.2239 5.99977 21 6.22363 21 6.49977V7.84227C20.145 6.8152 18.9943 6.0765 17.7045 5.72671C16.4147 5.37691 15.0485 5.433 13.7917 5.88735C12.535 6.3417 11.4487 7.17224 10.6808 8.26594C10.0089 9.22287 9.60925 10.3406 9.51942 11.5003C9.4981 11.7756 9.72389 11.9998 10 11.9998C10.2761 11.9998 10.4975 11.7754 10.5225 11.5004C10.614 10.4926 10.9823 9.52598 11.5912 8.70966C12.3002 7.7593 13.2974 7.06356 14.434 6.7262C15.5707 6.38885 16.786 6.42795 17.8986 6.83767C19.0112 7.2474 19.9616 8.0058 20.608 8.99977Z" fill="#0066FF"/>
<path d="M13.3786 16.8347C14.0365 17.1916 14.7588 17.4096 15.5007 17.4771C15.7757 17.5022 16 17.7236 16 17.9998C16 18.2759 15.7758 18.5017 15.5005 18.4805C14.7184 18.4202 13.9522 18.2188 13.2393 17.8849C12.3753 17.4801 11.6108 16.8903 11 16.1573V17.4998C11 17.7759 10.7761 17.9998 10.5 17.9998C10.2239 17.9998 10 17.7759 10 17.4998V14.9998C10 14.4475 10.4477 13.9998 11 13.9998H13.5C13.7761 13.9998 14 14.2236 14 14.4998C14 14.7759 13.7761 14.9998 13.5 14.9998H11.392C11.891 15.7674 12.5739 16.3981 13.3786 16.8347Z" stroke="#0066FF" stroke-width="0.5"/>
<path d="M20.608 8.99977H18.5C18.2239 8.99977 18 9.22363 18 9.49977C18 9.77592 18.2239 9.99977 18.5 9.99977H21C21.5523 9.99977 22 9.55206 22 8.99977V6.49977C22 6.22363 21.7761 5.99977 21.5 5.99977C21.2239 5.99977 21 6.22363 21 6.49977V7.84227C20.145 6.8152 18.9943 6.0765 17.7045 5.72671C16.4147 5.37691 15.0485 5.433 13.7917 5.88735C12.535 6.3417 11.4487 7.17224 10.6808 8.26594C10.0089 9.22287 9.60925 10.3406 9.51942 11.5003C9.4981 11.7756 9.72389 11.9998 10 11.9998C10.2761 11.9998 10.4975 11.7754 10.5225 11.5004C10.614 10.4926 10.9823 9.52598 11.5912 8.70966C12.3002 7.7593 13.2974 7.06356 14.434 6.7262C15.5707 6.38885 16.786 6.42795 17.8986 6.83767C19.0112 7.2474 19.9616 8.0058 20.608 8.99977Z" stroke="#0066FF" stroke-width="0.5"/>
<path d="M20.1396 12V18.6637M21.6541 13.2116H19.3824C19.1012 13.2116 18.8316 13.3233 18.6328 13.5221C18.434 13.7209 18.3223 13.9906 18.3223 14.2717C18.3223 14.5529 18.434 14.8225 18.6328 15.0214C18.8316 15.2202 19.1012 15.3319 19.3824 15.3319H20.8969C21.1781 15.3319 21.4477 15.4436 21.6465 15.6424C21.8453 15.8412 21.957 16.1108 21.957 16.392C21.957 16.6732 21.8453 16.9428 21.6465 17.1416C21.4477 17.3405 21.1781 17.4521 20.8969 17.4521H18.3223" stroke="#0066FF" stroke-width="1.2" stroke-linecap="round" stroke-linejoin="round"/>
</svg>
