<svg width="22" height="22" viewBox="0 0 22 22" fill="none" xmlns="http://www.w3.org/2000/svg">
<path d="M11 0C4.92508 0 0 4.57286 0 10.2143C0 12.648 0.919961 14.88 2.45008 16.6346C1.91039 19.1051 0.116016 21.311 0.0945313 21.3371C0.0482637 21.3927 0.0173026 21.4627 0.0054807 21.5383C-0.00634121 21.6139 0.00149519 21.6918 0.0280198 21.7624C0.0545444 21.8329 0.0985925 21.893 0.154711 21.9353C0.21083 21.9775 0.276555 22 0.34375 22C3.19086 22 5.3277 20.4408 6.38516 19.4769C7.7898 20.0814 9.34957 20.4286 11 20.4286C17.0749 20.4286 22 15.8557 22 10.2143C22 4.57286 17.0749 0 11 0ZM12.0312 14.852V15.7143C12.0312 16.1484 11.7236 16.5 11.3438 16.5H10.6562C10.2764 16.5 9.96875 16.1484 9.96875 15.7143V14.8436C9.47805 14.7773 9.01141 14.5887 8.6032 14.2808C8.33594 14.079 8.31016 13.6371 8.5366 13.3783L9.28941 12.5179C9.45012 12.3342 9.68945 12.3097 9.8957 12.4182C10.0323 12.4899 10.1819 12.5272 10.3366 12.5272H11.7451C11.9453 12.5272 12.1077 12.3416 12.1077 12.1137C12.1077 11.9296 11.9995 11.7661 11.8448 11.7155L9.69332 11.0133C8.73727 10.7014 7.97414 9.79982 7.84953 8.67232C7.67551 7.09746 8.66723 5.75388 9.96875 5.57612V4.71429C9.96875 4.28018 10.2764 3.92857 10.6562 3.92857H11.3438C11.7236 3.92857 12.0312 4.28018 12.0312 4.71429V5.58496C12.522 5.65125 12.9886 5.83982 13.3968 6.14772C13.6641 6.34955 13.6898 6.79152 13.4634 7.05031L12.7106 7.91067C12.5499 8.09433 12.3105 8.11888 12.1043 8.01036C11.966 7.93807 11.8156 7.90087 11.6634 7.90134H10.2549C10.0547 7.90134 9.89227 8.08696 9.89227 8.31482C9.89227 8.49897 10.0005 8.6625 10.1552 8.71308L12.3067 9.41531C13.2627 9.72763 14.0259 10.6287 14.1505 11.7562C14.3245 13.3306 13.3328 14.6742 12.0312 14.852Z" fill="white"/>
</svg>
