<svg width="16" height="16" viewBox="0 0 16 16" fill="none" xmlns="http://www.w3.org/2000/svg">
<path d="M15.6676 12.3373L10.0155 1.9474C9.10744 0.418615 6.89378 0.416584 5.98447 1.9474L0.332715 12.3373C-0.595598 13.8994 0.528309 15.8776 2.34778 15.8776H13.652C15.47 15.8776 16.5959 13.901 15.6676 12.3373ZM8 14.0026C7.48319 14.0026 7.0625 13.5819 7.0625 13.0651C7.0625 12.5483 7.48319 12.1276 8 12.1276C8.51681 12.1276 8.9375 12.5483 8.9375 13.0651C8.9375 13.5819 8.51681 14.0026 8 14.0026ZM8.9375 10.2526C8.9375 10.7694 8.51681 11.1901 8 11.1901C7.48319 11.1901 7.0625 10.7694 7.0625 10.2526V5.56512C7.0625 5.04831 7.48319 4.62762 8 4.62762C8.51681 4.62762 8.9375 5.04831 8.9375 5.56512V10.2526Z" fill="#D01F36"/>
</svg>
