<svg
              xmlns="http://www.w3.org/2000/svg"
              width="16"
              height="16"
              viewBox="0 0 16 16"
              fill="none"
            >
              <path
                fill-rule="evenodd"
                clip-rule="evenodd"
                d="M7.50314 5.53776C7.63484 5.40697 7.81345 5.3335 7.99967 5.3335C8.1859 5.3335 8.36451 5.40697 8.49621 5.53776L12.4692 9.48448C12.5971 9.61606 12.6679 9.7923 12.6663 9.97522C12.6647 10.1581 12.5909 10.3331 12.4606 10.4625C12.3304 10.5918 12.1543 10.6652 11.9701 10.6668C11.786 10.6684 11.6086 10.5981 11.4761 10.471L7.99967 7.01752L4.52323 10.471C4.39077 10.5981 4.21336 10.6684 4.02922 10.6668C3.84507 10.6652 3.66892 10.5918 3.53871 10.4625C3.4085 10.3331 3.33463 10.1581 3.33303 9.97522C3.33143 9.7923 3.40222 9.61606 3.53016 9.48448L7.50314 5.53776Z"
                fill="#EFEFE5"
              />
            </svg>