<svg
              xmlns="http://www.w3.org/2000/svg"
              width="16"
              height="16"
              viewBox="0 0 16 16"
              fill="none"
            >
              <path
                fill-rule="evenodd"
                clip-rule="evenodd"
                d="M8.50391 10.5552C8.37245 10.6823 8.19417 10.7537 8.00829 10.7537C7.8224 10.7537 7.64413 10.6823 7.51267 10.5552L3.54702 6.71947C3.48007 6.65692 3.42666 6.5821 3.38992 6.49938C3.35318 6.41666 3.33384 6.32768 3.33303 6.23765C3.33223 6.14762 3.34996 6.05834 3.38521 5.97501C3.42046 5.89168 3.47251 5.81597 3.53833 5.75231C3.60415 5.68864 3.68242 5.6383 3.76857 5.6042C3.85473 5.57011 3.94704 5.55295 4.04012 5.55374C4.1332 5.55452 4.22518 5.57322 4.31071 5.60876C4.39624 5.6443 4.47359 5.69595 4.53826 5.76071L8.00829 9.11705L11.4783 5.76071C11.6105 5.6372 11.7876 5.56886 11.9714 5.5704C12.1552 5.57195 12.331 5.64325 12.461 5.76897C12.591 5.89469 12.6647 6.06475 12.6663 6.24253C12.6679 6.42031 12.5973 6.59159 12.4696 6.71947L8.50391 10.5552Z"
                fill="#EFEFE5"
              />
            </svg>