<svg
                  xmlns="http://www.w3.org/2000/svg"
                  width="16"
                  height="16"
                  viewBox="0 0 16 16"
                  fill="none"
                >
                  <path
                    fill-rule="evenodd"
                    clip-rule="evenodd"
                    d="M11.5292 3.52876C11.7896 3.26841 12.2117 3.26841 12.4721 3.52876C12.7324 3.78911 12.7324 4.21122 12.4721 4.47157L8.94346 8.00016L12.4721 11.5288C12.7324 11.7891 12.7324 12.2112 12.4721 12.4716C12.2117 12.7319 11.7896 12.7319 11.5292 12.4716L8.00065 8.94297L4.47206 12.4716C4.21171 12.7319 3.7896 12.7319 3.52925 12.4716C3.2689 12.2112 3.2689 11.7891 3.52925 11.5288L7.05784 8.00016L3.52925 4.47157C3.2689 4.21122 3.2689 3.78911 3.52925 3.52876C3.7896 3.26841 4.21171 3.26841 4.47206 3.52876L8.00065 7.05735L11.5292 3.52876Z"
                    fill="#EFEFE5"
                  />
                </svg>