<svg width="122" height="36" viewBox="0 0 122 36" fill="none" xmlns="http://www.w3.org/2000/svg">
<g clip-path="url(#clip0_1074_3377)">
<path d="M117.177 36H4.2561C1.9098 36 0 34.0848 0 31.7403V4.2534C0 1.908 1.9098 0 4.2561 0H117.177C119.523 0 121.5 1.908 121.5 4.2534V31.7403C121.5 34.0848 119.523 36 117.177 36Z" fill="#A6A6A6"/>
<path d="M120.629 31.7412C120.629 33.6456 119.086 35.1882 117.178 35.1882H4.25588C2.34878 35.1882 0.800781 33.6456 0.800781 31.7412V4.25249C0.800781 2.34899 2.34878 0.800995 4.25588 0.800995H117.177C119.086 0.800995 120.628 2.34899 120.628 4.25249L120.629 31.7412Z" fill="black"/>
<path d="M27.1152 17.8056C27.0891 14.9049 29.4903 13.4937 29.6001 13.428C28.2402 11.4453 26.1324 11.1744 25.3917 11.1528C23.6214 10.9665 21.9042 12.2121 21.0024 12.2121C20.0826 12.2121 18.6939 11.1708 17.1972 11.2014C15.2712 11.2311 13.4694 12.3462 12.4812 14.0778C10.4418 17.6085 11.9628 22.797 13.9167 25.6509C14.8941 27.0486 16.0362 28.6092 17.5311 28.5543C18.9936 28.494 19.5399 27.6219 21.3048 27.6219C23.0535 27.6219 23.5665 28.5543 25.0911 28.5192C26.6607 28.494 27.6489 27.1152 28.5921 25.7049C29.7216 24.1029 30.1752 22.5252 30.1932 22.4442C30.1563 22.4316 27.1449 21.2823 27.1152 17.8056Z" fill="white"/>
<path d="M24.2353 9.27541C25.0219 8.29171 25.5601 6.95341 25.4107 5.59531C24.2722 5.64571 22.8484 6.38281 22.0285 7.34491C21.3031 8.19271 20.6551 9.58231 20.8225 10.8891C22.1014 10.9845 23.4145 10.2438 24.2353 9.27541Z" fill="white"/>
<path d="M48.2804 28.3536H46.2365L45.1169 24.8355H41.2253L40.1588 28.3536H38.1689L42.0245 16.3764H44.4059L48.2804 28.3536ZM44.7794 23.3595L43.7669 20.232C43.6598 19.9125 43.4591 19.1601 43.163 17.9757H43.127C43.0091 18.4851 42.8192 19.2375 42.5582 20.232L41.5637 23.3595H44.7794Z" fill="white"/>
<path d="M58.1958 23.9292C58.1958 25.398 57.7989 26.559 57.0051 27.4113C56.2941 28.17 55.4112 28.5489 54.3573 28.5489C53.2197 28.5489 52.4025 28.1403 51.9048 27.3231H51.8688V31.8726H49.95V22.5603C49.95 21.6369 49.9257 20.6892 49.8789 19.7172H51.5664L51.6735 21.0861H51.7095C52.3494 20.0547 53.3205 19.5399 54.6237 19.5399C55.6425 19.5399 56.493 19.9422 57.1734 20.7477C57.8556 21.5541 58.1958 22.6143 58.1958 23.9292ZM56.241 23.9994C56.241 23.1588 56.052 22.4658 55.6722 21.9204C55.2573 21.3516 54.7002 21.0672 54.0018 21.0672C53.5284 21.0672 53.0982 21.2256 52.7139 21.5379C52.3287 21.8529 52.0767 22.2642 51.9588 22.7736C51.8994 23.0112 51.8697 23.2056 51.8697 23.3586V24.7986C51.8697 25.4268 52.0623 25.9569 52.4475 26.3898C52.8327 26.8227 53.3331 27.0387 53.9487 27.0387C54.6714 27.0387 55.2339 26.7597 55.6362 26.2035C56.0394 25.6464 56.241 24.912 56.241 23.9994Z" fill="white"/>
<path d="M68.1295 23.9292C68.1295 25.398 67.7326 26.559 66.9379 27.4113C66.2278 28.17 65.3449 28.5489 64.291 28.5489C63.1534 28.5489 62.3362 28.1403 61.8394 27.3231H61.8034V31.8726H59.8846V22.5603C59.8846 21.6369 59.8603 20.6892 59.8135 19.7172H61.501L61.6081 21.0861H61.6441C62.2831 20.0547 63.2542 19.5399 64.5583 19.5399C65.5762 19.5399 66.4267 19.9422 67.1089 20.7477C67.7884 21.5541 68.1295 22.6143 68.1295 23.9292ZM66.1747 23.9994C66.1747 23.1588 65.9848 22.4658 65.605 21.9204C65.1901 21.3516 64.6348 21.0672 63.9355 21.0672C63.4612 21.0672 63.0319 21.2256 62.6467 21.5379C62.2615 21.8529 62.0104 22.2642 61.8925 22.7736C61.834 23.0112 61.8034 23.2056 61.8034 23.3586V24.7986C61.8034 25.4268 61.996 25.9569 62.3794 26.3898C62.7646 26.8218 63.265 27.0387 63.8824 27.0387C64.6051 27.0387 65.1676 26.7597 65.5699 26.2035C65.9731 25.6464 66.1747 24.912 66.1747 23.9994Z" fill="white"/>
<path d="M79.2351 24.9948C79.2351 26.0136 78.8814 26.8425 78.1713 27.4824C77.391 28.1817 76.3047 28.5309 74.9088 28.5309C73.62 28.5309 72.5868 28.2825 71.8047 27.7848L72.2493 26.1855C73.0917 26.6949 74.016 26.9505 75.0231 26.9505C75.7458 26.9505 76.3083 26.7867 76.7124 26.4609C77.1147 26.1351 77.3154 25.6977 77.3154 25.1523C77.3154 24.6663 77.1498 24.2568 76.8177 23.9247C76.4874 23.5926 75.9357 23.2839 75.1653 22.9986C73.0683 22.2165 72.0207 21.0708 72.0207 19.5642C72.0207 18.5796 72.3879 17.7723 73.1232 17.1441C73.8558 16.515 74.8332 16.2009 76.0554 16.2009C77.1453 16.2009 78.0507 16.3908 78.7734 16.7697L78.2937 18.3339C77.6187 17.9667 76.8555 17.7831 76.0014 17.7831C75.3264 17.7831 74.799 17.9496 74.421 18.2808C74.1015 18.5769 73.9413 18.9378 73.9413 19.3653C73.9413 19.8387 74.124 20.2302 74.4912 20.538C74.8107 20.8224 75.3912 21.1302 76.2336 21.4623C77.2641 21.8772 78.021 22.3623 78.5079 22.9185C78.993 23.4729 79.2351 24.1668 79.2351 24.9948Z" fill="white"/>
<path d="M85.5789 21.1572H83.4639V25.3503C83.4639 26.4168 83.8365 26.9496 84.5835 26.9496C84.9264 26.9496 85.2108 26.9199 85.4358 26.8605L85.4889 28.3176C85.1109 28.4589 84.6132 28.53 83.9967 28.53C83.2389 28.53 82.6467 28.2987 82.2192 27.837C81.7935 27.3744 81.5793 26.5986 81.5793 25.5087V21.1554H80.3193V19.7154H81.5793V18.1341L83.4639 17.5653V19.7154H85.5789V21.1572Z" fill="white"/>
<path d="M95.1222 23.9643C95.1222 25.2918 94.7424 26.3817 93.9846 27.234C93.1899 28.1115 92.1351 28.5489 90.8202 28.5489C89.553 28.5489 88.5441 28.1286 87.7917 27.288C87.0393 26.4474 86.6631 25.3863 86.6631 24.1074C86.6631 22.7691 87.0501 21.6729 87.8268 20.8206C88.6017 19.9674 89.6475 19.5408 90.9624 19.5408C92.2296 19.5408 93.2493 19.9611 94.0188 20.8026C94.755 21.6189 95.1222 22.6728 95.1222 23.9643ZM93.1314 24.0264C93.1314 23.2299 92.9613 22.5468 92.6166 21.9771C92.2143 21.2877 91.6392 20.9439 90.894 20.9439C90.1227 20.9439 89.5368 21.2886 89.1345 21.9771C88.7898 22.5477 88.6197 23.2416 88.6197 24.0624C88.6197 24.8589 88.7898 25.542 89.1345 26.1108C89.5494 26.8002 90.129 27.144 90.8769 27.144C91.6095 27.144 92.1846 26.793 92.5995 26.0928C92.9532 25.5123 93.1314 24.822 93.1314 24.0264Z" fill="white"/>
<path d="M101.359 21.4047C101.169 21.3696 100.966 21.3516 100.754 21.3516C100.079 21.3516 99.5571 21.6063 99.1899 22.1166C98.8704 22.5666 98.7102 23.1354 98.7102 23.8221V28.3536H96.7923L96.8103 22.437C96.8103 21.4416 96.786 20.5353 96.7383 19.7181H98.4096L98.4798 21.3705H98.5329C98.7354 20.8026 99.0549 20.3454 99.4923 20.0025C99.9198 19.6938 100.381 19.5399 100.879 19.5399C101.056 19.5399 101.217 19.5525 101.359 19.575V21.4047Z" fill="white"/>
<path d="M109.941 23.6268C109.941 23.9706 109.918 24.2604 109.871 24.4971H104.114C104.137 25.3503 104.415 26.0028 104.949 26.4528C105.435 26.8551 106.062 27.0567 106.832 27.0567C107.685 27.0567 108.462 26.9208 109.161 26.6481L109.462 27.9801C108.645 28.3365 107.68 28.5138 106.567 28.5138C105.228 28.5138 104.176 28.1196 103.411 27.3321C102.648 26.5446 102.266 25.4871 102.266 24.1605C102.266 22.8582 102.621 21.7737 103.333 20.9088C104.078 19.9854 105.085 19.5237 106.353 19.5237C107.597 19.5237 108.54 19.9854 109.179 20.9088C109.686 21.6423 109.941 22.5495 109.941 23.6268ZM108.111 23.1291C108.124 22.5603 107.999 22.0689 107.739 21.654C107.406 21.1203 106.896 20.8539 106.209 20.8539C105.582 20.8539 105.072 21.114 104.682 21.636C104.363 22.0509 104.173 22.5486 104.114 23.1282H108.111V23.1291Z" fill="white"/>
<path d="M44.1452 9.00811C44.1452 10.0674 43.8275 10.8648 43.193 11.4003C42.6053 11.8944 41.7701 12.1419 40.6883 12.1419C40.1519 12.1419 39.6929 12.1185 39.3086 12.0717V6.28381C39.8099 6.20281 40.3499 6.16141 40.9331 6.16141C41.9636 6.16141 42.7403 6.38551 43.2641 6.83371C43.8509 7.34041 44.1452 8.06491 44.1452 9.00811ZM43.1507 9.03421C43.1507 8.34751 42.9689 7.82101 42.6053 7.45381C42.2417 7.08751 41.7107 6.90391 41.0114 6.90391C40.7144 6.90391 40.4615 6.92371 40.2518 6.96511V11.3652C40.3679 11.3832 40.5803 11.3913 40.889 11.3913C41.6108 11.3913 42.1679 11.1906 42.5603 10.7892C42.9527 10.3878 43.1507 9.80281 43.1507 9.03421Z" fill="white"/>
<path d="M49.418 9.93328C49.418 10.5858 49.2317 11.1204 48.8591 11.5398C48.4685 11.9709 47.951 12.186 47.3048 12.186C46.682 12.186 46.1861 11.9799 45.8162 11.5659C45.4472 11.1528 45.2627 10.6317 45.2627 10.0035C45.2627 9.34648 45.4526 8.80738 45.8342 8.38888C46.2158 7.97038 46.7288 7.76068 47.375 7.76068C47.9978 7.76068 48.4982 7.96678 48.8771 8.37988C49.2371 8.78128 49.418 9.29968 49.418 9.93328ZM48.4397 9.96388C48.4397 9.57238 48.3551 9.23668 48.1868 8.95678C47.9888 8.61838 47.7071 8.44918 47.3408 8.44918C46.9619 8.44918 46.6739 8.61838 46.4759 8.95678C46.3067 9.23668 46.223 9.57778 46.223 9.98098C46.223 10.3725 46.3076 10.7082 46.4759 10.9881C46.6802 11.3265 46.9646 11.4957 47.3318 11.4957C47.6918 11.4957 47.9744 11.3238 48.1778 10.9791C48.3524 10.6938 48.4397 10.3554 48.4397 9.96388Z" fill="white"/>
<path d="M56.4888 7.84708L55.1613 12.0897H54.2973L53.7474 10.2474C53.6079 9.78748 53.4945 9.33028 53.4063 8.87668H53.3892C53.3073 9.34288 53.1939 9.79918 53.0481 10.2474L52.464 12.0897H51.5901L50.3418 7.84708H51.3111L51.7908 9.86398C51.9069 10.341 52.0023 10.7955 52.0788 11.2257H52.0959C52.1661 10.8711 52.2822 10.4193 52.446 9.87298L53.0481 7.84798H53.8167L54.3936 9.82978C54.5331 10.3131 54.6465 10.7784 54.7338 11.2266H54.7599C54.8238 10.7901 54.9201 10.3248 55.0479 9.82978L55.5627 7.84798H56.4888V7.84708Z" fill="white"/>
<path d="M61.378 12.0897H60.4348V9.6597C60.4348 8.9109 60.1504 8.5365 59.5798 8.5365C59.2999 8.5365 59.074 8.6391 58.8985 8.8452C58.7248 9.0513 58.6366 9.2943 58.6366 9.5724V12.0888H57.6934V9.0594C57.6934 8.6868 57.6817 8.2827 57.6592 7.8453H58.4881L58.5322 8.5086H58.5583C58.6681 8.3025 58.8319 8.1324 59.047 7.9965C59.3026 7.8381 59.5888 7.758 59.902 7.758C60.298 7.758 60.6274 7.8858 60.8893 8.1423C61.2151 8.4564 61.378 8.9253 61.378 9.5481V12.0897Z" fill="white"/>
<path d="M63.9794 12.0897H63.0371V5.90039H63.9794V12.0897Z" fill="white"/>
<path d="M69.5323 9.93328C69.5323 10.5858 69.346 11.1204 68.9734 11.5398C68.5828 11.9709 68.0644 12.186 67.4191 12.186C66.7954 12.186 66.2995 11.9799 65.9305 11.5659C65.5615 11.1528 65.377 10.6317 65.377 10.0035C65.377 9.34648 65.5669 8.80738 65.9485 8.38888C66.3301 7.97038 66.8431 7.76068 67.4884 7.76068C68.1121 7.76068 68.6116 7.96678 68.9914 8.37988C69.3514 8.78128 69.5323 9.29968 69.5323 9.93328ZM68.5531 9.96388C68.5531 9.57238 68.4685 9.23668 68.3002 8.95678C68.1031 8.61838 67.8205 8.44918 67.4551 8.44918C67.0753 8.44918 66.7873 8.61838 66.5902 8.95678C66.421 9.23668 66.3373 9.57778 66.3373 9.98098C66.3373 10.3725 66.4219 10.7082 66.5902 10.9881C66.7945 11.3265 67.0789 11.4957 67.4461 11.4957C67.8061 11.4957 68.0878 11.3238 68.2912 10.9791C68.4667 10.6938 68.5531 10.3554 68.5531 9.96388Z" fill="white"/>
<path d="M74.0973 12.0897H73.2504L73.1802 11.601H73.1541C72.8643 11.9907 72.4512 12.186 71.9148 12.186C71.5143 12.186 71.1903 12.0573 70.9464 11.8017C70.725 11.5695 70.6143 11.2806 70.6143 10.9377C70.6143 10.4193 70.8303 10.0242 71.265 9.75058C71.6988 9.47698 72.309 9.34288 73.0947 9.34918V9.26998C73.0947 8.71108 72.8013 8.43208 72.2136 8.43208C71.7951 8.43208 71.4261 8.53738 71.1075 8.74618L70.9158 8.12698C71.31 7.88308 71.7969 7.76068 72.3711 7.76068C73.4799 7.76068 74.0361 8.34568 74.0361 9.51568V11.0781C74.0361 11.502 74.0568 11.8395 74.0973 12.0897ZM73.1181 10.6317V9.97738C72.0777 9.95938 71.5575 10.2447 71.5575 10.8324C71.5575 11.0538 71.6169 11.2194 71.7384 11.3301C71.8599 11.4408 72.0147 11.4957 72.1992 11.4957C72.4062 11.4957 72.5997 11.43 72.7761 11.2995C72.9534 11.1681 73.0623 11.0016 73.1028 10.7973C73.1127 10.7514 73.1181 10.6956 73.1181 10.6317Z" fill="white"/>
<path d="M79.4562 12.0897H78.6192L78.5751 11.4084H78.549C78.2817 11.9268 77.8263 12.186 77.1864 12.186C76.6752 12.186 76.2495 11.9853 75.912 11.5839C75.5745 11.1825 75.4062 10.6614 75.4062 10.0215C75.4062 9.33479 75.5889 8.77859 75.9561 8.35379C76.3116 7.95779 76.7472 7.75979 77.2656 7.75979C77.8353 7.75979 78.234 7.95149 78.4608 8.33579H78.4788V5.90039H79.4229V10.9467C79.4229 11.3598 79.4337 11.7405 79.4562 12.0897ZM78.4788 10.3005V9.59309C78.4788 9.47069 78.4698 9.37169 78.4527 9.29609C78.3996 9.06929 78.2853 8.87849 78.1116 8.72459C77.9361 8.57069 77.7246 8.49329 77.4807 8.49329C77.1288 8.49329 76.8534 8.63279 76.6509 8.91269C76.4502 9.19259 76.3485 9.54989 76.3485 9.98639C76.3485 10.4058 76.4448 10.746 76.6383 11.0079C76.8426 11.2869 77.118 11.4264 77.4627 11.4264C77.7723 11.4264 78.0198 11.3103 78.2079 11.0772C78.3897 10.8621 78.4788 10.6029 78.4788 10.3005Z" fill="white"/>
<path d="M87.5235 9.93328C87.5235 10.5858 87.3372 11.1204 86.9646 11.5398C86.574 11.9709 86.0574 12.186 85.4103 12.186C84.7884 12.186 84.2925 11.9799 83.9217 11.5659C83.5527 11.1528 83.3682 10.6317 83.3682 10.0035C83.3682 9.34648 83.5581 8.80738 83.9397 8.38888C84.3213 7.97038 84.8343 7.76068 85.4814 7.76068C86.1033 7.76068 86.6046 7.96678 86.9826 8.37988C87.3426 8.78128 87.5235 9.29968 87.5235 9.93328ZM86.5461 9.96388C86.5461 9.57238 86.4615 9.23668 86.2932 8.95678C86.0943 8.61838 85.8135 8.44918 85.4463 8.44918C85.0683 8.44918 84.7803 8.61838 84.5814 8.95678C84.4122 9.23668 84.3285 9.57778 84.3285 9.98098C84.3285 10.3725 84.4131 10.7082 84.5814 10.9881C84.7857 11.3265 85.0701 11.4957 85.4373 11.4957C85.7973 11.4957 86.0808 11.3238 86.2842 10.9791C86.4579 10.6938 86.5461 10.3554 86.5461 9.96388Z" fill="white"/>
<path d="M92.5948 12.0897H91.6525V9.6597C91.6525 8.9109 91.3682 8.5365 90.7967 8.5365C90.5168 8.5365 90.2908 8.6391 90.1162 8.8452C89.9416 9.0513 89.8543 9.2943 89.8543 9.5724V12.0888H88.9103V9.0594C88.9103 8.6868 88.8995 8.2827 88.877 7.8453H89.7049L89.7491 8.5086H89.7752C89.8859 8.3025 90.0497 8.1324 90.2639 7.9965C90.5203 7.8381 90.8057 7.758 91.1198 7.758C91.5149 7.758 91.8442 7.8858 92.1061 8.1423C92.4328 8.4564 92.5948 8.9253 92.5948 9.5481V12.0897Z" fill="white"/>
<path d="M98.9423 8.5536H97.9037V10.6146C97.9037 11.1384 98.0882 11.4003 98.4536 11.4003C98.6228 11.4003 98.7632 11.3859 98.8739 11.3562L98.8982 12.0717C98.7119 12.1419 98.4671 12.177 98.1656 12.177C97.793 12.177 97.5032 12.0636 97.2935 11.8368C97.0829 11.61 96.9785 11.2284 96.9785 10.6929V8.5536H96.3584V7.8471H96.9785V7.0695L97.9028 6.7905V7.8462H98.9414V8.5536H98.9423Z" fill="white"/>
<path d="M103.936 12.0897H102.991V9.67769C102.991 8.91719 102.707 8.53649 102.137 8.53649C101.7 8.53649 101.401 8.75699 101.237 9.19799C101.209 9.29069 101.193 9.40409 101.193 9.53729V12.0888H100.251V5.90039H101.193V8.45729H101.211C101.508 7.99199 101.934 7.75979 102.486 7.75979C102.876 7.75979 103.199 7.88759 103.456 8.14409C103.775 8.46359 103.936 8.93879 103.936 9.56699V12.0897Z" fill="white"/>
<path d="M109.086 9.76769C109.086 9.93689 109.074 10.0791 109.051 10.1952H106.223C106.235 10.6146 106.37 10.9341 106.632 11.1555C106.871 11.3535 107.18 11.4525 107.558 11.4525C107.977 11.4525 108.358 11.3859 108.702 11.2518L108.85 11.907C108.447 12.0816 107.974 12.1689 107.426 12.1689C106.769 12.1689 106.251 11.9754 105.877 11.5884C105.501 11.2014 105.314 10.6821 105.314 10.0305C105.314 9.39059 105.488 8.85779 105.838 8.43299C106.204 7.97939 106.698 7.75259 107.321 7.75259C107.932 7.75259 108.395 7.97939 108.708 8.43299C108.961 8.79299 109.086 9.23849 109.086 9.76769ZM108.186 9.52379C108.194 9.24389 108.131 9.00269 108.004 8.79929C107.84 8.53739 107.591 8.40599 107.253 8.40599C106.945 8.40599 106.694 8.53379 106.502 8.79029C106.346 8.99459 106.253 9.23849 106.223 9.52379H108.186Z" fill="white"/>
</g>
<defs>
<clipPath id="clip0_1074_3377">
<rect width="121.5" height="36" fill="white"/>
</clipPath>
</defs>
</svg>
