<svg width="122" height="36" viewBox="0 0 122 36" fill="none" xmlns="http://www.w3.org/2000/svg">
<path fill-rule="evenodd" clip-rule="evenodd" d="M117.48 36H4.52018C2.02892 36 0 33.9711 0 31.5V4.5C0 2.01995 2.02892 0 4.52018 0H117.48C119.969 0 122 2.01995 122 4.5V31.5C122 33.9711 119.969 36 117.48 36Z" fill="black"/>
<path fill-rule="evenodd" clip-rule="evenodd" d="M117.48 0.720449C119.569 0.720449 121.28 2.41945 121.28 4.5V31.5C121.28 33.5805 119.581 35.2796 117.48 35.2796H4.52018C2.43066 35.2796 0.720446 33.5805 0.720446 31.5V4.5C0.720446 2.41945 2.41944 0.720449 4.52018 0.720449H117.48ZM117.48 0H4.52018C2.02892 0 0 2.02893 0 4.5V31.5C0 33.98 2.02892 36 4.52018 36H117.48C119.969 36 122 33.98 122 31.5V4.5C122 2.02893 119.969 0 117.48 0Z" fill="#A6A6A6"/>
<path d="M64.2702 11.9087C63.4555 11.9087 62.7687 11.6237 62.2256 11.0626C61.6869 10.5172 61.3862 9.76532 61.3996 8.99774C61.3996 8.17854 61.6779 7.48503 62.2256 6.93515C62.7665 6.37406 63.4532 6.08902 64.2679 6.08902C65.0737 6.08902 65.7605 6.37406 66.3126 6.93515C66.8602 7.50298 67.1385 8.1965 67.1385 8.99774C67.1295 9.81918 66.8512 10.5127 66.3126 11.0603C65.7717 11.6259 65.0849 11.9087 64.2702 11.9087ZM40.0286 11.9087C39.2319 11.9087 38.5406 11.6282 37.975 11.0738C37.4139 10.5217 37.1289 9.82367 37.1289 8.99999C37.1289 8.1763 37.4139 7.47829 37.975 6.92618C38.5294 6.37181 39.2207 6.09126 40.0286 6.09126C40.4237 6.09126 40.8074 6.16982 41.1755 6.32917C41.5369 6.48403 41.8309 6.695 42.0486 6.95311L42.1025 7.01819L41.4942 7.6152L41.4314 7.54114C41.088 7.13266 40.6279 6.93291 40.0197 6.93291C39.4765 6.93291 39.003 7.12593 38.6124 7.50747C38.2197 7.89126 38.0199 8.394 38.0199 9.00223C38.0199 9.61046 38.2197 10.1132 38.6124 10.497C39.003 10.8785 39.4765 11.0716 40.0197 11.0716C40.5987 11.0716 41.0857 10.8785 41.465 10.497C41.6895 10.2726 41.8286 9.95834 41.878 9.56108H39.9276V8.72168H42.7152L42.7264 8.79799C42.7466 8.93939 42.7668 9.08527 42.7668 9.21993C42.7668 9.99425 42.5334 10.6204 42.071 11.0828C41.5458 11.6304 40.8591 11.9087 40.0286 11.9087ZM72.2602 11.7898H71.4006L68.7679 7.57705L68.7904 8.33565V11.7875H67.9308V6.21022H68.9116L68.9385 6.25286L71.414 10.2209L71.3916 9.46457V6.21022H72.2602V11.7898ZM57.8109 11.7898H56.94V7.04962H55.4296V6.21022H59.3191V7.04962H57.8086V11.7898H57.8109ZM54.7204 11.7898H53.8518V6.21022H54.7204V11.7898ZM49.8388 11.7898H48.9702V7.04962H47.4598V6.21022H51.3493V7.04962H49.8388V11.7898ZM46.9099 11.7808H43.5793V6.21022H46.9099V7.04962H44.4501V8.58029H46.6698V9.41071H44.4501V10.9414H46.9099V11.7808ZM62.863 10.4858C63.2512 10.874 63.7226 11.0693 64.2702 11.0693C64.8335 11.0693 65.2936 10.8785 65.6774 10.4858C66.059 10.1042 66.252 9.60372 66.252 8.99999C66.252 8.39625 66.059 7.8935 65.6797 7.5142C65.2914 7.12592 64.8178 6.93066 64.2724 6.93066C63.7091 6.93066 63.249 7.12144 62.8675 7.5142C62.4859 7.89575 62.2929 8.39625 62.2929 8.99999C62.2929 9.60372 62.4837 10.1065 62.863 10.4858Z" fill="white"/>
<path fill-rule="evenodd" clip-rule="evenodd" d="M61.3185 19.5801C59.1976 19.5801 57.4784 21.1893 57.4784 23.409C57.4784 25.6085 59.2088 27.2379 61.3185 27.2379C63.4394 27.2379 65.1586 25.6175 65.1586 23.409C65.1586 21.1893 63.4394 19.5801 61.3185 19.5801ZM61.3185 25.7207C60.1582 25.7207 59.1594 24.7601 59.1594 23.4C59.1594 22.0197 60.1604 21.0793 61.3185 21.0793C62.4789 21.0793 63.4776 22.0197 63.4776 23.4C63.4798 24.7691 62.4789 25.7207 61.3185 25.7207ZM52.9402 19.5801C50.8193 19.5801 49.1001 21.1893 49.1001 23.409C49.1001 25.6085 50.8305 27.2379 52.9402 27.2379C55.0612 27.2379 56.7804 25.6175 56.7804 23.409C56.7804 21.1893 55.0589 19.5801 52.9402 19.5801ZM52.9402 25.7207C51.7799 25.7207 50.7811 24.7601 50.7811 23.4C50.7811 22.0197 51.7821 21.0793 52.9402 21.0793C54.1006 21.0793 55.0993 22.0197 55.0993 23.4C55.0993 24.7691 54.1006 25.7207 52.9402 25.7207ZM42.9707 20.7494V22.3699H46.8602C46.7413 23.2788 46.4405 23.9499 45.9804 24.41C45.4103 24.9801 44.5305 25.5995 42.9797 25.5995C40.5894 25.5995 38.7198 23.6694 38.7198 21.2791C38.7198 18.8888 40.5894 16.9586 42.9797 16.9586C44.2702 16.9586 45.2106 17.4681 45.9086 18.119L47.0577 16.9698C46.0881 16.0407 44.7976 15.3292 42.9887 15.3292C39.7096 15.3292 36.958 18 36.958 21.2701C36.958 24.5492 39.7074 27.211 42.9887 27.211C44.7595 27.211 46.0881 26.632 47.1385 25.5412C48.2091 24.4706 48.548 22.9601 48.548 21.7414C48.548 21.3621 48.5188 21.021 48.4582 20.7314H42.9685C42.9707 20.7292 42.9707 20.7494 42.9707 20.7494ZM83.7488 22.0108C83.4279 21.1511 82.4583 19.5711 80.4698 19.5711C78.4992 19.5711 76.8608 21.122 76.8608 23.4C76.8608 25.5502 78.4813 27.229 80.6606 27.229C82.4112 27.229 83.4301 26.1584 83.8498 25.53L82.5503 24.6591C82.1194 25.2988 81.5202 25.7185 80.6696 25.7185C79.81 25.7185 79.2085 25.328 78.809 24.5581L83.9284 22.4372C83.9284 22.4394 83.7488 22.0108 83.7488 22.0108ZM78.5284 23.2901C78.488 21.811 79.6775 21.0591 80.5282 21.0591C81.1992 21.0591 81.7581 21.3891 81.9488 21.8694L78.5284 23.2901ZM74.3696 27H76.0506V15.7511H74.3696V27ZM71.609 20.4307H71.5484C71.1691 19.9796 70.4486 19.5711 69.5285 19.5711C67.6185 19.5711 65.8589 21.2521 65.8589 23.4113C65.8589 25.5614 67.6095 27.2222 69.5285 27.2222C70.4374 27.2222 71.1691 26.8115 71.5484 26.3514H71.609V26.9013C71.609 28.3624 70.8279 29.1502 69.5688 29.1502C68.5387 29.1502 67.899 28.4095 67.6387 27.7901L66.1776 28.4005C66.5973 29.4105 67.7172 30.6606 69.5666 30.6606C71.5372 30.6606 73.207 29.5003 73.207 26.6701V19.8H71.618V20.4307C71.6202 20.4307 71.609 20.4307 71.609 20.4307ZM69.6788 25.7207C68.5185 25.7207 67.5489 24.7512 67.5489 23.4113C67.5489 22.0601 68.5185 21.0816 69.6788 21.0816C70.8279 21.0816 71.719 22.0713 71.719 23.4113C71.7302 24.7512 70.8302 25.7207 69.6788 25.7207ZM91.6199 15.7511H87.6002V27H89.2812V22.7402H91.6221C93.4827 22.7402 95.3119 21.3913 95.3119 19.2501C95.3119 17.109 93.4894 15.7511 91.6199 15.7511ZM91.6693 21.1691H89.279V17.3087H91.6693C92.9284 17.3087 93.6398 18.3479 93.6398 19.2389C93.6398 20.121 92.9194 21.1691 91.6693 21.1691ZM102.05 19.5599C100.829 19.5599 99.5695 20.1008 99.0488 21.2791L100.539 21.8985C100.86 21.2791 101.448 21.0681 102.07 21.0681C102.941 21.0681 103.82 21.5888 103.841 22.518V22.6369C103.54 22.4664 102.88 22.206 102.09 22.206C100.481 22.206 98.849 23.0858 98.849 24.7354C98.849 26.2459 100.169 27.2155 101.639 27.2155C102.768 27.2155 103.389 26.706 103.778 26.1157H103.838V26.9866H105.459V22.6773C105.459 20.6708 103.968 19.5599 102.05 19.5599ZM101.839 25.7207C101.289 25.7207 100.519 25.4514 100.519 24.7601C100.519 23.8893 101.479 23.5594 102.299 23.5594C103.039 23.5594 103.389 23.7187 103.829 23.9387C103.708 24.9487 102.855 25.7118 101.839 25.7207ZM111.37 19.8L109.44 24.6793H109.38L107.38 19.8H105.571L108.572 26.6207L106.861 30.4115H108.612L113.229 19.8H111.37ZM96.2388 27H97.9199V15.7511H96.2388V27Z" fill="white"/>
<path fill-rule="evenodd" clip-rule="evenodd" d="M9.39021 6.78017C9.12987 7.06072 8.97949 7.4894 8.97949 8.0505V27.9515C8.97949 28.5126 9.12987 28.9413 9.39919 29.2106L9.46877 29.2712L20.6188 18.1211V17.8719L9.45979 6.71957L9.39021 6.78017Z" fill="url(#paint0_linear_1074_3409)"/>
<path fill-rule="evenodd" clip-rule="evenodd" d="M24.3293 21.8492L20.6104 18.1302V17.8699L24.3293 14.1509L24.4101 14.2003L28.8091 16.7006C30.0682 17.4098 30.0682 18.5814 28.8091 19.2996L24.4101 21.7998L24.3293 21.8492Z" fill="url(#paint1_linear_1074_3409)"/>
<path fill-rule="evenodd" clip-rule="evenodd" d="M24.41 21.7998L20.6103 18L9.39062 29.2197C9.80135 29.6596 10.4904 29.709 11.2602 29.2803L24.41 21.7998Z" fill="url(#paint2_linear_1074_3409)"/>
<path fill-rule="evenodd" clip-rule="evenodd" d="M24.41 14.2002L11.2602 6.73081C10.4904 6.29091 9.7991 6.35151 9.39062 6.79141L20.6103 17.9999L24.41 14.2002Z" fill="url(#paint3_linear_1074_3409)"/>
<path opacity="0.2" fill-rule="evenodd" clip-rule="evenodd" d="M24.3291 21.719L11.269 29.139C10.5396 29.5587 9.88869 29.5295 9.46899 29.148L9.39941 29.2175L9.46899 29.2781C9.88869 29.6574 10.5396 29.6888 11.269 29.2691L24.4188 21.7998L24.3291 21.719Z" fill="black"/>
<path opacity="0.12" fill-rule="evenodd" clip-rule="evenodd" d="M28.8084 19.1693L24.3174 21.719L24.3982 21.7998L28.7972 19.2995C29.4278 18.9404 29.7376 18.4691 29.7376 18C29.6994 18.4309 29.3785 18.8394 28.8084 19.1693Z" fill="black"/>
<path opacity="0.25" fill-rule="evenodd" clip-rule="evenodd" d="M11.2598 6.86118L28.8086 16.8308C29.3787 17.1517 29.6996 17.5714 29.749 18.0001C29.749 17.531 29.4393 17.0597 28.8086 16.7006L11.2598 6.73101C10.0007 6.01056 8.97949 6.61206 8.97949 8.05071V8.18089C8.97949 6.73999 10.0007 6.14971 11.2598 6.86118Z" fill="white"/>
<defs>
<linearGradient id="paint0_linear_1074_3409" x1="19.6187" y1="7.83579" x2="1.75819" y2="12.5947" gradientUnits="userSpaceOnUse">
<stop stop-color="#00A0FF"/>
<stop offset="0.00657" stop-color="#00A1FF"/>
<stop offset="0.2601" stop-color="#00BEFF"/>
<stop offset="0.5122" stop-color="#00D2FF"/>
<stop offset="0.7604" stop-color="#00DFFF"/>
<stop offset="1" stop-color="#00E3FF"/>
</linearGradient>
<linearGradient id="paint1_linear_1074_3409" x1="30.4511" y1="18.0001" x2="8.67392" y2="18.0001" gradientUnits="userSpaceOnUse">
<stop stop-color="#FFE000"/>
<stop offset="0.4087" stop-color="#FFBD00"/>
<stop offset="0.7754" stop-color="#FFA500"/>
<stop offset="1" stop-color="#FF9C00"/>
</linearGradient>
<linearGradient id="paint2_linear_1074_3409" x1="22.3439" y1="20.0676" x2="8.00546" y2="44.2002" gradientUnits="userSpaceOnUse">
<stop stop-color="#FF3A44"/>
<stop offset="1" stop-color="#C31162"/>
</linearGradient>
<linearGradient id="paint3_linear_1074_3409" x1="6.56539" y1="0.160789" x2="12.9624" y2="10.9388" gradientUnits="userSpaceOnUse">
<stop stop-color="#32A071"/>
<stop offset="0.0685" stop-color="#2DA771"/>
<stop offset="0.4762" stop-color="#15CF74"/>
<stop offset="0.8009" stop-color="#06E775"/>
<stop offset="1" stop-color="#00F076"/>
</linearGradient>
</defs>
</svg>
