<svg width="12" height="12" viewBox="0 0 12 12" fill="none" xmlns="http://www.w3.org/2000/svg">
<path d="M8.98698 2.5C9.12304 2.5 9.25353 2.55405 9.34974 2.65026C9.44595 2.74647 9.5 2.87696 9.5 3.01302V7.11717C9.5 7.25323 9.44595 7.38372 9.34974 7.47993C9.25353 7.57614 9.12304 7.63019 8.98698 7.63019C8.85092 7.63019 8.72043 7.57614 8.62422 7.47993C8.52801 7.38372 8.47396 7.25323 8.47396 7.11717V4.25145L3.36942 9.35599C3.27266 9.44944 3.14307 9.50115 3.00856 9.49998C2.87405 9.49881 2.74538 9.44486 2.65026 9.34974C2.55514 9.25462 2.50119 9.12595 2.50002 8.99144C2.49885 8.85693 2.55056 8.72734 2.64401 8.63058L7.74855 3.52604H4.88283C4.74677 3.52604 4.61628 3.47199 4.52007 3.37578C4.42386 3.27957 4.36981 3.14908 4.36981 3.01302C4.36981 2.87696 4.42386 2.74647 4.52007 2.65026C4.61628 2.55405 4.74677 2.5 4.88283 2.5L8.98698 2.5Z" fill="white" fill-opacity="0.8"/>
</svg>
