<svg width="482" height="58" viewBox="0 0 482 58" fill="none" xmlns="http://www.w3.org/2000/svg">
<mask id="path-1-inside-1_1941_4478" fill="white">
<path fill-rule="evenodd" clip-rule="evenodd" d="M1.22689e-05 46.8608L6.16451e-07 6.30545C5.03558e-07 5.91253 0.318523 5.59401 0.711441 5.59401C1.10436 5.59401 1.42288 5.91253 1.42288 6.30545L1.42289 46.8608C1.42289 46.9402 1.45824 47.0155 1.51934 47.0662L12.8977 56.5155C12.9457 56.5553 13.0061 56.5771 13.0684 56.5771L469.542 56.5771L480.31 56.5771C480.458 56.5771 480.577 56.4576 480.577 56.3101L480.577 11.1392C480.577 11.0598 480.542 10.9845 480.481 10.9337L469.102 1.4845C469.054 1.44467 468.994 1.42289 468.931 1.42289L251.222 1.42291C250.83 1.42291 250.511 1.10438 250.511 0.711467C250.511 0.318549 250.83 2.58793e-05 251.222 2.5884e-05L468.931 5.59195e-06C469.326 5.59665e-06 469.708 0.137915 470.011 0.389852L481.39 9.83911C481.776 10.1602 482 10.6367 482 11.1392L482 56.3101C482 57.2434 481.243 58 480.31 58L469.542 58L13.0684 58C12.674 58 12.2921 57.8621 11.9887 57.6101L0.610292 48.1609C0.223677 47.8398 1.24103e-05 47.3633 1.22689e-05 46.8608Z"/>
</mask>
<path d="M1.22689e-05 46.8608L1.00001 46.8608L1.22689e-05 46.8608ZM1.42289 46.8608L2.42289 46.8608L1.42289 46.8608ZM1.51934 47.0662L2.15822 46.2969L2.15821 46.2969L1.51934 47.0662ZM12.8977 56.5155L12.2589 57.2848L12.2589 57.2848L12.8977 56.5155ZM13.0684 56.5771L13.0684 57.5771L13.0684 56.5771ZM469.542 56.5771L469.542 55.5771L469.542 56.5771ZM480.481 10.9337L481.12 10.1644L481.12 10.1644L480.481 10.9337ZM469.102 1.4845L468.463 2.25375L468.463 2.25381L469.102 1.4845ZM468.931 1.42289L468.931 0.422888L468.931 1.42289ZM468.931 5.59195e-06L468.931 -0.999994L468.931 5.59195e-06ZM470.011 0.389852L469.372 1.15916V1.15917L470.011 0.389852ZM481.39 9.83911L480.751 10.6084L480.751 10.6084L481.39 9.83911ZM480.31 58L480.31 57L480.31 58ZM469.542 58L469.542 57L469.542 58ZM13.0684 58L13.0684 59L13.0684 58ZM11.9887 57.6101L11.3498 58.3795L11.3498 58.3795L11.9887 57.6101ZM0.610292 48.1609L-0.0285861 48.9302L-0.0285859 48.9302L0.610292 48.1609ZM251.222 1.42291L251.222 2.42291L251.222 1.42291ZM251.222 2.5884e-05L251.222 1.00003L251.222 2.5884e-05ZM-0.999999 6.30545L-0.999988 46.8608L1.00001 46.8608L1 6.30545L-0.999999 6.30545ZM2.42289 46.8608L2.42288 6.30545L0.422882 6.30545L0.422893 46.8608L2.42289 46.8608ZM2.15821 46.2969C2.32589 46.4362 2.42289 46.6428 2.42289 46.8608L0.422893 46.8608C0.422893 47.2376 0.590588 47.5948 0.880464 47.8355L2.15821 46.2969ZM13.5366 55.7462L2.15822 46.2969L0.880461 47.8355L12.2589 57.2848L13.5366 55.7462ZM13.0684 55.5771C13.2394 55.5771 13.4051 55.6369 13.5366 55.7462L12.2589 57.2848C12.4863 57.4737 12.7727 57.5771 13.0684 57.5771L13.0684 55.5771ZM469.542 55.5771L13.0684 55.5771L13.0684 57.5771L469.542 57.5771L469.542 55.5771ZM480.31 55.5771L469.542 55.5771L469.542 57.5771L480.31 57.5771L480.31 55.5771ZM479.577 56.3101C479.577 55.9053 479.905 55.5771 480.31 55.5771L480.31 57.5771C481.01 57.5771 481.577 57.0098 481.577 56.3101L479.577 56.3101ZM479.577 11.1392L479.577 56.3101L481.577 56.3101L481.577 11.1392L479.577 11.1392ZM479.842 11.703C479.674 11.5638 479.577 11.3571 479.577 11.1392L481.577 11.1392C481.577 10.7625 481.409 10.4052 481.12 10.1644L479.842 11.703ZM468.463 2.25381L479.842 11.7031L481.12 10.1644L469.741 0.715181L468.463 2.25381ZM468.931 2.42289C468.76 2.42289 468.595 2.36305 468.463 2.25375L469.741 0.715242C469.514 0.526293 469.227 0.422888 468.931 0.422888L468.931 2.42289ZM251.222 2.42291L468.931 2.42289L468.931 0.422888L251.222 0.422908L251.222 2.42291ZM468.931 -0.999994L251.222 -0.999974L251.222 1.00003L468.931 1.00001L468.931 -0.999994ZM470.65 -0.379458C470.167 -0.780478 469.559 -0.999994 468.931 -0.999994L468.931 1.00001C469.092 1.00001 469.248 1.05631 469.372 1.15916L470.65 -0.379458ZM482.029 9.0698L470.65 -0.379461L469.372 1.15917L480.751 10.6084L482.029 9.0698ZM483 11.1392C483 10.3393 482.644 9.58084 482.029 9.06979L480.751 10.6084C480.909 10.7395 481 10.934 481 11.1392L483 11.1392ZM483 56.3101L483 11.1392L481 11.1392L481 56.3101L483 56.3101ZM480.31 59C481.796 59 483 57.7957 483 56.3101L481 56.3101C481 56.6911 480.691 57 480.31 57L480.31 59ZM469.542 59L480.31 59L480.31 57L469.542 57L469.542 59ZM13.0684 59L469.542 59L469.542 57L13.0684 57L13.0684 59ZM11.3498 58.3795C11.8327 58.7805 12.4407 59 13.0684 59L13.0684 57C12.9074 57 12.7514 56.9437 12.6276 56.8408L11.3498 58.3795ZM-0.0285859 48.9302L11.3498 58.3795L12.6276 56.8408L1.24917 47.3916L-0.0285859 48.9302ZM-0.999988 46.8608C-0.999987 47.6607 -0.643973 48.4191 -0.0285861 48.9302L1.24917 47.3916C1.09133 47.2605 1.00001 47.0659 1.00001 46.8608L-0.999988 46.8608ZM251.222 0.422908C251.382 0.422908 251.511 0.5521 251.511 0.711467L249.511 0.711467C249.511 1.65667 250.277 2.42291 251.222 2.42291L251.222 0.422908ZM0.711441 6.59401C0.552073 6.59401 0.422882 6.46482 0.422882 6.30545L2.42288 6.30545C2.42288 5.36025 1.65664 4.59401 0.711441 4.59401L0.711441 6.59401ZM251.511 0.711467C251.511 0.870837 251.382 1.00003 251.222 1.00003L251.222 -0.999974C250.277 -0.999974 249.511 -0.233739 249.511 0.711467L251.511 0.711467ZM1 6.30545C1 6.46482 0.870808 6.59401 0.711441 6.59401L0.711441 4.59401C-0.233762 4.59401 -1 5.36025 -0.999999 6.30545L1 6.30545Z" fill="url(#paint0_angular_1941_4478)" mask="url(#path-1-inside-1_1941_4478)"/>
<defs>
<radialGradient id="paint0_angular_1941_4478" cx="0" cy="0" r="1" gradientUnits="userSpaceOnUse" gradientTransform="translate(269.176 33.1497) rotate(177.578) scale(354.652 98.6923)">
<stop offset="0.072983" stop-color="#724CE8"/>
<stop offset="0.389629" stop-color="#E6A5A5"/>
<stop offset="0.505868" stop-color="#C34C52"/>
<stop offset="0.992598" stop-color="#724CE8"/>
</radialGradient>
</defs>
</svg>
