<svg width="228" height="64" viewBox="0 0 228 64" fill="none" xmlns="http://www.w3.org/2000/svg">
<g clip-path="url(#clip0_352_161)">
<mask id="mask0_352_161" style="mask-type:luminance" maskUnits="userSpaceOnUse" x="0" y="0" width="228" height="64">
<path fill-rule="evenodd" clip-rule="evenodd" d="M1.51909 53.0673L12.8684 62.5153C12.9163 62.5552 12.9768 62.5771 13.0392 62.5771H211.289C211.681 62.5771 212 62.8956 212 63.2886C212 63.6815 212.319 64 212.711 64H226.314H226.31H215.572H13.0392C12.6442 64 12.2616 63.8616 11.958 63.6088L0.608734 54.1608C0.223048 53.8397 1.18668e-05 53.3638 1.17416e-05 52.862L0 16.7114C-1.27619e-07 16.3185 0.318523 16 0.711441 16C1.10436 16 1.42288 16.3185 1.42288 16.7114L1.42289 52.862C1.42289 52.9413 1.45814 53.0165 1.51909 53.0673ZM227.289 48C227.681 48 228 47.6815 228 47.2886V11.1379C228 10.6361 227.777 10.1602 227.391 9.83917L216.042 0.391144C215.738 0.138397 215.356 4.7e-09 214.961 0L16.7114 4.34123e-05C16.3185 4.34076e-05 16 0.318563 16 0.71148C16 1.1044 16.3185 1.42292 16.7114 1.42292L214.961 1.42288C215.023 1.42288 215.084 1.44475 215.132 1.48469L226.481 10.9327C226.542 10.9834 226.577 11.0586 226.577 11.1379V47.2886C226.577 47.6815 226.896 48 227.289 48Z" fill="white"/>
</mask>
<g mask="url(#mask0_352_161)">
<path d="M226.314 64L226.316 65L226.314 63V64ZM13.5082 61.7468L2.15889 52.2987L0.879291 53.8358L12.2286 63.2838L13.5082 61.7468ZM13.0392 61.5771C13.2106 61.5771 13.3765 61.6371 13.5082 61.7468L12.2286 63.2838C12.4562 63.4733 12.743 63.5771 13.0392 63.5771V61.5771ZM211.289 61.5771H13.0392V63.5771H211.289V61.5771ZM226.314 63H212.711V65H226.314V63ZM226.31 65C226.312 65 226.314 65 226.316 65L226.312 63C226.311 63 226.311 63 226.31 63V65ZM215.572 65H226.31V63H215.572V65ZM13.0392 65H215.572V63H13.0392V65ZM11.3182 64.3774C11.8015 64.7797 12.4104 65 13.0392 65V63C12.8779 63 12.7218 62.9435 12.5978 62.8403L11.3182 64.3774ZM-0.0310631 54.9293L11.3182 64.3774L12.5978 62.8403L1.24853 53.3923L-0.0310631 54.9293ZM-0.999989 52.862C-0.999988 53.6608 -0.644973 54.4183 -0.0310631 54.9293L1.24853 53.3923C1.09107 53.2612 1.00001 53.0669 1.00001 52.862H-0.999989ZM-1 16.7114L-0.999989 52.862H1.00001L0.999999 16.7114H-1ZM2.42289 52.862L2.42288 16.7114H0.422883L0.422892 52.862H2.42289ZM2.15889 52.2987C2.32616 52.438 2.42289 52.6444 2.42289 52.862H0.422892C0.422892 53.2383 0.590118 53.5951 0.879291 53.8358L2.15889 52.2987ZM229 47.2886V11.1379H227V47.2886H229ZM229 11.1379C229 10.3391 228.645 9.58169 228.031 9.07062L226.751 10.6077C226.909 10.7388 227 10.933 227 11.1379H229ZM228.031 9.07062L216.682 -0.377406L215.402 1.15969L226.751 10.6077L228.031 9.07062ZM216.682 -0.377406C216.198 -0.779696 215.589 -1 214.961 -1V0.999993C215.122 0.999993 215.278 1.05648 215.402 1.15969L216.682 -0.377406ZM214.961 -1L16.7114 -0.99996V1.00004L214.961 0.999993V-1ZM16.7114 2.42292L214.961 2.42288V0.422879L16.7114 0.422918V2.42292ZM214.961 2.42288C214.789 2.42288 214.623 2.3629 214.492 2.25319L215.771 0.716202C215.544 0.526604 215.257 0.422879 214.961 0.422879V2.42288ZM214.492 2.25319L225.841 11.7012L227.121 10.1642L215.771 0.716202L214.492 2.25319ZM225.841 11.7012C225.674 11.5619 225.577 11.3556 225.577 11.1379H227.577C227.577 10.7617 227.41 10.4049 227.121 10.1642L225.841 11.7012ZM225.577 11.1379V47.2886H227.577V11.1379H225.577ZM15 0.711477C15 1.65668 15.7662 2.42292 16.7114 2.42292V0.422918C16.8708 0.422918 17 0.552111 17 0.711477H15ZM16.7114 -0.99996C15.7662 -0.99996 15 -0.233732 15 0.711477H17C17 0.870852 16.8708 1.00004 16.7114 1.00004V-0.99996ZM225.577 47.2886C225.577 48.2338 226.343 49 227.289 49V47C227.448 47 227.577 47.1292 227.577 47.2886H225.577ZM211 63.2886C211 64.2338 211.766 65 212.711 65V63C212.871 63 213 63.1292 213 63.2886H211ZM227 47.2886C227 47.1292 227.129 47 227.289 47V49C228.234 49 229 48.2338 229 47.2886H227ZM0.999999 16.7114C0.999999 16.8708 0.870808 17 0.711441 17V15C-0.233762 15 -1 15.7662 -1 16.7114H0.999999ZM0.711441 17C0.552077 17 0.422883 16.8708 0.422883 16.7114H2.42288C2.42288 15.7662 1.65664 15 0.711441 15V17ZM211.289 63.5771C211.129 63.5771 211 63.4479 211 63.2886H213C213 62.3434 212.234 61.5771 211.289 61.5771V63.5771Z" fill="url(#paint0_radial_352_161)"/>
</g>
</g>
<defs>
<radialGradient id="paint0_radial_352_161" cx="0" cy="0" r="1" gradientUnits="userSpaceOnUse" gradientTransform="translate(127.328 39.2237) rotate(174.906) scale(168.276 98.0974)">
<stop offset="0.072983" stop-color="#724CE8"/>
<stop offset="0.389629" stop-color="#E6A5A5"/>
<stop offset="0.505868" stop-color="#C34C52"/>
<stop offset="0.992598" stop-color="#724CE8"/>
</radialGradient>
<clipPath id="clip0_352_161">
<rect width="228" height="64" fill="white"/>
</clipPath>
</defs>
</svg>
