<svg width="373" height="58" viewBox="0 0 373 58" fill="none" xmlns="http://www.w3.org/2000/svg">
<mask id="path-1-inside-1_2057_1526" fill="white">
<path fill-rule="evenodd" clip-rule="evenodd" d="M21 57.2886C21 57.6815 21.3185 58 21.7114 58L360.572 58L371.31 58C372.243 58 373 57.2434 373 56.3101L373 11.138C373 10.6361 372.777 10.1602 372.391 9.83917L361.042 0.391144C360.949 0.313771 360.849 0.247113 360.743 0.191861C360.367 -0.00452756 360 0.349812 360 0.774178L360 1.27991C360 1.36374 360.067 1.43107 360.132 1.4847L371.481 10.9327C371.542 10.9835 371.577 11.0587 371.577 11.138L371.577 56.3101C371.577 56.4576 371.458 56.5771 371.31 56.5771L360.572 56.5771L21.7114 56.5771C21.3185 56.5771 21 56.8956 21 57.2886ZM0.71145 36.7393C1.10437 36.7393 1.42289 36.4208 1.42289 36.0279L1.42288 1.68999C1.42288 1.5425 1.54245 1.42293 1.68995 1.42293L97.2886 1.42292C97.6815 1.42292 98 1.10439 98 0.711477C98 0.318559 97.6815 3.54971e-05 97.2886 3.54924e-05L1.68995 4.57965e-05C0.756616 4.57854e-05 6.8262e-07 0.75666 6.7149e-07 1.68999L9.62403e-06 36.0279C9.72647e-06 36.4208 0.318532 36.7393 0.71145 36.7393Z"/>
</mask>
<path d="M372.391 9.83917L373.031 9.07063L373.031 9.07062L372.391 9.83917ZM361.042 0.391144L360.402 1.15967L360.402 1.15969L361.042 0.391144ZM371.481 10.9327L372.121 10.1642L372.121 10.1642L371.481 10.9327ZM360.572 56.5771L360.572 55.5771L360.572 56.5771ZM1.42288 1.68999L0.42288 1.68999L1.42288 1.68999ZM1.68995 1.42293L1.68995 2.42293H1.68995L1.68995 1.42293ZM1.68995 4.57965e-05L1.68995 1.00005H1.68995L1.68995 4.57965e-05ZM6.7149e-07 1.68999L-0.999999 1.68999L6.7149e-07 1.68999ZM97.2886 3.54924e-05L97.2886 -0.999965L97.2886 3.54924e-05ZM97.2886 1.42292L97.2886 0.422918L97.2886 1.42292ZM360.743 0.191861L360.28 1.07834L360.743 0.191861ZM21.7114 59L360.572 59L360.572 57L21.7114 57L21.7114 59ZM360.572 59L371.31 59L371.31 57L360.572 57L360.572 59ZM371.31 59C372.796 59 374 57.7957 374 56.3101L372 56.3101C372 56.6911 371.691 57 371.31 57L371.31 59ZM374 56.3101L374 11.138L372 11.138L372 56.3101L374 56.3101ZM374 11.138C374 10.3392 373.645 9.58168 373.031 9.07063L371.751 10.6077C371.909 10.7388 372 10.9331 372 11.138L374 11.138ZM373.031 9.07062L361.682 -0.377403L360.402 1.15969L371.751 10.6077L373.031 9.07062ZM361.682 -0.37738C361.534 -0.50053 361.374 -0.606655 361.206 -0.694614L360.28 1.07834C360.323 1.10088 360.364 1.12807 360.402 1.15967L361.682 -0.37738ZM359 0.774178L359 1.27991L361 1.27991L361 0.774178L359 0.774178ZM359.492 2.25325L370.841 11.7013L372.121 10.1642L360.771 0.716153L359.492 2.25325ZM370.841 11.7012C370.674 11.562 370.577 11.3556 370.577 11.138L372.577 11.138C372.577 10.7617 372.41 10.4049 372.121 10.1642L370.841 11.7012ZM370.577 11.138L370.577 56.3101L372.577 56.3101L372.577 11.138L370.577 11.138ZM370.577 56.3101C370.577 55.9053 370.905 55.5771 371.31 55.5771L371.31 57.5771C372.01 57.5771 372.577 57.0098 372.577 56.3101L370.577 56.3101ZM371.31 55.5771L360.572 55.5771L360.572 57.5771L371.31 57.5771L371.31 55.5771ZM360.572 55.5771L21.7114 55.5771L21.7114 57.5771L360.572 57.5771L360.572 55.5771ZM2.42289 36.0279L2.42288 1.68999L0.42288 1.68999L0.42289 36.0279L2.42289 36.0279ZM2.42288 1.68999C2.42288 2.0948 2.09472 2.42293 1.68995 2.42293L1.68995 0.422928C0.990178 0.422928 0.42288 0.990196 0.42288 1.68999L2.42288 1.68999ZM1.68995 2.42293L97.2886 2.42292L97.2886 0.422918L1.68995 0.422928L1.68995 2.42293ZM97.2886 -0.999965L1.68995 -0.999954L1.68995 1.00005L97.2886 1.00004L97.2886 -0.999965ZM1.68995 -0.999954C0.204331 -0.999954 -0.999999 0.204376 -0.999999 1.68999L1 1.68999C1 1.30894 1.3089 1.00005 1.68995 1.00005L1.68995 -0.999954ZM-0.999999 1.68999L-0.99999 36.0279L1.00001 36.0279L1 1.68999L-0.999999 1.68999ZM-0.99999 36.0279C-0.99999 36.9731 -0.233755 37.7393 0.71145 37.7393L0.71145 35.7393C0.87082 35.7393 1.00001 35.8685 1.00001 36.0279L-0.99999 36.0279ZM99 0.711477C99 -0.233725 98.2338 -0.999964 97.2886 -0.999965L97.2886 1.00004C97.1292 1.00004 97 0.870843 97 0.711477L99 0.711477ZM0.42289 36.0279C0.42289 35.8685 0.552082 35.7393 0.71145 35.7393L0.71145 37.7393C1.65665 37.7393 2.42289 36.9731 2.42289 36.0279L0.42289 36.0279ZM97.2886 2.42292C98.2338 2.42292 99 1.65668 99 0.711477L97 0.711477C97 0.55211 97.1292 0.422918 97.2886 0.422918L97.2886 2.42292ZM359 1.27991C359 1.60129 359.131 1.84205 359.234 1.98309C359.332 2.11836 359.442 2.21151 359.492 2.2533L360.771 0.716095C360.757 0.704258 360.8 0.736935 360.849 0.804177C360.903 0.877182 361 1.04236 361 1.27991L359 1.27991ZM361.206 -0.694614C360.617 -1.00195 359.997 -0.861907 359.585 -0.513809C359.206 -0.194004 359 0.287789 359 0.774178L361 0.774178C361 0.836201 360.977 0.928639 360.875 1.01428C360.819 1.06158 360.729 1.11349 360.607 1.13064C360.478 1.14869 360.362 1.12112 360.28 1.07834L361.206 -0.694614ZM21.7114 55.5771C20.7662 55.5771 20 56.3434 20 57.2886L22 57.2886C22 57.4479 21.8708 57.5771 21.7114 57.5771L21.7114 55.5771ZM21.7114 57C21.8708 57 22 57.1292 22 57.2886L20 57.2886C20 58.2338 20.7662 59 21.7114 59L21.7114 57Z" fill="url(#paint0_angular_2057_1526)" mask="url(#path-1-inside-1_2057_1526)"/>
<defs>
<radialGradient id="paint0_angular_2057_1526" cx="0" cy="0" r="1" gradientUnits="userSpaceOnUse" gradientTransform="translate(208.304 35.5465) rotate(177.173) scale(274.539 89.1446)">
<stop offset="0.072983" stop-color="#724CE8"/>
<stop offset="0.389629" stop-color="#E6A5A5"/>
<stop offset="0.505868" stop-color="#C34C52"/>
<stop offset="0.992598" stop-color="#724CE8"/>
</radialGradient>
</defs>
</svg>
