<svg width="307" height="58" viewBox="0 0 307 58" fill="none" xmlns="http://www.w3.org/2000/svg">
<mask id="path-1-inside-1_201_2673" fill="white">
<path fill-rule="evenodd" clip-rule="evenodd" d="M1.51934 47.0662L12.8977 56.5155C12.9457 56.5553 13.0061 56.5771 13.0684 56.5771L91.2886 56.5771C91.6815 56.5771 92 56.8956 92 57.2886C92 57.6815 91.6815 58 91.2886 58L13.0684 58C12.674 58 12.2921 57.8621 11.9887 57.6101L0.610292 48.1609C0.223677 47.8398 1.26232e-05 47.3633 1.24818e-05 46.8608L6.7149e-07 1.68999C6.8262e-07 0.75666 0.756616 4.57854e-05 1.68995 4.57965e-05L306.289 2.27259e-05C306.681 2.27306e-05 307 0.318546 307 0.711464C307 1.10438 306.681 1.4229 306.289 1.4229L1.68995 1.42293C1.54245 1.42293 1.42288 1.5425 1.42288 1.68999L1.42289 46.8608C1.42289 46.9402 1.45824 47.0155 1.51934 47.0662Z"/>
</mask>
<path d="M12.8977 56.5155L12.2589 57.2848L12.2589 57.2848L12.8977 56.5155ZM1.51934 47.0662L2.15822 46.2969L2.15821 46.2969L1.51934 47.0662ZM13.0684 56.5771L13.0684 57.5771L13.0684 56.5771ZM11.9887 57.6101L11.3498 58.3795L11.3498 58.3795L11.9887 57.6101ZM0.610292 48.1609L-0.0285859 48.9302H-0.0285857L0.610292 48.1609ZM1.24818e-05 46.8608L-0.999988 46.8608L1.24818e-05 46.8608ZM6.7149e-07 1.68999L-0.999999 1.68999L6.7149e-07 1.68999ZM1.68995 4.57965e-05L1.68995 1.00005H1.68995L1.68995 4.57965e-05ZM1.68995 1.42293L1.68995 2.42293H1.68995L1.68995 1.42293ZM1.42288 1.68999L0.42288 1.68999L1.42288 1.68999ZM1.42289 46.8608L2.42289 46.8608L2.42289 46.8608L1.42289 46.8608ZM306.289 1.4229L306.289 2.4229L306.289 1.4229ZM306.289 2.27259e-05L306.289 -0.999977L306.289 2.27259e-05ZM13.5366 55.7462L2.15822 46.2969L0.880461 47.8355L12.2589 57.2848L13.5366 55.7462ZM13.0684 55.5771C13.2394 55.5771 13.405 55.6369 13.5366 55.7462L12.2589 57.2848C12.4863 57.4737 12.7727 57.5771 13.0684 57.5771L13.0684 55.5771ZM91.2886 55.5771L13.0684 55.5771L13.0684 57.5771L91.2886 57.5771L91.2886 55.5771ZM13.0684 59L91.2886 59L91.2886 57L13.0684 57L13.0684 59ZM11.3498 58.3795C11.8327 58.7805 12.4407 59 13.0684 59L13.0684 57C12.9074 57 12.7514 56.9437 12.6276 56.8408L11.3498 58.3795ZM-0.0285857 48.9302L11.3498 58.3795L12.6276 56.8408L1.24917 47.3916L-0.0285857 48.9302ZM-0.999988 46.8608C-0.999987 47.6607 -0.643973 48.4191 -0.0285859 48.9302L1.24917 47.3916C1.09133 47.2605 1.00001 47.0659 1.00001 46.8608L-0.999988 46.8608ZM-0.999999 1.68999L-0.999988 46.8608L1.00001 46.8608L1 1.68999L-0.999999 1.68999ZM1.68995 -0.999954C0.204331 -0.999954 -0.999999 0.204376 -0.999999 1.68999L1 1.68999C1 1.30894 1.3089 1.00005 1.68995 1.00005L1.68995 -0.999954ZM306.289 -0.999977L1.68995 -0.999954L1.68995 1.00005L306.289 1.00002L306.289 -0.999977ZM1.68995 2.42293L306.289 2.4229L306.289 0.422905L1.68995 0.422928L1.68995 2.42293ZM2.42288 1.68999C2.42288 2.0948 2.09472 2.42293 1.68995 2.42293L1.68995 0.422928C0.990178 0.422928 0.42288 0.990196 0.42288 1.68999L2.42288 1.68999ZM2.42289 46.8608L2.42288 1.68999L0.42288 1.68999L0.422893 46.8608L2.42289 46.8608ZM2.15821 46.2969C2.32589 46.4362 2.42289 46.6428 2.42289 46.8608L0.422893 46.8608C0.422893 47.2376 0.590588 47.5948 0.880464 47.8355L2.15821 46.2969ZM306 0.711464C306 0.55212 306.129 0.422905 306.289 0.422905L306.289 2.4229C307.234 2.4229 308 1.65664 308 0.711464L306 0.711464ZM306.289 1.00002C306.129 1.00002 306 0.87083 306 0.711464L308 0.711464C308 -0.233738 307.234 -0.999977 306.289 -0.999977L306.289 1.00002ZM91 57.2886C91 57.1292 91.1292 57 91.2886 57L91.2886 59C92.2338 59 93 58.2338 93 57.2886L91 57.2886ZM91.2886 57.5771C91.1292 57.5771 91 57.4479 91 57.2886L93 57.2886C93 56.3434 92.2338 55.5771 91.2886 55.5771L91.2886 57.5771Z" fill="url(#paint0_angular_201_2673)" mask="url(#path-1-inside-1_201_2673)"/>
<defs>
<radialGradient id="paint0_angular_201_2673" cx="0" cy="0" r="1" gradientUnits="userSpaceOnUse" gradientTransform="translate(325.021 33.1497) rotate(177.994) scale(428.111 98.72)">
<stop offset="0.072983" stop-color="#724CE8"/>
<stop offset="0.389629" stop-color="#E6A5A5"/>
<stop offset="0.505868" stop-color="#C34C52"/>
<stop offset="0.992598" stop-color="#724CE8"/>
</radialGradient>
</defs>
</svg>
