<svg width="269" height="58" viewBox="0 0 269 58" fill="none" xmlns="http://www.w3.org/2000/svg">
<mask id="path-1-inside-1_201_2680" fill="white">
<path fill-rule="evenodd" clip-rule="evenodd" d="M1.22667e-05 46.8608L6.1161e-07 6.71144C4.97548e-07 6.31852 0.318523 6 0.711441 6C1.10436 6 1.42288 6.31852 1.42288 6.71144L1.42289 46.8608C1.42289 46.9402 1.45824 47.0155 1.51934 47.0662L12.8977 56.5155C12.9457 56.5553 13.0061 56.5771 13.0684 56.5771L256.542 56.5771L267.31 56.5771C267.458 56.5771 267.577 56.4575 267.577 56.3101L267.577 11.1392C267.577 11.0598 267.542 10.9845 267.481 10.9337L256.102 1.48449C256.054 1.44467 255.994 1.42289 255.931 1.42289L164.711 1.4229C164.319 1.4229 164 1.10438 164 0.711458C164 0.318541 164.319 1.72183e-05 164.711 1.7223e-05L255.931 3.05195e-06C256.326 3.05666e-06 256.708 0.137912 257.011 0.38985L268.39 9.83911C268.776 10.1602 269 10.6367 269 11.1392L269 56.3101C269 57.2434 268.243 58 267.31 58L256.542 58L13.0684 58C12.674 58 12.2921 57.8621 11.9887 57.6101L0.610292 48.1609C0.223677 47.8398 1.24082e-05 47.3633 1.22667e-05 46.8608Z"/>
</mask>
<path d="M1.22667e-05 46.8608L1.00001 46.8608L1.22667e-05 46.8608ZM1.42289 46.8608L2.42289 46.8608L1.42289 46.8608ZM1.51934 47.0662L2.15822 46.2969L2.15821 46.2969L1.51934 47.0662ZM12.8977 56.5155L12.2589 57.2848L12.2589 57.2848L12.8977 56.5155ZM13.0684 56.5771L13.0684 57.5771L13.0684 56.5771ZM256.542 56.5771L256.542 55.5771L256.542 56.5771ZM267.481 10.9337L268.12 10.1644L268.12 10.1644L267.481 10.9337ZM256.102 1.48449L255.463 2.25378L255.463 2.25381L256.102 1.48449ZM255.931 1.42289L255.931 0.422885L255.931 1.42289ZM255.931 3.05195e-06L255.931 -0.999997L255.931 3.05195e-06ZM257.011 0.38985L256.372 1.15916V1.15916L257.011 0.38985ZM268.39 9.83911L267.751 10.6084L267.751 10.6084L268.39 9.83911ZM267.31 58L267.31 57L267.31 58ZM256.542 58L256.542 57L256.542 58ZM13.0684 58L13.0684 59L13.0684 58ZM11.9887 57.6101L11.3498 58.3795L11.3498 58.3795L11.9887 57.6101ZM0.610292 48.1609L-0.0285861 48.9302L-0.0285859 48.9302L0.610292 48.1609ZM164.711 1.4229L164.711 2.4229L164.711 1.4229ZM164.711 1.7223e-05L164.711 -0.999983L164.711 1.7223e-05ZM-0.999999 6.71144L-0.999988 46.8608L1.00001 46.8608L1 6.71144L-0.999999 6.71144ZM2.42289 46.8608L2.42288 6.71144L0.422882 6.71144L0.422893 46.8608L2.42289 46.8608ZM2.15821 46.2969C2.32589 46.4362 2.42289 46.6428 2.42289 46.8608L0.422893 46.8608C0.422893 47.2376 0.590588 47.5948 0.880464 47.8355L2.15821 46.2969ZM13.5366 55.7462L2.15822 46.2969L0.88046 47.8355L12.2589 57.2848L13.5366 55.7462ZM13.0684 55.5771C13.2394 55.5771 13.4051 55.6369 13.5366 55.7462L12.2589 57.2848C12.4863 57.4737 12.7727 57.5771 13.0684 57.5771L13.0684 55.5771ZM256.542 55.5771L13.0684 55.5771L13.0684 57.5771L256.542 57.5771L256.542 55.5771ZM267.31 55.5771L256.542 55.5771L256.542 57.5771L267.31 57.5771L267.31 55.5771ZM266.577 56.3101C266.577 55.9053 266.905 55.5771 267.31 55.5771L267.31 57.5771C268.01 57.5771 268.577 57.0098 268.577 56.3101L266.577 56.3101ZM266.577 11.1392L266.577 56.3101L268.577 56.3101L268.577 11.1392L266.577 11.1392ZM266.842 11.703C266.674 11.5638 266.577 11.3571 266.577 11.1392L268.577 11.1392C268.577 10.7625 268.409 10.4052 268.12 10.1644L266.842 11.703ZM255.463 2.25381L266.842 11.7031L268.12 10.1644L256.741 0.715179L255.463 2.25381ZM255.931 2.42289C255.76 2.42289 255.595 2.36305 255.463 2.25378L256.741 0.715209C256.514 0.526298 256.227 0.422885 255.931 0.422885L255.931 2.42289ZM164.711 2.4229L255.931 2.42289L255.931 0.422885L164.711 0.422899L164.711 2.4229ZM255.931 -0.999997L164.711 -0.999983L164.711 1.00002L255.931 1L255.931 -0.999997ZM257.65 -0.37946C257.167 -0.78048 256.559 -0.999997 255.931 -0.999997L255.931 1C256.092 1 256.248 1.0563 256.372 1.15916L257.65 -0.37946ZM269.029 9.06979L257.65 -0.379464L256.372 1.15916L267.751 10.6084L269.029 9.06979ZM270 11.1392C270 10.3393 269.644 9.58084 269.029 9.06979L267.751 10.6084C267.909 10.7395 268 10.934 268 11.1392L270 11.1392ZM270 56.3101L270 11.1392L268 11.1392L268 56.3101L270 56.3101ZM267.31 59C268.796 59 270 57.7957 270 56.3101L268 56.3101C268 56.6911 267.691 57 267.31 57L267.31 59ZM256.542 59L267.31 59L267.31 57L256.542 57L256.542 59ZM13.0684 59L256.542 59L256.542 57L13.0684 57L13.0684 59ZM11.3498 58.3795C11.8327 58.7805 12.4406 59 13.0684 59L13.0684 57C12.9074 57 12.7514 56.9437 12.6276 56.8408L11.3498 58.3795ZM-0.0285859 48.9302L11.3498 58.3795L12.6276 56.8408L1.24917 47.3916L-0.0285859 48.9302ZM-0.999988 46.8608C-0.999987 47.6607 -0.643973 48.4191 -0.0285861 48.9302L1.24917 47.3916C1.09133 47.2605 1.00001 47.0659 1.00001 46.8608L-0.999988 46.8608ZM164.711 0.422899C164.871 0.422899 165 0.552092 165 0.711458L163 0.711458C163 1.65666 163.766 2.4229 164.711 2.4229L164.711 0.422899ZM0.711441 7C0.552072 7 0.422882 6.87081 0.422882 6.71144L2.42288 6.71144C2.42288 5.76624 1.65665 5 0.711441 5L0.711441 7ZM165 0.711458C165 0.870829 164.871 1.00002 164.711 1.00002L164.711 -0.999983C163.766 -0.999983 163 -0.233747 163 0.711458L165 0.711458ZM1 6.71144C1 6.87081 0.870808 7 0.711441 7L0.711441 5C-0.233761 5 -1 5.76624 -0.999999 6.71144L1 6.71144Z" fill="url(#paint0_angular_201_2680)" mask="url(#path-1-inside-1_201_2680)"/>
<defs>
<radialGradient id="paint0_angular_201_2680" cx="0" cy="0" r="1" gradientUnits="userSpaceOnUse" gradientTransform="translate(150.225 33.1497) rotate(175.666) scale(198.318 98.498)">
<stop offset="0.072983" stop-color="#724CE8"/>
<stop offset="0.389629" stop-color="#E6A5A5"/>
<stop offset="0.505868" stop-color="#C34C52"/>
<stop offset="0.992598" stop-color="#724CE8"/>
</radialGradient>
</defs>
</svg>
