<svg width="316" height="58" viewBox="0 0 316 58" fill="none" xmlns="http://www.w3.org/2000/svg">
<mask id="path-1-inside-1_5116_8287" fill="white">
<path fill-rule="evenodd" clip-rule="evenodd" d="M2.01909 47.0673L13.3684 56.5153C13.4163 56.5552 13.4768 56.5771 13.5392 56.5771L143.289 56.5769C143.681 56.5769 144 56.8954 144 57.2883C144 57.6813 143.681 57.9998 143.289 57.9998L13.5392 58C13.1442 58 12.7616 57.8616 12.458 57.6089L1.10874 48.1609C0.723052 47.8398 0.500012 47.3639 0.500012 46.8621L0.500001 1.69049C0.500001 0.75716 1.25661 0.000545511 2.18995 0.000541707L24.2886 0.000500009C24.6815 0.000500014 25 0.319023 25 0.711941C25 1.10486 24.6815 1.42338 24.2886 1.42338L2.18995 1.42342C2.04245 1.42342 1.92288 1.543 1.92288 1.69049L1.92289 46.8621C1.92289 46.9414 1.95814 47.0166 2.01909 47.0673ZM287 57.2881C287 57.681 287.319 57.9995 287.711 57.9995L303.072 57.9995L313.81 57.9995C314.743 57.9995 315.5 57.2429 315.5 56.3096L315.5 11.1379C315.5 10.636 315.277 10.1601 314.891 9.83907L303.542 0.39114C303.238 0.138397 302.856 3.60556e-06 302.461 3.60084e-06L176.711 0.000230983C176.319 0.000230978 176 0.318754 176 0.711672C176 1.10459 176.319 1.42311 176.711 1.42311L302.461 1.42289C302.523 1.42289 302.583 1.44476 302.631 1.4847L313.981 10.9326C314.042 10.9834 314.077 11.0586 314.077 11.1379L314.077 56.3096C314.077 56.4571 313.958 56.5766 313.81 56.5766L303.072 56.5766L287.711 56.5767C287.319 56.5767 287 56.8952 287 57.2881Z"/>
</mask>
<path d="M13.3684 56.5153L12.7286 57.2839L12.7286 57.2839L13.3684 56.5153ZM2.01909 47.0673L1.3793 47.8359L1.3793 47.8359L2.01909 47.0673ZM13.5392 56.5771L13.5392 55.5771L13.5392 56.5771ZM13.5392 58L13.5392 59L13.5392 59L13.5392 58ZM12.458 57.6089L13.0978 56.8403L13.0978 56.8403L12.458 57.6089ZM1.10874 48.1609L0.468947 48.9294H0.468948L1.10874 48.1609ZM0.500012 46.8621L-0.499988 46.8621L0.500012 46.8621ZM0.500001 1.69049L-0.499999 1.69049L0.500001 1.69049ZM2.18995 0.000541707L2.18994 -0.999458L2.18994 -0.999458L2.18995 0.000541707ZM2.18995 1.42342L2.18995 2.42342L2.18995 2.42342L2.18995 1.42342ZM1.92288 1.69049L0.92288 1.69049L1.92288 1.69049ZM1.92289 46.8621L2.92289 46.8621L1.92289 46.8621ZM303.072 57.9995L303.072 56.9995L303.072 57.9995ZM314.891 9.83907L315.531 9.07053L315.531 9.07052L314.891 9.83907ZM303.542 0.39114L302.902 1.15967L302.902 1.15969L303.542 0.39114ZM302.461 3.60084e-06L302.461 -0.999996L302.461 3.60084e-06ZM302.461 1.42289L302.461 0.422886L302.461 1.42289ZM302.631 1.4847L301.992 2.25322L301.992 2.25325L302.631 1.4847ZM313.981 10.9326L314.621 10.1641L314.621 10.1641L313.981 10.9326ZM303.072 56.5766L303.072 55.5766L303.072 56.5766ZM176.711 0.000230983L176.711 -0.999769L176.711 0.000230983ZM24.2886 1.42338L24.2886 0.423382L24.2886 1.42338ZM24.2886 0.000500009L24.2886 1.0005L24.2886 0.000500009ZM176.711 1.42311L176.711 2.42311L176.711 1.42311ZM143.289 56.5769L143.289 57.5769L143.289 56.5769ZM14.0082 55.7468L2.65889 46.2988L1.3793 47.8359L12.7286 57.2839L14.0082 55.7468ZM13.5392 55.5771C13.7106 55.5771 13.8765 55.6371 14.0082 55.7468L12.7286 57.2839C12.9562 57.4734 13.243 57.5771 13.5392 57.5771L13.5392 55.5771ZM143.289 55.5769L13.5392 55.5771L13.5392 57.5771L143.289 57.5769L143.289 55.5769ZM13.5392 59L143.289 58.9998L143.289 56.9998L13.5392 57L13.5392 59ZM11.8182 58.3774C12.3015 58.7797 12.9104 59 13.5392 59L13.5392 57C13.3779 57 13.2218 56.9435 13.0978 56.8403L11.8182 58.3774ZM0.468948 48.9294L11.8182 58.3774L13.0978 56.8403L1.74854 47.3923L0.468948 48.9294ZM-0.499988 46.8621C-0.499988 47.6609 -0.144967 48.4184 0.468947 48.9294L1.74854 47.3923C1.59107 47.2613 1.50001 47.067 1.50001 46.8621L-0.499988 46.8621ZM-0.499999 1.69049L-0.499988 46.8621L1.50001 46.8621L1.5 1.69049L-0.499999 1.69049ZM2.18994 -0.999458C0.704328 -0.999451 -0.499999 0.204876 -0.499999 1.69049L1.5 1.69049C1.5 1.30944 1.8089 1.00054 2.18995 1.00054L2.18994 -0.999458ZM24.2886 -0.9995L2.18994 -0.999458L2.18995 1.00054L24.2886 1.0005L24.2886 -0.9995ZM2.18995 2.42342L24.2886 2.42338L24.2886 0.423382L2.18995 0.423424L2.18995 2.42342ZM2.92288 1.69049C2.92288 2.09528 2.59473 2.42342 2.18995 2.42342L2.18995 0.423424C1.49017 0.423424 0.92288 0.990711 0.92288 1.69049L2.92288 1.69049ZM2.92289 46.8621L2.92288 1.69049L0.92288 1.69049L0.922893 46.8621L2.92289 46.8621ZM2.65889 46.2988C2.82616 46.438 2.92289 46.6444 2.92289 46.8621L0.922893 46.8621C0.922893 47.2384 1.09012 47.5952 1.3793 47.8359L2.65889 46.2988ZM287.711 58.9995L303.072 58.9995L303.072 56.9995L287.711 56.9995L287.711 58.9995ZM303.072 58.9995L313.81 58.9995L313.81 56.9995L303.072 56.9995L303.072 58.9995ZM313.81 58.9995C315.296 58.9995 316.5 57.7952 316.5 56.3096L314.5 56.3096C314.5 56.6906 314.191 56.9995 313.81 56.9995L313.81 58.9995ZM316.5 56.3096L316.5 11.1379L314.5 11.1379L314.5 56.3096L316.5 56.3096ZM316.5 11.1379C316.5 10.3391 316.145 9.58159 315.531 9.07053L314.251 10.6076C314.409 10.7387 314.5 10.933 314.5 11.1379L316.5 11.1379ZM315.531 9.07052L304.182 -0.377411L302.902 1.15969L314.251 10.6076L315.531 9.07052ZM304.182 -0.377392C303.698 -0.779721 303.089 -0.999996 302.461 -0.999996L302.461 1C302.622 1 302.778 1.05651 302.902 1.15967L304.182 -0.377392ZM302.461 -0.999996L176.711 -0.999769L176.711 1.00023L302.461 1L302.461 -0.999996ZM176.711 2.42311L302.461 2.42289L302.461 0.422886L176.711 0.423113L176.711 2.42311ZM302.461 2.42289C302.289 2.42289 302.123 2.36287 301.992 2.25322L303.271 0.716179C303.044 0.526653 302.757 0.422886 302.461 0.422886L302.461 2.42289ZM301.992 2.25325L313.341 11.7012L314.621 10.1641L303.271 0.716148L301.992 2.25325ZM313.341 11.7011C313.174 11.5619 313.077 11.3555 313.077 11.1379L315.077 11.1379C315.077 10.7616 314.91 10.4048 314.621 10.1641L313.341 11.7011ZM313.077 11.1379L313.077 56.3096L315.077 56.3096L315.077 11.1379L313.077 11.1379ZM313.077 56.3096C313.077 55.9048 313.405 55.5766 313.81 55.5766L313.81 57.5766C314.51 57.5766 315.077 57.0093 315.077 56.3096L313.077 56.3096ZM313.81 55.5766L303.072 55.5766L303.072 57.5766L313.81 57.5766L313.81 55.5766ZM303.072 55.5766L287.711 55.5767L287.711 57.5767L303.072 57.5766L303.072 55.5766ZM176.711 -0.999769C175.766 -0.999769 175 -0.23353 175 0.711672L177 0.711672C177 0.871039 176.871 1.00023 176.711 1.00023L176.711 -0.999769ZM24 0.711941C24 0.552574 24.1292 0.423382 24.2886 0.423382L24.2886 2.42338C25.2338 2.42338 26 1.65714 26 0.711941L24 0.711941ZM287.711 56.9995C287.871 56.9995 288 57.1287 288 57.2881L286 57.2881C286 58.2333 286.766 58.9995 287.711 58.9995L287.711 56.9995ZM287.711 55.5767C286.766 55.5767 286 56.3429 286 57.2881L288 57.2881C288 57.4475 287.871 57.5766 287.711 57.5767L287.711 55.5767ZM24.2886 1.0005C24.1292 1.0005 24 0.871308 24 0.711941L26 0.711941C26 -0.233261 25.2338 -0.9995 24.2886 -0.9995L24.2886 1.0005ZM143 57.2883C143 57.129 143.129 56.9998 143.289 56.9998L143.289 58.9998C144.234 58.9998 145 58.2335 145 57.2883L143 57.2883ZM175 0.711672C175 1.65687 175.766 2.42311 176.711 2.42311L176.711 0.423113C176.871 0.423113 177 0.552305 177 0.711672L175 0.711672ZM143.289 57.5769C143.129 57.5769 143 57.4477 143 57.2883L145 57.2883C145 56.3431 144.234 55.5769 143.289 55.5769L143.289 57.5769Z" fill="url(#paint0_angular_5116_8287)" mask="url(#path-1-inside-1_5116_8287)"/>
<defs>
<radialGradient id="paint0_angular_5116_8287" cx="0" cy="0" r="1" gradientUnits="userSpaceOnUse" gradientTransform="translate(176.414 33.1497) rotate(176.297) scale(232.052 98.5743)">
<stop offset="0.072983" stop-color="#724CE8"/>
<stop offset="0.389629" stop-color="#E6A5A5"/>
<stop offset="0.505868" stop-color="#C34C52"/>
<stop offset="0.992598" stop-color="#724CE8"/>
</radialGradient>
</defs>
</svg>
