<svg width="389" height="59" viewBox="0 0 389 59" fill="none" xmlns="http://www.w3.org/2000/svg">
<mask id="path-1-inside-1_201_2893" fill="white">
<path fill-rule="evenodd" clip-rule="evenodd" d="M1.22667e-05 47.1838L6.1161e-07 7.0345C4.97548e-07 6.64158 0.318523 6.32306 0.711441 6.32306C1.10436 6.32306 1.42288 6.64158 1.42288 7.0345L1.42289 47.1838C1.42289 47.2633 1.45824 47.3386 1.51934 47.3893L12.8977 56.8386C12.9457 56.8784 13.0061 56.9002 13.0684 56.9002L376.542 56.9002L387.31 56.9002C387.458 56.9002 387.577 56.7806 387.577 56.6331L387.577 11.4623C387.577 11.3828 387.542 11.3075 387.481 11.2568L376.102 1.80755C376.054 1.76773 375.994 1.74595 375.931 1.74595L196.711 1.74597C196.319 1.74597 196 1.42744 196 1.03453C196 0.641608 196.319 0.323084 196.711 0.323084L375.931 0.323064C376.326 0.323064 376.708 0.460973 377.011 0.71291L388.39 10.1622C388.776 10.4832 389 10.9597 389 11.4623L389 56.6331C389 57.5664 388.243 58.3231 387.31 58.3231L376.542 58.3231L13.0684 58.3231C12.674 58.3231 12.2921 58.1851 11.9887 57.9332L0.610292 48.4839C0.223677 48.1629 1.24082e-05 47.6864 1.22667e-05 47.1838Z"/>
</mask>
<path d="M1.22667e-05 47.1838L1.00001 47.1838L1.22667e-05 47.1838ZM1.42289 47.1838L2.42289 47.1838L1.42289 47.1838ZM1.51934 47.3893L2.15822 46.62L2.15821 46.62L1.51934 47.3893ZM12.8977 56.8386L12.2589 57.6079L12.2589 57.6079L12.8977 56.8386ZM13.0684 56.9002L13.0684 57.9002L13.0684 56.9002ZM376.542 56.9002L376.542 55.9002L376.542 56.9002ZM387.577 56.6331L388.577 56.6331L387.577 56.6331ZM387.577 11.4623L386.577 11.4623L387.577 11.4623ZM387.481 11.2568L388.12 10.4875L388.12 10.4875L387.481 11.2568ZM376.102 1.80755L375.463 2.57678L375.463 2.57687L376.102 1.80755ZM375.931 1.74595L375.931 0.745946L375.931 1.74595ZM375.931 0.323064L375.931 -0.676936L375.931 0.323064ZM377.011 0.71291L376.372 1.48222V1.48222L377.011 0.71291ZM388.39 10.1622L387.751 10.9315L387.751 10.9315L388.39 10.1622ZM389 11.4623L388 11.4623L389 11.4623ZM389 56.6331L390 56.6331L389 56.6331ZM11.9887 57.9332L11.3498 58.7025L11.3498 58.7025L11.9887 57.9332ZM0.610292 48.4839L-0.0285861 49.2532L-0.0285859 49.2532L0.610292 48.4839ZM196.711 1.74597L196.711 0.745966L196.711 1.74597ZM196.711 0.323084L196.711 -0.676916L196.711 0.323084ZM-0.999999 7.0345L-0.999988 47.1838L1.00001 47.1838L1 7.0345L-0.999999 7.0345ZM2.42289 47.1838L2.42288 7.0345L0.422882 7.0345L0.422893 47.1838L2.42289 47.1838ZM2.15821 46.62C2.32589 46.7592 2.42289 46.9659 2.42289 47.1838L0.422893 47.1838C0.422893 47.5606 0.590588 47.9179 0.880464 48.1586L2.15821 46.62ZM13.5366 56.0693L2.15822 46.62L0.88046 48.1586L12.2589 57.6079L13.5366 56.0693ZM13.0684 55.9002C13.2394 55.9002 13.405 55.96 13.5366 56.0693L12.2589 57.6079C12.4863 57.7968 12.7727 57.9002 13.0684 57.9002L13.0684 55.9002ZM376.542 55.9002L13.0684 55.9002L13.0684 57.9002L376.542 57.9002L376.542 55.9002ZM387.31 55.9002L376.542 55.9002L376.542 57.9002L387.31 57.9002L387.31 55.9002ZM386.577 56.6331C386.577 56.2284 386.905 55.9002 387.31 55.9002L387.31 57.9002C388.01 57.9002 388.577 57.3329 388.577 56.6331L386.577 56.6331ZM386.577 11.4623L386.577 56.6331L388.577 56.6331L388.577 11.4623L386.577 11.4623ZM386.842 12.0261C386.674 11.8868 386.577 11.6801 386.577 11.4623L388.577 11.4623C388.577 11.0855 388.409 10.7283 388.12 10.4875L386.842 12.0261ZM375.463 2.57687L386.842 12.0261L388.12 10.4875L376.741 1.03824L375.463 2.57687ZM375.931 2.74595C375.76 2.74595 375.595 2.68613 375.463 2.57678L376.741 1.03833C376.514 0.849324 376.227 0.745946 375.931 0.745946L375.931 2.74595ZM196.711 2.74597L375.931 2.74595L375.931 0.745946L196.711 0.745966L196.711 2.74597ZM375.931 -0.676936L196.711 -0.676916L196.711 1.32308L375.931 1.32306L375.931 -0.676936ZM377.65 -0.0563996C377.167 -0.45742 376.559 -0.676936 375.931 -0.676936L375.931 1.32306C376.092 1.32306 376.248 1.37936 376.372 1.48222L377.65 -0.0563996ZM389.029 9.39285L377.65 -0.0564034L376.372 1.48222L387.751 10.9315L389.029 9.39285ZM390 11.4623C390 10.6623 389.644 9.9039 389.029 9.39285L387.751 10.9315C387.909 11.0626 388 11.2571 388 11.4623L390 11.4623ZM390 56.6331L390 11.4623L388 11.4623L388 56.6331L390 56.6331ZM387.31 59.3231C388.796 59.3231 390 58.1187 390 56.6331L388 56.6331C388 57.0142 387.691 57.3231 387.31 57.3231L387.31 59.3231ZM376.542 59.3231L387.31 59.3231L387.31 57.3231L376.542 57.3231L376.542 59.3231ZM13.0684 59.3231L376.542 59.3231L376.542 57.3231L13.0684 57.3231L13.0684 59.3231ZM11.3498 58.7025C11.8327 59.1035 12.4407 59.3231 13.0684 59.3231L13.0684 57.3231C12.9074 57.3231 12.7514 57.2667 12.6276 57.1639L11.3498 58.7025ZM-0.0285859 49.2532L11.3498 58.7025L12.6276 57.1639L1.24917 47.7146L-0.0285859 49.2532ZM-0.999988 47.1838C-0.999987 47.9838 -0.643973 48.7422 -0.0285861 49.2532L1.24917 47.7146C1.09133 47.5835 1.00001 47.389 1.00001 47.1838L-0.999988 47.1838ZM196.711 0.745966C196.871 0.745966 197 0.875159 197 1.03453L195 1.03453C195 1.97973 195.766 2.74597 196.711 2.74597L196.711 0.745966ZM0.711441 7.32306C0.552072 7.32306 0.422882 7.19387 0.422882 7.0345L2.42288 7.0345C2.42288 6.0893 1.65665 5.32306 0.711441 5.32306L0.711441 7.32306ZM197 1.03453C197 1.19388 196.871 1.32308 196.711 1.32308L196.711 -0.676916C195.766 -0.676916 195 0.0893311 195 1.03453L197 1.03453ZM1 7.0345C1 7.19387 0.870808 7.32306 0.711441 7.32306L0.711441 5.32306C-0.233761 5.32306 -1 6.0893 -0.999999 7.0345L1 7.0345Z" fill="url(#paint0_angular_201_2893)" mask="url(#path-1-inside-1_201_2893)"/>
<defs>
<radialGradient id="paint0_angular_201_2893" cx="0" cy="0" r="1" gradientUnits="userSpaceOnUse" gradientTransform="translate(217.239 33.4728) rotate(177) scale(286.36 98.6451)">
<stop offset="0.072983" stop-color="#724CE8"/>
<stop offset="0.389629" stop-color="#E6A5A5"/>
<stop offset="0.505868" stop-color="#C34C52"/>
<stop offset="0.992598" stop-color="#724CE8"/>
</radialGradient>
</defs>
</svg>
