<svg width="396" height="58" viewBox="0 0 396 58" fill="none" xmlns="http://www.w3.org/2000/svg">
<mask id="path-1-inside-1_5109_21344" fill="white">
<path fill-rule="evenodd" clip-rule="evenodd" d="M0.500005 46.8621L0.5 27.7114C0.5 27.3185 0.818523 27 1.21144 27C1.60436 27 1.92288 27.3185 1.92288 27.7114L1.92289 46.8621C1.92289 46.9414 1.95813 47.0166 2.01909 47.0673L13.3684 56.5153C13.4163 56.5552 13.4768 56.5771 13.5392 56.5771L204.289 56.5769C204.681 56.5769 205 56.8954 205 57.2883C205 57.6812 204.681 57.9997 204.289 57.9997L13.5392 58C13.1442 58 12.7616 57.8616 12.458 57.6089L1.10873 48.1609C0.723045 47.8398 0.500005 47.3639 0.500005 46.8621ZM379 57.2881C379 57.681 379.319 57.9995 379.711 57.9995L383.072 57.9995L393.81 57.9995C394.743 57.9995 395.5 57.2429 395.5 56.3096L395.5 11.1379C395.5 10.636 395.277 10.1601 394.891 9.83907L383.542 0.391141C383.238 0.138398 382.856 4.55955e-06 382.461 4.55483e-06L36.7114 0.000492528C36.3185 0.000492523 36 0.319016 36 0.711934C36 1.10485 36.3185 1.42337 36.7114 1.42337L382.461 1.42289C382.523 1.42289 382.583 1.44476 382.631 1.4847L393.981 10.9326C394.042 10.9834 394.077 11.0586 394.077 11.1379L394.077 56.3096C394.077 56.4571 393.958 56.5766 393.81 56.5766L383.072 56.5766L379.711 56.5766C379.319 56.5766 379 56.8952 379 57.2881Z"/>
</mask>
<path d="M0.500005 46.8621L-0.499995 46.8621L0.500005 46.8621ZM1.92289 46.8621L2.92289 46.8621L1.92289 46.8621ZM2.01909 47.0673L1.37929 47.8359L1.37929 47.8359L2.01909 47.0673ZM13.3684 56.5153L14.0081 55.7468L13.3684 56.5153ZM13.5392 56.5771L13.5392 55.5771L13.5392 55.5771L13.5392 56.5771ZM13.5392 58L13.5392 59L13.5392 59L13.5392 58ZM12.458 57.6089L13.0978 56.8403L12.458 57.6089ZM1.10873 48.1609L0.468941 48.9294H0.468941L1.10873 48.1609ZM383.072 57.9995L383.072 56.9995L383.072 57.9995ZM393.81 57.9995L393.81 58.9995L393.81 57.9995ZM394.891 9.83907L395.531 9.07053L395.531 9.07052L394.891 9.83907ZM383.542 0.391141L382.902 1.15967L382.902 1.15969L383.542 0.391141ZM382.461 4.55483e-06L382.461 -0.999995L382.461 4.55483e-06ZM382.461 1.42289L382.461 0.422887L382.461 1.42289ZM382.631 1.4847L381.992 2.25319L381.992 2.25325L382.631 1.4847ZM393.981 10.9326L394.621 10.1641L394.621 10.1641L393.981 10.9326ZM393.81 56.5766L393.81 57.5766L393.81 56.5766ZM383.072 56.5766L383.072 55.5766L383.072 56.5766ZM36.7114 0.000492528L36.7114 1.00049L36.7114 0.000492528ZM-0.5 27.7114L-0.499995 46.8621L1.50001 46.8621L1.5 27.7114L-0.5 27.7114ZM2.92289 46.8621L2.92288 27.7114L0.92288 27.7114L0.922886 46.8621L2.92289 46.8621ZM2.65888 46.2988C2.82615 46.438 2.92289 46.6444 2.92289 46.8621L0.922886 46.8621C0.922886 47.2384 1.09012 47.5952 1.37929 47.8359L2.65888 46.2988ZM14.0081 55.7468L2.65888 46.2988L1.37929 47.8359L12.7286 57.2839L14.0081 55.7468ZM13.5392 55.5771C13.7105 55.5771 13.8765 55.6371 14.0081 55.7468L12.7286 57.2839C12.9562 57.4734 13.243 57.5771 13.5392 57.5771L13.5392 55.5771ZM204.289 55.5769L13.5392 55.5771L13.5392 57.5771L204.289 57.5769L204.289 55.5769ZM13.5392 59L204.289 58.9997L204.289 56.9997L13.5392 57L13.5392 59ZM11.8182 58.3774C12.3015 58.7797 12.9104 59 13.5392 59L13.5392 57C13.3779 57 13.2217 56.9435 13.0978 56.8403L11.8182 58.3774ZM0.468941 48.9294L11.8182 58.3774L13.0978 56.8403L1.74853 47.3923L0.468941 48.9294ZM-0.499995 46.8621C-0.499995 47.6609 -0.144974 48.4184 0.468941 48.9294L1.74853 47.3923C1.59106 47.2613 1.50001 47.067 1.50001 46.8621L-0.499995 46.8621ZM379.711 58.9995L383.072 58.9995L383.072 56.9995L379.711 56.9995L379.711 58.9995ZM383.072 58.9995L393.81 58.9995L393.81 56.9995L383.072 56.9995L383.072 58.9995ZM393.81 58.9995C395.296 58.9995 396.5 57.7952 396.5 56.3096L394.5 56.3096C394.5 56.6906 394.191 56.9995 393.81 56.9995L393.81 58.9995ZM396.5 56.3096L396.5 11.1379L394.5 11.1379L394.5 56.3096L396.5 56.3096ZM396.5 11.1379C396.5 10.3391 396.145 9.58159 395.531 9.07053L394.251 10.6076C394.409 10.7387 394.5 10.933 394.5 11.1379L396.5 11.1379ZM395.531 9.07052L384.182 -0.37741L382.902 1.15969L394.251 10.6076L395.531 9.07052ZM384.182 -0.377391C383.698 -0.77972 383.089 -0.999995 382.461 -0.999995L382.461 1C382.622 1 382.778 1.05652 382.902 1.15967L384.182 -0.377391ZM382.461 -0.999995L36.7114 -0.999507L36.7114 1.00049L382.461 1L382.461 -0.999995ZM36.7114 2.42337L382.461 2.42289L382.461 0.422887L36.7114 0.423375L36.7114 2.42337ZM382.461 2.42289C382.289 2.42289 382.123 2.36289 381.992 2.25319L383.271 0.71621C383.044 0.526627 382.757 0.422887 382.461 0.422887L382.461 2.42289ZM381.992 2.25325L393.341 11.7012L394.621 10.1641L383.271 0.716149L381.992 2.25325ZM393.341 11.7011C393.174 11.5619 393.077 11.3555 393.077 11.1379L395.077 11.1379C395.077 10.7616 394.91 10.4049 394.621 10.1641L393.341 11.7011ZM393.077 11.1379L393.077 56.3096L395.077 56.3096L395.077 11.1379L393.077 11.1379ZM393.077 56.3096C393.077 55.9048 393.405 55.5766 393.81 55.5766L393.81 57.5766C394.51 57.5766 395.077 57.0093 395.077 56.3096L393.077 56.3096ZM393.81 55.5766L383.072 55.5766L383.072 57.5766L393.81 57.5766L393.81 55.5766ZM383.072 55.5766L379.711 55.5766L379.711 57.5766L383.072 57.5766L383.072 55.5766ZM35 0.711934C35 1.65714 35.7662 2.42337 36.7114 2.42337L36.7114 0.423375C36.8708 0.423375 37 0.552567 37 0.711934L35 0.711934ZM36.7114 -0.999507C35.7662 -0.999507 35 -0.233223 35 0.711934L37 0.711934C37 0.871254 36.8708 1.00049 36.7114 1.00049L36.7114 -0.999507ZM204 57.2883C204 57.1289 204.129 56.9997 204.289 56.9997L204.289 58.9997C205.234 58.9997 206 58.2335 206 57.2883L204 57.2883ZM379.711 56.9995C379.871 56.9995 380 57.1287 380 57.2881L378 57.2881C378 58.2333 378.766 58.9995 379.711 58.9995L379.711 56.9995ZM379.711 55.5766C378.766 55.5766 378 56.3429 378 57.2881L380 57.2881C380 57.4474 379.871 57.5766 379.711 57.5766L379.711 55.5766ZM204.289 57.5769C204.129 57.5769 204 57.4477 204 57.2883L206 57.2883C206 56.3431 205.234 55.5769 204.289 55.5769L204.289 57.5769ZM1.21144 28C1.05208 28 0.922881 27.8708 0.92288 27.7114L2.92288 27.7114C2.92288 26.7662 2.15664 26 1.21144 26L1.21144 28ZM1.5 27.7114C1.5 27.8708 1.37081 28 1.21144 28L1.21144 26C0.266239 26 -0.5 26.7662 -0.5 27.7114L1.5 27.7114Z" fill="url(#paint0_angular_5109_21344)" mask="url(#path-1-inside-1_5109_21344)"/>
<defs>
<radialGradient id="paint0_angular_5109_21344" cx="0" cy="0" r="1" gradientUnits="userSpaceOnUse" gradientTransform="translate(221.09 33.1497) rotate(177.045) scale(290.765 98.6492)">
<stop offset="0.072983" stop-color="#724CE8"/>
<stop offset="0.389629" stop-color="#E6A5A5"/>
<stop offset="0.505868" stop-color="#C34C52"/>
<stop offset="0.992598" stop-color="#724CE8"/>
</radialGradient>
</defs>
</svg>
