<svg width="491" height="58" viewBox="0 0 491 58" fill="none" xmlns="http://www.w3.org/2000/svg">
<mask id="path-1-inside-1_1941_4626" fill="white">
<path fill-rule="evenodd" clip-rule="evenodd" d="M1.5199 47.0639L12.9654 56.516C13.0132 56.5555 13.0734 56.5771 13.1355 56.5771L189.289 56.5771C189.681 56.5771 190 56.8956 190 57.2886C190 57.6815 189.681 58 189.289 58L13.1355 58C12.7427 58 12.3622 57.8632 12.0593 57.6131L0.613858 48.161C0.225116 47.8399 1.27005e-05 47.3621 1.25579e-05 46.8579L6.71491e-07 1.68995C6.82621e-07 0.756611 0.756616 -3.80567e-06 1.68995 -3.79454e-06L47.2886 -7.06548e-06C47.6815 -7.0608e-06 48 0.318516 48 0.711434C48 1.10435 47.6815 1.42288 47.2886 1.42288L1.68995 1.42288C1.54245 1.42288 1.42288 1.54245 1.42288 1.68995L1.42289 46.8579C1.42289 46.9376 1.45847 47.0131 1.5199 47.0639ZM489.5 56.9705C489.5 57.495 490.005 57.8904 490.382 57.5261C490.701 57.2188 490.899 56.7875 490.899 56.3101L490.899 11.142C490.899 10.6378 490.673 10.16 490.285 9.83895L478.839 0.386854C478.536 0.136763 478.156 -4.00744e-05 477.763 -4.00791e-05L442.711 -3.66824e-05C442.319 -3.66871e-05 442 0.318487 442 0.711404C442 1.10432 442.319 1.42285 442.711 1.42285L477.763 1.42284C477.825 1.42284 477.885 1.44447 477.933 1.48398L489.379 10.9361C489.44 10.9868 489.476 11.0623 489.476 11.142L489.476 51.9878C489.476 51.9946 489.481 52 489.488 52C489.495 52 489.5 52.0054 489.5 52.0122L489.5 56.9705Z"/>
</mask>
<path d="M12.9654 56.516L13.6022 55.7449L13.6022 55.7449L12.9654 56.516ZM1.5199 47.0639L0.883132 47.8349L0.883135 47.8349L1.5199 47.0639ZM13.1355 56.5771L13.1355 55.5771L13.1355 56.5771ZM13.1355 58L13.1355 57L13.1355 58ZM12.0593 57.6131L12.6961 56.842L12.6961 56.842L12.0593 57.6131ZM0.613858 48.161L1.25063 47.3899L1.25062 47.3899L0.613858 48.161ZM1.25579e-05 46.8579L-0.999987 46.8579L1.25579e-05 46.8579ZM6.71491e-07 1.68995L-0.999999 1.68995L6.71491e-07 1.68995ZM1.68995 -3.79454e-06L1.68995 0.999996H1.68995L1.68995 -3.79454e-06ZM1.68995 1.42288L1.68995 2.42288H1.68995L1.68995 1.42288ZM1.42288 1.68995L0.42288 1.68995L1.42288 1.68995ZM1.42289 46.8579L2.42289 46.8579L1.42289 46.8579ZM490.899 56.3101L491.899 56.3101L490.899 56.3101ZM490.899 11.142L489.899 11.142L490.899 11.142ZM490.285 9.83895L489.648 10.61L489.648 10.61L490.285 9.83895ZM478.839 0.386854L479.476 -0.384207L479.476 -0.384226L478.839 0.386854ZM477.763 -4.00791e-05L477.763 -1.00004L477.763 -4.00791e-05ZM477.763 1.42284L477.763 0.422842L477.763 1.42284ZM477.933 1.48398L478.57 0.712923V0.712919L477.933 1.48398ZM489.379 10.9361L490.015 10.165L490.015 10.165L489.379 10.9361ZM489.476 11.142L488.476 11.142L489.476 11.142ZM489.476 51.9878L490.476 51.9878L489.476 51.9878ZM442.711 1.42285L442.711 0.422845L442.711 1.42285ZM47.2886 1.42288L47.2886 2.42288L47.2886 1.42288ZM490.382 57.5261L491.077 58.2456L490.382 57.5261ZM442.711 -3.66824e-05L442.711 -1.00004L442.711 -3.66824e-05ZM47.2886 -7.06548e-06L47.2886 0.999993L47.2886 -7.06548e-06ZM13.6022 55.7449L2.15667 46.2928L0.883135 47.8349L12.3286 57.287L13.6022 55.7449ZM13.1355 55.5771C13.3058 55.5771 13.4708 55.6364 13.6022 55.7449L12.3286 57.287C12.5557 57.4745 12.841 57.5771 13.1355 57.5771L13.1355 55.5771ZM189.289 55.5771L13.1355 55.5771L13.1355 57.5771L189.289 57.5771L189.289 55.5771ZM13.1355 59L189.289 59L189.289 57L13.1355 57L13.1355 59ZM11.4226 58.3842C11.9046 58.7822 12.5103 59 13.1355 59L13.1355 57C12.9751 57 12.8198 56.9441 12.6961 56.842L11.4226 58.3842ZM-0.022909 48.932L11.4226 58.3842L12.6961 56.842L1.25063 47.3899L-0.022909 48.932ZM-0.999987 46.8579C-0.999987 47.6604 -0.641683 48.421 -0.0229082 48.932L1.25062 47.3899C1.09191 47.2589 1.00001 47.0638 1.00001 46.8579L-0.999987 46.8579ZM-0.999999 1.68995L-0.999987 46.8579L1.00001 46.8579L1 1.68995L-0.999999 1.68995ZM1.68995 -1C0.204331 -1 -0.999999 0.204327 -0.999999 1.68995L1 1.68995C1 1.3089 1.3089 0.999996 1.68995 0.999996L1.68995 -1ZM47.2886 -1.00001L1.68995 -1L1.68995 0.999996L47.2886 0.999993L47.2886 -1.00001ZM1.68995 2.42288L47.2886 2.42288L47.2886 0.422875L1.68995 0.422878L1.68995 2.42288ZM2.42288 1.68995C2.42288 2.09474 2.09473 2.42288 1.68995 2.42288L1.68995 0.422878C0.990174 0.422878 0.42288 0.990154 0.42288 1.68995L2.42288 1.68995ZM2.42289 46.8579L2.42288 1.68995L0.42288 1.68995L0.422893 46.8579L2.42289 46.8579ZM2.15667 46.2928C2.32527 46.432 2.42289 46.6393 2.42289 46.8579L0.422893 46.8579C0.422893 47.2359 0.591669 47.5942 0.883132 47.8349L2.15667 46.2928ZM491.077 58.2456C491.582 57.7576 491.899 57.0699 491.899 56.3101L489.899 56.3101C489.899 56.5052 489.819 56.6799 489.688 56.8066L491.077 58.2456ZM491.899 56.3101L491.899 11.142L489.899 11.142L489.899 56.3101L491.899 56.3101ZM491.899 11.142C491.899 10.3395 491.54 9.57889 490.921 9.06787L489.648 10.61C489.807 10.7411 489.899 10.9362 489.899 11.142L491.899 11.142ZM490.921 9.06788L479.476 -0.384207L478.202 1.15792L489.648 10.61L490.921 9.06788ZM479.476 -0.384226C478.994 -0.782286 478.388 -1.00004 477.763 -1.00004L477.763 0.99996C477.923 0.99996 478.079 1.05581 478.202 1.15793L479.476 -0.384226ZM477.763 -1.00004L442.711 -1.00004L442.711 0.999963L477.763 0.99996L477.763 -1.00004ZM442.711 2.42285L477.763 2.42284L477.763 0.422842L442.711 0.422845L442.711 2.42285ZM477.763 2.42284C477.593 2.42284 477.428 2.36354 477.296 2.25505L478.57 0.712919C478.343 0.525396 478.057 0.422842 477.763 0.422842L477.763 2.42284ZM477.296 2.25504L488.742 11.7071L490.015 10.165L478.57 0.712923L477.296 2.25504ZM488.742 11.7071C488.573 11.5679 488.476 11.3607 488.476 11.142L490.476 11.142C490.476 10.7639 490.307 10.4057 490.015 10.165L488.742 11.7071ZM488.476 11.142L488.476 51.9878L490.476 51.9878L490.476 11.142L488.476 11.142ZM488.5 52.0122L488.5 56.9705L490.5 56.9705L490.5 52.0122L488.5 52.0122ZM489.488 53C488.942 53 488.5 52.5577 488.5 52.0122L490.5 52.0122C490.5 51.4532 490.047 51 489.488 51L489.488 53ZM488.476 51.9878C488.476 52.5468 488.929 53 489.488 53L489.488 51C490.033 51 490.476 51.4423 490.476 51.9878L488.476 51.9878ZM441 0.711404C441 1.65661 441.766 2.42285 442.711 2.42285L442.711 0.422845C442.871 0.422845 443 0.552038 443 0.711404L441 0.711404ZM47 0.711434C47 0.552067 47.1292 0.422875 47.2886 0.422875L47.2886 2.42288C48.2338 2.42288 49 1.65664 49 0.711434L47 0.711434ZM489.688 56.8066C489.745 56.7508 489.862 56.6782 490.026 56.6685C490.18 56.6593 490.298 56.7108 490.365 56.7569C490.484 56.8381 490.5 56.9279 490.5 56.9705L488.5 56.9705C488.5 57.5375 488.769 58.0873 489.234 58.4063C489.475 58.5713 489.789 58.6861 490.144 58.665C490.509 58.6433 490.83 58.4835 491.077 58.2456L489.688 56.8066ZM442.711 -1.00004C441.766 -1.00004 441 -0.233798 441 0.711404L443 0.711404C443 0.870771 442.871 0.999963 442.711 0.999963L442.711 -1.00004ZM47.2886 0.999993C47.1292 0.999993 47 0.870801 47 0.711434L49 0.711434C49 -0.233768 48.2338 -1.00001 47.2886 -1.00001L47.2886 0.999993ZM189 57.2886C189 57.1292 189.129 57 189.289 57L189.289 59C190.234 59 191 58.2338 191 57.2886L189 57.2886ZM189.289 57.5771C189.129 57.5771 189 57.4479 189 57.2886L191 57.2886C191 56.3434 190.234 55.5771 189.289 55.5771L189.289 57.5771Z" fill="url(#paint0_angular_1941_4626)" mask="url(#path-1-inside-1_1941_4626)"/>
<defs>
<radialGradient id="paint0_angular_1941_4626" cx="0" cy="0" r="1" gradientUnits="userSpaceOnUse" gradientTransform="translate(274.145 35.5465) rotate(177.851) scale(361.131 89.1906)">
<stop offset="0.072983" stop-color="#724CE8"/>
<stop offset="0.389629" stop-color="#E6A5A5"/>
<stop offset="0.505868" stop-color="#C34C52"/>
<stop offset="0.992598" stop-color="#724CE8"/>
</radialGradient>
</defs>
</svg>
