<svg width="70" height="30" viewBox="0 0 70 30" fill="none" xmlns="http://www.w3.org/2000/svg">
<path fill-rule="evenodd" clip-rule="evenodd" d="M29.1842 0.262334C29.0865 0.413709 29.0071 0.429846 28.9133 0.317044C28.7301 0.0966653 27.9176 0.677272 27.7876 1.12141C27.7134 1.37452 27.705 1.31028 27.7538 0.866761L27.8191 0.273552L27.3542 0.391579C26.6742 0.564317 26.4771 0.582912 26.3602 0.485325C26.2093 0.35946 25.5314 0.464117 25.3875 0.635471C25.3073 0.73106 25.2491 0.71308 25.2185 0.582758C25.1809 0.423391 25.1027 0.421086 24.8226 0.570771C24.5846 0.697866 24.4112 0.70893 24.2778 0.605657C24.1286 0.489935 24.0311 0.528048 23.8665 0.766407C23.6871 1.02628 23.575 1.06025 23.2009 0.968651C22.9535 0.907947 22.7033 0.88136 22.6449 0.909484C22.5866 0.937454 22.2762 0.981714 21.9552 1.00769C21.0277 1.08284 21.0003 1.08868 21.0003 1.21239C21.0003 1.27709 20.8498 1.29784 20.6658 1.2588C20.3668 1.19518 20.3376 1.22253 20.3906 1.51591C20.4304 1.73629 20.4008 1.84417 20.3006 1.84417C20.2186 1.84417 20.1514 1.74044 20.1514 1.61365C20.1514 1.45997 20.0453 1.38313 19.8331 1.38313C19.6492 1.38313 19.5148 1.46427 19.5148 1.57523C19.5147 1.69387 19.3504 1.77517 19.0849 1.78792C18.5959 1.81128 18.4411 1.94883 18.669 2.15753C18.7747 2.25435 18.7823 2.30122 18.6925 2.30291C18.6196 2.30414 18.5598 2.40895 18.5598 2.53574C18.5598 2.66252 18.4882 2.76626 18.4007 2.76626C18.3131 2.76626 18.2415 2.66252 18.2415 2.53574C18.2415 2.40895 18.2893 2.30521 18.3476 2.30521C18.406 2.30521 18.4537 2.23606 18.4537 2.15153C18.4537 1.91978 18.1663 1.96712 18.1021 2.20932C18.0679 2.3381 17.9468 2.39343 17.7927 2.3507C17.5586 2.28601 17.5427 2.32166 17.5829 2.82035C17.6243 3.33349 17.8869 3.6928 18.0208 3.4194C18.0547 3.3504 18.2137 3.2817 18.3741 3.26695C18.5346 3.2522 18.7257 3.23222 18.7986 3.22254C18.8716 3.21286 19.0386 3.25266 19.1699 3.3109C19.3482 3.39005 19.4087 3.35486 19.4087 3.17213C19.4087 2.97311 19.4593 2.95544 19.6808 3.07746C20.0904 3.30291 20.4697 3.26418 20.4697 2.99678C20.4697 2.8534 20.5699 2.76626 20.735 2.76626C20.89 2.76626 21.0003 2.85462 21.0003 2.97864C21.0003 3.26972 21.8397 3.28816 21.9163 2.99878C21.9469 2.88352 22.0994 2.79284 22.2553 2.79715C22.7953 2.81221 22.9102 2.76518 22.9102 2.52897C22.9102 2.3985 22.9699 2.30291 23.0428 2.31674C23.1158 2.33042 23.2846 2.33349 23.4179 2.32335C23.6256 2.30783 23.6443 2.26157 23.5481 2.00139C23.4565 1.75335 23.4656 1.714 23.5975 1.78716C23.6864 1.83664 23.7591 1.97342 23.7591 2.09114C23.7591 2.20886 23.8256 2.30521 23.9069 2.30521C23.9881 2.30521 24.0818 2.40787 24.1152 2.53328C24.2039 2.8683 25.4835 2.77932 25.775 2.41786C25.9992 2.13985 26.2545 2.0521 26.154 2.2877C26.1221 2.36254 26.2159 2.4569 26.3625 2.49762C26.509 2.5382 26.655 2.51038 26.6869 2.43584C26.7187 2.36115 26.7892 2.33995 26.8435 2.38866C26.8978 2.43723 26.9423 2.40372 26.9423 2.31428C26.9423 2.22484 27.0406 2.15153 27.1607 2.15153C27.2808 2.15153 27.3497 2.22069 27.3136 2.30521C27.2733 2.39973 27.424 2.44998 27.7053 2.43584C28.0102 2.42048 28.0673 2.39174 27.8765 2.34963C27.6727 2.3046 27.6084 2.21915 27.6525 2.05241C27.6866 1.92378 27.7437 1.87614 27.7793 1.94652C27.8797 2.14493 28.3018 2.4589 28.4683 2.4589C28.5504 2.4589 28.8375 2.15814 29.1063 1.79038C29.4409 1.33272 29.5949 1.20117 29.5949 1.37314C29.5949 1.51115 29.4508 1.74751 29.2747 1.89811C28.9143 2.20655 28.9447 2.4589 29.3422 2.4589C29.5119 2.4589 29.5808 2.3965 29.5336 2.28585C29.4807 2.16183 29.5133 2.15614 29.6485 2.26572C29.8874 2.45936 30.2316 2.33595 30.2316 2.05671C30.2316 1.93992 30.2793 1.84417 30.3377 1.84417C30.396 1.84417 30.4438 1.93638 30.4438 2.04903C30.4438 2.37053 31.6935 2.3338 31.7535 2.01061C31.7906 1.81005 31.8007 1.81451 31.8109 2.03627C31.8251 2.34609 32.0405 2.39005 32.2264 2.1208C32.3229 1.98095 32.3537 1.98018 32.3537 2.11757C32.3537 2.31858 34.2172 2.30983 34.4403 2.10789C34.5082 2.04626 34.5881 2.08284 34.6178 2.18903C34.6592 2.33641 34.6972 2.32934 34.7791 2.15891C34.838 2.03612 34.863 1.88136 34.8347 1.81482C34.8064 1.74843 34.8572 1.73521 34.9478 1.78547C35.0384 1.83587 35.1125 1.95851 35.1125 2.05825C35.1125 2.25634 35.3152 2.30153 36.1205 2.28308C36.4123 2.27632 37.033 2.28662 37.4999 2.30583C38.9871 2.36715 39.0789 2.35993 39.1207 2.17858C39.149 2.05518 39.2101 2.07085 39.3198 2.22976C39.5195 2.51899 40.1765 2.52498 40.6446 2.24174C40.9537 2.05472 41.0318 2.05472 41.2083 2.24174C41.4589 2.50731 41.6777 2.53174 41.5001 2.27448C41.3269 2.02352 41.3401 1.84417 41.532 1.84417C41.6195 1.84417 41.6911 1.94791 41.6911 2.07469C41.6911 2.20148 41.7747 2.3109 41.8768 2.31766C41.9789 2.32458 42.2057 2.34655 42.3808 2.36653C42.5559 2.38651 42.7342 2.32904 42.7771 2.23882C42.8292 2.1291 42.8555 2.13832 42.8567 2.26679C42.8575 2.37253 42.9657 2.45782 43.097 2.45659C43.2631 2.4549 43.2939 2.41571 43.1981 2.32765C43.0875 2.22607 43.0912 2.16429 43.2172 2.01276C43.345 1.85923 43.3953 1.88198 43.4892 2.13586C43.5581 2.32227 43.6681 2.41202 43.7632 2.35916C43.8506 2.31059 43.9811 2.34102 44.0534 2.42678C44.2671 2.6805 44.6169 2.70448 44.8049 2.47841C44.919 2.34148 44.9804 2.32796 44.9804 2.44015C44.9804 2.62318 45.3233 2.67943 45.4369 2.51499C45.5896 2.29384 46.3505 2.30829 46.4377 2.53405C46.53 2.77302 46.9845 2.8391 47.6634 2.71232C47.8844 2.67098 48.2067 2.69603 48.3797 2.76779C48.5526 2.83972 48.6942 2.84279 48.6942 2.77471C48.6942 2.70663 48.8135 2.651 48.9594 2.651C49.1053 2.651 49.2247 2.73798 49.2247 2.84433C49.2247 3.07531 49.6243 3.25819 49.6725 3.04918C49.6908 2.96912 49.8842 2.8454 50.102 2.77425C50.4573 2.65822 50.498 2.67666 50.498 2.95329C50.498 3.22607 50.5436 3.24912 50.8959 3.15384C51.1148 3.09467 51.2567 3.10021 51.2115 3.16614C51.0926 3.3398 51.7987 3.65884 51.9475 3.4987C52.0196 3.42109 52.0992 3.43293 52.1395 3.52713C52.1772 3.61581 52.3884 3.68834 52.6087 3.68834C52.8289 3.68834 53.0436 3.73814 53.0856 3.79899C53.2044 3.97112 54.2489 3.97465 54.3974 3.8036C54.4927 3.69372 54.53 3.72308 54.53 3.90765C54.53 4.11312 54.6309 4.1626 55.034 4.15446C55.3112 4.14877 55.6985 4.18888 55.8947 4.24359C56.1253 4.30783 56.2791 4.27756 56.3301 4.15799C56.3907 4.01615 56.4437 4.02091 56.5572 4.17828C56.7723 4.47657 57.2557 4.76073 57.3401 4.63855C57.472 4.44737 57.9183 4.51561 57.9767 4.73599C58.0219 4.90642 58.0666 4.91334 58.1873 4.76826C58.3403 4.5843 58.6076 4.68696 58.5186 4.89535C58.4773 4.99202 58.7769 5.01338 59.1722 4.94177C59.2452 4.92855 59.3087 4.79669 59.3132 4.64885C59.3199 4.43385 59.334 4.42617 59.3835 4.61043C59.4175 4.73722 59.5165 4.91687 59.6035 5.00969C59.6905 5.10252 59.7304 5.25174 59.6922 5.34118C59.6493 5.44184 59.6999 5.47473 59.8252 5.42724C59.9365 5.38514 60.2011 5.46997 60.4132 5.61566C60.6255 5.7615 61.0358 5.88091 61.3252 5.88091C61.6146 5.88091 61.8514 5.94085 61.8514 6.014C61.8514 6.0873 61.923 6.14724 62.0106 6.14724C62.0981 6.14724 62.1697 6.07071 62.1697 5.97712C62.1697 5.88352 62.2414 5.84679 62.3289 5.89551C62.4164 5.94407 62.4881 5.91687 62.4881 5.83511C62.4881 5.59061 62.7785 5.66668 62.8481 5.92932C62.9433 6.28863 62.9364 6.30092 62.6397 6.30092C62.3804 6.30092 62.3759 6.31414 62.5515 6.56848C62.6832 6.75904 62.7488 6.78163 62.7798 6.64686C62.8094 6.51823 62.9351 6.58108 63.1723 6.84326C63.393 7.08715 63.5889 7.1912 63.7051 7.12665C63.8139 7.06625 63.9263 7.11205 63.9808 7.23899C64.0313 7.35702 64.1577 7.45368 64.2618 7.45368C64.3659 7.45384 64.457 7.54036 64.4643 7.64578C64.4716 7.75136 64.4835 7.89582 64.4908 7.96667C64.5278 8.32705 65.459 8.61351 65.459 8.2645C65.459 8.16123 65.5334 8.23054 65.6244 8.41849C65.7153 8.6066 65.7636 8.8216 65.7316 8.89629C65.6543 9.07763 65.869 9.30876 66.2313 9.43417C66.4069 9.49503 66.6429 9.78087 66.8149 10.1411C66.9737 10.4738 67.1625 10.7486 67.2343 10.7518C67.3061 10.7551 67.3975 10.9455 67.4373 11.1752C67.4771 11.4048 67.5976 11.7294 67.7051 11.8966C67.8379 12.103 67.8757 12.302 67.8229 12.5165C67.78 12.6902 67.7555 13.1048 67.7682 13.4377C67.7811 13.7707 67.7203 14.2004 67.6333 14.3928C67.5463 14.5852 67.4751 14.8487 67.4751 14.9785C67.4751 15.1082 67.4272 15.1971 67.3688 15.176C67.3103 15.1548 67.2021 15.3105 67.1282 15.5218C67.0543 15.7331 66.8872 15.9742 66.7569 16.0577C66.6267 16.1411 66.5201 16.3278 66.5201 16.4726C66.5201 16.6175 66.4526 16.7912 66.3702 16.8588C66.2876 16.9264 66.2041 17.1892 66.1845 17.4428C66.1585 17.7786 66.0907 17.9081 65.935 17.9195C65.6546 17.9401 65.1531 18.3263 64.8248 18.7744C64.6803 18.9718 64.5496 19.1179 64.5342 19.099C64.4557 19.0028 63.47 19.6444 63.2589 19.9292C63.1851 20.0288 63.1247 20.1925 63.1247 20.2928C63.1247 20.3973 63.0374 20.4423 62.9207 20.3981C62.8085 20.3557 62.5686 20.4513 62.3876 20.6108C62.2065 20.7701 61.9897 20.9006 61.9056 20.9006C61.8215 20.9006 61.5761 21.1253 61.3601 21.3998C61.1443 21.6744 60.88 21.8774 60.7728 21.8511C60.6357 21.8175 60.5781 21.898 60.5781 22.1233C60.5781 22.3932 60.5338 22.4271 60.2955 22.3405C60.0614 22.2555 60.0243 22.2814 60.0799 22.4912C60.1247 22.6607 60.0916 22.7448 59.9799 22.7448C59.8749 22.7448 59.8354 22.659 59.8738 22.5143C59.9153 22.3575 59.8681 22.2837 59.726 22.2837C59.6111 22.2837 59.5171 22.3414 59.5171 22.4118C59.5171 22.4823 59.4574 22.5516 59.3844 22.5661C58.2182 22.7964 57.6305 23.1216 57.5869 23.5608C57.5574 23.8591 57.5387 23.8682 57.3995 23.6512C57.2417 23.4055 57.2364 23.4062 56.3159 23.813C56.1018 23.9077 55.7477 24.0183 55.529 24.0588C55.3105 24.0993 55.0766 24.1986 55.0094 24.2793C54.9424 24.36 54.6041 24.4714 54.2578 24.5269C53.9085 24.5828 53.405 24.8 53.127 25.0148C52.7244 25.3256 52.5952 25.365 52.4705 25.2152C52.3571 25.0789 52.2583 25.0729 52.1034 25.1931C51.9868 25.2834 51.7284 25.3574 51.5292 25.3574C51.3302 25.3574 51.0192 25.4643 50.8382 25.5951C50.6356 25.7416 50.0937 25.8619 49.428 25.9083C48.8333 25.9498 48.2643 26.0477 48.1635 26.1259C48.0627 26.204 47.6514 26.2791 47.2496 26.293C46.8478 26.3068 46.3268 26.4105 46.092 26.5236C45.8572 26.6366 45.3558 26.7416 44.9779 26.7569C44.4968 26.7766 44.216 26.8691 44.0415 27.0658C43.8249 27.3097 43.7722 27.3177 43.64 27.1262C43.5292 26.9658 43.4175 26.9444 43.2296 27.0479C43.0876 27.1261 42.7908 27.1846 42.57 27.178C42.3492 27.1714 42.1208 27.1809 42.0625 27.1992C42.0041 27.2177 41.806 27.2209 41.6222 27.2066C41.4385 27.1923 41.2566 27.2546 41.2181 27.3448C41.1796 27.435 41.0374 27.5089 40.902 27.5089C40.7667 27.5089 40.5977 27.6106 40.5264 27.7351C40.4195 27.9217 40.3724 27.926 40.2577 27.76C40.0854 27.5103 38.8697 27.5725 38.6452 27.8425C38.5249 27.9872 38.4729 27.983 38.4047 27.8229C38.3395 27.6703 38.0199 27.6254 37.1385 27.6451C35.8496 27.6738 35.4325 27.8176 35.4276 28.235C35.4246 28.4877 35.4158 28.4866 35.3091 28.2204C35.2158 27.9879 35.1759 27.9733 35.1001 28.1436C35.0265 28.3088 34.9935 28.2867 34.9467 28.0403C34.9062 27.8273 34.787 27.7154 34.5754 27.6921C34.4039 27.6732 34.2636 27.7188 34.2636 27.7937C34.2636 27.8685 34.1204 27.9054 33.9453 27.8759C33.7702 27.8464 33.627 27.885 33.627 27.9616C33.627 28.161 33.3019 28.2369 32.9815 28.1126C32.7754 28.0325 32.6766 28.0778 32.5828 28.2954C32.5141 28.4545 32.3773 28.5847 32.2786 28.5847C32.139 28.5847 32.1274 28.5436 32.2264 28.4002C32.4963 28.0093 32.3494 27.8933 31.6092 27.9126C31.1997 27.9232 30.8398 27.874 30.8095 27.803C30.7289 27.614 30.2491 27.9713 30.1957 28.2602C30.159 28.4597 30.1476 28.453 30.1378 28.2254C30.1267 27.9732 30.0373 27.9472 29.3031 27.9842C28.8509 28.007 28.375 28.0797 28.2458 28.1456C28.1074 28.2163 27.9831 28.2005 27.9433 28.1073C27.9061 28.0202 27.8029 27.9895 27.7139 28.0389C27.6248 28.0884 27.4984 28.0686 27.4328 27.9948C27.0887 27.6076 26.6336 27.744 26.4904 28.2773C26.4412 28.4605 26.4268 28.452 26.4201 28.2364C26.4142 28.0442 26.3267 27.9669 26.1199 27.9715C25.9595 27.9749 25.7103 27.9587 25.5662 27.9354C25.2774 27.8888 25.1185 28.3769 25.3538 28.5874C25.4254 28.6515 25.4511 28.7809 25.411 28.8748C25.3058 29.1215 25.1384 29.0849 25.1384 28.8152C25.1384 28.6884 25.089 28.5847 25.0286 28.5847C24.9559 28.5847 24.9591 28.4754 25.0382 28.2615C25.1532 27.9501 25.1379 27.9404 24.6174 27.9925C24.2121 28.0333 24.0773 27.9941 24.0773 27.8359C24.0774 27.6658 24.0465 27.662 23.9182 27.8163C23.8217 27.9323 23.7591 27.9446 23.7591 27.8475C23.7591 27.7537 23.4841 27.6866 23.0959 27.6855C22.7312 27.6844 21.8996 27.6604 21.2483 27.6323C20.5968 27.6043 20.0859 27.6334 20.113 27.697C20.1788 27.851 19.842 27.6663 19.5309 27.3775C19.3502 27.21 19.2336 27.19 19.1065 27.3048C19.0088 27.3932 18.8373 27.4101 18.719 27.3432C18.4064 27.1663 17.611 27.1794 17.1393 27.3692C16.8284 27.4941 16.7073 27.4897 16.6481 27.3511C16.6034 27.2463 16.301 27.1577 15.9465 27.1457C15.4303 27.1284 15.2827 27.1839 15.0848 27.4705C14.7878 27.9006 14.5834 27.9294 14.7616 27.5158C14.9119 27.1674 14.7963 26.9048 14.6108 27.1734C14.428 27.4382 14.266 27.3964 14.4217 27.1247C14.4943 26.9979 14.5359 26.8906 14.5142 26.8863C14.4925 26.8822 14.1728 26.8402 13.8039 26.7932C13.2024 26.7165 13.105 26.7449 12.8605 27.0698L12.5879 27.4321L12.658 27.0094C12.7342 26.549 12.7412 26.5544 12.0077 26.5094C11.7597 26.494 11.5568 26.5447 11.5568 26.622C11.5568 26.6993 11.4818 26.6538 11.3901 26.5209C11.2983 26.3881 11.1391 26.2795 11.0363 26.2795C10.9335 26.2795 10.8189 26.2352 10.7816 26.1812C10.7443 26.1272 10.5334 26.0654 10.313 26.044C9.29511 25.9447 8.64542 25.8001 8.51533 25.6438C8.41028 25.5175 8.32933 25.5266 8.20295 25.6786C8.05843 25.8522 8.01132 25.8421 7.89535 25.6123C7.79242 25.4085 7.74447 25.3909 7.70266 25.5413C7.65894 25.6984 7.627 25.7007 7.55432 25.5522C7.50328 25.4482 7.3506 25.3939 7.21499 25.4317C7.07928 25.4697 6.70133 25.3647 6.37494 25.1986C6.04867 25.0323 5.69628 24.9357 5.59209 24.9836C5.4759 25.0369 5.40194 24.9924 5.40099 24.8682C5.39972 24.7191 5.3716 24.7265 5.29403 24.8963C5.20395 25.0936 5.16214 25.078 5.00394 24.788C4.90218 24.6017 4.5445 24.2982 4.20888 24.1135C3.87326 23.9289 3.59876 23.7322 3.59876 23.6764C3.59876 23.6206 3.43165 23.6031 3.22739 23.6377C2.88594 23.6955 2.85602 23.6678 2.85602 23.2956C2.85602 22.9665 2.79501 22.8731 2.52963 22.7963C2.29927 22.7296 2.12229 22.516 1.92801 22.0701C1.77659 21.7227 1.66401 21.415 1.67781 21.3861C1.69171 21.3572 1.63388 21.2535 1.54931 21.1556C1.46485 21.0577 1.36585 20.5807 1.32925 20.0958C1.27089 19.3203 1.2885 19.1909 1.47589 19.0214C1.59303 18.9155 1.68884 18.6725 1.68884 18.4815C1.68884 18.2907 1.73436 18.1344 1.78996 18.1344C1.84556 18.1344 1.97045 17.8923 2.06733 17.5965C2.1642 17.3006 2.30978 17.0586 2.39063 17.0586C2.47149 17.0586 2.5377 16.9715 2.5377 16.8651C2.5377 16.7586 2.63319 16.5851 2.74991 16.4795C2.86663 16.3739 2.96212 16.1579 2.96212 15.9994C2.96212 15.835 3.05879 15.6747 3.1875 15.626C3.36873 15.5573 3.3995 15.4637 3.34464 15.147C3.278 14.7627 3.41456 14.5998 3.54571 14.9071C3.58179 14.9916 3.65108 15.0607 3.69978 15.0607C3.83167 15.0607 3.92918 14.5983 3.84048 14.3938C3.79803 14.2957 3.77692 14.0945 3.79379 13.9465C3.81055 13.7987 3.77076 13.6776 3.7053 13.6776C3.63983 13.6776 3.61489 13.7448 3.64991 13.8268C3.68492 13.9089 3.59399 14.0194 3.44778 14.0726C3.30156 14.1257 3.15312 14.3006 3.11789 14.4612C3.08277 14.622 3.00945 14.7534 2.95502 14.7534C2.90058 14.7534 2.85602 14.8376 2.85602 14.9406C2.85602 15.0435 2.72901 15.2859 2.57388 15.4791C2.41865 15.6721 2.23932 15.9856 2.17545 16.1754C2.11157 16.3653 1.9053 16.6244 1.71717 16.7512C1.52873 16.8782 1.37413 17.1004 1.37286 17.2459C1.37137 17.417 1.31439 17.4788 1.21136 17.4216C1.02674 17.3189 1.01082 17.4955 1.15491 18.0448C1.24001 18.3686 1.22112 18.4645 1.04584 18.6003C0.92933 18.6907 0.863331 18.8331 0.899195 18.9172C0.93506 19.0011 0.90344 19.1762 0.828953 19.3062C0.728257 19.482 0.723377 19.6115 0.810066 19.8127C0.881476 19.9781 0.889858 20.1669 0.831924 20.2996C0.702898 20.5948 0.708734 21.3617 0.839988 21.3617C0.898347 21.3617 0.949915 21.5519 0.954477 21.7843C0.95904 22.0166 0.986946 22.1205 1.01634 22.0148C1.08584 21.7657 1.24425 21.7657 1.22919 22.0148C1.20956 22.3391 1.61351 23.3595 1.76153 23.3595C1.83824 23.3595 1.90106 23.4568 1.90106 23.5756C1.90106 23.7113 1.97512 23.7637 2.09979 23.7165C2.23582 23.665 2.37185 23.7906 2.53144 24.1152C2.65951 24.3758 2.85665 24.589 2.96934 24.589C3.08213 24.589 3.17434 24.6927 3.17434 24.8195C3.17434 24.9463 3.24596 25.05 3.3335 25.05C3.42104 25.05 3.49266 25.125 3.49266 25.2164C3.49266 25.308 3.5524 25.3512 3.62529 25.3125C3.69829 25.2738 3.74657 25.1668 3.73267 25.0747C3.71877 24.9827 3.77851 24.9469 3.86531 24.9951C3.9521 25.0434 4.02319 25.1714 4.02319 25.2794C4.02319 25.4712 4.62938 25.9721 4.86154 25.9721C4.92574 25.9721 4.97815 26.0308 4.97815 26.1024C4.97815 26.174 5.12617 26.2387 5.30719 26.2463C5.4881 26.2536 5.72122 26.3714 5.8252 26.5077C5.95211 26.6739 6.10554 26.7222 6.29197 26.6544C6.45495 26.5953 6.56976 26.618 6.56976 26.7094C6.56976 26.7952 6.66525 26.8292 6.78197 26.7851C7.02145 26.6942 7.06029 26.4974 6.86155 26.3812C6.78865 26.3386 6.8364 26.2982 6.96766 26.2916C7.1057 26.2845 7.2064 26.3703 7.2064 26.4949C7.2064 26.7516 7.79731 27.1175 8.13483 27.0698C8.26609 27.0514 8.37357 27.1006 8.37357 27.1793C8.37357 27.417 8.70887 27.5261 8.86453 27.3391C8.97732 27.2034 9.01021 27.2174 9.01021 27.401C9.01021 27.5802 9.17224 27.6592 9.67338 27.7244C10.0382 27.7718 10.4726 27.8032 10.639 27.7943C10.9114 27.7795 10.9355 27.7354 10.8823 27.3498C10.8407 27.0488 10.8715 26.8951 10.9865 26.8312C11.2343 26.6935 11.267 26.7184 11.1952 26.9896C11.1444 27.1811 11.1786 27.2198 11.343 27.1576C11.6155 27.0545 11.6176 27.2238 11.3474 27.5058C11.1546 27.7071 11.1516 27.7459 11.3077 27.9959C11.4274 28.1874 11.5298 28.2267 11.6555 28.1295C11.7564 28.0511 11.8977 28.0489 11.9818 28.1242C12.0634 28.1972 12.1643 28.2266 12.2059 28.1892C12.2476 28.1519 12.417 28.1966 12.5824 28.2887C12.7478 28.3807 13.1219 28.4869 13.4136 28.5249C13.7054 28.5627 14.0337 28.6337 14.1431 28.6826C14.2727 28.7403 14.3168 28.7119 14.2695 28.6011C14.1606 28.346 14.3757 28.3963 14.5278 28.6615C14.7143 28.9872 14.8461 28.9475 14.8461 28.5659C14.8461 28.3272 14.8817 28.2801 14.9787 28.3898C15.0517 28.4725 15.2666 28.6157 15.4562 28.7081C15.7798 28.8657 15.801 28.8539 15.801 28.5178C15.801 28.2888 15.8776 28.1305 16.0129 28.0792C16.1796 28.016 16.2053 28.0494 16.1334 28.2357C15.9732 28.6501 16.358 29.0286 16.9356 29.025C17.2162 29.0231 17.6489 29.089 17.8973 29.1713C18.161 29.2586 18.3733 29.2636 18.4076 29.1833C18.4398 29.1076 18.4156 29.0457 18.3539 29.0457C18.2921 29.0457 18.2415 28.9918 18.2415 28.9257C18.2415 28.7359 18.8424 28.4577 18.9821 28.5828C19.0649 28.6569 19.0231 28.7304 18.8606 28.7966L18.6129 28.8974L18.8544 29.1916C19.161 29.565 20.6586 29.6199 20.7537 29.2612C20.8296 28.9749 21.0003 28.9853 21.0003 29.2762C21.0003 29.4179 21.0997 29.5068 21.2584 29.5068C21.4756 29.5068 21.5152 29.4347 21.5077 29.0534C21.5012 28.7221 21.4413 28.5876 21.2851 28.5539C21.0988 28.5137 21.0919 28.4834 21.2317 28.3166C21.3673 28.1548 21.4312 28.2358 21.6471 28.8441L21.9022 29.5627L21.9624 29.1121C21.9955 28.8642 21.9855 28.5092 21.9404 28.3231C21.8767 28.0609 21.8931 28.0041 22.0129 28.0706C22.0979 28.1178 22.1682 28.2355 22.169 28.3322C22.17 28.4373 22.2079 28.4227 22.2634 28.2961C22.3937 27.9981 22.614 28.2416 22.536 28.5976C22.5005 28.7596 22.5192 28.892 22.5776 28.892C22.6359 28.892 22.714 29.0303 22.751 29.1994C22.7881 29.3684 22.8868 29.5068 22.9704 29.5068C23.054 29.5068 23.1224 29.5759 23.1224 29.6604C23.1224 29.8653 23.5067 29.8561 23.7795 29.6446C23.9475 29.5144 24.0193 29.5233 24.0893 29.683C24.1599 29.8445 24.1806 29.831 24.1819 29.622C24.1838 29.3014 24.471 29.269 24.7056 29.5628C24.7978 29.6781 25.0523 29.8121 25.2711 29.8605C25.5814 29.9291 25.669 29.8976 25.669 29.7173C25.669 29.4854 25.9268 29.5264 26.3 29.8173C26.3845 29.8833 26.5619 29.8776 26.6942 29.8046C26.8386 29.7251 26.96 29.7313 26.9979 29.82C27.0904 30.0368 27.7659 30.0004 27.8181 29.7757C27.8503 29.6371 27.9043 29.6288 28.0126 29.7459C28.095 29.8353 28.4368 29.9257 28.7721 29.9469C29.3112 29.9809 29.4114 29.9389 29.6392 29.5828L29.8968 29.1803L29.9315 29.5356C29.9642 29.8694 30.0081 29.889 30.656 29.8576C31.0353 29.8393 31.3934 29.8172 31.4518 29.8083C31.5102 29.7995 32.2098 29.8401 33.0067 29.8982C34.3659 29.9975 34.4587 29.9864 34.5064 29.717C34.5514 29.4636 34.5588 29.4614 34.5696 29.6989C34.5806 29.9387 34.6989 30.0359 34.9222 29.9882C35.0837 29.9537 38.1534 29.7812 38.4283 29.7912C38.5888 29.7971 38.7201 29.7371 38.7201 29.658C38.7201 29.571 38.8177 29.5681 38.9677 29.6507C39.1039 29.7257 39.2787 29.7304 39.3561 29.661C39.4342 29.5911 39.5764 29.6068 39.6752 29.6962C39.7861 29.7964 40.0104 29.8104 40.2683 29.7331C40.4965 29.6647 40.7265 29.624 40.7794 29.6426C40.8325 29.6614 40.91 29.5967 40.9517 29.4991C41.0088 29.3649 41.0834 29.3647 41.2553 29.498C41.3808 29.5951 41.5267 29.6357 41.5798 29.5882C41.633 29.5407 41.9754 29.468 42.3409 29.427C42.7063 29.3858 43.0362 29.2798 43.074 29.1912C43.1118 29.1027 43.2338 29.0328 43.3453 29.036C43.6245 29.0439 43.9372 29.0431 44.1581 29.0342C44.2602 29.03 44.3438 28.9272 44.3438 28.8057C44.3438 28.6841 44.4154 28.5847 44.5029 28.5847C44.5905 28.5847 44.6621 28.6538 44.6621 28.7383C44.6621 28.8229 44.7308 28.892 44.8146 28.892C44.9231 28.892 44.9655 28.7124 44.9612 28.2699C44.9579 27.9277 44.9848 27.6049 45.0209 27.5527C45.057 27.5004 45.0865 27.6388 45.0865 27.8602C45.0865 28.3099 45.2893 29.0457 45.4132 29.0457C45.612 29.0457 45.8293 28.8412 45.8293 28.6541C45.8293 28.308 46.0659 28.2149 46.2117 28.5037C46.3752 28.8275 46.7318 28.7018 46.6394 28.3529C46.604 28.2189 46.6387 28.1236 46.7231 28.1236C46.8026 28.1236 46.8951 28.2274 46.9288 28.3541C46.9623 28.4809 47.0987 28.5767 47.2319 28.5668C47.4115 28.5536 47.4261 28.5309 47.2882 28.4788C47.0726 28.3972 47.0366 28.1236 47.2415 28.1236C47.3178 28.1236 47.4729 28.2217 47.586 28.3414C47.7311 28.4952 47.8308 28.5123 47.9246 28.3995C48.0182 28.287 48.0575 28.2928 48.0575 28.4192C48.0575 28.5383 48.1734 28.5671 48.4024 28.5052C48.7707 28.4055 48.8956 28.3747 49.9674 28.1202C50.3468 28.03 50.7526 27.8928 50.8694 27.8149C50.9861 27.7371 51.2009 27.6807 51.3468 27.6896C51.7261 27.713 52.4431 27.508 52.5618 27.3423C52.6171 27.2649 52.7531 27.2015 52.8637 27.2015C52.9743 27.2015 53.1916 27.0724 53.3465 26.9145C53.5384 26.719 53.6958 26.6666 53.8403 26.75C54.176 26.9438 54.3164 26.9142 54.2501 26.6637C54.2114 26.5177 54.2515 26.4331 54.3595 26.4331C54.4533 26.4331 54.53 26.5023 54.53 26.5868C54.53 26.6713 54.6017 26.7405 54.6892 26.7405C54.8772 26.7405 54.879 26.7236 54.7449 26.2126C54.6776 25.9564 54.6776 25.8184 54.7449 25.8184C54.8018 25.8184 54.8484 25.9221 54.8484 26.0489C54.8484 26.1757 54.9398 26.2795 55.0518 26.2795C55.1636 26.2795 55.271 26.3465 55.2905 26.4284C55.3112 26.5157 55.5282 26.4719 55.8141 26.3226C56.1836 26.1298 56.332 25.9541 56.424 25.6011L56.5456 25.1345L56.7072 25.4685C56.861 25.7864 56.8896 25.7918 57.3023 25.581C57.5407 25.4591 57.7716 25.3915 57.8153 25.4307C57.859 25.4697 57.8734 25.3391 57.847 25.1402C57.8002 24.7851 58.0368 24.3812 58.1087 24.6936C58.1289 24.7812 58.2073 24.9755 58.283 25.1255C58.4045 25.3661 58.4695 25.3761 58.8362 25.2106C59.0648 25.1075 59.4542 24.8909 59.7016 24.7293C59.949 24.5676 60.2245 24.4353 60.3138 24.4353C60.4032 24.4353 60.6653 24.2624 60.8964 24.0511C61.1275 23.8398 61.3858 23.6669 61.4704 23.6669C61.5548 23.6669 61.6872 23.5804 61.7643 23.4748C61.8413 23.3692 62.0648 23.2641 62.2607 23.2415C62.4566 23.2187 62.7179 23.0978 62.8414 22.9725C62.9648 22.8473 63.1507 22.7448 63.2545 22.7448C63.3581 22.7448 63.443 22.6411 63.443 22.5143C63.443 22.385 63.5377 22.2837 63.6585 22.2837C63.7771 22.2837 63.9016 22.18 63.9351 22.0532C63.9688 21.9264 64.1117 21.8227 64.2528 21.8227C64.4289 21.8227 64.541 21.7021 64.6102 21.4385C64.7089 21.0626 64.9285 20.9035 64.9285 21.208C64.9285 21.4353 65.1332 21.3945 65.3151 21.1311C65.4026 21.0043 65.555 20.9006 65.6536 20.9006C65.7524 20.9006 65.8803 20.7506 65.9379 20.5674C65.9955 20.3841 66.1378 20.1594 66.2541 20.068C66.3704 19.9765 66.571 19.7462 66.7 19.5559C66.8289 19.3658 66.9724 19.2072 67.019 19.2037C67.0656 19.2 67.2231 18.9799 67.369 18.7143C67.5149 18.4488 67.7659 18.0503 67.9269 17.829C68.3171 17.2919 68.9375 15.488 68.6403 15.754C68.4257 15.9462 68.501 15.2198 68.7748 14.4585C68.9395 14.0003 69.0368 13.5854 68.9909 13.5364C68.945 13.4872 68.9074 12.9687 68.9073 12.3841C68.9071 11.6715 68.8634 11.2999 68.7747 11.257C68.7018 11.2218 68.6422 11.1025 68.6422 10.9919C68.6422 10.8811 68.5751 10.7532 68.4931 10.7077C68.411 10.6621 68.3119 10.4134 68.2727 10.1551C68.2335 9.89675 68.1574 9.64594 68.1035 9.59769C68.0496 9.54958 68.0039 9.35856 68.0018 9.17337C67.9997 8.98819 67.8923 8.661 67.763 8.44631C67.4414 7.91165 66.7323 7.1706 66.7323 7.36885C66.7323 7.45768 66.6607 7.53037 66.5732 7.53037C66.4856 7.53037 66.414 7.47228 66.414 7.40143C66.414 7.33043 66.2946 7.1935 66.1487 7.0973C66.0028 7.00094 65.8823 6.79977 65.8808 6.64993C65.8782 6.37177 65.2752 5.83988 64.9624 5.83988C64.8691 5.83988 64.7248 5.71878 64.6417 5.57094C64.5379 5.38606 64.4742 5.35901 64.4378 5.48457C64.4018 5.60813 64.3154 5.56663 64.17 5.35594C64.0208 5.13986 63.8769 5.07332 63.6991 5.13786C63.5555 5.19011 63.443 5.16307 63.443 5.07639C63.443 4.82558 62.682 4.20563 62.2228 4.08223C61.9894 4.01953 61.7494 3.90964 61.6896 3.83818C61.4698 3.57539 60.3615 3.12234 59.5868 2.9788C59.3442 2.93392 58.9906 2.83864 58.8008 2.76718C58.5673 2.67927 58.456 2.69157 58.456 2.80545C58.456 2.89781 58.3485 2.82973 58.2172 2.65392C58.0674 2.45336 57.7809 2.30614 57.448 2.25834C57.1562 2.21639 56.6787 2.10466 56.3869 2.00984C56.0951 1.91517 55.5799 1.81067 55.2418 1.77747C54.9038 1.74443 54.5695 1.65084 54.4991 1.56954C54.4286 1.48825 54.0366 1.4154 53.6281 1.40756C52.8962 1.39358 52.7222 1.36207 52.4079 1.18734C52.1223 1.02859 51.1346 0.963733 51.1346 1.10374C51.1346 1.17889 51.0464 1.17197 50.9386 1.08837C50.8039 0.983866 50.7046 0.991704 50.6203 1.11373C50.5279 1.24758 50.498 1.23851 50.498 1.07715C50.498 0.921471 50.4617 0.935303 50.3644 1.12786C50.2137 1.42631 49.7866 1.39788 49.6511 1.08053C49.5931 0.944523 49.454 0.909484 49.2302 0.974338C49.0028 1.04011 48.9186 1.01783 48.967 0.904413C49.0115 0.79991 48.9473 0.808055 48.795 0.926235C48.5937 1.08222 48.5311 1.07362 48.4315 0.876596C48.3237 0.66298 48.2989 0.664978 48.1907 0.895499C48.0788 1.13386 48.0695 1.13294 48.0638 0.883666C48.0603 0.735825 48.0455 0.608423 48.031 0.600739C48.0165 0.593209 47.53 0.556325 46.9501 0.518981C46.3701 0.481483 45.8372 0.380668 45.7658 0.294914C45.6769 0.187952 45.6124 0.193945 45.5614 0.313663C45.5127 0.427694 45.3524 0.449824 45.1009 0.377133C44.4438 0.187184 44.0255 0.202705 44.0255 0.41709C44.0255 0.525743 43.9777 0.614724 43.9194 0.614724C43.861 0.614724 43.8252 0.536961 43.8398 0.441833C43.8544 0.346704 43.7469 0.250193 43.601 0.227294C43.4551 0.204396 43.2284 0.135854 43.097 0.0748426C42.9163 -0.00891358 42.8583 0.0245889 42.8583 0.212541C42.8583 0.349317 42.914 0.461043 42.9821 0.461043C43.0501 0.461043 43.0702 0.512833 43.0265 0.575996C42.9828 0.639313 42.8869 0.572154 42.8136 0.426772C42.6323 0.067466 42.1378 0.0422623 41.7054 0.370218C41.4243 0.583373 41.3228 0.600739 41.228 0.451515C41.137 0.308745 41.14 0.28892 41.2402 0.370679C41.3215 0.437223 41.3728 0.386661 41.3728 0.239589C41.3728 0.107884 41.3118 0 41.2373 0C41.0723 0 40.6258 0.418627 40.4444 0.743355C40.329 0.949902 40.3117 0.93561 40.3117 0.633781C40.3117 0.35654 40.269 0.306286 40.0995 0.384202C39.9483 0.453666 39.8873 0.411865 39.8873 0.238513C39.8873 0.0603966 39.7948 0.00291988 39.5425 0.0241279C39.3527 0.0402644 39.1204 0.108038 39.0258 0.174889C38.9314 0.24174 38.8252 0.254649 38.7898 0.203474C38.7545 0.152144 38.2875 0.090518 37.7522 0.0663901C37.0161 0.0333487 36.7183 0.0800677 36.5304 0.258491C36.3218 0.456432 36.2728 0.459967 36.2252 0.280622C36.1657 0.0560936 35.7758 0.0167511 35.5563 0.213155C35.4853 0.276626 35.45 0.381744 35.4777 0.446597C35.5054 0.51145 35.4629 0.699556 35.3832 0.864302C35.2594 1.12003 34.9064 1.21439 34.582 1.07853C34.4923 1.04104 35.0533 0.718305 35.1521 0.750732C35.203 0.767329 35.2149 0.66882 35.1786 0.531582C35.1422 0.394499 35.1125 0.218227 35.1125 0.140157C35.1125 0.0576305 34.7675 0.0358077 34.2902 0.0880592C33.3202 0.194099 33.3375 0.194406 32.9638 0.0651607C32.7406 -0.0121408 32.672 0.0204395 32.672 0.203474C32.672 0.415553 32.6388 0.417705 32.3802 0.222376C31.9807 -0.079453 31.1867 -0.0599356 30.8719 0.259413C30.6906 0.44337 30.604 0.465653 30.5742 0.336254C30.5125 0.068388 29.9622 0.113724 29.7981 0.400032C29.6697 0.624099 29.6418 0.619335 29.4897 0.347165C29.3475 0.0928235 29.3018 0.0800679 29.1842 0.262334ZM30.5499 0.691564C30.5499 0.818351 30.5021 0.930692 30.4438 0.941296C30.3854 0.9519 30.2882 0.969112 30.2278 0.979716C30.1672 0.99032 30.0724 1.10266 30.0171 1.22945C29.8744 1.55633 29.8796 1.14646 30.0231 0.758262C30.1524 0.408177 30.5499 0.357923 30.5499 0.691564ZM24.9262 0.989859C24.9262 1.0272 24.8785 1.10036 24.8201 1.15261C24.7618 1.20486 24.714 1.17428 24.714 1.08483C24.714 0.995392 24.7618 0.922086 24.8201 0.922086C24.8785 0.922086 24.9262 0.952515 24.9262 0.989859ZM21.8008 1.83326C21.6964 2.07777 21.5284 1.8786 21.6025 1.59844C21.6434 1.44429 21.7012 1.41479 21.7691 1.51314C21.8263 1.59598 21.8405 1.73998 21.8008 1.83326ZM47.7392 1.61365C47.7392 1.74044 47.6691 1.84417 47.5833 1.84417C47.4885 1.84417 47.4514 1.75411 47.4886 1.61365C47.5222 1.48686 47.5923 1.38313 47.6444 1.38313C47.6965 1.38313 47.7392 1.48686 47.7392 1.61365ZM48.8457 1.49839C48.7929 1.56186 48.714 1.68281 48.6705 1.76733C48.6253 1.85508 48.5906 1.8056 48.5896 1.65207C48.5888 1.50254 48.6666 1.38313 48.7649 1.38313C48.8621 1.38313 48.8985 1.43492 48.8457 1.49839ZM21.3186 1.84417C21.3186 1.9287 21.2709 1.99785 21.2125 1.99785C21.1541 1.99785 21.1064 1.9287 21.1064 1.84417C21.1064 1.75965 21.1541 1.69049 21.2125 1.69049C21.2709 1.69049 21.3186 1.75965 21.3186 1.84417ZM24.6853 1.78331C24.65 1.83434 24.5585 1.83987 24.482 1.79545C24.3973 1.74643 24.4224 1.71001 24.5461 1.70263C24.6579 1.69602 24.7205 1.73229 24.6853 1.78331ZM50.498 2.00953C50.498 2.08222 50.4264 2.10205 50.3388 2.05349C50.2513 2.00477 50.1797 1.90534 50.1797 1.83249C50.1797 1.7598 50.2513 1.73998 50.3388 1.78854C50.4264 1.83726 50.498 1.93669 50.498 2.00953ZM52.7262 1.84417C52.7262 1.9287 52.6426 1.99678 52.5405 1.99555C52.3818 1.99355 52.378 1.97142 52.514 1.84417C52.7142 1.65668 52.7262 1.65668 52.7262 1.84417ZM19.3556 2.15153C19.3917 2.23606 19.3706 2.30521 19.3088 2.30521C19.2471 2.30521 19.1965 2.23606 19.1965 2.15153C19.1965 2.06701 19.2175 1.99785 19.2433 1.99785C19.269 1.99785 19.3196 2.06701 19.3556 2.15153ZM47.1026 2.15153C47.1026 2.23606 47.0519 2.30521 46.9902 2.30521C46.9284 2.30521 46.9073 2.23606 46.9434 2.15153C46.9795 2.06701 47.03 1.99785 47.0558 1.99785C47.0816 1.99785 47.1026 2.06701 47.1026 2.15153ZM49.7505 2.52728C49.8469 2.69572 49.8511 2.76626 49.7649 2.76626C49.6975 2.76626 49.615 2.66252 49.5814 2.53574C49.5478 2.40895 49.4538 2.30521 49.3725 2.30521C49.2912 2.30521 49.2247 2.2336 49.2247 2.14616C49.2247 1.94714 49.5553 2.18673 49.7505 2.52728ZM48.3471 2.24436C48.3119 2.29538 48.2203 2.30091 48.1438 2.2565C48.0591 2.20747 48.0843 2.17105 48.2079 2.16367C48.3197 2.15707 48.3823 2.19334 48.3471 2.24436ZM17.2512 2.71508C17.113 2.91517 17.1833 3.2273 17.3661 3.225C17.513 3.22315 17.5213 3.19457 17.4056 3.08837C17.3252 3.01461 17.2922 2.87737 17.3323 2.78347C17.4125 2.59552 17.3627 2.55356 17.2512 2.71508ZM52.273 3.16644C52.2378 3.21747 52.1462 3.223 52.0697 3.17858C51.9851 3.12956 52.0102 3.09314 52.1338 3.08576C52.2457 3.07915 52.3083 3.11542 52.273 3.16644ZM52.6201 3.38098C52.6201 3.46551 52.5724 3.53466 52.514 3.53466C52.4556 3.53466 52.4079 3.46551 52.4079 3.38098C52.4079 3.29646 52.4556 3.2273 52.514 3.2273C52.5724 3.2273 52.6201 3.29646 52.6201 3.38098ZM53.7873 3.45782C53.7873 3.58461 53.7395 3.68834 53.6812 3.68834C53.6228 3.68834 53.5751 3.58461 53.5751 3.45782C53.5751 3.33104 53.6228 3.2273 53.6812 3.2273C53.7395 3.2273 53.7873 3.33104 53.7873 3.45782ZM56.7583 3.77425C56.7583 3.90596 56.7105 3.97112 56.6522 3.91887C56.5938 3.86661 56.5461 3.75888 56.5461 3.67928C56.5461 3.59967 56.5938 3.53466 56.6522 3.53466C56.7105 3.53466 56.7583 3.64255 56.7583 3.77425ZM60.6842 5.14831C60.6842 5.2751 60.6126 5.37883 60.5251 5.37883C60.4375 5.37883 60.3659 5.2751 60.3659 5.14831C60.3659 5.02153 60.4375 4.91779 60.5251 4.91779C60.6126 4.91779 60.6842 5.02153 60.6842 5.14831ZM64.3621 6.49302C64.3327 6.59875 64.3086 6.51223 64.3086 6.30092C64.3086 6.08961 64.3327 6.00324 64.3621 6.10882C64.3916 6.21455 64.3916 6.38744 64.3621 6.49302ZM14.3686 8.29877C14.3325 8.3833 14.3536 8.45245 14.4154 8.45245C14.4772 8.45245 14.5278 8.3833 14.5278 8.29877C14.5278 8.21425 14.5068 8.14509 14.481 8.14509C14.4552 8.14509 14.4047 8.21425 14.3686 8.29877ZM12.9529 8.9135C12.9529 9.12481 12.977 9.21133 13.0064 9.1056C13.0359 9.00002 13.0359 8.82713 13.0064 8.7214C12.977 8.61582 12.9529 8.70219 12.9529 8.9135ZM10.7277 9.10007C10.5623 9.3395 10.5664 9.57248 10.7344 9.48427C10.8075 9.446 10.9476 9.51608 11.0461 9.6401C11.1446 9.76427 11.2758 9.82022 11.3379 9.76474C11.4891 9.62934 11.4815 9.37454 11.3264 9.37454C11.2581 9.37454 11.1236 9.27173 11.0278 9.14617C10.8934 8.9699 10.8247 8.95945 10.7277 9.10007ZM9.30052 9.7738C9.26561 9.82436 9.26264 9.96222 9.29394 10.0804C9.33957 10.2527 9.25681 10.2765 8.8762 10.2009C8.57401 10.1409 8.37495 10.1692 8.32826 10.2785C8.28794 10.373 8.30556 10.4503 8.36731 10.4503C8.42907 10.4503 8.47968 10.6146 8.47968 10.8153C8.47968 11.1022 8.53645 11.1803 8.74495 11.1803C8.9318 11.1803 9.01021 11.0967 9.01021 10.8975C9.01021 10.5863 9.30572 10.2988 9.51433 10.4071C9.60303 10.4532 9.6234 10.387 9.57587 10.2075C9.52727 10.0243 9.54414 9.9742 9.62882 10.05C9.69715 10.1111 9.75296 10.0953 9.75296 10.0148C9.75296 9.93425 9.67741 9.82652 9.5851 9.77519C9.37915 9.6607 9.37851 9.66069 9.30052 9.7738ZM9.96517 10.1031C9.96517 10.3865 10.1613 10.4804 10.3622 10.2934C10.5127 10.1532 10.5153 10.1345 10.376 10.1961C10.2809 10.2382 10.1497 10.195 10.0842 10.1002C9.99626 9.97282 9.96517 9.97359 9.96517 10.1031ZM7.68388 10.604C7.6478 10.6885 7.66892 10.7577 7.73067 10.7577C7.79243 10.7577 7.84304 10.8557 7.84304 10.9754C7.84304 11.2909 8.08814 11.3621 8.22799 11.0872C8.31829 10.9097 8.31362 10.8025 8.209 10.6512C8.04443 10.4127 7.77577 10.3885 7.68388 10.604ZM6.96766 11.0172C6.86548 11.056 6.78197 11.2124 6.78197 11.3649C6.78197 11.5173 6.70144 11.7371 6.60297 11.8531C6.4471 12.0366 6.43245 12.0308 6.49018 11.8078C6.52954 11.6552 6.49474 11.5173 6.40391 11.4668C6.32009 11.4202 6.25144 11.4491 6.25144 11.5308C6.25144 11.6127 6.17981 11.6798 6.09228 11.6798C6.00474 11.6798 5.93311 11.7468 5.93311 11.8287C5.93311 11.9104 5.86637 11.9404 5.78467 11.8949C5.54763 11.7632 5.51792 12.0374 5.73448 12.3598C5.90967 12.6207 5.93311 12.6254 5.93311 12.3982C5.93311 12.2567 6.00474 12.1408 6.09228 12.1408C6.17981 12.1408 6.25144 12.2493 6.25144 12.3821C6.25144 12.7856 6.70939 12.5819 6.79354 12.1408C6.83969 11.8991 6.87089 11.8563 6.87747 12.0255C6.88935 12.3258 7.04968 12.3839 7.15907 12.1274C7.19823 12.0355 7.31961 11.9942 7.4288 12.0355C7.59093 12.0968 7.60875 12.0609 7.52663 11.8385C7.47135 11.689 7.45511 11.5245 7.49055 11.4732C7.56111 11.3709 7.32715 10.9004 7.21998 10.9292C7.18327 10.939 7.06984 10.9787 6.96766 11.0172ZM7.63082 11.5261C7.4948 11.6533 7.49862 11.6755 7.65735 11.6775C7.75953 11.6787 7.84304 11.6106 7.84304 11.5261C7.84304 11.3386 7.83105 11.3386 7.63082 11.5261ZM4.85125 12.6742C4.30501 13.1846 4.24771 13.3155 4.5272 13.415C4.62927 13.4512 4.55776 13.4529 4.36804 13.4187C4.0111 13.3541 3.89311 13.5725 4.19434 13.7398C4.303 13.8002 4.34544 13.9467 4.31042 14.1405C4.28008 14.3085 4.29854 14.446 4.35149 14.446C4.40433 14.446 4.44762 14.3077 4.44762 14.1387C4.44762 13.8036 4.52582 13.7618 4.7565 13.9733C4.9303 14.1327 5.29647 13.8582 5.29647 13.5686C5.29647 13.4583 5.37372 13.4159 5.48216 13.4665C5.63188 13.5362 5.63835 13.5227 5.51548 13.3965C5.39123 13.2688 5.38804 13.1966 5.49818 13.0043C5.60779 12.8132 5.60652 12.7159 5.49139 12.4887C5.35653 12.2226 5.32491 12.2316 4.85125 12.6742ZM2.69686 15.9828C2.73346 16.0686 2.6541 16.1354 2.51743 16.1342C2.32028 16.1322 2.30352 16.1027 2.43159 15.9828C2.62905 15.7981 2.61802 15.7981 2.69686 15.9828ZM64.6632 19.9785C64.6993 20.0631 64.6516 20.1322 64.5571 20.1322C64.4627 20.1322 64.415 20.0631 64.451 19.9785C64.4871 19.894 64.5349 19.8248 64.5571 19.8248C64.5794 19.8248 64.6272 19.894 64.6632 19.9785ZM62.843 21.5988C62.8084 21.7293 62.7574 21.803 62.7296 21.7628C62.7018 21.7225 62.7105 21.6157 62.749 21.5256C62.8536 21.2804 62.9147 21.328 62.843 21.5988ZM62.5247 22.5209C62.4901 22.6513 62.439 22.7251 62.4112 22.6849C62.3834 22.6446 62.3921 22.5378 62.4306 22.4477C62.5353 22.2024 62.5964 22.2501 62.5247 22.5209ZM60.0476 23.0521C60.0476 23.1367 59.997 23.2058 59.9352 23.2058C59.8735 23.2058 59.8524 23.1367 59.8884 23.0521C59.9245 22.9676 59.975 22.8985 60.0008 22.8985C60.0266 22.8985 60.0476 22.9676 60.0476 23.0521ZM60.419 23.0521C60.455 23.1367 60.4101 23.2058 60.3191 23.2058C60.2282 23.2058 60.1537 23.1367 60.1537 23.0521C60.1537 22.9676 60.1986 22.8985 60.2535 22.8985C60.3085 22.8985 60.3829 22.9676 60.419 23.0521ZM53.3629 26.1258C53.3629 26.2103 53.3151 26.2795 53.2568 26.2795C53.1984 26.2795 53.1506 26.2103 53.1506 26.1258C53.1506 26.0412 53.1984 25.9721 53.2568 25.9721C53.3151 25.9721 53.3629 26.0412 53.3629 26.1258ZM12.335 27.5241C12.3836 27.5768 12.3478 27.6618 12.2554 27.7131C12.1343 27.7805 12.0873 27.7147 12.0873 27.4785C12.0873 27.298 12.1232 27.2129 12.1669 27.2894C12.2106 27.3658 12.2863 27.4716 12.335 27.5241ZM14.1807 27.7554C14.1455 27.8064 14.0539 27.812 13.9774 27.7675C13.8927 27.7185 13.9179 27.6821 14.0415 27.6747C14.1533 27.6681 14.2159 27.7044 14.1807 27.7554ZM40.2056 28.3541C40.2056 28.4866 40.1099 28.5847 39.9805 28.5847C39.7922 28.5847 39.7769 28.5467 39.8873 28.3541C39.96 28.2274 40.0613 28.1236 40.1125 28.1236C40.1637 28.1236 40.2056 28.2274 40.2056 28.3541ZM28.5869 28.431C28.623 28.5155 28.5752 28.5847 28.4808 28.5847C28.3864 28.5847 28.3386 28.5155 28.3747 28.431C28.4108 28.3465 28.4585 28.2773 28.4808 28.2773C28.5031 28.2773 28.5508 28.3465 28.5869 28.431ZM24.3957 28.4891C24.3957 28.5209 24.3241 28.6331 24.2365 28.7383C24.1061 28.8951 24.0774 28.8845 24.0774 28.6803C24.0774 28.5432 24.149 28.431 24.2365 28.431C24.3241 28.431 24.3957 28.4571 24.3957 28.4891ZM31.3987 28.4988C31.3987 28.5361 31.351 28.6093 31.2926 28.6615C31.2343 28.7138 31.1865 28.6832 31.1865 28.5937C31.1865 28.5043 31.2343 28.431 31.2926 28.431C31.351 28.431 31.3987 28.4614 31.3987 28.4988ZM26.6858 28.892C26.7686 28.892 26.8362 29.0303 26.8362 29.1994C26.8362 29.3684 26.8089 29.5068 26.7756 29.5068C26.6537 29.5068 26.4641 29.1146 26.4413 28.8152C26.4285 28.6461 26.4444 28.5943 26.4767 28.6999C26.509 28.8057 26.6031 28.892 26.6858 28.892ZM22.2736 29.1994C22.2736 29.3975 22.3273 29.5064 22.4062 29.4683C22.4792 29.4331 22.5388 29.312 22.5388 29.1994C22.5388 29.0867 22.4792 28.9656 22.4062 28.9304C22.3273 28.8923 22.2736 29.0013 22.2736 29.1994ZM29.0308 29.2283C28.9969 29.3508 28.9718 29.3143 28.9667 29.1353C28.9621 28.9733 28.9872 28.8827 29.0224 28.9337C29.0576 28.9847 29.0614 29.1173 29.0308 29.2283ZM29.3297 29.6604C29.3657 29.745 29.3208 29.8141 29.2298 29.8141C29.1389 29.8141 29.0644 29.745 29.0644 29.6604C29.0644 29.5759 29.1093 29.5068 29.1642 29.5068C29.2192 29.5068 29.2936 29.5759 29.3297 29.6604Z" fill="#D01F36"/>
</svg>
