<svg width="190" height="66" viewBox="0 0 190 66" fill="none" xmlns="http://www.w3.org/2000/svg">
<path d="M15.694 14.154C16.034 15.2647 16.204 16.3413 16.204 17.384C16.204 18.54 16.0227 19.5827 15.66 20.512C15.1387 21.9627 14.2207 23.1187 12.906 23.98C11.5913 24.8187 10.05 25.238 8.282 25.238C6.55933 25.238 5.04067 24.83 3.726 24.014C2.434 23.1753 1.516 22.042 0.972 20.614C0.745333 20.0247 0.575333 19.4013 0.462 18.744V18.676C0.462 18.4267 0.598 18.302 0.87 18.302H4.984C5.21067 18.302 5.358 18.4267 5.426 18.676C5.44867 18.812 5.48267 18.9253 5.528 19.016C5.57333 19.1067 5.60733 19.186 5.63 19.254C5.85667 19.8433 6.19667 20.2967 6.65 20.614C7.10333 20.9313 7.636 21.09 8.248 21.09C8.88267 21.09 9.438 20.92 9.914 20.58C10.39 20.24 10.7413 19.764 10.968 19.152C11.1947 18.6987 11.308 18.1093 11.308 17.384C11.308 16.7267 11.206 16.1373 11.002 15.616C10.8433 15.0267 10.526 14.5733 10.05 14.256C9.574 13.9387 9.01867 13.78 8.384 13.78C7.74933 13.78 7.16 13.9273 6.616 14.222C6.072 14.5167 5.70933 14.902 5.528 15.378C5.46 15.6047 5.31267 15.718 5.086 15.718H0.904C0.790667 15.718 0.688667 15.684 0.598 15.616C0.53 15.5253 0.496 15.4233 0.496 15.31V1.608C0.496 1.49467 0.53 1.404 0.598 1.336C0.688667 1.24533 0.790667 1.2 0.904 1.2H14.946C15.0593 1.2 15.15 1.24533 15.218 1.336C15.3087 1.404 15.354 1.49467 15.354 1.608V4.906C15.354 5.01933 15.3087 5.12133 15.218 5.212C15.15 5.28 15.0593 5.314 14.946 5.314H5.46C5.34667 5.314 5.29 5.37067 5.29 5.484L5.256 10.516C5.256 10.6747 5.324 10.7087 5.46 10.618C6.48 9.96067 7.65867 9.632 8.996 9.632C10.5827 9.632 11.9653 10.04 13.144 10.856C14.3453 11.6493 15.1953 12.7487 15.694 14.154ZM25.9368 25C25.8234 25 25.7214 24.966 25.6308 24.898C25.5628 24.8073 25.5288 24.7053 25.5288 24.592V1.608C25.5288 1.49467 25.5628 1.404 25.6308 1.336C25.7214 1.24533 25.8234 1.2 25.9368 1.2H34.4368C36.1368 1.2 37.6214 1.506 38.8908 2.118C40.1828 2.70733 41.1801 3.546 41.8828 4.634C42.5854 5.722 42.9368 6.98 42.9368 8.408V17.792C42.9368 19.22 42.5854 20.478 41.8828 21.566C41.1801 22.654 40.1828 23.504 38.8908 24.116C37.6214 24.7053 36.1368 25 34.4368 25H25.9368ZM30.3228 20.716C30.3228 20.8293 30.3794 20.886 30.4928 20.886H34.6068C35.6494 20.886 36.4881 20.5347 37.1228 19.832C37.7801 19.1293 38.1201 18.1887 38.1428 17.01V9.19C38.1428 8.01133 37.8141 7.07067 37.1568 6.368C36.5221 5.66533 35.6608 5.314 34.5728 5.314H30.4928C30.3794 5.314 30.3228 5.37067 30.3228 5.484V20.716ZM54.6391 25.374C52.8711 25.374 51.3071 25.0113 49.9471 24.286C48.6098 23.5607 47.5671 22.552 46.8191 21.26C46.0711 19.9453 45.6971 18.438 45.6971 16.738V9.462C45.6971 7.78467 46.0711 6.3 46.8191 5.008C47.5671 3.716 48.6098 2.71867 49.9471 2.016C51.3071 1.29067 52.8711 0.928 54.6391 0.928C56.4298 0.928 57.9938 1.29067 59.3311 2.016C60.6911 2.71867 61.7451 3.716 62.4931 5.008C63.2411 6.3 63.6151 7.78467 63.6151 9.462V16.738C63.6151 18.438 63.2411 19.9453 62.4931 21.26C61.7451 22.5747 60.6911 23.5947 59.3311 24.32C57.9938 25.0227 56.4298 25.374 54.6391 25.374ZM54.6391 21.26C55.8858 21.26 56.8945 20.8633 57.6651 20.07C58.4358 19.2767 58.8211 18.2227 58.8211 16.908V9.428C58.8211 8.11333 58.4358 7.05933 57.6651 6.266C56.9171 5.45 55.9085 5.042 54.6391 5.042C53.3925 5.042 52.3838 5.45 51.6131 6.266C50.8651 7.05933 50.4911 8.11333 50.4911 9.428V16.908C50.4911 18.2227 50.8651 19.2767 51.6131 20.07C52.3838 20.8633 53.3925 21.26 54.6391 21.26ZM72.7763 25C72.5496 25 72.4023 24.8867 72.3343 24.66L65.3303 1.676L65.2963 1.54C65.2963 1.31333 65.4209 1.2 65.6703 1.2H69.9543C70.2036 1.2 70.3623 1.31333 70.4303 1.54L74.9523 18.132C74.9749 18.2 75.0089 18.234 75.0543 18.234C75.0996 18.234 75.1336 18.2 75.1563 18.132L79.6103 1.54C79.6783 1.31333 79.8369 1.2 80.0863 1.2H84.2683C84.4043 1.2 84.5063 1.24533 84.5743 1.336C84.6423 1.42667 84.6536 1.54 84.6083 1.676L77.5023 24.66C77.4343 24.8867 77.2869 25 77.0603 25H72.7763ZM103.587 4.906C103.587 5.01933 103.542 5.12133 103.451 5.212C103.383 5.28 103.293 5.314 103.179 5.314H92.0275C91.9141 5.314 91.8575 5.37067 91.8575 5.484V10.754C91.8575 10.8673 91.9141 10.924 92.0275 10.924H99.3375C99.4508 10.924 99.5415 10.9693 99.6095 11.06C99.7001 11.128 99.7455 11.2187 99.7455 11.332V14.63C99.7455 14.7433 99.7001 14.8453 99.6095 14.936C99.5415 15.004 99.4508 15.038 99.3375 15.038H92.0275C91.9141 15.038 91.8575 15.0947 91.8575 15.208V20.716C91.8575 20.8293 91.9141 20.886 92.0275 20.886H103.179C103.293 20.886 103.383 20.9313 103.451 21.022C103.542 21.09 103.587 21.1807 103.587 21.294V24.592C103.587 24.7053 103.542 24.8073 103.451 24.898C103.383 24.966 103.293 25 103.179 25H87.4715C87.3581 25 87.2561 24.966 87.1655 24.898C87.0975 24.8073 87.0635 24.7053 87.0635 24.592V1.608C87.0635 1.49467 87.0975 1.404 87.1655 1.336C87.2561 1.24533 87.3581 1.2 87.4715 1.2H103.179C103.293 1.2 103.383 1.24533 103.451 1.336C103.542 1.404 103.587 1.49467 103.587 1.608V4.906ZM114.739 25.272C112.926 25.272 111.339 24.9887 109.979 24.422C108.619 23.8327 107.565 23.0053 106.817 21.94C106.092 20.852 105.729 19.594 105.729 18.166V17.418C105.729 17.3047 105.763 17.214 105.831 17.146C105.922 17.0553 106.024 17.01 106.137 17.01H110.013C110.126 17.01 110.217 17.0553 110.285 17.146C110.376 17.214 110.421 17.3047 110.421 17.418V17.928C110.421 18.8347 110.84 19.6053 111.679 20.24C112.518 20.852 113.651 21.158 115.079 21.158C116.28 21.158 117.176 20.9087 117.765 20.41C118.354 19.8887 118.649 19.254 118.649 18.506C118.649 17.962 118.468 17.5087 118.105 17.146C117.742 16.7607 117.244 16.432 116.609 16.16C115.997 15.8653 115.011 15.4687 113.651 14.97C112.132 14.4487 110.84 13.916 109.775 13.372C108.732 12.828 107.848 12.0913 107.123 11.162C106.42 10.21 106.069 9.04267 106.069 7.66C106.069 6.3 106.42 5.11 107.123 4.09C107.826 3.07 108.8 2.288 110.047 1.744C111.294 1.2 112.733 0.928 114.365 0.928C116.088 0.928 117.618 1.234 118.955 1.846C120.315 2.458 121.369 3.31933 122.117 4.43C122.888 5.518 123.273 6.78733 123.273 8.238V8.748C123.273 8.86133 123.228 8.96333 123.137 9.054C123.069 9.122 122.978 9.156 122.865 9.156H118.955C118.842 9.156 118.74 9.122 118.649 9.054C118.581 8.96333 118.547 8.86133 118.547 8.748V8.476C118.547 7.524 118.15 6.71933 117.357 6.062C116.586 5.382 115.521 5.042 114.161 5.042C113.096 5.042 112.257 5.26867 111.645 5.722C111.056 6.17533 110.761 6.79867 110.761 7.592C110.761 8.15867 110.931 8.63467 111.271 9.02C111.634 9.40533 112.155 9.75667 112.835 10.074C113.538 10.3687 114.614 10.7767 116.065 11.298C117.674 11.8873 118.932 12.4087 119.839 12.862C120.768 13.3153 121.596 13.9953 122.321 14.902C123.069 15.786 123.443 16.942 123.443 18.37C123.443 20.5007 122.661 22.1893 121.097 23.436C119.533 24.66 117.414 25.272 114.739 25.272ZM149.416 4.906C149.416 5.01933 149.371 5.12133 149.28 5.212C149.212 5.28 149.122 5.314 149.008 5.314H137.89C137.777 5.314 137.72 5.37067 137.72 5.484V10.754C137.72 10.8673 137.777 10.924 137.89 10.924H145.2C145.314 10.924 145.404 10.9693 145.472 11.06C145.563 11.128 145.608 11.2187 145.608 11.332V14.63C145.608 14.7433 145.563 14.8453 145.472 14.936C145.404 15.004 145.314 15.038 145.2 15.038H137.89C137.777 15.038 137.72 15.0947 137.72 15.208V24.592C137.72 24.7053 137.675 24.8073 137.584 24.898C137.516 24.966 137.426 25 137.312 25H133.334C133.221 25 133.119 24.966 133.028 24.898C132.96 24.8073 132.926 24.7053 132.926 24.592V1.608C132.926 1.49467 132.96 1.404 133.028 1.336C133.119 1.24533 133.221 1.2 133.334 1.2H149.008C149.122 1.2 149.212 1.24533 149.28 1.336C149.371 1.404 149.416 1.49467 149.416 1.608V4.906ZM160.044 25.374C158.276 25.374 156.712 25.0113 155.352 24.286C154.015 23.5607 152.972 22.552 152.224 21.26C151.476 19.9453 151.102 18.438 151.102 16.738V9.462C151.102 7.78467 151.476 6.3 152.224 5.008C152.972 3.716 154.015 2.71867 155.352 2.016C156.712 1.29067 158.276 0.928 160.044 0.928C161.835 0.928 163.399 1.29067 164.736 2.016C166.096 2.71867 167.15 3.716 167.898 5.008C168.646 6.3 169.02 7.78467 169.02 9.462V16.738C169.02 18.438 168.646 19.9453 167.898 21.26C167.15 22.5747 166.096 23.5947 164.736 24.32C163.399 25.0227 161.835 25.374 160.044 25.374ZM160.044 21.26C161.291 21.26 162.3 20.8633 163.07 20.07C163.841 19.2767 164.226 18.2227 164.226 16.908V9.428C164.226 8.11333 163.841 7.05933 163.07 6.266C162.322 5.45 161.314 5.042 160.044 5.042C158.798 5.042 157.789 5.45 157.018 6.266C156.27 7.05933 155.896 8.11333 155.896 9.428V16.908C155.896 18.2227 156.27 19.2767 157.018 20.07C157.789 20.8633 158.798 21.26 160.044 21.26ZM185.412 25C185.185 25 185.026 24.898 184.936 24.694L180.686 15.276C180.64 15.1853 180.572 15.14 180.482 15.14H177.32C177.206 15.14 177.15 15.1967 177.15 15.31V24.592C177.15 24.7053 177.104 24.8073 177.014 24.898C176.946 24.966 176.855 25 176.742 25H172.764C172.65 25 172.548 24.966 172.458 24.898C172.39 24.8073 172.356 24.7053 172.356 24.592V1.608C172.356 1.49467 172.39 1.404 172.458 1.336C172.548 1.24533 172.65 1.2 172.764 1.2H182.488C183.938 1.2 185.208 1.49467 186.296 2.084C187.406 2.67333 188.256 3.512 188.846 4.6C189.458 5.688 189.764 6.946 189.764 8.374C189.764 9.91533 189.378 11.2413 188.608 12.352C187.837 13.44 186.76 14.2107 185.378 14.664C185.264 14.7093 185.23 14.7887 185.276 14.902L189.9 24.524C189.945 24.6147 189.968 24.6827 189.968 24.728C189.968 24.9093 189.843 25 189.594 25H185.412ZM177.32 5.314C177.206 5.314 177.15 5.37067 177.15 5.484V11.298C177.15 11.4113 177.206 11.468 177.32 11.468H181.774C182.726 11.468 183.496 11.1847 184.086 10.618C184.698 10.0513 185.004 9.31467 185.004 8.408C185.004 7.50133 184.698 6.76467 184.086 6.198C183.496 5.60867 182.726 5.314 181.774 5.314H177.32ZM15.694 54.154C16.034 55.2647 16.204 56.3413 16.204 57.384C16.204 58.54 16.0227 59.5827 15.66 60.512C15.1387 61.9627 14.2207 63.1187 12.906 63.98C11.5913 64.8187 10.05 65.238 8.282 65.238C6.55933 65.238 5.04067 64.83 3.726 64.014C2.434 63.1753 1.516 62.042 0.972 60.614C0.745333 60.0247 0.575333 59.4013 0.462 58.744V58.676C0.462 58.4267 0.598 58.302 0.87 58.302H4.984C5.21067 58.302 5.358 58.4267 5.426 58.676C5.44867 58.812 5.48267 58.9253 5.528 59.016C5.57333 59.1067 5.60733 59.186 5.63 59.254C5.85667 59.8433 6.19667 60.2967 6.65 60.614C7.10333 60.9313 7.636 61.09 8.248 61.09C8.88267 61.09 9.438 60.92 9.914 60.58C10.39 60.24 10.7413 59.764 10.968 59.152C11.1947 58.6987 11.308 58.1093 11.308 57.384C11.308 56.7267 11.206 56.1373 11.002 55.616C10.8433 55.0267 10.526 54.5733 10.05 54.256C9.574 53.9387 9.01867 53.78 8.384 53.78C7.74933 53.78 7.16 53.9273 6.616 54.222C6.072 54.5167 5.70933 54.902 5.528 55.378C5.46 55.6047 5.31267 55.718 5.086 55.718H0.904C0.790667 55.718 0.688667 55.684 0.598 55.616C0.53 55.5253 0.496 55.4233 0.496 55.31V41.608C0.496 41.4947 0.53 41.404 0.598 41.336C0.688667 41.2453 0.790667 41.2 0.904 41.2H14.946C15.0593 41.2 15.15 41.2453 15.218 41.336C15.3087 41.404 15.354 41.4947 15.354 41.608V44.906C15.354 45.0193 15.3087 45.1213 15.218 45.212C15.15 45.28 15.0593 45.314 14.946 45.314H5.46C5.34667 45.314 5.29 45.3707 5.29 45.484L5.256 50.516C5.256 50.6747 5.324 50.7087 5.46 50.618C6.48 49.9607 7.65867 49.632 8.996 49.632C10.5827 49.632 11.9653 50.04 13.144 50.856C14.3453 51.6493 15.1953 52.7487 15.694 54.154ZM30.7988 65C30.5494 65 30.3908 64.8867 30.3228 64.66L24.3048 41.642L24.2708 41.506C24.2708 41.302 24.3954 41.2 24.6448 41.2H28.8608C29.0874 41.2 29.2348 41.3133 29.3028 41.54L32.5328 55.378C32.5554 55.4687 32.5894 55.514 32.6348 55.514C32.6801 55.514 32.7141 55.4687 32.7368 55.378L35.8648 41.574C35.9328 41.3247 36.0801 41.2 36.3068 41.2H40.4208C40.6701 41.2 40.8288 41.3133 40.8968 41.54L44.2968 55.378C44.3194 55.446 44.3534 55.4913 44.3988 55.514C44.4441 55.514 44.4781 55.4687 44.5008 55.378L47.6288 41.574C47.6968 41.3247 47.8441 41.2 48.0708 41.2H52.0828C52.4001 41.2 52.5248 41.3473 52.4568 41.642L46.8808 64.66C46.8128 64.8867 46.6541 65 46.4048 65H42.3588C42.1321 65 41.9848 64.8867 41.9168 64.66L38.4488 49.938C38.4261 49.8473 38.3921 49.802 38.3468 49.802C38.3014 49.802 38.2674 49.8473 38.2448 49.938L35.0148 64.626C34.9694 64.8753 34.8221 65 34.5728 65H30.7988ZM55.4132 65C55.2998 65 55.1978 64.966 55.1072 64.898C55.0392 64.8073 55.0052 64.7053 55.0052 64.592V41.608C55.0052 41.4947 55.0392 41.404 55.1072 41.336C55.1978 41.2453 55.2998 41.2 55.4132 41.2H59.3912C59.5045 41.2 59.5952 41.2453 59.6632 41.336C59.7538 41.404 59.7992 41.4947 59.7992 41.608V64.592C59.7992 64.7053 59.7538 64.8073 59.6632 64.898C59.5952 64.966 59.5045 65 59.3912 65H55.4132ZM77.2648 41.608C77.2648 41.4947 77.2988 41.404 77.3668 41.336C77.4575 41.2453 77.5595 41.2 77.6728 41.2H81.6508C81.7641 41.2 81.8548 41.2453 81.9228 41.336C82.0135 41.404 82.0588 41.4947 82.0588 41.608V64.592C82.0588 64.7053 82.0135 64.8073 81.9228 64.898C81.8548 64.966 81.7641 65 81.6508 65H77.8088C77.5821 65 77.4235 64.9093 77.3328 64.728L68.5268 50.176C68.4815 50.108 68.4361 50.0853 68.3908 50.108C68.3455 50.108 68.3228 50.1533 68.3228 50.244L68.3908 64.592C68.3908 64.7053 68.3455 64.8073 68.2548 64.898C68.1868 64.966 68.0961 65 67.9828 65H64.0048C63.8915 65 63.7895 64.966 63.6988 64.898C63.6308 64.8073 63.5968 64.7053 63.5968 64.592V41.608C63.5968 41.4947 63.6308 41.404 63.6988 41.336C63.7895 41.2453 63.8915 41.2 64.0048 41.2H67.8468C68.0735 41.2 68.2321 41.2907 68.3228 41.472L77.0948 55.956C77.1401 56.024 77.1855 56.058 77.2308 56.058C77.2761 56.0353 77.2988 55.9787 77.2988 55.888L77.2648 41.608ZM99.3369 41.608C99.3369 41.4947 99.3709 41.404 99.4389 41.336C99.5296 41.2453 99.6316 41.2 99.7449 41.2H103.723C103.836 41.2 103.927 41.2453 103.995 41.336C104.086 41.404 104.131 41.4947 104.131 41.608V64.592C104.131 64.7053 104.086 64.8073 103.995 64.898C103.927 64.966 103.836 65 103.723 65H99.8809C99.6543 65 99.4956 64.9093 99.4049 64.728L90.5989 50.176C90.5536 50.108 90.5083 50.0853 90.4629 50.108C90.4176 50.108 90.3949 50.1533 90.3949 50.244L90.4629 64.592C90.4629 64.7053 90.4176 64.8073 90.3269 64.898C90.2589 64.966 90.1683 65 90.0549 65H86.0769C85.9636 65 85.8616 64.966 85.7709 64.898C85.7029 64.8073 85.6689 64.7053 85.6689 64.592V41.608C85.6689 41.4947 85.7029 41.404 85.7709 41.336C85.8616 41.2453 85.9636 41.2 86.0769 41.2H89.9189C90.1456 41.2 90.3043 41.2907 90.3949 41.472L99.1669 55.956C99.2123 56.024 99.2576 56.058 99.3029 56.058C99.3483 56.0353 99.3709 55.9787 99.3709 55.888L99.3369 41.608ZM124.265 44.906C124.265 45.0193 124.22 45.1213 124.129 45.212C124.061 45.28 123.97 45.314 123.857 45.314H112.705C112.592 45.314 112.535 45.3707 112.535 45.484V50.754C112.535 50.8673 112.592 50.924 112.705 50.924H120.015C120.128 50.924 120.219 50.9693 120.287 51.06C120.378 51.128 120.423 51.2187 120.423 51.332V54.63C120.423 54.7433 120.378 54.8453 120.287 54.936C120.219 55.004 120.128 55.038 120.015 55.038H112.705C112.592 55.038 112.535 55.0947 112.535 55.208V60.716C112.535 60.8293 112.592 60.886 112.705 60.886H123.857C123.97 60.886 124.061 60.9313 124.129 61.022C124.22 61.09 124.265 61.1807 124.265 61.294V64.592C124.265 64.7053 124.22 64.8073 124.129 64.898C124.061 64.966 123.97 65 123.857 65H108.149C108.036 65 107.934 64.966 107.843 64.898C107.775 64.8073 107.741 64.7053 107.741 64.592V41.608C107.741 41.4947 107.775 41.404 107.843 41.336C107.934 41.2453 108.036 41.2 108.149 41.2H123.857C123.97 41.2 124.061 41.2453 124.129 41.336C124.22 41.404 124.265 41.4947 124.265 41.608V44.906ZM140.313 65C140.086 65 139.927 64.898 139.837 64.694L135.587 55.276C135.541 55.1853 135.473 55.14 135.383 55.14H132.221C132.107 55.14 132.051 55.1967 132.051 55.31V64.592C132.051 64.7053 132.005 64.8073 131.915 64.898C131.847 64.966 131.756 65 131.643 65H127.665C127.551 65 127.449 64.966 127.359 64.898C127.291 64.8073 127.257 64.7053 127.257 64.592V41.608C127.257 41.4947 127.291 41.404 127.359 41.336C127.449 41.2453 127.551 41.2 127.665 41.2H137.389C138.839 41.2 140.109 41.4947 141.197 42.084C142.307 42.6733 143.157 43.512 143.747 44.6C144.359 45.688 144.665 46.946 144.665 48.374C144.665 49.9153 144.279 51.2413 143.509 52.352C142.738 53.44 141.661 54.2107 140.279 54.664C140.165 54.7093 140.131 54.7887 140.177 54.902L144.801 64.524C144.846 64.6147 144.869 64.6827 144.869 64.728C144.869 64.9093 144.744 65 144.495 65H140.313ZM132.221 45.314C132.107 45.314 132.051 45.3707 132.051 45.484V51.298C132.051 51.4113 132.107 51.468 132.221 51.468H136.675C137.627 51.468 138.397 51.1847 138.987 50.618C139.599 50.0513 139.905 49.3147 139.905 48.408C139.905 47.5013 139.599 46.7647 138.987 46.198C138.397 45.6087 137.627 45.314 136.675 45.314H132.221ZM155.961 65.272C154.148 65.272 152.561 64.9887 151.201 64.422C149.841 63.8327 148.787 63.0053 148.039 61.94C147.314 60.852 146.951 59.594 146.951 58.166V57.418C146.951 57.3047 146.985 57.214 147.053 57.146C147.144 57.0553 147.246 57.01 147.359 57.01H151.235C151.349 57.01 151.439 57.0553 151.507 57.146C151.598 57.214 151.643 57.3047 151.643 57.418V57.928C151.643 58.8347 152.063 59.6053 152.901 60.24C153.74 60.852 154.873 61.158 156.301 61.158C157.503 61.158 158.398 60.9087 158.987 60.41C159.577 59.8887 159.871 59.254 159.871 58.506C159.871 57.962 159.69 57.5087 159.327 57.146C158.965 56.7607 158.466 56.432 157.831 56.16C157.219 55.8653 156.233 55.4687 154.873 54.97C153.355 54.4487 152.063 53.916 150.997 53.372C149.955 52.828 149.071 52.0913 148.345 51.162C147.643 50.21 147.291 49.0427 147.291 47.66C147.291 46.3 147.643 45.11 148.345 44.09C149.048 43.07 150.023 42.288 151.269 41.744C152.516 41.2 153.955 40.928 155.587 40.928C157.31 40.928 158.84 41.234 160.177 41.846C161.537 42.458 162.591 43.3193 163.339 44.43C164.11 45.518 164.495 46.7873 164.495 48.238V48.748C164.495 48.8613 164.45 48.9633 164.359 49.054C164.291 49.122 164.201 49.156 164.087 49.156H160.177C160.064 49.156 159.962 49.122 159.871 49.054C159.803 48.9633 159.769 48.8613 159.769 48.748V48.476C159.769 47.524 159.373 46.7193 158.579 46.062C157.809 45.382 156.743 45.042 155.383 45.042C154.318 45.042 153.479 45.2687 152.867 45.722C152.278 46.1753 151.983 46.7987 151.983 47.592C151.983 48.1587 152.153 48.6347 152.493 49.02C152.856 49.4053 153.377 49.7567 154.057 50.074C154.76 50.3687 155.837 50.7767 157.287 51.298C158.897 51.8873 160.155 52.4087 161.061 52.862C161.991 53.3153 162.818 53.9953 163.543 54.902C164.291 55.786 164.665 56.942 164.665 58.37C164.665 60.5007 163.883 62.1893 162.319 63.436C160.755 64.66 158.636 65.272 155.961 65.272Z" fill="white"/>
</svg>
