<svg width="257" height="26" viewBox="0 0 257 26" fill="none" xmlns="http://www.w3.org/2000/svg">
<path d="M8.19901 25.374C5.70568 25.374 3.73368 24.6827 2.28301 23.3C0.832348 21.8947 0.107015 19.9907 0.107015 17.588V8.612C0.107015 6.25467 0.832348 4.38467 2.28301 3.002C3.73368 1.61933 5.70568 0.928 8.19901 0.928C10.6923 0.928 12.6643 1.61933 14.115 3.002C15.5883 4.38467 16.325 6.25467 16.325 8.612V17.588C16.325 19.9907 15.5883 21.8947 14.115 23.3C12.6643 24.6827 10.6923 25.374 8.19901 25.374ZM8.19901 21.26C9.21902 21.26 10.0237 20.954 10.613 20.342C11.225 19.7073 11.531 18.8687 11.531 17.826V8.476C11.531 7.43333 11.225 6.606 10.613 5.994C10.0237 5.35933 9.21902 5.042 8.19901 5.042C7.20168 5.042 6.39701 5.35933 5.78502 5.994C5.19568 6.606 4.90101 7.43333 4.90101 8.476V17.826C4.90101 18.8687 5.19568 19.7073 5.78502 20.342C6.39701 20.954 7.20168 21.26 8.19901 21.26ZM22.3284 1.302C22.4417 1.234 22.6117 1.2 22.8384 1.2H26.9524C27.0657 1.2 27.1564 1.24533 27.2244 1.336C27.3151 1.404 27.3604 1.49467 27.3604 1.608V24.592C27.3604 24.7053 27.3151 24.8073 27.2244 24.898C27.1564 24.966 27.0657 25 26.9524 25H22.9744C22.8611 25 22.7591 24.966 22.6684 24.898C22.6004 24.8073 22.5664 24.7053 22.5664 24.592V5.96C22.5664 5.91467 22.5437 5.86933 22.4984 5.824C22.4531 5.77867 22.4077 5.76733 22.3624 5.79L18.9964 6.708L18.8604 6.742C18.6564 6.742 18.5544 6.61733 18.5544 6.368L18.4524 3.444C18.4524 3.21733 18.5544 3.05867 18.7584 2.968L22.3284 1.302ZM50.0966 1.608C50.0966 1.49467 50.1306 1.404 50.1986 1.336C50.2892 1.24533 50.3912 1.2 50.5046 1.2H54.4826C54.5959 1.2 54.6866 1.24533 54.7546 1.336C54.8452 1.404 54.8906 1.49467 54.8906 1.608V24.592C54.8906 24.7053 54.8452 24.8073 54.7546 24.898C54.6866 24.966 54.5959 25 54.4826 25H50.5046C50.3912 25 50.2892 24.966 50.1986 24.898C50.1306 24.8073 50.0966 24.7053 50.0966 24.592V15.208C50.0966 15.0947 50.0399 15.038 49.9266 15.038H42.4126C42.2992 15.038 42.2426 15.0947 42.2426 15.208V24.592C42.2426 24.7053 42.1972 24.8073 42.1066 24.898C42.0386 24.966 41.9479 25 41.8346 25H37.8566C37.7432 25 37.6412 24.966 37.5506 24.898C37.4826 24.8073 37.4486 24.7053 37.4486 24.592V1.608C37.4486 1.49467 37.4826 1.404 37.5506 1.336C37.6412 1.24533 37.7432 1.2 37.8566 1.2H41.8346C41.9479 1.2 42.0386 1.24533 42.1066 1.336C42.1972 1.404 42.2426 1.49467 42.2426 1.608V10.754C42.2426 10.8673 42.2992 10.924 42.4126 10.924H49.9266C50.0399 10.924 50.0966 10.8673 50.0966 10.754V1.608ZM73.6878 25C73.4611 25 73.3138 24.8867 73.2458 24.66L72.2258 21.328C72.1805 21.2373 72.1238 21.192 72.0558 21.192H63.6918C63.6238 21.192 63.5671 21.2373 63.5218 21.328L62.5358 24.66C62.4678 24.8867 62.3205 25 62.0938 25H57.7758C57.6398 25 57.5378 24.966 57.4698 24.898C57.4018 24.8073 57.3905 24.6827 57.4358 24.524L64.7798 1.54C64.8478 1.31333 64.9951 1.2 65.2218 1.2H70.5598C70.7865 1.2 70.9338 1.31333 71.0018 1.54L78.3458 24.524C78.3685 24.5693 78.3798 24.626 78.3798 24.694C78.3798 24.898 78.2551 25 78.0058 25H73.6878ZM64.7458 17.282C64.7231 17.418 64.7685 17.486 64.8818 17.486H70.8658C71.0018 17.486 71.0471 17.418 71.0018 17.282L67.9418 7.184C67.9191 7.09333 67.8851 7.05933 67.8398 7.082C67.7945 7.082 67.7605 7.116 67.7378 7.184L64.7458 17.282ZM85.6675 25C85.4182 25 85.2595 24.8867 85.1915 24.66L79.1735 1.642L79.1395 1.506C79.1395 1.302 79.2642 1.2 79.5135 1.2H83.7295C83.9562 1.2 84.1035 1.31333 84.1715 1.54L87.4015 15.378C87.4242 15.4687 87.4582 15.514 87.5035 15.514C87.5488 15.514 87.5828 15.4687 87.6055 15.378L90.7335 1.574C90.8015 1.32467 90.9488 1.2 91.1755 1.2H95.2895C95.5388 1.2 95.6975 1.31333 95.7655 1.54L99.1655 15.378C99.1882 15.446 99.2222 15.4913 99.2675 15.514C99.3128 15.514 99.3468 15.4687 99.3695 15.378L102.497 1.574C102.565 1.32467 102.713 1.2 102.939 1.2H106.951C107.269 1.2 107.393 1.34733 107.325 1.642L101.749 24.66C101.681 24.8867 101.523 25 101.273 25H97.2275C97.0008 25 96.8535 24.8867 96.7855 24.66L93.3175 9.938C93.2948 9.84733 93.2608 9.802 93.2155 9.802C93.1702 9.802 93.1362 9.84733 93.1135 9.938L89.8835 24.626C89.8382 24.8753 89.6908 25 89.4415 25H85.6675ZM109.917 25C109.803 25 109.701 24.966 109.611 24.898C109.543 24.8073 109.509 24.7053 109.509 24.592V1.608C109.509 1.49467 109.543 1.404 109.611 1.336C109.701 1.24533 109.803 1.2 109.917 1.2H113.895C114.008 1.2 114.099 1.24533 114.167 1.336C114.257 1.404 114.303 1.49467 114.303 1.608V11.128C114.303 11.196 114.325 11.2413 114.371 11.264C114.416 11.264 114.461 11.2413 114.507 11.196L122.361 1.438C122.497 1.27933 122.667 1.2 122.871 1.2H127.359C127.54 1.2 127.653 1.25666 127.699 1.37C127.744 1.46067 127.721 1.574 127.631 1.71L120.049 11.4C119.981 11.4907 119.969 11.57 120.015 11.638L128.039 24.524C128.084 24.66 128.107 24.7393 128.107 24.762C128.107 24.9207 127.993 25 127.767 25H123.279C123.052 25 122.893 24.9093 122.803 24.728L116.751 14.936C116.728 14.8907 116.694 14.868 116.649 14.868C116.603 14.868 116.558 14.8907 116.513 14.936L114.371 17.622C114.325 17.7127 114.303 17.7807 114.303 17.826V24.592C114.303 24.7053 114.257 24.8073 114.167 24.898C114.099 24.966 114.008 25 113.895 25H109.917ZM142.188 25C141.939 25 141.78 24.8867 141.712 24.66L135.694 1.642L135.66 1.506C135.66 1.302 135.785 1.2 136.034 1.2H140.25C140.477 1.2 140.624 1.31333 140.692 1.54L143.922 15.378C143.945 15.4687 143.979 15.514 144.024 15.514C144.07 15.514 144.104 15.4687 144.126 15.378L147.254 1.574C147.322 1.32467 147.47 1.2 147.696 1.2H151.81C152.06 1.2 152.218 1.31333 152.286 1.54L155.686 15.378C155.709 15.446 155.743 15.4913 155.788 15.514C155.834 15.514 155.868 15.4687 155.89 15.378L159.018 1.574C159.086 1.32467 159.234 1.2 159.46 1.2H163.472C163.79 1.2 163.914 1.34733 163.846 1.642L158.27 24.66C158.202 24.8867 158.044 25 157.794 25H153.748C153.522 25 153.374 24.8867 153.306 24.66L149.838 9.938C149.816 9.84733 149.782 9.802 149.736 9.802C149.691 9.802 149.657 9.84733 149.634 9.938L146.404 24.626C146.359 24.8753 146.212 25 145.962 25H142.188ZM166.803 25C166.69 25 166.588 24.966 166.497 24.898C166.429 24.8073 166.395 24.7053 166.395 24.592V1.608C166.395 1.49467 166.429 1.404 166.497 1.336C166.588 1.24533 166.69 1.2 166.803 1.2H170.781C170.894 1.2 170.985 1.24533 171.053 1.336C171.144 1.404 171.189 1.49467 171.189 1.608V24.592C171.189 24.7053 171.144 24.8073 171.053 24.898C170.985 24.966 170.894 25 170.781 25H166.803ZM188.655 1.608C188.655 1.49467 188.689 1.404 188.757 1.336C188.847 1.24533 188.949 1.2 189.063 1.2H193.041C193.154 1.2 193.245 1.24533 193.313 1.336C193.403 1.404 193.449 1.49467 193.449 1.608V24.592C193.449 24.7053 193.403 24.8073 193.313 24.898C193.245 24.966 193.154 25 193.041 25H189.199C188.972 25 188.813 24.9093 188.723 24.728L179.917 10.176C179.871 10.108 179.826 10.0853 179.781 10.108C179.735 10.108 179.713 10.1533 179.713 10.244L179.781 24.592C179.781 24.7053 179.735 24.8073 179.645 24.898C179.577 24.966 179.486 25 179.373 25H175.395C175.281 25 175.179 24.966 175.089 24.898C175.021 24.8073 174.987 24.7053 174.987 24.592V1.608C174.987 1.49467 175.021 1.404 175.089 1.336C175.179 1.24533 175.281 1.2 175.395 1.2H179.237C179.463 1.2 179.622 1.29067 179.713 1.472L188.485 15.956C188.53 16.024 188.575 16.058 188.621 16.058C188.666 16.0353 188.689 15.9787 188.689 15.888L188.655 1.608ZM210.727 1.608C210.727 1.49467 210.761 1.404 210.829 1.336C210.919 1.24533 211.021 1.2 211.135 1.2H215.113C215.226 1.2 215.317 1.24533 215.385 1.336C215.475 1.404 215.521 1.49467 215.521 1.608V24.592C215.521 24.7053 215.475 24.8073 215.385 24.898C215.317 24.966 215.226 25 215.113 25H211.271C211.044 25 210.885 24.9093 210.795 24.728L201.989 10.176C201.943 10.108 201.898 10.0853 201.853 10.108C201.807 10.108 201.785 10.1533 201.785 10.244L201.853 24.592C201.853 24.7053 201.807 24.8073 201.717 24.898C201.649 24.966 201.558 25 201.445 25H197.467C197.353 25 197.251 24.966 197.161 24.898C197.093 24.8073 197.059 24.7053 197.059 24.592V1.608C197.059 1.49467 197.093 1.404 197.161 1.336C197.251 1.24533 197.353 1.2 197.467 1.2H201.309C201.535 1.2 201.694 1.29067 201.785 1.472L210.557 15.956C210.602 16.024 210.647 16.058 210.693 16.058C210.738 16.0353 210.761 15.9787 210.761 15.888L210.727 1.608ZM235.655 4.906C235.655 5.01933 235.609 5.12133 235.519 5.212C235.451 5.28 235.36 5.314 235.247 5.314H224.095C223.981 5.314 223.925 5.37067 223.925 5.484V10.754C223.925 10.8673 223.981 10.924 224.095 10.924H231.405C231.518 10.924 231.609 10.9693 231.677 11.06C231.767 11.128 231.813 11.2187 231.813 11.332V14.63C231.813 14.7433 231.767 14.8453 231.677 14.936C231.609 15.004 231.518 15.038 231.405 15.038H224.095C223.981 15.038 223.925 15.0947 223.925 15.208V20.716C223.925 20.8293 223.981 20.886 224.095 20.886H235.247C235.36 20.886 235.451 20.9313 235.519 21.022C235.609 21.09 235.655 21.1807 235.655 21.294V24.592C235.655 24.7053 235.609 24.8073 235.519 24.898C235.451 24.966 235.36 25 235.247 25H219.539C219.425 25 219.323 24.966 219.233 24.898C219.165 24.8073 219.131 24.7053 219.131 24.592V1.608C219.131 1.49467 219.165 1.404 219.233 1.336C219.323 1.24533 219.425 1.2 219.539 1.2H235.247C235.36 1.2 235.451 1.24533 235.519 1.336C235.609 1.404 235.655 1.49467 235.655 1.608V4.906ZM251.702 25C251.476 25 251.317 24.898 251.226 24.694L246.976 15.276C246.931 15.1853 246.863 15.14 246.772 15.14H243.61C243.497 15.14 243.44 15.1967 243.44 15.31V24.592C243.44 24.7053 243.395 24.8073 243.304 24.898C243.236 24.966 243.146 25 243.032 25H239.054C238.941 25 238.839 24.966 238.748 24.898C238.68 24.8073 238.646 24.7053 238.646 24.592V1.608C238.646 1.49467 238.68 1.404 238.748 1.336C238.839 1.24533 238.941 1.2 239.054 1.2H248.778C250.229 1.2 251.498 1.49467 252.586 2.084C253.697 2.67333 254.547 3.512 255.136 4.6C255.748 5.688 256.054 6.946 256.054 8.374C256.054 9.91533 255.669 11.2413 254.898 12.352C254.128 13.44 253.051 14.2107 251.668 14.664C251.555 14.7093 251.521 14.7887 251.566 14.902L256.19 24.524C256.236 24.6147 256.258 24.6827 256.258 24.728C256.258 24.9093 256.134 25 255.884 25H251.702ZM243.61 5.314C243.497 5.314 243.44 5.37067 243.44 5.484V11.298C243.44 11.4113 243.497 11.468 243.61 11.468H248.064C249.016 11.468 249.787 11.1847 250.376 10.618C250.988 10.0513 251.294 9.31467 251.294 8.408C251.294 7.50133 250.988 6.76467 250.376 6.198C249.787 5.60867 249.016 5.314 248.064 5.314H243.61Z" fill="white"/>
</svg>
