<svg width="15" height="12" viewBox="0 0 15 12" fill="none" xmlns="http://www.w3.org/2000/svg">
<g clip-path="url(#clip0_3518_27454)">
<path d="M12.7246 3.63145C13.3014 3.28495 13.7865 2.85245 14.1818 2.35445V2.35395C13.6541 2.54945 13.0928 2.67945 12.5066 2.74245C13.1093 2.43795 13.5696 1.95945 13.7859 1.38295C13.224 1.66645 12.6035 1.86645 11.9423 1.97845C11.4087 1.49745 10.6482 1.19995 9.81854 1.19995C8.20891 1.19995 6.91305 2.30545 6.91305 3.66045C6.91305 3.85545 6.93255 4.04295 6.98041 4.22145C4.56359 4.12145 2.4245 3.14145 0.987409 1.64795C0.736864 2.01645 0.589136 2.43795 0.589136 2.89145C0.589136 3.74345 1.10736 4.49845 1.88086 4.93595C1.41345 4.92845 0.9555 4.81345 0.567273 4.63295V4.65995C0.567273 5.85545 1.57477 6.84845 2.89664 7.07745C2.65968 7.13245 2.40205 7.15845 2.13436 7.15845C1.94823 7.15845 1.76032 7.14945 1.58423 7.11645C1.96064 8.09045 3.03018 8.80695 4.30064 8.83045C3.31145 9.48495 2.05518 9.87945 0.6955 9.87945C0.457364 9.87945 0.228682 9.87045 0 9.84595C1.28818 10.5485 2.81391 10.95 4.46018 10.95C9.59104 10.95 12.935 7.32795 12.7246 3.63145Z" fill="black"/>
</g>
<defs>
<clipPath id="clip0_3518_27454">
<rect width="14.1818" height="12" fill="white"/>
</clipPath>
</defs>
</svg>
