<svg width="40" height="40" viewBox="0 0 40 40" fill="none" xmlns="http://www.w3.org/2000/svg">
<circle cx="20" cy="20" r="20" fill="#6788FF"/>
<g clip-path="url(#clip0_3555_28000)">
<path d="M20.163 30.7683C18.2787 30.7683 16.3943 30.7691 14.5099 30.7683C13.5406 30.7676 12.9693 30.4042 12.6188 29.502C12.4779 29.1387 12.3708 28.7437 12.3467 28.3563C12.2706 27.1586 12.2532 25.9602 12.8419 24.8522C13.5142 23.5866 14.5333 22.753 15.924 22.3957C16.5111 22.245 17.084 22.3241 17.6229 22.6083C19.3053 23.4962 20.9906 23.5045 22.676 22.6218C23.3416 22.2736 24.0237 22.2472 24.7269 22.4824C26.6874 23.1374 27.968 24.8883 27.9974 27.029C28.0072 27.73 27.9658 28.4445 27.8309 29.1297C27.6907 29.8435 27.3093 30.4517 26.5389 30.6726C26.3075 30.7389 26.058 30.7645 25.8161 30.7653C23.9317 30.7721 22.0474 30.7683 20.163 30.7683Z" fill="white"/>
<path d="M20.1609 21.1111C17.152 21.1066 14.7144 18.6811 14.7227 15.6985C14.731 12.6685 17.1633 10.2497 20.1956 10.2565C23.1676 10.2633 25.5879 12.7273 25.5773 15.7339C25.566 18.6931 23.1269 21.1149 20.1609 21.1111Z" fill="white"/>
</g>
<defs>
<clipPath id="clip0_3555_28000">
<rect width="20.5128" height="20.5128" fill="white" transform="translate(10.2568 10.2565)"/>
</clipPath>
</defs>
</svg>
