<svg width="12" height="8" viewBox="0 0 12 8" fill="none" xmlns="http://www.w3.org/2000/svg">
<path d="M5.28342 2.88649H4.87151C4.68914 2.88649 4.53511 3.018 4.49231 3.19527C4.32415 3.89181 4.01064 4.43726 3.3369 5.10997L1.26708 7.12074C1.12132 7.26234 0.889377 7.26234 0.743619 7.12074L0.278819 6.6692C0.126403 6.52113 0.12706 6.27622 0.280268 6.12897L5.74995 0.872056C5.89552 0.732143 6.12567 0.732348 6.27099 0.87252L11.7207 6.12895C11.8735 6.27629 11.8739 6.52083 11.7217 6.66872L11.2575 7.11961C11.1113 7.26166 10.8785 7.26114 10.7329 7.11844L8.59893 5.02684C7.98321 4.39244 7.67671 3.86871 7.50909 3.19362C7.46529 3.01721 7.31161 2.88649 7.12985 2.88649H6.71658H5.28342Z" fill="white"/>
</svg>
