<svg width="12" height="8" viewBox="0 0 12 8" fill="none" xmlns="http://www.w3.org/2000/svg">
<path d="M5.28342 5.11351H4.87151C4.68914 5.11351 4.53511 4.982 4.49231 4.80473C4.32415 4.10819 4.01064 3.56274 3.3369 2.89003L1.26708 0.879262C1.12132 0.737662 0.889377 0.737662 0.743619 0.879262L0.278819 1.3308C0.126403 1.47887 0.12706 1.72378 0.280268 1.87103L5.74995 7.12794C5.89552 7.26786 6.12567 7.26765 6.27099 7.12748L11.7207 1.87105C11.8735 1.72371 11.8739 1.47917 11.7217 1.33128L11.2575 0.880395C11.1113 0.738343 10.8785 0.738861 10.7329 0.88156L8.59893 2.97316C7.98321 3.60756 7.67671 4.13129 7.50909 4.80638C7.46529 4.98279 7.31161 5.11351 7.12985 5.11351H6.71658H5.28342Z" fill="white"/>
</svg>
