<svg width="16" height="16" viewBox="0 0 16 16" fill="none" xmlns="http://www.w3.org/2000/svg">
<g opacity="0.8" clip-path="url(#clip0_1228_1551)">
<path d="M10.0944 4.75426C10.0766 4.70241 10.0565 4.65335 10.0331 4.60708C10.0643 4.65948 10.0844 4.7091 10.0944 4.75426Z" fill="white"/>
<path d="M7.96404 7.97143e-05C3.54581 0.0201499 -0.019433 3.61717 7.97142e-05 8.03596C0.0201499 12.4542 3.61829 16.0194 8.03596 15.9999C12.4542 15.9799 16.0194 12.3823 15.9999 7.9646C15.9799 3.54581 12.3823 -0.019433 7.96404 7.97143e-05ZM6.95105 7.60724C6.16107 7.60724 5.5205 6.96722 5.5205 6.17724C5.5205 5.38781 6.16107 4.74724 6.95105 4.74724C7.74048 4.74724 8.38105 5.38781 8.38105 6.17724C8.38161 6.96722 7.74104 7.60724 6.95105 7.60724ZM8.09171 9.15376L8.09896 9.14484L8.10676 9.13592C8.51486 9.39906 8.98093 9.49216 9.44645 9.50554C9.91252 9.51781 10.3875 9.48269 10.8547 9.38847C11.3213 9.29146 11.7802 9.14818 12.2234 8.96532C12.472 8.86274 12.7196 8.75068 12.9554 8.61911C12.9571 8.61799 12.9582 8.61744 12.9598 8.61632C13.1065 8.52824 13.2497 8.43513 13.3908 8.33924C13.4215 8.3175 13.451 8.29464 13.48 8.27123L13.4833 8.27513L13.4956 8.28962C13.136 8.61688 12.7079 8.85995 12.2719 9.07459C11.8315 9.28198 11.3721 9.45202 10.8976 9.57467C10.4249 9.69677 9.93148 9.78931 9.43195 9.7436C8.94079 9.69956 8.42287 9.52729 8.09171 9.15376ZM11.7623 7.60724C11.7618 7.43553 11.9 7.29726 12.0706 7.29559C12.2423 7.29503 12.3806 7.43274 12.3823 7.60389C12.3828 7.77505 12.2446 7.91498 12.074 7.91554C11.9028 7.91665 11.7634 7.77839 11.7623 7.60724ZM9.31209 15.2802C9.00323 13.1154 10.8937 10.9952 11.9597 9.91029C12.2016 9.66443 12.5757 9.32547 12.9236 8.96532C14.3073 7.67135 14.5827 6.12539 11.7506 5.35269C11.2137 5.19714 10.6573 4.97693 10.0937 4.75448C10.0759 4.70264 10.0558 4.65357 10.0324 4.6073C9.96771 4.4958 9.85454 4.36758 9.68339 4.22207C9.31543 3.90262 8.62357 3.91098 8.02648 4.05258C7.36639 3.89704 6.71523 3.84185 6.08915 3.99182C3.35069 4.74612 2.91026 6.0819 2.80377 7.69142C2.65882 9.43084 2.57408 10.727 1.91567 12.2078C1.0939 11.0225 0.609433 9.58471 0.602743 8.03317C0.584345 3.94777 3.88143 0.62114 7.96683 0.602743C12.0522 0.584345 15.3789 3.88087 15.3973 7.96627C15.414 11.6151 12.7842 14.6597 9.31209 15.2802Z" fill="white"/>
<path d="M7.95662 6.19047C7.95662 6.7463 7.50616 7.19621 6.95088 7.19621C6.39505 7.19621 5.94459 6.7463 5.94459 6.19047C5.94459 5.63464 6.39505 5.18473 6.95088 5.18473C7.50616 5.18417 7.95662 5.63464 7.95662 6.19047Z" fill="white"/>
</g>
<defs>
<clipPath id="clip0_1228_1551">
<rect width="16" height="16" fill="white"/>
</clipPath>
</defs>
</svg>
