<svg width="16" height="16" viewBox="0 0 16 16" fill="none" xmlns="http://www.w3.org/2000/svg">
<path opacity="0.8" d="M13.3182 9.40175C13.0633 9.5605 12.7631 9.58017 12.535 9.45338C12.2452 9.29217 12.0858 8.91461 12.0858 8.38954V6.81853C12.0858 6.0599 11.7814 5.52008 11.2723 5.37432C10.4096 5.12671 9.76079 6.16667 9.51695 6.55723L7.99546 8.98767V6.01705C7.97834 5.33358 7.75304 4.92476 7.32526 4.80148C7.0422 4.72 6.6187 4.75266 6.20731 5.37291L2.79856 10.7655C2.34221 9.912 2.10432 8.96159 2.10554 7.99688C2.10554 4.74845 4.74784 2.10587 7.99546 2.10587C11.2431 2.10587 13.885 4.74845 13.885 7.99688C13.885 8.0025 13.8864 8.00741 13.8868 8.01268C13.8868 8.0183 13.8857 8.02322 13.8861 8.02884C13.9167 8.65787 13.71 9.15801 13.3182 9.40175ZM15.1937 7.99723V7.98072L15.1933 7.96456C15.1751 4.00843 11.9536 0.796875 7.9951 0.796875C4.02631 0.796875 0.796875 4.02669 0.796875 7.99688C0.796875 11.9667 4.02631 15.1969 7.99546 15.1969C9.81676 15.1969 11.555 14.5148 12.8893 13.2768C13.1546 13.0309 13.1702 12.6168 12.9243 12.352C12.8073 12.2249 12.6434 12.1496 12.4694 12.143C12.2954 12.1364 12.1261 12.1991 11.9995 12.3169C10.918 13.3259 9.48499 13.8882 7.99546 13.8879C6.2565 13.8879 4.69187 13.1296 3.61278 11.927L6.68679 7.06404V9.30587C6.68679 10.3827 7.11065 10.7308 7.46607 10.8326C7.82185 10.9345 8.36549 10.8649 8.93623 9.95176L10.6271 7.25124C10.6812 7.16413 10.7312 7.08897 10.7768 7.024V8.38954C10.7768 9.39613 11.186 10.2011 11.8994 10.5977C12.5425 10.9552 13.351 10.9229 14.0098 10.5134C14.8083 10.0164 15.2386 9.10076 15.1937 7.99723Z" fill="white"/>
</svg>
