<svg width="14" height="16" viewBox="0 0 14 16" fill="none" xmlns="http://www.w3.org/2000/svg">
<path fill-rule="evenodd" clip-rule="evenodd" d="M11.4699 0C11.5077 0.00904957 11.5456 0.0178088 11.5835 0.0265697C11.67 0.0465493 11.7564 0.0665379 11.842 0.09C12.906 0.381563 13.6619 1.35656 13.6637 2.46969C13.668 5.02515 13.6669 7.5804 13.6659 10.1358L13.6653 11.9034C13.6653 12.2844 13.4011 12.5619 13.0476 12.5622C12.6891 12.5625 12.429 12.2819 12.429 11.8888C12.4287 10.3355 12.4287 8.78221 12.4287 7.22893V7.21005C12.4287 5.66149 12.4287 4.11293 12.4284 2.56437C12.4281 1.88031 12.0186 1.37625 11.3731 1.26625C11.281 1.25058 11.1854 1.2506 11.091 1.25062L11.0805 1.25062C10.2478 1.25027 9.41498 1.25019 8.58216 1.2501C7.19415 1.24995 5.80609 1.2498 4.41816 1.24844C4.3164 1.24844 4.21001 1.24031 4.11443 1.20938C3.88061 1.13437 3.71793 0.901562 3.70772 0.654062C3.6972 0.400625 3.83422 0.17 4.06093 0.0615625C4.0928 0.0462169 4.12541 0.0325157 4.15805 0.0188046C4.1726 0.0126921 4.18716 0.00657554 4.20165 0.0003125C6.62431 0 9.04728 0 11.4699 0ZM2.53142 15.9999C2.49802 15.9923 2.46456 15.9849 2.43109 15.9775C2.36009 15.9617 2.28904 15.946 2.21842 15.9283C1.12138 15.6549 0.33826 14.6587 0.336714 13.5137C0.333002 10.6805 0.331765 7.84774 0.337023 5.01462C0.339807 3.64931 1.43778 2.53743 2.7869 2.53306C4.77129 2.5265 6.75568 2.5265 8.74008 2.53306C10.083 2.53743 11.1856 3.64368 11.189 4.99899C11.1964 7.84242 11.1955 10.6859 11.1893 13.5293C11.1869 14.754 10.2813 15.7902 9.08091 15.9718C9.06114 15.9748 9.04193 15.9824 9.02272 15.99C9.01369 15.9935 9.00465 15.9971 8.99555 16.0002C6.84074 15.9999 4.68624 15.9999 2.53142 15.9999Z" fill="#EFEFE5"/>
</svg>
