<svg width="8" height="9" viewBox="0 0 8 9" fill="none" xmlns="http://www.w3.org/2000/svg">
<path fill-rule="evenodd" clip-rule="evenodd" d="M4.00011 0.333496C4.17691 0.333534 4.34645 0.403797 4.47144 0.52883L7.80478 3.86216C7.92621 3.9879 7.99341 4.1563 7.99189 4.3311C7.99037 4.50589 7.92026 4.6731 7.79665 4.79671C7.67305 4.92031 7.50584 4.99043 7.33104 4.99194C7.15624 4.99346 6.98784 4.92627 6.86211 4.80483L4.00011 1.94283L1.13811 4.80483C1.01237 4.92627 0.843972 4.99346 0.669175 4.99194C0.494377 4.99043 0.327169 4.92031 0.203563 4.79671C0.0799577 4.6731 0.00984493 4.50589 0.00832598 4.3311C0.00680704 4.1563 0.0740036 3.9879 0.195442 3.86216L3.52878 0.52883C3.65377 0.403797 3.82331 0.333534 4.00011 0.333496ZM4.00011 4.3335C4.17691 4.33353 4.34645 4.4038 4.47144 4.52883L7.80478 7.86216C7.92621 7.9879 7.99341 8.1563 7.99189 8.3311C7.99037 8.50589 7.92026 8.6731 7.79665 8.79671C7.67305 8.92031 7.50584 8.99043 7.33104 8.99195C7.15624 8.99346 6.98784 8.92627 6.86211 8.80483L4.00011 5.94283L1.13811 8.80483C1.01237 8.92627 0.843972 8.99346 0.669175 8.99195C0.494377 8.99043 0.327169 8.92031 0.203563 8.79671C0.0799577 8.6731 0.00984493 8.50589 0.00832598 8.3311C0.00680704 8.1563 0.0740036 7.9879 0.195442 7.86216L3.52878 4.52883C3.65377 4.4038 3.82331 4.33353 4.00011 4.3335Z" fill="#93E185"/>
</svg>
