<svg
                xmlns="http://www.w3.org/2000/svg"
                width="16"
                height="16"
                viewBox="0 0 16 16"
                fill="none"
              >
                <path
                  opacity="0.8"
                  d="M12.8497 3.5499C11.9497 3.1499 10.9997 2.8499 9.99971 2.6499H9.94971C9.84971 2.8499 9.69971 3.1499 9.59971 3.3999C8.49971 3.2499 7.44971 3.2499 6.39971 3.3999C6.29971 3.1499 6.14971 2.8999 6.04971 2.6499H5.99971C4.99971 2.7999 4.04971 3.0999 3.14971 3.5499C1.34971 6.2499 0.849713 8.8999 1.09971 11.4999V11.5499C2.29971 12.4499 3.44971 12.9499 4.59971 13.2999H4.64971C4.89971 12.9499 5.14971 12.5499 5.34971 12.1499V12.0999C4.94971 11.9499 4.59971 11.7999 4.24971 11.5999C4.19971 11.5999 4.19971 11.5499 4.24971 11.5499C4.29971 11.4999 4.39971 11.4499 4.44971 11.3999H4.49971C6.79971 12.4499 9.24971 12.4499 11.5497 11.3999H11.5997C11.6497 11.4499 11.7497 11.4999 11.7997 11.5499C11.8497 11.5499 11.7997 11.5999 11.7997 11.5999C11.4497 11.7999 11.0997 11.9999 10.6997 12.0999C10.6997 12.0999 10.6497 12.1499 10.6997 12.1499C10.8997 12.5499 11.1497 12.9499 11.3997 13.2999H11.4497C12.5997 12.9499 13.7497 12.3999 14.9497 11.5499V11.4999C15.2497 8.4999 14.4497 5.8999 12.8497 3.5499ZM5.69971 9.9499C4.99971 9.9499 4.44971 9.2999 4.44971 8.5499C4.44971 7.7999 4.99971 7.1499 5.69971 7.1499C6.39971 7.1499 6.94971 7.7999 6.94971 8.5499C6.94971 9.2999 6.39971 9.9499 5.69971 9.9499ZM10.3497 9.9499C9.64971 9.9499 9.09971 9.2999 9.09971 8.5499C9.09971 7.7999 9.64971 7.1499 10.3497 7.1499C11.0497 7.1499 11.5997 7.7999 11.5997 8.5499C11.5997 9.2999 11.0497 9.9499 10.3497 9.9499Z"
                  fill="white"
                  fill-opacity="0.8"
                />
              </svg>