<svg width="12" height="12" viewBox="0 0 12 12" fill="none" xmlns="http://www.w3.org/2000/svg">
<g clip-path="url(#clip0_1228_1941)">
<path d="M9.75 3.75369H8.71425C8.95661 3.3929 9.04995 2.95232 8.97473 2.52424C8.89951 2.09616 8.66156 1.7138 8.31073 1.45724C7.95989 1.20068 7.52339 1.08983 7.09265 1.14791C6.66191 1.20599 6.27035 1.4285 6 1.76882C5.72965 1.4285 5.33809 1.20599 4.90735 1.14791C4.47661 1.08983 4.04011 1.20068 3.68927 1.45724C3.33844 1.7138 3.10049 2.09616 3.02527 2.52424C2.95005 2.95232 3.04339 3.3929 3.28575 3.75369H2.25C2.05118 3.75399 1.86059 3.83311 1.72 3.97369C1.57941 4.11428 1.5003 4.30487 1.5 4.50369V6.00369C1.5003 6.20252 1.57941 6.39311 1.72 6.5337C1.86059 6.67428 2.05118 6.7534 2.25 6.75369V10.5037C2.2503 10.7025 2.32941 10.8931 2.47 11.0337C2.61059 11.1743 2.80118 11.2534 3 11.2537H9C9.19882 11.2534 9.38941 11.1743 9.53 11.0337C9.67059 10.8931 9.7497 10.7025 9.75 10.5037V6.75369C9.94882 6.7534 10.1394 6.67428 10.28 6.5337C10.4206 6.39311 10.4997 6.20252 10.5 6.00369V4.50369C10.4997 4.30487 10.4206 4.11428 10.28 3.97369C10.1394 3.83311 9.94882 3.75399 9.75 3.75369ZM6.375 2.81619C6.375 2.63077 6.42998 2.44952 6.533 2.29535C6.63601 2.14118 6.78243 2.02101 6.95373 1.95006C7.12504 1.8791 7.31354 1.86053 7.4954 1.89671C7.67725 1.93288 7.8443 2.02217 7.97541 2.15328C8.10652 2.28439 8.19581 2.45144 8.23199 2.6333C8.26816 2.81515 8.24959 3.00365 8.17864 3.17496C8.10768 3.34627 7.98752 3.49268 7.83335 3.5957C7.67918 3.69871 7.49792 3.75369 7.3125 3.75369H6.375V2.81619ZM4.6875 1.87869C4.93605 1.87899 5.17433 1.97786 5.35008 2.15361C5.52584 2.32936 5.6247 2.56764 5.625 2.81619V3.75369H4.6875C4.43886 3.75369 4.2004 3.65492 4.02459 3.47911C3.84877 3.30329 3.75 3.06483 3.75 2.81619C3.75 2.56755 3.84877 2.3291 4.02459 2.15328C4.2004 1.97747 4.43886 1.87869 4.6875 1.87869ZM2.25 4.50369H5.625V6.00369H2.25V4.50369ZM3 6.75369H5.625V10.5037H3V6.75369ZM9.00037 10.5037H6.375V6.75369H9L9.00037 10.5037ZM6.375 6.00369V4.50369H9.75L9.75037 6.00369H6.375Z" fill="#B073FF"/>
</g>
<defs>
<clipPath id="clip0_1228_1941">
<rect width="12" height="12" fill="white"/>
</clipPath>
</defs>
</svg>
