<svg width="16" height="16" viewBox="0 0 16 16" fill="none" xmlns="http://www.w3.org/2000/svg">
<path d="M7.61508 8.92911C7.54454 9.14072 7.50928 9.38759 7.50928 9.66973H8.56731C8.56731 9.39543 8.61041 9.17598 8.69662 9.0114C8.79067 8.83898 8.99835 8.63913 9.31968 8.41185C9.92315 7.97296 10.3424 7.57718 10.5776 7.22451C10.8205 6.86399 10.942 6.42902 10.942 5.9196C10.942 5.50423 10.8362 5.12412 10.6246 4.77928C10.4208 4.43444 10.1073 4.16014 9.68412 3.95637C9.2609 3.7526 8.73973 3.65072 8.12058 3.65072C7.54846 3.65072 7.0312 3.77219 6.56881 4.01515C6.10641 4.25027 5.74198 4.59119 5.47551 5.03791C5.21688 5.48463 5.08756 6.00973 5.08756 6.6132C5.08756 6.74643 5.09148 6.84832 5.09932 6.91885H6.16911C6.16127 6.84832 6.15735 6.74251 6.15735 6.60144C6.15735 5.99014 6.32585 5.51207 6.66285 5.16723C7.00769 4.81455 7.4936 4.63821 8.12058 4.63821C8.65352 4.63821 9.08065 4.75969 9.40197 5.00264C9.7233 5.2456 9.88397 5.55125 9.88397 5.9196C9.88397 6.26444 9.80167 6.57401 9.63709 6.84832C9.48035 7.12262 9.22564 7.37733 8.87296 7.61245C8.49677 7.86324 8.21071 8.09444 8.01478 8.30605C7.81885 8.50982 7.68561 8.7175 7.61508 8.92911Z" fill="white" fill-opacity="0.6"/>
<path d="M7.37996 11.9974H8.70838V10.622H7.37996V11.9974Z" fill="white" fill-opacity="0.6"/>
<path fill-rule="evenodd" clip-rule="evenodd" d="M7.99739 0.664062C3.94721 0.664062 0.664062 3.94721 0.664062 7.9974C0.664062 12.0476 3.94721 15.3307 7.99739 15.3307C12.0476 15.3307 15.3307 12.0476 15.3307 7.9974C15.3307 3.94721 12.0476 0.664062 7.99739 0.664062ZM1.9974 7.9974C1.9974 4.68359 4.68359 1.9974 7.99739 1.9974C11.3112 1.9974 13.9974 4.68359 13.9974 7.9974C13.9974 11.3112 11.3112 13.9974 7.99739 13.9974C4.68359 13.9974 1.9974 11.3112 1.9974 7.9974Z" fill="white" fill-opacity="0.6"/>
</svg>
