<svg width="32" height="32" viewBox="0 0 32 32" fill="none" xmlns="http://www.w3.org/2000/svg">
<g clip-path="url(#clip0_1053_33157)">
<path fill-rule="evenodd" clip-rule="evenodd" d="M17.776 14.1053C18.0124 14.159 18.1878 14.3526 18.1878 14.5818V15.0995V16.9005V17.4199C18.1878 17.6483 18.0135 17.8414 17.7783 17.8965C16.8781 18.1071 16.1798 18.4923 15.334 19.2661L12.5452 21.9479C12.3549 22.1308 12.3542 22.4234 12.5436 22.6072L13.1448 23.1905C13.342 23.3818 13.668 23.3812 13.8645 23.1893L20.873 16.3405C21.0599 16.1579 21.0602 15.8687 20.8737 15.6857L13.8645 8.81193C13.6681 8.6194 13.3416 8.61857 13.1442 8.81011L12.5421 9.39423C12.3533 9.57741 12.3533 9.86889 12.5421 10.0521L15.2231 12.6532C16.1201 13.4999 16.8473 13.8939 17.776 14.1053Z" fill="white"/>
</g>
<rect x="0.500122" y="0.5" width="30.9999" height="30.9999" rx="3.5" stroke="white" stroke-opacity="0.8"/>
<defs>
<clipPath id="clip0_1053_33157">
<rect x="0.00012207" width="31.9999" height="31.9999" rx="4" fill="white"/>
</clipPath>
</defs>
</svg>
