<svg width="26" height="16" viewBox="0 0 26 16" fill="none" xmlns="http://www.w3.org/2000/svg">
<rect x="0.5" y="0.5" width="25" height="15" rx="7.5" fill="#09090E"/>
<rect x="0.5" y="0.5" width="25" height="15" rx="7.5" stroke="#353539"/>
<g clip-path="url(#clip0_1228_1477)">
<path d="M12.0625 7.6875C12.5266 7.6875 12.8606 8.15531 13.2144 8.65031C13.6244 9.22437 14.0894 9.875 14.875 9.875C16.6469 9.875 17.3062 6.50312 17.375 6.125L16.76 6.01312C16.6094 6.83812 15.9356 9.25 14.875 9.25C14.4109 9.25 14.0769 8.78219 13.7231 8.28719C13.3131 7.71313 12.8481 7.0625 12.0625 7.0625C10.7544 7.0625 9.73594 9.37625 9.25 10.7381V3.625H8.625V11.75C8.62525 11.9157 8.69118 12.0745 8.80833 12.1917C8.92549 12.3088 9.08432 12.3748 9.25 12.375H17.375V11.75H9.57625C10.0481 10.1428 11.1137 7.6875 12.0625 7.6875Z" fill="white"/>
</g>
<defs>
<clipPath id="clip0_1228_1477">
<rect width="10" height="10" fill="white" transform="translate(8 3)"/>
</clipPath>
</defs>
</svg>
