<svg xmlns="http://www.w3.org/2000/svg" width="12" height="12" viewBox="0 0 12 12" fill="none">
<path d="M10.875 5.625C10.8735 4.33253 10.3594 3.09342 9.4455 2.1795C8.53158 1.26558 7.29247 0.751489 6 0.75C4.70753 0.751489 3.46842 1.26558 2.5545 2.1795C1.64058 3.09342 1.12649 4.33253 1.125 5.625C1.1249 5.68164 1.13772 5.73755 1.1625 5.78849C1.18727 5.83942 1.22335 5.88402 1.26797 5.91891C1.27011 5.92117 1.27246 5.92321 1.275 5.925L5.625 9.1875V10.125H5.25C5.15054 10.125 5.05516 10.1645 4.98484 10.2348C4.91451 10.3052 4.875 10.4005 4.875 10.5C4.875 10.5995 4.91451 10.6948 4.98484 10.7652C5.05516 10.8355 5.15054 10.875 5.25 10.875H6.75C6.84946 10.875 6.94484 10.8355 7.01517 10.7652C7.08549 10.6948 7.125 10.5995 7.125 10.5C7.125 10.4005 7.08549 10.3052 7.01517 10.2348C6.94484 10.1645 6.84946 10.125 6.75 10.125H6.375V9.1875L10.725 5.925C10.7716 5.89007 10.8094 5.84478 10.8354 5.79271C10.8614 5.74063 10.875 5.68322 10.875 5.625ZM10.1081 5.25H8.24203C8.16984 3.47109 7.59 2.32359 7.065 1.64062C7.87999 1.85975 8.60841 2.32303 9.1524 2.96824C9.69639 3.61346 10.0299 4.4097 10.1081 5.25ZM6 1.59375C6.25113 1.81575 6.47011 2.07164 6.65063 2.35406C7.00734 2.90625 7.42734 3.83766 7.49156 5.25H4.50844C4.57266 3.83766 4.99266 2.90625 5.34938 2.35594C5.52975 2.07286 5.74874 1.81632 6 1.59375ZM7.2375 6L6 8.22797L4.7625 6H7.2375ZM3.90422 6L4.81828 7.64484L2.625 6H3.90422ZM8.09578 6H9.375L7.18172 7.64484L8.09578 6ZM4.935 1.64062C4.41 2.32359 3.83016 3.47109 3.75797 5.25H1.89188C1.9701 4.4097 2.30361 3.61346 2.8476 2.96824C3.39159 2.32303 4.12001 1.85975 4.935 1.64062Z" fill="#B073FF"/>
</svg>