<svg width="144" height="32" viewBox="0 0 144 32" fill="none" xmlns="http://www.w3.org/2000/svg">
<path d="M16 31.9972V30.8047L128 30.8047V31.9972L16 31.9972Z" fill="#EFEFE5"/>
<path d="M8.21014 1.19255C7.84031 1.19255 7.48561 1.33889 7.22394 1.59943L1.60557 7.19363C1.34347 7.4546 1.1962 7.80875 1.1962 8.17805V10.6335V29.4161C1.1962 30.1845 1.82102 30.8074 2.59177 30.8074H16V32H2.59177C1.16037 32 0 30.8432 0 29.4161V10.6335V8.17805C0 7.49221 0.273506 6.8345 0.760259 6.34985L6.37863 0.75565C6.86459 0.271783 7.52332 0 8.21014 0H16V1.19255L8.21014 1.19255Z" fill="#EFEFE5"/>
<path d="M141.408 0C142.84 0 144 1.15683 144 2.58385V23.822C144 24.5078 143.726 25.1655 143.24 25.6502L137.621 31.2444C137.135 31.7282 136.477 32 135.79 32H128V30.8075H135.79C136.16 30.8075 136.514 30.6611 136.776 30.4006L142.394 24.8064C142.657 24.5454 142.804 24.1913 142.804 23.822V2.58385C142.804 1.81545 142.179 1.19255 141.408 1.19255L128 1.19255V0H141.408Z" fill="#EFEFE5"/>
<path d="M16 1.19255V6.45367e-06L128 0V1.19255L16 1.19255Z" fill="#EFEFE5"/>
</svg>
