<svg width="24" height="24" viewBox="0 0 24 24" fill="none" xmlns="http://www.w3.org/2000/svg">
<g clip-path="url(#clip0_1153_12783)">
<path d="M0.6 12C0.6 5.70395 5.70395 0.6 12 0.6C18.2961 0.6 23.4 5.70395 23.4 12C23.4 18.2961 18.2961 23.4 12 23.4C5.70395 23.4 0.6 18.2961 0.6 12Z" stroke="url(#paint0_linear_1153_12783)" stroke-width="1.2"/>
<g clip-path="url(#clip1_1153_12783)">
<path d="M17.9603 7.841C17.7094 7.58929 17.4114 7.38957 17.0832 7.2533C16.755 7.11702 16.4031 7.04688 16.0478 7.04688C15.6924 7.04688 15.3405 7.11702 15.0124 7.2533C14.6842 7.38957 14.3861 7.58929 14.1353 7.841L14.7743 8.48C14.9418 8.31247 15.1407 8.17958 15.3596 8.08891C15.5785 7.99824 15.8131 7.95157 16.05 7.95157C16.2869 7.95157 16.5216 7.99824 16.7404 8.08891C16.9593 8.17958 17.1582 8.31247 17.3258 8.48C17.4933 8.64754 17.6262 8.84643 17.7169 9.06532C17.8075 9.28422 17.8542 9.51883 17.8542 9.75575C17.8542 9.99268 17.8075 10.2273 17.7169 10.4462C17.6262 10.6651 17.4933 10.864 17.3258 11.0315L13.7258 14.6315C13.388 14.9699 12.9297 15.1602 12.4516 15.1606C11.9735 15.161 11.5149 14.9715 11.1765 14.6338C10.8382 14.296 10.6478 13.8377 10.6474 13.3596C10.647 12.8815 10.8365 12.4229 11.1743 12.0845L11.8088 11.4455L11.1743 10.8065L10.5353 11.4455C10.2836 11.6963 10.0838 11.9944 9.94756 12.3226C9.81129 12.6508 9.74114 13.0026 9.74114 13.358C9.74114 13.7134 9.81129 14.0652 9.94756 14.3934C10.0838 14.7216 10.2836 15.0197 10.5353 15.2705C11.0444 15.7732 11.7323 16.0532 12.4478 16.049C12.8045 16.0505 13.158 15.9812 13.4878 15.8453C13.8176 15.7094 14.1172 15.5094 14.3693 15.257L17.9693 11.657C18.4737 11.1496 18.7561 10.4626 18.7544 9.74714C18.7527 9.03164 18.4671 8.34606 17.9603 7.841Z" fill="white"/>
<path d="M6.68326 15.968C6.51523 15.8008 6.38189 15.6019 6.29091 15.383C6.19993 15.1641 6.15309 14.9293 6.15309 14.6923C6.15309 14.4552 6.19993 14.2204 6.29091 14.0015C6.38189 13.7826 6.51523 13.5838 6.68326 13.4165L10.2833 9.8165C10.4505 9.64847 10.6493 9.51513 10.8683 9.42415C11.0872 9.33317 11.3219 9.28633 11.559 9.28633C11.7961 9.28633 12.0308 9.33317 12.2498 9.42415C12.4687 9.51513 12.6675 9.64847 12.8348 9.8165C13.0017 9.98507 13.1332 10.1854 13.2213 10.4057C13.3094 10.626 13.3524 10.8618 13.3478 11.099C13.3491 11.337 13.3033 11.5728 13.2129 11.793C13.1226 12.0131 12.9894 12.2131 12.8213 12.3815L11.8673 13.349L12.5063 13.988L13.4603 13.034C13.9681 12.5262 14.2534 11.8374 14.2534 11.1193C14.2534 10.4011 13.9681 9.71233 13.4603 9.2045C12.9524 8.69668 12.2637 8.41139 11.5455 8.41139C10.8273 8.41139 10.1386 8.69668 9.63076 9.2045L6.03076 12.8045C5.77838 13.0554 5.57808 13.3538 5.44141 13.6824C5.30474 14.011 5.23438 14.3634 5.23438 14.7193C5.23438 15.0751 5.30474 15.4275 5.44141 15.7561C5.57808 16.0847 5.77838 16.3831 6.03076 16.634C6.54323 17.1328 7.23267 17.4079 7.94776 17.399C8.66916 17.3997 9.36154 17.115 9.87377 16.607L9.23477 15.968C9.06751 16.136 8.86871 16.2694 8.64978 16.3604C8.43085 16.4513 8.1961 16.4982 7.95902 16.4982C7.72193 16.4982 7.48718 16.4513 7.26825 16.3604C7.04932 16.2694 6.85052 16.136 6.68326 15.968Z" fill="white"/>
</g>
</g>
<defs>
<linearGradient id="paint0_linear_1153_12783" x1="24" y1="4.2" x2="-9.76043" y2="26.1533" gradientUnits="userSpaceOnUse">
<stop stop-color="#724CE8"/>
<stop offset="0.270833" stop-color="#C34C52"/>
<stop offset="0.520833" stop-color="#FEC8C8"/>
<stop offset="0.765625" stop-color="#4161BF"/>
<stop offset="1" stop-color="#724CE8"/>
</linearGradient>
<clipPath id="clip0_1153_12783">
<rect width="24" height="24" fill="white"/>
</clipPath>
<clipPath id="clip1_1153_12783">
<rect width="14.4" height="14.4" fill="white" transform="translate(4.79688 4.79688)"/>
</clipPath>
</defs>
</svg>
