<svg width="15" height="15" viewBox="0 0 15 15" fill="none" xmlns="http://www.w3.org/2000/svg">
<path d="M14.5023 13.7953L10.7263 10.0193C11.6337 8.92991 12.0861 7.53267 11.9896 6.11821C11.893 4.70374 11.2549 3.38095 10.2079 2.42501C9.16087 1.46908 7.78563 0.953592 6.36823 0.985798C4.95084 1.018 3.60043 1.59542 2.59793 2.59793C1.59542 3.60043 1.018 4.95084 0.985798 6.36823C0.953592 7.78563 1.46908 9.16087 2.42501 10.2079C3.38095 11.2549 4.70374 11.893 6.11821 11.9896C7.53267 12.0861 8.92991 11.6337 10.0193 10.7263L13.7953 14.5023L14.5023 13.7953ZM2.00226 6.50226C2.00226 5.61224 2.26618 4.74221 2.76064 4.00219C3.25511 3.26217 3.95791 2.68539 4.78018 2.3448C5.60245 2.0042 6.50725 1.91509 7.38016 2.08872C8.25308 2.26236 9.0549 2.69094 9.68424 3.32027C10.3136 3.94961 10.7422 4.75143 10.9158 5.62435C11.0894 6.49726 11.0003 7.40206 10.6597 8.22433C10.3191 9.0466 9.74234 9.7494 9.00232 10.2439C8.2623 10.7383 7.39227 11.0023 6.50226 11.0023C5.30919 11.0009 4.16536 10.5264 3.32174 9.68278C2.47811 8.83915 2.00358 7.69532 2.00226 6.50226Z" fill="white"/>
</svg>
