<svg width="16" height="16" viewBox="0 0 16 16" fill="none" xmlns="http://www.w3.org/2000/svg">
<path d="M3.35226 7.59589C3.35227 7.50754 3.36974 7.42007 3.40365 7.33849C3.43756 7.25691 3.48725 7.18284 3.54988 7.12052C3.61251 7.0582 3.68681 7.00886 3.76856 6.97534C3.8503 6.94182 3.93786 6.92478 4.02621 6.92519L5.14361 6.92883C5.32175 6.92883 5.49261 6.99961 5.61858 7.12558C5.74457 7.25155 5.81535 7.42241 5.81535 7.60057V11.8256C5.94113 11.7883 6.1027 11.7485 6.27948 11.7069C6.40227 11.678 6.51171 11.6085 6.59005 11.5096C6.66837 11.4108 6.71098 11.2883 6.71096 11.1622V5.92122C6.71096 5.74305 6.78172 5.57218 6.90769 5.44618C7.03366 5.32018 7.20452 5.24939 7.3827 5.24935H8.50231C8.68046 5.24939 8.85133 5.32018 8.9773 5.44618C9.10327 5.57218 9.17405 5.74305 9.17405 5.92122V10.7854C9.17405 10.7854 9.45437 10.6719 9.72741 10.5567C9.82884 10.5138 9.91539 10.442 9.97628 10.3502C10.0372 10.2584 10.0697 10.1508 10.0698 10.0406V4.24188C10.0698 4.06374 10.1405 3.89289 10.2665 3.76692C10.3924 3.64095 10.5632 3.57017 10.7414 3.57014H11.861C12.0392 3.57014 12.21 3.6409 12.336 3.76688C12.462 3.89285 12.5327 4.06372 12.5327 4.24188V9.01703C13.5034 8.31355 14.4871 7.4675 15.2677 6.45014C15.381 6.30247 15.4559 6.12906 15.4859 5.94539C15.5158 5.76173 15.4998 5.5735 15.4393 5.39752C15.0779 4.35788 14.5036 3.40511 13.7529 2.6002C13.0022 1.79529 12.0918 1.15595 11.0798 0.7231C10.0678 0.290252 8.97667 0.0734248 7.87611 0.0864951C6.77554 0.0995653 5.68983 0.342246 4.68845 0.799004C3.68706 1.25576 2.79205 1.91654 2.06069 2.73906C1.32934 3.56156 0.777742 4.5277 0.441207 5.57564C0.104673 6.62356 -0.00938924 7.7302 0.106318 8.82474C0.222025 9.91929 0.564956 10.9776 1.11316 11.932C1.20866 12.0967 1.34916 12.2306 1.51815 12.3182C1.68714 12.4057 1.8776 12.4433 2.06718 12.4263C2.27896 12.4077 2.54263 12.3813 2.85613 12.3445C2.99259 12.329 3.11859 12.2639 3.2101 12.1614C3.30163 12.059 3.35227 11.9265 3.35239 11.7892L3.35226 7.59589Z" fill="white"/>
<path d="M3.32812 14.3698C4.50826 15.2284 5.90293 15.7437 7.3578 15.8589C8.81268 15.9739 10.271 15.6843 11.5715 15.0219C12.872 14.3595 13.9638 13.3504 14.7264 12.106C15.4888 10.8616 15.8921 9.43051 15.8918 7.97109C15.8918 7.78897 15.8833 7.60881 15.8712 7.42969C12.9809 11.7403 7.64435 13.7556 3.32837 14.3692" fill="white" fill-opacity="0.6"/>
</svg>
