<svg width="22" height="22" viewBox="0 0 22 22" fill="none" xmlns="http://www.w3.org/2000/svg">
<path fill-rule="evenodd" clip-rule="evenodd" d="M9.11291 21.5323C9.7385 21.5341 10.3641 21.536 10.9897 21.536C11.4938 21.536 11.9979 21.5361 12.502 21.5363C14.014 21.5367 15.526 21.5372 17.038 21.5335C17.35 21.5322 17.6644 21.5148 17.9736 21.4711C20.077 21.1719 21.8695 19.1289 21.9417 16.8597C21.9819 15.5896 21.9765 14.3181 21.9711 13.0465C21.9688 12.4936 21.9665 11.9407 21.9679 11.3879C21.9679 11.3256 21.9603 11.2632 21.9522 11.2015C21.8747 10.6217 21.3438 10.1934 20.8018 10.2732C20.2283 10.3574 19.8767 10.8106 19.8755 11.4839C19.8743 12.1536 19.8749 12.8234 19.8755 13.4931C19.8763 14.4605 19.8771 15.4278 19.8726 16.3952C19.8645 18.071 18.7234 19.2854 17.1667 19.286C13.0471 19.2873 8.92705 19.2873 4.80754 19.286C3.25137 19.286 2.10331 18.0685 2.1004 16.3971C2.09457 12.7956 2.09399 9.19345 2.1004 5.59195C2.10331 3.92055 3.25137 2.70613 4.80928 2.70488C5.93747 2.70354 7.06565 2.7038 8.19383 2.70405C8.64511 2.70415 9.09638 2.70426 9.54765 2.70426C9.71766 2.70426 9.88762 2.70463 10.0576 2.705C10.4701 2.7059 10.8824 2.7068 11.2948 2.70239C11.7955 2.69677 12.1791 2.41935 12.3351 1.9655C12.5925 1.21802 12.086 0.461807 11.3146 0.460561C9.10869 0.45682 6.90339 0.45682 4.69809 0.463054C4.4233 0.463678 4.14385 0.486744 3.8743 0.543476C1.56595 1.02912 0.00803952 3.06709 0.00338208 5.61813C-0.00112447 8.14158 -0.000153315 10.6653 0.000817794 13.189C0.00122667 14.2515 0.00163554 15.314 0.00163554 16.3765C0.00163554 17.0286 0.0976954 17.662 0.314267 18.2748C0.947679 20.0678 2.63833 21.5684 4.87565 21.5409C6.28786 21.5241 7.70034 21.5282 9.11291 21.5323ZM19.82 3.98654C19.8433 3.96771 19.8698 3.94632 19.9009 3.92047C19.9009 4.04136 19.9009 4.11904 19.9004 4.19847C19.9004 4.51275 19.9005 4.82688 19.9006 5.14094C19.9008 5.45485 19.9009 5.76869 19.9009 6.08253C19.9009 6.47617 20.0507 6.79446 20.3865 7.00704C20.7281 7.22372 21.0889 7.24007 21.4444 7.04734C21.835 6.83593 21.9999 6.48843 21.9993 6.05158C21.9989 5.52219 21.9992 4.9928 21.9996 4.46341C22.0002 3.51055 22.0007 2.55768 21.997 1.60481C21.9947 0.892884 21.5587 0.463042 20.8464 0.46129C19.3163 0.457786 17.7862 0.458954 16.2561 0.461874C16.1262 0.461874 15.9915 0.47005 15.8674 0.504508C15.3655 0.644674 15.0525 1.12591 15.1149 1.64277C15.1778 2.16372 15.615 2.5521 16.1716 2.56086C16.5654 2.56702 16.9592 2.56582 17.353 2.56462C17.5567 2.564 17.7603 2.56338 17.964 2.56378C18.0145 2.56378 18.065 2.5669 18.1156 2.57001C18.1408 2.57157 18.1661 2.57312 18.1913 2.57429L18.2176 2.62627C18.2012 2.63839 18.1844 2.65004 18.1676 2.66168C18.1318 2.6865 18.096 2.71132 18.0643 2.74074C16.7703 3.9304 15.4768 5.12064 14.184 6.31089C13.8466 6.62139 13.5094 6.9321 13.1722 7.24281C12.3564 7.99457 11.5405 8.74639 10.7222 9.49558C10.4471 9.74787 10.2856 10.0451 10.3224 10.4218C10.3643 10.8505 10.5911 11.1589 10.9956 11.3131C11.4398 11.4818 11.8175 11.3487 12.1567 11.0356C14.2453 9.10947 16.3356 7.18569 18.4261 5.26166C18.8576 4.86445 19.2892 4.46723 19.7208 4.06998C19.7495 4.04344 19.7801 4.01876 19.82 3.98654Z" fill="#EFEFE5" fill-opacity="0.8"/>
</svg>
