<svg width="20" height="20" viewBox="0 0 20 20" fill="none" xmlns="http://www.w3.org/2000/svg">
<path d="M8.15156 0.275957L9.33956 0.743957C9.76333 0.910796 10.2346 0.910796 10.6584 0.743957L11.8464 0.275957C12.5457 0.000897855 13.3245 0.00791332 14.0188 0.295527C14.7131 0.58314 15.2688 1.12891 15.5688 1.81796L16.0776 2.98796C16.2592 3.40551 16.5924 3.73868 17.01 3.92036L18.18 4.42916C18.8693 4.72915 19.4153 5.28498 19.7029 5.97956C19.9906 6.67414 19.9974 7.45324 19.722 8.15276L19.254 9.34076C19.0874 9.76417 19.0874 10.2349 19.254 10.6584L19.722 11.8464C19.997 12.5457 19.99 13.3245 19.7024 14.0188C19.4148 14.7131 18.869 15.2688 18.18 15.5688L17.01 16.0776C16.5923 16.2591 16.2591 16.5923 16.0776 17.01L15.5688 18.18C15.2688 18.8693 14.7129 19.4153 14.0184 19.7029C13.3238 19.9906 12.5447 19.9974 11.8452 19.722L10.6572 19.254C10.2337 19.0874 9.76297 19.0874 9.33956 19.254L8.15156 19.722C7.45219 19.997 6.67338 19.99 5.97908 19.7024C5.28478 19.4148 4.72915 18.869 4.42916 18.18L3.92036 17.01C3.73868 16.5924 3.40551 16.2592 2.98796 16.0776L1.81796 15.5688C1.12862 15.2688 0.582633 14.7129 0.294997 14.0184C0.00736079 13.3238 0.000534892 12.5447 0.275957 11.8452L0.743957 10.6572C0.910482 10.2337 0.910482 9.76297 0.743957 9.33956L0.275957 8.15156C0.000897855 7.45219 0.00791332 6.67338 0.295527 5.97908C0.58314 5.28478 1.12891 4.72915 1.81796 4.42916L2.98796 3.92036C3.40551 3.73868 3.73868 3.40551 3.92036 2.98796L4.42916 1.81796C4.72915 1.12862 5.28498 0.582633 5.97956 0.294997C6.67414 0.00736079 7.45324 0.000534892 8.15276 0.275957H8.15156ZM13.1508 7.19996L8.77316 12.1248L6.82316 10.1748L5.97476 11.0232C6.66034 11.7087 8.77316 13.6306 8.77316 13.6306C8.77316 13.6306 12.9319 9.25257 14.0472 7.99796L13.1508 7.19996Z" fill="url(#paint0_linear_489_512)"/>
<defs>
<linearGradient id="paint0_linear_489_512" x1="26" y1="8" x2="16.6474" y2="37.8795" gradientUnits="userSpaceOnUse">
<stop stop-color="#724CE8"/>
<stop offset="0.270833" stop-color="#C34C52"/>
<stop offset="0.520833" stop-color="#FEC8C8"/>
<stop offset="0.765625" stop-color="#4161BF"/>
<stop offset="1" stop-color="#724CE8"/>
</linearGradient>
</defs>
</svg>
