<svg width="22" height="17" viewBox="0 0 22 17" fill="none" xmlns="http://www.w3.org/2000/svg">
<g clip-path="url(#clip0_3089_19)">
<path opacity="0.8" d="M18.2748 2.32461C16.9248 1.72461 15.4998 1.27461 13.9998 0.974609H13.9248C13.7748 1.27461 13.5498 1.72461 13.3998 2.09961C11.7498 1.87461 10.1748 1.87461 8.59981 2.09961C8.44981 1.72461 8.22481 1.34961 8.07481 0.974609H7.99981C6.49981 1.19961 5.07481 1.64961 3.72481 2.32461C1.02481 6.37461 0.274814 10.3496 0.649814 14.2496V14.3246C2.44981 15.6746 4.17481 16.4246 5.89981 16.9496H5.97481C6.34981 16.4246 6.72481 15.8246 7.02481 15.2246V15.1496C6.42481 14.9246 5.89981 14.6996 5.37481 14.3996C5.29981 14.3996 5.29981 14.3246 5.37481 14.3246C5.44981 14.2496 5.59981 14.1746 5.67481 14.0996H5.74981C9.19981 15.6746 12.8748 15.6746 16.3248 14.0996H16.3998C16.4748 14.1746 16.6248 14.2496 16.6998 14.3246C16.7748 14.3246 16.6998 14.3996 16.6998 14.3996C16.1748 14.6996 15.6498 14.9996 15.0498 15.1496C15.0498 15.1496 14.9748 15.2246 15.0498 15.2246C15.3498 15.8246 15.7248 16.4246 16.0998 16.9496H16.1748C17.8998 16.4246 19.6248 15.5996 21.4248 14.3246V14.2496C21.8748 9.74961 20.6748 5.84961 18.2748 2.32461ZM7.54981 11.9246C6.49981 11.9246 5.67481 10.9496 5.67481 9.82461C5.67481 8.69961 6.49981 7.72461 7.54981 7.72461C8.59981 7.72461 9.42481 8.69961 9.42481 9.82461C9.42481 10.9496 8.59981 11.9246 7.54981 11.9246ZM14.5248 11.9246C13.4748 11.9246 12.6498 10.9496 12.6498 9.82461C12.6498 8.69961 13.4748 7.72461 14.5248 7.72461C15.5748 7.72461 16.3998 8.69961 16.3998 9.82461C16.3998 10.9496 15.5748 11.9246 14.5248 11.9246Z" fill="white"/>
</g>
<defs>
<clipPath id="clip0_3089_19">
<rect width="22" height="17" fill="white"/>
</clipPath>
</defs>
</svg>
