<svg
                xmlns="http://www.w3.org/2000/svg"
                width="16"
                height="16"
                viewBox="0 0 16 16"
                fill="none"
              >
                <path
                  opacity="0.8"
                  d="M8.00005 1.45459C6.70548 1.45459 5.43998 1.83847 4.36359 2.5577C3.28719 3.27692 2.44825 4.29918 1.95284 5.49521C1.45743 6.69123 1.3278 8.0073 1.58036 9.277C1.83292 10.5467 2.45631 11.713 3.37171 12.6284C4.28711 13.5438 5.4534 14.1672 6.72309 14.4197C7.99279 14.6723 9.30886 14.5427 10.5049 14.0473C11.7009 13.5518 12.7232 12.7129 13.4424 11.6365C14.1616 10.5601 14.5455 9.29461 14.5455 8.00004C14.5455 6.26408 13.8559 4.59922 12.6284 3.37171C11.4009 2.1442 9.73601 1.45459 8.00005 1.45459ZM13.6104 7.53251H10.8052C10.7507 5.81063 10.3046 4.1238 9.50082 2.60004C10.6082 2.90296 11.596 3.53831 12.3309 4.42035C13.0658 5.30238 13.5124 6.38864 13.6104 7.53251ZM8.00005 13.6104C7.89575 13.6174 7.7911 13.6174 7.6868 13.6104C6.71821 12.0658 6.18065 10.2901 6.12992 8.46758H9.87018C9.82366 10.2888 9.29098 12.0644 8.32732 13.6104C8.21836 13.6181 8.109 13.6181 8.00005 13.6104ZM6.12992 7.53251C6.17643 5.71132 6.70912 3.9357 7.67277 2.38965C7.88095 2.36626 8.09109 2.36626 8.29927 2.38965C9.2728 3.93288 9.81523 5.7087 9.87018 7.53251H6.12992ZM6.48524 2.60004C5.68637 4.12497 5.24509 5.81173 5.19485 7.53251H2.38966C2.4877 6.38864 2.93431 5.30238 3.6692 4.42035C4.40409 3.53831 5.39188 2.90296 6.49927 2.60004H6.48524ZM2.41303 8.46758H5.21823C5.26702 10.188 5.70669 11.8747 6.50394 13.4C5.40003 13.0939 4.41631 12.4571 3.68498 11.5753C2.95366 10.6936 2.50979 9.60906 2.41303 8.46758ZM9.50082 13.4C10.3046 11.8763 10.7507 10.1895 10.8052 8.46758H13.6104C13.5124 9.61145 13.0658 10.6977 12.3309 11.5797C11.596 12.4618 10.6082 13.0971 9.50082 13.4Z"
                  fill="white"
                  fill-opacity="0.8"
                />
              </svg>