<svg width="82" height="26" viewBox="0 0 82 26" fill="none" xmlns="http://www.w3.org/2000/svg">
<path d="M12.3115 3.07655H18.6704C20.9554 3.07655 22.8071 4.93661 22.8071 7.23193V8.47445C22.8071 8.65116 22.9496 8.7944 23.1256 8.7944H25.5495C25.7253 8.7944 25.8679 8.65116 25.8679 8.47445V5.84617C25.8679 5.31605 25.6587 4.81013 25.2865 4.43625L21.4517 0.584064C21.0776 0.20647 20.5796 0 20.0499 0H12.3115V3.07655Z" fill="url(#paint0_linear_351_40)"/>
<path d="M12.3114 22.924H18.6705C20.9555 22.924 22.8072 21.064 22.8072 18.7686V14.1051C22.8072 13.9284 22.9497 13.7852 23.1257 13.7852H25.5495C25.7254 13.7852 25.868 13.9284 25.868 14.1051V20.1545C25.868 20.6845 25.6588 21.1905 25.2866 21.5643L21.4518 25.4165C21.0777 25.7941 20.5796 26.0006 20.05 26.0006H12.3114V22.924Z" fill="url(#paint1_linear_351_40)"/>
<path d="M12.934 0H5.81806C5.29589 0 4.78483 0.21391 4.41635 0.584064L0.581527 4.43625C0.209341 4.81013 0.00012207 5.31605 0.00012207 5.84431V13H3.06277V7.23193C3.06277 4.93661 4.91446 3.07655 7.19943 3.07655H12.934V0Z" fill="url(#paint2_linear_351_40)"/>
<path d="M12.934 25.9995H5.81806C5.29589 25.9995 4.78483 25.7856 4.41635 25.4155L0.581527 21.5632C0.209341 21.1894 0.00012207 20.6835 0.00012207 20.1552V12.6172H3.06277V18.7675C3.06277 21.063 4.91446 22.923 7.19943 22.923H12.934V25.9995Z" fill="url(#paint3_linear_351_40)"/>
<path d="M9.3602 15.0519C10.2688 15.0519 11.0053 14.2861 11.0053 13.3414C11.0053 12.3967 10.2688 11.6309 9.3602 11.6309C8.45164 11.6309 7.71509 12.3967 7.71509 13.3414C7.71509 14.2861 8.45164 15.0519 9.3602 15.0519Z" fill="#EFEFE5"/>
<path d="M16.7348 15.0519C17.6433 15.0519 18.3799 14.2861 18.3799 13.3414C18.3799 12.3967 17.6433 11.6309 16.7348 11.6309C15.8262 11.6309 15.0897 12.3967 15.0897 13.3414C15.0897 14.2861 15.8262 15.0519 16.7348 15.0519Z" fill="#EFEFE5"/>
<path d="M43.2482 18L41.9842 14.416H36.9442L35.6802 18H34.1602L38.1442 6.64H40.7842L44.7682 18H43.2482ZM37.4242 13.04H41.5042L39.7442 8.016H39.1842L37.4242 13.04Z" fill="#EFEFE5"/>
<path d="M46.202 6.64H47.642V18H46.202V6.64Z" fill="#EFEFE5"/>
<path d="M61.1065 6.64H62.5465V18H61.1065V12.928H54.5145V18H53.0745V6.64H54.5145V11.552H61.1065V6.64Z" fill="#EFEFE5"/>
<path d="M70.5379 10.32H71.9779V18H70.6339V16.736C70.0899 17.632 68.9059 18.256 67.9299 18.256C66.6019 18.256 65.0339 17.472 65.0339 15.088V10.32H66.4739V14.832C66.4739 16.272 67.0499 16.88 68.3939 16.88C69.1939 16.88 70.5379 16.304 70.5379 14.336V10.32Z" fill="#EFEFE5"/>
<path d="M78.3457 10.064C80.2017 10.064 81.7217 11.168 81.7217 13.552V14.768C81.7217 17.152 80.2017 18.256 78.3457 18.256C77.3377 18.256 76.2337 17.568 75.7377 16.624V18H74.2977V6.384H75.7377V11.696C76.2337 10.752 77.3377 10.064 78.3457 10.064ZM80.2817 14.512V13.808C80.2817 12.368 79.5937 11.44 78.0417 11.44C77.0817 11.44 75.7377 12.016 75.7377 13.984V14.336C75.7377 16.304 77.0817 16.88 78.0417 16.88C79.5937 16.88 80.2817 15.952 80.2817 14.512Z" fill="#EFEFE5"/>
<defs>
<linearGradient id="paint0_linear_351_40" x1="25.1305" y1="8.7807" x2="13.0783" y2="2.55899" gradientUnits="userSpaceOnUse">
<stop stop-color="#6C5AE6"/>
<stop offset="1" stop-color="#509ADD"/>
</linearGradient>
<linearGradient id="paint1_linear_351_40" x1="25.1304" y1="17.2199" x2="13.0782" y2="23.4416" gradientUnits="userSpaceOnUse">
<stop stop-color="#FC6756"/>
<stop offset="1" stop-color="#F8CF3E"/>
</linearGradient>
<linearGradient id="paint2_linear_351_40" x1="12.4235" y1="2.90789" x2="3.29037" y2="14.3231" gradientUnits="userSpaceOnUse">
<stop stop-color="#509ADD"/>
<stop offset="1" stop-color="#26F4D0"/>
</linearGradient>
<linearGradient id="paint3_linear_351_40" x1="10.1544" y1="23.0346" x2="2.90014" y2="12.578" gradientUnits="userSpaceOnUse">
<stop stop-color="#F8CF3E"/>
<stop offset="0.288195" stop-color="#F8CF3E"/>
<stop offset="1" stop-color="#27F3D1"/>
</linearGradient>
</defs>
</svg>
