<svg width="85" height="27" viewBox="0 0 85 27" fill="none" xmlns="http://www.w3.org/2000/svg">
<path opacity="0.6" d="M10.9319 13.2383C10.9319 14.1808 10.1886 14.9448 9.27131 14.9448C8.35401 14.9448 7.6118 14.1808 7.6118 13.2383C7.6118 12.2959 8.35511 11.5308 9.27131 11.5308C10.1875 11.5308 10.9319 12.2959 10.9319 13.2383ZM16.7 11.5341C15.7838 11.5341 15.0405 12.2992 15.0405 13.2417C15.0405 14.1841 15.7838 14.9481 16.7 14.9481C17.6162 14.9481 18.3606 14.1841 18.3606 13.2417C18.3606 12.2992 17.6173 11.5341 16.7 11.5341ZM2.96144 13.0975C2.88435 18.738 7.40147 23.3351 12.9857 23.3351C17.6801 23.3351 21.6202 20.0863 22.7092 15.6999C22.8194 15.2586 23.2059 14.9448 23.6574 14.9448H25.1792C25.6021 14.9448 25.9457 15.2907 25.9457 15.7165V22.4358C25.9457 22.855 25.6087 23.1954 25.1913 23.1954H24.1199C23.4305 23.1954 22.8711 23.7586 22.8711 24.4539V25.5327C22.8711 25.9518 22.5331 26.2922 22.1157 26.2922H3.85231C3.43605 26.2922 3.09799 25.9518 3.09799 25.5327V24.4539C3.09799 23.7586 2.53858 23.1954 1.84923 23.1954H0.777759C0.360404 23.1954 0.0234375 22.855 0.0234375 22.4358V4.04415C0.0234375 3.62503 0.360404 3.28463 0.777759 3.28463H1.84923C2.53858 3.28463 3.09799 2.72135 3.09799 2.02614V0.948382C3.09799 0.528146 3.43605 0.187744 3.85341 0.187744H22.1168C22.5342 0.187744 22.8722 0.528146 22.8722 0.947273V2.02614C22.8722 2.72135 23.4316 3.28463 24.121 3.28463H25.1924C25.6098 3.28463 25.9468 3.62503 25.9468 4.04415V10.7568C25.9468 11.1837 25.6032 11.5308 25.1781 11.5308H23.6783C23.2136 11.5308 22.8161 11.2092 22.7026 10.7557C21.6091 6.40147 17.7043 3.17485 13.0473 3.14603C7.56885 3.11276 3.03742 7.58123 2.96144 13.0975Z" fill="#F6F6F0"/>
<g opacity="0.6">
<path d="M10.957 13.2386C10.957 14.1795 10.1995 14.9423 9.26502 14.9423C8.33054 14.9423 7.573 14.1795 7.573 13.2386C7.573 12.2977 8.33054 11.5349 9.26502 11.5349C10.1995 11.5349 10.957 12.2977 10.957 13.2386Z" fill="#F6F6F0"/>
<path d="M18.3903 13.2386C18.3903 14.1795 17.6328 14.9423 16.6983 14.9423C15.7638 14.9423 15.0063 14.1795 15.0063 13.2386C15.0063 12.2977 15.7638 11.5349 16.6983 11.5349C17.6328 11.5349 18.3903 12.2977 18.3903 13.2386Z" fill="#F6F6F0"/>
</g>
<g opacity="0.6">
<path fill-rule="evenodd" clip-rule="evenodd" d="M44.705 15.9703L43.0702 11.306H36.552L34.9172 15.9703H32.9514L38.1039 1.18628H41.5183L46.6708 15.9703H44.705ZM36.5246 8.2908H37.5991L39.449 2.97702H40.1732L42.0232 8.2908H43.0314V9.51715H41.6874V9.5153H37.8686V9.51715H36.5246V8.2908Z" fill="#F6F6F0"/>
<path d="M50.5945 1.18628V15.9703H48.7322V1.18628H50.5945Z" fill="#F6F6F0"/>
<path d="M64.118 1.18628H66.0838L61.1382 15.9703H57.5997L52.6541 1.18628H54.62L58.8748 14.1554V14.9152H59.855V14.1795L64.118 1.18628Z" fill="#F6F6F0"/>
<path d="M84.0234 1.18628V15.9703H82.1611V4.20598H83.0228V2.97601H81.6788V2.97702H81.2299L77.7535 15.9703H74.4219L70.9455 2.97702H70.0143V2.9791H69.1585V4.20906H70.0143V15.9703H68.152V1.18628H72.3526L75.829 14.1795H76.3464L79.8228 1.18628H84.0234Z" fill="#F6F6F0"/>
<path d="M49.1571 23.5266C49.1221 23.7988 49.0523 24.0494 48.9474 24.2785C48.8426 24.5049 48.7069 24.6989 48.5403 24.8606C48.371 25.025 48.1708 25.1531 47.9396 25.2447C47.7112 25.3336 47.4559 25.3781 47.1737 25.3781C46.9318 25.3781 46.7114 25.3444 46.5126 25.277C46.3164 25.207 46.1417 25.1113 45.9885 24.99C45.8326 24.8687 45.6983 24.7259 45.5854 24.5615C45.4752 24.3971 45.3838 24.2179 45.3113 24.0238C45.236 23.8298 45.1796 23.6263 45.1419 23.4134C45.107 23.2005 45.0882 22.9848 45.0855 22.7665V21.9459C45.0882 21.7276 45.107 21.512 45.1419 21.2991C45.1796 21.0861 45.236 20.8827 45.3113 20.6886C45.3838 20.4946 45.4752 20.3153 45.5854 20.1509C45.6983 19.9838 45.8326 19.8397 45.9885 19.7184C46.1417 19.5971 46.3164 19.5028 46.5126 19.4354C46.7088 19.3653 46.9291 19.3303 47.1737 19.3303C47.4666 19.3303 47.7287 19.3761 47.9598 19.4677C48.1909 19.5567 48.3898 19.6833 48.5564 19.8477C48.723 20.0148 48.8561 20.2143 48.9555 20.4461C49.0576 20.6778 49.1248 20.9339 49.1571 21.2142H48.4113C48.3871 21.0363 48.3454 20.8705 48.2863 20.7169C48.2272 20.5633 48.1479 20.4285 48.0485 20.3126C47.949 20.1968 47.8268 20.1065 47.6816 20.0418C47.5392 19.9744 47.3699 19.9407 47.1737 19.9407C46.9963 19.9407 46.8391 19.9704 46.702 20.0297C46.5677 20.0863 46.4521 20.1644 46.3554 20.2641C46.2559 20.3639 46.1726 20.4797 46.1054 20.6118C46.0409 20.7439 45.9885 20.884 45.9482 21.0322C45.9079 21.1805 45.8783 21.3327 45.8595 21.4891C45.8434 21.6427 45.8353 21.7923 45.8353 21.9378V22.7665C45.8353 22.9121 45.8434 23.063 45.8595 23.2193C45.8783 23.3729 45.9079 23.5239 45.9482 23.6721C45.9885 23.823 46.0409 23.9645 46.1054 24.0966C46.1699 24.2286 46.2519 24.3445 46.3513 24.4442C46.4508 24.5467 46.5677 24.6275 46.702 24.6868C46.8364 24.7434 46.9936 24.7717 47.1737 24.7717C47.3699 24.7717 47.5392 24.7407 47.6816 24.6787C47.8268 24.6167 47.949 24.5291 48.0485 24.4159C48.1479 24.3055 48.2272 24.1747 48.2863 24.0238C48.3454 23.8702 48.3871 23.7044 48.4113 23.5266H49.1571Z" fill="#F6F6F0"/>
<path fill-rule="evenodd" clip-rule="evenodd" d="M32.9514 19.4111V25.2972H34.83C35.0799 25.2946 35.3218 25.2555 35.5556 25.18C35.7921 25.1045 36.0004 24.9954 36.1805 24.8526C36.3605 24.7124 36.5043 24.5372 36.6118 24.327C36.7193 24.1168 36.7717 23.8742 36.769 23.5993C36.769 23.4241 36.7421 23.2611 36.6884 23.1102C36.6373 22.9592 36.5648 22.8231 36.4707 22.7019C36.382 22.5914 36.2691 22.4903 36.1321 22.3987C35.995 22.307 35.8526 22.2437 35.7048 22.2087V22.1965C35.8472 22.1345 35.9681 22.0685 36.0676 21.9984C36.1697 21.9284 36.2624 21.8421 36.3457 21.7397C36.4264 21.64 36.4895 21.5268 36.5352 21.4001C36.5836 21.2735 36.6091 21.1333 36.6118 20.9797C36.6145 20.7048 36.5621 20.469 36.4546 20.2722C36.3471 20.0755 36.2033 19.9138 36.0232 19.7871C35.8432 19.6604 35.6376 19.5675 35.4065 19.5082C35.1753 19.4462 34.9388 19.4138 34.697 19.4111H32.9514ZM33.7012 24.6626V22.5442H34.8905C35.049 22.5496 35.1968 22.5765 35.3339 22.6251C35.471 22.6736 35.5905 22.7423 35.6927 22.8312C35.7948 22.9229 35.8741 23.0334 35.9305 23.1627C35.9896 23.2921 36.0179 23.4403 36.0152 23.6074C36.0152 23.7718 35.9829 23.9187 35.9184 24.0481C35.8566 24.1774 35.772 24.2866 35.6645 24.3755C35.557 24.4645 35.4333 24.5345 35.2936 24.5857C35.1538 24.6343 35.006 24.6599 34.8501 24.6626H33.7012ZM34.7413 21.9216H33.7012V20.0499H34.7211C34.8663 20.0526 35.0074 20.0714 35.1444 20.1065C35.2842 20.1415 35.4078 20.1954 35.5153 20.2682C35.6201 20.3436 35.7034 20.4393 35.7652 20.5552C35.8297 20.6711 35.862 20.8112 35.862 20.9756C35.862 21.1293 35.8297 21.264 35.7652 21.3799C35.7007 21.4958 35.6161 21.5928 35.5113 21.671C35.4065 21.7518 35.2869 21.8138 35.1525 21.8569C35.0181 21.8974 34.881 21.9189 34.7413 21.9216Z" fill="#F6F6F0"/>
<path d="M40.9857 19.4111L39.6473 22.3663L38.313 19.4111H37.4624L39.2886 23.1021L39.3006 25.2972H39.994L40.0061 23.1021L41.8323 19.4111H40.9857Z" fill="#F6F6F0"/>
<path d="M53.2891 25.2972H53.9946V19.4111H53.2891V21.9418H50.8825V19.4111H50.181V25.2972H50.8825V22.5765H53.2891V25.2972Z" fill="#F6F6F0"/>
<path fill-rule="evenodd" clip-rule="evenodd" d="M58.0742 23.7732H56.115L55.6434 25.2972H54.8976L56.7923 19.4111H57.4171L59.2796 25.2972H58.5378L58.0742 23.7732ZM56.3166 23.1223H57.8767L57.1027 20.5673L56.3166 23.1223Z" fill="#F6F6F0"/>
<path d="M63.7785 19.4111H60.2309V20.062H61.6056V24.6504H60.2309V25.2972H63.7785V24.6504H62.3715V20.062H63.7785V19.4111Z" fill="#F6F6F0"/>
<path d="M68.8659 25.2972H68.108L65.8304 20.8988L65.8183 25.2972H65.0644V19.4111H65.8223L68.1 23.8015L68.1121 19.4111H68.8659V25.2972Z" fill="#F6F6F0"/>
<path d="M73.655 24.8202C73.7572 24.7313 73.8539 24.6329 73.9453 24.5251L73.9332 22.3663H72.0304V22.997H73.2237L73.2156 24.3189C73.1538 24.4079 73.0772 24.4806 72.9858 24.5372C72.8945 24.5911 72.7964 24.6343 72.6916 24.6666C72.5868 24.6989 72.4779 24.7205 72.365 24.7313C72.2548 24.7421 72.1487 24.7461 72.0466 24.7434C71.8692 24.7407 71.7106 24.7097 71.5709 24.6504C71.4311 24.5884 71.3088 24.5062 71.204 24.4038C71.0965 24.3014 71.0052 24.1828 70.9299 24.0481C70.8547 23.9133 70.7928 23.7705 70.7445 23.6195C70.6961 23.4686 70.6598 23.315 70.6356 23.1587C70.6141 22.9997 70.602 22.846 70.5993 22.6978V22.0065C70.5993 21.861 70.6087 21.7101 70.6276 21.5537C70.6464 21.3974 70.6773 21.2438 70.7203 21.0929C70.7633 20.942 70.8184 20.7991 70.8856 20.6644C70.9527 20.5269 71.0374 20.407 71.1395 20.3046C71.2417 20.2022 71.3612 20.1213 71.4983 20.062C71.6354 20 71.7926 19.969 71.97 19.969C72.1554 19.969 72.318 19.9987 72.4577 20.058C72.5975 20.1146 72.7184 20.1941 72.8206 20.2965C72.92 20.3989 73.0006 20.5229 73.0624 20.6684C73.1242 20.8112 73.1699 20.9676 73.1995 21.1374H73.9372C73.913 20.8625 73.8485 20.6145 73.7437 20.3935C73.6389 20.1698 73.5005 19.9785 73.3285 19.8194C73.1565 19.6631 72.9549 19.5432 72.7238 19.4596C72.4927 19.3734 72.2401 19.3303 71.9659 19.3303C71.7187 19.3303 71.4956 19.3667 71.2967 19.4394C71.0979 19.5122 70.9205 19.6106 70.7646 19.7345C70.6061 19.8612 70.4703 20.0108 70.3575 20.1833C70.2446 20.3531 70.1505 20.5377 70.0753 20.7371C70 20.9366 69.9436 21.1454 69.906 21.3637C69.871 21.5793 69.8522 21.7963 69.8495 22.0146V22.6978C69.8522 22.9188 69.8737 23.1385 69.914 23.3568C69.957 23.5724 70.0202 23.7786 70.1035 23.9753C70.1841 24.1747 70.2849 24.3594 70.4058 24.5291C70.5268 24.6989 70.6679 24.8458 70.8291 24.9698C70.9904 25.0965 71.1718 25.1962 71.3733 25.269C71.5776 25.339 71.8007 25.3754 72.0425 25.3781C72.2817 25.3808 72.5102 25.3538 72.7278 25.2972C72.9455 25.2433 73.1484 25.1598 73.3366 25.0466C73.4468 24.9819 73.5529 24.9065 73.655 24.8202Z" fill="#F6F6F0"/>
<path fill-rule="evenodd" clip-rule="evenodd" d="M75.9206 22.9363V25.2972H75.1748V19.4111H77.0776C77.3409 19.4165 77.5895 19.4583 77.8234 19.5365C78.0599 19.6146 78.2668 19.7278 78.4442 19.876C78.6215 20.0243 78.7613 20.2075 78.8634 20.4258C78.9682 20.6441 79.0206 20.8948 79.0206 21.1778C79.0206 21.4608 78.9682 21.7114 78.8634 21.9297C78.7613 22.1453 78.6215 22.3272 78.4442 22.4755C78.2668 22.6237 78.0599 22.7369 77.8234 22.8151C77.5895 22.8932 77.3409 22.9336 77.0776 22.9363H75.9206ZM75.9206 22.3219H77.0776C77.2496 22.3192 77.4081 22.2922 77.5533 22.241C77.6984 22.1871 77.8247 22.1116 77.9322 22.0146C78.0397 21.9176 78.123 21.8003 78.1821 21.6629C78.2439 21.5228 78.2749 21.3637 78.2749 21.1859C78.2749 21.008 78.2439 20.8476 78.1821 20.7048C78.123 20.5619 78.041 20.4407 77.9362 20.3409C77.8287 20.2412 77.7011 20.1644 77.5533 20.1105C77.4081 20.0566 77.2496 20.0283 77.0776 20.0256H75.9206V22.3219Z" fill="#F6F6F0"/>
<path d="M82.2094 20.0499H84.0234V19.4111H79.6697V20.0499H81.4837V25.2972H82.2094V20.0499Z" fill="#F6F6F0"/>
</g>
</svg>
