<svg width="24" height="14" viewBox="0 0 24 14" fill="none" xmlns="http://www.w3.org/2000/svg">
<path opacity="0.7" d="M10.5668 9.22445H9.74301C9.37829 9.22445 9.07022 8.96143 8.98463 8.60689C8.64829 7.2138 8.02128 6.12291 6.67379 4.77751L2.53415 0.75596C2.24264 0.472761 1.77875 0.472761 1.48724 0.755961L0.557637 1.65904C0.252806 1.95517 0.254119 2.445 0.560535 2.7395L11.4999 13.2533C11.791 13.5331 12.2513 13.5327 12.542 13.2524L23.4414 2.73954C23.7469 2.44486 23.7478 1.95577 23.4433 1.66L22.5151 0.758226C22.2226 0.474123 21.757 0.475158 21.4658 0.760557L17.1979 4.94375C15.9664 6.21256 15.3534 7.26002 15.0182 8.6102C14.9306 8.96301 14.6232 9.22445 14.2597 9.22445H13.4332H10.5668Z" fill="#1E1E1E"/>
</svg>
