<svg width="24" height="24" viewBox="0 0 24 24" fill="none" xmlns="http://www.w3.org/2000/svg">
<path d="M12 24C18.6274 24 24 18.6274 24 12C24 5.37258 18.6274 0 12 0C5.37258 0 0 5.37258 0 12C0 18.6274 5.37258 24 12 24Z" fill="#EDBC04"/>
<path fill-rule="evenodd" clip-rule="evenodd" d="M12.1576 8.31745L14.5663 10.7267C14.653 10.8133 14.7935 10.8133 14.8801 10.7267L16.1497 9.45675C16.2363 9.37013 16.2363 9.22969 16.1497 9.14307L12.1575 5.14996C12.0709 5.06329 11.9304 5.06329 11.8438 5.14996L7.85305 9.14162C7.76643 9.22823 7.76643 9.36868 7.85305 9.4553L9.12268 10.7252C9.2093 10.8119 9.3498 10.8119 9.43641 10.7252L11.8438 8.31745C11.9305 8.23078 12.071 8.23078 12.1576 8.31745ZM6.42059 10.5732L5.1509 11.8432C5.06428 11.9298 5.06428 12.0703 5.1509 12.1569L6.42048 13.4268C6.50709 13.5134 6.6476 13.5134 6.73421 13.4268L8.0039 12.1568C8.09051 12.0702 8.09051 11.9298 8.0039 11.8431L6.73427 10.5733C6.6477 10.4866 6.50726 10.4866 6.42059 10.5732ZM16.149 14.8573L12.1561 18.8511C12.0695 18.9378 11.929 18.9378 11.8424 18.8511L7.84952 14.8575C7.7628 14.7708 7.76291 14.6303 7.84974 14.5437L9.12125 13.2754C9.20792 13.189 9.34821 13.1891 9.43477 13.2756L11.8424 15.6836C11.929 15.7703 12.0695 15.7703 12.1561 15.6836L14.5649 13.2745C14.6515 13.1878 14.7919 13.1878 14.8785 13.2743L16.1489 14.5435C16.2356 14.6302 16.2356 14.7707 16.149 14.8573ZM17.2654 10.5741L15.9957 11.844C15.9091 11.9306 15.9091 12.0711 15.9957 12.1577L17.2654 13.4276C17.352 13.5143 17.4925 13.5143 17.5791 13.4276L18.8488 12.1576C18.9354 12.071 18.9354 11.9306 18.8488 11.844L17.5792 10.5741C17.4925 10.4874 17.3521 10.4874 17.2654 10.5741ZM12.1575 10.5499L13.4513 11.8439C13.5379 11.9305 13.5379 12.0709 13.4513 12.1575L12.1575 13.4517C12.0709 13.5383 11.9304 13.5383 11.8438 13.4517L10.5501 12.1575C10.4635 12.0709 10.4635 11.9305 10.5501 11.8439L11.8438 10.5499C11.9304 10.4632 12.0709 10.4632 12.1575 10.5499Z" fill="white"/>
</svg>
