<svg width="27" height="27" viewBox="0 0 27 27" fill="none" xmlns="http://www.w3.org/2000/svg">
<path d="M15.7562 11.8844C16.2354 11.8844 16.7039 11.7423 17.1024 11.4761C17.5009 11.2098 17.8114 10.8314 17.9948 10.3886C18.1782 9.94585 18.2262 9.45865 18.1327 8.98862C18.0392 8.51859 17.8084 8.08684 17.4696 7.74797C17.1307 7.40909 16.6989 7.17832 16.2289 7.08482C15.7589 6.99133 15.2717 7.03931 14.8289 7.22271C14.3862 7.40611 14.0077 7.71668 13.7415 8.11515C13.4752 8.51362 13.3331 8.9821 13.3331 9.46134C13.3331 10.104 13.5884 10.7203 14.0428 11.1747C14.4972 11.6291 15.1136 11.8844 15.7562 11.8844ZM15.7562 8.65365C15.9159 8.65365 16.0721 8.70102 16.2049 8.78977C16.3377 8.87852 16.4413 9.00466 16.5024 9.15225C16.5635 9.29984 16.5795 9.46224 16.5484 9.61891C16.5172 9.77559 16.4403 9.91951 16.3273 10.0325C16.2144 10.1454 16.0704 10.2223 15.9138 10.2535C15.7571 10.2847 15.5947 10.2687 15.4471 10.2076C15.2995 10.1464 15.1734 10.0429 15.0846 9.91007C14.9959 9.77725 14.9485 9.62109 14.9485 9.46134C14.9485 9.24713 15.0336 9.04169 15.1851 8.89022C15.3365 8.73875 15.542 8.65365 15.7562 8.65365Z" fill="white"/>
<path d="M21.41 3.8075H5.25619C4.82777 3.8075 4.41689 3.97769 4.11394 4.28063C3.811 4.58357 3.64081 4.99445 3.64081 5.42288V21.5767C3.64081 22.0052 3.811 22.416 4.11394 22.719C4.41689 23.0219 4.82777 23.1921 5.25619 23.1921H21.41C21.8385 23.1921 22.2493 23.0219 22.5523 22.719C22.8552 22.416 23.0254 22.0052 23.0254 21.5767V5.42288C23.0254 4.99445 22.8552 4.58357 22.5523 4.28063C22.2493 3.97769 21.8385 3.8075 21.41 3.8075ZM21.41 21.5767H5.25619V16.7306L9.29465 12.6921L13.8097 17.2071C14.1123 17.508 14.5217 17.6769 14.9485 17.6769C15.3753 17.6769 15.7847 17.508 16.0873 17.2071L17.3716 15.9229L21.41 19.9613V21.5767ZM21.41 17.6756L18.5104 14.776C18.2078 14.4751 17.7983 14.3062 17.3716 14.3062C16.9448 14.3062 16.5354 14.4751 16.2327 14.776L14.9485 16.0602L10.4335 11.5452C10.1308 11.2443 9.72142 11.0754 9.29465 11.0754C8.86789 11.0754 8.45847 11.2443 8.15581 11.5452L5.25619 14.4448V5.42288H21.41V17.6756Z" fill="white"/>
</svg>
