<svg width="24" height="24" viewBox="0 0 24 24" fill="none" xmlns="http://www.w3.org/2000/svg">
<g clip-path="url(#clip0_5439_10739)">
<g filter="url(#filter0_diii_5439_10739)">
<path d="M17.0009 3C17.2827 2.99999 17.5612 3.05949 17.8183 3.1746C18.0754 3.28972 18.3053 3.45786 18.493 3.668L18.601 3.8L22.305 8.739C22.5667 9.08793 22.7072 9.51285 22.705 9.94902C22.7028 10.3852 22.5581 10.8087 22.2929 11.155L22.1849 11.285L12.926 21.469C12.705 21.7122 12.3972 21.8586 12.0691 21.8765C11.7411 21.8945 11.4191 21.7826 11.173 21.565L11.076 21.469L1.81695 11.284C1.52348 10.9612 1.34362 10.5512 1.30481 10.1166C1.26599 9.68208 1.37034 9.24674 1.60195 8.877L1.69695 8.739L5.40095 3.8C5.56999 3.57454 5.78477 3.38734 6.03121 3.25068C6.27764 3.11402 6.55018 3.03098 6.83095 3.007L7.00095 3H17.0009ZM13.6909 5.863L14.329 8.757C14.3354 8.78619 14.3352 8.81645 14.3284 8.84555C14.3216 8.87466 14.3083 8.90186 14.2896 8.92517C14.2709 8.94848 14.2472 8.96731 14.2203 8.98026C14.1933 8.99321 14.1638 8.99995 14.134 9H9.86795C9.83806 8.99995 9.80856 8.99321 9.78162 8.98026C9.75469 8.96731 9.73099 8.94848 9.71229 8.92517C9.69358 8.90186 9.68034 8.87466 9.67353 8.84555C9.66672 8.81645 9.66652 8.78619 9.67295 8.757L10.311 5.863C10.357 5.655 10.0889 5.529 9.95795 5.697L7.42695 8.944C7.39868 8.98028 7.35878 9.00571 7.31395 9.016L4.08695 9.757C3.88395 9.804 3.87895 10.092 4.08095 10.146L7.24095 10.978C7.26711 10.9849 7.29158 10.9971 7.3129 11.0138C7.33421 11.0305 7.35192 11.0513 7.36495 11.075L11.825 19.195C11.8422 19.2265 11.8675 19.2528 11.8984 19.2711C11.9293 19.2894 11.9645 19.2991 12.0005 19.2991C12.0364 19.2991 12.0716 19.2894 12.1025 19.2711C12.1334 19.2528 12.1587 19.2265 12.176 19.195L16.636 11.075C16.6491 11.0512 16.667 11.0303 16.6884 11.0136C16.7099 10.9969 16.7346 10.9848 16.761 10.978L19.9209 10.146C20.1229 10.092 20.118 9.804 19.915 9.757L16.688 9.016C16.6431 9.00571 16.6032 8.98028 16.5749 8.944L14.0449 5.697C13.9129 5.529 13.6449 5.655 13.6909 5.863ZM14.229 11C14.2567 11 14.2842 11.0058 14.3096 11.0171C14.335 11.0283 14.3578 11.0447 14.3765 11.0652C14.3952 11.0857 14.4094 11.1098 14.4183 11.1362C14.421 11.1442 14.4232 11.1523 14.4248 11.1606C14.4324 11.1982 14.4233 11.2367 14.4139 11.274L12.1869 16.844C12.1742 16.8763 12.1532 16.9047 12.1261 16.9265C12.099 16.9482 12.0667 16.9625 12.0323 16.9679C11.998 16.9734 11.9629 16.9698 11.9304 16.9575C11.9084 16.9493 11.8882 16.9372 11.8705 16.922C11.8535 16.9074 11.8413 16.8883 11.83 16.8689C11.82 16.8517 11.8112 16.8337 11.8038 16.8152L9.58795 11.274C9.57761 11.2482 9.57275 11.2206 9.57368 11.1928C9.57461 11.1651 9.5813 11.1378 9.59335 11.1128C9.60539 11.0878 9.62251 11.0655 9.64361 11.0475C9.65008 11.042 9.65688 11.0369 9.66396 11.0322C9.69601 11.0112 9.73501 11.0053 9.77295 11H14.229Z" fill="#09090E"/>
</g>
</g>
<defs>
<filter id="filter0_diii_5439_10739" x="-0.128125" y="2.475" width="24.2562" height="21.7284" filterUnits="userSpaceOnUse" color-interpolation-filters="sRGB">
<feFlood flood-opacity="0" result="BackgroundImageFix"/>
<feColorMatrix in="SourceAlpha" type="matrix" values="0 0 0 0 0 0 0 0 0 0 0 0 0 0 0 0 0 0 127 0" result="hardAlpha"/>
<feOffset dy="0.9"/>
<feGaussianBlur stdDeviation="0.7125"/>
<feComposite in2="hardAlpha" operator="out"/>
<feColorMatrix type="matrix" values="0 0 0 0 0 0 0 0 0 0 0 0 0 0 0 0 0 0 0.35 0"/>
<feBlend mode="normal" in2="BackgroundImageFix" result="effect1_dropShadow_5439_10739"/>
<feBlend mode="normal" in="SourceGraphic" in2="effect1_dropShadow_5439_10739" result="shape"/>
<feColorMatrix in="SourceAlpha" type="matrix" values="0 0 0 0 0 0 0 0 0 0 0 0 0 0 0 0 0 0 127 0" result="hardAlpha"/>
<feOffset dy="0.719673"/>
<feGaussianBlur stdDeviation="0.373331"/>
<feComposite in2="hardAlpha" operator="arithmetic" k2="-1" k3="1"/>
<feColorMatrix type="matrix" values="0 0 0 0 1 0 0 0 0 1 0 0 0 0 1 0 0 0 0.3 0"/>
<feBlend mode="normal" in2="shape" result="effect2_innerShadow_5439_10739"/>
<feColorMatrix in="SourceAlpha" type="matrix" values="0 0 0 0 0 0 0 0 0 0 0 0 0 0 0 0 0 0 127 0" result="hardAlpha"/>
<feOffset dy="0.179918"/>
<feGaussianBlur stdDeviation="0.0899592"/>
<feComposite in2="hardAlpha" operator="arithmetic" k2="-1" k3="1"/>
<feColorMatrix type="matrix" values="0 0 0 0 1 0 0 0 0 1 0 0 0 0 1 0 0 0 1 0"/>
<feBlend mode="normal" in2="effect2_innerShadow_5439_10739" result="effect3_innerShadow_5439_10739"/>
<feColorMatrix in="SourceAlpha" type="matrix" values="0 0 0 0 0 0 0 0 0 0 0 0 0 0 0 0 0 0 127 0" result="hardAlpha"/>
<feOffset dy="0.3"/>
<feGaussianBlur stdDeviation="0.15"/>
<feComposite in2="hardAlpha" operator="arithmetic" k2="-1" k3="1"/>
<feColorMatrix type="matrix" values="0 0 0 0 1 0 0 0 0 1 0 0 0 0 1 0 0 0 0.7 0"/>
<feBlend mode="normal" in2="effect3_innerShadow_5439_10739" result="effect4_innerShadow_5439_10739"/>
</filter>
<clipPath id="clip0_5439_10739">
<rect width="24" height="24" fill="white"/>
</clipPath>
</defs>
</svg>
