<svg width="1280" height="76" viewBox="0 0 1280 76" fill="none" xmlns="http://www.w3.org/2000/svg">
<g filter="url(#filter0_b_1_458)">
<path d="M17.5 67L25 67L25 7L20.8137 7C18.692 7 16.6571 7.84285 15.1568 9.34314L9.34314 15.1569C7.84285 16.6571 7 18.692 7 20.8137L7 63C7 65.2091 8.79086 67 11 67L17.5 67Z" fill="#1C1C25" fill-opacity="0.8"/>
<rect width="1230" height="60" transform="translate(25 7)" fill="#1C1C25" fill-opacity="0.8"/>
<path d="M1262.5 7L1255 7L1255 67L1259.19 67C1261.31 67 1263.34 66.1571 1264.84 64.6569L1270.66 58.8431C1272.16 57.3429 1273 55.308 1273 53.1863L1273 11C1273 8.79086 1271.21 7 1269 7L1262.5 7Z" fill="#1C1C25" fill-opacity="0.8"/>
<path d="M1115 2H1273C1276.31 2 1279 4.68629 1279 8V55.5147C1279 57.106 1278.37 58.6321 1277.24 59.7574L1264.76 72.2426C1263.63 73.3679 1262.11 74 1260.51 74H829" stroke="url(#paint0_linear_1_458)"/>
<path d="M182 1H19.4853C17.894 1 16.3679 1.63214 15.2426 2.75736L2.75736 15.2426C1.63214 16.3679 1 17.894 1 19.4853V69C1 72.3137 3.68629 75 7 75H44" stroke="url(#paint1_linear_1_458)"/>
</g>
<defs>
<filter id="filter0_b_1_458" x="-15.5" y="-15.5" width="1311" height="107" filterUnits="userSpaceOnUse" color-interpolation-filters="sRGB">
<feFlood flood-opacity="0" result="BackgroundImageFix"/>
<feGaussianBlur in="BackgroundImageFix" stdDeviation="8"/>
<feComposite in2="SourceAlpha" operator="in" result="effect1_backgroundBlur_1_458"/>
<feBlend mode="normal" in="SourceGraphic" in2="effect1_backgroundBlur_1_458" result="shape"/>
</filter>
<linearGradient id="paint0_linear_1_458" x1="645.949" y1="50" x2="1322.21" y2="52.5035" gradientUnits="userSpaceOnUse">
<stop offset="0.072983" stop-color="#754EE7"/>
<stop offset="0.374561" stop-color="#E6A5A5"/>
<stop offset="0.614152" stop-color="#C7555A"/>
<stop offset="0.992598" stop-color="#6D59E7"/>
</linearGradient>
<linearGradient id="paint1_linear_1_458" x1="255.627" y1="25.6667" x2="-16.3836" y2="25.2726" gradientUnits="userSpaceOnUse">
<stop offset="0.072983" stop-color="#754EE7"/>
<stop offset="0.374561" stop-color="#E6A5A5"/>
<stop offset="0.614152" stop-color="#C7555A"/>
<stop offset="0.992598" stop-color="#6D59E7"/>
</linearGradient>
</defs>
</svg>
