<svg width="160" height="40" viewBox="0 0 160 40" fill="none" xmlns="http://www.w3.org/2000/svg">
<g opacity="0.8">
<g opacity="0.8">
<path d="M7.51823 12.9679C9.00262 10.5489 12.5276 10.5783 13.9715 13.0217L22.2803 27.0827C22.9727 28.2545 22.128 29.7347 20.7669 29.7347H4.40888C1.26797 29.7347 -0.658322 26.2927 0.984429 23.6156L7.51823 12.9679Z" fill="white"/>
<path d="M19.2775 11.5443C21.0791 10.5042 23.3828 11.1215 24.4229 12.923L30.8265 24.0144C31.8667 25.816 31.2494 28.1197 29.4478 29.1598C27.6463 30.2 25.3426 29.5827 24.3024 27.7811L17.8988 16.6897C16.8587 14.8881 17.4759 12.5845 19.2775 11.5443Z" fill="white"/>
<path d="M158.869 28.6585C157.894 28.6585 157.13 28.4478 156.552 28.0791C155.945 27.6842 155.629 27.1047 155.629 26.3147V14.8333H157.157C157.71 14.8333 158.184 15.281 158.184 15.8603V25.9724C158.184 25.9988 158.184 26.4728 158.579 26.8678C158.815 27.1047 159.105 27.2364 159.5 27.2364H159.79C159.896 27.2364 160.001 27.3418 160.001 27.4471V28.6848L158.869 28.6585Z" fill="white"/>
<path d="M125.952 28.6576C124.371 28.6576 123.081 28.2363 122.106 27.3936C121.607 26.9723 121.264 26.4982 121.054 25.9715C120.843 25.4449 120.737 24.6812 120.737 23.6542C120.737 22.6536 120.843 21.8635 121.054 21.3368C121.238 20.8365 121.58 20.3888 122.081 19.9675C123.054 19.1248 124.345 18.7035 125.925 18.7035C127.505 18.7035 128.795 19.1248 129.77 19.9675C130.271 20.3888 130.613 20.8628 130.797 21.3368C131.008 21.8898 131.113 22.6536 131.113 23.6542C131.113 24.6812 131.008 25.4449 130.797 25.9715C130.586 26.4982 130.244 26.9723 129.743 27.3936C128.822 28.2363 127.532 28.6576 125.952 28.6576ZM125.952 20.1518C124.213 20.1518 123.344 21.3368 123.344 23.6805C123.344 26.0506 124.213 27.2356 125.952 27.2356C127.689 27.2356 128.559 26.0506 128.559 23.7068C128.559 21.3368 127.663 20.1518 125.952 20.1518Z" fill="white"/>
<path d="M136.853 28.6585C135.484 28.6585 134.22 28.2898 133.141 27.5788C133.035 27.4734 132.824 27.3418 132.561 27.1838C132.509 27.1575 132.456 27.0784 132.456 26.9994V14.8333H134.01C134.563 14.8333 135.037 15.3073 135.037 15.8603V19.4154L135.511 19.152C136.064 18.8624 136.801 18.7307 137.749 18.7307C139.408 18.7307 140.672 19.231 141.515 20.2053C142.252 21.0744 142.621 22.233 142.621 23.6551C142.621 25.0771 142.199 26.2358 141.356 27.0784C140.382 28.1318 138.855 28.6585 136.853 28.6585ZM137.117 20.1527C136.538 20.1527 135.879 20.3633 135.142 20.8111L135.037 20.8637V26.5781L135.142 26.6571C135.721 27.0258 136.406 27.2101 137.117 27.2101C138.065 27.2101 138.803 26.8151 139.302 26.0251C139.724 25.3931 139.961 24.5768 139.961 23.6551C139.961 21.3377 138.987 20.1527 137.117 20.1527Z" fill="white"/>
<path d="M148.704 28.6313C145.807 28.6313 143.99 26.7353 143.99 23.6542C143.99 20.5995 145.78 18.7035 148.651 18.7035C149.757 18.7035 150.705 18.9931 151.469 19.5462L151.627 19.6515V18.8878H153.654C153.786 18.8878 153.865 18.9931 153.865 19.0985V28.4469H151.6V27.6042L151.442 27.7359C150.811 28.3152 149.809 28.6313 148.704 28.6313ZM149.23 20.3888C147.413 20.3888 146.333 21.7845 146.333 23.6542C146.333 25.5239 147.413 26.9723 149.23 26.9723C149.809 26.9723 150.811 26.9196 151.6 26.1295L151.627 26.1032V21.3105L151.6 21.2842C151.047 20.6522 150.231 20.3888 149.23 20.3888Z" fill="white"/>
<path d="M55.1402 28.5262V14.8063H66.5426V15.6753C66.5426 16.36 65.9896 16.913 65.305 16.913H57.9842V20.5997H65.305V22.7065H57.9842V26.3931H65.305C65.9896 26.3931 66.5426 26.9461 66.5426 27.6308V28.4998L55.1402 28.5262Z" fill="white"/>
<path d="M82.9223 14.8063H80.2362C79.7358 14.8063 79.2882 15.017 78.9722 15.412L75.7332 19.4937L72.4941 15.4383C72.1781 15.0433 71.7304 14.8327 71.2301 14.8327H68.5441L73.9951 21.6794L68.5441 28.5262H71.2301C71.7304 28.5262 72.1781 28.3155 72.4941 27.9205L75.7332 23.8651L78.9985 27.9468C79.3145 28.3155 79.7622 28.5525 80.2625 28.5525H82.9486L77.4975 21.7057L82.9223 14.8063Z" fill="white"/>
<path d="M46.2132 27.0786L49.9526 20.5479V28.5007H52.7967V14.7808H51.0323C50.4793 14.7808 49.9526 15.0705 49.6893 15.5708L45.2126 23.7342L40.7359 15.5708C40.4725 15.0705 39.9458 14.7808 39.3928 14.7808H37.6285V28.5007H40.4725V20.5479L44.2118 27.0786H46.2132Z" fill="white"/>
<path d="M90.3483 28.6841C86.3983 28.7368 83.1856 25.6294 83.1593 21.6793C83.1593 19.52 83.8176 17.7293 85.0553 16.4916C86.293 15.2803 88.0837 14.6219 90.2167 14.6219C92.7184 14.6219 94.6934 15.4909 96.1154 17.1763L95.2201 17.94C94.6671 18.414 93.8507 18.4403 93.2451 17.9926C92.4551 17.387 91.4544 17.0973 90.322 17.0973C87.5306 17.0973 85.8716 18.7826 85.8716 21.6267C85.8716 24.497 87.5833 26.2614 90.322 26.2614C91.4807 26.2614 92.4551 25.9454 93.2451 25.3661C93.8244 24.9183 94.6407 24.9448 95.2201 25.4187L96.1154 26.1824C94.6934 27.8414 92.7974 28.6841 90.3483 28.6841Z" fill="white"/>
<path d="M107.86 28.6844C103.436 28.6844 100.698 25.9984 100.698 21.6796C100.698 17.3609 103.436 14.6749 107.808 14.6749C109.914 14.6749 111.679 15.2806 113.048 16.5182L112.39 17.2556C112.1 17.5716 111.679 17.7559 111.257 17.7559C111.021 17.7559 110.783 17.7033 110.572 17.5979C109.756 17.1766 108.808 16.9659 107.808 16.9659C104.963 16.9659 103.199 18.7829 103.199 21.706C103.199 24.6553 105.042 26.4723 107.992 26.4723C109.414 26.4723 110.52 26.209 111.336 25.6297L111.389 25.6034V22.7856H108.255V21.8639C108.255 21.1793 108.808 20.6263 109.493 20.6263H113.364C113.47 20.6263 113.575 20.7316 113.575 20.837V26.9201C112.232 28.0787 110.309 28.6844 107.86 28.6844Z" fill="white"/>
<path d="M118.657 28.6585C117.683 28.6585 116.919 28.4478 116.34 28.0791C115.734 27.6842 115.418 27.1047 115.418 26.3147V14.8333H116.946C117.499 14.8333 117.973 15.281 117.973 15.8603V25.9724C117.973 25.9988 117.973 26.4728 118.367 26.8678C118.605 27.1047 118.894 27.2364 119.289 27.2364H119.579C119.684 27.2364 119.789 27.3418 119.789 27.4471V28.6848L118.657 28.6585Z" fill="white"/>
</g>
</g>
</svg>
