<svg width="112" height="40" viewBox="0 0 112 40" fill="none" xmlns="http://www.w3.org/2000/svg">
<g id="logo-kucoin" clip-path="url(#clip0_60_252)">
<g id="Clip path group">
<mask id="mask0_60_252" style="mask-type:luminance" maskUnits="userSpaceOnUse" x="1" y="0" width="110" height="40">
<g id="clip0_6203_55401">
<path id="Vector" d="M110.578 0.799805H1.13824V39.1998H110.578V0.799805Z" fill="white"/>
</g>
</mask>
<g mask="url(#mask0_60_252)">
<g id="Group">
<g id="Group_2" opacity="0.8">
<path id="Vector_2" d="M87.2759 20.0026C87.2759 19.3652 87.2759 18.7655 87.2551 18.2117C87.2409 17.6893 87.1884 17.1687 87.0983 16.6537C87.0142 16.1834 86.8654 15.7267 86.6562 15.2962C86.4354 14.8523 86.1404 14.4484 85.7836 14.1016C85.2774 13.5892 84.6751 13.1792 84.0103 12.8943C83.2911 12.6065 82.5209 12.4638 81.745 12.4747C80.9662 12.4647 80.1932 12.6074 79.4705 12.8943C78.8018 13.1753 78.1958 13.5836 77.6868 14.0958C77.3306 14.4425 77.0367 14.8465 76.8175 15.2905C76.6102 15.7211 76.4638 16.1779 76.3825 16.6479C76.2943 17.1631 76.2439 17.6837 76.2316 18.206C76.2177 18.7597 76.2106 19.3594 76.2142 19.9968C76.2177 20.6343 76.2142 21.2293 76.2316 21.7866C76.2439 22.3088 76.2943 22.8295 76.3825 23.3447C76.4638 23.8146 76.6102 24.2714 76.8175 24.7021C77.0375 25.1456 77.3314 25.5495 77.6868 25.8967C78.195 26.4095 78.8012 26.817 79.4705 27.0959C80.1927 27.3848 80.966 27.5282 81.745 27.5178C82.5212 27.5292 83.2916 27.3856 84.0103 27.0959C84.6753 26.8149 85.2777 26.4074 85.7836 25.8967C86.1396 25.5492 86.4346 25.1455 86.6562 24.7021C86.8654 24.2716 87.0142 23.8149 87.0983 23.3447C87.1874 22.8311 87.239 22.3119 87.2527 21.7911C87.2702 21.234 87.2783 20.6378 87.2737 20.0015L87.2759 20.0026ZM84.3514 20.0026C84.3514 20.7088 84.341 21.297 84.3167 21.7647C84.303 22.149 84.2642 22.5319 84.2006 22.9112C84.1572 23.1639 84.0791 23.4096 83.9686 23.6416C83.8788 23.8285 83.7615 24.0012 83.6204 24.1541C83.4025 24.4004 83.1322 24.5962 82.8289 24.7272C82.4876 24.8716 82.1198 24.945 81.7486 24.9429C81.3754 24.9445 81.0058 24.8711 80.6623 24.7272C80.3516 24.5986 80.074 24.4028 79.85 24.1541C79.7079 24.002 79.5905 23.829 79.5018 23.6416C79.3943 23.4095 79.3201 23.1636 79.2814 22.9112C79.2193 22.5317 79.1806 22.1488 79.1652 21.7647C79.1444 21.297 79.134 20.7096 79.134 20.0026C79.134 19.2964 79.1444 18.7071 79.1652 18.2392C79.1807 17.8551 79.2194 17.4724 79.2814 17.0928C79.3201 16.8404 79.3943 16.5946 79.5018 16.3625C79.5908 16.1751 79.7082 16.0023 79.85 15.85C80.0743 15.6016 80.3518 15.4058 80.6623 15.2767C81.0054 15.1313 81.3753 15.0579 81.7486 15.0612C82.1199 15.0574 82.4881 15.1308 82.8289 15.2767C83.1321 15.4083 83.4022 15.6039 83.6204 15.85C83.7612 16.003 83.8785 16.1757 83.9686 16.3625C84.0791 16.5944 84.1572 16.84 84.2006 17.0928C84.2641 17.472 84.303 17.8551 84.3167 18.2392C84.3422 18.706 84.3514 19.2952 84.3514 20.0026Z" fill="#EFEFE5"/>
<path id="Vector_3" d="M110.578 12.8574C110.576 12.718 110.462 12.6053 110.321 12.604H107.908C107.767 12.6046 107.653 12.7177 107.652 12.8574V21.6625L101.768 12.6751C101.729 12.6143 101.694 12.604 101.607 12.604H99.3695C99.2287 12.6059 99.115 12.7182 99.1132 12.8574V27.1451C99.115 27.284 99.2289 27.396 99.3695 27.3972H101.781C101.922 27.3966 102.036 27.2841 102.036 27.1451V18.3169L107.921 27.3251C107.962 27.3857 107.994 27.3961 108.082 27.3961H110.319C110.46 27.3955 110.574 27.2832 110.575 27.1438L110.578 12.8574Z" fill="#EFEFE5"/>
<path id="Vector_4" d="M94.4054 12.8574C94.4047 12.7177 94.2903 12.6046 94.1489 12.604H91.7385C91.5972 12.6046 91.4826 12.7177 91.482 12.8574V27.1438C91.4826 27.2835 91.5972 27.3966 91.7385 27.3972H94.1489C94.2903 27.3966 94.4047 27.2835 94.4054 27.1438V12.8574Z" fill="#EFEFE5"/>
<path id="Vector_5" d="M65.5511 20.0025C65.5511 19.2916 65.5593 18.7001 65.5801 18.2289C65.5943 17.8446 65.633 17.4617 65.6961 17.0824C65.9189 15.8098 66.9053 15.0588 68.1645 15.0588C68.9861 15.0657 69.7311 15.3661 70.2069 16.0494C70.4225 16.3684 70.5796 16.7223 70.6711 17.095C70.6781 17.1342 70.7145 17.1616 70.7546 17.158H73.5921C73.6327 17.158 73.6477 17.1305 73.6409 17.0915C73.3309 15.3569 72.3945 13.7988 70.7396 13.0272C69.9263 12.6552 69.0386 12.469 68.1425 12.4826C66.5449 12.4826 65.1991 13.023 64.105 14.1038C63.4805 14.7051 63.0541 15.4788 62.882 16.3234C62.7148 17.155 62.6305 18.3809 62.6289 20.0014C62.6274 21.6217 62.7117 22.8473 62.882 23.6782C63.0527 24.524 63.4778 25.299 64.1017 25.9024C65.1948 26.9824 66.5405 27.5224 68.1389 27.5224C69.0349 27.5358 69.9226 27.35 70.7361 26.979C72.3909 26.2073 73.3274 24.6492 73.6373 22.9147C73.6444 22.8745 73.6292 22.8481 73.5885 22.8481H70.75C70.7097 22.844 70.673 22.8716 70.6665 22.9112C70.5746 23.2835 70.4175 23.6369 70.2023 23.9556C69.7265 24.6435 68.9815 24.9404 68.1599 24.9462C66.9007 24.9462 65.9143 24.1964 65.6914 22.9238C65.6284 22.5444 65.5897 22.1614 65.5754 21.7772C65.5591 21.3038 65.5511 20.711 65.5511 20.0025Z" fill="#EFEFE5"/>
<path id="Vector_6" d="M35.5835 12.8574C35.5828 12.7177 35.4683 12.6046 35.327 12.604H32.9166C32.7751 12.6046 32.6607 12.7177 32.6601 12.8574V27.1451C32.6614 27.2843 32.7756 27.3966 32.9166 27.3974H35.327C35.4679 27.3966 35.5822 27.2843 35.5835 27.1451V22.9512L37.5179 20.6662L41.4915 27.3216C41.522 27.3707 41.5771 27.3996 41.6353 27.3974H44.5644C44.699 27.3974 44.7235 27.3147 44.6561 27.2012L39.4537 18.4878L44.2267 12.831C44.323 12.7164 44.2825 12.6074 44.1316 12.6074H40.9299C40.8908 12.6052 40.8534 12.6224 40.83 12.6533L35.5835 18.8696V12.8574Z" fill="#EFEFE5"/>
<path id="Vector_7" d="M53.1436 24.946C51.787 24.946 50.5569 23.7056 50.5569 22.2243V12.8574C50.5563 12.7177 50.4419 12.6046 50.3004 12.604H47.89C47.7487 12.6046 47.6342 12.7177 47.6335 12.8574V22.1876C47.6335 25.4494 50.1031 27.5222 53.1436 27.5222C56.1841 27.5222 58.6537 25.4494 58.6537 22.1876V12.8574C58.6524 12.718 58.5383 12.6053 58.3972 12.604H55.9857C55.8447 12.6053 55.731 12.7181 55.7303 12.8574V22.2243C55.7303 23.7044 54.4991 24.946 53.1436 24.946Z" fill="#EFEFE5"/>
<path id="Vector_8" fill-rule="evenodd" clip-rule="evenodd" d="M8.43077 20.0026L15.9136 27.3963L20.6367 22.7301C21.4814 21.9787 22.7735 22.0122 23.577 22.8061C24.3807 23.6 24.4145 24.8766 23.654 25.7109L17.421 31.8699C16.5838 32.6834 15.241 32.6834 14.4038 31.8699L5.41117 22.9834V28.2653C5.41117 29.431 4.45464 30.376 3.27471 30.376C2.09477 30.376 1.13824 29.431 1.13824 28.2653V11.7329C1.13824 10.5672 2.09477 9.62218 3.27471 9.62218C4.45464 9.62218 5.41117 10.5672 5.41117 11.7329V17.0147L14.4026 8.13058C15.2396 7.3165 16.5829 7.3165 17.4199 8.13058L23.6575 14.2884C24.418 15.1228 24.3842 16.3993 23.5806 17.1933C22.7769 17.9872 21.4849 18.0206 20.6402 17.2693L15.9171 12.6031L8.43077 20.0026ZM15.9171 17.8896C15.0519 17.8891 14.2717 18.4037 13.9403 19.1931C13.6089 19.9827 13.7916 20.8917 14.4032 21.4963C15.0148 22.1008 15.9348 22.2818 16.7341 21.9549C17.5335 21.6278 18.0546 20.8573 18.0546 20.0026C18.055 19.4421 17.83 18.9046 17.429 18.5082C17.0282 18.1117 16.4843 17.8898 15.9171 17.8896Z" fill="#EFEFE5"/>
</g>
</g>
</g>
</g>
</g>
<defs>
<clipPath id="clip0_60_252">
<rect width="110.4" height="38.4" fill="white" transform="translate(0.817932 0.799805)"/>
</clipPath>
</defs>
</svg>
