<svg width="102" height="32" viewBox="0 0 102 32" fill="none" xmlns="http://www.w3.org/2000/svg">
<g clip-path="url(#clip0_250_35)">
<path d="M39.0776 7.50547H37.6085C37.3467 7.50547 37.1333 7.29214 37.1333 7.03032V5.56123C37.1333 5.29941 36.92 5.08608 36.663 5.08608H35.1939C34.9321 5.08608 34.7236 4.87275 34.7236 4.61093V3.14184C34.7236 2.88002 34.5103 2.66669 34.2485 2.66669H32.7794C32.5176 2.66669 32.3042 2.45335 32.3042 2.19153V0.73214C32.3042 0.470322 32.0909 0.256989 31.8291 0.256989H8.54181C8.27999 0.256989 8.06666 0.470322 8.06666 0.73214V2.20123C8.06666 2.46305 7.85333 2.67638 7.59151 2.67638H6.12242C5.8606 2.67638 5.64727 2.88972 5.64727 3.15153V4.62062C5.64727 4.88244 5.43393 5.09578 5.17212 5.09578H3.70302C3.44121 5.09578 3.22787 5.30911 3.22787 5.57093V16.7079C3.22787 16.9697 3.01454 17.183 2.75272 17.183H1.29333C1.03151 17.183 0.818176 17.3964 0.818176 17.6582V24.034C0.818176 24.2958 1.03151 24.5091 1.29333 24.5091H2.76242C3.02424 24.5091 3.23757 24.7224 3.23757 24.9843V26.4534C3.23757 26.7152 3.4509 26.9285 3.71272 26.9285H5.18181C5.44363 26.9285 5.65696 27.1418 5.65696 27.4037V28.8727C5.65696 29.1346 5.8703 29.3479 6.13212 29.3479H7.60121C7.86302 29.3479 8.07636 29.5612 8.07636 29.823V31.2921C8.07636 31.554 8.28969 31.7673 8.55151 31.7673H34.2582C34.52 31.7673 34.7333 31.554 34.7333 31.2921V29.823C34.7333 29.5612 34.9467 29.3479 35.2036 29.3479H36.6727C36.9345 29.3479 37.143 29.1346 37.143 28.8727V22.5697C37.143 22.3079 37.3564 22.0946 37.6182 22.0946H39.0873C39.3491 22.0946 39.5624 21.8812 39.5624 21.6194V17.6582C39.5624 17.3964 39.3491 17.183 39.0873 17.183H37.6182C37.3564 17.183 37.143 16.9697 37.143 16.7079V12.8921C37.143 12.6303 37.3564 12.417 37.6182 12.417H39.0873C39.3491 12.417 39.5624 12.2037 39.5624 11.9418V7.98062C39.5624 7.71881 39.3491 7.50547 39.0873 7.50547H39.0776ZM8.13939 17.7164C8.13939 17.4546 8.35272 17.2412 8.61454 17.2412H10.0109C10.2727 17.2412 10.4861 17.4546 10.4861 17.7164V19.1127C10.4861 19.3746 10.2727 19.5879 10.0109 19.5879H8.61454C8.35272 19.5879 8.13939 19.3746 8.13939 19.1127V17.7164ZM34.6461 28.7806C34.6461 29.0424 34.4327 29.2558 34.1709 29.2558H8.61454C8.35272 29.2558 8.13939 29.0424 8.13939 28.7806V24.8921C8.13939 24.6303 7.92605 24.417 7.66424 24.417H3.7806C3.51878 24.417 3.30545 24.2037 3.30545 23.9418V20.1261C3.30545 19.8643 3.51878 19.6509 3.7806 19.6509H7.59636C7.85818 19.6509 8.07151 19.8643 8.07151 20.1261V21.5952C8.07151 21.857 8.28484 22.0703 8.54666 22.0703H10.0158C10.2776 22.0703 10.4909 22.2837 10.4909 22.5455V24.0146C10.4909 24.2764 10.7042 24.4897 10.9661 24.4897H19.7564C20.0182 24.4897 20.2315 24.2764 20.2315 24.0146V22.5455C20.2315 22.2837 20.4448 22.0703 20.7067 22.0703H22.1758C22.4376 22.0703 22.6509 21.857 22.6509 21.5952V20.1261C22.6509 19.8643 22.8642 19.6509 23.1261 19.6509H24.5224C24.7842 19.6509 24.9976 19.8643 24.9976 20.1261V21.5952C24.9976 21.857 25.2109 22.0703 25.4727 22.0703H26.9418C27.2036 22.0703 27.417 22.2837 27.417 22.5455V24.0146C27.417 24.2764 27.6303 24.4897 27.8921 24.4897H34.1951C34.457 24.4897 34.6703 24.703 34.6703 24.9649V28.7806H34.6461ZM34.6461 16.6982C34.6461 16.96 34.4327 17.1734 34.1709 17.1734H11.0291C10.7673 17.1734 10.5539 16.96 10.5539 16.6982V12.8824C10.5539 12.6206 10.7673 12.4073 11.0291 12.4073H12.4982C12.76 12.4073 12.9733 12.194 12.9733 11.9321V10.463C12.9733 10.2012 13.1867 9.9879 13.4485 9.9879H17.2642C17.5261 9.9879 17.7394 10.2012 17.7394 10.463V11.9321C17.7394 12.194 17.9527 12.4073 18.2145 12.4073H19.6836C19.9454 12.4073 20.1588 12.6206 20.1588 12.8824V14.3515C20.1588 14.6134 20.3721 14.8267 20.6339 14.8267H34.1854C34.4473 14.8267 34.6606 15.04 34.6606 15.3018V16.6982H34.6461Z" fill="#0066FF"/>
<path d="M45.1721 10.9624H53.4533C53.6376 10.9624 53.7879 10.8121 53.7879 10.6279V9.54669C53.7879 9.36244 53.9382 9.21214 54.1224 9.21214H55.2036C55.3879 9.21214 55.5382 9.06184 55.5382 8.87759V2.34669C55.5382 2.16244 55.3879 2.01214 55.2036 2.01214H54.1224C53.9382 2.01214 53.7879 1.86184 53.7879 1.67759V0.591534C53.7879 0.407292 53.6376 0.256989 53.4533 0.256989H45.1721C44.9879 0.256989 44.8376 0.407292 44.8376 0.591534V10.6279C44.8376 10.8121 44.9879 10.9624 45.1721 10.9624ZM46.7673 2.52608C46.7673 2.34184 46.9176 2.19153 47.1018 2.19153H53.2739C53.4582 2.19153 53.6085 2.34184 53.6085 2.52608V8.6982C53.6085 8.88244 53.4582 9.03275 53.2739 9.03275H47.1018C46.9176 9.03275 46.7673 8.88244 46.7673 8.6982V2.52608Z" fill="#0066FF"/>
<path d="M100.842 0.256989H99.5964C99.4073 0.256989 99.257 0.41214 99.257 0.596382V8.6885C99.257 8.87759 99.1018 9.0279 98.9176 9.0279H98.0206C97.8315 9.0279 97.6812 8.87275 97.6812 8.6885V2.35153C97.6812 2.16244 97.5261 2.01214 97.3418 2.01214H96.2703C96.0812 2.01214 95.9309 1.85699 95.9309 1.67275V0.596382C95.9309 0.407292 95.7758 0.256989 95.5915 0.256989H90.8303C90.6412 0.256989 90.4909 0.41214 90.4909 0.596382V10.623C90.4909 10.8121 90.6461 10.9624 90.8303 10.9624H92.0764C92.2655 10.9624 92.4158 10.8073 92.4158 10.623V2.53093C92.4158 2.34184 92.5709 2.19153 92.7551 2.19153H95.4073C95.5964 2.19153 95.7467 2.34669 95.7467 2.53093V8.8679C95.7467 9.05699 95.9018 9.20729 96.0861 9.20729H97.1576C97.3467 9.20729 97.497 9.36244 97.497 9.54669V10.6182C97.497 10.8073 97.6521 10.9576 97.8364 10.9576H100.842C101.032 10.9576 101.182 10.8024 101.182 10.6182V0.596382C101.182 0.407292 101.027 0.256989 100.842 0.256989Z" fill="#0066FF"/>
<path d="M56.5855 9.20729H57.6667C57.8509 9.20729 58.0012 9.35759 58.0012 9.54184V10.623C58.0012 10.8073 58.1515 10.9576 58.3358 10.9576H66.617C66.8012 10.9576 66.9515 10.8073 66.9515 10.623V9.36729C66.9515 9.18305 66.8012 9.03275 66.617 9.03275H58.5151C58.3309 9.03275 58.1806 8.88244 58.1806 8.6982V6.93335C58.1806 6.74911 58.3309 6.59881 58.5151 6.59881H66.617C66.8012 6.59881 66.9515 6.4485 66.9515 6.26426V5.0085C66.9515 4.82426 66.8012 4.67396 66.617 4.67396H58.5151C58.3309 4.67396 58.1806 4.52366 58.1806 4.33941V2.54062C58.1806 2.35638 58.3309 2.20608 58.5151 2.20608H66.617C66.8012 2.20608 66.9515 2.05578 66.9515 1.87153V0.591534C66.9515 0.407292 66.8012 0.256989 66.617 0.256989H58.3358C58.1515 0.256989 58.0012 0.407292 58.0012 0.591534V1.67275C58.0012 1.85699 57.8509 2.00729 57.6667 2.00729H56.5855C56.4012 2.00729 56.2509 2.15759 56.2509 2.34184V8.86305C56.2509 9.04729 56.4012 9.19759 56.5855 9.19759V9.20729Z" fill="#0066FF"/>
<path d="M67.9939 9.20729H69.0703C69.2594 9.20729 69.4097 9.35759 69.4097 9.54669V10.623C69.4097 10.8121 69.56 10.9624 69.7491 10.9624H76.2654C76.4545 10.9624 76.6048 10.8121 76.6048 10.623V9.54669C76.6048 9.35759 76.7551 9.20729 76.9442 9.20729H78.0206C78.2097 9.20729 78.36 9.05699 78.36 8.8679V7.61699C78.36 7.4279 78.2097 7.27759 78.0206 7.27759H76.9442C76.7551 7.27759 76.6048 7.12729 76.6048 6.9382V5.86184C76.6048 5.67275 76.4545 5.52244 76.2654 5.52244H73.2594C73.0703 5.52244 72.92 5.67275 72.92 5.86184V7.11275C72.92 7.30184 73.0703 7.45214 73.2594 7.45214H76.0909C76.28 7.45214 76.4303 7.60244 76.4303 7.79153V8.69335C76.4303 8.88244 76.28 9.03275 76.0909 9.03275H69.9236C69.7345 9.03275 69.5842 8.88244 69.5842 8.69335V2.52608C69.5842 2.33699 69.7345 2.18669 69.9236 2.18669H78.0206C78.2097 2.18669 78.36 2.03638 78.36 1.84729V0.596382C78.36 0.407292 78.2097 0.256989 78.0206 0.256989H69.7491C69.56 0.256989 69.4097 0.407292 69.4097 0.596382V1.67275C69.4097 1.86184 69.2594 2.01214 69.0703 2.01214H67.9939C67.8048 2.01214 67.6545 2.16244 67.6545 2.35153V8.8679C67.6545 9.05699 67.8048 9.20729 67.9939 9.20729Z" fill="#0066FF"/>
<path d="M79.3976 9.20729H80.4885C80.6727 9.20729 80.823 9.35759 80.823 9.54184V10.6327C80.823 10.817 80.9733 10.9673 81.1576 10.9673H89.4436C89.6279 10.9673 89.7782 10.817 89.7782 10.6327V9.36729C89.7782 9.18305 89.6279 9.03275 89.4436 9.03275H81.3321C81.1479 9.03275 80.9976 8.88244 80.9976 8.6982V6.90426C80.9976 6.72002 81.1479 6.56972 81.3321 6.56972H89.4436C89.6279 6.56972 89.7782 6.41941 89.7782 6.23517V4.96972C89.7782 4.78547 89.6279 4.63517 89.4436 4.63517H81.3321C81.1479 4.63517 80.9976 4.48487 80.9976 4.30062V2.50669C80.9976 2.32244 81.1479 2.17214 81.3321 2.17214H89.4436C89.6279 2.17214 89.7782 2.02184 89.7782 1.83759V0.591534C89.7782 0.407292 89.6279 0.256989 89.4436 0.256989H81.1576C80.9733 0.256989 80.823 0.407292 80.823 0.591534V1.68244C80.823 1.86669 80.6727 2.01699 80.4885 2.01699H79.3976C79.2133 2.01699 79.063 2.16729 79.063 2.35153V8.88244C79.063 9.06669 79.2133 9.21699 79.3976 9.21699V9.20729Z" fill="#0066FF"/>
<path d="M81.4727 16.6982H79.5915C79.2958 16.6982 79.0582 16.4606 79.0582 16.1649V14.2837C79.0582 13.9879 78.8206 13.7503 78.5248 13.7503H67.4994C67.2036 13.7503 66.9661 13.9879 66.9661 14.2837V16.1649C66.9661 16.4606 66.7285 16.6982 66.4327 16.6982H64.5515C64.2558 16.6982 64.0182 16.9358 64.0182 17.2315V31.2049C64.0182 31.5006 64.2558 31.7382 64.5515 31.7382H66.7285C67.0242 31.7382 67.2618 31.5006 67.2618 31.2049V29.3237C67.2618 29.0279 67.4994 28.7903 67.7951 28.7903H72.6242C72.92 28.7903 73.1576 28.5528 73.1576 28.257V26.3758C73.1576 26.08 73.3951 25.8425 73.6909 25.8425H78.2242C78.52 25.8425 78.7576 26.08 78.7576 26.3758V31.2049C78.7576 31.5006 78.9951 31.7382 79.2909 31.7382H81.4679C81.7636 31.7382 82.0012 31.5006 82.0012 31.2049V17.2315C82.0012 16.9358 81.7636 16.6982 81.4679 16.6982H81.4727ZM78.7624 22.0606C78.7624 22.3564 78.5248 22.594 78.2291 22.594H73.4C73.1042 22.594 72.8667 22.8315 72.8667 23.1273V25.0085C72.8667 25.3043 72.6291 25.5419 72.3333 25.5419H67.8C67.5042 25.5419 67.2667 25.3043 67.2667 25.0085V17.5225C67.2667 17.2267 67.5042 16.9891 67.8 16.9891H78.2339C78.5297 16.9891 78.7673 17.2267 78.7673 17.5225V22.0558L78.7624 22.0606Z" fill="#0066FF"/>
<path d="M100.639 16.6982H98.7721C98.4715 16.6982 98.2291 16.4558 98.2291 16.1552V14.2885C98.2291 13.9879 97.9867 13.7455 97.6861 13.7455H83.7273C83.4267 13.7455 83.1842 13.9879 83.1842 14.2885V31.2C83.1842 31.5006 83.4267 31.7431 83.7273 31.7431H97.6861C97.9867 31.7431 98.2291 31.5006 98.2291 31.2V29.3334C98.2291 29.0328 98.4715 28.7903 98.7721 28.7903H100.639C100.939 28.7903 101.182 28.5479 101.182 28.2473V17.2364C101.182 16.9358 100.939 16.6934 100.639 16.6934V16.6982ZM97.9382 27.9515C97.9382 28.2522 97.6958 28.4946 97.3952 28.4946H86.9758C86.6751 28.4946 86.4327 28.2522 86.4327 27.9515V17.5322C86.4327 17.2315 86.6751 16.9891 86.9758 16.9891H97.3952C97.6958 16.9891 97.9382 17.2315 97.9382 17.5322V27.9515Z" fill="#0066FF"/>
<path d="M62.2436 16.6982H60.4642C60.1394 16.6982 59.8776 16.4364 59.8776 16.1115V14.3322C59.8776 14.0073 59.6157 13.7455 59.2909 13.7455H45.4194C45.0945 13.7455 44.8327 14.0073 44.8327 14.3322V31.1564C44.8327 31.4812 45.0945 31.7431 45.4194 31.7431H47.4945C47.8194 31.7431 48.0812 31.4812 48.0812 31.1564V29.377C48.0812 29.0522 48.343 28.7903 48.6679 28.7903H59.2957C59.6206 28.7903 59.8824 28.5285 59.8824 28.2037V26.4243C59.8824 26.0994 60.1442 25.8376 60.4691 25.8376H62.2485C62.5733 25.8376 62.8351 25.5758 62.8351 25.2509V17.28C62.8351 16.9552 62.5733 16.6934 62.2485 16.6934L62.2436 16.6982ZM59.5867 24.96C59.5867 25.2849 59.3248 25.5467 59 25.5467H48.6679C48.343 25.5467 48.0812 25.2849 48.0812 24.96V17.5758C48.0812 17.2509 48.343 16.9891 48.6679 16.9891H59C59.3248 16.9891 59.5867 17.2509 59.5867 17.5758V24.96Z" fill="#0066FF"/>
</g>
<defs>
<clipPath id="clip0_250_35">
<rect width="102" height="32" fill="white"/>
</clipPath>
</defs>
</svg>
