<svg width="86" height="40" viewBox="0 0 86 40" fill="none" xmlns="http://www.w3.org/2000/svg">
<g opacity="0.8">
<g opacity="0.8">
<path fill-rule="evenodd" clip-rule="evenodd" d="M50.9151 14.9507H54.2733V26.9685H50.9151V14.9507Z" fill="white"/>
<path d="M48.7512 19.8542C48.389 19.1717 47.8713 18.5883 47.2469 18.1567C48.0189 17.2572 48.4742 16.0625 48.4186 14.7547C48.305 12.1612 46.148 10.1592 43.623 10.1592H36.6227V26.9673H44.6323C47.2197 26.9673 49.3177 24.8125 49.3177 22.1513C49.3177 21.3195 49.1134 20.5378 48.7512 19.8542ZM44.1112 24.1148H39.9798V19.9895H44.0874C45.1659 19.9895 46.0787 20.8703 46.0787 22.0533C46.0787 23.2212 45.1682 24.1148 44.1112 24.1148ZM43.2336 17.137H39.9798V13.0128H43.2086C44.2883 13.0128 45.2011 13.8925 45.2011 15.0755C45.1988 16.2422 44.2883 17.137 43.2336 17.137Z" fill="white"/>
<path d="M94 10.6573H90.1366L87.1189 15.6285L84.1024 10.6573H80.2378L85.1878 18.8123L80.2378 26.9685H84.1024L87.1189 21.9973L90.1366 26.9685H94L89.0512 18.8123L94 10.6573Z" fill="white"/>
<path d="M66.2497 20.2835V26.9673H62.8926V19.685C62.8926 18.6257 62.0422 17.7705 61.0023 17.8008C60.001 17.8323 59.2278 18.7318 59.2278 19.7632V26.965H55.8696V14.9472H59.2278V15.52C59.9839 15.1525 60.8263 14.9472 61.7176 14.9472C62.1637 14.9472 62.5985 14.9985 63.0163 15.0965C64.8771 15.5317 66.1918 17.2397 66.2395 19.1997C66.2463 19.552 66.2497 19.916 66.2497 20.2835Z" fill="white"/>
<path fill-rule="evenodd" clip-rule="evenodd" d="M50.9151 10.1592H54.2733V13.6102H50.9151V10.1592Z" fill="white"/>
<path d="M79.3386 14.9507H73.5474C73.5281 14.9507 73.51 14.9483 73.4895 14.9483C70.2607 14.9483 67.6427 17.6398 67.6427 20.959C67.6427 24.2618 70.2346 26.9405 73.4396 26.965C73.4543 26.9685 73.4714 26.9685 73.4895 26.9685C74.7361 26.9685 75.9804 27.3442 75.9804 28.4583C75.9804 29.5888 74.8531 30.549 73.4895 30.549C72.1147 30.549 70.9998 29.4033 70.9998 27.9905H67.6416C67.6416 31.3085 70.2607 34 73.4884 34C76.7195 34 79.3352 31.3085 79.3352 27.9905C79.3352 27.9905 79.3999 26.195 77.9184 24.8813C78.8039 23.8302 79.3364 22.4617 79.3364 20.959C79.3364 19.8005 79.0185 18.7202 78.4656 17.8032H79.3386V14.9507ZM73.4895 23.5175C72.1147 23.5175 70.9998 22.3718 70.9998 20.959C70.9998 19.5462 72.1147 18.4005 73.4895 18.4005C74.8644 18.4005 75.9804 19.5462 75.9804 20.959C75.9804 22.3718 74.8644 23.5175 73.4895 23.5175Z" fill="white"/>
<path d="M31.1131 6C27.521 6 23.9697 6.93333 20.8408 8.70083C19.1651 9.647 17.6177 10.8207 16.2428 12.1915C15.9193 12.5123 15.6025 12.8483 15.2994 13.1913C14.2856 14.3393 13.3864 15.5993 12.6314 16.9352C12.3635 17.4147 12.066 17.8825 11.7482 18.3293C11.7061 18.3877 11.6664 18.446 11.621 18.5032C8.84063 22.2843 4.6048 24.452 0 24.452V31.438C3.59211 31.438 7.14335 30.5047 10.2723 28.7383C11.9446 27.7945 13.492 26.6185 14.8702 25.2477C15.1938 24.9257 15.5106 24.5897 15.8148 24.2478C16.8298 23.0987 17.7255 21.841 18.4805 20.504L18.5305 20.4177C18.7859 19.9673 19.0675 19.5287 19.3638 19.111C19.4058 19.0538 19.4478 18.9943 19.4921 18.9337C22.2713 15.1537 26.5083 12.9848 31.1131 12.9848V6Z" fill="white"/>
<path d="M31.1131 24.4543C26.5083 24.4543 22.2713 22.2855 19.4898 18.5043C19.4489 18.4472 19.4058 18.39 19.3638 18.3282C19.047 17.8848 18.7496 17.4158 18.4817 16.9352C17.7267 15.6005 16.8287 14.3417 15.8137 13.1925C15.5106 12.8518 15.1938 12.5158 14.8702 12.1938C13.4954 10.823 11.9491 9.64817 10.2723 8.70317C7.14335 6.93683 3.59211 6.0035 0 6.0035V12.9895C4.6048 12.9895 8.84177 15.1572 11.6233 18.9383C11.6664 18.9955 11.7073 19.055 11.7493 19.1122C12.0479 19.531 12.3294 19.9708 12.5815 20.4165L12.6348 20.5075C13.3887 21.841 14.2856 23.0987 15.2994 24.249C15.6014 24.5897 15.9193 24.9257 16.2428 25.2477C17.62 26.6185 19.1674 27.7945 20.8408 28.7383C23.9697 30.5047 27.521 31.438 31.1131 31.438V24.4543Z" fill="white"/>
</g>
</g>
</svg>
