<svg width="67" height="40" viewBox="0 0 67 40" fill="none" xmlns="http://www.w3.org/2000/svg">
<g id="logo-bybit" clip-path="url(#clip0_60_289)">
<g id="Clip path group">
<mask id="mask0_60_289" style="mask-type:luminance" maskUnits="userSpaceOnUse" x="0" y="0" width="66" height="40">
<g id="clip0_6203_55405">
<path id="Vector" d="M65.9404 0.799805H0.6604V39.1998H65.9404V0.799805Z" fill="white"/>
</g>
</mask>
<g mask="url(#mask0_60_289)">
<g id="Group">
<g id="Group_2" opacity="0.8">
<path id="Vector_2" d="M47.1881 23.8022V7.52002H50.5601V23.8022H47.1881Z" fill="#EFEFE5"/>
<path id="Vector_3" d="M7.88895 28.6386H0.660034V12.3564H7.59824C10.9703 12.3564 12.9351 14.1401 12.9351 16.9303C12.9351 18.7363 11.6732 19.9034 10.7998 20.292C11.8423 20.7491 13.1768 21.7779 13.1768 23.9515C13.1768 26.992 10.9703 28.6386 7.88895 28.6386ZM7.33135 15.1926H4.03202V18.9431H7.33135C8.76237 18.9431 9.56308 18.1882 9.56308 17.0672C9.56308 15.9474 8.76237 15.1926 7.33135 15.1926ZM7.54936 21.8016H4.03202V25.8037H7.54936C9.07811 25.8037 9.80483 24.8895 9.80483 23.7909C9.80483 22.6935 9.07677 21.8016 7.54936 21.8016Z" fill="#EFEFE5"/>
<path id="Vector_4" d="M23.4621 21.9611V28.6386H20.114V21.9611L14.9225 12.3564H18.5852L21.8117 18.9194L24.9897 12.3564H28.6522L23.4621 21.9611Z" fill="#EFEFE5"/>
<path id="Vector_5" d="M38.2125 28.6386H30.9835V12.3564H37.9218C41.2938 12.3564 43.2586 14.1401 43.2586 16.9303C43.2586 18.7363 41.9968 19.9034 41.1234 20.292C42.1659 20.7491 43.5005 21.7779 43.5005 23.9515C43.5005 26.992 41.2938 28.6386 38.2125 28.6386ZM37.6549 15.1926H34.3555V18.9431H37.6549C39.0859 18.9431 39.8866 18.1882 39.8866 17.0672C39.8866 15.9474 39.0859 15.1926 37.6549 15.1926ZM37.873 21.8016H34.3555V25.8037H37.873C39.4016 25.8037 40.1283 24.8895 40.1283 23.7909C40.1283 22.6935 39.4016 21.8016 37.873 21.8016Z" fill="#EFEFE5"/>
<path id="Vector_6" d="M61.4272 15.1926V28.6399H58.0552V15.1926H53.5428V12.3564H65.9395V15.1926H61.4272Z" fill="#EFEFE5"/>
</g>
</g>
</g>
</g>
</g>
<defs>
<clipPath id="clip0_60_289">
<rect width="65.6" height="38.4" fill="white" transform="translate(0.661621 0.799805)"/>
</clipPath>
</defs>
</svg>
