<svg width="160" height="40" viewBox="0 0 160 40" fill="none" xmlns="http://www.w3.org/2000/svg">
<g opacity="0.8">
<path opacity="0.8" d="M23.5703 21.3656C23.0905 21.6676 22.5254 21.705 22.096 21.4638C21.5504 21.1572 21.2504 20.4391 21.2504 19.4405V16.4526C21.2504 15.0098 20.6774 13.9831 19.7191 13.7058C18.0951 13.2349 16.8738 15.2128 16.4148 15.9556L13.5507 20.5781V14.9283C13.5185 13.6284 13.0944 12.8508 12.2891 12.6164C11.7563 12.4614 10.9591 12.5235 10.1847 13.7032L3.768 23.9594C2.90896 22.3361 2.46114 20.5285 2.46345 18.6937C2.46345 12.5155 7.43735 7.48958 13.5507 7.48958C19.6641 7.48958 24.6373 12.5155 24.6373 18.6937C24.6373 18.7044 24.64 18.7137 24.6406 18.7238C24.6406 18.7344 24.6386 18.7438 24.6393 18.7545C24.697 19.9508 24.3078 20.9027 23.5703 21.3663V21.3656ZM27.1007 18.6944V18.6937V18.663L27.1001 18.6322C27.0658 11.1081 21.0015 5 13.55 5C6.07913 5 0 11.1428 0 18.6937C0 26.2439 6.07913 32.3874 13.5507 32.3874C16.9791 32.3874 20.2512 31.0902 22.763 28.7355C23.2623 28.2679 23.2918 27.4804 22.8288 26.9767C22.6086 26.735 22.3 26.5918 21.9725 26.5792C21.645 26.5666 21.3262 26.6858 21.088 26.9099C19.0521 28.829 16.3546 29.8983 13.5507 29.8978C10.2773 29.8978 7.33199 28.4556 5.3007 26.1684L11.0872 16.9195V21.1833C11.0872 23.2313 11.8851 23.8933 12.5542 24.087C13.2239 24.2807 14.2473 24.1485 15.3216 22.4117L18.5045 17.2756C18.6065 17.1099 18.7004 16.967 18.7863 16.8434V19.4405C18.7863 21.3549 19.5567 22.886 20.8995 23.6401C22.1101 24.3201 23.632 24.2587 24.8721 23.4798C26.3753 22.5346 27.1853 20.7932 27.1007 18.6944ZM45.9662 14.0158C46.2917 14.2129 46.5735 14.651 46.5735 15.0458C46.5735 15.6811 46.0313 16.2068 45.424 16.2068C45.2723 16.2068 45.1207 16.1634 44.9905 16.1193C44.2745 15.5936 43.3639 15.2429 42.4096 15.2429C40.1549 15.2429 38.5933 17.0832 38.5933 19.3617C38.5933 21.6408 40.1549 23.4591 42.4096 23.4591C43.537 23.4591 44.5349 22.9989 45.2938 22.2981C45.4899 22.1578 45.7248 22.0813 45.9662 22.079C46.5735 22.079 47.0507 22.5607 47.0507 23.1745C47.0507 23.5686 46.8118 23.9193 46.5084 24.1164C45.424 25.0369 43.9497 25.6501 42.4318 25.6501C38.9624 25.6501 36.1426 22.8018 36.1426 19.2962C36.1426 15.7906 38.9617 12.9423 42.4318 12.9423C43.7329 12.9423 44.9684 13.3365 45.9662 14.0158ZM52.3104 16.667C54.6739 16.667 56.6689 18.661 56.6689 21.1145C56.6689 23.5686 54.6739 25.6501 52.3104 25.6501C49.8382 25.6501 47.7781 23.5686 47.7781 21.1145C47.7781 18.661 49.8382 16.667 52.3104 16.667ZM52.2883 23.4591C53.3298 23.4591 54.2182 22.4732 54.2182 21.1365C54.2182 19.8005 53.3298 18.9676 52.2883 18.9676C51.1609 18.9676 50.2281 19.7785 50.2281 21.1365C50.2281 22.4732 51.1609 23.4591 52.2883 23.4591ZM58.1553 24.2914V18.0257C58.1553 17.3464 58.6976 16.7766 59.37 16.7766C60.0424 16.7766 60.606 17.3464 60.606 18.0257V24.2914C60.606 24.9707 60.0424 25.5405 59.37 25.5405C58.6976 25.5405 58.1553 24.9707 58.1553 24.2914ZM57.9607 14.4106C57.9607 13.5996 58.5888 12.9423 59.37 12.9423C60.1719 12.9423 60.8228 13.5996 60.8228 14.4106C60.8228 15.1988 60.1719 15.8347 59.37 15.8347C58.5888 15.8347 57.9607 15.1988 57.9607 14.4106ZM65.3021 20.8954V24.2914C65.3021 24.9707 64.7384 25.5405 64.0654 25.5405C63.3936 25.5405 62.8507 24.9707 62.8507 24.2914V17.7405C62.8507 17.2148 63.2849 16.7766 63.8057 16.7766C64.3257 16.7766 64.7384 17.2148 64.7384 17.7405C65.7356 16.8207 66.6026 16.667 67.4267 16.667C69.8774 16.667 70.9618 18.5073 70.9618 20.5888V24.2914C70.9618 24.9707 70.3981 25.5405 69.7257 25.5405C69.0533 25.5405 68.5111 24.9707 68.5111 24.2914V20.8954C68.5111 19.8219 68.3809 18.9235 66.8415 18.9235C65.7571 18.9235 65.3015 19.8219 65.3015 20.8954H65.3021ZM78.932 22.1886C78.6502 22.1886 78.4556 22.057 78.3032 21.8813L75.4405 18.7926V24.2914C75.4405 24.9707 74.8768 25.5405 74.2044 25.5405C73.532 25.5405 72.9898 24.9707 72.9898 24.2914V13.4033C73.0616 13.2153 73.2441 13.0924 73.4461 13.0959C73.6622 13.0959 73.8353 13.2717 73.9662 13.4033L78.52 18.508C78.6502 18.6616 78.8233 18.7491 78.9105 18.7491C78.9971 18.7491 79.1702 18.6616 79.3004 18.5087L83.8549 13.4033C83.9851 13.2717 84.1582 13.0959 84.375 13.0959C84.5917 13.0959 84.7655 13.2276 84.8306 13.4033V24.2914C84.8306 24.9707 84.2884 25.5405 83.616 25.5405C82.9436 25.5405 82.3799 24.9707 82.3799 24.2914V18.7926L79.5178 21.8813C79.3655 22.057 79.1702 22.1886 78.932 22.1886ZM90.7192 23.4591C91.8251 23.4591 92.7572 22.4732 92.7572 21.1365C92.7572 19.8005 91.8036 18.9235 90.7192 18.9235C89.6347 18.9235 88.7671 19.8219 88.7671 21.1365C88.7671 22.4291 89.6347 23.4591 90.7192 23.4591ZM93.3215 24.5766L93.2772 24.2914C92.8008 25.2333 91.2822 25.6501 90.3065 25.6501C88.0074 25.6501 86.3163 23.5686 86.3163 21.1145C86.3163 18.661 88.051 16.667 90.4367 16.667C90.8487 16.667 92.215 16.7766 93.2772 18.0257L93.3209 17.7405C93.3209 17.2148 93.7329 16.7766 94.2536 16.7766C94.7737 16.7766 95.2072 17.2148 95.2072 17.7405V24.5766C95.2072 25.1023 94.7737 25.5405 94.253 25.5405C93.7329 25.5405 93.3202 25.1023 93.3202 24.5766H93.3215ZM102.007 18.9235H101.747C100.207 19.0117 99.904 19.8881 99.904 20.8954V24.2914C99.904 24.9707 99.3403 25.5405 98.6679 25.5405C97.9955 25.5405 97.4532 24.9707 97.4532 24.2914V17.7405C97.4532 17.2148 97.8867 16.7766 98.4075 16.7766C98.9282 16.7766 99.3403 17.2148 99.3403 17.7405C100.251 16.8861 100.988 16.7111 101.747 16.667H101.986C102.571 16.667 103.113 17.1707 103.113 17.8066C103.113 18.3978 102.593 18.9235 102.007 18.9235ZM111.452 23.7223C111.561 23.8973 111.626 24.0944 111.626 24.3135C111.626 24.9487 111.04 25.5405 110.411 25.5405C109.978 25.5405 109.609 25.2119 109.327 24.8612L106.509 21.5968V24.2914C106.509 24.9707 105.944 25.5405 105.272 25.5405C104.599 25.5405 104.057 24.9707 104.057 24.2914V14.3451C104.057 13.6651 104.599 13.096 105.272 13.096C105.944 13.096 106.508 13.6651 106.508 14.3451V20.5453L109.327 17.4339C109.609 17.1052 109.956 16.7766 110.39 16.7766C110.997 16.7766 111.561 17.3464 111.561 17.9816C111.561 18.1787 111.517 18.3757 111.409 18.5514L109.175 20.9829L111.452 23.7216V23.7223ZM114.5 20.3984H118.035C118.035 19.3525 117.205 18.8334 116.267 18.8334C115.33 18.8334 114.5 19.3745 114.5 20.3984ZM119.466 21.9034H114.5C114.5 23.3716 115.909 23.5907 116.538 23.5907C116.994 23.5907 117.645 23.5032 118.143 23.2834C118.295 23.1745 118.555 23.0864 118.772 23.0864C119.314 23.0864 119.769 23.5473 119.769 24.095C119.769 24.4671 119.531 24.7957 119.228 24.9707C118.469 25.5185 117.492 25.6501 116.56 25.6501C114.088 25.6501 112.028 24.3141 112.028 21.224C112.028 18.7926 113.286 16.667 116.213 16.667C118.577 16.667 120.377 18.2007 120.42 20.9395C120.42 21.4652 119.987 21.9034 119.466 21.9034ZM126.287 25.6501H125.615C123.749 25.6501 122.666 24.8392 122.666 21.9254V18.9235H122.037C121.451 18.9235 120.931 18.3978 120.931 17.8066C120.931 17.1707 121.451 16.667 122.037 16.667H122.666V14.3444C122.666 13.6651 123.208 13.0953 123.88 13.0953C124.552 13.0953 125.116 13.6651 125.116 14.3444V16.667H126.135C126.721 16.667 127.242 17.1707 127.242 17.8066C127.242 18.3978 126.721 18.9235 126.135 18.9235H125.116V21.4431C125.116 23.1084 125.203 23.4591 125.94 23.4591H126.287C126.872 23.4591 127.371 23.9414 127.371 24.5546C127.371 25.1464 126.872 25.6501 126.287 25.6501ZM138.161 14.0158C138.486 14.2129 138.768 14.651 138.768 15.0458C138.768 15.6811 138.226 16.2068 137.619 16.2068C137.467 16.2068 137.315 16.1634 137.185 16.1193C136.469 15.5936 135.559 15.2429 134.604 15.2429C132.35 15.2429 130.787 17.0832 130.787 19.3617C130.787 21.6408 132.349 23.4591 134.604 23.4591C135.732 23.4591 136.73 22.9989 137.489 22.2981C137.685 22.1578 137.92 22.0813 138.161 22.079C138.768 22.079 139.245 22.5607 139.245 23.1745C139.245 23.5686 139.007 23.9193 138.703 24.1164C137.619 25.0369 136.144 25.6501 134.626 25.6501C131.157 25.6501 128.337 22.8018 128.337 19.2962C128.337 15.7906 131.156 12.9423 134.626 12.9423C135.928 12.9423 137.163 13.3365 138.161 14.0158ZM144.375 23.4591C145.481 23.4591 146.413 22.4732 146.413 21.1365C146.413 19.8005 145.459 18.9235 144.374 18.9235C143.291 18.9235 142.423 19.8219 142.423 21.1365C142.423 22.4291 143.291 23.4591 144.374 23.4591H144.375ZM146.977 24.5766L146.934 24.2914C146.457 25.2333 144.939 25.6501 143.962 25.6501C141.664 25.6501 139.972 23.5686 139.972 21.1145C139.972 18.661 141.708 16.667 144.093 16.667C144.505 16.667 145.871 16.7766 146.934 18.0257L146.977 17.7405C146.977 17.2148 147.389 16.7766 147.91 16.7766C148.43 16.7766 148.864 17.2148 148.864 17.7405V24.5766C148.864 25.1023 148.43 25.5405 147.91 25.5405C147.389 25.5405 146.977 25.1023 146.977 24.5766ZM155.598 23.4591C156.682 23.4591 157.549 22.4291 157.549 21.1365C157.549 19.8219 156.682 18.9235 155.598 18.9235C154.513 18.9235 153.559 19.7999 153.559 21.1365C153.559 22.4732 154.492 23.4591 155.598 23.4591ZM153.559 24.9273V28.0381C153.559 28.7175 152.995 29.2873 152.323 29.2873C151.651 29.2873 151.108 28.7175 151.108 28.0381V17.7405C151.108 17.2148 151.543 16.7766 152.063 16.7766C152.583 16.7766 152.996 17.2148 152.996 17.828C153.906 16.8861 155.034 16.667 155.88 16.667C158.265 16.667 160 18.661 160 21.1145C160 23.5686 158.309 25.6501 156.01 25.6501C155.295 25.6501 154.232 25.431 153.559 24.9273Z" fill="white"/>
</g>
</svg>
