<svg width="12" height="12" viewBox="0 0 12 12" fill="none" xmlns="http://www.w3.org/2000/svg">
<path d="M7.38597 5.0773C7.65982 5.0773 7.92752 4.99609 8.15522 4.84395C8.38292 4.69181 8.56039 4.47556 8.66519 4.22255C8.76998 3.96955 8.7974 3.69115 8.74398 3.42256C8.69055 3.15397 8.55868 2.90725 8.36504 2.71361C8.1714 2.51997 7.92468 2.3881 7.65609 2.33467C7.3875 2.28125 7.1091 2.30867 6.8561 2.41347C6.60309 2.51826 6.38685 2.69573 6.2347 2.92343C6.08256 3.15113 6.00135 3.41883 6.00135 3.69268C6.00135 4.05991 6.14723 4.41209 6.4069 4.67175C6.66656 4.93142 7.01874 5.0773 7.38597 5.0773ZM7.38597 3.23114C7.47725 3.23114 7.56649 3.25821 7.64238 3.30893C7.71828 3.35964 7.77744 3.43172 7.81237 3.51606C7.84731 3.6004 7.85645 3.6932 7.83864 3.78272C7.82083 3.87225 7.77687 3.95449 7.71233 4.01904C7.64778 4.08359 7.56554 4.12755 7.47601 4.14535C7.38648 4.16316 7.29368 4.15402 7.20934 4.11909C7.12501 4.08416 7.05293 4.025 7.00221 3.9491C6.9515 3.8732 6.92443 3.78397 6.92443 3.69268C6.92443 3.57028 6.97306 3.45288 7.05961 3.36633C7.14617 3.27977 7.26356 3.23114 7.38597 3.23114Z" fill="white"/>
<path d="M10.6167 0.461914H1.38597C1.14115 0.461914 0.906364 0.559166 0.733254 0.732277C0.560143 0.905388 0.462891 1.14018 0.462891 1.38499V10.6158C0.462891 10.8606 0.560143 11.0954 0.733254 11.2685C0.906364 11.4416 1.14115 11.5388 1.38597 11.5388H10.6167C10.8616 11.5388 11.0963 11.4416 11.2695 11.2685C11.4426 11.0954 11.5398 10.8606 11.5398 10.6158V1.38499C11.5398 1.14018 11.4426 0.905388 11.2695 0.732277C11.0963 0.559166 10.8616 0.461914 10.6167 0.461914ZM10.6167 10.6158H1.38597V7.84653L3.69366 5.53884L6.27366 8.11884C6.44661 8.29076 6.68057 8.38726 6.92443 8.38726C7.16829 8.38726 7.40225 8.29076 7.5752 8.11884L8.30904 7.38499L10.6167 9.69268V10.6158ZM10.6167 8.38653L8.95981 6.72961C8.78686 6.55768 8.55291 6.46118 8.30904 6.46118C8.06518 6.46118 7.83123 6.55768 7.65828 6.72961L6.92443 7.46345L4.34443 4.88345C4.17148 4.71153 3.93752 4.61503 3.69366 4.61503C3.4498 4.61503 3.21584 4.71153 3.04289 4.88345L1.38597 6.54038V1.38499H10.6167V8.38653Z" fill="white"/>
</svg>
