<svg width="14" height="14" viewBox="0 0 14 14" fill="none" xmlns="http://www.w3.org/2000/svg">
<g clip-path="url(#clip0)">
<path d="M3.5612 3.78076L2.3483 3.87447C2.0108 3.90055 1.71021 4.07744 1.52356 4.35976L0.124748 6.47538C-0.0168094 6.68948 -0.0393132 6.95742 0.0645102 7.19213C0.168361 7.42685 0.381777 7.59042 0.635389 7.62971L1.74595 7.8017C2.00574 6.42304 2.62764 5.04778 3.5612 3.78076Z" fill="white"/>
<path d="M6.19824 12.2541L6.37026 13.3646C6.40955 13.6183 6.57312 13.8317 6.80781 13.9355C6.90545 13.9787 7.00881 14 7.11165 14C7.25611 14 7.39955 13.9579 7.52459 13.8753L9.64027 12.4765C9.92259 12.2898 10.0995 11.9892 10.1255 11.6517L10.2192 10.4388C8.95217 11.3724 7.57693 11.9943 6.19824 12.2541Z" fill="white"/>
<path d="M5.78053 11.4843C5.81908 11.4843 5.85785 11.4811 5.89655 11.4747C6.47415 11.3781 7.03086 11.2154 7.56193 11.0024L2.99747 6.43799C2.78452 6.96903 2.62183 7.52574 2.52525 8.10337C2.48719 8.33106 2.56356 8.56302 2.72677 8.72626L5.27366 11.2731C5.40917 11.4086 5.59208 11.4843 5.78053 11.4843Z" fill="white"/>
<path d="M12.8838 6.20706C14.0007 4.04764 14.0421 1.76565 13.9837 0.695428C13.9637 0.328724 13.6714 0.0363669 13.3046 0.0163788C13.1304 0.00686323 12.9238 0 12.6911 0C11.4944 0 9.60078 0.18126 7.79299 1.11633C6.35631 1.85944 4.47242 3.49571 3.36096 5.64606C3.37409 5.65631 3.38691 5.66719 3.399 5.67928L8.32083 10.6011C8.33292 10.6132 8.34377 10.626 8.35403 10.6391C10.5044 9.52764 12.1406 7.64375 12.8838 6.20706ZM8.1402 2.95966C8.93975 2.16011 10.2408 2.16003 11.0404 2.95966C11.4277 3.34699 11.641 3.862 11.641 4.40977C11.641 4.95755 11.4277 5.47256 11.0404 5.85988C10.6407 6.25962 10.1154 6.45953 9.59031 6.45958C9.06507 6.45961 8.54005 6.25973 8.1402 5.85988C7.75285 5.47256 7.53952 4.95755 7.53952 4.40977C7.53952 3.862 7.75285 3.34699 8.1402 2.95966Z" fill="white"/>
<path d="M8.72013 5.27988C9.19988 5.75962 9.98054 5.75965 10.4603 5.27988C10.6927 5.04746 10.8207 4.73847 10.8207 4.4098C10.8207 4.08113 10.6927 3.77214 10.4603 3.53975C10.2204 3.29986 9.90532 3.17993 9.59021 3.17993C9.27513 3.17993 8.96002 3.29986 8.72016 3.53975C8.48776 3.77214 8.35974 4.08113 8.35974 4.4098C8.35974 4.73847 8.48774 5.04748 8.72013 5.27988Z" fill="white"/>
<path d="M0.418593 11.5374C0.523565 11.5374 0.628538 11.4973 0.708601 11.4172L2.04771 10.0781C2.20789 9.91793 2.20789 9.65824 2.04771 9.49806C1.88755 9.33788 1.62784 9.33788 1.46766 9.49806L0.128558 10.8372C-0.0316221 10.9974 -0.0316221 11.257 0.128558 11.4172C0.208647 11.4973 0.31362 11.5374 0.418593 11.5374Z" fill="white"/>
<path d="M3.27473 10.7252C3.11458 10.5651 2.85487 10.5651 2.69469 10.7252L0.120135 13.2998C-0.0400449 13.46 -0.0400449 13.7197 0.120135 13.8798C0.200225 13.9599 0.305197 14 0.41017 14C0.515143 14 0.620115 13.9599 0.700178 13.8798L3.2747 11.3053C3.43491 11.1451 3.43491 10.8854 3.27473 10.7252Z" fill="white"/>
<path d="M3.92198 11.9524L2.5829 13.2915C2.42272 13.4517 2.42272 13.7114 2.5829 13.8716C2.66299 13.9517 2.76797 13.9917 2.87291 13.9917C2.97786 13.9917 3.08285 13.9517 3.16292 13.8716L4.50202 12.5325C4.6622 12.3723 4.6622 12.1126 4.50202 11.9524C4.34187 11.7922 4.08216 11.7922 3.92198 11.9524Z" fill="white"/>
</g>
<defs>
<clipPath id="clip0">
<rect width="14" height="14" fill="white"/>
</clipPath>
</defs>
</svg>
