<svg width="1280" height="279" viewBox="0 0 1280 279" fill="none" xmlns="http://www.w3.org/2000/svg">
<g opacity="0.2">
<mask id="mask0_8897_33178" style="mask-type:alpha" maskUnits="userSpaceOnUse" x="-80" y="26" width="1440" height="253">
<ellipse cx="640" cy="152.5" rx="720" ry="126.5" fill="url(#paint0_radial_8897_33178)"/>
</mask>
<g mask="url(#mask0_8897_33178)">
<rect x="-16" y="5" width="32" height="32" stroke="white" stroke-opacity="0.3" stroke-width="1.25"/>
<rect x="16" y="5" width="32" height="32" stroke="white" stroke-opacity="0.3" stroke-width="1.25"/>
<rect x="48" y="5" width="32" height="32" stroke="white" stroke-opacity="0.3" stroke-width="1.25"/>
<rect x="80" y="5" width="32" height="32" stroke="white" stroke-opacity="0.3" stroke-width="1.25"/>
<rect x="112" y="5" width="32" height="32" stroke="white" stroke-opacity="0.3" stroke-width="1.25"/>
<rect x="144" y="5" width="32" height="32" stroke="white" stroke-opacity="0.3" stroke-width="1.25"/>
<rect x="176" y="5" width="32" height="32" stroke="white" stroke-opacity="0.3" stroke-width="1.25"/>
<rect x="208" y="5" width="32" height="32" stroke="white" stroke-opacity="0.3" stroke-width="1.25"/>
<rect x="240" y="5" width="32" height="32" stroke="white" stroke-opacity="0.3" stroke-width="1.25"/>
<rect x="272" y="5" width="32" height="32" stroke="white" stroke-opacity="0.3" stroke-width="1.25"/>
<rect x="304" y="5" width="32" height="32" stroke="white" stroke-opacity="0.3" stroke-width="1.25"/>
<rect x="336" y="5" width="32" height="32" stroke="white" stroke-opacity="0.3" stroke-width="1.25"/>
<rect x="368" y="5" width="32" height="32" stroke="white" stroke-opacity="0.3" stroke-width="1.25"/>
<rect x="400" y="5" width="32" height="32" stroke="white" stroke-opacity="0.3" stroke-width="1.25"/>
<rect x="432" y="5" width="32" height="32" stroke="white" stroke-opacity="0.3" stroke-width="1.25"/>
<rect x="464" y="5" width="32" height="32" stroke="white" stroke-opacity="0.3" stroke-width="1.25"/>
<rect x="496" y="5" width="32" height="32" stroke="white" stroke-opacity="0.3" stroke-width="1.25"/>
<rect x="528" y="5" width="32" height="32" stroke="white" stroke-opacity="0.3" stroke-width="1.25"/>
<rect x="560" y="5" width="32" height="32" stroke="white" stroke-opacity="0.3" stroke-width="1.25"/>
<rect x="592" y="5" width="32" height="32" stroke="white" stroke-opacity="0.3" stroke-width="1.25"/>
<rect x="624" y="5" width="32" height="32" stroke="white" stroke-opacity="0.3" stroke-width="1.25"/>
<rect x="656" y="5" width="32" height="32" stroke="white" stroke-opacity="0.3" stroke-width="1.25"/>
<rect x="688" y="5" width="32" height="32" stroke="white" stroke-opacity="0.3" stroke-width="1.25"/>
<rect x="720" y="5" width="32" height="32" stroke="white" stroke-opacity="0.3" stroke-width="1.25"/>
<rect x="752" y="5" width="32" height="32" stroke="white" stroke-opacity="0.3" stroke-width="1.25"/>
<rect x="784" y="5" width="32" height="32" stroke="white" stroke-opacity="0.3" stroke-width="1.25"/>
<rect x="816" y="5" width="32" height="32" stroke="white" stroke-opacity="0.3" stroke-width="1.25"/>
<rect x="848" y="5" width="32" height="32" stroke="white" stroke-opacity="0.3" stroke-width="1.25"/>
<rect x="880" y="5" width="32" height="32" stroke="white" stroke-opacity="0.3" stroke-width="1.25"/>
<rect x="912" y="5" width="32" height="32" stroke="white" stroke-opacity="0.3" stroke-width="1.25"/>
<rect x="944" y="5" width="32" height="32" stroke="white" stroke-opacity="0.3" stroke-width="1.25"/>
<rect x="976" y="5" width="32" height="32" stroke="white" stroke-opacity="0.3" stroke-width="1.25"/>
<rect x="1008" y="5" width="32" height="32" stroke="white" stroke-opacity="0.3" stroke-width="1.25"/>
<rect x="1040" y="5" width="32" height="32" stroke="white" stroke-opacity="0.3" stroke-width="1.25"/>
<rect x="1072" y="5" width="32" height="32" stroke="white" stroke-opacity="0.3" stroke-width="1.25"/>
<rect x="1104" y="5" width="32" height="32" stroke="white" stroke-opacity="0.3" stroke-width="1.25"/>
<rect x="1136" y="5" width="32" height="32" stroke="white" stroke-opacity="0.3" stroke-width="1.25"/>
<rect x="1168" y="5" width="32" height="32" stroke="white" stroke-opacity="0.3" stroke-width="1.25"/>
<rect x="1200" y="5" width="32" height="32" stroke="white" stroke-opacity="0.3" stroke-width="1.25"/>
<rect x="1232" y="5" width="32" height="32" stroke="white" stroke-opacity="0.3" stroke-width="1.25"/>
<rect x="1264" y="5" width="32" height="32" stroke="white" stroke-opacity="0.3" stroke-width="1.25"/>
<rect x="-16" y="37" width="32" height="32" stroke="white" stroke-opacity="0.3" stroke-width="1.25"/>
<rect x="16" y="37" width="32" height="32" stroke="white" stroke-opacity="0.3" stroke-width="1.25"/>
<rect x="48" y="37" width="32" height="32" stroke="white" stroke-opacity="0.3" stroke-width="1.25"/>
<rect x="80" y="37" width="32" height="32" stroke="white" stroke-opacity="0.3" stroke-width="1.25"/>
<rect x="112" y="37" width="32" height="32" stroke="white" stroke-opacity="0.3" stroke-width="1.25"/>
<rect x="144" y="37" width="32" height="32" stroke="white" stroke-opacity="0.3" stroke-width="1.25"/>
<rect x="176" y="37" width="32" height="32" stroke="white" stroke-opacity="0.3" stroke-width="1.25"/>
<rect x="208" y="37" width="32" height="32" stroke="white" stroke-opacity="0.3" stroke-width="1.25"/>
<rect x="240" y="37" width="32" height="32" stroke="white" stroke-opacity="0.3" stroke-width="1.25"/>
<rect x="272" y="37" width="32" height="32" stroke="white" stroke-opacity="0.3" stroke-width="1.25"/>
<rect x="304" y="37" width="32" height="32" stroke="white" stroke-opacity="0.3" stroke-width="1.25"/>
<rect x="336" y="37" width="32" height="32" stroke="white" stroke-opacity="0.3" stroke-width="1.25"/>
<rect x="368" y="37" width="32" height="32" stroke="white" stroke-opacity="0.3" stroke-width="1.25"/>
<rect x="400" y="37" width="32" height="32" stroke="white" stroke-opacity="0.3" stroke-width="1.25"/>
<rect x="432" y="37" width="32" height="32" stroke="white" stroke-opacity="0.3" stroke-width="1.25"/>
<rect x="464" y="37" width="32" height="32" stroke="white" stroke-opacity="0.3" stroke-width="1.25"/>
<rect x="496" y="37" width="32" height="32" stroke="white" stroke-opacity="0.3" stroke-width="1.25"/>
<rect x="528" y="37" width="32" height="32" stroke="white" stroke-opacity="0.3" stroke-width="1.25"/>
<rect x="560" y="37" width="32" height="32" stroke="white" stroke-opacity="0.3" stroke-width="1.25"/>
<rect x="592" y="37" width="32" height="32" stroke="white" stroke-opacity="0.3" stroke-width="1.25"/>
<rect x="624" y="37" width="32" height="32" stroke="white" stroke-opacity="0.3" stroke-width="1.25"/>
<rect x="656" y="37" width="32" height="32" stroke="white" stroke-opacity="0.3" stroke-width="1.25"/>
<rect x="688" y="37" width="32" height="32" stroke="white" stroke-opacity="0.3" stroke-width="1.25"/>
<rect x="720" y="37" width="32" height="32" stroke="white" stroke-opacity="0.3" stroke-width="1.25"/>
<rect x="752" y="37" width="32" height="32" stroke="white" stroke-opacity="0.3" stroke-width="1.25"/>
<rect x="784" y="37" width="32" height="32" stroke="white" stroke-opacity="0.3" stroke-width="1.25"/>
<rect x="816" y="37" width="32" height="32" stroke="white" stroke-opacity="0.3" stroke-width="1.25"/>
<rect x="848" y="37" width="32" height="32" stroke="white" stroke-opacity="0.3" stroke-width="1.25"/>
<rect x="880" y="37" width="32" height="32" stroke="white" stroke-opacity="0.3" stroke-width="1.25"/>
<rect x="912" y="37" width="32" height="32" stroke="white" stroke-opacity="0.3" stroke-width="1.25"/>
<rect x="944" y="37" width="32" height="32" stroke="white" stroke-opacity="0.3" stroke-width="1.25"/>
<rect x="976" y="37" width="32" height="32" stroke="white" stroke-opacity="0.3" stroke-width="1.25"/>
<rect x="1008" y="37" width="32" height="32" stroke="white" stroke-opacity="0.3" stroke-width="1.25"/>
<rect x="1040" y="37" width="32" height="32" stroke="white" stroke-opacity="0.3" stroke-width="1.25"/>
<rect x="1072" y="37" width="32" height="32" stroke="white" stroke-opacity="0.3" stroke-width="1.25"/>
<rect x="1104" y="37" width="32" height="32" stroke="white" stroke-opacity="0.3" stroke-width="1.25"/>
<rect x="1136" y="37" width="32" height="32" stroke="white" stroke-opacity="0.3" stroke-width="1.25"/>
<rect x="1168" y="37" width="32" height="32" stroke="white" stroke-opacity="0.3" stroke-width="1.25"/>
<rect x="1200" y="37" width="32" height="32" stroke="white" stroke-opacity="0.3" stroke-width="1.25"/>
<rect x="1232" y="37" width="32" height="32" stroke="white" stroke-opacity="0.3" stroke-width="1.25"/>
<rect x="1264" y="37" width="32" height="32" stroke="white" stroke-opacity="0.3" stroke-width="1.25"/>
<rect x="-16" y="69" width="32" height="32" stroke="white" stroke-opacity="0.3" stroke-width="1.25"/>
<rect x="16" y="69" width="32" height="32" stroke="white" stroke-opacity="0.3" stroke-width="1.25"/>
<rect x="48" y="69" width="32" height="32" stroke="white" stroke-opacity="0.3" stroke-width="1.25"/>
<rect x="80" y="69" width="32" height="32" stroke="white" stroke-opacity="0.3" stroke-width="1.25"/>
<rect x="112" y="69" width="32" height="32" stroke="white" stroke-opacity="0.3" stroke-width="1.25"/>
<rect x="144" y="69" width="32" height="32" stroke="white" stroke-opacity="0.3" stroke-width="1.25"/>
<rect x="176" y="69" width="32" height="32" stroke="white" stroke-opacity="0.3" stroke-width="1.25"/>
<rect x="208" y="69" width="32" height="32" stroke="white" stroke-opacity="0.3" stroke-width="1.25"/>
<rect x="240" y="69" width="32" height="32" stroke="white" stroke-opacity="0.3" stroke-width="1.25"/>
<rect x="272" y="69" width="32" height="32" stroke="white" stroke-opacity="0.3" stroke-width="1.25"/>
<rect x="304" y="69" width="32" height="32" stroke="white" stroke-opacity="0.3" stroke-width="1.25"/>
<rect x="336" y="69" width="32" height="32" stroke="white" stroke-opacity="0.3" stroke-width="1.25"/>
<rect x="368" y="69" width="32" height="32" stroke="white" stroke-opacity="0.3" stroke-width="1.25"/>
<rect x="400" y="69" width="32" height="32" stroke="white" stroke-opacity="0.3" stroke-width="1.25"/>
<rect x="432" y="69" width="32" height="32" stroke="white" stroke-opacity="0.3" stroke-width="1.25"/>
<rect x="464" y="69" width="32" height="32" stroke="white" stroke-opacity="0.3" stroke-width="1.25"/>
<rect x="496" y="69" width="32" height="32" stroke="white" stroke-opacity="0.3" stroke-width="1.25"/>
<rect x="528" y="69" width="32" height="32" stroke="white" stroke-opacity="0.3" stroke-width="1.25"/>
<rect x="560" y="69" width="32" height="32" stroke="white" stroke-opacity="0.3" stroke-width="1.25"/>
<rect x="592" y="69" width="32" height="32" stroke="white" stroke-opacity="0.3" stroke-width="1.25"/>
<rect x="624" y="69" width="32" height="32" stroke="white" stroke-opacity="0.3" stroke-width="1.25"/>
<rect x="656" y="69" width="32" height="32" stroke="white" stroke-opacity="0.3" stroke-width="1.25"/>
<rect x="688" y="69" width="32" height="32" stroke="white" stroke-opacity="0.3" stroke-width="1.25"/>
<rect x="720" y="69" width="32" height="32" stroke="white" stroke-opacity="0.3" stroke-width="1.25"/>
<rect x="752" y="69" width="32" height="32" stroke="white" stroke-opacity="0.3" stroke-width="1.25"/>
<rect x="784" y="69" width="32" height="32" stroke="white" stroke-opacity="0.3" stroke-width="1.25"/>
<rect x="816" y="69" width="32" height="32" stroke="white" stroke-opacity="0.3" stroke-width="1.25"/>
<rect x="848" y="69" width="32" height="32" stroke="white" stroke-opacity="0.3" stroke-width="1.25"/>
<rect x="880" y="69" width="32" height="32" stroke="white" stroke-opacity="0.3" stroke-width="1.25"/>
<rect x="912" y="69" width="32" height="32" stroke="white" stroke-opacity="0.3" stroke-width="1.25"/>
<rect x="944" y="69" width="32" height="32" stroke="white" stroke-opacity="0.3" stroke-width="1.25"/>
<rect x="976" y="69" width="32" height="32" stroke="white" stroke-opacity="0.3" stroke-width="1.25"/>
<rect x="1008" y="69" width="32" height="32" stroke="white" stroke-opacity="0.3" stroke-width="1.25"/>
<rect x="1040" y="69" width="32" height="32" stroke="white" stroke-opacity="0.3" stroke-width="1.25"/>
<rect x="1072" y="69" width="32" height="32" stroke="white" stroke-opacity="0.3" stroke-width="1.25"/>
<rect x="1104" y="69" width="32" height="32" stroke="white" stroke-opacity="0.3" stroke-width="1.25"/>
<rect x="1136" y="69" width="32" height="32" stroke="white" stroke-opacity="0.3" stroke-width="1.25"/>
<rect x="1168" y="69" width="32" height="32" stroke="white" stroke-opacity="0.3" stroke-width="1.25"/>
<rect x="1200" y="69" width="32" height="32" stroke="white" stroke-opacity="0.3" stroke-width="1.25"/>
<rect x="1232" y="69" width="32" height="32" stroke="white" stroke-opacity="0.3" stroke-width="1.25"/>
<rect x="1264" y="69" width="32" height="32" stroke="white" stroke-opacity="0.3" stroke-width="1.25"/>
<rect x="-16" y="101" width="32" height="32" stroke="white" stroke-opacity="0.3" stroke-width="1.25"/>
<rect x="16" y="101" width="32" height="32" stroke="white" stroke-opacity="0.3" stroke-width="1.25"/>
<rect x="48" y="101" width="32" height="32" stroke="white" stroke-opacity="0.3" stroke-width="1.25"/>
<rect x="80" y="101" width="32" height="32" stroke="white" stroke-opacity="0.3" stroke-width="1.25"/>
<rect x="112" y="101" width="32" height="32" stroke="white" stroke-opacity="0.3" stroke-width="1.25"/>
<rect x="144" y="101" width="32" height="32" stroke="white" stroke-opacity="0.3" stroke-width="1.25"/>
<rect x="176" y="101" width="32" height="32" stroke="white" stroke-opacity="0.3" stroke-width="1.25"/>
<rect x="208" y="101" width="32" height="32" stroke="white" stroke-opacity="0.3" stroke-width="1.25"/>
<rect x="240" y="101" width="32" height="32" stroke="white" stroke-opacity="0.3" stroke-width="1.25"/>
<rect x="272" y="101" width="32" height="32" stroke="white" stroke-opacity="0.3" stroke-width="1.25"/>
<rect x="304" y="101" width="32" height="32" stroke="white" stroke-opacity="0.3" stroke-width="1.25"/>
<rect x="336" y="101" width="32" height="32" stroke="white" stroke-opacity="0.3" stroke-width="1.25"/>
<rect x="368" y="101" width="32" height="32" stroke="white" stroke-opacity="0.3" stroke-width="1.25"/>
<rect x="400" y="101" width="32" height="32" stroke="white" stroke-opacity="0.3" stroke-width="1.25"/>
<rect x="432" y="101" width="32" height="32" stroke="white" stroke-opacity="0.3" stroke-width="1.25"/>
<rect x="464" y="101" width="32" height="32" stroke="white" stroke-opacity="0.3" stroke-width="1.25"/>
<rect x="496" y="101" width="32" height="32" stroke="white" stroke-opacity="0.3" stroke-width="1.25"/>
<rect x="528" y="101" width="32" height="32" stroke="white" stroke-opacity="0.3" stroke-width="1.25"/>
<rect x="560" y="101" width="32" height="32" stroke="white" stroke-opacity="0.3" stroke-width="1.25"/>
<rect x="592" y="101" width="32" height="32" stroke="white" stroke-opacity="0.3" stroke-width="1.25"/>
<rect x="624" y="101" width="32" height="32" stroke="white" stroke-opacity="0.3" stroke-width="1.25"/>
<rect x="656" y="101" width="32" height="32" stroke="white" stroke-opacity="0.3" stroke-width="1.25"/>
<rect x="688" y="101" width="32" height="32" stroke="white" stroke-opacity="0.3" stroke-width="1.25"/>
<rect x="720" y="101" width="32" height="32" stroke="white" stroke-opacity="0.3" stroke-width="1.25"/>
<rect x="752" y="101" width="32" height="32" stroke="white" stroke-opacity="0.3" stroke-width="1.25"/>
<rect x="784" y="101" width="32" height="32" stroke="white" stroke-opacity="0.3" stroke-width="1.25"/>
<rect x="816" y="101" width="32" height="32" stroke="white" stroke-opacity="0.3" stroke-width="1.25"/>
<rect x="848" y="101" width="32" height="32" stroke="white" stroke-opacity="0.3" stroke-width="1.25"/>
<rect x="880" y="101" width="32" height="32" stroke="white" stroke-opacity="0.3" stroke-width="1.25"/>
<rect x="912" y="101" width="32" height="32" stroke="white" stroke-opacity="0.3" stroke-width="1.25"/>
<rect x="944" y="101" width="32" height="32" stroke="white" stroke-opacity="0.3" stroke-width="1.25"/>
<rect x="976" y="101" width="32" height="32" stroke="white" stroke-opacity="0.3" stroke-width="1.25"/>
<rect x="1008" y="101" width="32" height="32" stroke="white" stroke-opacity="0.3" stroke-width="1.25"/>
<rect x="1040" y="101" width="32" height="32" stroke="white" stroke-opacity="0.3" stroke-width="1.25"/>
<rect x="1072" y="101" width="32" height="32" stroke="white" stroke-opacity="0.3" stroke-width="1.25"/>
<rect x="1104" y="101" width="32" height="32" stroke="white" stroke-opacity="0.3" stroke-width="1.25"/>
<rect x="1136" y="101" width="32" height="32" stroke="white" stroke-opacity="0.3" stroke-width="1.25"/>
<rect x="1168" y="101" width="32" height="32" stroke="white" stroke-opacity="0.3" stroke-width="1.25"/>
<rect x="1200" y="101" width="32" height="32" stroke="white" stroke-opacity="0.3" stroke-width="1.25"/>
<rect x="1232" y="101" width="32" height="32" stroke="white" stroke-opacity="0.3" stroke-width="1.25"/>
<rect x="1264" y="101" width="32" height="32" stroke="white" stroke-opacity="0.3" stroke-width="1.25"/>
<rect x="-16" y="133" width="32" height="32" stroke="white" stroke-opacity="0.3" stroke-width="1.25"/>
<rect x="16" y="133" width="32" height="32" stroke="white" stroke-opacity="0.3" stroke-width="1.25"/>
<rect x="48" y="133" width="32" height="32" stroke="white" stroke-opacity="0.3" stroke-width="1.25"/>
<rect x="80" y="133" width="32" height="32" stroke="white" stroke-opacity="0.3" stroke-width="1.25"/>
<rect x="112" y="133" width="32" height="32" stroke="white" stroke-opacity="0.3" stroke-width="1.25"/>
<rect x="144" y="133" width="32" height="32" stroke="white" stroke-opacity="0.3" stroke-width="1.25"/>
<rect x="176" y="133" width="32" height="32" stroke="white" stroke-opacity="0.3" stroke-width="1.25"/>
<rect x="208" y="133" width="32" height="32" stroke="white" stroke-opacity="0.3" stroke-width="1.25"/>
<rect x="240" y="133" width="32" height="32" stroke="white" stroke-opacity="0.3" stroke-width="1.25"/>
<rect x="272" y="133" width="32" height="32" stroke="white" stroke-opacity="0.3" stroke-width="1.25"/>
<rect x="304" y="133" width="32" height="32" stroke="white" stroke-opacity="0.3" stroke-width="1.25"/>
<rect x="336" y="133" width="32" height="32" stroke="white" stroke-opacity="0.3" stroke-width="1.25"/>
<rect x="368" y="133" width="32" height="32" stroke="white" stroke-opacity="0.3" stroke-width="1.25"/>
<rect x="400" y="133" width="32" height="32" stroke="white" stroke-opacity="0.3" stroke-width="1.25"/>
<rect x="432" y="133" width="32" height="32" stroke="white" stroke-opacity="0.3" stroke-width="1.25"/>
<rect x="464" y="133" width="32" height="32" stroke="white" stroke-opacity="0.3" stroke-width="1.25"/>
<rect x="496" y="133" width="32" height="32" stroke="white" stroke-opacity="0.3" stroke-width="1.25"/>
<rect x="528" y="133" width="32" height="32" stroke="white" stroke-opacity="0.3" stroke-width="1.25"/>
<rect x="560" y="133" width="32" height="32" stroke="white" stroke-opacity="0.3" stroke-width="1.25"/>
<rect x="592" y="133" width="32" height="32" stroke="white" stroke-opacity="0.3" stroke-width="1.25"/>
<rect x="624" y="133" width="32" height="32" stroke="white" stroke-opacity="0.3" stroke-width="1.25"/>
<rect x="656" y="133" width="32" height="32" stroke="white" stroke-opacity="0.3" stroke-width="1.25"/>
<rect x="688" y="133" width="32" height="32" stroke="white" stroke-opacity="0.3" stroke-width="1.25"/>
<rect x="720" y="133" width="32" height="32" stroke="white" stroke-opacity="0.3" stroke-width="1.25"/>
<rect x="752" y="133" width="32" height="32" stroke="white" stroke-opacity="0.3" stroke-width="1.25"/>
<rect x="784" y="133" width="32" height="32" stroke="white" stroke-opacity="0.3" stroke-width="1.25"/>
<rect x="816" y="133" width="32" height="32" stroke="white" stroke-opacity="0.3" stroke-width="1.25"/>
<rect x="848" y="133" width="32" height="32" stroke="white" stroke-opacity="0.3" stroke-width="1.25"/>
<rect x="880" y="133" width="32" height="32" stroke="white" stroke-opacity="0.3" stroke-width="1.25"/>
<rect x="912" y="133" width="32" height="32" stroke="white" stroke-opacity="0.3" stroke-width="1.25"/>
<rect x="944" y="133" width="32" height="32" stroke="white" stroke-opacity="0.3" stroke-width="1.25"/>
<rect x="976" y="133" width="32" height="32" stroke="white" stroke-opacity="0.3" stroke-width="1.25"/>
<rect x="1008" y="133" width="32" height="32" stroke="white" stroke-opacity="0.3" stroke-width="1.25"/>
<rect x="1040" y="133" width="32" height="32" stroke="white" stroke-opacity="0.3" stroke-width="1.25"/>
<rect x="1072" y="133" width="32" height="32" stroke="white" stroke-opacity="0.3" stroke-width="1.25"/>
<rect x="1104" y="133" width="32" height="32" stroke="white" stroke-opacity="0.3" stroke-width="1.25"/>
<rect x="1136" y="133" width="32" height="32" stroke="white" stroke-opacity="0.3" stroke-width="1.25"/>
<rect x="1168" y="133" width="32" height="32" stroke="white" stroke-opacity="0.3" stroke-width="1.25"/>
<rect x="1200" y="133" width="32" height="32" stroke="white" stroke-opacity="0.3" stroke-width="1.25"/>
<rect x="1232" y="133" width="32" height="32" stroke="white" stroke-opacity="0.3" stroke-width="1.25"/>
<rect x="1264" y="133" width="32" height="32" stroke="white" stroke-opacity="0.3" stroke-width="1.25"/>
<rect x="-16" y="165" width="32" height="32" stroke="white" stroke-opacity="0.3" stroke-width="1.25"/>
<rect x="16" y="165" width="32" height="32" stroke="white" stroke-opacity="0.3" stroke-width="1.25"/>
<rect x="48" y="165" width="32" height="32" stroke="white" stroke-opacity="0.3" stroke-width="1.25"/>
<rect x="80" y="165" width="32" height="32" stroke="white" stroke-opacity="0.3" stroke-width="1.25"/>
<rect x="112" y="165" width="32" height="32" stroke="white" stroke-opacity="0.3" stroke-width="1.25"/>
<rect x="144" y="165" width="32" height="32" stroke="white" stroke-opacity="0.3" stroke-width="1.25"/>
<rect x="176" y="165" width="32" height="32" stroke="white" stroke-opacity="0.3" stroke-width="1.25"/>
<rect x="208" y="165" width="32" height="32" stroke="white" stroke-opacity="0.3" stroke-width="1.25"/>
<rect x="240" y="165" width="32" height="32" stroke="white" stroke-opacity="0.3" stroke-width="1.25"/>
<rect x="272" y="165" width="32" height="32" stroke="white" stroke-opacity="0.3" stroke-width="1.25"/>
<rect x="304" y="165" width="32" height="32" stroke="white" stroke-opacity="0.3" stroke-width="1.25"/>
<rect x="336" y="165" width="32" height="32" stroke="white" stroke-opacity="0.3" stroke-width="1.25"/>
<rect x="368" y="165" width="32" height="32" stroke="white" stroke-opacity="0.3" stroke-width="1.25"/>
<rect x="400" y="165" width="32" height="32" stroke="white" stroke-opacity="0.3" stroke-width="1.25"/>
<rect x="432" y="165" width="32" height="32" stroke="white" stroke-opacity="0.3" stroke-width="1.25"/>
<rect x="464" y="165" width="32" height="32" stroke="white" stroke-opacity="0.3" stroke-width="1.25"/>
<rect x="496" y="165" width="32" height="32" stroke="white" stroke-opacity="0.3" stroke-width="1.25"/>
<rect x="528" y="165" width="32" height="32" stroke="white" stroke-opacity="0.3" stroke-width="1.25"/>
<rect x="560" y="165" width="32" height="32" stroke="white" stroke-opacity="0.3" stroke-width="1.25"/>
<rect x="592" y="165" width="32" height="32" stroke="white" stroke-opacity="0.3" stroke-width="1.25"/>
<rect x="624" y="165" width="32" height="32" stroke="white" stroke-opacity="0.3" stroke-width="1.25"/>
<rect x="656" y="165" width="32" height="32" stroke="white" stroke-opacity="0.3" stroke-width="1.25"/>
<rect x="688" y="165" width="32" height="32" stroke="white" stroke-opacity="0.3" stroke-width="1.25"/>
<rect x="720" y="165" width="32" height="32" stroke="white" stroke-opacity="0.3" stroke-width="1.25"/>
<rect x="752" y="165" width="32" height="32" stroke="white" stroke-opacity="0.3" stroke-width="1.25"/>
<rect x="784" y="165" width="32" height="32" stroke="white" stroke-opacity="0.3" stroke-width="1.25"/>
<rect x="816" y="165" width="32" height="32" stroke="white" stroke-opacity="0.3" stroke-width="1.25"/>
<rect x="848" y="165" width="32" height="32" stroke="white" stroke-opacity="0.3" stroke-width="1.25"/>
<rect x="880" y="165" width="32" height="32" stroke="white" stroke-opacity="0.3" stroke-width="1.25"/>
<rect x="912" y="165" width="32" height="32" stroke="white" stroke-opacity="0.3" stroke-width="1.25"/>
<rect x="944" y="165" width="32" height="32" stroke="white" stroke-opacity="0.3" stroke-width="1.25"/>
<rect x="976" y="165" width="32" height="32" stroke="white" stroke-opacity="0.3" stroke-width="1.25"/>
<rect x="1008" y="165" width="32" height="32" stroke="white" stroke-opacity="0.3" stroke-width="1.25"/>
<rect x="1040" y="165" width="32" height="32" stroke="white" stroke-opacity="0.3" stroke-width="1.25"/>
<rect x="1072" y="165" width="32" height="32" stroke="white" stroke-opacity="0.3" stroke-width="1.25"/>
<rect x="1104" y="165" width="32" height="32" stroke="white" stroke-opacity="0.3" stroke-width="1.25"/>
<rect x="1136" y="165" width="32" height="32" stroke="white" stroke-opacity="0.3" stroke-width="1.25"/>
<rect x="1168" y="165" width="32" height="32" stroke="white" stroke-opacity="0.3" stroke-width="1.25"/>
<rect x="1200" y="165" width="32" height="32" stroke="white" stroke-opacity="0.3" stroke-width="1.25"/>
<rect x="1232" y="165" width="32" height="32" stroke="white" stroke-opacity="0.3" stroke-width="1.25"/>
<rect x="1264" y="165" width="32" height="32" stroke="white" stroke-opacity="0.3" stroke-width="1.25"/>
<rect x="-16" y="197" width="32" height="32" stroke="white" stroke-opacity="0.3" stroke-width="1.25"/>
<rect x="16" y="197" width="32" height="32" stroke="white" stroke-opacity="0.3" stroke-width="1.25"/>
<rect x="48" y="197" width="32" height="32" stroke="white" stroke-opacity="0.3" stroke-width="1.25"/>
<rect x="80" y="197" width="32" height="32" stroke="white" stroke-opacity="0.3" stroke-width="1.25"/>
<rect x="112" y="197" width="32" height="32" stroke="white" stroke-opacity="0.3" stroke-width="1.25"/>
<rect x="144" y="197" width="32" height="32" stroke="white" stroke-opacity="0.3" stroke-width="1.25"/>
<rect x="176" y="197" width="32" height="32" stroke="white" stroke-opacity="0.3" stroke-width="1.25"/>
<rect x="208" y="197" width="32" height="32" stroke="white" stroke-opacity="0.3" stroke-width="1.25"/>
<rect x="240" y="197" width="32" height="32" stroke="white" stroke-opacity="0.3" stroke-width="1.25"/>
<rect x="272" y="197" width="32" height="32" stroke="white" stroke-opacity="0.3" stroke-width="1.25"/>
<rect x="304" y="197" width="32" height="32" stroke="white" stroke-opacity="0.3" stroke-width="1.25"/>
<rect x="336" y="197" width="32" height="32" stroke="white" stroke-opacity="0.3" stroke-width="1.25"/>
<rect x="368" y="197" width="32" height="32" stroke="white" stroke-opacity="0.3" stroke-width="1.25"/>
<rect x="400" y="197" width="32" height="32" stroke="white" stroke-opacity="0.3" stroke-width="1.25"/>
<rect x="432" y="197" width="32" height="32" stroke="white" stroke-opacity="0.3" stroke-width="1.25"/>
<rect x="464" y="197" width="32" height="32" stroke="white" stroke-opacity="0.3" stroke-width="1.25"/>
<rect x="496" y="197" width="32" height="32" stroke="white" stroke-opacity="0.3" stroke-width="1.25"/>
<rect x="528" y="197" width="32" height="32" stroke="white" stroke-opacity="0.3" stroke-width="1.25"/>
<rect x="560" y="197" width="32" height="32" stroke="white" stroke-opacity="0.3" stroke-width="1.25"/>
<rect x="592" y="197" width="32" height="32" stroke="white" stroke-opacity="0.3" stroke-width="1.25"/>
<rect x="624" y="197" width="32" height="32" stroke="white" stroke-opacity="0.3" stroke-width="1.25"/>
<rect x="656" y="197" width="32" height="32" stroke="white" stroke-opacity="0.3" stroke-width="1.25"/>
<rect x="688" y="197" width="32" height="32" stroke="white" stroke-opacity="0.3" stroke-width="1.25"/>
<rect x="720" y="197" width="32" height="32" stroke="white" stroke-opacity="0.3" stroke-width="1.25"/>
<rect x="752" y="197" width="32" height="32" stroke="white" stroke-opacity="0.3" stroke-width="1.25"/>
<rect x="784" y="197" width="32" height="32" stroke="white" stroke-opacity="0.3" stroke-width="1.25"/>
<rect x="816" y="197" width="32" height="32" stroke="white" stroke-opacity="0.3" stroke-width="1.25"/>
<rect x="848" y="197" width="32" height="32" stroke="white" stroke-opacity="0.3" stroke-width="1.25"/>
<rect x="880" y="197" width="32" height="32" stroke="white" stroke-opacity="0.3" stroke-width="1.25"/>
<rect x="912" y="197" width="32" height="32" stroke="white" stroke-opacity="0.3" stroke-width="1.25"/>
<rect x="944" y="197" width="32" height="32" stroke="white" stroke-opacity="0.3" stroke-width="1.25"/>
<rect x="976" y="197" width="32" height="32" stroke="white" stroke-opacity="0.3" stroke-width="1.25"/>
<rect x="1008" y="197" width="32" height="32" stroke="white" stroke-opacity="0.3" stroke-width="1.25"/>
<rect x="1040" y="197" width="32" height="32" stroke="white" stroke-opacity="0.3" stroke-width="1.25"/>
<rect x="1072" y="197" width="32" height="32" stroke="white" stroke-opacity="0.3" stroke-width="1.25"/>
<rect x="1104" y="197" width="32" height="32" stroke="white" stroke-opacity="0.3" stroke-width="1.25"/>
<rect x="1136" y="197" width="32" height="32" stroke="white" stroke-opacity="0.3" stroke-width="1.25"/>
<rect x="1168" y="197" width="32" height="32" stroke="white" stroke-opacity="0.3" stroke-width="1.25"/>
<rect x="1200" y="197" width="32" height="32" stroke="white" stroke-opacity="0.3" stroke-width="1.25"/>
<rect x="1232" y="197" width="32" height="32" stroke="white" stroke-opacity="0.3" stroke-width="1.25"/>
<rect x="1264" y="197" width="32" height="32" stroke="white" stroke-opacity="0.3" stroke-width="1.25"/>
<rect x="-16" y="229" width="32" height="32" stroke="white" stroke-opacity="0.3" stroke-width="1.25"/>
<rect x="16" y="229" width="32" height="32" stroke="white" stroke-opacity="0.3" stroke-width="1.25"/>
<rect x="48" y="229" width="32" height="32" stroke="white" stroke-opacity="0.3" stroke-width="1.25"/>
<rect x="80" y="229" width="32" height="32" stroke="white" stroke-opacity="0.3" stroke-width="1.25"/>
<rect x="112" y="229" width="32" height="32" stroke="white" stroke-opacity="0.3" stroke-width="1.25"/>
<rect x="144" y="229" width="32" height="32" stroke="white" stroke-opacity="0.3" stroke-width="1.25"/>
<rect x="176" y="229" width="32" height="32" stroke="white" stroke-opacity="0.3" stroke-width="1.25"/>
<rect x="208" y="229" width="32" height="32" stroke="white" stroke-opacity="0.3" stroke-width="1.25"/>
<rect x="240" y="229" width="32" height="32" stroke="white" stroke-opacity="0.3" stroke-width="1.25"/>
<rect x="272" y="229" width="32" height="32" stroke="white" stroke-opacity="0.3" stroke-width="1.25"/>
<rect x="304" y="229" width="32" height="32" stroke="white" stroke-opacity="0.3" stroke-width="1.25"/>
<rect x="336" y="229" width="32" height="32" stroke="white" stroke-opacity="0.3" stroke-width="1.25"/>
<rect x="368" y="229" width="32" height="32" stroke="white" stroke-opacity="0.3" stroke-width="1.25"/>
<rect x="400" y="229" width="32" height="32" stroke="white" stroke-opacity="0.3" stroke-width="1.25"/>
<rect x="432" y="229" width="32" height="32" stroke="white" stroke-opacity="0.3" stroke-width="1.25"/>
<rect x="464" y="229" width="32" height="32" stroke="white" stroke-opacity="0.3" stroke-width="1.25"/>
<rect x="496" y="229" width="32" height="32" stroke="white" stroke-opacity="0.3" stroke-width="1.25"/>
<rect x="528" y="229" width="32" height="32" stroke="white" stroke-opacity="0.3" stroke-width="1.25"/>
<rect x="560" y="229" width="32" height="32" stroke="white" stroke-opacity="0.3" stroke-width="1.25"/>
<rect x="592" y="229" width="32" height="32" stroke="white" stroke-opacity="0.3" stroke-width="1.25"/>
<rect x="624" y="229" width="32" height="32" stroke="white" stroke-opacity="0.3" stroke-width="1.25"/>
<rect x="656" y="229" width="32" height="32" stroke="white" stroke-opacity="0.3" stroke-width="1.25"/>
<rect x="688" y="229" width="32" height="32" stroke="white" stroke-opacity="0.3" stroke-width="1.25"/>
<rect x="720" y="229" width="32" height="32" stroke="white" stroke-opacity="0.3" stroke-width="1.25"/>
<rect x="752" y="229" width="32" height="32" stroke="white" stroke-opacity="0.3" stroke-width="1.25"/>
<rect x="784" y="229" width="32" height="32" stroke="white" stroke-opacity="0.3" stroke-width="1.25"/>
<rect x="816" y="229" width="32" height="32" stroke="white" stroke-opacity="0.3" stroke-width="1.25"/>
<rect x="848" y="229" width="32" height="32" stroke="white" stroke-opacity="0.3" stroke-width="1.25"/>
<rect x="880" y="229" width="32" height="32" stroke="white" stroke-opacity="0.3" stroke-width="1.25"/>
<rect x="912" y="229" width="32" height="32" stroke="white" stroke-opacity="0.3" stroke-width="1.25"/>
<rect x="944" y="229" width="32" height="32" stroke="white" stroke-opacity="0.3" stroke-width="1.25"/>
<rect x="976" y="229" width="32" height="32" stroke="white" stroke-opacity="0.3" stroke-width="1.25"/>
<rect x="1008" y="229" width="32" height="32" stroke="white" stroke-opacity="0.3" stroke-width="1.25"/>
<rect x="1040" y="229" width="32" height="32" stroke="white" stroke-opacity="0.3" stroke-width="1.25"/>
<rect x="1072" y="229" width="32" height="32" stroke="white" stroke-opacity="0.3" stroke-width="1.25"/>
<rect x="1104" y="229" width="32" height="32" stroke="white" stroke-opacity="0.3" stroke-width="1.25"/>
<rect x="1136" y="229" width="32" height="32" stroke="white" stroke-opacity="0.3" stroke-width="1.25"/>
<rect x="1168" y="229" width="32" height="32" stroke="white" stroke-opacity="0.3" stroke-width="1.25"/>
<rect x="1200" y="229" width="32" height="32" stroke="white" stroke-opacity="0.3" stroke-width="1.25"/>
<rect x="1232" y="229" width="32" height="32" stroke="white" stroke-opacity="0.3" stroke-width="1.25"/>
<rect x="1264" y="229" width="32" height="32" stroke="white" stroke-opacity="0.3" stroke-width="1.25"/>
<rect x="-16" y="261" width="32" height="32" stroke="white" stroke-opacity="0.3" stroke-width="1.25"/>
<rect x="16" y="261" width="32" height="32" stroke="white" stroke-opacity="0.3" stroke-width="1.25"/>
<rect x="48" y="261" width="32" height="32" stroke="white" stroke-opacity="0.3" stroke-width="1.25"/>
<rect x="80" y="261" width="32" height="32" stroke="white" stroke-opacity="0.3" stroke-width="1.25"/>
<rect x="112" y="261" width="32" height="32" stroke="white" stroke-opacity="0.3" stroke-width="1.25"/>
<rect x="144" y="261" width="32" height="32" stroke="white" stroke-opacity="0.3" stroke-width="1.25"/>
<rect x="176" y="261" width="32" height="32" stroke="white" stroke-opacity="0.3" stroke-width="1.25"/>
<rect x="208" y="261" width="32" height="32" stroke="white" stroke-opacity="0.3" stroke-width="1.25"/>
<rect x="240" y="261" width="32" height="32" stroke="white" stroke-opacity="0.3" stroke-width="1.25"/>
<rect x="272" y="261" width="32" height="32" stroke="white" stroke-opacity="0.3" stroke-width="1.25"/>
<rect x="304" y="261" width="32" height="32" stroke="white" stroke-opacity="0.3" stroke-width="1.25"/>
<rect x="336" y="261" width="32" height="32" stroke="white" stroke-opacity="0.3" stroke-width="1.25"/>
<rect x="368" y="261" width="32" height="32" stroke="white" stroke-opacity="0.3" stroke-width="1.25"/>
<rect x="400" y="261" width="32" height="32" stroke="white" stroke-opacity="0.3" stroke-width="1.25"/>
<rect x="432" y="261" width="32" height="32" stroke="white" stroke-opacity="0.3" stroke-width="1.25"/>
<rect x="464" y="261" width="32" height="32" stroke="white" stroke-opacity="0.3" stroke-width="1.25"/>
<rect x="496" y="261" width="32" height="32" stroke="white" stroke-opacity="0.3" stroke-width="1.25"/>
<rect x="528" y="261" width="32" height="32" stroke="white" stroke-opacity="0.3" stroke-width="1.25"/>
<rect x="560" y="261" width="32" height="32" stroke="white" stroke-opacity="0.3" stroke-width="1.25"/>
<rect x="592" y="261" width="32" height="32" stroke="white" stroke-opacity="0.3" stroke-width="1.25"/>
<rect x="624" y="261" width="32" height="32" stroke="white" stroke-opacity="0.3" stroke-width="1.25"/>
<rect x="656" y="261" width="32" height="32" stroke="white" stroke-opacity="0.3" stroke-width="1.25"/>
<rect x="688" y="261" width="32" height="32" stroke="white" stroke-opacity="0.3" stroke-width="1.25"/>
<rect x="720" y="261" width="32" height="32" stroke="white" stroke-opacity="0.3" stroke-width="1.25"/>
<rect x="752" y="261" width="32" height="32" stroke="white" stroke-opacity="0.3" stroke-width="1.25"/>
<rect x="784" y="261" width="32" height="32" stroke="white" stroke-opacity="0.3" stroke-width="1.25"/>
<rect x="816" y="261" width="32" height="32" stroke="white" stroke-opacity="0.3" stroke-width="1.25"/>
<rect x="848" y="261" width="32" height="32" stroke="white" stroke-opacity="0.3" stroke-width="1.25"/>
<rect x="880" y="261" width="32" height="32" stroke="white" stroke-opacity="0.3" stroke-width="1.25"/>
<rect x="912" y="261" width="32" height="32" stroke="white" stroke-opacity="0.3" stroke-width="1.25"/>
<rect x="944" y="261" width="32" height="32" stroke="white" stroke-opacity="0.3" stroke-width="1.25"/>
<rect x="976" y="261" width="32" height="32" stroke="white" stroke-opacity="0.3" stroke-width="1.25"/>
<rect x="1008" y="261" width="32" height="32" stroke="white" stroke-opacity="0.3" stroke-width="1.25"/>
<rect x="1040" y="261" width="32" height="32" stroke="white" stroke-opacity="0.3" stroke-width="1.25"/>
<rect x="1072" y="261" width="32" height="32" stroke="white" stroke-opacity="0.3" stroke-width="1.25"/>
<rect x="1104" y="261" width="32" height="32" stroke="white" stroke-opacity="0.3" stroke-width="1.25"/>
<rect x="1136" y="261" width="32" height="32" stroke="white" stroke-opacity="0.3" stroke-width="1.25"/>
<rect x="1168" y="261" width="32" height="32" stroke="white" stroke-opacity="0.3" stroke-width="1.25"/>
<rect x="1200" y="261" width="32" height="32" stroke="white" stroke-opacity="0.3" stroke-width="1.25"/>
<rect x="1232" y="261" width="32" height="32" stroke="white" stroke-opacity="0.3" stroke-width="1.25"/>
<rect x="1264" y="261" width="32" height="32" stroke="white" stroke-opacity="0.3" stroke-width="1.25"/>
</g>
</g>
<defs>
<radialGradient id="paint0_radial_8897_33178" cx="0" cy="0" r="1" gradientUnits="userSpaceOnUse" gradientTransform="translate(640 152.5) rotate(90) scale(126.5 720)">
<stop/>
<stop offset="1" stop-opacity="0"/>
</radialGradient>
</defs>
</svg>
