<svg width="24" height="24" viewBox="0 0 24 24" fill="none" xmlns="http://www.w3.org/2000/svg">
<g clip-path="url(#clip0_311_8104)">
<path d="M2.16962 7.29601V16.704C2.16962 17.3088 2.48642 17.856 3.01442 18.1632L11.1648 22.8672C11.6832 23.1648 12.3264 23.1648 12.8448 22.8672L20.9952 18.1632C21.5136 17.8656 21.84 17.3088 21.84 16.704V7.29601C21.84 6.69121 21.5232 6.14401 20.9952 5.83681L12.8448 1.13281C12.3264 0.835207 11.6832 0.835207 11.1648 1.13281L3.01442 5.83681C2.49602 6.13441 2.17922 6.69121 2.17922 7.29601H2.16962Z" fill="#213147"/>
<path d="M13.776 13.824L12.6144 17.0112C12.5856 17.0976 12.5856 17.1936 12.6144 17.2896L14.6112 22.7712L16.9248 21.4368L14.1504 13.824C14.0832 13.6512 13.8432 13.6512 13.776 13.824Z" fill="#12AAFF"/>
<path d="M16.1088 8.46719C16.0416 8.29439 15.8016 8.29439 15.7344 8.46719L14.5728 11.6544C14.544 11.7408 14.544 11.8368 14.5728 11.9328L17.8464 20.9088L20.16 19.5744L16.1088 8.47679V8.46719Z" fill="#12AAFF"/>
<path d="M12 1.488C12.0576 1.488 12.1152 1.5072 12.1632 1.536L20.976 6.624C21.0816 6.6816 21.1392 6.7968 21.1392 6.912V17.088C21.1392 17.2032 21.072 17.3184 20.976 17.376L12.1632 22.464C12.1152 22.4928 12.0576 22.512 12 22.512C11.9424 22.512 11.8848 22.4928 11.8368 22.464L3.02402 17.376C2.91842 17.3184 2.86082 17.2032 2.86082 17.088V6.9024C2.86082 6.7872 2.92802 6.672 3.02402 6.6144L11.8368 1.5264C11.8848 1.4976 11.9424 1.4784 12 1.4784V1.488ZM12 0C11.6832 0 11.376 0.0768 11.088 0.24L2.27522 5.328C1.70882 5.6544 1.36322 6.2496 1.36322 6.9024V17.0784C1.36322 17.7312 1.70882 18.3264 2.27522 18.6528L11.088 23.7408C11.3664 23.904 11.6832 23.9808 12 23.9808C12.3168 23.9808 12.624 23.904 12.912 23.7408L21.7248 18.6528C22.2912 18.3264 22.6368 17.7312 22.6368 17.0784V6.9024C22.6368 6.2496 22.2912 5.6544 21.7248 5.328L12.9024 0.24C12.624 0.0768 12.3072 0 11.9904 0H12Z" fill="#9DCCED"/>
<path d="M6.16321 20.9184L6.97921 18.6912L8.61121 20.0448L7.08481 21.4464L6.16321 20.9184Z" fill="#213147"/>
<path d="M11.2512 6.18239H9.01441C8.85121 6.18239 8.69761 6.28799 8.64001 6.44159L3.84961 19.5744L6.16321 20.9088L11.4432 6.44159C11.4912 6.30719 11.3952 6.17279 11.2608 6.17279L11.2512 6.18239Z" fill="white"/>
<path d="M15.168 6.18239H12.9312C12.768 6.18239 12.6144 6.28799 12.5568 6.44159L7.08484 21.4368L9.39844 22.7712L15.3504 6.44159C15.3984 6.30719 15.3024 6.17279 15.168 6.17279V6.18239Z" fill="white"/>
</g>
<defs>
<clipPath id="clip0_311_8104">
<rect width="24" height="24" fill="white"/>
</clipPath>
</defs>
</svg>
