<svg width="24" height="24" viewBox="0 0 24 24" fill="none" xmlns="http://www.w3.org/2000/svg">
<g id="Logo Partners" clip-path="url(#clip0_4651_3301)">
<circle id="Ellipse 6085" cx="12" cy="12" r="12" fill="white"/>
<path id="Vector" fill-rule="evenodd" clip-rule="evenodd" d="M12 24C18.6274 24 24 18.6274 24 12C24 5.37259 18.6274 0 12 0C5.37258 0 0 5.37259 0 12C0 18.6274 5.37258 24 12 24ZM8.37414 17.4365H5.55905C4.89161 17.4365 4.55788 17.4365 4.35801 17.3073C4.14201 17.1676 4.00573 16.9332 3.9913 16.6766C3.97791 16.439 4.1432 16.1495 4.47378 15.5703L4.47393 15.5701L10.6374 4.77237C10.9729 4.18465 11.1406 3.89078 11.354 3.78139C11.5846 3.66322 11.858 3.66301 12.0887 3.78087C12.3023 3.88993 12.4705 4.18357 12.8068 4.77077L14.2283 7.25268L14.2283 7.25275C14.4729 7.67971 14.5951 7.89322 14.6489 8.11846C14.7075 8.36369 14.7076 8.61916 14.6493 8.86439C14.5957 9.0897 14.4736 9.30336 14.2294 9.73058L10.5437 16.1783C10.2959 16.6118 10.172 16.8285 10.0023 16.9905C9.81751 17.1668 9.59346 17.2968 9.34857 17.3697C9.12355 17.4365 8.87376 17.4365 8.37414 17.4365ZM18.4175 17.4365H15.1538C14.4803 17.4365 14.1435 17.4365 13.943 17.3062C13.7264 17.1653 13.5905 16.9291 13.5777 16.6713C13.5658 16.4326 13.7353 16.1418 14.0743 15.5603L15.7035 12.7652C16.0382 12.191 16.2055 11.9039 16.4174 11.7964C16.6464 11.6802 16.9171 11.68 17.1463 11.7958C17.3583 11.903 17.526 12.1899 17.8615 12.7635L17.8616 12.7637L19.4962 15.5587C19.8364 16.1406 20.0065 16.4316 19.9949 16.6704C19.9824 16.9285 19.8466 17.1649 19.6298 17.306C19.4293 17.4365 19.0921 17.4365 18.4175 17.4365Z" fill="#D04D47"/>
</g>
<defs>
<clipPath id="clip0_4651_3301">
<rect width="24" height="24" fill="white"/>
</clipPath>
</defs>
</svg>
