<svg width="24" height="24" viewBox="0 0 24 24" fill="none" xmlns="http://www.w3.org/2000/svg">
<g clip-path="url(#clip0_2498_9178)">
<mask id="mask0_2498_9178" style="mask-type:alpha" maskUnits="userSpaceOnUse" x="0" y="0" width="24" height="24">
<path d="M12 24C5.37216 24 0 18.6278 0 12C0 5.37216 5.37216 0 12 0C18.6278 0 24 5.37216 24 12C24 18.6278 18.6278 24 12 24Z" fill="black"/>
</mask>
<g mask="url(#mask0_2498_9178)">
<path fill-rule="evenodd" clip-rule="evenodd" d="M12 12L-4 11.9013L-3.98552 11.3131L12 12Z" fill="#FEFEFF"/>
<path fill-rule="evenodd" clip-rule="evenodd" d="M12 12L-3.98822 11.4108L-3.96379 10.9203L12 12Z" fill="#FDFEFF"/>
<path fill-rule="evenodd" clip-rule="evenodd" d="M12 12L-3.96924 11.019L-3.93304 10.5294L12 12Z" fill="#FCFDFF"/>
<path fill-rule="evenodd" clip-rule="evenodd" d="M12 12L-3.94025 10.6271L-3.89228 10.1385L12 12Z" fill="#FBFCFF"/>
<path fill-rule="evenodd" clip-rule="evenodd" d="M12 12L-3.90131 10.2362L-3.84158 9.74933L12 12Z" fill="#FAFCFF"/>
<path fill-rule="evenodd" clip-rule="evenodd" d="M12 12L-3.85339 9.84706L-3.7819 9.36108L12 12Z" fill="#F9FBFF"/>
<path fill-rule="evenodd" clip-rule="evenodd" d="M12 12L-3.79547 9.4579L-3.71221 8.97464L12 12Z" fill="#F8FAFF"/>
<path fill-rule="evenodd" clip-rule="evenodd" d="M12.0001 12L-3.72845 9.07147L-3.63343 8.59003L12.0001 12Z" fill="#F7FAFF"/>
<path fill-rule="evenodd" clip-rule="evenodd" d="M12 12L-3.65247 8.68688L-3.54477 8.20724L12 12Z" fill="#F6F9FF"/>
<path fill-rule="evenodd" clip-rule="evenodd" d="M12 12L-3.56647 8.30317L-3.44701 7.82715L12 12Z" fill="#F5F8FF"/>
<path fill-rule="evenodd" clip-rule="evenodd" d="M12 12L-3.47058 7.92216L-3.34026 7.44885L12 12Z" fill="#F4F8FF"/>
<path fill-rule="evenodd" clip-rule="evenodd" d="M12 12L-3.36652 7.54387L-3.22353 7.07419L12 12Z" fill="#F3F7FF"/>
<path fill-rule="evenodd" clip-rule="evenodd" d="M12 12L-3.25244 7.16833L-3.09769 6.70227L12 12Z" fill="#F2F6FF"/>
<path fill-rule="evenodd" clip-rule="evenodd" d="M12 12L-3.12939 6.79548L-2.96378 6.33304L12 12Z" fill="#F1F6FF"/>
<path fill-rule="evenodd" clip-rule="evenodd" d="M12 12L-2.99634 6.42533L-2.81987 5.96741L12 12Z" fill="#F0F5FF"/>
<path fill-rule="evenodd" clip-rule="evenodd" d="M12 12L-2.85516 6.05883L-2.66783 5.60544L12 12Z" fill="#EFF4FF"/>
<path fill-rule="evenodd" clip-rule="evenodd" d="M12 12L-2.70496 5.69592L-2.50586 5.24796L12 12Z" fill="#EEF3FF"/>
<path fill-rule="evenodd" clip-rule="evenodd" d="M12 12L-2.54565 5.33754L-2.3357 4.8941L12 12Z" fill="#EDF3FF"/>
<path fill-rule="evenodd" clip-rule="evenodd" d="M12 12L-2.37823 4.9828L-2.15742 4.54388L12 12Z" fill="#ECF2FF"/>
<path fill-rule="evenodd" clip-rule="evenodd" d="M12 12L-2.20178 4.63168L-1.97011 4.1991L12 12Z" fill="#EBF1FF"/>
<path fill-rule="evenodd" clip-rule="evenodd" d="M12 12L-2.0163 4.28596L-1.77467 3.85791L12 12Z" fill="#EAF1FF"/>
<path fill-rule="evenodd" clip-rule="evenodd" d="M12 12L-1.82263 3.94389L-1.57014 3.52307L12 12Z" fill="#E9F0FF"/>
<path fill-rule="evenodd" clip-rule="evenodd" d="M12 12L-1.62079 3.60725L-1.35835 3.19186L12 12Z" fill="#E8EFFF"/>
<path fill-rule="evenodd" clip-rule="evenodd" d="M12 12L-1.41083 3.27512L-1.13752 2.86697L12 12Z" fill="#E7EFFF"/>
<path fill-rule="evenodd" clip-rule="evenodd" d="M12 12L-1.19275 2.94842L-0.910396 2.54752L12 12Z" fill="#E6EEFF"/>
<path fill-rule="evenodd" clip-rule="evenodd" d="M12 12L-0.966492 2.62806L-0.674184 2.23349L12 12Z" fill="#E5EDFF"/>
<path fill-rule="evenodd" clip-rule="evenodd" d="M12 12L-0.733032 2.3122L-0.43077 1.92487L12 12Z" fill="#E4EDFF"/>
<path fill-rule="evenodd" clip-rule="evenodd" d="M12 12L-0.491394 2.00272L-0.180082 1.62354L12 12Z" fill="#E3ECFF"/>
<path fill-rule="evenodd" clip-rule="evenodd" d="M12.0001 12L-0.241577 1.69955L0.0787848 1.32761L12.0001 12Z" fill="#E2EBFF"/>
<path fill-rule="evenodd" clip-rule="evenodd" d="M12 12L0.0145264 1.4018L0.343938 1.03799L12 12Z" fill="#E1EBFF"/>
<path fill-rule="evenodd" clip-rule="evenodd" d="M12 12L0.277832 1.1113L0.616294 0.755646L12 12Z" fill="#E0EAFF"/>
<path fill-rule="evenodd" clip-rule="evenodd" d="M12 12L0.548462 0.827156L0.895973 0.479645L12 12Z" fill="#DFE9FF"/>
<path fill-rule="evenodd" clip-rule="evenodd" d="M12 12L0.827148 0.548403L1.1819 0.210846L12 12Z" fill="#DEE9FF"/>
<path fill-rule="evenodd" clip-rule="evenodd" d="M12 12L1.11133 0.277837L1.47513 -0.0515747L12 12Z" fill="#DDE8FF"/>
<path fill-rule="evenodd" clip-rule="evenodd" d="M12 12L1.40186 0.0144843L1.7738 -0.305878L12 12Z" fill="#DCE7FF"/>
<path fill-rule="evenodd" clip-rule="evenodd" d="M12 12L1.69958 -0.241636L2.07877 -0.552948L12 12Z" fill="#DBE7FF"/>
<path fill-rule="evenodd" clip-rule="evenodd" d="M12 12L2.00275 -0.491398L2.39008 -0.792755L12 12Z" fill="#DAE6FF"/>
<path fill-rule="evenodd" clip-rule="evenodd" d="M12 12L2.31226 -0.733052L2.70683 -1.02536L12 12Z" fill="#D9E5FF"/>
<path fill-rule="evenodd" clip-rule="evenodd" d="M12 12L2.62805 -0.966518L3.02896 -1.24887L12 12Z" fill="#D8E5FF"/>
<path fill-rule="evenodd" clip-rule="evenodd" d="M12 12L2.94843 -1.19278L3.35657 -1.46518L12 12Z" fill="#D7E4FF"/>
<path fill-rule="evenodd" clip-rule="evenodd" d="M12 12L3.27515 -1.41087L3.69053 -1.67331L12 12Z" fill="#D6E3FF"/>
<path fill-rule="evenodd" clip-rule="evenodd" d="M12 12L3.60724 -1.62083L4.02805 -1.87332L12 12Z" fill="#D5E3FF"/>
<path fill-rule="evenodd" clip-rule="evenodd" d="M12 12L3.94391 -1.82264L4.37106 -2.06427L12 12Z" fill="#D4E2FF"/>
<path fill-rule="evenodd" clip-rule="evenodd" d="M12 12L4.28601 -2.01631L4.71859 -2.24799L12 12Z" fill="#D3E1FF"/>
<path fill-rule="evenodd" clip-rule="evenodd" d="M12 12L4.63171 -2.20181L5.07063 -2.42172L12 12Z" fill="#D2E0FF"/>
<path fill-rule="evenodd" clip-rule="evenodd" d="M12 12L4.98285 -2.37829L5.42629 -2.58734L12 12Z" fill="#D1E0FF"/>
<path fill-rule="evenodd" clip-rule="evenodd" d="M12 12L5.33759 -2.54572L5.78645 -2.74481L12 12Z" fill="#D0DFFF"/>
<path fill-rule="evenodd" clip-rule="evenodd" d="M12 12L5.69592 -2.70498L6.15022 -2.89322L12 12Z" fill="#CFDEFF"/>
<path fill-rule="evenodd" clip-rule="evenodd" d="M12 12L6.05884 -2.85521L6.51766 -3.03168L12 12Z" fill="#CEDEFF"/>
<path fill-rule="evenodd" clip-rule="evenodd" d="M12 12L6.42535 -2.99638L6.8878 -3.16199L12 12Z" fill="#CDDDFF"/>
<path fill-rule="evenodd" clip-rule="evenodd" d="M12 12L6.79547 -3.12941L7.26153 -3.28235L12 12Z" fill="#CCDCFF"/>
<path fill-rule="evenodd" clip-rule="evenodd" d="M12 12L7.16833 -3.25248L7.63802 -3.39456L12 12Z" fill="#CBDCFF"/>
<path fill-rule="evenodd" clip-rule="evenodd" d="M12 12L7.54388 -3.36651L8.01719 -3.49683L12 12Z" fill="#CADBFF"/>
<path fill-rule="evenodd" clip-rule="evenodd" d="M12 12L7.92218 -3.4706L8.3982 -3.59006L12 12Z" fill="#C9DAFF"/>
<path fill-rule="evenodd" clip-rule="evenodd" d="M12 12L8.30316 -3.56652L8.78189 -3.67331L12 12Z" fill="#C8DAFF"/>
<path fill-rule="evenodd" clip-rule="evenodd" d="M12 12L8.68689 -3.65251L9.16743 -3.74753L12 12Z" fill="#C7D9FF"/>
<path fill-rule="evenodd" clip-rule="evenodd" d="M12 12L9.07153 -3.72852L9.55479 -3.81268L12 12Z" fill="#C6D8FF"/>
<path fill-rule="evenodd" clip-rule="evenodd" d="M12 12L9.45795 -3.79549L9.94392 -3.86789L12 12Z" fill="#C5D8FF"/>
<path fill-rule="evenodd" clip-rule="evenodd" d="M12 12L9.84711 -3.85339L10.334 -3.91312L12 12Z" fill="#C4D7FF"/>
<path fill-rule="evenodd" clip-rule="evenodd" d="M12 12L10.2362 -3.90138L10.7249 -3.94934L12 12Z" fill="#C3D6FF"/>
<path fill-rule="evenodd" clip-rule="evenodd" d="M12 12L10.6272 -3.94027L11.1168 -3.97647L12 12Z" fill="#C2D6FF"/>
<path fill-rule="evenodd" clip-rule="evenodd" d="M12 12L11.019 -3.96924L11.5095 -3.99277L12 12Z" fill="#C1D5FF"/>
<path fill-rule="evenodd" clip-rule="evenodd" d="M12 12L11.4109 -3.98824L11.9014 -4L12 12Z" fill="#C0D4FF"/>
<path fill-rule="evenodd" clip-rule="evenodd" d="M12 12L11.8036 -3.9982H12.2941L12 12Z" fill="#BFD4FF"/>
<path fill-rule="evenodd" clip-rule="evenodd" d="M12 12L12.1964 -3.9982L12.6869 -3.98553L12 12Z" fill="#BED3FF"/>
<path fill-rule="evenodd" clip-rule="evenodd" d="M12 12L12.5891 -3.98825L13.0787 -3.96382L12 12Z" fill="#BDD2FF"/>
<path fill-rule="evenodd" clip-rule="evenodd" d="M12 12L12.981 -3.96924L13.4706 -3.93304L12 12Z" fill="#BCD2FF"/>
<path fill-rule="evenodd" clip-rule="evenodd" d="M12 12L13.3729 -3.94028L13.8615 -3.89231L12 12Z" fill="#BBD1FF"/>
<path fill-rule="evenodd" clip-rule="evenodd" d="M12 12L13.7629 -3.90137L14.2507 -3.84164L12 12Z" fill="#BAD0FF"/>
<path fill-rule="evenodd" clip-rule="evenodd" d="M12 12L14.1529 -3.85339L14.6389 -3.7819L12 12Z" fill="#B9D0FF"/>
<path fill-rule="evenodd" clip-rule="evenodd" d="M12 12L14.5412 -3.79547L15.0253 -3.71221L12 12Z" fill="#B8CFFF"/>
<path fill-rule="evenodd" clip-rule="evenodd" d="M12 12L14.9285 -3.72852L15.41 -3.63349L12 12Z" fill="#B7CEFF"/>
<path fill-rule="evenodd" clip-rule="evenodd" d="M12 12L15.3131 -3.6525L15.7928 -3.5448L12 12Z" fill="#B6CDFF"/>
<path fill-rule="evenodd" clip-rule="evenodd" d="M12 12L15.6968 -3.56653L16.1728 -3.44707L12 12Z" fill="#B5CDFF"/>
<path fill-rule="evenodd" clip-rule="evenodd" d="M12 12L16.0778 -3.47058L16.5502 -3.34026L12 12Z" fill="#B4CCFF"/>
<path fill-rule="evenodd" clip-rule="evenodd" d="M12 12L16.4561 -3.36652L16.9258 -3.22353L12 12Z" fill="#B3CBFF"/>
<path fill-rule="evenodd" clip-rule="evenodd" d="M12 12L16.8317 -3.2525L17.2977 -3.09775L12 12Z" fill="#B2CBFF"/>
<path fill-rule="evenodd" clip-rule="evenodd" d="M12 12L17.2045 -3.12943L17.667 -2.96381L12 12Z" fill="#B1CAFF"/>
<path fill-rule="evenodd" clip-rule="evenodd" d="M12 12L17.5747 -2.9964L18.0326 -2.81993L12 12Z" fill="#B0C9FF"/>
<path fill-rule="evenodd" clip-rule="evenodd" d="M12 12L17.9403 -2.85522L18.3946 -2.66789L12 12Z" fill="#AFC9FF"/>
<path fill-rule="evenodd" clip-rule="evenodd" d="M12 12L18.3032 -2.70499L18.752 -2.50589L12 12Z" fill="#AEC8FF"/>
<path fill-rule="evenodd" clip-rule="evenodd" d="M12 12L18.6624 -2.54572L19.1059 -2.33576L12 12Z" fill="#ADC7FF"/>
<path fill-rule="evenodd" clip-rule="evenodd" d="M12 12L19.0172 -2.3783L19.4561 -2.15748L12 12Z" fill="#ACC7FF"/>
<path fill-rule="evenodd" clip-rule="evenodd" d="M12 12L19.3683 -2.20181L19.8009 -1.97014L12 12Z" fill="#ABC6FF"/>
<path fill-rule="evenodd" clip-rule="evenodd" d="M12 12L19.714 -2.0163L20.1421 -1.77467L12 12Z" fill="#AAC5FF"/>
<path fill-rule="evenodd" clip-rule="evenodd" d="M12 12L20.0561 -1.82263L20.4769 -1.57014L12 12Z" fill="#A9C5FF"/>
<path fill-rule="evenodd" clip-rule="evenodd" d="M12 12L20.3928 -1.62082L20.8072 -1.35838L12 12Z" fill="#A8C4FF"/>
<path fill-rule="evenodd" clip-rule="evenodd" d="M12 12L20.7249 -1.41086L21.133 -1.13756L12 12Z" fill="#A7C3FF"/>
<path fill-rule="evenodd" clip-rule="evenodd" d="M12 12L21.0516 -1.19278L21.4525 -0.910427L12 12Z" fill="#A6C3FF"/>
<path fill-rule="evenodd" clip-rule="evenodd" d="M12 12L21.3719 -0.966522L21.7665 -0.674215L12 12Z" fill="#A5C2FF"/>
<path fill-rule="evenodd" clip-rule="evenodd" d="M12 12L21.6878 -0.733032L22.0742 -0.43077L12 12Z" fill="#A4C1FF"/>
<path fill-rule="evenodd" clip-rule="evenodd" d="M12 12L21.9973 -0.491394L22.3765 -0.180082L12 12Z" fill="#A3C1FF"/>
<path fill-rule="evenodd" clip-rule="evenodd" d="M12 12L22.3005 -0.241638L22.6724 0.0787237L12 12Z" fill="#A2C0FF"/>
<path fill-rule="evenodd" clip-rule="evenodd" d="M12 12L22.5982 0.0144653L22.962 0.343877L12 12Z" fill="#A1BFFF"/>
<path fill-rule="evenodd" clip-rule="evenodd" d="M12 12L22.8887 0.277832L23.2443 0.616294L12 12Z" fill="#A0BFFF"/>
<path fill-rule="evenodd" clip-rule="evenodd" d="M12 12L23.1729 0.548401L23.5204 0.895912L12 12Z" fill="#9FBEFF"/>
<path fill-rule="evenodd" clip-rule="evenodd" d="M12 12L23.4507 0.827148L23.7891 1.1819L12 12Z" fill="#9EBDFF"/>
<path fill-rule="evenodd" clip-rule="evenodd" d="M12 12L23.7222 1.1113L24.0516 1.4751L12 12Z" fill="#9DBDFF"/>
<path fill-rule="evenodd" clip-rule="evenodd" d="M12 12L23.9855 1.40179L24.3059 1.77374L12 12Z" fill="#9CBCFF"/>
<path fill-rule="evenodd" clip-rule="evenodd" d="M12 12L24.2416 1.69955L24.5529 2.07874L12 12Z" fill="#9BBBFF"/>
<path fill-rule="evenodd" clip-rule="evenodd" d="M12 12L24.4914 2.00272L24.7928 2.39005L12 12Z" fill="#9ABAFF"/>
<path fill-rule="evenodd" clip-rule="evenodd" d="M12 12L24.733 2.31223L25.0253 2.7068L12 12Z" fill="#99BAFF"/>
<path fill-rule="evenodd" clip-rule="evenodd" d="M12 12L24.9665 2.62805L25.2489 3.02896L12 12Z" fill="#98B9FF"/>
<path fill-rule="evenodd" clip-rule="evenodd" d="M12 12L25.1928 2.94839L25.4652 3.35654L12 12Z" fill="#97B8FF"/>
<path fill-rule="evenodd" clip-rule="evenodd" d="M12 12L25.4109 3.27512L25.6733 3.6905L12 12Z" fill="#96B8FF"/>
<path fill-rule="evenodd" clip-rule="evenodd" d="M12 12L25.6208 3.60724L25.8733 4.02805L12 12Z" fill="#95B7FF"/>
<path fill-rule="evenodd" clip-rule="evenodd" d="M12 12L25.8226 3.94388L26.0643 4.37103L12 12Z" fill="#94B6FF"/>
<path fill-rule="evenodd" clip-rule="evenodd" d="M12 12L26.0163 4.28598L26.2471 4.71856L12 12Z" fill="#93B6FF"/>
<path fill-rule="evenodd" clip-rule="evenodd" d="M12 12L26.2009 4.63165L26.4217 5.07057L12 12Z" fill="#92B5FF"/>
<path fill-rule="evenodd" clip-rule="evenodd" d="M12 12L26.3783 4.98279L26.5873 5.42623L12 12Z" fill="#91B4FF"/>
<path fill-rule="evenodd" clip-rule="evenodd" d="M12 12L26.5457 5.33755L26.7448 5.78642L12 12Z" fill="#90B4FF"/>
<path fill-rule="evenodd" clip-rule="evenodd" d="M12 12L26.705 5.69592L26.8923 6.15022L12 12Z" fill="#8FB3FF"/>
<path fill-rule="evenodd" clip-rule="evenodd" d="M12 12L26.8552 6.05881L27.0317 6.51763L12 12Z" fill="#8EB2FF"/>
<path fill-rule="evenodd" clip-rule="evenodd" d="M12 12L26.9964 6.42532L27.162 6.88777L12 12Z" fill="#8DB2FF"/>
<path fill-rule="evenodd" clip-rule="evenodd" d="M12 12L27.1285 6.79547L27.2824 7.26153L12 12Z" fill="#8CB1FF"/>
<path fill-rule="evenodd" clip-rule="evenodd" d="M12 12L27.2516 7.1683L27.3946 7.63799L12 12Z" fill="#8BB0FF"/>
<path fill-rule="evenodd" clip-rule="evenodd" d="M12 12L27.3656 7.54388L27.4968 8.01719L12 12Z" fill="#8AB0FF"/>
<path fill-rule="evenodd" clip-rule="evenodd" d="M12 12L27.4706 7.92218L27.59 8.3982L12 12Z" fill="#89AFFF"/>
<path fill-rule="evenodd" clip-rule="evenodd" d="M12 12L27.5665 8.30316L27.6733 8.78189L12 12Z" fill="#88AEFF"/>
<path fill-rule="evenodd" clip-rule="evenodd" d="M12 12L27.6516 8.68686L27.7475 9.1674L12 12Z" fill="#87AEFF"/>
<path fill-rule="evenodd" clip-rule="evenodd" d="M12 12L27.7285 9.07147L27.8127 9.55473L12 12Z" fill="#86ADFF"/>
<path fill-rule="evenodd" clip-rule="evenodd" d="M12 12L27.7955 9.45792L27.8679 9.94389L12 12Z" fill="#85ACFF"/>
<path fill-rule="evenodd" clip-rule="evenodd" d="M12 12L27.8534 9.84705L27.9131 10.3339L12 12Z" fill="#84ACFF"/>
<path fill-rule="evenodd" clip-rule="evenodd" d="M12 12L27.9014 10.2362L27.9493 10.7249L12 12Z" fill="#83ABFF"/>
<path fill-rule="evenodd" clip-rule="evenodd" d="M12 12L27.9403 10.6271L27.9765 11.1167L12 12Z" fill="#82AAFF"/>
<path fill-rule="evenodd" clip-rule="evenodd" d="M12 12L27.9692 11.019L27.9928 11.5095L12 12Z" fill="#81AAFF"/>
<path fill-rule="evenodd" clip-rule="evenodd" d="M12 12L27.9882 11.4109L28 11.9014L12 12Z" fill="#80A9FF"/>
<path fill-rule="evenodd" clip-rule="evenodd" d="M12 12L27.9973 11.8036V12.2941L12 12Z" fill="#7FA8FF"/>
<path fill-rule="evenodd" clip-rule="evenodd" d="M12 12L27.9973 12.1964L27.9855 12.6869L12 12Z" fill="#7EA7FF"/>
<path fill-rule="evenodd" clip-rule="evenodd" d="M12 12L27.9882 12.5891L27.9638 13.0787L12 12Z" fill="#7DA7FF"/>
<path fill-rule="evenodd" clip-rule="evenodd" d="M12 12L27.9692 12.981L27.933 13.4706L12 12Z" fill="#7CA6FF"/>
<path fill-rule="evenodd" clip-rule="evenodd" d="M12 12L27.9403 13.3729L27.8923 13.8615L12 12Z" fill="#7BA5FF"/>
<path fill-rule="evenodd" clip-rule="evenodd" d="M12 12L27.9014 13.7629L27.8416 14.2507L12 12Z" fill="#7AA5FF"/>
<path fill-rule="evenodd" clip-rule="evenodd" d="M12 12L27.8534 14.1529L27.781 14.6389L12 12Z" fill="#79A4FF"/>
<path fill-rule="evenodd" clip-rule="evenodd" d="M12 12L27.7955 14.5412L27.7122 15.0253L12 12Z" fill="#78A3FF"/>
<path fill-rule="evenodd" clip-rule="evenodd" d="M12 12L27.7285 14.9285L27.6326 15.41L12 12Z" fill="#77A3FF"/>
<path fill-rule="evenodd" clip-rule="evenodd" d="M12 12L27.6516 15.3131L27.5448 15.7928L12 12Z" fill="#76A2FF"/>
<path fill-rule="evenodd" clip-rule="evenodd" d="M12 12L27.5665 15.6968L27.4471 16.1728L12 12Z" fill="#75A1FF"/>
<path fill-rule="evenodd" clip-rule="evenodd" d="M12 12L27.4706 16.0778L27.3403 16.5502L12 12Z" fill="#74A1FF"/>
<path fill-rule="evenodd" clip-rule="evenodd" d="M12 12L27.3656 16.4561L27.2235 16.9258L12 12Z" fill="#73A0FF"/>
<path fill-rule="evenodd" clip-rule="evenodd" d="M12 12L27.2516 16.8317L27.0977 17.2977L12 12Z" fill="#729FFF"/>
<path fill-rule="evenodd" clip-rule="evenodd" d="M12 12L27.1285 17.2045L26.9638 17.667L12 12Z" fill="#719FFF"/>
<path fill-rule="evenodd" clip-rule="evenodd" d="M12 12L26.9964 17.5747L26.8199 18.0326L12 12Z" fill="#709EFF"/>
<path fill-rule="evenodd" clip-rule="evenodd" d="M12 12L26.8552 17.9403L26.667 18.3946L12 12Z" fill="#6F9DFF"/>
<path fill-rule="evenodd" clip-rule="evenodd" d="M12 12L26.705 18.3032L26.5059 18.752L12 12Z" fill="#6E9DFF"/>
<path fill-rule="evenodd" clip-rule="evenodd" d="M12 12L26.5457 18.6624L26.3357 19.1059L12 12Z" fill="#6D9CFF"/>
<path fill-rule="evenodd" clip-rule="evenodd" d="M12 12L26.3783 19.0172L26.1575 19.4561L12 12Z" fill="#6C9BFF"/>
<path fill-rule="evenodd" clip-rule="evenodd" d="M12 12L26.2009 19.3683L25.9701 19.8009L12 12Z" fill="#6B9BFF"/>
<path fill-rule="evenodd" clip-rule="evenodd" d="M12 12L26.0163 19.714L25.7747 20.1421L12 12Z" fill="#6A9AFF"/>
<path fill-rule="evenodd" clip-rule="evenodd" d="M12 12L25.8226 20.0561L25.5701 20.4769L12 12Z" fill="#6999FF"/>
<path fill-rule="evenodd" clip-rule="evenodd" d="M12 12L25.6208 20.3928L25.3584 20.8072L12 12Z" fill="#6899FF"/>
<path fill-rule="evenodd" clip-rule="evenodd" d="M12 12L25.4109 20.7249L25.1376 21.133L12 12Z" fill="#6798FF"/>
<path fill-rule="evenodd" clip-rule="evenodd" d="M12 12L25.1928 21.0516L24.9104 21.4525L12 12Z" fill="#6697FF"/>
<path fill-rule="evenodd" clip-rule="evenodd" d="M12 12L24.9665 21.3719L24.6742 21.7665L12 12Z" fill="#6597FF"/>
<path fill-rule="evenodd" clip-rule="evenodd" d="M12 12L24.733 21.6878L24.4308 22.0742L12 12Z" fill="#6496FF"/>
<path fill-rule="evenodd" clip-rule="evenodd" d="M12 12L24.4914 21.9973L24.1801 22.3765L12 12Z" fill="#6395FF"/>
<path fill-rule="evenodd" clip-rule="evenodd" d="M12 12L24.2416 22.3005L23.9213 22.6724L12 12Z" fill="#6294FF"/>
<path fill-rule="evenodd" clip-rule="evenodd" d="M12 12L23.9855 22.5982L23.6561 22.962L12 12Z" fill="#6194FF"/>
<path fill-rule="evenodd" clip-rule="evenodd" d="M12 12L23.7222 22.8887L23.3837 23.2443L12 12Z" fill="#6093FF"/>
<path fill-rule="evenodd" clip-rule="evenodd" d="M12 12L23.4507 23.1729L23.1041 23.5204L12 12Z" fill="#5F92FF"/>
<path fill-rule="evenodd" clip-rule="evenodd" d="M12 12L23.1729 23.4507L22.8181 23.7891L12 12Z" fill="#5E92FF"/>
<path fill-rule="evenodd" clip-rule="evenodd" d="M12 12L22.8887 23.7222L22.5249 24.0516L12 12Z" fill="#5D91FF"/>
<path fill-rule="evenodd" clip-rule="evenodd" d="M12 12L22.5982 23.9855L22.2262 24.3059L12 12Z" fill="#5C90FF"/>
<path fill-rule="evenodd" clip-rule="evenodd" d="M12 12L22.3005 24.2416L21.9213 24.5529L12 12Z" fill="#5B90FF"/>
<path fill-rule="evenodd" clip-rule="evenodd" d="M12 12L21.9973 24.4914L21.61 24.7928L12 12Z" fill="#5A8FFF"/>
<path fill-rule="evenodd" clip-rule="evenodd" d="M12 12L21.6878 24.733L21.2932 25.0253L12 12Z" fill="#598EFF"/>
<path fill-rule="evenodd" clip-rule="evenodd" d="M12 12L21.3719 24.9665L20.971 25.2489L12 12Z" fill="#588EFF"/>
<path fill-rule="evenodd" clip-rule="evenodd" d="M12 12L21.0516 25.1928L20.6425 25.4652L12 12Z" fill="#578DFF"/>
<path fill-rule="evenodd" clip-rule="evenodd" d="M12 12L20.7249 25.4109L20.3095 25.6733L12 12Z" fill="#568CFF"/>
<path fill-rule="evenodd" clip-rule="evenodd" d="M12 12L20.3928 25.6208L19.9719 25.8733L12 12Z" fill="#558CFF"/>
<path fill-rule="evenodd" clip-rule="evenodd" d="M12 12L20.0561 25.8226L19.629 26.0643L12 12Z" fill="#548BFF"/>
<path fill-rule="evenodd" clip-rule="evenodd" d="M12 12L19.714 26.0163L19.2814 26.2471L12 12Z" fill="#538AFF"/>
<path fill-rule="evenodd" clip-rule="evenodd" d="M12 12L19.3683 26.2009L18.9294 26.4217L12 12Z" fill="#528AFF"/>
<path fill-rule="evenodd" clip-rule="evenodd" d="M12 12L19.0172 26.3783L18.5738 26.5873L12 12Z" fill="#5189FF"/>
<path fill-rule="evenodd" clip-rule="evenodd" d="M12 12L18.6624 26.5457L18.2136 26.7448L12 12Z" fill="#5088FF"/>
<path fill-rule="evenodd" clip-rule="evenodd" d="M12 12L18.3032 26.705L17.8498 26.8923L12 12Z" fill="#4F88FF"/>
<path fill-rule="evenodd" clip-rule="evenodd" d="M12 12L17.9403 26.8552L17.4824 27.0317L12 12Z" fill="#4E87FF"/>
<path fill-rule="evenodd" clip-rule="evenodd" d="M12 12L17.5747 26.9964L17.1122 27.162L12 12Z" fill="#4D86FF"/>
<path fill-rule="evenodd" clip-rule="evenodd" d="M12 12L17.2045 27.1285L16.7385 27.2824L12 12Z" fill="#4C86FF"/>
<path fill-rule="evenodd" clip-rule="evenodd" d="M12 12L16.8317 27.2516L16.362 27.3946L12 12Z" fill="#4B85FF"/>
<path fill-rule="evenodd" clip-rule="evenodd" d="M12 12L16.4561 27.3656L15.9828 27.4968L12 12Z" fill="#4A84FF"/>
<path fill-rule="evenodd" clip-rule="evenodd" d="M12 12L16.0778 27.4706L15.6009 27.59L12 12Z" fill="#4984FF"/>
<path fill-rule="evenodd" clip-rule="evenodd" d="M12 12L15.6968 27.5665L15.2181 27.6733L12 12Z" fill="#4883FF"/>
<path fill-rule="evenodd" clip-rule="evenodd" d="M12 12L15.3131 27.6516L14.8317 27.7475L12 12Z" fill="#4782FF"/>
<path fill-rule="evenodd" clip-rule="evenodd" d="M12 12L14.9285 27.7285L14.4452 27.8127L12 12Z" fill="#4681FF"/>
<path fill-rule="evenodd" clip-rule="evenodd" d="M12 12L14.5412 27.7955L14.0561 27.8679L12 12Z" fill="#4581FF"/>
<path fill-rule="evenodd" clip-rule="evenodd" d="M12 12L14.1529 27.8534L13.6661 27.9131L12 12Z" fill="#4480FF"/>
<path fill-rule="evenodd" clip-rule="evenodd" d="M12 12L13.7629 27.9014L13.2751 27.9493L12 12Z" fill="#437FFF"/>
<path fill-rule="evenodd" clip-rule="evenodd" d="M12 12L13.3729 27.9403L12.8833 27.9765L12 12Z" fill="#427FFF"/>
<path fill-rule="evenodd" clip-rule="evenodd" d="M12 12L12.981 27.9692L12.4905 27.9928L12 12Z" fill="#417EFF"/>
<path fill-rule="evenodd" clip-rule="evenodd" d="M12 12L12.5891 27.9882L12.0977 28L12 12Z" fill="#407DFF"/>
<path fill-rule="evenodd" clip-rule="evenodd" d="M12 12L12.1964 27.9973H11.705L12 12Z" fill="#3F7DFF"/>
<path fill-rule="evenodd" clip-rule="evenodd" d="M12 12L11.8037 27.9973L11.3132 27.9855L12 12Z" fill="#3E7CFF"/>
<path fill-rule="evenodd" clip-rule="evenodd" d="M12 12L11.4109 27.9882L10.9204 27.9638L12 12Z" fill="#3D7BFF"/>
<path fill-rule="evenodd" clip-rule="evenodd" d="M12 12L11.019 27.9692L10.5294 27.933L12 12Z" fill="#3C7BFF"/>
<path fill-rule="evenodd" clip-rule="evenodd" d="M12 12L10.6272 27.9403L10.1385 27.8923L12 12Z" fill="#3B7AFF"/>
<path fill-rule="evenodd" clip-rule="evenodd" d="M12 12L10.2362 27.9014L9.74933 27.8416L12 12Z" fill="#3A79FF"/>
<path fill-rule="evenodd" clip-rule="evenodd" d="M12 12L9.84706 27.8534L9.36108 27.781L12 12Z" fill="#3979FF"/>
<path fill-rule="evenodd" clip-rule="evenodd" d="M12 12L9.45793 27.7955L8.97467 27.7122L12 12Z" fill="#3878FF"/>
<path fill-rule="evenodd" clip-rule="evenodd" d="M12 12L9.07154 27.7285L8.59009 27.6326L12 12Z" fill="#3777FF"/>
<path fill-rule="evenodd" clip-rule="evenodd" d="M12 12L8.68691 27.6516L8.20728 27.5448L12 12Z" fill="#3677FF"/>
<path fill-rule="evenodd" clip-rule="evenodd" d="M12 12L8.30317 27.5665L7.82715 27.4471L12 12Z" fill="#3576FF"/>
<path fill-rule="evenodd" clip-rule="evenodd" d="M12 12L7.92222 27.4706L7.44891 27.3403L12 12Z" fill="#3475FF"/>
<path fill-rule="evenodd" clip-rule="evenodd" d="M12 12L7.5439 27.3656L7.07422 27.2235L12 12Z" fill="#3375FF"/>
<path fill-rule="evenodd" clip-rule="evenodd" d="M12 12L7.16833 27.2516L6.70227 27.0977L12 12Z" fill="#3274FF"/>
<path fill-rule="evenodd" clip-rule="evenodd" d="M12 12L6.79551 27.1285L6.33307 26.9638L12 12Z" fill="#3173FF"/>
<path fill-rule="evenodd" clip-rule="evenodd" d="M12 12L6.42539 26.9964L5.96747 26.8199L12 12Z" fill="#3073FF"/>
<path fill-rule="evenodd" clip-rule="evenodd" d="M12 12L6.05886 26.8552L5.60547 26.667L12 12Z" fill="#2F72FF"/>
<path fill-rule="evenodd" clip-rule="evenodd" d="M12 12L5.69595 26.705L5.24799 26.5059L12 12Z" fill="#2E71FF"/>
<path fill-rule="evenodd" clip-rule="evenodd" d="M12 12L5.3376 26.5457L4.89417 26.3357L12 12Z" fill="#2D71FF"/>
<path fill-rule="evenodd" clip-rule="evenodd" d="M12 12L4.9828 26.3783L4.54388 26.1575L12 12Z" fill="#2C70FF"/>
<path fill-rule="evenodd" clip-rule="evenodd" d="M12 12L4.63168 26.2009L4.1991 25.9701L12 12Z" fill="#2B6FFF"/>
<path fill-rule="evenodd" clip-rule="evenodd" d="M12.0001 12L4.28603 26.0163L3.85797 25.7747L12.0001 12Z" fill="#2A6EFF"/>
<path fill-rule="evenodd" clip-rule="evenodd" d="M12 12L3.94389 25.8226L3.52307 25.5701L12 12Z" fill="#296EFF"/>
<path fill-rule="evenodd" clip-rule="evenodd" d="M12 12L3.60728 25.6208L3.19189 25.3584L12 12Z" fill="#286DFF"/>
<path fill-rule="evenodd" clip-rule="evenodd" d="M12 12L3.27515 25.4109L2.867 25.1376L12 12Z" fill="#276CFF"/>
<path fill-rule="evenodd" clip-rule="evenodd" d="M12 12L2.94845 25.1928L2.54755 24.9104L12 12Z" fill="#266CFF"/>
<path fill-rule="evenodd" clip-rule="evenodd" d="M12 12L2.62809 24.9665L2.23352 24.6742L12 12Z" fill="#256BFF"/>
<path fill-rule="evenodd" clip-rule="evenodd" d="M12 12L2.31226 24.733L1.92493 24.4308L12 12Z" fill="#246AFF"/>
<path fill-rule="evenodd" clip-rule="evenodd" d="M12 12L2.00272 24.4914L1.62354 24.1801L12 12Z" fill="#236AFF"/>
<path fill-rule="evenodd" clip-rule="evenodd" d="M12 12L1.69958 24.2416L1.32764 23.9213L12 12Z" fill="#2269FF"/>
<path fill-rule="evenodd" clip-rule="evenodd" d="M12 12L1.40183 23.9855L1.03802 23.6561L12 12Z" fill="#2168FF"/>
<path fill-rule="evenodd" clip-rule="evenodd" d="M12 12L1.11133 23.7222L0.755676 23.3837L12 12Z" fill="#2068FF"/>
<path fill-rule="evenodd" clip-rule="evenodd" d="M12 12L0.827187 23.4507L0.479675 23.1041L12 12Z" fill="#1F67FF"/>
<path fill-rule="evenodd" clip-rule="evenodd" d="M12 12L0.548433 23.1729L0.210876 22.8181L12 12Z" fill="#1E66FF"/>
<path fill-rule="evenodd" clip-rule="evenodd" d="M12 12L0.277837 22.8887L-0.0515747 22.5249L12 12Z" fill="#1D66FF"/>
<path fill-rule="evenodd" clip-rule="evenodd" d="M12 12L0.0145148 22.5982L-0.305847 22.2262L12 12Z" fill="#1C65FF"/>
<path fill-rule="evenodd" clip-rule="evenodd" d="M12 12L-0.241605 22.3005L-0.552917 21.9213L12 12Z" fill="#1B64FF"/>
<path fill-rule="evenodd" clip-rule="evenodd" d="M12 12L-0.491367 21.9973L-0.792725 21.61L12 12Z" fill="#1A64FF"/>
<path fill-rule="evenodd" clip-rule="evenodd" d="M12 12L-0.733022 21.6878L-1.02533 21.2932L12 12Z" fill="#1963FF"/>
<path fill-rule="evenodd" clip-rule="evenodd" d="M12 12L-0.966487 21.3719L-1.24884 20.971L12 12Z" fill="#1862FF"/>
<path fill-rule="evenodd" clip-rule="evenodd" d="M12 12L-1.19275 21.0516L-1.46515 20.6425L12 12Z" fill="#1762FF"/>
<path fill-rule="evenodd" clip-rule="evenodd" d="M12 12L-1.41084 20.7249L-1.67328 20.3095L12 12Z" fill="#1661FF"/>
<path fill-rule="evenodd" clip-rule="evenodd" d="M12 12L-1.6208 20.3928L-1.87329 19.9719L12 12Z" fill="#1560FF"/>
<path fill-rule="evenodd" clip-rule="evenodd" d="M12 12L-1.82258 20.0561L-2.06421 19.629L12 12Z" fill="#1460FF"/>
<path fill-rule="evenodd" clip-rule="evenodd" d="M12 12L-2.01625 19.714L-2.24792 19.2814L12 12Z" fill="#135FFF"/>
<path fill-rule="evenodd" clip-rule="evenodd" d="M12 12L-2.20178 19.3683L-2.42169 18.9294L12 12Z" fill="#125EFF"/>
<path fill-rule="evenodd" clip-rule="evenodd" d="M12 12L-2.37823 19.0172L-2.58728 18.5738L12 12Z" fill="#115EFF"/>
<path fill-rule="evenodd" clip-rule="evenodd" d="M12 12L-2.54566 18.6624L-2.74475 18.2136L12 12Z" fill="#105DFF"/>
<path fill-rule="evenodd" clip-rule="evenodd" d="M12 12L-2.70495 18.3032L-2.89319 17.8498L12 12Z" fill="#0F5CFF"/>
<path fill-rule="evenodd" clip-rule="evenodd" d="M12 12L-2.85521 17.9403L-3.03168 17.4824L12 12Z" fill="#0E5BFF"/>
<path fill-rule="evenodd" clip-rule="evenodd" d="M12 12L-2.99638 17.5747L-3.16199 17.1122L12 12Z" fill="#0D5BFF"/>
<path fill-rule="evenodd" clip-rule="evenodd" d="M12 12L-3.12941 17.2045L-3.28235 16.7385L12 12Z" fill="#0C5AFF"/>
<path fill-rule="evenodd" clip-rule="evenodd" d="M12 12L-3.25245 16.8317L-3.39453 16.362L12 12Z" fill="#0B59FF"/>
<path fill-rule="evenodd" clip-rule="evenodd" d="M12 12L-3.36651 16.4561L-3.49683 15.9828L12 12Z" fill="#0A59FF"/>
<path fill-rule="evenodd" clip-rule="evenodd" d="M12 12L-3.47057 16.0778L-3.59003 15.6009L12 12Z" fill="#0958FF"/>
<path fill-rule="evenodd" clip-rule="evenodd" d="M12 12L-3.56649 15.6968L-3.67328 15.2181L12 12Z" fill="#0857FF"/>
<path fill-rule="evenodd" clip-rule="evenodd" d="M12 12L-3.65247 15.3131L-3.7475 14.8317L12 12Z" fill="#0757FF"/>
<path fill-rule="evenodd" clip-rule="evenodd" d="M12 12L-3.72846 14.9285L-3.81262 14.4452L12 12Z" fill="#0656FF"/>
<path fill-rule="evenodd" clip-rule="evenodd" d="M12 12L-3.79546 14.5412L-3.86786 14.0561L12 12Z" fill="#0555FF"/>
<path fill-rule="evenodd" clip-rule="evenodd" d="M12 12L-3.85336 14.1529L-3.91309 13.6661L12 12Z" fill="#0455FF"/>
<path fill-rule="evenodd" clip-rule="evenodd" d="M12 12L-3.90132 13.7629L-3.94928 13.2751L12 12Z" fill="#0354FF"/>
<path fill-rule="evenodd" clip-rule="evenodd" d="M12 12L-3.94024 13.3729L-3.97644 12.8833L12 12Z" fill="#0253FF"/>
<path fill-rule="evenodd" clip-rule="evenodd" d="M12 12L-3.96921 12.981L-3.99274 12.4905L12 12Z" fill="#0153FF"/>
<path fill-rule="evenodd" clip-rule="evenodd" d="M12 12L-3.98824 12.5891L-4 12.0977L12 12Z" fill="#0052FF"/>
<path fill-rule="evenodd" clip-rule="evenodd" d="M12 12L-3.99817 12.1964V11.8036L12 12Z" fill="white"/>
</g>
</g>
<defs>
<clipPath id="clip0_2498_9178">
<rect width="24" height="24" fill="white"/>
</clipPath>
</defs>
</svg>
