<svg width="24" height="24" viewBox="0 0 24 24" fill="none" xmlns="http://www.w3.org/2000/svg">
<path d="M12 24C18.6274 24 24 18.6274 24 12C24 5.37258 18.6274 0 12 0C5.37258 0 0 5.37258 0 12C0 18.6274 5.37258 24 12 24Z" fill="#EDBC04"/>
<path fill-rule="evenodd" clip-rule="evenodd" d="M12.1586 8.31769L14.5673 10.7269C14.6539 10.8136 14.7944 10.8136 14.8811 10.7269L16.1507 9.45699C16.2373 9.37038 16.2373 9.22993 16.1507 9.14331L12.1585 5.15021C12.0719 5.06354 11.9314 5.06354 11.8448 5.15021L7.85402 9.14186C7.76741 9.22848 7.76741 9.36893 7.85402 9.45554L9.12366 10.7254C9.21027 10.8121 9.35077 10.8121 9.43739 10.7254L11.8448 8.31769C11.9315 8.23102 12.0719 8.23102 12.1586 8.31769ZM6.42156 10.5735L5.15188 11.8434C5.06526 11.9301 5.06526 12.0705 5.15188 12.1571L6.42145 13.427C6.50807 13.5137 6.64857 13.5137 6.73519 13.427L8.00487 12.1571C8.09149 12.0704 8.09149 11.93 8.00487 11.8434L6.73524 10.5735C6.64868 10.4869 6.50823 10.4869 6.42156 10.5735ZM16.15 14.8576L12.1571 18.8514C12.0705 18.938 11.93 18.938 11.8433 18.8513L7.8505 14.8578C7.76377 14.7711 7.76388 14.6305 7.85071 14.5439L9.12223 13.2757C9.2089 13.1892 9.34918 13.1893 9.43575 13.2759L11.8433 15.6838C11.93 15.7705 12.0705 15.7705 12.1571 15.6838L14.5658 13.2747C14.6525 13.1881 14.7929 13.188 14.8795 13.2746L16.1499 14.5438C16.2366 14.6304 16.2366 14.7709 16.15 14.8576ZM17.2664 10.5743L15.9967 11.8443C15.9101 11.9309 15.9101 12.0713 15.9967 12.1579L17.2664 13.4278C17.353 13.5145 17.4935 13.5145 17.5801 13.4278L18.8498 12.1579C18.9364 12.0713 18.9364 11.9308 18.8498 11.8442L17.5801 10.5743C17.4935 10.4877 17.353 10.4877 17.2664 10.5743ZM12.1585 10.5501L13.4523 11.8441C13.5389 11.9307 13.5389 12.0711 13.4523 12.1578L12.1585 13.4519C12.0719 13.5386 11.9314 13.5386 11.8448 13.4519L10.551 12.1578C10.4644 12.0712 10.4644 11.9307 10.551 11.8441L11.8448 10.5501C11.9314 10.4634 12.0719 10.4634 12.1585 10.5501Z" fill="white"/>
</svg>
