<svg width="24" height="24" viewBox="0 0 24 24" fill="none" xmlns="http://www.w3.org/2000/svg">
<g clip-path="url(#clip0_2498_9703)">
<path fill-rule="evenodd" clip-rule="evenodd" d="M11.9968 2.4907L3.76856 7.24376V16.7564L11.9968 21.5094L20.225 16.7564V7.24376L11.9968 2.4907ZM12.3423 0.0913531C12.1272 -0.0325262 11.8664 -0.0325262 11.6512 0.0913531L1.87125 5.74416C1.6561 5.86804 1.5257 6.09624 1.5257 6.344V17.6496C1.5257 17.8974 1.6561 18.1256 1.87125 18.2495L11.6512 23.9023C11.8664 24.0262 12.1272 24.0262 12.3423 23.9023L22.1223 18.2495C22.3374 18.1256 22.4678 17.8974 22.4678 17.6496V6.344C22.4678 6.09624 22.3374 5.86804 22.1223 5.74416L12.3423 0.0913531Z" fill="#FF9211"/>
<path d="M11.9968 5.93319L6.74818 8.96497V15.0285L11.9642 18.0408C11.9837 18.0538 11.9968 18.0734 11.9968 18.0994V19.1361C11.9968 19.1883 11.9381 19.2209 11.8924 19.1948L5.9723 15.7783C5.8093 15.6871 5.7115 15.5175 5.7115 15.3285V8.66505C5.7115 8.48249 5.8093 8.30645 5.9723 8.21517L11.736 4.88347C11.899 4.79219 12.0946 4.79219 12.251 4.88347L18.1972 8.30645C18.2429 8.33253 18.2429 8.39773 18.1972 8.42381C17.8452 8.63245 17.6691 8.72373 17.2714 8.94541C17.2518 8.95845 17.2258 8.95845 17.2062 8.94541L11.9968 5.93319Z" fill="#FF9211"/>
<path d="M12.8639 12.1272C12.8639 12.1011 12.8769 12.075 12.903 12.0685L18.119 9.29097C18.1646 9.26489 18.2233 9.29749 18.2233 9.34965V16.1109C18.2233 16.1369 18.2103 16.1565 18.1907 16.1695L12.9747 19.2013C12.9291 19.2274 12.8704 19.1948 12.8704 19.1426V12.1272H12.8639Z" fill="#FF9211"/>
</g>
<defs>
<clipPath id="clip0_2498_9703">
<rect width="24" height="24" fill="white"/>
</clipPath>
</defs>
</svg>
