<svg width="24" height="24" viewBox="0 0 24 24" fill="none" xmlns="http://www.w3.org/2000/svg">
<g id="Logo Partners">
<path id="Vector" d="M12 24C18.6274 24 24 18.6274 24 12C24 5.37258 18.6274 0 12 0C5.37258 0 0 5.37258 0 12C0 18.6274 5.37258 24 12 24Z" fill="#6398FF"/>
<path id="Union" fill-rule="evenodd" clip-rule="evenodd" d="M8.48988 11.1651L11.86 5.73011C11.9149 5.6417 12.0434 5.64133 12.0987 5.7294L15.5112 11.1663C15.5521 11.2314 15.5331 11.3172 15.4687 11.359L12.124 13.5286C12.0779 13.5584 12.0187 13.5588 11.9723 13.5295L8.53432 11.3581C8.46902 11.3169 8.44919 11.2307 8.48988 11.1651ZM15.0505 13.5729L12.0964 15.4102C12.0512 15.4384 11.9939 15.4386 11.9485 15.4106L9.00125 13.5997C8.87051 13.5193 8.72394 13.6767 8.81333 13.8014L12.0341 18.2955C12.0915 18.3757 12.2116 18.3733 12.2658 18.2909L15.2422 13.7697C15.3251 13.6437 15.1786 13.4933 15.0505 13.5729Z" fill="white"/>
</g>
</svg>
