<svg width="24" height="24" viewBox="0 0 24 24" fill="none" xmlns="http://www.w3.org/2000/svg">
<path d="M15.1816 8.33139H8.82716C8.55726 8.33139 8.33723 8.55141 8.33723 8.82132V15.1758C8.33723 15.4457 8.55726 15.6657 8.82716 15.6657H15.1816C15.4515 15.6657 15.6715 15.4457 15.6715 15.1758V8.82132C15.6686 8.55141 15.4515 8.33139 15.1816 8.33139Z" fill="white"/>
<path d="M7.84438 1H1.48993C1.22003 1 1 1.22003 1 1.48993V7.84439C1 8.11429 1.22003 8.33432 1.48993 8.33432H7.84438C8.11428 8.33432 8.33431 8.11429 8.33431 7.84439V1.487C8.33431 1.2171 8.11428 1 7.84438 1Z" fill="white"/>
<path d="M22.5101 1H16.1556C15.8857 1 15.6657 1.22003 15.6657 1.48993V7.84439C15.6657 8.11429 15.8857 8.33432 16.1556 8.33432H22.5101C22.78 8.33432 23 8.11429 23 7.84439V1.487C23 1.2171 22.78 1 22.5101 1Z" fill="white"/>
<path d="M7.84438 15.6657H1.48993C1.22003 15.6657 1 15.8857 1 16.1556V22.5101C1 22.78 1.22003 23 1.48993 23H7.84438C8.11428 23 8.33431 22.78 8.33431 22.5101V16.1556C8.33431 15.8828 8.11428 15.6657 7.84438 15.6657Z" fill="white"/>
<path d="M22.5101 15.6657H16.1556C15.8857 15.6657 15.6657 15.8857 15.6657 16.1556V22.5101C15.6657 22.78 15.8857 23 16.1556 23H22.5101C22.78 23 23 22.78 23 22.5101V16.1556C23 15.8828 22.78 15.6657 22.5101 15.6657Z" fill="white"/>
</svg>
