<svg width="24" height="24" viewBox="0 0 24 24" fill="none" xmlns="http://www.w3.org/2000/svg">
<g clip-path="url(#clip0_2799_23661)">
<g clip-path="url(#clip1_2799_23661)">
<mask id="mask0_2799_23661" style="mask-type:luminance" maskUnits="userSpaceOnUse" x="0" y="0" width="24" height="24">
<path d="M24 1.90735e-05H0V24H24V1.90735e-05Z" fill="white"/>
</mask>
<g mask="url(#mask0_2799_23661)">
<path d="M24 1.90735e-05H0V24H24V1.90735e-05Z" fill="#AB9FF2"/>
<path fill-rule="evenodd" clip-rule="evenodd" d="M10.4445 15.2963C9.50213 16.7403 7.92305 18.5676 5.82189 18.5676C4.82861 18.5676 3.87354 18.1587 3.87354 16.3825C3.87354 11.8589 10.0497 4.85628 15.7802 4.85628C19.0402 4.85628 20.3391 7.11808 20.3391 9.68654C20.3391 12.9834 18.1997 16.753 16.0731 16.753C15.3981 16.753 15.067 16.3825 15.067 15.7947C15.067 15.6413 15.0925 15.4752 15.1435 15.2963C14.4176 16.5358 13.0168 17.6859 11.7052 17.6859C10.7501 17.6859 10.2662 17.0853 10.2662 16.2419C10.2662 15.9352 10.3299 15.6158 10.4445 15.2963ZM15.3808 9.59738C15.3808 10.3458 14.9392 10.72 14.4453 10.72C13.9438 10.72 13.5097 10.3458 13.5097 9.59738C13.5097 8.84896 13.9438 8.47474 14.4453 8.47474C14.9392 8.47474 15.3808 8.84896 15.3808 9.59738ZM18.1875 9.5974C18.1875 10.3458 17.7459 10.72 17.2519 10.72C16.7505 10.72 16.3164 10.3458 16.3164 9.5974C16.3164 8.84896 16.7505 8.47474 17.2519 8.47474C17.7459 8.47474 18.1875 8.84896 18.1875 9.5974Z" fill="#FFFDF8"/>
</g>
</g>
</g>
<defs>
<clipPath id="clip0_2799_23661">
<rect width="24" height="24" rx="12" fill="white"/>
</clipPath>
<clipPath id="clip1_2799_23661">
<rect width="24" height="24" fill="white"/>
</clipPath>
</defs>
</svg>
