<svg width="24" height="24" viewBox="0 0 24 24" fill="none" xmlns="http://www.w3.org/2000/svg">
<g id="Logo Partners" clip-path="url(#clip0_4651_3295)">
<path id="Vector" d="M12 24C18.6274 24 24 18.6274 24 12C24 5.37258 18.6274 0 12 0C5.37258 0 0 5.37258 0 12C0 18.6274 5.37258 24 12 24Z" fill="#784FDD"/>
<path id="Vector_2" d="M15.4916 9.6563C15.2385 9.50448 14.9096 9.50448 14.6312 9.6563L12.6576 10.8202L11.3165 11.5793L9.34289 12.7433C9.08986 12.8951 8.76092 12.8951 8.48259 12.7433L6.9138 11.8324C6.66076 11.6805 6.48364 11.4022 6.48364 11.0986V9.30206C6.48364 8.99842 6.63546 8.72008 6.9138 8.56827L8.45729 7.68266C8.71032 7.53084 9.03926 7.53084 9.31759 7.68266L10.8611 8.56827C11.1141 8.72008 11.2912 8.99842 11.2912 9.30206V10.466L12.6323 9.6816V8.51766C12.6323 8.21402 12.4805 7.93569 12.2021 7.78387L9.34289 6.11386C9.08986 5.96205 8.76092 5.96205 8.48259 6.11386L5.57273 7.78387C5.2944 7.93569 5.14258 8.21402 5.14258 8.51766V11.883C5.14258 12.1866 5.2944 12.4649 5.57273 12.6168L8.48259 14.2868C8.73562 14.4386 9.06456 14.4386 9.34289 14.2868L11.3165 13.1481L12.6576 12.3637L14.6312 11.2251C14.8843 11.0733 15.2132 11.0733 15.4916 11.2251L17.035 12.1107C17.2881 12.2625 17.4652 12.5409 17.4652 12.8445V14.641C17.4652 14.9447 17.3134 15.223 17.035 15.3748L15.4916 16.2857C15.2385 16.4375 14.9096 16.4375 14.6312 16.2857L13.0878 15.4001C12.8347 15.2483 12.6576 14.97 12.6576 14.6663V13.5024L11.3165 14.2868V15.4507C11.3165 15.7543 11.4684 16.0327 11.7467 16.1845L14.6565 17.8545C14.9096 18.0063 15.2385 18.0063 15.5169 17.8545L18.4267 16.1845C18.6797 16.0327 18.8569 15.7543 18.8569 15.4507V12.0854C18.8569 11.7818 18.705 11.5034 18.4267 11.3516L15.4916 9.6563Z" fill="white"/>
</g>
<defs>
<clipPath id="clip0_4651_3295">
<rect width="24" height="24" fill="white"/>
</clipPath>
</defs>
</svg>
