<svg width="24" height="24" viewBox="0 0 24 24" fill="none" xmlns="http://www.w3.org/2000/svg">
<g clip-path="url(#clip0_2799_23678)">
<path d="M12.0049 23.5259C18.3672 23.5259 23.5249 18.3681 23.5249 12.0056C23.5249 5.6432 18.3672 0.485418 12.0049 0.485418C5.64254 0.485418 0.484863 5.6432 0.484863 12.0056C0.484863 18.3681 5.64254 23.5259 12.0049 23.5259Z" fill="#3396FF" stroke="#66B1FF" stroke-width="0.0277148" stroke-miterlimit="22.9256"/>
<path d="M7.52408 9.05903C9.99067 6.64782 14 6.64782 16.4759 9.05903L16.7715 9.34542C16.8916 9.46552 16.8916 9.65953 16.7715 9.77962L15.7553 10.7681C15.6906 10.8328 15.589 10.8328 15.5336 10.7681L15.1271 10.3709C13.3996 8.6895 10.6096 8.6895 8.88209 10.3709L8.4479 10.7958C8.38323 10.8605 8.28161 10.8605 8.22618 10.7958L7.20998 9.80734C7.08989 9.68724 7.08989 9.49324 7.20998 9.37314L7.53332 9.05903H7.52408ZM18.5729 11.1099L19.4783 11.9968C19.5984 12.1169 19.5984 12.3109 19.4783 12.431L15.395 16.4128C15.2749 16.5329 15.0717 16.5329 14.9516 16.4128L12.0508 13.5858C12.0231 13.5581 11.9676 13.5581 11.9399 13.5858L9.03914 16.4128C8.91904 16.5329 8.7158 16.5329 8.59571 16.4128L4.51244 12.431C4.39234 12.3109 4.39234 12.1169 4.51244 11.9968L5.41778 11.1099C5.53787 10.9898 5.74111 10.9898 5.86121 11.1099L8.76199 13.9369C8.78971 13.9646 8.84514 13.9646 8.87285 13.9369L11.7736 11.1099C11.8937 10.9898 12.097 10.9898 12.2171 11.1099L15.1179 13.9369C15.1456 13.9646 15.201 13.9646 15.2287 13.9369L18.1295 11.1099C18.2496 10.9898 18.4528 10.9898 18.5729 11.1099Z" fill="white"/>
</g>
<defs>
<clipPath id="clip0_2799_23678">
<rect width="24" height="24" fill="white"/>
</clipPath>
</defs>
</svg>
