<svg width="18" height="20" viewBox="0 0 18 20" fill="none" xmlns="http://www.w3.org/2000/svg">
<path fill-rule="evenodd" clip-rule="evenodd" d="M9 11C11.396 11 13.575 11.694 15.178 12.671C15.978 13.161 16.662 13.736 17.156 14.361C17.642 14.977 18 15.713 18 16.5C18 17.345 17.589 18.011 16.997 18.486C16.437 18.936 15.698 19.234 14.913 19.442C13.335 19.859 11.229 20 9 20C6.771 20 4.665 19.86 3.087 19.442C2.302 19.234 1.563 18.936 1.003 18.486C0.41 18.01 0 17.345 0 16.5C0 15.713 0.358 14.977 0.844 14.361C1.338 13.736 2.021 13.161 2.822 12.671C4.425 11.694 6.605 11 9 11ZM9 13C6.977 13 5.157 13.59 3.864 14.379C3.217 14.773 2.729 15.201 2.414 15.601C2.09 16.011 2 16.321 2 16.5C2 16.622 2.037 16.751 2.255 16.926C2.504 17.126 2.937 17.333 3.599 17.508C4.917 17.858 6.811 18 9 18C11.19 18 13.083 17.857 14.4 17.508C15.063 17.333 15.496 17.126 15.745 16.926C15.963 16.751 16 16.622 16 16.5C16 16.32 15.91 16.011 15.587 15.601C15.271 15.201 14.783 14.773 14.136 14.379C12.843 13.589 11.023 13 9 13ZM9 0C10.3261 0 11.5979 0.526784 12.5355 1.46447C13.4732 2.40215 14 3.67392 14 5C14 6.32608 13.4732 7.59785 12.5355 8.53553C11.5979 9.47322 10.3261 10 9 10C7.67392 10 6.40215 9.47322 5.46447 8.53553C4.52678 7.59785 4 6.32608 4 5C4 3.67392 4.52678 2.40215 5.46447 1.46447C6.40215 0.526784 7.67392 0 9 0ZM9 2C8.60603 2 8.21593 2.0776 7.85195 2.22836C7.48797 2.37913 7.15726 2.6001 6.87868 2.87868C6.6001 3.15726 6.37913 3.48797 6.22836 3.85195C6.0776 4.21593 6 4.60603 6 5C6 5.39397 6.0776 5.78407 6.22836 6.14805C6.37913 6.51203 6.6001 6.84274 6.87868 7.12132C7.15726 7.3999 7.48797 7.62087 7.85195 7.77164C8.21593 7.9224 8.60603 8 9 8C9.79565 8 10.5587 7.68393 11.1213 7.12132C11.6839 6.55871 12 5.79565 12 5C12 4.20435 11.6839 3.44129 11.1213 2.87868C10.5587 2.31607 9.79565 2 9 2Z" fill="#0C0C0D"/>
</svg>
