<svg width="45" height="44" viewBox="0 0 45 44" fill="none" xmlns="http://www.w3.org/2000/svg">
<rect x="0.5" width="44" height="44" rx="22" fill="#0066FF"/>
<g clip-path="url(#clip0_4639_487)">
<path d="M21.5752 12C21.8554 12.0515 22.1389 12.0904 22.4151 12.1575C23.9201 12.5224 24.9568 13.6507 25.1654 15.1942C25.4121 17.0175 25.077 18.7438 24.1672 20.3405C23.6108 21.317 22.771 21.9527 21.6329 22.0943C20.2849 22.2616 19.1571 21.8337 18.327 20.73C17.6422 19.8193 17.3154 18.7639 17.1247 17.6573C17.0073 16.9762 16.9325 16.293 17.0073 15.6008C17.139 14.3821 17.5927 13.3422 18.656 12.6455C19.2054 12.2851 19.8206 12.1125 20.4678 12.038C20.5382 12.0299 20.6077 12.0131 20.6773 12.0004C20.9763 12 21.2758 12 21.5752 12Z" fill="white"/>
<path d="M27.5017 23.3013C25.5442 23.3067 24.0183 24.0917 23.0684 25.7964C22.1221 27.4941 22.2616 29.1996 23.2823 30.8662C22.9154 30.9043 22.5623 30.9476 22.2081 30.9763C20.5005 31.1133 18.8212 30.8949 17.1513 30.566C16.1183 30.3622 15.0948 30.1217 14.1109 29.7367C13.6368 29.551 13.4789 29.3403 13.5022 28.838C13.5701 27.3599 13.7689 25.8995 14.169 24.4734C14.268 24.1212 14.4317 23.7808 14.6055 23.4568C14.9275 22.8571 15.4961 22.574 16.1077 22.351C16.6559 22.151 17.2 21.9382 17.7396 21.7161C17.8611 21.6662 17.9057 21.7272 17.9674 21.7902C18.5647 22.4017 19.2745 22.8215 20.1143 22.9859C21.6603 23.2891 23.0463 22.9724 24.1962 21.8491C24.3411 21.7075 24.4376 21.6981 24.6225 21.7758C25.2505 22.0389 25.8936 22.2663 26.5276 22.5159C26.9678 22.6885 27.3237 22.9818 27.5017 23.3013Z" fill="white"/>
<path d="M27.256 24.2681C25.1243 24.2681 23.3901 26.0022 23.3901 28.134C23.3901 30.2657 25.1243 31.9999 27.256 31.9999C29.3878 31.9999 31.1219 30.2657 31.1219 28.134C31.1219 26.0022 29.3878 24.2681 27.256 24.2681ZM29.4758 27.4811L27.047 29.9098C26.9439 30.0129 26.8064 30.0698 26.6604 30.0698C26.5144 30.0698 26.3769 30.0129 26.2738 29.9098L25.0363 28.6719C24.9332 28.5688 24.8764 28.4314 24.8764 28.2853C24.8764 28.1393 24.9332 28.0018 25.0363 27.8987C25.1394 27.7956 25.2769 27.7388 25.4229 27.7388C25.569 27.7388 25.7064 27.7956 25.8095 27.8991L26.6608 28.7505L28.703 26.7083C28.8065 26.6052 28.9435 26.5483 29.0896 26.5483C29.2356 26.5483 29.3727 26.6052 29.4762 26.7083C29.6889 26.921 29.6889 27.2679 29.4758 27.4811Z" fill="white"/>
</g>
<defs>
<clipPath id="clip0_4639_487">
<rect width="24" height="24" fill="white" transform="translate(10.5 10)"/>
</clipPath>
</defs>
</svg>
