<svg width="12" height="12" viewBox="0 0 12 12" fill="none" xmlns="http://www.w3.org/2000/svg">
<path d="M6.02344 0C2.72789 0 0 2.68102 0 5.97656C0 9.27211 2.72789 12 6.02344 12C9.31898 12 12 9.27211 12 5.97656C12 2.68102 9.31898 0 6.02344 0ZM8.98172 7.94039C9.25594 8.21461 9.25594 8.66063 8.98172 8.93508C8.70961 9.20695 8.26359 9.21141 7.98703 8.93508L6.02344 6.97078L4.01273 8.93531C3.73852 9.20953 3.2925 9.20953 3.01805 8.93531C2.74383 8.66109 2.74383 8.21508 3.01805 7.94062L4.98211 5.97656L3.01805 4.0125C2.74383 3.73805 2.74383 3.29203 3.01805 3.01781C3.2925 2.74359 3.73852 2.74359 4.01273 3.01781L6.02344 4.98234L7.98703 3.01781C8.26078 2.74406 8.7068 2.74312 8.98172 3.01781C9.25594 3.29203 9.25594 3.73805 8.98172 4.0125L7.01766 5.97656L8.98172 7.94039Z" fill="#D01F36"/>
</svg>
