<svg width="32" height="32" viewBox="0 0 32 32" fill="none" xmlns="http://www.w3.org/2000/svg">
<circle cx="16" cy="16" r="15.5" fill="#292929" stroke="#d9d9d9"/>
<path d="M22.356 12.8421C23.0067 12.3801 23.554 11.8034 24 11.1394V11.1388C23.4047 11.3994 22.7713 11.5728 22.11 11.6568C22.79 11.2508 23.3093 10.6128 23.5533 9.8441C22.9193 10.2221 22.2193 10.4888 21.4733 10.6381C20.8713 9.99676 20.0133 9.6001 19.0773 9.6001C17.2613 9.6001 15.7993 11.0741 15.7993 12.8808C15.7993 13.1408 15.8213 13.3908 15.8753 13.6288C13.1487 13.4954 10.7353 12.1888 9.114 10.1974C8.83133 10.6888 8.66467 11.2508 8.66467 11.8554C8.66467 12.9914 9.24933 13.9981 10.122 14.5814C9.59467 14.5714 9.078 14.4181 8.64 14.1774V14.2134C8.64 15.8074 9.77667 17.1314 11.268 17.4368C11.0007 17.5101 10.71 17.5448 10.408 17.5448C10.198 17.5448 9.986 17.5328 9.78733 17.4888C10.212 18.7874 11.4187 19.7428 12.852 19.7741C11.736 20.6468 10.3187 21.1728 8.78467 21.1728C8.516 21.1728 8.258 21.1608 8 21.1281C9.45333 22.0648 11.1747 22.6001 13.032 22.6001C18.8207 22.6001 22.5933 17.7708 22.356 12.8421Z" fill="white"/>
</svg>
