<svg width="14" height="14" viewBox="0 0 14 14" fill="none" xmlns="http://www.w3.org/2000/svg">
<g clip-path="url(#clip0_2706_21805)">
<path d="M3.34355 13.9997C3.2514 13.9789 3.1587 13.9598 3.06683 13.9371C2.09695 13.6978 1.4046 12.8261 1.40324 11.8243C1.39995 9.34527 1.39886 6.86656 1.40351 4.38758C1.40597 3.19294 2.37667 2.22005 3.56941 2.21622C5.32378 2.21048 7.07816 2.21048 8.83253 2.21622C10.0198 2.22005 10.9946 3.18802 10.9976 4.37391C11.0042 6.86192 11.0034 9.34992 10.9979 11.8379C10.9957 12.9095 10.1951 13.8162 9.13386 13.9751C9.10816 13.9789 9.08355 13.9915 9.05839 14C7.15335 13.9997 5.24859 13.9997 3.34355 13.9997ZM2.49589 8.10359C2.49589 9.31574 2.49562 10.5276 2.49589 11.7398C2.49617 12.4428 2.95718 12.9057 3.658 12.9057C5.35304 12.9062 7.04808 12.9062 8.74312 12.9057C9.44394 12.9054 9.9055 12.4428 9.9055 11.7398C9.90605 9.32011 9.90577 6.90074 9.9055 4.4811C9.9055 3.7688 9.4464 3.3086 8.73628 3.30833C7.04589 3.30805 5.35523 3.30805 3.66484 3.30833C2.95445 3.3086 2.49589 3.76852 2.49562 4.48083C2.49562 5.6886 2.49589 6.8961 2.49589 8.10359Z" fill="white"/>
<path d="M11.2458 0C11.3554 0.0259766 11.4659 0.0492188 11.5747 0.07875C12.5153 0.333867 13.1836 1.18699 13.1853 2.16098C13.1899 4.91258 13.1875 7.66391 13.1866 10.4155C13.1866 10.7488 12.9531 10.9916 12.6406 10.9919C12.3237 10.9922 12.0937 10.7466 12.0937 10.4027C12.0932 7.68305 12.0937 4.96344 12.0932 2.24383C12.0929 1.64527 11.7309 1.20422 11.1602 1.10797C11.0757 1.09375 10.9879 1.0943 10.9015 1.0943C8.93823 1.09348 6.97468 1.0943 5.0114 1.09238C4.92144 1.09238 4.82737 1.08527 4.74288 1.0582C4.53616 0.992578 4.39234 0.788867 4.38331 0.572305C4.37401 0.350547 4.49515 0.14875 4.69558 0.0538672C4.73632 0.0344531 4.77843 0.0180469 4.81999 0.000273438C6.96183 0 9.10394 0 11.2458 0Z" fill="white"/>
<path d="M2.49622 8.1038C2.49622 6.8963 2.49594 5.6888 2.49622 4.4813C2.49649 3.76899 2.95504 3.3088 3.66543 3.3088C5.35582 3.30853 7.04649 3.30853 8.73688 3.3088C9.447 3.30907 9.9061 3.76927 9.9061 4.48157C9.90637 6.90122 9.90637 9.32059 9.9061 11.7402C9.9061 12.4433 9.44453 12.9059 8.74371 12.9062C7.04868 12.9067 5.35364 12.9067 3.6586 12.9062C2.95778 12.9059 2.49676 12.4433 2.49649 11.7402C2.49594 10.5278 2.49622 9.31595 2.49622 8.1038Z" fill="white"/>
</g>
<defs>
<clipPath id="clip0_2706_21805">
<rect width="14" height="14" fill="white"/>
</clipPath>
</defs>
</svg>
