<svg width="20" height="20" viewBox="0 0 20 20" fill="none" xmlns="http://www.w3.org/2000/svg">
<circle cx="10" cy="10" r="10" fill="#EEC067"/>
<g clip-path="url(#clip0_2762_25914)">
<path d="M5 11.8163C5.06583 11.6439 5.19411 11.582 5.37411 11.5867C5.65051 11.5937 5.92743 11.5885 6.20384 11.5885C6.46143 11.5885 6.56723 11.6927 6.56723 11.9472C6.5675 12.8388 6.5641 13.7307 6.57011 14.6224C6.57141 14.8027 6.51577 14.9294 6.34778 15.0002C5.97028 15.0002 5.59251 15.0002 5.21501 15.0002C5.09849 14.9735 5.02168 14.9072 5.00026 14.7854C5 13.7955 5 12.8059 5 11.8163Z" fill="white"/>
<path d="M9.25711 14.3734C8.58988 14.3734 7.92239 14.3721 7.25516 14.3752C7.17861 14.3755 7.14988 14.364 7.1504 14.2772C7.15458 13.6231 7.15379 12.9686 7.15092 12.3145C7.15066 12.2395 7.16712 12.211 7.2468 12.2162C7.35705 12.2233 7.47983 12.2473 7.57545 12.2092C7.67551 12.1692 7.66689 12.0234 7.72018 11.9302C7.9574 11.5148 8.30904 11.2838 8.78921 11.2778C9.43685 11.2697 10.0847 11.271 10.7324 11.2765C11.0937 11.2797 11.368 11.5636 11.3638 11.9101C11.3596 12.2575 11.0853 12.5258 10.7196 12.5316C10.4105 12.5363 10.1012 12.5297 9.79189 12.5339C9.57427 12.5368 9.43476 12.7414 9.51575 12.9318C9.55494 13.0243 9.62495 13.0852 9.72423 13.1058C9.76838 13.1149 9.81462 13.1178 9.85981 13.1178C10.1723 13.1189 10.4847 13.1155 10.7972 13.1191C11.0968 13.1228 11.345 13.017 11.5561 12.8027C12.0036 12.3482 12.4556 11.8978 12.9089 11.4487C13.2981 11.0631 13.8593 11.0456 14.253 11.4014C14.4058 11.5396 14.4157 11.7144 14.2692 11.8612C13.5591 12.5736 12.849 13.2861 12.1345 13.9938C11.873 14.2529 11.548 14.3721 11.181 14.3729C10.5396 14.3747 9.89822 14.3734 9.25711 14.3734Z" fill="white"/>
<path d="M6.83798 9.10448C6.83746 9.16901 6.79069 9.25992 6.6909 9.31217C6.47563 9.42451 6.25879 9.53476 6.03908 9.63795C5.89252 9.70666 5.72845 9.64213 5.65896 9.50184C5.58868 9.35972 5.63623 9.19383 5.78096 9.11728C5.99571 9.0039 6.21229 8.89287 6.43278 8.79177C6.6248 8.70346 6.83641 8.84663 6.83798 9.10448Z" fill="white"/>
<path d="M13.7891 9.09181C13.7878 8.85537 13.9923 8.70516 14.1807 8.78823C14.4145 8.89143 14.6428 9.00794 14.8675 9.13021C14.9989 9.20153 15.0355 9.37422 14.967 9.50667C14.8949 9.64539 14.7322 9.70417 14.5841 9.63599C14.4281 9.56414 14.276 9.48446 14.1224 9.40792C14.0616 9.37761 13.9996 9.34914 13.9406 9.3157C13.8424 9.25979 13.7927 9.17332 13.7891 9.09181Z" fill="white"/>
<path d="M14.0879 6.83836C13.9471 6.8381 13.8335 6.75267 13.798 6.62622C13.7632 6.50239 13.8131 6.36105 13.9304 6.29862C14.1506 6.18158 14.3732 6.06846 14.5997 5.96422C14.74 5.89943 14.9044 5.97023 14.9704 6.1066C15.0358 6.24114 14.9945 6.40939 14.8618 6.48071C14.6394 6.6001 14.4106 6.70773 14.1846 6.82059C14.1512 6.83679 14.1156 6.83679 14.0879 6.83836Z" fill="white"/>
<path d="M6.8381 6.54915C6.8381 6.75449 6.63328 6.90184 6.44466 6.81798C6.21398 6.71557 5.98852 6.60035 5.7662 6.48044C5.63218 6.40807 5.5922 6.2427 5.65804 6.10685C5.7244 5.97022 5.88768 5.89942 6.02849 5.96421C6.25499 6.06845 6.47679 6.18288 6.69781 6.29835C6.79134 6.3472 6.8381 6.44387 6.8381 6.54915Z" fill="white"/>
<path d="M10.3247 5.00002C8.77858 4.99375 7.52223 6.24226 7.51178 7.79513C7.50159 9.33206 8.75533 10.5968 10.2983 10.6062C11.8477 10.6153 13.1117 9.36054 13.1182 7.80662C13.1247 6.27022 11.8665 5.00629 10.3247 5.00002ZM10.6993 9.00027C10.6366 9.01908 10.6071 9.03685 10.5992 9.11078C10.5846 9.24689 10.4561 9.34852 10.321 9.3527C10.1846 9.35688 10.0545 9.25813 10.0294 9.11444C10.019 9.05435 9.99574 9.03998 9.9427 9.02875C9.79014 8.99635 9.69373 8.86312 9.70863 8.71629C9.72352 8.5679 9.84317 8.45896 9.99913 8.45426C10.0739 8.45191 10.1488 8.454 10.2235 8.454V8.45374C10.2855 8.45374 10.3471 8.454 10.409 8.45374C10.5671 8.45322 10.6476 8.39208 10.6468 8.27295C10.646 8.15487 10.5679 8.0987 10.4056 8.09713C10.2983 8.09609 10.1906 8.09896 10.0838 8.08982C9.72535 8.05951 9.43588 7.77266 9.39722 7.41501C9.35829 7.05475 9.58505 6.70885 9.93278 6.60462C9.99025 6.58737 10.0198 6.57092 10.0279 6.50038C10.0443 6.35826 10.175 6.25506 10.3126 6.25428C10.4501 6.2535 10.5796 6.35486 10.5997 6.49777C10.6084 6.55864 10.6327 6.567 10.6813 6.57719C10.8391 6.6101 10.9349 6.74256 10.9182 6.89617C10.9023 7.04325 10.7829 7.14932 10.6238 7.15272C10.4905 7.15559 10.357 7.15324 10.2235 7.1535C10.0642 7.15376 9.98268 7.21307 9.98059 7.32984C9.97876 7.45002 10.0616 7.50932 10.2275 7.51167C10.3732 7.51376 10.5201 7.49913 10.6643 7.53702C10.9901 7.6227 11.2239 7.914 11.232 8.24631C11.2406 8.5956 11.0266 8.90256 10.6993 9.00027Z" fill="white"/>
</g>
<defs>
<clipPath id="clip0_2762_25914">
<rect width="10" height="10" fill="white" transform="translate(5 5)"/>
</clipPath>
</defs>
</svg>
