<svg width="20" height="20" viewBox="0 0 20 20" fill="none" xmlns="http://www.w3.org/2000/svg">
<path fill-rule="evenodd" clip-rule="evenodd" d="M8.95047 1.09886C9.05744 0.916644 9.21066 0.765456 9.39486 0.660377C9.57906 0.555298 9.78779 0.5 10.0002 0.5C10.2127 0.5 10.4214 0.555298 10.6056 0.660377C10.7898 0.765456 10.943 0.916644 11.05 1.09886L13.7668 5.72851L19.0429 6.86324C19.2504 6.90801 19.4425 7.006 19.6 7.14744C19.7575 7.28888 19.8749 7.46883 19.9405 7.66935C20.0061 7.86987 20.0176 8.08396 19.9738 8.29027C19.9301 8.49658 19.8326 8.6879 19.6912 8.84517L16.0948 12.8409L16.6391 18.172C16.6606 18.3819 16.6262 18.5938 16.5394 18.7864C16.4526 18.979 16.3164 19.1456 16.1445 19.2696C15.9725 19.3937 15.7708 19.4707 15.5594 19.4932C15.3481 19.5156 15.1345 19.4826 14.94 19.3974L10.0002 17.236L5.06048 19.3974C4.866 19.4826 4.65242 19.5156 4.44107 19.4932C4.22972 19.4707 4.02799 19.3937 3.85603 19.2696C3.68407 19.1456 3.54789 18.979 3.4611 18.7864C3.3743 18.5938 3.33993 18.3819 3.3614 18.172L3.90573 12.8409L0.309284 8.84614C0.167592 8.68888 0.0699314 8.49748 0.0260532 8.29104C-0.017825 8.0846 -0.00638617 7.87035 0.0592278 7.66967C0.124842 7.46899 0.242335 7.28891 0.399979 7.14741C0.557622 7.0059 0.7499 6.90792 0.957616 6.86324L6.2337 5.72851L8.95047 1.09886ZM10.0002 3.14351L7.75198 6.97614C7.66697 7.1208 7.55254 7.2463 7.41598 7.34465C7.27942 7.44299 7.12373 7.51203 6.95882 7.54736L2.59254 8.48622L5.56884 11.793C5.79629 12.0458 5.90613 12.3816 5.87211 12.7183L5.42207 17.1309L9.51035 15.3419C9.66472 15.2744 9.83155 15.2395 10.0002 15.2395C10.1689 15.2395 10.3358 15.2744 10.4901 15.3419L14.5784 17.1309L14.1284 12.7183C14.1113 12.5517 14.1293 12.3834 14.1814 12.2241C14.2334 12.0647 14.3183 11.9179 14.4307 11.793L17.4079 8.48622L13.0417 7.54736C12.8768 7.51203 12.7211 7.44299 12.5845 7.34465C12.4479 7.2463 12.3335 7.1208 12.2485 6.97614L10.0002 3.14351Z" fill="#0C0C0D" fill-opacity="0.8"/>
</svg>
