<svg width="45" height="44" viewBox="0 0 45 44" fill="none" xmlns="http://www.w3.org/2000/svg">
<rect x="0.5" width="44" height="44" rx="22" fill="#0066FF"/>
<path d="M26.9112 12.5C27.1339 12.5 27.3572 12.5 27.5799 12.5C27.6206 12.5122 27.6601 12.5296 27.7014 12.5354C29.4905 12.7858 30.7383 14.5418 30.347 16.2973C30.0731 17.5259 29.3219 18.3606 28.1037 18.7016C26.8693 19.0472 25.7966 18.7103 24.9174 17.7803C24.8261 17.6833 24.7622 17.6798 24.6511 17.7315C23.4248 18.3014 22.1974 18.8706 20.9659 19.4289C20.8171 19.4962 20.7973 19.5712 20.8269 19.7094C20.9653 20.3531 20.9147 20.9874 20.7037 21.6084C20.6612 21.7338 20.6862 21.7902 20.7973 21.8576C21.7212 22.4193 22.6411 22.9886 23.5621 23.5549C23.597 23.5764 23.6347 23.5944 23.6725 23.6142C23.7173 23.5712 23.7539 23.5387 23.7882 23.5038C24.9564 22.313 26.3687 21.8012 28.0171 22.0766C29.7707 22.3699 30.9906 23.3812 31.6593 25.0211C31.8337 25.4486 31.8895 25.9238 32 26.3775C32 26.6249 32 26.8724 32 27.1199C31.9221 27.487 31.8843 27.868 31.7587 28.2183C31.1145 30.0156 29.8533 31.1187 27.9584 31.4318C26.5489 31.6647 25.2704 31.2982 24.1871 30.3746C22.623 29.0409 22.1125 27.067 22.787 25.1344C22.8341 24.999 22.8027 24.9421 22.6887 24.873C21.7747 24.3171 20.8647 23.7548 19.9536 23.1948C19.9129 23.1698 19.871 23.1477 19.8327 23.1256C18.0575 24.9543 15.3608 24.6348 13.9415 23.0002C12.5972 21.4521 12.7076 19.0176 14.1758 17.5805C15.6742 16.1143 18.5052 15.9296 20.1315 18.0626C20.1472 18.0591 20.1664 18.0585 20.1821 18.051C21.4619 17.462 22.7405 16.8706 24.022 16.2851C24.1284 16.2363 24.1284 16.173 24.1139 16.0806C23.9133 14.7817 24.6261 13.4079 25.8245 12.8468C26.1658 12.687 26.5478 12.6133 26.9112 12.5Z" fill="white"/>
</svg>
