<svg width="28" height="28" viewBox="0 0 28 28" fill="none" xmlns="http://www.w3.org/2000/svg">
<path d="M18.9527 19.6926C18.9544 20.8126 18.568 21.328 17.7878 21.7302C17.0508 22.11 16.3172 22.0067 15.5728 21.886C12.3511 21.3647 9.36584 20.238 6.69036 18.3445C5.78688 17.705 4.97333 16.9647 4.31966 16.0645C4.24971 15.9679 4.21057 15.7897 4.24888 15.6832C4.87674 13.9578 5.50876 12.2341 6.16243 10.5187C6.64873 9.2422 7.43064 8.84584 8.78045 9.14811C9.95706 9.41124 10.9863 9.99247 11.9614 10.6703C14.4428 12.3965 16.4838 14.5424 18.0209 17.152C18.5247 18.0064 18.9261 18.9049 18.9527 19.6926ZM16.9434 20.4271C16.9543 20.3996 16.9642 20.3713 16.9751 20.3438C17.3764 20.353 17.5263 20.2439 17.4322 19.85C17.294 19.2713 17.1266 18.6817 16.8577 18.1546C15.955 16.3843 14.6502 14.9212 13.2071 13.5773C12.0555 12.5047 10.8247 11.5355 9.36667 10.9068C8.96364 10.7327 8.52231 10.627 8.08764 10.5554C7.7429 10.4988 7.59967 10.6395 7.65963 10.9834C7.7379 11.4372 7.84948 11.8994 8.03268 12.3199C8.64555 13.7255 9.58067 14.9179 10.6132 16.0354C11.9872 17.5226 13.4877 18.8607 15.308 19.785C15.8268 20.0498 16.3963 20.2156 16.9434 20.4271Z" fill="#5EFF8B"/>
<path d="M3.5594 17.5351C6.40724 20.5511 10.0112 22.0966 13.9399 23.1275C13.8491 23.1725 13.785 23.2133 13.715 23.2391C12.5101 23.6854 11.3069 24.1376 10.0961 24.5681C9.89294 24.6405 9.64979 24.6664 9.43745 24.6339C7.73874 24.3749 6.07999 23.9719 4.55615 23.1392C3.69846 22.6704 2.9432 22.0783 2.39362 21.2564C2.32867 21.1598 2.28537 20.995 2.32117 20.8942C2.7192 19.7817 3.13556 18.6759 3.5594 17.5351Z" fill="#5EFF8B"/>
<path d="M16.3772 2.23668C16.6312 2.60306 16.846 2.89534 17.0417 3.19928C17.3381 3.65976 17.4997 4.15522 17.3523 4.7073C17.1541 5.44924 16.5887 5.91139 15.7751 5.99799C15.4354 6.0338 15.0932 6.05295 14.7193 6.08126C14.7593 6.15288 14.7926 6.22032 14.8334 6.28278C15.0016 6.54425 15.1923 6.79406 15.3388 7.06718C15.7968 7.92237 15.5978 8.80836 14.8159 9.38293C14.1497 9.87339 13.3645 10.0283 12.5651 10.1165C12.3044 10.1449 12.1337 9.98331 12.0779 9.7285C12.0113 9.42456 11.9489 9.11896 11.9031 8.8117C11.8448 8.4145 11.9797 8.23213 12.3727 8.1447C12.7441 8.06143 13.1147 7.97899 13.5285 7.88656C13.2854 7.53433 13.0722 7.24288 12.8765 6.93978C12.5726 6.47097 12.4052 5.96718 12.5601 5.40428C12.7608 4.67566 13.3178 4.21851 14.1172 4.12941C14.4653 4.09027 14.8159 4.07195 15.2014 4.04114C15.0224 3.77218 14.845 3.5232 14.6843 3.2634C14.0248 2.19421 14.2938 1.08838 15.4254 0.548787C15.995 0.277326 16.6428 0.159915 17.2649 0.0166905C17.5804 -0.0557547 17.7636 0.111619 17.8386 0.441369C17.9044 0.73448 17.9635 1.03009 18.006 1.32736C18.0609 1.70791 17.9269 1.88944 17.5496 1.97521C17.1791 2.06098 16.8069 2.14175 16.3772 2.23668Z" fill="#5EFF8B"/>
<path d="M25.7551 11.6104C25.84 11.2465 25.9291 10.9209 25.9907 10.5895C26.0948 10.0341 26.2739 9.90587 26.8318 10.0158C27.0857 10.0657 27.3422 10.1082 27.5945 10.1657C27.8801 10.2306 28.025 10.4221 27.9876 10.7111C27.9001 11.3931 27.7644 12.0642 27.4113 12.6679C26.8135 13.6888 25.7867 13.9511 24.7775 13.3408C24.5052 13.1759 24.2462 12.9877 23.9556 12.7928C23.9265 13.1567 23.9065 13.4931 23.8715 13.8279C23.7266 15.2443 22.4509 15.9113 21.2094 15.2093C20.8496 15.0062 20.5199 14.7514 20.116 14.4799C20.0319 14.8321 19.9412 15.1544 19.8804 15.4816C19.7738 16.0562 19.5998 16.1819 19.0227 16.0679C18.7787 16.0196 18.5331 15.9788 18.2899 15.9263C18.006 15.8647 17.8461 15.684 17.8811 15.3925C17.9677 14.6789 18.1092 13.9761 18.4973 13.3541C19.0926 12.3973 20.0819 12.1525 21.0487 12.7229C21.3343 12.8911 21.6041 13.0868 21.9122 13.29C21.9388 12.9536 21.9596 12.6305 21.9913 12.3082C22.1403 10.8044 23.456 10.1432 24.75 10.9284C25.0781 11.1249 25.3845 11.3564 25.7551 11.6104Z" fill="#5EFF8B"/>
<path d="M26.925 5.08535C26.9284 5.78482 26.9667 5.77483 26.248 5.84894C23.7641 6.10458 21.6957 7.27286 19.8737 8.89663C19.1351 9.5553 18.5072 10.3405 17.8477 11.0841C17.5663 11.4014 17.5238 11.4297 17.1599 11.1857C16.9876 11.07 16.8144 10.9559 16.6412 10.8418C16.4272 10.6994 16.3872 10.5271 16.5471 10.3172C18.7812 7.37029 21.5658 5.2419 25.258 4.47248C25.6319 4.39421 26.0174 4.36257 26.3996 4.32926C26.8359 4.29179 26.9234 4.38505 26.925 4.83554C26.9259 4.91881 26.925 5.00208 26.925 5.08535Z" fill="#5EFF8B"/>
<path d="M1.63502 22.7561C3.09059 24.3499 4.94419 25.1385 7.00179 25.7047C6.83525 25.7738 6.73866 25.8171 6.63957 25.8546C4.81428 26.5366 2.9865 27.2128 1.16372 27.9022C0.81398 28.0346 0.495888 28.0654 0.214434 27.7832C-0.0678522 27.5 -0.0328787 27.1819 0.099521 26.833C0.574994 25.5832 1.03465 24.3266 1.50096 23.0734C1.53677 22.9768 1.5809 22.8835 1.63502 22.7561Z" fill="#5EFF8B"/>
<path d="M10.4667 3.31752C10.4667 3.60814 10.465 3.89875 10.4675 4.18936C10.4692 4.44917 10.3409 4.56824 10.0836 4.56491C9.83465 4.56158 9.58567 4.56325 9.33669 4.56408C9.09521 4.56491 8.97114 4.4475 8.97114 4.20352C8.97114 3.6123 8.97114 3.02108 8.97114 2.42903C8.97114 2.18422 9.09687 2.0693 9.33836 2.07014C9.58734 2.07097 9.83631 2.07263 10.0853 2.0693C10.3426 2.06597 10.47 2.18671 10.4675 2.44568C10.465 2.7363 10.4667 3.02691 10.4667 3.31752Z" fill="#5EFF8B"/>
<path d="M22.6799 17.5334C22.9805 17.5334 23.282 17.5326 23.5826 17.5343C23.8099 17.5351 23.9298 17.6508 23.9315 17.8782C23.934 18.148 23.9348 18.4178 23.9315 18.6875C23.9281 18.9157 23.8049 19.029 23.5792 19.029C22.988 19.0298 22.3968 19.029 21.8056 19.0298C21.5641 19.0298 21.44 18.9132 21.44 18.6692C21.44 18.4094 21.44 18.1505 21.44 17.8907C21.44 17.6458 21.5683 17.5326 21.8089 17.5334C22.0987 17.5343 22.3893 17.5334 22.6799 17.5334Z" fill="#5EFF8B"/>
<path d="M24.153 2.79459C24.0647 2.7388 23.9789 2.70132 23.9148 2.64054C23.7266 2.46234 23.5468 2.27498 23.3627 2.09262C23.1879 1.91942 23.1987 1.74871 23.3686 1.57967C23.7866 1.16166 24.2054 0.74364 24.6234 0.32479C24.785 0.163246 24.949 0.156584 25.1122 0.317296C25.3046 0.50632 25.4953 0.697008 25.6843 0.889363C25.845 1.05257 25.8409 1.21828 25.6801 1.37899C25.2555 1.80534 24.8316 2.23251 24.4011 2.65303C24.3395 2.71465 24.2462 2.74296 24.153 2.79459Z" fill="#5EFF8B"/>
</svg>
