<svg width="32" height="32" viewBox="0 0 32 32" fill="none" xmlns="http://www.w3.org/2000/svg">
<circle cx="16" cy="16" r="15.5" fill="#292929" stroke="#d9d9d9"/>
<g clip-path="url(#clip0_2706_21794)">
<path d="M14.1434 17.2035C13.9804 17.2035 13.8454 17.2035 13.7098 17.2035C13.0865 17.2035 12.4633 17.2077 11.84 17.201C11.4678 17.1968 11.3438 17.0885 11.3408 16.7328C11.3316 15.7751 11.3316 14.8168 11.3414 13.8591C11.345 13.5046 11.4757 13.3951 11.8436 13.3933C12.5204 13.3896 13.1966 13.3921 13.8734 13.3921C13.9549 13.3921 14.0369 13.3921 14.144 13.3921C14.144 13.2802 14.1427 13.1914 14.144 13.1026C14.1598 12.2367 14.1282 11.3666 14.2017 10.5056C14.3866 8.33779 16.0515 6.76896 18.229 6.68687C19.1399 6.65221 20.0532 6.67289 20.9653 6.67532C21.2681 6.67593 21.3976 6.80606 21.3995 7.10888C21.4043 8.01369 21.4043 8.9185 21.3995 9.82331C21.3976 10.1316 21.2718 10.2538 20.9422 10.2617C20.3268 10.2769 19.7109 10.2769 19.0955 10.286C18.3804 10.297 18.0989 10.5664 18.0861 11.2815C18.0739 11.957 18.0837 12.6326 18.0837 13.3325C18.1785 13.3367 18.2588 13.344 18.3384 13.344C19.1216 13.3446 19.9042 13.344 20.6874 13.3446C21.1976 13.3453 21.3095 13.4553 21.3101 13.9558C21.3107 14.8527 21.3113 15.7502 21.3095 16.6471C21.3089 17.0673 21.2049 17.1737 20.7835 17.1755C19.9778 17.1785 19.1721 17.1767 18.3664 17.1767C18.2837 17.1767 18.201 17.1767 18.0843 17.1767C18.0843 17.2886 18.0843 17.3847 18.0843 17.4808C18.0843 19.8601 18.0843 22.2401 18.0843 24.6195C18.0843 25.2598 18.0095 25.3334 17.3607 25.3334C16.4863 25.3334 15.6125 25.334 14.738 25.3334C14.2552 25.3328 14.144 25.2233 14.144 24.746C14.1434 22.3362 14.1434 19.9258 14.1434 17.516C14.1434 17.4254 14.1434 17.3354 14.1434 17.2035Z" fill="white"/>
</g>
<defs>
<clipPath id="clip0_2706_21794">
<rect width="18.6667" height="18.6667" fill="white" transform="translate(6.66797 6.66699)"/>
</clipPath>
</defs>
</svg>
