<svg width="10" height="10" viewBox="0 0 10 10" fill="none" xmlns="http://www.w3.org/2000/svg">
<path d="M7.03269 0C7.07647 0.00978306 7.12025 0.0205444 7.16428 0.0293492C7.91439 0.182454 8.42066 0.804657 8.42653 1.59513C8.43216 2.3697 8.42849 3.14428 8.42727 3.91885C8.42702 4.13114 8.33286 4.27544 8.16484 4.33243C8.00709 4.38599 7.8398 4.33659 7.73389 4.20769C7.65856 4.11598 7.64609 4.00812 7.64609 3.89561C7.64634 3.14061 7.64438 2.3856 7.64707 1.63059C7.64805 1.35373 7.5622 1.12041 7.34013 0.946267C7.19632 0.833517 7.03049 0.782156 6.85 0.781911C5.25878 0.780688 3.66733 0.778976 2.07611 0.782645C1.63783 0.783623 1.32013 1.09228 1.28809 1.52689C1.28564 1.55942 1.28418 1.59195 1.28418 1.62448C1.28393 3.87336 1.28466 6.12224 1.28295 8.37112C1.28271 8.64847 1.36978 8.88082 1.5921 9.05447C1.74178 9.17137 1.91494 9.21736 2.10228 9.21736C2.52222 9.2176 2.94191 9.21589 3.36185 9.21833C3.54553 9.21931 3.68469 9.32228 3.73948 9.48786C3.78961 9.63974 3.74657 9.81681 3.61303 9.90657C3.53917 9.95622 3.44085 9.99266 3.3528 9.99438C2.92332 10.0032 2.4936 9.99927 2.06413 9.99829C1.20567 9.99633 0.492237 9.29635 0.500064 8.38139C0.51107 7.08954 0.502754 5.79744 0.502754 4.50534C0.502754 3.54196 0.50251 2.57881 0.502754 1.61543C0.502999 1.00276 0.757113 0.52535 1.28687 0.215716C1.44853 0.12131 1.64321 0.0836452 1.82298 0.0202999C1.84694 0.0119842 1.87214 0.00660357 1.89659 0C3.60863 0 5.32066 0 7.03269 0Z" fill="#0066FF"/>
<path d="M9.46148 6.45145C9.46001 6.80927 9.3431 7.08808 9.11467 7.31701C8.41371 8.01943 7.71178 8.72111 7.00544 9.4184C6.93941 9.4837 6.84574 9.5336 6.75573 9.55977C6.26609 9.70211 5.77376 9.83565 5.28216 9.9709C5.03392 10.0391 4.82652 9.94668 4.76415 9.7273C4.74165 9.64781 4.74312 9.55047 4.76611 9.4705C4.90992 8.9745 5.06033 8.48045 5.21588 7.98812C5.24132 7.9079 5.29121 7.82719 5.35064 7.76751C6.04793 7.06583 6.74693 6.36609 7.45008 5.67028C7.78564 5.33814 8.18968 5.22784 8.64239 5.37018C9.08679 5.50983 9.35019 5.82485 9.44362 6.28025C9.45756 6.34653 9.45805 6.41574 9.46148 6.45145ZM7.38111 6.84497C7.36253 6.86258 7.33636 6.88606 7.31141 6.91076C6.97952 7.24168 6.6601 7.58628 6.31207 7.8991C6.03741 8.14587 5.8508 8.42665 5.78403 8.78886C5.76911 8.86982 5.73928 8.94784 5.71262 9.04053C5.95842 8.97254 6.18734 8.91188 6.41406 8.84438C6.46713 8.82848 6.52241 8.79865 6.56154 8.76C7.00129 8.32515 7.4381 7.8876 7.8754 7.45054C7.89546 7.43049 7.9138 7.40872 7.92774 7.39331C7.74455 7.20988 7.56577 7.03036 7.38111 6.84497ZM8.50225 6.81954C8.63799 6.71608 8.71063 6.57374 8.66954 6.393C8.63408 6.23745 8.52964 6.13766 8.37311 6.10342C8.19311 6.0638 8.06006 6.145 7.95489 6.27291C8.13856 6.45634 8.31931 6.63684 8.50225 6.81954Z" fill="#0066FF"/>
<path d="M4.46456 2.34325C5.12834 2.34325 5.79212 2.34179 6.45565 2.34399C6.74841 2.34496 6.93869 2.60935 6.83792 2.87031C6.77849 3.0244 6.66134 3.10731 6.49772 3.12223C6.44929 3.12663 6.40013 3.12419 6.35146 3.12419C5.06621 3.12419 3.78121 3.12443 2.49596 3.12394C2.23207 3.12394 2.05304 2.95323 2.06502 2.71574C2.07578 2.49831 2.2416 2.34448 2.47346 2.34374C2.99392 2.34203 3.51462 2.34325 4.03508 2.34325C4.17816 2.34325 4.32124 2.34325 4.46456 2.34325Z" fill="#0066FF"/>
<path d="M4.45924 4.68697C3.79889 4.68697 3.13829 4.68795 2.47793 4.68648C2.21355 4.68575 2.03794 4.49082 2.07022 4.24013C2.09273 4.06477 2.23507 3.92781 2.41557 3.90898C2.45103 3.90531 2.48698 3.90604 2.52293 3.90604C3.81772 3.9058 5.11275 3.9058 6.40754 3.90629C6.45303 3.90629 6.49925 3.90531 6.54377 3.91314C6.74065 3.94885 6.87346 4.1198 6.8627 4.31889C6.85218 4.5165 6.69981 4.67475 6.49901 4.68404C6.34004 4.69138 6.18033 4.68673 6.02086 4.68673C5.50041 4.68697 4.9797 4.68697 4.45924 4.68697Z" fill="#0066FF"/>
<path d="M3.68428 5.46796C4.08734 5.46796 4.49041 5.46552 4.89347 5.46918C5.06565 5.47065 5.19307 5.55479 5.25593 5.7167C5.31487 5.86907 5.28601 6.01141 5.17228 6.13125C5.09695 6.2105 5.00132 6.24841 4.89249 6.24841C4.07976 6.2489 3.26728 6.25036 2.45455 6.24767C2.23003 6.24694 2.06397 6.07427 2.06445 5.85782C2.06494 5.64112 2.23101 5.47114 2.45602 5.46918C2.8652 5.46552 3.27486 5.46796 3.68428 5.46796Z" fill="#0066FF"/>
</svg>
