<svg width="28" height="28" viewBox="0 0 28 28" fill="none" xmlns="http://www.w3.org/2000/svg">
<g opacity="0.5">
<circle cx="14" cy="14" r="14" fill="#D4D4D4"/>
</g>
<path d="M15.3702 14.5531L18.8513 11.0718C19.0779 10.8454 19.0779 10.4793 18.8513 10.2528C18.6249 10.0264 18.2588 10.0264 18.0323 10.2528L14.5511 13.7341L11.07 10.2528C10.8434 10.0264 10.4774 10.0264 10.251 10.2528C10.0244 10.4793 10.0244 10.8454 10.251 11.0718L13.7321 14.5531L10.251 18.0343C10.0244 18.2607 10.0244 18.6269 10.251 18.8533C10.3638 18.9662 10.5122 19.023 10.6605 19.023C10.8087 19.023 10.957 18.9662 11.07 18.8533L14.5511 15.3721L18.0323 18.8533C18.1453 18.9662 18.2935 19.023 18.4418 19.023C18.5901 19.023 18.7384 18.9662 18.8513 18.8533C19.0779 18.6269 19.0779 18.2607 18.8513 18.0343L15.3702 14.5531Z" fill="black"/>
</svg>
