<svg width="32" height="32" viewBox="0 0 32 32" fill="none" xmlns="http://www.w3.org/2000/svg">
<circle cx="16" cy="16" r="15.5" fill="#292929" stroke="#d9d9d9"/>
<path d="M16 8C11.5818 8 8 11.5818 8 16C8 20.4182 11.5818 24 16 24C20.4182 24 24 20.4182 24 16C24 11.5818 20.4182 8 16 8ZM16.8089 18.816C16.7505 18.8877 16.6802 18.9504 16.6144 19.0158C16.0031 19.6242 15.3989 20.24 14.7775 20.8384C14.3852 21.2164 13.9007 21.4193 13.358 21.4788C13.341 21.4806 13.3215 21.4757 13.3152 21.4994C13.1363 21.4994 12.9571 21.4994 12.7781 21.4994C12.7444 21.459 12.6936 21.4708 12.6511 21.4621C11.5793 21.2481 10.8936 20.6156 10.5835 19.5689C10.5494 19.4544 10.5577 19.3305 10.5013 19.2222C10.5013 19.029 10.5013 18.8355 10.5013 18.6423C10.557 18.5668 10.5427 18.4738 10.5615 18.3896C10.6743 17.8873 10.9155 17.4585 11.2779 17.0954C12.0367 16.3356 12.7935 15.5739 13.5551 14.8172C14.4329 13.9449 15.7041 13.7862 16.7425 14.4207C16.9771 14.5642 17.2075 14.7218 17.3415 14.9752C17.4971 15.2694 17.424 15.6408 17.179 15.8437C16.9082 16.0675 16.5239 16.0835 16.2569 15.8747C16.0881 15.7428 15.9307 15.6004 15.7132 15.5444C15.3282 15.4455 14.9843 15.5148 14.6808 15.771C14.6045 15.8354 14.536 15.9092 14.465 15.9802C13.7458 16.6986 13.0256 17.4157 12.3086 18.1365C11.8401 18.6075 11.855 19.3214 12.3368 19.7576C12.7653 20.1453 13.4304 20.121 13.8589 19.6966C14.2836 19.2762 14.7097 18.8567 15.1235 18.4254C15.2582 18.2852 15.3783 18.2556 15.5572 18.3287C15.8848 18.4627 16.2325 18.5083 16.5855 18.5139C16.6178 18.5142 16.6502 18.5125 16.6819 18.5159C16.8406 18.5344 16.9095 18.6924 16.8089 18.816ZM21.2164 14.2349C21.1001 14.4705 20.9449 14.6808 20.7593 14.8666C19.9675 15.6596 19.1787 16.4556 18.3809 17.2423C17.9249 17.692 17.368 17.9259 16.7261 17.9521C16.6617 17.9548 16.5977 17.9604 16.5235 17.9653C15.8256 17.9353 15.2147 17.6851 14.7389 17.1535C14.4945 16.8807 14.5234 16.4598 14.7765 16.196C15.0205 15.9415 15.4525 15.9067 15.7382 16.1257C15.9081 16.2558 16.0647 16.4003 16.2823 16.4563C16.6753 16.5576 17.03 16.4908 17.3297 16.2165C17.5751 15.992 17.8052 15.7504 18.0408 15.5151C18.5908 14.9665 19.1425 14.4194 19.689 13.8673C20.2163 13.3344 20.1053 12.4788 19.4666 12.1154C19.0416 11.8735 18.4989 11.9514 18.1341 12.3121C17.7014 12.7402 17.2691 13.1687 16.8441 13.6038C16.7334 13.7169 16.6318 13.7451 16.4831 13.6859C16.1239 13.5425 15.7466 13.4854 15.3606 13.4861C15.2704 13.4865 15.1994 13.4583 15.1608 13.3716C15.1211 13.2825 15.1566 13.2119 15.2189 13.1499C15.889 12.4837 16.5458 11.8032 17.2333 11.1547C18.1644 10.2765 19.6959 10.2869 20.6372 11.1509C21.5185 11.9612 21.7458 13.1628 21.2164 14.2349Z" fill="white"/>
</svg>
