<svg width="16" height="16" viewBox="0 0 16 16" fill="none" xmlns="http://www.w3.org/2000/svg">
    <path d="M5.59993 12.0689L6.51852 12.0689L6.99099 12.0828C7.52928 12.0988 7.9762 11.701 8.01731 11.1641C8.08152 10.3254 8.21016 9.39833 8.86701 8.74791L14.6767 2.76392C14.7287 2.7104 14.8144 2.70992 14.867 2.76283L15.9068 3.80962C15.9584 3.86156 15.9585 3.94539 15.9069 3.99741L6.09373 13.9053C6.04198 13.9575 5.95769 13.958 5.90535 13.9064L0.0952144 8.17271C0.0426784 8.12086 0.0422568 8.03621 0.0942721 7.98384L1.13439 6.93674C1.18641 6.88436 1.27109 6.88423 1.32328 6.93644L3.23554 8.8493C3.77108 9.39433 3.87918 10.3222 3.9532 11.1699C3.99832 11.6866 4.42829 12.0689 4.94698 12.0689L5.59993 12.0689Z" fill="#93E185"/>
</svg>
