<svg width="24" height="32" viewBox="0 0 24 32" fill="none" xmlns="http://www.w3.org/2000/svg">
<path d="M19.6862 0L24 4.81846L23.9815 4.83692V29.9877C23.9815 31.1015 23.0831 32 21.9815 32H2C0.898462 32 0 31.0954 0 29.9877V2.02462C0 0.910769 0.898462 0.0123077 2 0.0123077H19.6738V0.0246154L19.6862 0ZM18.3385 1.35385H2C1.63077 1.35385 1.33538 1.65538 1.33538 2.02462V29.9877C1.33538 30.3569 1.63077 30.6585 2 30.6585H21.9877C22.3569 30.6585 22.6523 30.3569 22.6523 29.9877V6.17231H18.3385V1.35385ZM12.6585 16.6338V18.6892H11.3231V16.6338H12.6585ZM7.85846 10.5354L8.8 11.4831L7.63692 12.6585L8.8 13.8338L7.85846 14.7815L6.69538 13.6062L5.53231 14.7815L4.59077 13.8338L5.75385 12.6585L4.59077 11.4831L5.53231 10.5354L6.69538 11.7108L7.85846 10.5354ZM18.4554 10.5354L19.3969 11.4831L18.2338 12.6585L19.3969 13.8338L18.4554 14.7815L17.2862 13.6062L16.1169 14.7815L15.1754 13.8338L16.3385 12.6585L15.1754 11.4831L16.1169 10.5354L17.2862 11.7108L18.4554 10.5354ZM19.6677 1.98154V4.82462H22.2092L19.6677 1.98154ZM18.72 22.6708H5.26769V21.3292H18.72V22.6708Z" fill="#D01F36"/>
</svg>
