<svg width="16" height="16" viewBox="0 0 16 16" fill="none" xmlns="http://www.w3.org/2000/svg">
<path d="M8 0C3.58877 0 0 3.58877 0 8C0 12.4112 3.58877 16 8 16C12.4112 16 16 12.4112 16 8C16 3.58877 12.4112 0 8 0ZM8 12.6016C7.55135 12.6016 7.18762 12.2379 7.18762 11.7893C7.18762 11.3406 7.55135 10.9769 8 10.9769C8.44865 10.9769 8.81238 11.3406 8.81238 11.7893C8.81238 12.2379 8.44865 12.6016 8 12.6016ZM8.81238 8.43143C8.81238 8.88008 8.44865 9.24381 8 9.24381C7.55135 9.24381 7.18762 8.88008 7.18762 8.43143V4.15289C7.18762 3.70424 7.55135 3.34051 8 3.34051C8.44865 3.34051 8.81238 3.70424 8.81238 4.15289V8.43143Z" fill="white"/>
</svg>
