<svg width="45" height="44" viewBox="0 0 45 44" fill="none" xmlns="http://www.w3.org/2000/svg">
<rect x="0.5" width="44" height="44" rx="22" fill="#0066FF"/>
<path fill-rule="evenodd" clip-rule="evenodd" d="M27.8895 10H29.7645C29.8672 10.0291 29.9709 10.0557 30.0746 10.0823L30.0746 10.0823C30.3028 10.1408 30.5308 10.1993 30.7482 10.2844C31.6763 10.6481 32.3044 11.2925 32.4657 12.3037C32.5969 13.1287 32.3151 13.8599 31.8519 14.5268C31.1032 15.6055 30.0539 16.3061 28.8826 16.8473C28.8364 16.8686 28.7904 16.891 28.7444 16.9133L28.7444 16.9134C28.7188 16.9258 28.6933 16.9382 28.6677 16.9504C28.6705 16.9579 28.6731 16.9656 28.6758 16.9733C28.6784 16.9809 28.6811 16.9886 28.6839 16.9961H28.9376C29.3027 16.9961 29.6678 16.9958 30.0329 16.9955C30.909 16.9949 31.7852 16.9942 32.6613 16.9973C33.4875 16.9998 34.145 17.4504 34.3994 18.176C34.4229 18.2432 34.4442 18.3111 34.4654 18.379C34.4765 18.4141 34.4875 18.4492 34.4987 18.4842V21.5309C34.4955 21.5348 34.4917 21.5384 34.488 21.5421C34.4802 21.5496 34.4725 21.5571 34.47 21.5659C34.1763 22.5615 33.6031 22.9953 32.5763 22.9953C30.5698 22.9957 28.5633 22.9956 26.5568 22.9954H26.5465L23.5315 22.9953H23.2422V18.0479H21.7416V22.9953H21.4447H16.4298C16.037 22.9953 15.6442 22.9956 15.2514 22.9959H15.2507C14.269 22.9967 13.2875 22.9974 12.3056 22.9934C11.4312 22.9897 10.7637 22.4753 10.5487 21.6572C10.5413 21.6283 10.5295 21.6007 10.5176 21.573C10.5116 21.5589 10.5055 21.5447 10.5 21.5303V18.4835C10.8119 17.2873 11.6756 16.9548 12.6431 16.9867C13.4477 17.013 14.2536 17.0067 15.0594 17.0004C15.4015 16.9977 15.7435 16.995 16.0855 16.9948C16.1396 16.9948 16.1938 16.9916 16.2479 16.9883C16.2725 16.9868 16.2971 16.9854 16.3217 16.9842C16.1527 16.8737 15.9817 16.7869 15.8131 16.7014L15.8131 16.7014C15.7529 16.6708 15.693 16.6405 15.6336 16.6092C14.568 16.048 13.6305 15.338 12.9943 14.2899C12.6156 13.6662 12.4075 12.9924 12.5412 12.2574C12.7306 11.2168 13.403 10.5931 14.3599 10.2419C14.554 10.1707 14.7557 10.1208 14.9575 10.0708L14.9575 10.0708C15.05 10.0479 15.1425 10.025 15.2343 10H17.1092C17.1222 10.0045 17.1351 10.0096 17.148 10.0147C17.178 10.0265 17.2082 10.0383 17.2392 10.0431C17.8442 10.1381 18.421 10.3219 18.9673 10.5987C20.4016 11.325 21.3878 12.4849 22.1334 13.8761C22.2141 14.0272 22.2896 14.1809 22.3666 14.3375C22.4071 14.42 22.4481 14.5033 22.4903 14.5874C22.5687 14.4447 22.644 14.3027 22.7188 14.1619C22.8771 13.8636 23.0325 13.571 23.2065 13.2899C24.0603 11.9125 25.1834 10.8431 26.7427 10.3019C26.9966 10.2135 27.2599 10.1514 27.5233 10.0893L27.5233 10.0893C27.6457 10.0604 27.768 10.0315 27.8895 10ZM21.5766 16.5698C21.2085 15.2774 20.716 14.148 19.8916 13.1874C18.8667 11.9931 17.5629 11.4118 15.988 11.4593C15.5099 11.4737 15.0399 11.5462 14.6074 11.7743C14.0793 12.0531 13.8799 12.4993 14.0705 13.0668C14.1537 13.3143 14.2687 13.5712 14.4368 13.7649C14.7424 14.1155 15.0686 14.4618 15.4392 14.7386C16.5298 15.5549 17.7948 15.978 19.1167 16.2261C19.6641 16.3285 20.2177 16.3975 20.7892 16.4686L20.7893 16.4686C21.0477 16.5008 21.3098 16.5334 21.5766 16.5698ZM23.424 16.5492C23.6355 16.5248 23.8425 16.5031 24.0462 16.4818C24.4852 16.4357 24.9089 16.3912 25.329 16.3255C26.7115 16.1086 28.0364 15.7136 29.2339 14.963C29.8282 14.5905 30.362 14.1486 30.7251 13.5349C31.2776 12.6006 30.9895 11.8531 29.9326 11.6012C28.3302 11.2187 26.8764 11.565 25.6346 12.6581C24.4734 13.6787 23.8697 15.0311 23.424 16.5492ZM13.968 33.9994L13.9062 33.9773L13.9062 33.9773C13.8476 33.9562 13.7891 33.9352 13.7299 33.9162C13.0168 33.6881 12.5137 33.0588 12.5105 32.3119C12.5019 30.3601 12.5028 28.4078 12.5037 26.4558V26.4557V26.4557C12.504 25.8551 12.5043 25.2545 12.5043 24.654C12.5043 24.6243 12.5093 24.5944 12.5149 24.5612L12.5149 24.5612C12.5176 24.5447 12.5205 24.5274 12.523 24.509H21.749V34C19.1554 33.9994 16.5617 33.9994 13.968 33.9994ZM23.249 24.5084V33.9994C25.8427 33.9994 28.4364 33.9994 31.0307 33.9987C31.034 33.9958 31.0372 33.9925 31.0404 33.9892C31.0483 33.981 31.0564 33.9727 31.0657 33.97C32.0682 33.6731 32.495 33.1019 32.495 32.0538V24.794V24.5084H23.249Z" fill="white"/>
</svg>
