<svg width="14" height="14" viewBox="0 0 14 14" fill="none" xmlns="http://www.w3.org/2000/svg">
<path d="M4.37864 11.8347C5.18338 12.2713 6.08446 12.4999 7 12.4998V13.4998C6.04584 13.4996 5.10338 13.2897 4.23935 12.8849C3.37531 12.4801 2.61082 11.8903 2 11.1573V12.9998H1V8.99977H5V9.99977H2.392C2.89101 10.7674 3.5739 11.3981 4.37864 11.8347Z" fill="white"/>
<path d="M11.608 3.99977H9V4.99977H13V0.999773H12V2.84227C11.145 1.8152 9.99431 1.0765 8.70453 0.726706C7.41475 0.37691 6.04851 0.433002 4.79174 0.887352C3.53497 1.3417 2.44871 2.17224 1.68079 3.26594C0.912858 4.35965 0.500561 5.6634 0.5 6.99977H1.5C1.4995 5.8141 1.88227 4.66003 2.59123 3.70966C3.30019 2.7593 4.29736 2.06356 5.43403 1.7262C6.57069 1.38885 7.78596 1.42795 8.89859 1.83768C10.0112 2.2474 10.9616 3.0058 11.608 3.99977Z" fill="white"/>
<path d="M10.5846 6.49977H11.626V7.37149C11.8863 7.42608 12.137 7.52032 12.3693 7.65129C12.6663 7.81879 12.9272 8.04308 13.1369 8.31133L13.2889 8.50575L12.4769 9.15772L12.3211 8.95651C12.1686 8.75954 11.9711 8.60136 11.7448 8.49512C11.5185 8.38888 11.27 8.33768 11.0198 8.3458L11.0157 8.34593H11.0117C10.7476 8.34593 10.4797 8.39888 10.2874 8.5082C10.1063 8.61114 10.002 8.75468 10.002 8.96877C10.002 9.13417 10.0294 9.24256 10.0676 9.31702C10.1042 9.38828 10.1587 9.44445 10.2428 9.49318C10.4306 9.60199 10.7273 9.65614 11.1891 9.71998L11.211 9.723C11.607 9.77767 12.1088 9.84696 12.5098 10.0761C12.7205 10.1965 12.9095 10.3638 13.0442 10.5988C13.1786 10.8333 13.25 11.1198 13.25 11.4654C13.25 11.9509 13.0693 12.3658 12.7332 12.6673C12.4497 12.9217 12.0696 13.0833 11.626 13.1522V13.9998H10.5846V13.1718C10.278 13.1434 9.97834 13.0595 9.70068 12.9236C9.34746 12.7506 9.03949 12.4981 8.80129 12.1859L8.65332 11.992L9.45855 11.3455L9.61527 11.5385C9.7836 11.7458 9.94421 11.8921 10.1571 11.9912C10.3726 12.0916 10.6632 12.1536 11.1053 12.1536C11.3459 12.1536 11.6389 12.1233 11.863 12.0154C11.9717 11.963 12.0557 11.8965 12.1127 11.814C12.1684 11.7336 12.2087 11.6237 12.2087 11.4654C12.2087 11.308 12.182 11.206 12.1456 11.1364C12.1107 11.0697 12.0583 11.0162 11.9758 10.9692C11.7915 10.8642 11.5 10.8112 11.0461 10.7483L11.0246 10.7454C10.623 10.69 10.1144 10.6199 9.70824 10.3858C9.49489 10.2628 9.30399 10.0921 9.16815 9.85254C9.03265 9.61362 8.96061 9.32156 8.96061 8.96877C8.96061 8.49682 9.15426 8.09136 9.49256 7.80001C9.77642 7.55555 10.1526 7.3988 10.5846 7.33744V6.49977Z" fill="white"/>
</svg>
