<svg width="32" height="32" viewBox="0 0 32 32" fill="none" xmlns="http://www.w3.org/2000/svg">
<circle cx="16" cy="16" r="16" fill="#6DBE84"/>
<g clip-path="url(#clip0_2704_23630)">
<path d="M16 8C11.5888 8 8 11.5887 8 16C8 20.4113 11.5888 24.0001 16 24.0001C20.4112 24.0001 24 20.4113 24 16C24 11.5887 20.4113 8 16 8ZM20.5937 14.6487L15.5677 19.6747C15.354 19.8884 15.07 20.0061 14.7678 20.0061C14.4656 20.0061 14.1815 19.8884 13.9678 19.6747L11.4063 17.1132C11.1926 16.8995 11.0748 16.6154 11.0748 16.3132C11.0748 16.0109 11.1926 15.7269 11.4063 15.5132C11.6199 15.2994 11.904 15.1817 12.2062 15.1817C12.5084 15.1817 12.7926 15.2994 13.0062 15.5132L14.7677 17.2746L18.9936 13.0487C19.2073 12.835 19.4914 12.7174 19.7936 12.7174C20.0958 12.7174 20.3799 12.835 20.5936 13.0487C21.0348 13.49 21.0348 14.2076 20.5937 14.6487Z" fill="white"/>
</g>
<defs>
<clipPath id="clip0_2704_23630">
<rect width="16" height="16" fill="white" transform="translate(8 8)"/>
</clipPath>
</defs>
</svg>
