<svg width="32" height="32" viewBox="0 0 32 32" fill="none" xmlns="http://www.w3.org/2000/svg">
<circle cx="16" cy="16" r="16" fill="#6DBE84"/>
<g clip-path="url(#clip0_3380_25754)">
<rect width="16" height="16" transform="translate(8 8)" fill="#6DBE84"/>
<path d="M8 18.9059C8.10534 18.63 8.31057 18.531 8.59857 18.5385C9.04082 18.5498 9.4839 18.5414 9.92614 18.5414C10.3383 18.5414 10.5076 18.7082 10.5076 19.1153C10.508 20.542 10.5026 21.969 10.5122 23.3956C10.5143 23.684 10.4252 23.8868 10.1565 24.0001C9.55245 24.0001 8.94802 24.0001 8.34401 24.0001C8.15759 23.9574 8.03469 23.8512 8.00042 23.6565C8 22.0727 8 20.4893 8 18.9059Z" fill="white"/>
<path d="M14.8122 22.9975C13.7446 22.9975 12.6766 22.9954 11.609 23.0004C11.4866 23.0008 11.4406 22.9825 11.4414 22.8437C11.4481 21.797 11.4469 20.7499 11.4423 19.7033C11.4418 19.5833 11.4682 19.5377 11.5957 19.5461C11.7721 19.5574 11.9685 19.5958 12.1215 19.5348C12.2816 19.4708 12.2678 19.2376 12.3531 19.0884C12.7326 18.4238 13.2952 18.0542 14.0635 18.0446C15.0997 18.0317 16.1364 18.0338 17.1726 18.0425C17.7507 18.0476 18.1896 18.5019 18.1829 19.0562C18.1762 19.6121 17.7373 20.0414 17.1521 20.0506C16.6576 20.0581 16.1627 20.0477 15.6678 20.0544C15.3196 20.059 15.0964 20.3863 15.226 20.691C15.2887 20.839 15.4007 20.9363 15.5595 20.9694C15.6302 20.984 15.7042 20.9886 15.7765 20.9886C16.2764 20.9903 16.7763 20.9848 17.2763 20.9907C17.7557 20.9965 18.1528 20.8273 18.4905 20.4845C19.2066 19.7572 19.9297 19.0365 20.6549 18.318C21.2778 17.701 22.1756 17.673 22.8056 18.2423C23.0501 18.4635 23.066 18.7431 22.8315 18.978C21.6953 20.1179 20.5592 21.2578 19.416 22.3902C18.9976 22.8048 18.4776 22.9954 17.8903 22.9967C16.8641 22.9996 15.8379 22.9975 14.8122 22.9975Z" fill="white"/>
<path d="M10.9415 14.5671C10.9407 14.6703 10.8659 14.8158 10.7062 14.8994C10.3618 15.0791 10.0148 15.2555 9.66331 15.4206C9.42881 15.5306 9.16631 15.4273 9.05512 15.2028C8.94268 14.9755 9.01875 14.71 9.25032 14.5876C9.59392 14.4061 9.94044 14.2285 10.2932 14.0667C10.6005 13.9254 10.939 14.1545 10.9415 14.5671Z" fill="white"/>
<path d="M22.0606 14.5466C22.0585 14.1683 22.3858 13.928 22.6871 14.0609C23.0612 14.226 23.4266 14.4124 23.7861 14.608C23.9963 14.7222 24.0548 14.9985 23.9453 15.2104C23.8299 15.4323 23.5695 15.5264 23.3325 15.4173C23.083 15.3023 22.8397 15.1748 22.5939 15.0524C22.4965 15.0039 22.3975 14.9583 22.303 14.9048C22.1458 14.8154 22.0664 14.677 22.0606 14.5466Z" fill="white"/>
<path d="M22.5399 10.9414C22.3146 10.941 22.1328 10.8043 22.076 10.602C22.0204 10.4038 22.1002 10.1777 22.2879 10.0778C22.6403 9.89052 22.9964 9.70953 23.3588 9.54275C23.5833 9.43908 23.8462 9.55236 23.9519 9.77056C24.0564 9.98583 23.9904 10.255 23.778 10.3691C23.4223 10.5602 23.0562 10.7324 22.6946 10.9129C22.6411 10.9389 22.5842 10.9389 22.5399 10.9414Z" fill="white"/>
<path d="M10.9417 10.4782C10.9417 10.8067 10.614 11.0424 10.3122 10.9083C9.94315 10.7444 9.58241 10.5601 9.2267 10.3682C9.01226 10.2524 8.94831 9.98784 9.05364 9.77048C9.15982 9.55187 9.42107 9.43859 9.64637 9.54225C10.0088 9.70903 10.3637 9.89212 10.7173 10.0769C10.8669 10.155 10.9417 10.3097 10.9417 10.4782Z" fill="white"/>
<path d="M16.5183 8.00004C14.0446 7.99001 12.0344 9.98762 12.0177 12.4722C12.0014 14.9313 14.0074 16.9548 16.4761 16.9699C18.9552 16.9845 20.9775 14.9769 20.9879 12.4906C20.9984 10.0323 18.9853 8.01007 16.5183 8.00004ZM17.1177 14.4004C17.0174 14.4305 16.9701 14.459 16.9576 14.5772C16.9342 14.795 16.7285 14.9576 16.5124 14.9643C16.2942 14.971 16.0861 14.813 16.0459 14.5831C16.0292 14.487 15.992 14.464 15.9072 14.446C15.663 14.3942 15.5088 14.181 15.5326 13.9461C15.5565 13.7086 15.7479 13.5343 15.9974 13.5268C16.117 13.5231 16.237 13.5264 16.3565 13.5264V13.526C16.4556 13.526 16.5542 13.5264 16.6533 13.526C16.9062 13.5251 17.0349 13.4273 17.0337 13.2367C17.0324 13.0478 16.9074 12.9579 16.6479 12.9554C16.4761 12.9537 16.3038 12.9583 16.1329 12.9437C15.5594 12.8952 15.0962 12.4363 15.0344 11.864C14.9721 11.2876 15.3349 10.7342 15.8913 10.5674C15.9832 10.5398 16.0305 10.5135 16.0434 10.4006C16.0698 10.1732 16.2788 10.0081 16.499 10.0068C16.7189 10.0056 16.9262 10.1678 16.9584 10.3964C16.9722 10.4938 17.0111 10.5072 17.0888 10.5235C17.3413 10.5762 17.4947 10.7881 17.468 11.0339C17.4425 11.2692 17.2514 11.4389 16.9969 11.4443C16.7837 11.4489 16.5701 11.4452 16.3565 11.4456C16.1015 11.446 15.9711 11.5409 15.9678 11.7278C15.9648 11.92 16.0973 12.0149 16.3628 12.0187C16.596 12.022 16.8309 11.9986 17.0617 12.0592C17.5829 12.1963 17.957 12.6624 17.97 13.1941C17.9838 13.753 17.6414 14.2441 17.1177 14.4004Z" fill="white"/>
</g>
<defs>
<clipPath id="clip0_3380_25754">
<rect width="16" height="16" fill="white" transform="translate(8 8)"/>
</clipPath>
</defs>
</svg>
