<svg width="32" height="32" viewBox="0 0 32 32" fill="none" xmlns="http://www.w3.org/2000/svg">
<circle cx="16" cy="16" r="16" fill="#6788FF"/>
<g clip-path="url(#clip0_3380_25712)">
<rect width="16" height="16" transform="translate(8 8)" fill="#6788FF"/>
<path d="M13.5617 24.0001C13.4552 23.9287 13.327 23.9396 13.2097 23.9128C11.589 23.5462 10.4163 22.1138 10.4059 20.4555C10.3955 18.8051 10.403 17.1544 10.4034 15.504C10.4034 15.261 10.5262 15.1378 10.7755 15.1553C11.698 15.22 12.2818 15.9237 12.3461 16.6248C12.377 16.9618 12.3507 17.3009 12.402 17.6375C12.5486 18.5972 12.9796 19.4015 13.7258 20.0216C14.1564 20.3795 14.655 20.4259 15.1611 20.1953C15.6673 19.9644 15.955 19.5585 15.9692 18.9972C15.9834 18.436 16.0156 17.8718 15.9458 17.3122C15.8848 16.8236 15.6343 16.4332 15.2944 16.0824C15.0538 15.8339 14.7995 15.7166 14.4445 15.7349C13.8733 15.7646 13.2991 15.7424 12.7265 15.7466C12.6342 15.7475 12.5799 15.7237 12.5261 15.6414C12.1849 15.1194 11.7059 14.7949 11.0908 14.6834C10.9722 14.6617 10.953 14.6224 10.9851 14.5109C11.1062 14.0908 11.4578 13.7922 11.8955 13.7881C12.843 13.7793 13.7914 13.7651 14.7385 13.7918C15.4894 13.8131 16.1417 14.1171 16.6783 14.6442C17.384 15.3378 18.0814 16.0394 18.7784 16.7414C18.973 16.9372 19.0394 17.197 19.0916 17.458C19.5234 19.6086 18.9843 21.4836 17.4776 23.0751C16.9894 23.5904 16.3805 23.8878 15.671 23.9696C15.6493 23.9721 15.6305 23.9746 15.6251 23.9997C14.9369 24.0001 14.2495 24.0001 13.5617 24.0001Z" fill="white"/>
<path d="M18.9417 15.9516C18.3112 14.8587 17.681 13.7654 17.0488 12.6738C17.0153 12.6166 17.0057 12.5598 17.0062 12.4963C17.007 11.3358 17.0041 10.1749 17.0078 9.01435C17.0095 8.47355 17.3891 8.05052 17.899 8.00417C18.4097 7.95781 18.8591 8.30275 18.9559 8.81724C18.9672 8.87821 18.9693 8.94126 18.9693 9.00349C18.9701 11.2886 18.9697 13.5733 18.9697 15.8584C18.9697 15.8877 18.9697 15.9169 18.9697 15.9461C18.9605 15.9482 18.9509 15.9499 18.9417 15.9516Z" fill="white"/>
<path d="M17.7362 14.9734C17.5328 14.7691 17.3365 14.5758 17.1445 14.3783C16.4558 13.6688 15.6181 13.2979 14.6301 13.2716C14.5361 13.2691 14.4818 13.2399 14.4334 13.158C13.8859 12.2385 13.3313 11.3235 12.7851 10.4039C12.4326 9.81054 12.7183 9.1002 13.371 8.92689C13.797 8.81372 14.2229 8.99747 14.4731 9.4088C15.0556 10.3676 15.6407 11.3248 16.2145 12.2886C16.7193 13.1363 17.21 13.992 17.7057 14.8451C17.7249 14.8781 17.7638 14.9086 17.7362 14.9734Z" fill="white"/>
<path d="M19.5506 17.1289C19.4822 16.9802 19.4922 16.8479 19.4922 16.7188C19.4893 14.8547 19.4888 12.9905 19.4863 11.1263C19.4863 11.0532 19.5089 10.9973 19.554 10.943C19.7962 10.6523 20.2209 10.5713 20.5763 10.7505C20.9195 10.9238 21.1066 11.2992 21.0106 11.6629C20.5579 13.3747 20.1002 15.0848 19.6438 16.7957C19.6158 16.9005 19.5853 17.0045 19.5506 17.1289Z" fill="white"/>
</g>
<defs>
<clipPath id="clip0_3380_25712">
<rect width="16" height="16" fill="white" transform="translate(8 8)"/>
</clipPath>
</defs>
</svg>
