<svg width="32" height="32" viewBox="0 0 32 32" fill="none" xmlns="http://www.w3.org/2000/svg">
<circle cx="16" cy="16" r="16" fill="#0066FF"/>
<path d="M18.9628 9.6C19.1127 9.6 19.263 9.6 19.4128 9.6C19.4402 9.60822 19.4668 9.61996 19.4946 9.62387C20.6988 9.79254 21.5386 10.9755 21.2752 12.1582C21.0909 12.9858 20.5853 13.5482 19.7654 13.7779C18.9346 14.0108 18.2126 13.7838 17.6209 13.1573C17.5595 13.0919 17.5164 13.0895 17.4417 13.1244C16.6163 13.5083 15.7902 13.8918 14.9614 14.2679C14.8612 14.3133 14.8479 14.3637 14.8679 14.4569C14.961 14.8905 14.9269 15.3178 14.7849 15.7362C14.7563 15.8207 14.7732 15.8586 14.8479 15.904C15.4697 16.2825 16.0888 16.666 16.7087 17.0475C16.7322 17.062 16.7576 17.0741 16.7831 17.0874C16.8132 17.0585 16.8378 17.0366 16.8609 17.0131C17.6471 16.2109 18.5977 15.8661 19.7071 16.0516C20.8874 16.2492 21.7084 16.9305 22.1585 18.0353C22.2759 18.3233 22.3134 18.6434 22.3878 18.949C22.3878 19.1157 22.3878 19.2825 22.3878 19.4492C22.3353 19.6965 22.3099 19.9532 22.2254 20.1892C21.7918 21.4 20.943 22.1431 19.6676 22.3541C18.719 22.511 17.8585 22.264 17.1294 21.6418C16.0767 20.7433 15.7331 19.4136 16.1871 18.1116C16.2188 18.0204 16.1976 17.982 16.1209 17.9355C15.5057 17.561 14.8933 17.1821 14.2801 16.8049C14.2527 16.7881 14.2245 16.7732 14.1987 16.7583C13.0039 17.9903 11.1889 17.775 10.2336 16.6738C9.32888 15.6309 9.40323 13.9908 10.3914 13.0226C11.3998 12.0349 13.3052 11.9105 14.3998 13.3474C14.4104 13.3451 14.4233 13.3447 14.4339 13.3396C15.2952 12.9428 16.1557 12.5444 17.0183 12.15C17.0899 12.1171 17.0899 12.0744 17.0801 12.0122C16.9451 11.1372 17.4249 10.2117 18.2314 9.83363C18.4611 9.72601 18.7182 9.67631 18.9628 9.6Z" fill="white"/>
</svg>
