<svg width="32" height="32" viewBox="0 0 32 32" fill="none" xmlns="http://www.w3.org/2000/svg">
<circle cx="16" cy="16" r="16" fill="#EE6767"/>
<path d="M16.0132 23.2003C14.7641 23.2003 13.515 23.2008 12.2659 23.2003C11.6233 23.1998 11.2446 22.959 11.0123 22.3609C10.9188 22.1201 10.8479 21.8583 10.8319 21.6015C10.7814 20.8076 10.7699 20.0131 11.1602 19.2787C11.6058 18.4398 12.2814 17.8872 13.2032 17.6503C13.5924 17.5504 13.9721 17.6029 14.3294 17.7912C15.4446 18.3798 16.5618 18.3853 17.679 17.8002C18.1202 17.5694 18.5723 17.5519 19.0385 17.7078C20.3381 18.142 21.1869 19.3026 21.2064 20.7216C21.2129 21.1863 21.1854 21.6599 21.096 22.1141C21.0031 22.5873 20.7503 22.9905 20.2396 23.1369C20.0862 23.1809 19.9209 23.1978 19.7605 23.1983C18.5114 23.2028 17.2623 23.2003 16.0132 23.2003Z" fill="white"/>
<path d="M16.0209 16.7993C14.0264 16.7963 12.4105 15.1885 12.416 13.2114C12.4215 11.2029 14.0339 9.59952 16.0439 9.60401C18.014 9.60851 19.6184 11.2418 19.6114 13.2349C19.6039 15.1965 17.987 16.8018 16.0209 16.7993Z" fill="white"/>
<path d="M12.5662 16.5531C12.2594 16.711 11.9422 16.8444 11.6554 17.0262C10.6131 17.6878 9.9656 18.6306 9.71678 19.8412C9.6898 19.9716 9.63833 20.0271 9.50693 20.0056C9.47045 19.9996 9.43198 20.0026 9.39451 20.0051C8.54612 20.0596 8.16589 19.6513 8.05997 18.8899C7.96104 18.1789 7.95054 17.4544 8.2963 16.7834C8.64654 16.1034 9.18915 15.6557 9.92513 15.4474C10.2629 15.3519 10.5832 15.4069 10.9084 15.5418C11.2452 15.6812 11.6019 15.7716 11.9492 15.8856C11.9986 15.902 12.0576 15.92 12.0886 15.957C12.2525 16.1524 12.4088 16.3547 12.5662 16.5531Z" fill="white"/>
<path d="M22.3571 20.0047C22.0134 18.327 21.0526 17.1838 19.4492 16.5712C19.6236 16.3494 19.793 16.13 19.9683 15.9167C19.9903 15.8902 20.0493 15.8957 20.0898 15.8827C20.432 15.7728 20.7833 15.6848 21.113 15.5454C21.4568 15.3996 21.7915 15.3551 22.1493 15.4615C23.2255 15.7818 23.9735 16.7326 23.9965 17.8553C24.005 18.27 24.0035 18.6972 23.915 19.0989C23.7701 19.7589 23.4059 20.0047 22.7339 20.0047C22.6105 20.0047 22.486 20.0047 22.3571 20.0047Z" fill="white"/>
<path d="M18.4863 9.07016C19.5755 8.63347 20.6013 8.70842 21.5236 9.4224C22.475 10.1589 22.8467 11.1582 22.6268 12.3418C22.426 13.421 21.5736 14.3459 20.6368 14.5687C21.1544 12.2654 20.4479 10.4382 18.4863 9.07016Z" fill="white"/>
<path d="M11.3948 14.5912C10.3571 14.2125 9.67008 13.5165 9.42526 12.4527C9.14796 11.2491 9.5042 10.2164 10.471 9.44641C11.3958 8.70994 12.4336 8.629 13.5398 9.06968C11.5807 10.4302 10.8702 12.2604 11.3948 14.5912Z" fill="white"/>
</svg>
