<svg width="32" height="32" viewBox="0 0 32 32" fill="none" xmlns="http://www.w3.org/2000/svg">
<circle cx="16" cy="16" r="16" fill="#6788FF"/>
<rect width="16" height="16" transform="translate(8 8)" fill="#6788FF"/>
<path d="M18.9624 9.6001C19.1123 9.6001 19.2626 9.6001 19.4125 9.6001C19.4398 9.60832 19.4665 9.62006 19.4942 9.62397C20.6984 9.79264 21.5382 10.9756 21.2748 12.1583C21.0905 12.9859 20.5849 13.5483 19.765 13.778C18.9342 14.0109 18.2122 13.7839 17.6205 13.1573C17.5591 13.092 17.516 13.0896 17.4413 13.1245C16.616 13.5084 15.7898 13.8919 14.961 14.268C14.8608 14.3134 14.8475 14.3638 14.8675 14.457C14.9606 14.8906 14.9266 15.3179 14.7845 15.7363C14.7559 15.8208 14.7728 15.8587 14.8475 15.9041C15.4693 16.2826 16.0884 16.6661 16.7083 17.0476C16.7318 17.0621 16.7572 17.0742 16.7827 17.0875C16.8128 17.0586 16.8375 17.0367 16.8605 17.0132C17.6467 16.2109 18.5973 15.8662 19.7067 16.0517C20.887 16.2493 21.708 16.9306 22.1581 18.0354C22.2755 18.3234 22.313 18.6435 22.3874 18.9491C22.3874 19.1158 22.3874 19.2826 22.3874 19.4493C22.335 19.6966 22.3095 19.9533 22.225 20.1893C21.7914 21.4001 20.9426 22.1432 19.6672 22.3542C18.7186 22.5111 17.8581 22.2641 17.129 21.6419C16.0763 20.7434 15.7327 19.4136 16.1867 18.1117C16.2184 18.0205 16.1972 17.9821 16.1205 17.9356C15.5053 17.5611 14.8929 17.1822 14.2797 16.805C14.2523 16.7882 14.2241 16.7733 14.1983 16.7584C13.0035 17.9904 11.1885 17.7751 10.2333 16.6739C9.32849 15.631 9.40284 13.9909 10.391 13.0227C11.3994 12.035 13.3049 11.9105 14.3994 13.3475C14.41 13.3452 14.4229 13.3448 14.4335 13.3397C15.2948 12.9429 16.1554 12.5445 17.0179 12.15C17.0895 12.1172 17.0895 12.0745 17.0797 12.0123C16.9447 11.1373 17.4245 10.2118 18.231 9.83373C18.4607 9.72611 18.7178 9.67641 18.9624 9.6001Z" fill="white"/>
</svg>
