<svg width="16" height="12" viewBox="0 0 16 12" fill="none" xmlns="http://www.w3.org/2000/svg">
<path d="M0.285679 4.28571H12.5716V6.00003C12.5716 6.07743 12.5998 6.14429 12.6563 6.20093C12.7129 6.25753 12.7799 6.28577 12.8573 6.28577C12.9407 6.28577 13.0091 6.25903 13.0625 6.20543L15.9198 3.34827C15.9732 3.2947 15.9999 3.22621 15.9999 3.14296C15.9999 3.05956 15.9732 2.99104 15.9196 2.93759L13.0715 0.0893156C13 0.0297093 12.9286 0 12.8571 0C12.7738 0 12.7053 0.0267698 12.6518 0.0803091C12.5983 0.133942 12.5716 0.202305 12.5716 0.285679V2H0.285679C0.208309 2 0.141354 2.02824 0.0848123 2.08481C0.0282708 2.14139 0 2.20831 0 2.28568V4C0 4.07737 0.0282395 4.14433 0.0848123 4.20087C0.141385 4.25741 0.208309 4.28571 0.285679 4.28571Z" fill="white"/>
<path d="M15.7144 7.71442H3.42852V6.00003C3.42852 5.92266 3.40022 5.85571 3.34371 5.79917C3.28713 5.74259 3.22015 5.71436 3.14281 5.71436C3.0594 5.71436 2.99101 5.74112 2.93744 5.79466L0.080309 8.65167C0.0268635 8.7054 0 8.7737 0 8.85719C0 8.93447 0.0267384 9.00005 0.080309 9.05343L2.92856 11.9107C3.00002 11.9702 3.07144 11.9998 3.1429 11.9998C3.22024 11.9998 3.28723 11.9716 3.34377 11.9152C3.40028 11.8585 3.42858 11.7917 3.42858 11.7142V9.99994H15.7144C15.7918 9.99994 15.8586 9.97183 15.9153 9.91519C15.9719 9.85856 16 9.79169 16 9.7142V7.99994C16 7.92254 15.9718 7.85568 15.9153 7.79917C15.8586 7.74266 15.7918 7.71442 15.7144 7.71442Z" fill="white"/>
</svg>
