<svg width="17" height="17" viewBox="0 0 17 17" fill="none" xmlns="http://www.w3.org/2000/svg">
<path d="M8.5 16.5C12.9183 16.5 16.5 12.9183 16.5 8.5C16.5 4.08172 12.9183 0.5 8.5 0.5C4.08172 0.5 0.5 4.08172 0.5 8.5C0.5 12.9183 4.08172 16.5 8.5 16.5Z" fill="#6398FF"/>
<path fill-rule="evenodd" clip-rule="evenodd" d="M6.16057 7.94333L8.40735 4.31999C8.44391 4.26105 8.52957 4.2608 8.56644 4.31952L10.8415 7.94411C10.8687 7.98752 10.8561 8.04474 10.8131 8.07261L8.58329 9.51895C8.5526 9.53886 8.51313 9.53911 8.48219 9.51958L6.19019 8.07199C6.14666 8.04452 6.13344 7.98708 6.16057 7.94333ZM10.5343 9.54854L8.56492 10.7734C8.53476 10.7922 8.49661 10.7923 8.46632 10.7737L6.50148 9.56636C6.41433 9.51279 6.31661 9.6177 6.3762 9.70086L8.52336 12.6969C8.56167 12.7504 8.6417 12.7488 8.67786 12.6938L10.6621 9.6797C10.7174 9.59573 10.6197 9.49545 10.5343 9.54854Z" fill="white"/>
</svg>
