<svg
                xmlns="http://www.w3.org/2000/svg"
                width="16"
                height="16"
                viewBox="0 0 16 16"
                fill="none"
              >
                <path
                  fill-rule="evenodd"
                  clip-rule="evenodd"
                  d="M7.16378 14.7257C7.437 14.9331 7.71023 15.1334 7.99064 15.3337C8.0194 15.3122 8.04816 15.2979 8.06254 15.2907C8.62745 14.8777 9.19236 14.4638 9.75761 14.0496C10.7392 13.3303 11.7218 12.6103 12.7073 11.8931C12.7721 11.8502 12.7936 11.793 12.8008 11.7215L12.801 11.7196C12.8153 11.5629 12.8296 11.4061 12.844 11.2565C12.8655 11.0312 12.8889 10.8058 12.9123 10.5805C12.9356 10.3552 12.959 10.1299 12.9806 9.90462C13.0203 9.5485 13.054 9.1863 13.0872 8.82924C13.09 8.79902 13.0928 8.76884 13.0956 8.7387C13.1172 8.5134 13.1405 8.28811 13.1639 8.06281C13.1873 7.83748 13.2107 7.61214 13.2322 7.38681L13.2325 7.38427C13.2755 6.93448 13.3186 6.48471 13.3616 6.04206C13.3881 5.77166 13.4165 5.50324 13.4448 5.23574C13.4704 4.99377 13.4959 4.75256 13.5198 4.51135C13.545 4.27888 13.5684 4.04641 13.5917 3.81394C13.6151 3.58147 13.6385 3.349 13.6636 3.11653C13.6708 3.05931 13.6564 3.02355 13.6061 2.99494C12.8799 2.53 12.1393 2.10083 11.3556 1.73603C10.3993 1.29255 9.41428 0.913447 8.37171 0.720319C8.35326 0.716648 8.33481 0.712859 8.31638 0.709073C8.19113 0.683354 8.06658 0.657779 7.9475 0.670249C7.37948 0.734625 6.83303 0.884836 6.30097 1.06366C4.8989 1.5286 3.60468 2.21527 2.37517 3.00924C2.34641 3.02355 2.33203 3.07362 2.33203 3.10938C2.33922 3.2131 2.35001 3.31503 2.36079 3.41696C2.37158 3.51888 2.38236 3.62081 2.38955 3.72453C2.40753 3.92123 2.4273 4.11794 2.44707 4.31464C2.46685 4.51135 2.48662 4.70805 2.50459 4.90476C2.52616 5.13007 2.54953 5.35717 2.5729 5.58428C2.59627 5.81138 2.61964 6.03849 2.64121 6.2638C2.66278 6.48912 2.68435 6.71622 2.70592 6.94332C2.72749 7.17042 2.74906 7.39753 2.77063 7.62285C2.7922 7.84817 2.81557 8.07527 2.83893 8.30238C2.8623 8.52948 2.88567 8.75658 2.90724 8.9819C2.92881 9.20722 2.95038 9.43433 2.97195 9.66144C2.99352 9.88854 3.01509 10.1156 3.03666 10.3409C3.08297 10.7556 3.12319 11.1762 3.16292 11.5918C3.16638 11.6279 3.16982 11.664 3.17327 11.7C3.18046 11.7858 3.20922 11.8359 3.28112 11.886C3.92818 12.358 4.57523 12.8319 5.22228 13.3057C5.86944 13.7796 6.51661 14.2535 7.16378 14.7257ZM9.38552 13.3666C8.92535 13.6956 8.46519 14.0318 7.99783 14.3752C7.63832 14.1105 7.28601 13.853 6.93369 13.5955C5.94146 12.8659 4.94923 12.1363 3.95699 11.4139C3.91385 11.3853 3.89228 11.3495 3.88509 11.2923C3.85274 10.9561 3.81858 10.6199 3.78443 10.2837C3.75028 9.94753 3.71613 9.61135 3.68377 9.27517C3.61187 8.6171 3.54716 7.95904 3.48245 7.30097C3.45369 7.03274 3.42672 6.76272 3.39976 6.4927C3.3728 6.22267 3.34584 5.95265 3.31707 5.68442C3.25955 5.07642 3.20203 4.46843 3.13732 3.86043C3.13732 3.84854 3.13732 3.8406 3.13706 3.83267C3.13653 3.81676 3.13493 3.80088 3.13013 3.75314C3.10856 3.55286 3.15889 3.47418 3.31707 3.37404C4.39559 2.73028 5.51725 2.1652 6.72518 1.79325C7.12064 1.67165 7.53047 1.58582 7.93312 1.50714C8.0468 1.48718 8.17913 1.51672 8.30121 1.54396C8.31039 1.54601 8.31952 1.54805 8.32857 1.55005C9.21296 1.72172 10.047 2.03645 10.8595 2.4084C11.5425 2.72313 12.1968 3.08792 12.8296 3.48133C12.8655 3.50279 12.8799 3.5314 12.8727 3.57432C12.8404 3.9105 12.8062 4.24848 12.7721 4.58645C12.7379 4.92443 12.7037 5.2624 12.6714 5.59859C12.639 5.93477 12.6049 6.26738 12.5707 6.59999C12.5366 6.9326 12.5024 7.26521 12.4701 7.60139C12.4054 8.27376 12.3407 8.93898 12.2759 9.6042C12.2184 10.1836 12.1609 10.763 12.1034 11.3352C12.0962 11.371 12.0674 11.4067 12.0387 11.4282C11.5965 11.75 11.1544 12.0737 10.7122 12.3973C10.27 12.721 9.82775 13.0447 9.38552 13.3666ZM6.23137 8.80884C6.21427 8.74603 6.1969 8.68226 6.17883 8.61708C6.68932 8.66715 7.17825 8.71722 7.69594 8.78159C7.68221 8.90449 7.67176 9.02414 7.66146 9.14208C7.65017 9.27124 7.63907 9.39837 7.62404 9.52549C7.62277 9.5362 7.62153 9.54658 7.62034 9.55668C7.58065 9.89056 7.57961 9.89931 7.77503 10.1979C7.82159 10.2652 7.86566 10.3326 7.91164 10.4029C7.94376 10.452 7.97682 10.5026 8.0123 10.5555C8.1561 10.3409 8.29272 10.1335 8.42933 9.92605C8.43652 9.9046 8.43652 9.87598 8.43652 9.85452L8.37181 9.23222C8.36701 9.18215 8.36222 9.13288 8.35743 9.0836C8.34784 8.98505 8.33825 8.8865 8.32867 8.78159C8.58021 8.75657 8.82996 8.73154 9.07971 8.70652C9.32967 8.68147 9.57964 8.65643 9.8314 8.63138C9.80993 8.70612 9.79047 8.77786 9.77152 8.84774C9.73968 8.96512 9.70927 9.07721 9.67321 9.18931C9.65883 9.22507 9.62288 9.27514 9.58693 9.28945C9.32809 9.4182 9.06925 9.5398 8.80321 9.6614C8.72412 9.69716 8.69536 9.74008 8.68817 9.81876C8.56551 10.8207 8.43704 11.8169 8.30799 12.8176C8.29332 12.9314 8.27864 13.0452 8.26395 13.1592V13.2235L8.26397 13.2235C8.27834 13.2164 8.27834 13.2164 8.28553 13.2164C8.86073 12.7657 9.42875 12.308 9.99677 11.8502C10.0111 11.8359 10.0255 11.8073 10.0255 11.7858C10.0111 11.6106 9.99857 11.4371 9.98598 11.2636C9.9734 11.0902 9.96082 10.9167 9.94644 10.7415C9.94372 10.6847 9.93792 10.6289 9.93214 10.5734C9.92264 10.4821 9.91321 10.3914 9.91768 10.298C9.92487 10.019 9.98958 9.76154 10.2197 9.58987C10.3347 9.50403 10.3635 9.4182 10.3707 9.28945C10.3922 8.70291 10.3563 8.11637 10.1765 7.5513C10.0183 7.07921 9.77388 6.65719 9.37842 6.33531C9.11239 6.12072 8.81759 5.97051 8.47247 5.90613L8.4725 5.90605C8.57315 5.67719 8.6738 5.44832 8.78164 5.2123H8.58032C8.70255 4.25382 8.81759 3.30964 8.93263 2.35115C8.89669 2.36546 8.86793 2.37261 8.83917 2.37976L8.83916 2.37976C8.72053 2.42268 8.60189 2.46381 8.48326 2.50494C8.36462 2.54607 8.24598 2.5872 8.12734 2.63011C8.04825 2.65873 7.97635 2.65873 7.89007 2.63011C7.62404 2.53713 7.358 2.44414 7.08478 2.35115C7.20701 3.30964 7.32205 4.25382 7.43709 5.2123H7.23577C7.31126 5.3947 7.38676 5.56502 7.46225 5.73535C7.48742 5.79213 7.51259 5.84891 7.53775 5.90613C7.51338 5.91275 7.489 5.91868 7.46483 5.92457C7.41059 5.93777 7.35741 5.95072 7.30767 5.97051C6.59585 6.21371 6.15726 6.72156 5.89841 7.40109C5.64676 8.0663 5.618 8.75298 5.65395 9.44681C5.65395 9.46827 5.67552 9.50403 5.69709 9.51834C5.86965 9.61848 5.99188 9.75438 6.03502 9.94751C6.07097 10.1192 6.09973 10.298 6.09254 10.4697C6.07805 10.7533 6.05055 11.0402 6.02317 11.326C6.00981 11.4654 5.99648 11.6045 5.98469 11.7429C5.9775 11.8001 5.99188 11.843 6.04221 11.8788C6.26508 12.0576 6.48975 12.2364 6.71442 12.4152C6.93913 12.594 7.16385 12.7729 7.38676 12.9517C7.43417 12.99 7.48159 13.0272 7.53001 13.0651C7.59907 13.1191 7.67018 13.1748 7.74627 13.2378C7.74627 13.2093 7.74394 13.1878 7.74193 13.1692C7.74041 13.1552 7.73908 13.1429 7.73908 13.1305C7.59527 12.0075 7.45147 10.8917 7.30767 9.77584C7.30048 9.71862 7.27891 9.68286 7.22858 9.6614L7.22843 9.66133C6.95526 9.5326 6.68208 9.40387 6.4161 9.27514C6.38734 9.26084 6.35139 9.23938 6.3442 9.21077C6.30475 9.07833 6.26869 8.94589 6.23137 8.80884Z"
                  fill="#EFEFE5"
                />
              </svg>