<svg width="32" height="32" viewBox="0 0 32 32" fill="none" xmlns="http://www.w3.org/2000/svg">
<rect width="32" height="32" rx="16" fill="#353539"/>
<g clip-path="url(#clip0_1373_6865)">
<path d="M6.16406 11.2926V20.7006C6.16406 21.3054 6.48086 21.8526 7.00886 22.1598L15.1593 26.8638C15.6777 27.1614 16.3209 27.1614 16.8393 26.8638L24.9897 22.1598C25.5081 21.8622 25.8345 21.3054 25.8345 20.7006V11.2926C25.8345 10.6878 25.5177 10.1406 24.9897 9.83345L16.8393 5.12945C16.3209 4.83185 15.6777 4.83185 15.1593 5.12945L7.00886 9.83345C6.49046 10.131 6.17366 10.6878 6.17366 11.2926H6.16406Z" fill="#353539"/>
<path d="M10.1602 24.9147L10.9762 22.6875L12.6082 24.0411L11.0818 25.4427L10.1602 24.9147Z" fill="#353539"/>
<path d="M17.7691 17.823L16.6075 21.0102C16.5787 21.0966 16.5787 21.1926 16.6075 21.2886L18.6043 26.7702L20.9179 25.4358L18.1435 17.823C18.0763 17.6502 17.8363 17.6502 17.7691 17.823Z" fill="white"/>
<path d="M20.1006 12.4597C20.0334 12.2869 19.7934 12.2869 19.7262 12.4597L18.5646 15.6469C18.5358 15.7333 18.5358 15.8293 18.5646 15.9253L21.8382 24.9013L24.1518 23.5669L20.1006 12.4693V12.4597Z" fill="white"/>
<path d="M15.9962 5.488C16.0538 5.488 16.1114 5.5072 16.1594 5.536L24.9722 10.624C25.0778 10.6816 25.1354 10.7968 25.1354 10.912V21.088C25.1354 21.2032 25.0682 21.3184 24.9722 21.376L16.1594 26.464C16.1114 26.4928 16.0538 26.512 15.9962 26.512C15.9386 26.512 15.881 26.4928 15.833 26.464L7.02017 21.376C6.91458 21.3184 6.85697 21.2032 6.85697 21.088V10.9024C6.85697 10.7872 6.92418 10.672 7.02017 10.6144L15.833 5.5264C15.881 5.4976 15.9386 5.4784 15.9962 5.4784V5.488ZM15.9962 4C15.6794 4 15.3722 4.0768 15.0842 4.24L6.27137 9.328C5.70498 9.6544 5.35938 10.2496 5.35938 10.9024V21.0784C5.35938 21.7312 5.70498 22.3264 6.27137 22.6528L15.0842 27.7408C15.3626 27.904 15.6794 27.9808 15.9962 27.9808C16.313 27.9808 16.6202 27.904 16.9082 27.7408L25.721 22.6528C26.2874 22.3264 26.633 21.7312 26.633 21.0784V10.9024C26.633 10.2496 26.2874 9.6544 25.721 9.328L16.8986 4.24C16.6202 4.0768 16.3034 4 15.9866 4H15.9962Z" fill="white"/>
<path d="M15.2473 10.1834H13.0105C12.8473 10.1834 12.6937 10.289 12.6361 10.4426L7.8457 23.5754L10.1593 24.9098L15.4393 10.4426C15.4873 10.3082 15.3913 10.1738 15.2569 10.1738L15.2473 10.1834Z" fill="white"/>
<path d="M19.1633 10.1834H16.9265C16.7633 10.1834 16.6097 10.289 16.5521 10.4426L11.0801 25.4378L13.3937 26.7722L19.3457 10.4426C19.3937 10.3082 19.2977 10.1738 19.1633 10.1738V10.1834Z" fill="white"/>
</g>
<defs>
<clipPath id="clip0_1373_6865">
<rect width="24" height="24" fill="white" transform="translate(4 4)"/>
</clipPath>
</defs>
</svg>
