<svg width="32" height="32" viewBox="0 0 32 32" fill="none" xmlns="http://www.w3.org/2000/svg">
<g clip-path="url(#clip0_1370_6876)">
<path d="M31.5214 19.8692C29.3836 28.4452 20.6947 33.6585 12.131 31.5206C3.55473 29.3829 -1.65852 20.6944 0.479358 12.1307C2.61711 3.55473 11.2934 -1.65852 19.8696 0.479359C28.4334 2.60461 33.6592 11.2931 31.5214 19.8692Z" fill="#353539"/>
<path fill-rule="evenodd" clip-rule="evenodd" d="M16.2101 11.0912L19.4218 14.3035C19.5373 14.4191 19.7246 14.4191 19.8401 14.3035L21.533 12.6103C21.6484 12.4948 21.6484 12.3075 21.533 12.1921L16.21 6.86792C16.0945 6.75236 15.9072 6.75236 15.7917 6.86792L10.4707 12.1901C10.3552 12.3056 10.3552 12.4929 10.4707 12.6084L12.1636 14.3016C12.2791 14.4171 12.4664 14.4171 12.5819 14.3016L15.7917 11.0912C15.9073 10.9757 16.0946 10.9757 16.2101 11.0912ZM8.56078 14.099L6.86787 15.7922C6.75238 15.9077 6.75238 16.095 6.86787 16.2105L8.56064 17.9037C8.67613 18.0192 8.86346 18.0192 8.97895 17.9037L10.6719 16.2104C10.7874 16.0949 10.7874 15.9076 10.6719 15.7922L8.97902 14.099C8.8636 13.9835 8.67634 13.9835 8.56078 14.099ZM21.532 19.8111L16.2081 25.1362C16.0926 25.2516 15.9054 25.2516 15.7898 25.1361L10.466 19.8114C10.3504 19.6957 10.3505 19.5083 10.4663 19.3928L12.1617 17.7019C12.2772 17.5866 12.4643 17.5867 12.5797 17.7022L15.7898 20.9128C15.9053 21.0283 16.0926 21.0283 16.2081 20.9128L19.4198 17.7006C19.5353 17.5851 19.7225 17.585 19.8381 17.7004L21.5318 19.3927C21.6475 19.5082 21.6475 19.6955 21.532 19.8111ZM23.0206 14.1L21.3277 15.7933C21.2122 15.9088 21.2122 16.0961 21.3277 16.2116L23.0205 17.9048C23.136 18.0203 23.3233 18.0203 23.4388 17.9048L25.1317 16.2115C25.2472 16.096 25.2472 15.9087 25.1317 15.7932L23.4389 14.1C23.3233 13.9846 23.1361 13.9846 23.0206 14.1ZM16.2101 14.0678L17.9351 15.7931C18.0506 15.9086 18.0506 16.0958 17.9351 16.2114L16.2101 17.9369C16.0946 18.0524 15.9072 18.0524 15.7918 17.9369L14.0668 16.2114C13.9513 16.0959 13.9513 15.9086 14.0668 15.7931L15.7918 14.0678C15.9072 13.9522 16.0946 13.9522 16.2101 14.0678Z" fill="white"/>
</g>
<defs>
<clipPath id="clip0_1370_6876">
<rect width="32" height="32" fill="white"/>
</clipPath>
</defs>
</svg>
