<svg width="32" height="32" viewBox="0 0 32 32" fill="none" xmlns="http://www.w3.org/2000/svg">
<rect width="32" height="32" rx="16" fill="#353539"/>
<g clip-path="url(#clip0_1372_6762)">
<path fill-rule="evenodd" clip-rule="evenodd" d="M15.9984 6.49226L7.77021 11.2453V20.7579L15.9984 25.511L24.2266 20.7579V11.2453L15.9984 6.49226ZM16.344 4.09291C16.1288 3.96903 15.868 3.96903 15.6529 4.09291L5.8729 9.74572C5.65774 9.8696 5.52734 10.0978 5.52734 10.3456V21.6512C5.52734 21.8989 5.65774 22.1271 5.8729 22.251L15.6529 27.9038C15.868 28.0277 16.1288 28.0277 16.344 27.9038L26.1239 22.251C26.3391 22.1271 26.4695 21.8989 26.4695 21.6512V10.3456C26.4695 10.0978 26.3391 9.8696 26.1239 9.74572L16.344 4.09291Z" fill="white"/>
<path d="M15.9984 9.93474L10.7498 12.9665V19.0301L15.9658 22.0423C15.9854 22.0554 15.9984 22.0749 15.9984 22.101V23.1377C15.9984 23.1898 15.9397 23.2224 15.8941 23.1964L9.97395 19.7799C9.81095 19.6886 9.71315 19.5191 9.71315 19.33V12.6666C9.71315 12.484 9.81095 12.308 9.97395 12.2167L15.7376 8.88503C15.9006 8.79375 16.0962 8.79375 16.2527 8.88503L22.1989 12.308C22.2445 12.3341 22.2445 12.3993 22.1989 12.4254C21.8468 12.634 21.6708 12.7253 21.2731 12.947C21.2535 12.96 21.2274 12.96 21.2079 12.947L15.9984 9.93474Z" fill="white"/>
<path d="M16.8656 16.1287C16.8656 16.1026 16.8786 16.0766 16.9047 16.07L22.1207 13.2925C22.1663 13.2664 22.225 13.299 22.225 13.3512V20.1124C22.225 20.1385 22.2119 20.1581 22.1924 20.1711L16.9764 23.2029C16.9308 23.229 16.8721 23.1964 16.8721 23.1442V16.1287H16.8656Z" fill="white"/>
</g>
<defs>
<clipPath id="clip0_1372_6762">
<rect width="24" height="24" fill="white" transform="translate(4 4)"/>
</clipPath>
</defs>
</svg>
