<svg width="32" height="32" viewBox="0 0 32 32" fill="none" xmlns="http://www.w3.org/2000/svg">
<rect width="32" height="32" rx="16" fill="#353539"/>
<g clip-path="url(#clip0_1372_6816)">
<path d="M18.65 12.9454H13.3547C13.1297 12.9454 12.9464 13.1288 12.9464 13.3537V18.6491C12.9464 18.874 13.1297 19.0573 13.3547 19.0573H18.65C18.875 19.0573 19.0583 18.874 19.0583 18.6491V13.3537C19.0559 13.1288 18.875 12.9454 18.65 12.9454Z" fill="white"/>
<path d="M12.5357 6.83594H7.24031C7.01539 6.83594 6.83203 7.0193 6.83203 7.24421V12.5396C6.83203 12.7645 7.01539 12.9479 7.24031 12.9479H12.5357C12.7606 12.9479 12.944 12.7645 12.944 12.5396V7.24177C12.944 7.01685 12.7606 6.83594 12.5357 6.83594Z" fill="white"/>
<path d="M24.7571 6.83594H19.4617C19.2368 6.83594 19.0534 7.0193 19.0534 7.24421V12.5396C19.0534 12.7645 19.2368 12.9479 19.4617 12.9479H24.7571C24.982 12.9479 25.1654 12.7645 25.1654 12.5396V7.24177C25.1654 7.01685 24.982 6.83594 24.7571 6.83594Z" fill="white"/>
<path d="M12.5357 19.0573H7.24031C7.01539 19.0573 6.83203 19.2407 6.83203 19.4656V24.761C6.83203 24.9859 7.01539 25.1693 7.24031 25.1693H12.5357C12.7606 25.1693 12.944 24.9859 12.944 24.761V19.4656C12.944 19.2383 12.7606 19.0573 12.5357 19.0573Z" fill="white"/>
<path d="M24.7571 19.0573H19.4617C19.2368 19.0573 19.0534 19.2407 19.0534 19.4656V24.761C19.0534 24.9859 19.2368 25.1693 19.4617 25.1693H24.7571C24.982 25.1693 25.1654 24.9859 25.1654 24.761V19.4656C25.1654 19.2383 24.982 19.0573 24.7571 19.0573Z" fill="white"/>
</g>
<defs>
<clipPath id="clip0_1372_6816">
<rect width="20" height="20" fill="white" transform="translate(6 6)"/>
</clipPath>
</defs>
</svg>
