<svg width="32" height="32" viewBox="0 0 32 32" fill="none" xmlns="http://www.w3.org/2000/svg">
<g clip-path="url(#clip0_1370_6883)">
<path d="M31.5214 19.8692C29.3836 28.4452 20.6947 33.6585 12.131 31.5206C3.55473 29.3829 -1.65852 20.6944 0.479358 12.1307C2.61711 3.55473 11.2934 -1.65852 19.8696 0.479359C28.4334 2.60461 33.6592 11.2931 31.5214 19.8692Z" fill="#353539"/>
<path d="M21.1081 19.8132L26.1055 16.9281C26.3699 16.7753 26.5343 16.4909 26.5343 16.1853V10.4142C26.5343 10.1091 26.3699 9.82418 26.1055 9.6714L21.1081 6.78628C20.8438 6.63352 20.515 6.63396 20.2506 6.78628L15.2532 9.6714C14.9889 9.82418 14.8245 10.1087 14.8245 10.4142V20.7267L11.3202 22.7494L7.81595 20.7267V16.68L11.3202 14.6572L13.6319 15.9913V13.2769L11.7489 12.1901C11.619 12.1152 11.4707 12.0758 11.3202 12.0758C11.1697 12.0758 11.0214 12.1152 10.8915 12.1901L5.89358 15.0756C5.62926 15.2284 5.46484 15.5129 5.46484 15.8184V21.5891C5.46484 21.8942 5.62926 22.1792 5.89358 22.3319L10.891 25.2174C11.1553 25.3698 11.4837 25.3698 11.7485 25.2174L16.7459 22.3324C17.0102 22.1796 17.1747 21.8946 17.1747 21.5896V11.277L17.2378 11.2408L20.679 9.25432L24.1831 11.2775V15.3238L20.679 17.347L18.3708 16.0146V18.7291L20.2502 19.8146C20.5145 19.9669 20.8434 19.9669 21.1077 19.8146L21.1081 19.8132Z" fill="white"/>
</g>
<defs>
<clipPath id="clip0_1370_6883">
<rect width="32" height="32" fill="white"/>
</clipPath>
</defs>
</svg>
